<svg xmlns="http://www.w3.org/2000/svg" viewBox="0 0 362.47 486"><defs><style>.cls-1{opacity:0.42;}.cls-2{fill:none;}.cls-3{fill:#fe6a63;}.cls-4{fill:#822731;}.cls-5{fill:#6d1014;}.cls-6{fill:#d73731;}.cls-7{fill:#79171c;}.cls-8{fill:#ea5049;}.cls-9{fill:#812e37;}.cls-10{fill:#ff9c95;}.cls-11{fill:#ffb6a9;}.cls-12{fill:#833541;}.cls-13{fill:#ff837a;}.cls-14{fill:#f04214;}.cls-15{fill:#cb2107;}.cls-16{fill:#df330e;}.cls-17{fill:#f2601e;}.cls-18{fill:#f27023;}.cls-19{fill:#f15018;}.cls-20{fill:#f39c37;}.cls-21{fill:#bc7000;}</style></defs><title>Asset 27</title><g id="Layer_2" data-name="Layer 2"><g id="레이어_1" data-name="레이어 1"><g class="cls-1"><polygon class="cls-2" points="176.05 100.63 163.9 100.63 176.84 80.35 180.19 89.43 176.05 100.63"/><polygon class="cls-2" points="176.05 100.63 180.19 89.43 180.19 100.63 176.05 100.63"/><polygon class="cls-2" points="176.84 80.35 180.19 75.09 180.19 89.43 176.84 80.35"/><polygon class="cls-2" points="180.19 89.43 184.32 100.63 180.19 100.63 180.19 89.43"/><polygon class="cls-2" points="180.19 89.43 183.54 80.35 196.47 100.63 184.32 100.63 180.19 89.43"/><polygon class="cls-2" points="180.19 75.09 183.54 80.35 180.19 89.43 180.19 75.09"/><polygon class="cls-3" points="180.19 312.87 180.19 100.63 184.32 100.63 250.38 279.4 250.38 280.98 249.33 280.47 180.19 312.87"/><polygon class="cls-4" points="250.38 374.07 250.38 399.29 198.73 486 180.19 486 180.19 402.5 250.38 374.07"/><polygon class="cls-5" points="295.43 486 261.75 486 313.23 403.57 313.23 401.91 362.47 374.07 362.47 402.5 295.43 486"/><polygon class="cls-6" points="313.23 283.68 196.47 100.63 240.95 100.63 362.47 280.47 313.23 311.57 313.23 283.68"/><polygon class="cls-7" points="250.38 374.07 312.19 402.5 313.23 401.91 313.23 403.57 261.75 486 198.73 486 250.38 399.29 250.38 374.07"/><polygon class="cls-8" points="313.23 311.57 250.38 280.98 250.38 279.4 184.32 100.63 196.47 100.63 313.23 283.68 313.23 311.57"/><polygon class="cls-9" points="47.14 401.88 48.19 402.5 110 374.07 110 399.29 161.65 486 98.63 486 47.14 403.57 47.14 401.88"/><polygon class="cls-10" points="110 279.4 110 280.94 108.95 280.47 47.14 317.63 47.14 283.68 163.9 100.63 176.05 100.63 110 279.4"/><polygon class="cls-11" points="47.14 317.63 0 284.75 121.52 100.63 163.9 100.63 47.14 283.68 47.14 317.63"/><polygon class="cls-12" points="47.14 403.57 98.63 486 64.95 486 0 402.5 0 374.07 47.14 401.88 47.14 403.57"/><polygon class="cls-13" points="180.19 312.87 110 280.94 110 279.4 176.05 100.63 180.19 100.63 180.19 312.87"/><polygon class="cls-4" points="110 374.07 180.19 402.5 180.19 486 161.65 486 110 399.29 110 374.07"/><polygon class="cls-14" points="180.19 402.5 180.19 312.87 249.33 280.47 250.38 280.98 250.38 374.07 180.19 402.5"/><polygon class="cls-15" points="313.23 311.57 362.47 280.47 362.47 374.07 313.23 401.91 313.23 311.57"/><polygon class="cls-16" points="250.38 374.07 250.38 280.98 313.23 311.57 313.23 401.91 312.19 402.5 250.38 374.07"/><polygon class="cls-17" points="48.19 402.5 47.14 401.88 47.14 317.63 108.95 280.47 110 280.94 110 374.07 48.19 402.5"/><polygon class="cls-18" points="47.14 401.88 0 374.07 0 284.75 47.14 317.63 47.14 401.88"/><polygon class="cls-19" points="180.19 402.5 110 374.07 110 280.94 180.19 312.87 180.19 402.5"/><rect class="cls-2" x="180.19" y="81.36" width="58.67" height="19.27"/><polygon class="cls-20" points="180.19 81.36 180.19 81.36 180.19 81.36 180.19 100.63 121.52 100.63 121.52 81.36 121.52 81.36 131.3 65.97 141.08 81.36 141.08 81.36 150.85 65.97 160.63 81.36 160.63 81.36 170.41 65.97 180.19 81.36 180.19 81.36 180.19 81.36"/><polygon class="cls-21" points="238.85 81.36 238.85 81.36 238.85 81.36 238.85 100.63 180.19 100.63 180.19 81.36 180.19 81.36 189.97 65.97 199.74 81.36 199.74 81.36 209.52 65.97 219.3 81.36 219.3 81.36 229.08 65.97 238.85 81.36 238.85 81.36 238.85 81.36"/><polygon class="cls-20" points="152.95 51.38 152.95 47.1 155.05 47.1 155.05 0 180.19 0 180.19 51.38 152.95 51.38"/><polygon class="cls-21" points="180.19 51.38 180.19 0 205.33 0 205.33 47.1 209.52 47.1 209.52 51.38 180.19 51.38"/></g></g></g></svg>