<svg xmlns="http://www.w3.org/2000/svg" viewBox="0 0 362.47 475.61"><defs><style>.cls-1{fill:#efd9c5;}.cls-2{fill:#2c2d2d;}.cls-3{fill:red;}.cls-4{fill:none;}.cls-5{fill:#fe6a63;}.cls-6{fill:#822731;}.cls-7{fill:#6d1014;}.cls-8{fill:#d73731;}.cls-9{fill:#79171c;}.cls-10{fill:#ea5049;}.cls-11{fill:#812e37;}.cls-12{fill:#ff9c95;}.cls-13{fill:#ffb6a9;}.cls-14{fill:#833541;}.cls-15{fill:#ff837a;}.cls-16{fill:#f04214;}.cls-17{fill:#cb2107;}.cls-18{fill:#df330e;}.cls-19{fill:#f2601e;}.cls-20{fill:#f27023;}.cls-21{fill:#f15018;}.cls-22{fill:#f39c37;}.cls-23{fill:#bc7000;}</style></defs><title>Asset 28</title><g id="Layer_2" data-name="Layer 2"><g id="레이어_1" data-name="레이어 1"><ellipse class="cls-1" cx="203.05" cy="420.58" rx="4.6" ry="6.99"/><path class="cls-2" d="M209.47,419.93c0,6-4.12-2.05-9.18-2.05s-9.13,8.07-9.13,2.05,4.1-10.9,9.16-10.9S209.47,413.91,209.47,419.93Z"/><polygon class="cls-3" points="203.56 411.82 203.56 462.19 175.76 462.19 192.03 428.02 175.76 427.98 193.86 410.73 206.79 405.62 203.56 411.82"/><polyline class="cls-1" points="197.11 462.19 197.13 470.32 200.18 469.72 202.21 471.61 195.52 471.61 195.52 462.19"/><polyline class="cls-1" points="190.42 462.19 190.45 470.32 193.5 469.72 195.52 471.61 188.84 471.61 188.84 462.19"/><polygon class="cls-4" points="176.05 377.14 163.9 377.14 176.84 396.98 180.19 388.1 176.05 377.14"/><polygon class="cls-4" points="176.05 377.14 180.19 388.1 180.19 377.14 176.05 377.14"/><polygon class="cls-4" points="176.84 396.98 180.19 402.12 180.19 388.1 176.84 396.98"/><polygon class="cls-4" points="180.19 388.1 184.32 377.14 180.19 377.14 180.19 388.1"/><polygon class="cls-4" points="180.19 388.1 183.54 396.98 196.47 377.14 184.32 377.14 180.19 388.1"/><polygon class="cls-4" points="180.19 402.12 183.54 396.98 180.19 388.1 180.19 402.12"/><polygon class="cls-5" points="180.19 169.43 180.19 377.14 184.32 377.14 250.38 202.19 250.38 200.64 249.33 201.14 180.19 169.43"/><polygon class="cls-6" points="250.38 109.54 250.38 84.86 198.73 0 180.19 0 180.19 81.71 250.38 109.54"/><polygon class="cls-7" points="295.43 0 261.75 0 313.23 80.67 313.23 82.29 362.47 109.54 362.47 81.71 295.43 0"/><polygon class="cls-8" points="313.23 198 196.47 377.14 240.95 377.14 362.47 201.14 313.23 170.7 313.23 198"/><polygon class="cls-9" points="250.38 109.54 312.19 81.71 313.23 82.29 313.23 80.67 261.75 0 198.73 0 250.38 84.86 250.38 109.54"/><polygon class="cls-10" points="313.23 170.7 250.38 200.64 250.38 202.19 184.32 377.14 196.47 377.14 313.23 198 313.23 170.7"/><polygon class="cls-11" points="47.14 82.32 48.19 81.71 110 109.54 110 84.86 161.65 0 98.63 0 47.14 80.67 47.14 82.32"/><polygon class="cls-12" points="110 202.19 110 200.67 108.95 201.14 47.14 164.77 47.14 198 163.9 377.14 176.05 377.14 110 202.19"/><polygon class="cls-13" points="47.14 164.77 0 196.95 121.52 377.14 163.9 377.14 47.14 198 47.14 164.77"/><polygon class="cls-14" points="47.14 80.67 98.63 0 64.95 0 0 81.71 0 109.54 47.14 82.32 47.14 80.67"/><polygon class="cls-15" points="180.19 169.43 110 200.67 110 202.19 176.05 377.14 180.19 377.14 180.19 169.43"/><polygon class="cls-6" points="110 109.54 180.19 81.71 180.19 0 161.65 0 110 84.86 110 109.54"/><polygon class="cls-16" points="180.19 81.71 180.19 169.43 249.33 201.14 250.38 200.64 250.38 109.54 180.19 81.71"/><polygon class="cls-17" points="313.23 170.7 362.47 201.14 362.47 109.54 313.23 82.29 313.23 170.7"/><polygon class="cls-18" points="250.38 109.54 250.38 200.64 313.23 170.7 313.23 82.29 312.19 81.71 250.38 109.54"/><polygon class="cls-19" points="48.19 81.71 47.14 82.32 47.14 164.77 108.95 201.14 110 200.67 110 109.54 48.19 81.71"/><polygon class="cls-20" points="47.14 82.32 0 109.54 0 196.95 47.14 164.77 47.14 82.32"/><polygon class="cls-21" points="180.19 81.71 110 109.54 110 200.67 180.19 169.43 180.19 81.71"/><rect class="cls-4" x="180.19" y="377.14" width="58.67" height="18.86"/><polygon class="cls-22" points="180.19 395.99 180.19 395.99 180.19 395.99 180.19 377.14 121.52 377.14 121.52 396 121.52 396 131.3 411.06 141.08 396 141.08 396 150.85 411.06 160.63 396 160.63 396 170.41 411.06 180.19 396 180.19 396 180.19 395.99"/><polygon class="cls-23" points="238.85 395.99 238.85 395.99 238.85 395.99 238.85 377.14 180.19 377.14 180.19 396 180.19 396 189.97 411.06 199.74 396 199.74 396 209.52 411.06 219.3 396 219.3 396 229.08 411.06 238.85 396 238.85 396 238.85 395.99"/><polygon class="cls-22" points="152.95 425.33 152.95 429.52 155.05 429.52 155.05 475.61 180.19 475.61 180.19 425.33 152.95 425.33"/><polygon class="cls-23" points="180.19 425.33 180.19 475.61 205.33 475.61 205.33 429.52 209.52 429.52 209.52 425.33 180.19 425.33"/></g></g></svg>