<svg xmlns="http://www.w3.org/2000/svg" viewBox="0 0 274.83 538"><title>Asset 17</title><g id="Layer_2" data-name="Layer 2"><g id="레이어_1" data-name="레이어 1"><polygon points="226.65 50.55 226.65 461.19 0 461.19 132.68 182.62 0 182.32 147.58 41.7 253 0 226.65 50.55"/><path d="M274.83,116.68c0,49.07-33.61-16.68-74.83-16.68s-74.43,65.75-74.43,16.68S159,27.84,200.2,27.84,274.83,67.61,274.83,116.68Z"/><polyline points="174.04 461.19 174.25 527.43 199.11 522.54 215.6 538 161.11 538 161.11 461.19"/><polyline points="119.55 461.19 119.75 527.43 144.62 522.54 161.11 538 106.61 538 106.61 461.19"/><ellipse cx="222.5" cy="122" rx="37.5" ry="57"/></g></g></svg>