<svg xmlns="http://www.w3.org/2000/svg" viewBox="0 0 236 71"><defs><style>.cls-1{fill:#cae9ef;}</style></defs><title>Asset 41</title><g id="Layer_2" data-name="Layer 2"><g id="레이어_1" data-name="레이어 1"><rect class="cls-1" width="224" height="71" rx="23.61"/><path d="M68.06,24.64a3.88,3.88,0,0,1-.25.63c-.17.38-.41.89-.7,1.51s-.63,1.36-1,2.19-.82,1.72-1.27,2.65-.92,1.9-1.4,2.89-1,2-1.42,2.92l-1.34,2.73L59.5,42.49l-.84,1.71c-.22.46-.37.75-.44.88a.2.2,0,0,1-.13.14h-.2c-.06,0-.11,0-.13,0a.05.05,0,0,0-.08,0,.18.18,0,0,1-.21,0c-.06,0-.11,0-.14,0a.65.65,0,0,1-.26.17c-.06,0-.09,0-.09-.17A6.63,6.63,0,0,0,56.87,44c-.09-.56-.21-1.22-.36-2s-.34-1.59-.55-2.48-.43-1.81-.66-2.74-.46-1.86-.7-2.77-.45-1.76-.66-2.55-.39-1.49-.55-2.1S53.1,28.27,53,28q-.23.57-.6,1.56c-.25.65-.53,1.39-.83,2.22l-.95,2.62-1,2.77c-.33.91-.65,1.79-.94,2.64L47.91,42c-.24.65-.42,1.19-.56,1.6s-.22.64-.23.69l-.07.12-.11.18a2.15,2.15,0,0,1-.18.23l-.17,0-.14,0-.19.11-.13.08-.12.08-.15.12-.15.08-.13,0-.2-.08-.18-.1a.19.19,0,0,1-.11-.11q-.08-.21-.24-.78c-.11-.38-.24-.86-.4-1.42s-.33-1.2-.51-1.91l-.6-2.26c-.22-.79-.44-1.61-.67-2.45s-.44-1.68-.67-2.52c-.17-.65-.35-1.32-.54-2s-.38-1.35-.57-2-.37-1.3-.55-1.9-.34-1.15-.48-1.64-.27-.89-.37-1.23-.17-.56-.2-.68a.2.2,0,0,1,.09-.22c.07-.06.16-.05.25,0s.12.06.17,0a.2.2,0,0,1,.14-.06l.15,0,.2.07.2.08.16.08s.07,0,.08,0,0,0,.05-.06l0-.09a.29.29,0,0,1,.1-.08.4.4,0,0,1,.32,0,1.4,1.4,0,0,0,.27.11q.09,0,.09,0a.34.34,0,0,0,0-.09.15.15,0,0,1,0-.09s.06,0,.15,0a.61.61,0,0,1,.36.1,1.1,1.1,0,0,1,.26.58l.2.73c.12.4.26.92.44,1.56s.37,1.34.6,2.15l.69,2.5c.24.87.48,1.75.73,2.62s.48,1.72.7,2.51.42,1.51.59,2.15.32,1.17.43,1.57c.28-.55.6-1.25,1-2.09s.71-1.74,1.08-2.7.75-2,1.12-3,.72-2,1-2.86.62-1.72.87-2.44l.57-1.66a3.92,3.92,0,0,0,.17-.62,3.55,3.55,0,0,1,.15-.52,2.83,2.83,0,0,1,.25-.41,1.16,1.16,0,0,1,.24-.27.74.74,0,0,1,.36-.07l.35.07c.05,0,.08,0,.1,0s0-.07,0-.11a.83.83,0,0,1,0-.15.28.28,0,0,1,.15-.13c.25-.13.41-.19.47-.17s.12.15.18.38c0,0,.06.28.16.68s.22.93.37,1.58.34,1.38.53,2.21l.63,2.6c.23.91.46,1.82.68,2.74l.66,2.6c.22.82.42,1.56.61,2.23s.34,1.2.47,1.6c.13-.28.32-.67.56-1.16s.53-1.05.84-1.69l1-2.08c.37-.75.75-1.52,1.13-2.31l1.14-2.39c.38-.79.73-1.56,1.06-2.31s.64-1.43.91-2.08.5-1.21.67-1.69a1,1,0,0,1,.15-.28,1.7,1.7,0,0,1,.22-.24,1.45,1.45,0,0,1,.21-.18.32.32,0,0,1,.13-.07l.22.07a.29.29,0,0,1,.15.14.2.2,0,0,1,.07.11s0,.07,0,.1a.1.1,0,0,0,0,.07.29.29,0,0,0,.12,0c.1,0,.16,0,.19.07a.37.37,0,0,1,.05.16.66.66,0,0,1,0,.14s0,.06.06,0,.08,0,.08.11A1.1,1.1,0,0,1,68.06,24.64Z"/><path d="M76.88,34.81c0,.14,0,.3.05.48s0,.36,0,.55q0,.72-.06,1.68c0,.65-.09,1.41-.15,2.29,0,.34,0,.78,0,1.3s0,1.07,0,1.64,0,.94,0,1.4,0,.84.06,1.19c0,.15,0,.23-.1.24a.81.81,0,0,1-.3,0,.17.17,0,0,0-.14,0,.41.41,0,0,0-.11.07l-.11.07a.16.16,0,0,1-.14,0l-.26-.18-.38-.27a2.85,2.85,0,0,1-.38-.31,1.73,1.73,0,0,1-.27-.3,3.66,3.66,0,0,1-.13-1c0-.55,0-1.22,0-2v-2c0-.44,0-.88.07-1.31s.06-.85.1-1.25.08-.78.11-1.14,0-.68,0-1a2.22,2.22,0,0,0-.19-1s-.13,0-.28.08a2.69,2.69,0,0,0-.58.57,8.49,8.49,0,0,0-.79,1.24A16.71,16.71,0,0,0,72,37.75c-.32.84-.65,1.86-1,3s-.65,2.6-1,4.22a.62.62,0,0,1-.11.29.29.29,0,0,1-.25.09c-.08,0-.15-.07-.2-.19a1,1,0,0,0-.2-.31,1.68,1.68,0,0,1-.52-.07.39.39,0,0,1-.28-.37.41.41,0,0,0,0-.19,2,2,0,0,1-.12-.21.9.9,0,0,1-.12-.24.71.71,0,0,1-.06-.31c0-.7.06-1.46.08-2.29s0-1.68.07-2.55,0-1.73.06-2.61,0-1.71.08-2.5.06-1.54.08-2.23.06-1.28.1-1.79c.12-1.49.24-2.67.36-3.53s.2-1.35.23-1.49a1.1,1.1,0,0,1,.09-.23.29.29,0,0,1,.08-.1l.06-.05a.14.14,0,0,0,0-.08.11.11,0,0,1,.11-.06.6.6,0,0,1,.19,0h.19a.26.26,0,0,0,.15-.07l.21-.15a.5.5,0,0,1,.29-.06,1,1,0,0,1,.39,0c.09,0,.15.12.17.29a11,11,0,0,1,0,1.22c0,.5,0,1.05-.08,1.66s-.08,1.23-.13,1.9-.11,1.32-.16,2-.11,1.26-.15,1.83-.08,1.07-.1,1.49c0,.23,0,.5,0,.83v2.23c0,.41,0,.8,0,1.2a17.74,17.74,0,0,1,1-2.53A12.22,12.22,0,0,1,72.56,34a5.08,5.08,0,0,1,1-1.1,2.12,2.12,0,0,1,.9-.44,1,1,0,0,1,.32.05l.49.13a4.09,4.09,0,0,1,.46.16.88.88,0,0,1,.25.11l.18.2a2,2,0,0,1,.24.34,2.61,2.61,0,0,1,.25.55A5.52,5.52,0,0,1,76.88,34.81Z"/><path d="M90,38.58a8.17,8.17,0,0,1-.46,2.84,6.58,6.58,0,0,1-1.25,2.15,5.4,5.4,0,0,1-1.83,1.37,5,5,0,0,1-2.2.49,5.12,5.12,0,0,1-1-.12,5.05,5.05,0,0,1-1.14-.37,5.44,5.44,0,0,1-1.12-.67,4.57,4.57,0,0,1-1-1,5.39,5.39,0,0,1-.67-1.45,6.22,6.22,0,0,1-.23-1.91,8,8,0,0,1,.3-2.25,8.37,8.37,0,0,1,.77-1.82,6.68,6.68,0,0,1,1.08-1.39,8.72,8.72,0,0,1,1.2-1,5.53,5.53,0,0,1,1.16-.59,3.93,3.93,0,0,1,1-.23c.14,0,.2,0,.18,0a.3.3,0,0,1-.11.13l-.16.15s0,.08.06.09l.17.06.14.08L85,33a.35.35,0,0,1,.21-.07.47.47,0,0,1,.17,0l.12,0s0,0,.06-.09.06-.17.11-.19a2.75,2.75,0,0,1,.39,0,2.35,2.35,0,0,1,.55.11,3.9,3.9,0,0,1,.81.36,5.19,5.19,0,0,1,.9.68,4.56,4.56,0,0,1,.84,1.09,6,6,0,0,1,.63,1.55A8.25,8.25,0,0,1,90,38.58Zm-5.43-4.41a4.68,4.68,0,0,0-1,.85,6.88,6.88,0,0,0-1.6,2.83,6.59,6.59,0,0,0-.25,1.84,9,9,0,0,0,.18,1.88A5,5,0,0,0,82.39,43a2.78,2.78,0,0,0,.88.92,2.25,2.25,0,0,0,1.19.32,2.3,2.3,0,0,0,1.16-.33,3.11,3.11,0,0,0,1-1,5.52,5.52,0,0,0,.73-1.64A8.22,8.22,0,0,0,87.66,39a6.07,6.07,0,0,0-.34-2.19,5.64,5.64,0,0,0-.78-1.44,3.3,3.3,0,0,0-.82-.79,1.71,1.71,0,0,0-.48-.23h-.33A.76.76,0,0,1,84.55,34.17Z"/><path d="M106.89,36.11a7.87,7.87,0,0,1-.09,1.28c-.08.51-.16,1-.25,1.63s-.17,1.17-.25,1.77a12.93,12.93,0,0,0-.12,1.7,6.36,6.36,0,0,0,.07,1,2.64,2.64,0,0,0,.26.82.78.78,0,0,1,.11.35.71.71,0,0,1,0,.26c0,.08,0,.14-.06.2a.22.22,0,0,0,0,.16.21.21,0,0,1,0,.17.68.68,0,0,1-.13.18.82.82,0,0,1-.2.12.25.25,0,0,1-.21,0,.79.79,0,0,0-.26-.12h-.17l-.12.06a.15.15,0,0,1-.13,0l-.55-.32a.91.91,0,0,1-.39-.39,1.14,1.14,0,0,1-.12-.3c0-.14-.06-.31-.09-.5s0-.39-.06-.62,0-.43,0-.64A7.36,7.36,0,0,1,103,44.45a5.81,5.81,0,0,1-1.13,1,4,4,0,0,1-1.11.52,3.86,3.86,0,0,1-1,.15,2.57,2.57,0,0,1-.82-.12,1.7,1.7,0,0,1-.54-.28,7.73,7.73,0,0,1-1.05-1.2,1.2,1.2,0,0,1-.28-.74A4.93,4.93,0,0,1,97.51,42a6.68,6.68,0,0,1,1-1.5,8,8,0,0,1,1.31-1.23,13.15,13.15,0,0,1,1.49-1,11.33,11.33,0,0,1,1.5-.72c.49-.2.94-.36,1.34-.48,0-.54,0-1-.07-1.42a4.71,4.71,0,0,0-.11-.9,2.88,2.88,0,0,0-.69-1.39,1.54,1.54,0,0,0-1.13-.46,1.43,1.43,0,0,0-.85.32,3,3,0,0,0-.78.86,4.87,4.87,0,0,0-.56,1.24,5.29,5.29,0,0,0-.24,1.5c0,.13,0,.25,0,.37a2.65,2.65,0,0,0,0,.38.14.14,0,0,1-.07.15l-.21.07-.25,0-.23,0-.12,0a.15.15,0,0,1-.09,0,.33.33,0,0,1-.11-.08l-.19-.15a1.28,1.28,0,0,0-.25-.15L98,37.4l-.17-.08s-.07-.06-.07-.1a5,5,0,0,1,.42-1.93,6.63,6.63,0,0,1,1.11-1.81A6.22,6.22,0,0,1,101,32.13a3.89,3.89,0,0,1,2-.52,3.81,3.81,0,0,1,1.46.25,3.48,3.48,0,0,1,1.06.67,3.81,3.81,0,0,1,.71.9,5.16,5.16,0,0,1,.44,1,6.41,6.41,0,0,1,.22,1A6.5,6.5,0,0,1,106.89,36.11Zm-2.73,2.68a9.61,9.61,0,0,0-1,.43,11.53,11.53,0,0,0-1.1.64,13.25,13.25,0,0,0-1.12.85,9.49,9.49,0,0,0-1,1.07A5.71,5.71,0,0,0,99.09,43a3.47,3.47,0,0,0-.32.89,1.07,1.07,0,0,0,0,.58.44.44,0,0,0,.21.26,1.53,1.53,0,0,0,1,0,3.14,3.14,0,0,0,1-.52,6.6,6.6,0,0,0,1-.88c.32-.35.62-.71.9-1.07s.53-.73.75-1.09.4-.66.54-.92Z"/><path d="M116.63,34.11a8.08,8.08,0,0,1-.09.86,4.8,4.8,0,0,1-.19.81,3.11,3.11,0,0,1-.29.69,1.72,1.72,0,0,1-.38.48.53.53,0,0,1-.29.15.24.24,0,0,1-.17-.06.49.49,0,0,1-.12-.13.18.18,0,0,0-.12-.09h-.15a.45.45,0,0,1-.2,0,.32.32,0,0,1-.18-.11.69.69,0,0,1-.11-.36,3.17,3.17,0,0,1,0-.74c0-.31,0-.61,0-.9a2.35,2.35,0,0,0-.08-.65c-.06-.18-.15-.27-.29-.27a1,1,0,0,0-.37.16,2,2,0,0,0-.58.67,7.12,7.12,0,0,0-.63,1.49,13,13,0,0,0-.52,2.58c0,1.38,0,2.5,0,3.34s0,1.5,0,2a8.47,8.47,0,0,1,0,.86.43.43,0,0,1-.15.33,1.36,1.36,0,0,1-.29.11l-.47.13-.47.11a.92.92,0,0,1-.29,0l-.16-.1a2.19,2.19,0,0,1-.25-.2,2.61,2.61,0,0,1-.23-.25.48.48,0,0,1-.13-.22,5.32,5.32,0,0,1,0-.69c0-.35,0-.78,0-1.28s0-1.05,0-1.65,0-1.19,0-1.79c0-.38,0-.8,0-1.27s.06-.94.09-1.42l.12-1.42c0-.46.07-.87.11-1.24s.06-.67.09-.92,0-.39,0-.44,0-.11.11-.09a.9.9,0,0,1,.22.11l.2.13q.09.06.12,0c0-.09.09-.1.22,0a2.58,2.58,0,0,1,.37.22.58.58,0,0,0,.14.13,1,1,0,0,1,.16.14.69.69,0,0,1,.13.21,1.15,1.15,0,0,1,0,.36c0,.15,0,.36,0,.64s0,.61.07,1c.11-.36.25-.74.4-1.14a6.44,6.44,0,0,1,.57-1.11,3.31,3.31,0,0,1,.78-.84,1.78,1.78,0,0,1,1.08-.33,2,2,0,0,1,.7.14,1.88,1.88,0,0,1,.62.4,1.83,1.83,0,0,1,.44.64A1.94,1.94,0,0,1,116.63,34.11Z"/><path d="M127.54,39.43c0,.12,0,.25,0,.4s0,.32,0,.51a4.75,4.75,0,0,1-.11.89,6.66,6.66,0,0,1-.33,1.12,6.43,6.43,0,0,1-.63,1.18,4.76,4.76,0,0,1-1,1,4.65,4.65,0,0,1-1.35.76,4.9,4.9,0,0,1-1.77.3,5.36,5.36,0,0,1-1.81-.34,5,5,0,0,1-1.69-1.06,5.44,5.44,0,0,1-1.25-1.82,6.58,6.58,0,0,1-.49-2.64,7.24,7.24,0,0,1,.25-1.9,10,10,0,0,1,.66-1.76,9.27,9.27,0,0,1,1-1.53,8.45,8.45,0,0,1,1.19-1.2,5.39,5.39,0,0,1,1.3-.79,3.3,3.3,0,0,1,1.3-.29,4.17,4.17,0,0,1,1.81.35,3.3,3.3,0,0,1,1.14.86,3,3,0,0,1,.59,1.09,3.61,3.61,0,0,1,.18,1,3.13,3.13,0,0,1-.22,1,3.47,3.47,0,0,1-.72,1.1,4.17,4.17,0,0,1-1.29.87,4.77,4.77,0,0,1-2,.35,3.23,3.23,0,0,1-1.11-.17,3.66,3.66,0,0,1-.86-.44,3,3,0,0,1-.64-.57,6.58,6.58,0,0,1-.45-.58,7.87,7.87,0,0,0-.27,2.18,4.66,4.66,0,0,0,.25,1.55,3.61,3.61,0,0,0,.69,1.16,2.75,2.75,0,0,0,1,.74,3.34,3.34,0,0,0,1.32.26,3.71,3.71,0,0,0,1.58-.31,4.25,4.25,0,0,0,1.18-.78,6,6,0,0,0,.88-1c.24-.37.46-.7.64-1s.33-.56.47-.76.27-.3.4-.29.09.05.09.15a.77.77,0,0,1,0,.15A.83.83,0,0,1,127.54,39.43ZM123,33.83a2.69,2.69,0,0,0-.7.12,3.38,3.38,0,0,0-.91.4,4.9,4.9,0,0,0-.94.77,4.59,4.59,0,0,0-.81,1.24l.37-.18a.63.63,0,0,1,.22-.07s.05,0,.09.06a2,2,0,0,0,.86.83,2.64,2.64,0,0,0,1.17.25,2.12,2.12,0,0,0,.88-.17,1.76,1.76,0,0,0,.61-.45,1.62,1.62,0,0,0,.35-.59,2.08,2.08,0,0,0,.1-.64,1.76,1.76,0,0,0-.34-1.12A1.14,1.14,0,0,0,123,33.83Z"/><path d="M147.48,32.66l-.3.5-.67,1.09-.93,1.49-1.07,1.73c-.36.6-.73,1.19-1.09,1.78s-.7,1.15-1,1.67-.59,1-.82,1.37l-.51.91c-.11.2-.26.51-.46.93s-.44.91-.7,1.45-.54,1.14-.83,1.77l-.89,1.91c-.3.63-.58,1.25-.86,1.85s-.52,1.13-.74,1.6l-.53,1.17c-.14.3-.22.49-.24.55a1,1,0,0,1-.25.43,1.24,1.24,0,0,1-.32.13.21.21,0,0,1-.17-.07.77.77,0,0,1-.1-.18,1.5,1.5,0,0,0-.09-.18c0-.06-.07-.09-.11-.1s-.2-.05-.22-.08a1.66,1.66,0,0,0-.1-.21.18.18,0,0,0-.09-.07h-.09l-.06,0s0,0,0-.09l.06-.51a3.16,3.16,0,0,1,.06-.47,6,6,0,0,1,.31-.69l.66-1.29c.26-.5.55-1.07.88-1.68s.65-1.25,1-1.88l1-1.89.88-1.7c-.13-.29-.3-.65-.52-1.1s-.46-.94-.72-1.49-.54-1.12-.84-1.73-.58-1.22-.87-1.83L135.26,36c-.26-.56-.49-1.07-.68-1.52s-.35-.81-.46-1.11a2.66,2.66,0,0,1-.17-.55.46.46,0,0,1,.08-.25.22.22,0,0,1,.16-.07.63.63,0,0,1,.21,0l.23.09.35.14c.11,0,.19,0,.24-.05s.11-.12.25-.13a.73.73,0,0,1,.35.07s.06,0,.08,0a.21.21,0,0,0,.08-.06l.09-.1a.36.36,0,0,1,.12-.08.41.41,0,0,1,.31.06.84.84,0,0,1,.25.39c.05.15.15.41.31.78s.34.81.56,1.3.45,1,.71,1.59.52,1.12.79,1.67.5,1.06.74,1.54.44.88.63,1.21c.27-.51.56-1,.88-1.61s.63-1.13,1-1.7l1-1.66c.32-.54.62-1.05.91-1.51L145,33.3c.22-.35.4-.61.54-.79a.51.51,0,0,0,.12-.2s0-.06.12-.09l.16-.06a.4.4,0,0,1,.22,0l.21,0a.14.14,0,0,1,.12.09.08.08,0,0,0,.09,0,.48.48,0,0,0,.14-.05l.18-.07a.29.29,0,0,1,.18,0l.21,0a.64.64,0,0,1,.19.08.25.25,0,0,1,.1.15A.33.33,0,0,1,147.48,32.66Z"/><path d="M158.14,38.58a8.17,8.17,0,0,1-.46,2.84,6.41,6.41,0,0,1-1.25,2.15,5.37,5.37,0,0,1-1.82,1.37,5.08,5.08,0,0,1-2.2.49,5.22,5.22,0,0,1-1.06-.12,5.05,5.05,0,0,1-1.14-.37,5.38,5.38,0,0,1-1.11-.67,4.39,4.39,0,0,1-1-1,5.39,5.39,0,0,1-.67-1.45,6.54,6.54,0,0,1-.23-1.91,7.83,7.83,0,0,1,1.08-4.07,6.33,6.33,0,0,1,1.07-1.39,8.22,8.22,0,0,1,1.21-1,5.3,5.3,0,0,1,1.16-.59,3.86,3.86,0,0,1,1-.23c.14,0,.2,0,.19,0a.46.46,0,0,1-.12.13,1.06,1.06,0,0,0-.15.15s0,.08.05.09l.17.06.14.08.12-.14a.37.37,0,0,1,.21-.07.47.47,0,0,1,.17,0l.12,0s0,0,.06-.09.06-.17.11-.19a2.75,2.75,0,0,1,.39,0,2.35,2.35,0,0,1,.55.11,3.9,3.9,0,0,1,.81.36,4.82,4.82,0,0,1,1.75,1.77,6.34,6.34,0,0,1,.62,1.55A8.25,8.25,0,0,1,158.14,38.58Zm-5.43-4.41a4.92,4.92,0,0,0-1,.85,6.88,6.88,0,0,0-1.6,2.83,6.59,6.59,0,0,0-.25,1.84,8.37,8.37,0,0,0,.19,1.88,4.7,4.7,0,0,0,.55,1.44,2.69,2.69,0,0,0,.88.92,2.22,2.22,0,0,0,1.18.32,2.3,2.3,0,0,0,1.16-.33,3.14,3.14,0,0,0,1-1,5.79,5.79,0,0,0,.73-1.64,8.64,8.64,0,0,0,.27-2.28,6.07,6.07,0,0,0-.34-2.19,5.35,5.35,0,0,0-.78-1.44,3.14,3.14,0,0,0-.82-.79,1.71,1.71,0,0,0-.48-.23h-.32A.74.74,0,0,1,152.71,34.17Z"/><path d="M169.61,44.84c0,.09-.07.2-.22.33a.84.84,0,0,1-.57.2,1.48,1.48,0,0,1-.39-.11,2.76,2.76,0,0,1-.58-.31,2.5,2.5,0,0,1-.54-.49,1.12,1.12,0,0,1-.26-.67,2.86,2.86,0,0,1,0-.46v-2c0-.49,0-1,0-1.49-.07.36-.15.74-.25,1.12a11,11,0,0,1-.9,2.28,9.36,9.36,0,0,1-.7,1.07,2.78,2.78,0,0,1-.44.46,3.86,3.86,0,0,1-.46.32,2.51,2.51,0,0,1-.42.19,1.11,1.11,0,0,1-.3.06,1,1,0,0,1-.28-.13l-.51-.33-.63-.46c-.22-.16-.43-.33-.63-.49s-.38-.32-.54-.47a2.83,2.83,0,0,1-.35-.35,1.65,1.65,0,0,1-.19-.51c0-.25-.1-.54-.14-.89s-.07-.75-.1-1.19,0-.91,0-1.42c0-.27,0-.62,0-1s0-.9.06-1.39.07-1,.11-1.51.1-1,.17-1.37a5.41,5.41,0,0,1,.23-1c.09-.26.2-.39.32-.39a2.92,2.92,0,0,1,.42.07,2.56,2.56,0,0,0,.62.07,1.89,1.89,0,0,0,.65-.08.78.78,0,0,1,.28-.09c.1,0,.15.09.15.26v.14a.5.5,0,0,1,0,.16c0,.06,0,.22-.07.47s-.07.57-.12,1-.11.83-.16,1.32-.09,1-.14,1.53-.08,1.07-.11,1.61,0,1.06,0,1.55q0,.49,0,1a7.72,7.72,0,0,0,.08.9,2.77,2.77,0,0,0,.16.66c.07.16.16.25.26.25a.85.85,0,0,0,.38-.13,2.16,2.16,0,0,0,.59-.52,6.57,6.57,0,0,0,.75-1.11,17.57,17.57,0,0,0,.88-1.92q.47-1.2,1-2.94c.35-1.16.7-2.54,1.06-4.15a.06.06,0,0,1,.05-.06.28.28,0,0,1,.13,0c.13,0,.3,0,.5,0a5.4,5.4,0,0,1,.58.11,2.45,2.45,0,0,1,.48.16c.14.06.2.12.2.19,0,.45,0,.94-.06,1.48s-.08,1.08-.13,1.64-.1,1.15-.14,1.74-.06,1.18-.06,1.76c0,1.05,0,2,.1,3S169.5,44.16,169.61,44.84Z"/><path d="M185.4,26.86a4,4,0,0,1,.31.92,3.77,3.77,0,0,1,.1.88A4.31,4.31,0,0,1,185.1,31a7.74,7.74,0,0,1-1.9,2,11.69,11.69,0,0,1-2.77,1.54,13.62,13.62,0,0,1-3.32.86,6.05,6.05,0,0,0,0,.63v.7c0,.53,0,1,0,1.43a5.41,5.41,0,0,0,.15,1.09,4.9,4.9,0,0,1,.1.61.41.41,0,0,1-.06.27.18.18,0,0,1-.19,0,1.3,1.3,0,0,1-.27-.1.19.19,0,0,0-.25.08c-.06.1-.13.21-.2.35s-.15.26-.23.39a.46.46,0,0,1-.31.22.61.61,0,0,1-.33,0,.92.92,0,0,1-.25-.19,1.51,1.51,0,0,1-.18-.26l-.13-.22a1.71,1.71,0,0,1-.1-.54c0-.32-.07-.71-.09-1.16s-.05-.93-.07-1.43,0-1,0-1.37a3.9,3.9,0,0,1,.08-1,1.62,1.62,0,0,1,.16-.44,1.42,1.42,0,0,1,.2-.3,1.2,1.2,0,0,1,.21-.19l.16-.09a1.81,1.81,0,0,1,.37,0c.22,0,.51-.05.86-.11a11.78,11.78,0,0,0,1.2-.25,8.62,8.62,0,0,0,1.35-.46,8.16,8.16,0,0,0,1.36-.73,5.3,5.3,0,0,0,1.17-1.1,5.61,5.61,0,0,0,.83-1.53,5.91,5.91,0,0,0,.32-2,2.6,2.6,0,0,0-.33-1.33,2.65,2.65,0,0,0-.86-.93,3.44,3.44,0,0,0-1.23-.54,5.92,5.92,0,0,0-1.47-.18,7.2,7.2,0,0,0-1.83.25,6,6,0,0,0-1.67.72,4.19,4.19,0,0,0-1.22,1.15,2.76,2.76,0,0,0-.49,1.54,3.06,3.06,0,0,0,.09.74.51.51,0,0,0,.41.43.32.32,0,0,1,.13.13.36.36,0,0,0,.14.16c.11.06.14.14.08.24a.37.37,0,0,1-.26.18.31.31,0,0,0-.22.14.28.28,0,0,1-.16.12c-.05,0-.07,0-.08,0s0,0,0,0h-.15l-.37-.07a2.32,2.32,0,0,1-.77-.36,3.31,3.31,0,0,1-.72-.64,3.18,3.18,0,0,1-.52-.85,2.56,2.56,0,0,1-.21-1,2.91,2.91,0,0,1,.22-1.05,3.46,3.46,0,0,1,.73-1.07,7,7,0,0,1,1.3-1,8.29,8.29,0,0,1,1.59-.75,10,10,0,0,1,1.77-.47,10.62,10.62,0,0,1,1.86-.16,10.24,10.24,0,0,1,2.07.21,7.57,7.57,0,0,1,1.91.66,6.64,6.64,0,0,1,1.61,1.15A5.26,5.26,0,0,1,185.4,26.86Zm-7.21,16.47a2.74,2.74,0,0,1,0,.49,3,3,0,0,1-.11.54,2.17,2.17,0,0,1-.22.46.63.63,0,0,1-.33.26,2.92,2.92,0,0,1-.88.2,1.06,1.06,0,0,1-.5-.11,4.36,4.36,0,0,1-.41-.24,1.47,1.47,0,0,1-.51-.45,1,1,0,0,1-.2-.57,1.62,1.62,0,0,1,.1-.52,3.32,3.32,0,0,1,.24-.59,4,4,0,0,1,.31-.54,1.27,1.27,0,0,1,.33-.33,1.16,1.16,0,0,1,.41-.14h.31a1.49,1.49,0,0,1,1.07.36A1.66,1.66,0,0,1,178.19,43.33Z"/><polygon class="cls-1" points="236 44.78 222 36.7 222 52.87 236 44.78"/></g></g></svg>