<svg xmlns="http://www.w3.org/2000/svg" viewBox="0 0 96.19 102.53"><defs><style>.cls-1{fill:#000e1c;}.cls-2{fill:#16425b;}</style></defs><title>Asset 37</title><g id="Layer_2" data-name="Layer 2"><g id="레이어_1" data-name="레이어 1"><path class="cls-1" d="M77.72,51.71c11.91,13.41,12,32.8.14,43.32s-31.09,8.17-43-5.24S9,41.4,20.87,30.88,65.8,38.3,77.72,51.71Z"/><path class="cls-1" d="M45.67,26.6a19.06,19.06,0,0,1-18.84,19A18.91,18.91,0,0,1,8,26.6c0-37.16,34-27,18.83-19C30.69,5.57,46,9.6,45.67,26.6Z"/><polygon class="cls-1" points="0 26.41 9 31.21 9 21.61 0 26.41"/><path class="cls-2" d="M72,52.88c15.43,6,26.57,16,23.83,25.44S81.25,91.14,66.52,83.59C46.52,73.35,37.31,46.45,40.05,37S55.52,46.48,72,52.88Z"/><path class="cls-2" d="M31.77,86.79s-2.77.81-3.59,4.74a5.64,5.64,0,0,1,2.2-5.67C33.4,83.78,31.77,86.79,31.77,86.79Z"/><path class="cls-2" d="M33.77,87.79s-2.77.81-3.59,4.74a5.64,5.64,0,0,1,2.2-5.67C35.4,84.78,33.77,87.79,33.77,87.79Z"/><path class="cls-2" d="M54.77,96.79s-2.77.81-3.59,4.74a5.64,5.64,0,0,1,2.2-5.67C56.4,93.78,54.77,96.79,54.77,96.79Z"/><path class="cls-2" d="M56.77,97.79s-2.77.81-3.59,4.74a5.64,5.64,0,0,1,2.2-5.67C58.4,94.78,56.77,97.79,56.77,97.79Z"/></g></g></svg>