<svg xmlns="http://www.w3.org/2000/svg" viewBox="0 0 392.94 689.47"><defs><style>.cls-1{fill:#06232f;}.cls-2,.cls-7{fill:none;stroke:#fff;stroke-miterlimit:10;}.cls-2{stroke-width:3px;}.cls-3{fill:#fff;}.cls-4{fill:#30454c;}.cls-5{fill:#092937;}.cls-6{fill:#e8e8e8;}.cls-7{stroke-width:6px;}.cls-8{fill:#f9b14f;}.cls-9{fill:#ce9959;}.cls-10{opacity:0.15;}</style></defs><title>Asset 106</title><g id="Layer_2" data-name="Layer 2"><g id="레이어_1" data-name="레이어 1"><path class="cls-1" d="M186.14,249.87H167.08V233.71c0-30.81,4-136.34,6.36-194.49l.09-2.07c.05-1.11.08-2.2.12-3.28.14-3.15.25-6.14.37-8.93,0-1.27.1-2.49.14-3.68C174.71,8.07,175,0,175,0h11s-.07,11.73-.16,30.13c0,2.05,0,4.18,0,6.4,0,.74,0,1.5,0,2.26,0,1.6,0,3.23,0,4.9,0,1.24,0,2.48,0,3.74-.28,63.2-.62,170.38.25,198.78C186.07,247.43,186.1,248.65,186.14,249.87Z"/><path d="M167.08,249.87V316L186,330.79s1.19-41,.11-80.92Z"/><path class="cls-2" d="M352.72,316.28s-2.23-3.61-5.64-9.1c-.39-.66-.82-1.34-1.26-2.05-9.08-14.68-24.63-39.66-30.53-48.53-8.58-12.85-27-45.93-42.27-71S185.73,30,185.73,30l-.64.12-4.32.79-2.66.5-4,.73s-.45.59-1.25,1.72c-.59.84-1.38,2-2.32,3.4-.12.17-.23.35-.36.53a252.81,252.81,0,0,0-20.88,38.75C139.26,99.86,49.44,273.06,25.39,319.35l-.14.26-5.76,11.1"/><path class="cls-3" d="M169.4,37.33l1.16-.06-.36.53Z"/><path class="cls-3" d="M340.23,310.53l-1.5,1.77a33.67,33.67,0,0,1-3.78-5.19c-.43-.66-.89-1.37-1.38-2.15-25.92-40.71-135-234.69-147.79-257.53l-.88-1.57-11.46-6.64.09-2.07,9.27-.52-3.91-5.21L174,24.94c0-1.27.1-2.49.14-3.68l7.39,9.66,4.29,5.61c0,.74,0,1.5,0,2.26l-7.75.43,7.74,4.47.81.48.15.28C232.47,125.86,316.46,274.23,336.28,305c.49.78,1,1.49,1.38,2.12A22.18,22.18,0,0,0,340.23,310.53Z"/><path class="cls-4" d="M236.47,386.61c22.84.95,32.35-16.18,39-20.94s2.85-6.66-1.91-12.37,8.57-5.71,10.47-10.47-18.08-.95-20.94-19a77.18,77.18,0,0,0-1.85-9c-71.37,4.09-215.75,7.66-215.75,7.66l-44.1,1.22s1.28,10.53,3,23.28c.1.76.21,1.54.31,2.31,2.24,16.13,5.11,34.93,7.09,40.55H158.19c7.68,0,24.16.91,44.47,2.16C205.25,390.7,216.58,385.78,236.47,386.61Z"/><path class="cls-5" d="M289.63,312.2c-6.85.72-17,1.44-29.28,2.15a79.09,79.09,0,0,1,1.85,9c2.86,18.09,22.84,14.28,20.94,19s-15.23,4.76-10.47,10.47,8.57,7.61,1.9,12.37-16.17,21.88-39,20.93c-19.89-.83-31.22,4.1-33.81,5.38,52.6,3.24,130.94,8.8,149.06,7,0,0,22.68-22.22,36.49-66.64.33-1,.64-2.06.94-3.11h0q2.33-7.86,4.2-16.61S336.24,307.31,289.63,312.2Z"/><path class="cls-3" d="M208.39,312.67,82.32,317.54,0,320.14l1.55,11.92s169.4-3.63,193.4-6.7c11-1.41,38.47-3.35,67.09-5.06a67.75,67.75,0,0,0-2.19-10C233.49,312.16,208.39,312.67,208.39,312.67Z"/><path class="cls-6" d="M293,307c-10,1.41-21.66,2.49-33.11,3.31a67.75,67.75,0,0,1,2.19,10c34.1-2,69.75-3.71,80.75-3.71,20.23,0,47.81,1,47.81,1l2.34-10.32S325.9,302.28,293,307Z"/><path class="cls-3" d="M389.15,325.88c-.3,1.05-.61,2.09-.94,3.11-5.77.46-121,9.61-196.21,9.61-72.88,0-176.23,6.58-187.27,7.29-.1-.78-.21-1.55-.31-2.31,10.2-.66,114.27-7.3,187.58-7.3C268,336.28,386,326.14,389.15,325.88Z"/><line class="cls-7" x1="49.51" y1="323.05" x2="49.51" y2="341.32"/><path class="cls-8" d="M63.33,359.68c-5.84,15.94-20.54,11.48-26.23,8.38-3.9-2.13-6.1-6.68-5.77-12.33a24.06,24.06,0,0,1,2.14-8.37A17.93,17.93,0,0,1,46.93,337a9.44,9.44,0,0,1,5.83,0c2.05.66,8,3.15,10.7,8.88C65.05,349.27,65.5,353.76,63.33,359.68Z"/><line class="cls-7" x1="83.38" y1="323.05" x2="83.38" y2="335.98"/><path class="cls-8" d="M94.18,344.12a15.86,15.86,0,0,1-1,4.84c-4.14,11.29-14.54,8.13-18.56,5.93a6.6,6.6,0,0,1-1.84-1.44c-2.56-2.78-3.15-7.74-.72-13.19a12.64,12.64,0,0,1,9.52-7.33,6.67,6.67,0,0,1,4.12,0C87.62,333.54,94.5,336.49,94.18,344.12Z"/><path class="cls-9" d="M63.33,359.68c-5.84,15.94-20.54,11.48-26.23,8.38-3.9-2.13-6.1-6.68-5.77-12.33,4.5.87,14.78,1.93,19.68-5.06,6.37-9.11,12.45-4.78,12.45-4.78C65.05,349.27,65.5,353.76,63.33,359.68Z"/><path class="cls-9" d="M94.18,344.12a15.86,15.86,0,0,1-1,4.84c-4.14,11.29-14.54,8.13-18.56,5.93a6.6,6.6,0,0,1-1.84-1.44,11.52,11.52,0,0,0,6.48-1.87C85.61,347.94,90.93,342.16,94.18,344.12Z"/><g class="cls-10"><path class="cls-1" d="M178.72,498.06H160.43v12.38c0,23.6,3.88,104.44,6.1,149l.09,1.59c0,.84.08,1.68.12,2.5.12,2.42.23,4.71.34,6.85,0,1,.1,1.91.15,2.81.52,10.11.84,16.29.84,16.29h10.55s-.07-9-.16-23.08c0-1.57,0-3.2,0-4.9,0-.57,0-1.15,0-1.73,0-1.23,0-2.48,0-3.76,0-.94,0-1.9,0-2.87-.27-48.41-.59-130.51.24-152.27C178.66,499.93,178.69,499,178.72,498.06Z"/><path d="M160.42,498.06V447.39l18.2-11.32s1.14,31.42.1,62Z"/><path class="cls-2" d="M338.67,447.18l-5.41,7-1.21,1.57c-8.73,11.24-23.65,30.38-29.32,37.17-8.24,9.85-25.88,35.19-40.58,54.42s-83.82,119.16-83.82,119.16l-.61-.09-4.15-.61L171,665.4l-3.83-.56s-.42-.45-1.2-1.32c-.56-.64-1.32-1.51-2.23-2.6-.11-.13-.22-.27-.34-.4a186.68,186.68,0,0,1-20-29.69c-9.66-17.86-95.9-150.54-119-186l-.12-.2-5.54-8.5"/><path class="cls-3" d="M162.66,660.87l1.1,0c-.11-.13-.22-.27-.34-.4Z"/><path class="cls-3" d="M326.67,451.59l-1.44-1.36a28.44,28.44,0,0,0-3.63,4l-1.32,1.64C295.39,487,190.7,635.64,178.38,653.13l-.85,1.21-11,5.09.09,1.59,8.9.39-3.76,4-4.68,5c0,1,.1,1.91.15,2.81l7.09-7.4,4.11-4.29c0-.57,0-1.15,0-1.73l-7.45-.33L178.4,656l.78-.36.15-.22c43.88-62.36,124.53-176,143.55-199.58.48-.6.92-1.15,1.33-1.63A18.14,18.14,0,0,1,326.67,451.59Z"/><path class="cls-4" d="M227.05,393.31c21.93-.73,31.06,12.39,37.46,16s2.74,5.1-1.83,9.47,8.23,4.38,10.05,8-17.36.73-20.1,14.58a48.78,48.78,0,0,1-1.78,6.89c-68.52-3.14-207.15-5.87-207.15-5.87L1.36,441.5s1.22-8.06,2.89-17.83c.09-.58.2-1.18.29-1.77,2.15-12.36,4.91-26.76,6.81-31.06H151.89c7.37,0,23.19-.7,42.7-1.65C197.08,390.17,208,393.94,227.05,393.31Z"/><path class="cls-5" d="M278.09,450.3c-6.58-.55-16.3-1.1-28.11-1.64a50.39,50.39,0,0,0,1.78-6.88c2.74-13.85,21.93-10.94,20.1-14.58s-14.62-3.65-10.05-8,8.22-5.83,1.83-9.48-15.54-16.77-37.47-16c-19.1.64-30-3.13-32.46-4.12,50.51-2.48,125.73-6.74,143.12-5.39,0,0,21.78,17,35,51.05.32.78.61,1.58.9,2.39h0c1.49,4,2.85,8.25,4,12.71C376.82,450.3,322.85,454.06,278.09,450.3Z"/><path class="cls-3" d="M200.09,450,79,446.22l-79-2,1.49-9.12s162.65,2.78,185.69,5.13c10.51,1.07,36.94,2.57,64.42,3.87a43.23,43.23,0,0,1-2.1,7.69C224.19,450.34,200.09,450,200.09,450Z"/><path class="cls-6" d="M281.29,454.33c-9.58-1.08-20.8-1.91-31.79-2.54a43.23,43.23,0,0,0,2.1-7.69c32.74,1.55,67,2.84,77.53,2.84,19.43,0,45.91-.77,45.91-.77l2.25,7.9S312.91,457.91,281.29,454.33Z"/><path class="cls-3" d="M373.65,439.83c-.29-.81-.59-1.6-.9-2.38-5.54-.36-116.19-7.37-188.4-7.37-70,0-169.21-5-179.81-5.58-.09.59-.2,1.19-.29,1.77,9.79.51,109.72,5.59,180.1,5.59C257.34,431.86,370.62,439.63,373.65,439.83Z"/><line class="cls-7" x1="47.54" y1="441.99" x2="47.54" y2="428"/><path class="cls-8" d="M60.81,413.93c-5.61-12.21-19.72-8.79-25.19-6.41A9.13,9.13,0,0,0,30.08,417a15.39,15.39,0,0,0,2.06,6.41c4,7.13,12.92,7.93,12.92,7.93a11.13,11.13,0,0,0,5.6,0c2-.5,7.69-2.41,10.27-6.8C62.46,421.91,62.89,418.47,60.81,413.93Z"/><line class="cls-7" x1="80.06" y1="441.99" x2="80.06" y2="432.09"/><path class="cls-8" d="M90.43,425.86a10.05,10.05,0,0,0-1-3.72c-4-8.64-14-6.22-17.83-4.54a7,7,0,0,0-1.76,1.1c-2.46,2.14-3,5.94-.69,10.11,2.8,5.06,9.14,5.61,9.14,5.61a7.85,7.85,0,0,0,4,0C84.13,434,90.73,431.7,90.43,425.86Z"/><path class="cls-9" d="M60.81,413.93c-5.61-12.21-19.72-8.79-25.19-6.41A9.13,9.13,0,0,0,30.08,417c4.32-.66,14.19-1.48,18.89,3.88,6.13,7,12,3.66,12,3.66C62.46,421.91,62.89,418.47,60.81,413.93Z"/><path class="cls-9" d="M90.43,425.86a10.05,10.05,0,0,0-1-3.72c-4-8.64-14-6.22-17.83-4.54a7,7,0,0,0-1.76,1.1,13.45,13.45,0,0,1,6.23,1.44C82.2,422.93,87.31,427.36,90.43,425.86Z"/></g></g></g></svg>