<svg xmlns="http://www.w3.org/2000/svg" viewBox="0 0 428.71 293.25"><defs><style>.cls-1{fill:#5b5b5b;}</style></defs><title>Asset 63</title><g id="Layer_2" data-name="Layer 2"><g id="레이어_1" data-name="레이어 1"><ellipse class="cls-1" cx="199.2" cy="57.46" rx="17.82" ry="20.88" transform="translate(140.76 256.37) rotate(-89.71)"/><ellipse class="cls-1" cx="233.19" cy="46.49" rx="24.51" ry="28.71" transform="matrix(0, -1, 1, 0, 185.54, 279.44)"/><ellipse class="cls-1" cx="256.57" cy="66.65" rx="26.74" ry="31.32" transform="translate(188.64 322.89) rotate(-89.71)"/><ellipse class="cls-1" cx="175.55" cy="90.76" rx="20.05" ry="23.49" transform="translate(83.92 265.86) rotate(-89.71)"/><ellipse class="cls-1" cx="217.33" cy="86.51" rx="28.96" ry="33.93" transform="translate(129.74 303.41) rotate(-89.71)"/><ellipse class="cls-1" cx="277.3" cy="97.95" rx="22.28" ry="26.1" transform="translate(177.97 374.75) rotate(-89.71)"/><ellipse class="cls-1" cx="222.33" cy="131.09" rx="42.33" ry="49.59" transform="translate(90.13 352.76) rotate(-89.71)"/><ellipse class="cls-1" cx="115.32" cy="132.79" rx="13.37" ry="15.66" transform="matrix(0, -1, 1, 0, -18.05, 247.44)"/><ellipse class="cls-1" cx="143.92" cy="152.98" rx="33.42" ry="39.15" transform="translate(-9.78 296.14) rotate(-89.71)"/><ellipse class="cls-1" cx="292.67" cy="155.95" rx="35.65" ry="41.76" transform="matrix(0, -1, 1, 0, 135.26, 447.84)"/><ellipse class="cls-1" cx="258.97" cy="109" rx="24.51" ry="28.71" transform="matrix(0, -1, 1, 0, 148.69, 367.42)"/><ellipse class="cls-1" cx="148.92" cy="197.57" rx="42.33" ry="49.59" transform="matrix(0, -1, 1, 0, -49.39, 345.5)"/><ellipse class="cls-1" cx="190.83" cy="166.59" rx="33.42" ry="39.15" transform="matrix(0, -1, 1, 0, 23.3, 356.58)"/><ellipse class="cls-1" cx="174.82" cy="237.8" rx="37.87" ry="44.37" transform="translate(-63.85 411.43) rotate(-89.71)"/><ellipse class="cls-1" cx="221.99" cy="197.93" rx="33.42" ry="39.15" transform="translate(22.96 418.94) rotate(-89.71)"/><ellipse class="cls-1" cx="263.93" cy="162.49" rx="37.87" ry="44.37" transform="translate(100.12 425.61) rotate(-89.71)"/><ellipse class="cls-1" cx="271.43" cy="227.14" rx="26.74" ry="31.32" transform="matrix(0, -1, 1, 0, 42.94, 497.44)"/><ellipse class="cls-1" cx="232.25" cy="233.63" rx="24.51" ry="28.71" transform="translate(-2.53 464.72) rotate(-89.71)"/><ellipse class="cls-1" cx="305.5" cy="198.35" rx="24.51" ry="28.71" transform="translate(105.64 502.86) rotate(-89.71)"/><ellipse class="cls-1" cx="261.13" cy="200.35" rx="17.82" ry="20.88" transform="translate(59.47 460.48) rotate(-89.71)"/><ellipse class="cls-1" cx="352.3" cy="234.23" rx="24.51" ry="28.71" transform="translate(116.32 585.36) rotate(-89.71)"/><ellipse class="cls-1" cx="326.63" cy="149.44" rx="28.96" ry="33.93" transform="translate(175.56 475.32) rotate(-89.71)"/><ellipse class="cls-1" cx="81.31" cy="148.22" rx="28.96" ry="33.93" transform="translate(-67.31 228.79) rotate(-89.71)"/><ellipse class="cls-1" cx="102.03" cy="179.51" rx="24.51" ry="28.71" transform="translate(-77.98 280.65) rotate(-89.71)"/><ellipse class="cls-1" cx="125.2" cy="244.24" rx="26.74" ry="31.32" transform="translate(-119.66 368.22) rotate(-89.71)"/><ellipse class="cls-1" cx="292.29" cy="231.7" rx="35.65" ry="41.76" transform="translate(59.13 522.83) rotate(-89.71)"/><polygon class="cls-1" points="173.02 75.15 131.46 34.84 195.13 79.72 173.02 75.15"/><polygon class="cls-1" points="277.41 75.67 335.09 22.49 287.82 80.18 277.41 75.67"/><path class="cls-1" d="M339.69,147.28s89-53,89-48.58-89,57.49-89,57.49Z"/><polygon class="cls-1" points="318.41 227.38 381.26 183.13 334.05 231.91 318.41 227.38"/><polygon class="cls-1" points="370.6 227.63 428.11 210.1 370.58 232.09 370.6 227.63"/><polygon class="cls-1" points="141.46 124.01 73.98 47.92 162.96 124.58 141.46 124.01"/><polygon class="cls-1" points="140.86 244.31 124.96 293.25 156.47 253.3 140.86 244.31"/><path class="cls-1" d="M114.78,239.73c0-4.46-88.73-.44-88.73-.44l94-12.9Z"/><polygon class="cls-1" points="276.54 249.45 349.46 281 292.25 240.61 276.54 249.45"/><polygon class="cls-1" points="126.31 21.45 105.5 7.97 126.38 8.08 126.31 21.45"/><path class="cls-1" d="M282.89,22.23s-5.17-8.94.07-13.37L293.44,0l0,8.91Z"/><polygon class="cls-1" points="402.61 89.66 418.31 80.83 428.7 89.79 413.02 94.17 402.61 89.66"/><polygon class="cls-1" points="31.34 225.94 0 230.25 10.39 239.21 26.1 230.38 31.34 225.94"/></g></g></svg>