<svg xmlns="http://www.w3.org/2000/svg" viewBox="0 0 215.29 73.66"><defs><style>.cls-1{fill:#fff;}.cls-2{fill:#f2f2e7;}</style></defs><title>Asset 40</title><g id="Layer_2" data-name="Layer 2"><g id="레이어_1" data-name="레이어 1"><path class="cls-1" d="M82.78,24.72a9,9,0,0,1-4.71,1.19,7.8,7.8,0,0,1-5.95-2.4,8.66,8.66,0,0,1-2.26-6.21,9.53,9.53,0,0,1,2.44-6.84,8.55,8.55,0,0,1,6.51-2.59,9.1,9.1,0,0,1,4,.85v2.82a7.07,7.07,0,0,0-4.11-1.34,5.55,5.55,0,0,0-4.33,1.89,7.17,7.17,0,0,0-1.69,5,6.85,6.85,0,0,0,1.59,4.78,5.46,5.46,0,0,0,4.26,1.75,6.89,6.89,0,0,0,4.24-1.5Z"/><path class="cls-1" d="M89.72,25.51H87V0h2.76Z"/><path class="cls-1" d="M96.71,3.9a1.74,1.74,0,0,1-1.78-1.78A1.77,1.77,0,0,1,95.45.83,1.74,1.74,0,0,1,96.71.32,1.78,1.78,0,0,1,98,.83a1.71,1.71,0,0,1,.53,1.29A1.69,1.69,0,0,1,98,3.38,1.75,1.75,0,0,1,96.71,3.9Zm1.35,21.61H95.3V8.28h2.76Z"/><path class="cls-1" d="M115.39,24.72a9,9,0,0,1-4.71,1.19,7.8,7.8,0,0,1-6-2.4,8.66,8.66,0,0,1-2.26-6.21,9.53,9.53,0,0,1,2.44-6.84,8.55,8.55,0,0,1,6.51-2.59,9.1,9.1,0,0,1,4,.85v2.82a7.07,7.07,0,0,0-4.11-1.34A5.54,5.54,0,0,0,107,12.09a7.17,7.17,0,0,0-1.69,5,6.85,6.85,0,0,0,1.59,4.78,5.46,5.46,0,0,0,4.26,1.75,6.91,6.91,0,0,0,4.24-1.5Z"/><path class="cls-1" d="M133.87,25.51H130l-7.61-8.28h-.07v8.28h-2.76V0h2.76V16.17h.07l7.24-7.89h3.61l-8,8.31Z"/><path class="cls-1" d="M138.8,25.81a1.8,1.8,0,0,1-1.32-.54,1.74,1.74,0,0,1-.55-1.31,1.88,1.88,0,0,1,1.87-1.87,1.79,1.79,0,0,1,1.31.55,1.77,1.77,0,0,1,.55,1.32,1.74,1.74,0,0,1-.55,1.31A1.82,1.82,0,0,1,138.8,25.81Zm1.41-24.43-.32,17.33h-2.27l-.3-17.33Z"/><path class="cls-1" d="M190.27,3.17l6.94,24.27L171.78,18.2l4.69,21.29-23.18-6.27,3.27,13.88c1.05,1.14,2.13,2.21,3.21,3.21,16,14.7,38,16.78,49.18,4.64,10.29-11.21,7.72-30.62-5.32-45.1Z"/><path class="cls-1" d="M50.43,32.72,29.31,39.58,36,14.33l-23.9,9.33L17.48,10.2c-1.11,1.17-2.19,2.39-3.2,3.69C1.05,30.79-6.33,61.69,7.17,70.94,19.76,79.56,46,66.33,60.26,50.81L46.51,55.49Z"/><ellipse class="cls-2" cx="20.33" cy="65.63" rx="9.44" ry="4.98" transform="translate(-7.12 2.64) rotate(-6.33)"/></g></g></svg>