<svg xmlns="http://www.w3.org/2000/svg" viewBox="0 0 766.8 37.25"><defs><style>.cls-1{fill:#5b2700;}</style></defs><title>Asset 26</title><g id="Layer_2" data-name="Layer 2"><g id="레이어_1" data-name="레이어 1"><path class="cls-1" d="M2.5,35.25c-1.38,0-2.5-.34-2.5-.75V5.75C0,5.33,1.12,5,2.5,5S5,5.33,5,5.75V34.5C5,34.91,3.88,35.25,2.5,35.25Z"/><path class="cls-1" d="M33,24.25A4.13,4.13,0,0,1,31,24V14.25A4.2,4.2,0,0,1,33,14a4.2,4.2,0,0,1,2,.25V24A4.13,4.13,0,0,1,33,24.25Z"/><path class="cls-1" d="M738,37.25c-1.13,0-2-.24-2-.53V16.52c0-.29.91-.52,2-.52s2,.23,2,.52v20.2C740.07,37,739.16,37.25,738,37.25Z"/><path class="cls-1" d="M764.4,26.25c-1.32,0-2.4-.29-2.4-.65V.65c0-.36,1.08-.65,2.4-.65s2.4.29,2.4.65v25C766.8,26,765.73,26.25,764.4,26.25Z"/><polygon class="cls-1" points="346.86 24.43 328.95 24.4 301.36 35 319.33 35 346.86 24.43"/><polygon class="cls-1" points="310.99 24.38 293.08 24.35 265.36 35 283.33 35 310.99 24.38"/><polygon class="cls-1" points="275.12 24.33 257.21 24.3 229.35 35 247.33 35 275.12 24.33"/><polygon class="cls-1" points="382.73 24.48 364.82 24.45 337.36 35 355.33 35 382.73 24.48"/><polygon class="cls-1" points="49.35 35 67.33 35 95.78 24.08 77.87 24.05 49.35 35"/><polygon class="cls-1" points="167.51 24.18 149.6 24.15 121.36 35 139.33 35 167.51 24.18"/><polygon class="cls-1" points="239.25 24.28 221.34 24.25 193.35 35 211.33 35 239.25 24.28"/><polygon class="cls-1" points="418.6 24.53 400.69 24.5 373.36 35 391.33 35 418.6 24.53"/><polygon class="cls-1" points="203.38 24.23 185.47 24.2 157.35 35 175.33 35 203.38 24.23"/><polygon class="cls-1" points="131.65 24.13 113.74 24.1 85.36 35 103.33 35 131.65 24.13"/><polygon class="cls-1" points="669.69 24.88 651.78 24.85 625.36 35 643.33 35 669.69 24.88"/><polygon class="cls-1" points="705.55 24.93 687.65 24.9 661.36 35 679.33 35 705.55 24.93"/><polygon class="cls-1" points="59.91 24.03 41.21 24 8 35 31.33 35 59.91 24.03"/><polygon class="cls-1" points="633.82 24.83 615.91 24.8 589.36 35 607.33 35 633.82 24.83"/><polygon class="cls-1" points="697.36 35 728.42 35 756.42 25 723.52 24.95 697.36 35"/><polygon class="cls-1" points="454.47 24.58 436.56 24.55 409.36 35 427.33 35 454.47 24.58"/><polygon class="cls-1" points="490.34 24.63 472.43 24.6 445.36 35 463.33 35 490.34 24.63"/><polygon class="cls-1" points="597.95 24.78 580.04 24.75 553.36 35 571.33 35 597.95 24.78"/><polygon class="cls-1" points="526.21 24.68 508.3 24.65 481.36 35 499.33 35 526.21 24.68"/><polygon class="cls-1" points="562.08 24.73 544.17 24.7 517.36 35 535.33 35 562.08 24.73"/></g></g></svg>