<svg xmlns="http://www.w3.org/2000/svg" viewBox="0 0 112 69.6"><defs><style>.cls-1{fill:#fff;}</style></defs><title>Asset 111</title><g id="Layer_2" data-name="Layer 2"><g id="레이어_1" data-name="레이어 1"><rect class="cls-1" width="112" height="57.7" rx="14.66"/><polygon class="cls-1" points="82.22 69.6 91.07 54.26 73.36 54.26 82.22 69.6"/><path d="M25.23,16.46c0,1.82,0,3.66-.1,5.53S25,25.72,25,27.57c0,.84,0,1.68,0,2.51s.05,1.61.09,2.36.07,1.43.1,2.05,0,1.13,0,1.55a6.29,6.29,0,0,1,0,.7c0,.18-.05.28-.1.31a.33.33,0,0,1-.14.09l-.12,0h-.13a.34.34,0,0,0-.15,0,.23.23,0,0,0-.14.1l-.06.11a.47.47,0,0,1-.09.12.64.64,0,0,1-.21.12.4.4,0,0,1-.37-.1,2.92,2.92,0,0,0-.34-.23l-.41-.25a.89.89,0,0,1-.3-.31,1.85,1.85,0,0,1-.18-.55,7.63,7.63,0,0,1-.12-.87c0-.34-.05-.71-.06-1.12s0-.84,0-1.28,0-1,0-1.51,0-1,0-1.46,0-.88,0-1.25,0-.67,0-.9c0-.72,0-1.48.08-2.27s.07-1.59.11-2.37.07-1.55.11-2.28.08-1.41.12-2,.08-1.13.11-1.56a8.37,8.37,0,0,1,.11-.89.44.44,0,0,1,.32-.36.15.15,0,0,1,.17,0c.05,0,.1,0,.16-.07a.13.13,0,0,1,.09-.09l.12,0H24a.2.2,0,0,0,.11,0,.16.16,0,0,1,.19,0l.14.1a.34.34,0,0,0,.12.16.13.13,0,0,0,.17,0,.17.17,0,0,1,.12-.05.12.12,0,0,1,.12.08.53.53,0,0,0,.15.15A.24.24,0,0,1,25.23,16.46Z"/><path d="M31.69,17.3c0,.21,0,.42,0,.63s-.05.41-.09.63-.09.44-.15.68-.13.51-.22.8a2.57,2.57,0,0,1-.53.94,4.33,4.33,0,0,1-.77.72.66.66,0,0,1-.27.1,1.87,1.87,0,0,1-.34,0,2.19,2.19,0,0,1-.36,0,1.41,1.41,0,0,1-.31-.08.63.63,0,0,1-.23-.13.18.18,0,0,1-.07-.16.09.09,0,0,1,0-.06l.06-.06a2.79,2.79,0,0,0,.85-1.12,5.12,5.12,0,0,0,.39-1.35c-.53-.32-.8-.66-.8-1a1.38,1.38,0,0,1,.09-.45,3.49,3.49,0,0,1,.22-.53,2.27,2.27,0,0,1,.29-.48,1.1,1.1,0,0,1,.29-.31,1.17,1.17,0,0,1,.37-.13h.25a1.19,1.19,0,0,1,1.32,1.4Z"/><path d="M47.83,36.47l.07.19a.77.77,0,0,1,0,.15.15.15,0,0,1-.11.16l-.24.05s0,.06-.06.15,0,.17-.08.27a.91.91,0,0,1-.17.28.4.4,0,0,1-.31.12,2.15,2.15,0,0,1-1-.28,1.47,1.47,0,0,1-.54-.64,3,3,0,0,1-.23-1c0-.38,0-.8,0-1.26s0-1.11.07-1.7.09-1.17.15-1.73.12-1.09.16-1.59.07-.92.07-1.27a4.12,4.12,0,0,0-.13-1.19c-.08-.28-.2-.42-.35-.42s-.25.2-.54.62a15.4,15.4,0,0,0-1,1.89c-.41.84-.84,1.9-1.31,3.18A41.89,41.89,0,0,0,40.89,37a.85.85,0,0,0,0,.23,1.5,1.5,0,0,1,0,.22.38.38,0,0,1-.06.16.19.19,0,0,1-.16.07.62.62,0,0,1-.33-.08l-.21-.18-.17-.18a.25.25,0,0,0-.2-.09s-.05,0-.07.06l-.08.15a.71.71,0,0,1-.1.14.24.24,0,0,1-.17.06.46.46,0,0,1-.19,0,.45.45,0,0,1-.21-.19,1.54,1.54,0,0,1-.18-.47,4.6,4.6,0,0,1-.06-.84v-.67c0-.14,0-.36,0-.66s.06-.64.1-1,.07-.81.12-1.27L39,31c0-.48.06-.94.09-1.39s0-.86,0-1.23c0-1.14-.14-1.7-.42-1.7a.53.53,0,0,0-.25.07,1.26,1.26,0,0,0-.32.31c-.12.16-.27.38-.44.66a11.67,11.67,0,0,0-.55,1.15c-.21.47-.44,1.05-.71,1.74s-.56,1.52-.88,2.48a8.07,8.07,0,0,0-.23.92c-.09.41-.17.82-.24,1.25S35,36,35,36.38a6.15,6.15,0,0,0-.07.7s-.05.08-.16.15a2.57,2.57,0,0,1-.37.18,3.61,3.61,0,0,1-.42.16,1.13,1.13,0,0,1-.34.07.53.53,0,0,1-.39-.14A1.11,1.11,0,0,1,33,37a7,7,0,0,1-.07-1c0-.45,0-1,0-1.73,0-.18,0-.53,0-1.07S33,32,33,31.29s.09-1.42.15-2.18.13-1.45.21-2.08a12.33,12.33,0,0,1,.28-1.57c.11-.41.24-.62.38-.62a.29.29,0,0,1,.19.08,1.29,1.29,0,0,1,.17.16l.14.16a.21.21,0,0,0,.15.07.17.17,0,0,0,.12-.06.53.53,0,0,0,.12-.14A1,1,0,0,1,35,25s.06-.06.08-.06.08.05.14.16a1.9,1.9,0,0,1,.17.35,3,3,0,0,1,.15.42,1.13,1.13,0,0,1,.07.34c0,.2,0,.49,0,.86s-.08.78-.12,1.22-.09.9-.12,1.37-.06.88-.06,1.28V31c.13-.43.29-.88.46-1.34s.37-.9.58-1.34.44-.85.67-1.24a7.09,7.09,0,0,1,.75-1,3.79,3.79,0,0,1,.79-.69,1.58,1.58,0,0,1,.83-.26,2.12,2.12,0,0,1,.88.17,1.53,1.53,0,0,1,.6.49,2.06,2.06,0,0,1,.33.7,3.36,3.36,0,0,1,.1.85,7.76,7.76,0,0,1,0,.91c0,.34-.07.72-.11,1.13s-.08.88-.11,1.37-.06,1-.07,1.62c.13-.36.29-.79.47-1.3s.39-1,.62-1.57.47-1.08.72-1.62.52-1,.78-1.42a5,5,0,0,1,.79-1,1.12,1.12,0,0,1,.76-.39,2.85,2.85,0,0,1,.47.07,6.9,6.9,0,0,1,.79.19,4.79,4.79,0,0,1,.77.32,1.08,1.08,0,0,1,.48.43,3.79,3.79,0,0,1,.22.71,5.84,5.84,0,0,1,.1,1.23,14.84,14.84,0,0,1-.1,1.62c-.07.63-.18,1.38-.34,2.26,0,.3-.08.58-.1.85s0,.53,0,.79,0,.74,0,1.07.08.63.13.89.1.49.15.67A1.76,1.76,0,0,0,47.83,36.47Z"/></g></g></svg>