<svg xmlns="http://www.w3.org/2000/svg" viewBox="0 0 311.79 148"><defs><style>.cls-1{opacity:0.42;}.cls-2{fill:#71a8b5;}</style></defs><g id="레이어_2" data-name="레이어 2"><g id="레이어_1-2" data-name="레이어 1"><g class="cls-1"><path class="cls-2" d="M311.79,132.21A15.77,15.77,0,0,1,296,148H78.93a15.79,15.79,0,1,1,0-31.57h25.93c8.19,0,14.8-6.18,14.8-13.82s-6.61-13.81-14.8-13.81H15.79a15.79,15.79,0,1,1,0-31.57H98.67v-.1c7.38-.77,13.1-6.61,13.1-13.72s-5.72-12.94-13.1-13.71v-.1H53.28a14.8,14.8,0,0,1,0-29.6H175.9a14.8,14.8,0,0,1,0,29.6H140.11c-8.17,0-14.8,6.18-14.8,13.81s6.63,13.82,14.8,13.82h92.74a15.79,15.79,0,1,1,0,31.57H179.57c-8.17,0-14.8,6.18-14.8,13.81s6.63,13.82,14.8,13.82H296A15.78,15.78,0,0,1,311.79,132.21Z"/></g></g></g></svg>