<svg xmlns="http://www.w3.org/2000/svg" viewBox="0 0 45.7 89.46"><defs><style>.cls-1{fill:#efd9c5;}.cls-2{fill:#2c2d2d;}.cls-3{fill:red;}</style></defs><title>Asset 107</title><g id="Layer_2" data-name="Layer 2"><g id="레이어_1" data-name="레이어 1"><ellipse class="cls-1" cx="37" cy="20.29" rx="6.24" ry="9.48"/><path class="cls-2" d="M45.7,19.4c0,8.16-5.59-2.77-12.44-2.77S20.88,27.56,20.88,19.4,26.44,4.63,33.29,4.63,45.7,11.24,45.7,19.4Z"/><polygon class="cls-3" points="37.69 8.41 37.69 76.69 0 76.69 22.06 30.37 0 30.32 24.54 6.93 42.07 0 37.69 8.41"/><polyline class="cls-1" points="28.94 76.69 28.97 87.7 33.11 86.89 35.85 89.46 26.79 89.46 26.79 76.69"/><polyline class="cls-1" points="19.88 76.69 19.91 87.7 24.05 86.89 26.79 89.46 17.73 89.46 17.73 76.69"/></g></g></svg>