<svg xmlns="http://www.w3.org/2000/svg" viewBox="0 0 237 103"><defs><style>.cls-1{fill:#fff;}</style></defs><title>Asset 30</title><g id="Layer_2" data-name="Layer 2"><g id="레이어_1" data-name="레이어 1"><path class="cls-1" d="M237,69.62l-17.53-7.7V24c0-13.25-14.1-24-31.5-24H31.5C14.1,0,0,10.73,0,24V79c0,13.25,14.1,24,31.5,24H188c17.4,0,31.5-10.73,31.5-24V77.33Z"/><path d="M65.07,40.36a3.88,3.88,0,0,1-.25.63c-.17.38-.4.89-.69,1.51l-1,2.19c-.4.84-.83,1.72-1.28,2.65s-.92,1.9-1.4,2.89-1,2-1.42,2.92l-1.34,2.74c-.43.86-.81,1.64-1.14,2.32l-.85,1.71c-.22.46-.37.75-.44.88s-.07.13-.13.14h-.2a.17.17,0,0,1-.13,0s-.05,0-.08,0a.18.18,0,0,1-.21,0c-.06,0-.11,0-.14,0a.63.63,0,0,1-.25.17c-.06,0-.09,0-.09-.17a8,8,0,0,0-.12-1.21c-.08-.56-.2-1.22-.36-2s-.34-1.59-.55-2.48-.43-1.81-.66-2.74-.46-1.86-.69-2.77S51.17,48,51,47.17s-.39-1.49-.55-2.1S50.11,44,50,43.67q-.23.57-.6,1.56c-.25.65-.53,1.4-.83,2.22l-1,2.62-1,2.77c-.33.91-.65,1.79-.94,2.64l-.79,2.26c-.23.65-.42,1.19-.56,1.6s-.21.64-.22.69l-.08.12-.11.18a2.15,2.15,0,0,1-.18.23l-.17,0-.14,0-.18.11-.14.09-.12.07-.15.12-.15.08-.13,0L42.4,61l-.19-.1a.19.19,0,0,1-.11-.11q-.08-.21-.24-.78c-.11-.38-.24-.86-.4-1.42L41,56.66c-.18-.71-.39-1.46-.6-2.26s-.44-1.61-.66-2.45-.45-1.68-.67-2.51c-.17-.66-.35-1.32-.54-2s-.39-1.35-.58-2-.37-1.3-.55-1.9-.33-1.15-.48-1.63-.27-.9-.37-1.24-.16-.56-.19-.68a.19.19,0,0,1,.08-.22c.08-.06.16,0,.25,0s.13.05.17,0a.22.22,0,0,1,.14-.06l.15,0,.2.07.2.08.16.08a.1.1,0,0,0,.09,0l0-.06a.36.36,0,0,0,0-.09.2.2,0,0,1,.1-.07.4.4,0,0,1,.32,0,1.4,1.4,0,0,0,.27.11q.09,0,.09,0a.34.34,0,0,0,0-.09.15.15,0,0,1,0-.09s.07,0,.16,0a.58.58,0,0,1,.35.1c.1.06.18.26.26.58,0,.08.09.32.21.73s.26.92.43,1.56.38,1.35.6,2.15l.69,2.5c.24.87.48,1.75.73,2.62s.48,1.72.7,2.51.42,1.51.59,2.15l.43,1.57c.28-.55.6-1.25.95-2.09s.71-1.73,1.09-2.7.74-2,1.11-3l1-2.86c.32-.91.61-1.72.86-2.44l.57-1.66a5.65,5.65,0,0,0,.18-.62,2.63,2.63,0,0,1,.14-.52,3,3,0,0,1,.26-.41,1.16,1.16,0,0,1,.24-.27.72.72,0,0,1,.35-.07l.35.07s.09,0,.1,0a.36.36,0,0,0,0-.11.83.83,0,0,1,0-.15.27.27,0,0,1,.16-.13c.25-.13.4-.19.46-.17s.12.15.18.38c0,.05.07.28.16.68s.22.93.38,1.58.33,1.38.52,2.21.41,1.7.64,2.6.45,1.82.67,2.74.45,1.78.67,2.6.41,1.56.6,2.23.34,1.2.47,1.6c.13-.28.32-.67.57-1.16l.83-1.69c.31-.64.65-1.33,1-2.08s.74-1.52,1.12-2.31.77-1.59,1.14-2.38.73-1.57,1.06-2.32.64-1.43.91-2.08.5-1.21.67-1.69a.91.91,0,0,1,.15-.27,1.86,1.86,0,0,1,.22-.25,1.45,1.45,0,0,1,.21-.18.32.32,0,0,1,.13-.07l.23.07a.29.29,0,0,1,.15.14.28.28,0,0,1,.07.11.31.31,0,0,0,0,.1.16.16,0,0,0,0,.07l.12,0a.2.2,0,0,1,.19.08.47.47,0,0,1,.06.15v.14s0,.06.06,0,.08,0,.09.11Z"/><path d="M73.9,50.53c0,.14,0,.3,0,.48s0,.36,0,.55q0,.72-.06,1.68c0,.65-.09,1.41-.15,2.29,0,.34,0,.78,0,1.3s0,1.08,0,1.64,0,1,0,1.4,0,.84.07,1.19c0,.15,0,.23-.11.24a.81.81,0,0,1-.3,0,.17.17,0,0,0-.14,0l-.11.07a.3.3,0,0,1-.1.07.17.17,0,0,1-.15,0l-.25-.18-.39-.27a3.68,3.68,0,0,1-.38-.31,1.73,1.73,0,0,1-.27-.3,3.81,3.81,0,0,1-.12-1c0-.55,0-1.21,0-2v-2c0-.44,0-.88.06-1.31s.06-.85.1-1.25.08-.78.11-1.14,0-.68,0-1a2.14,2.14,0,0,0-.19-1s-.12,0-.27.07a2.48,2.48,0,0,0-.58.57,9,9,0,0,0-.8,1.24A15.45,15.45,0,0,0,69,53.47c-.33.84-.66,1.86-1,3.05s-.65,2.6-1,4.22a.61.61,0,0,1-.12.29.27.27,0,0,1-.24.09c-.09,0-.15-.07-.21-.19a.87.87,0,0,0-.2-.31,1.68,1.68,0,0,1-.52-.07.39.39,0,0,1-.28-.37.41.41,0,0,0,0-.19,2,2,0,0,1-.12-.21.9.9,0,0,1-.12-.24.71.71,0,0,1-.06-.31c0-.7.06-1.46.08-2.29s0-1.68.07-2.54,0-1.74.07-2.62,0-1.71.07-2.5.06-1.54.08-2.23.06-1.28.1-1.78q.18-2.25.36-3.54c.12-.85.2-1.35.23-1.49a1.1,1.1,0,0,1,.09-.23.49.49,0,0,1,.08-.1l.06,0s0,0,0-.07a.12.12,0,0,1,.11-.07h.39a.26.26,0,0,0,.15-.07l.2-.15a.5.5,0,0,1,.29-.06,1,1,0,0,1,.39,0c.1,0,.15.12.17.29a11,11,0,0,1,0,1.22c0,.5,0,1-.07,1.66S68,43.85,68,44.52s-.1,1.32-.16,2-.1,1.26-.15,1.83-.08,1.07-.1,1.49c0,.23,0,.51,0,.83s0,.68,0,1.06v1.17c0,.41,0,.81,0,1.2a17.74,17.74,0,0,1,1-2.53,11.39,11.39,0,0,1,1.09-1.79,5.32,5.32,0,0,1,1-1.1,2.18,2.18,0,0,1,.9-.44.94.94,0,0,1,.32,0l.49.13a4.29,4.29,0,0,1,.47.16.91.91,0,0,1,.24.11l.18.21a2,2,0,0,1,.25.33,3.73,3.73,0,0,1,.24.55A5.41,5.41,0,0,1,73.9,50.53Z"/><path d="M87,54.3a8.17,8.17,0,0,1-.46,2.84,6.31,6.31,0,0,1-1.25,2.15,5.53,5.53,0,0,1-1.82,1.38A5.1,5.1,0,0,1,80.2,61a5,5,0,0,1-1.14-.36A5.92,5.92,0,0,1,78,60a4.39,4.39,0,0,1-1-1,5.25,5.25,0,0,1-.67-1.45,6.54,6.54,0,0,1-.23-1.91,7.83,7.83,0,0,1,1.08-4.07,6.33,6.33,0,0,1,1.07-1.39,8.22,8.22,0,0,1,1.21-1,5.47,5.47,0,0,1,1.15-.59,4,4,0,0,1,1-.23c.14,0,.2,0,.19,0a.46.46,0,0,1-.12.13,1.06,1.06,0,0,0-.15.15c0,.05,0,.08,0,.09l.17.06.14.08.12-.14a.37.37,0,0,1,.21-.07.47.47,0,0,1,.17,0l.12,0s.05,0,.06-.09.06-.17.11-.19a2.75,2.75,0,0,1,.39,0,2.35,2.35,0,0,1,.55.11,3.9,3.9,0,0,1,.81.36,4.82,4.82,0,0,1,1.75,1.77,6.34,6.34,0,0,1,.62,1.55A8.25,8.25,0,0,1,87,54.3Zm-5.43-4.41a4.92,4.92,0,0,0-1,.85,6.88,6.88,0,0,0-1.6,2.83,6.59,6.59,0,0,0-.25,1.84,8.37,8.37,0,0,0,.19,1.88,4.7,4.7,0,0,0,.55,1.44,2.69,2.69,0,0,0,.88.92,2.22,2.22,0,0,0,1.18.32,2.3,2.3,0,0,0,1.16-.33,3.24,3.24,0,0,0,1-1A5.79,5.79,0,0,0,84.4,57a8.64,8.64,0,0,0,.27-2.28,6.07,6.07,0,0,0-.34-2.19,5.35,5.35,0,0,0-.78-1.44,2.92,2.92,0,0,0-.82-.78,1.58,1.58,0,0,0-.48-.24h-.32A.74.74,0,0,1,81.56,49.89Z"/><path d="M103.9,51.83a8.06,8.06,0,0,1-.09,1.29q-.11.75-.24,1.62c-.09.58-.18,1.17-.26,1.77a12.93,12.93,0,0,0-.12,1.7,6.33,6.33,0,0,0,.08,1,2.64,2.64,0,0,0,.25.82.78.78,0,0,1,.11.35.71.71,0,0,1,0,.26c0,.08,0,.14-.06.2a.22.22,0,0,0,0,.16.21.21,0,0,1,0,.17.73.73,0,0,1-.14.18.82.82,0,0,1-.2.12.22.22,0,0,1-.21,0,.71.71,0,0,0-.26-.12h-.16l-.12.06a.15.15,0,0,1-.13,0l-.56-.32a1,1,0,0,1-.5-.69,3,3,0,0,1-.09-.5c0-.19,0-.39-.07-.62s0-.43,0-.64A7.36,7.36,0,0,1,100,60.17a5.54,5.54,0,0,1-1.13,1,3.88,3.88,0,0,1-2.11.67,2.53,2.53,0,0,1-.82-.12,1.65,1.65,0,0,1-.55-.28,9,9,0,0,1-1-1.2,1.27,1.27,0,0,1-.28-.74,4.93,4.93,0,0,1,.47-1.78,7,7,0,0,1,1-1.5A8.12,8.12,0,0,1,96.82,55a11.58,11.58,0,0,1,1.49-1,10.66,10.66,0,0,1,1.49-.72c.49-.2.94-.36,1.34-.48,0-.54,0-1-.06-1.42a5.45,5.45,0,0,0-.12-.9,2.88,2.88,0,0,0-.69-1.39,1.54,1.54,0,0,0-1.13-.46,1.45,1.45,0,0,0-.85.32,3.09,3.09,0,0,0-.77.86A4.8,4.8,0,0,0,97,51.05a5.53,5.53,0,0,0-.23,1.49c0,.13,0,.25,0,.37s0,.25,0,.38a.14.14,0,0,1-.07.15l-.2.07-.26,0-.23.05-.12,0a.15.15,0,0,1-.09,0,.48.48,0,0,1-.11-.08l-.19-.15a1.28,1.28,0,0,0-.25-.15L95,53.12,94.87,53a.11.11,0,0,1-.06-.1A4.88,4.88,0,0,1,95.22,51a7,7,0,0,1,1.11-1.82A6.22,6.22,0,0,1,98,47.85a3.91,3.91,0,0,1,2-.52,3.78,3.78,0,0,1,1.46.25,3.25,3.25,0,0,1,1.06.67,3.57,3.57,0,0,1,.71.9,5.16,5.16,0,0,1,.44,1,6.41,6.41,0,0,1,.22,1A6.5,6.5,0,0,1,103.9,51.83Zm-2.73,2.68a9.61,9.61,0,0,0-1,.43c-.36.19-.73.4-1.1.64a11.73,11.73,0,0,0-1.11.85,9.57,9.57,0,0,0-1,1.07,6.42,6.42,0,0,0-.83,1.21,3.47,3.47,0,0,0-.32.89,1.07,1.07,0,0,0,0,.58.44.44,0,0,0,.21.26,1.56,1.56,0,0,0,1,0A3.2,3.2,0,0,0,98,60a6.14,6.14,0,0,0,1-.88c.32-.35.62-.71.9-1.07s.53-.73.75-1.09.4-.66.54-.92Z"/><path d="M113.64,49.83a6.11,6.11,0,0,1-.09.86,4.81,4.81,0,0,1-.18.81,3.12,3.12,0,0,1-.3.69,1.72,1.72,0,0,1-.38.48.53.53,0,0,1-.29.15.25.25,0,0,1-.17-.06.69.69,0,0,1-.11-.13.18.18,0,0,0-.12-.09h-.16a.45.45,0,0,1-.2,0,.35.35,0,0,1-.18-.11.8.8,0,0,1-.11-.36,3.86,3.86,0,0,1,0-.74,7,7,0,0,0,0-.9,2,2,0,0,0-.08-.65c0-.18-.15-.26-.29-.26a.92.92,0,0,0-.37.15,2,2,0,0,0-.58.67,7.12,7.12,0,0,0-.63,1.49,13.91,13.91,0,0,0-.51,2.58c0,1.38,0,2.5,0,3.34s0,1.5,0,2a8.47,8.47,0,0,1,0,.86.43.43,0,0,1-.15.33,1.29,1.29,0,0,1-.3.11c-.14,0-.3.09-.46.13l-.48.11a.92.92,0,0,1-.29,0l-.16-.1-.25-.2-.23-.25a.54.54,0,0,1-.12-.22,4.69,4.69,0,0,1,0-.69c0-.35,0-.78,0-1.28s0-1.05,0-1.65,0-1.19,0-1.78c0-.39,0-.81,0-1.28s0-.94.09-1.42.07-1,.11-1.41.08-.88.11-1.25.07-.67.09-.91,0-.4,0-.45.05-.11.12-.09a1.08,1.08,0,0,1,.21.11l.2.13q.09.06.12,0c0-.09.1-.1.23,0a3.13,3.13,0,0,1,.36.22.57.57,0,0,0,.14.13.7.7,0,0,1,.16.14.69.69,0,0,1,.13.21,1.22,1.22,0,0,1,.05.37q0,.21,0,.63c0,.28.05.61.08,1q.16-.54.39-1.14a6.44,6.44,0,0,1,.57-1.11,3.1,3.1,0,0,1,.78-.83,1.73,1.73,0,0,1,1.09-.34,1.89,1.89,0,0,1,.69.14,1.79,1.79,0,0,1,.62.4,1.85,1.85,0,0,1,.45.64A2,2,0,0,1,113.64,49.83Z"/><path d="M124.55,55.16c0,.11,0,.24,0,.39s0,.32,0,.51a4.63,4.63,0,0,1-.1.89,7.13,7.13,0,0,1-.34,1.13,6.7,6.7,0,0,1-.63,1.17,4.76,4.76,0,0,1-1,1,4.65,4.65,0,0,1-1.35.76,4.83,4.83,0,0,1-1.77.3,5.4,5.4,0,0,1-1.81-.34A5,5,0,0,1,115.93,60a5.59,5.59,0,0,1-1.25-1.82,6.58,6.58,0,0,1-.49-2.64,7.68,7.68,0,0,1,.25-1.9,9.54,9.54,0,0,1,.67-1.76,8.19,8.19,0,0,1,1-1.52,8.54,8.54,0,0,1,1.19-1.21,5.39,5.39,0,0,1,1.3-.79,3.3,3.3,0,0,1,1.3-.29,4.14,4.14,0,0,1,1.81.35,3.3,3.3,0,0,1,1.14.86,3.17,3.17,0,0,1,.6,1.09,3.94,3.94,0,0,1,.17,1.05,2.89,2.89,0,0,1-.22,1,3.31,3.31,0,0,1-.72,1.1,4.17,4.17,0,0,1-1.29.87,4.74,4.74,0,0,1-2,.35,3.14,3.14,0,0,1-1.1-.17,3.54,3.54,0,0,1-1.51-1,6.36,6.36,0,0,1-.44-.58,7.9,7.9,0,0,0-.27,2.19,4.65,4.65,0,0,0,.24,1.54,3.61,3.61,0,0,0,.69,1.16,2.83,2.83,0,0,0,1,.74,3.34,3.34,0,0,0,1.32.26,3.68,3.68,0,0,0,1.58-.31,4.3,4.3,0,0,0,1.19-.78,6,6,0,0,0,.87-1c.24-.37.46-.7.64-1s.34-.56.47-.76.27-.3.4-.29.09,0,.09.15a.76.76,0,0,1,0,.15A1,1,0,0,1,124.55,55.16ZM120,49.56a2.67,2.67,0,0,0-.7.11,3.2,3.2,0,0,0-.9.4,4.52,4.52,0,0,0-1.76,2l.37-.18a.63.63,0,0,1,.22-.07s0,0,.09.06a2,2,0,0,0,.87.83,2.57,2.57,0,0,0,1.16.25,2,2,0,0,0,.88-.17,1.88,1.88,0,0,0,.61-.44,1.75,1.75,0,0,0,.35-.6,2.08,2.08,0,0,0,.1-.64A1.78,1.78,0,0,0,121,50,1.13,1.13,0,0,0,120,49.56Z"/><path d="M144.5,48.38s-.14.22-.31.51-.4.64-.67,1.08l-.93,1.49c-.34.56-.7,1.13-1.07,1.73s-.73,1.19-1.09,1.78l-1,1.67c-.32.51-.59,1-.82,1.38l-.52.9c-.11.2-.26.51-.46.93l-.69,1.45c-.27.55-.54,1.14-.84,1.77L135.2,65l-.86,1.85-.73,1.6-.54,1.17c-.14.31-.22.49-.24.55a1,1,0,0,1-.25.43.88.88,0,0,1-.32.13.18.18,0,0,1-.17-.06.85.85,0,0,1-.1-.19,1.5,1.5,0,0,0-.09-.18.17.17,0,0,0-.11-.1c-.13,0-.2-.05-.22-.08a1.26,1.26,0,0,0-.09-.21.18.18,0,0,0-.09-.07h-.09l-.07,0s0,0,0-.09,0-.34,0-.51a3.11,3.11,0,0,1,.07-.47,5.34,5.34,0,0,1,.3-.69l.66-1.29.88-1.68,1-1.88,1-1.89c.32-.63.62-1.19.88-1.7-.13-.28-.31-.65-.53-1.1s-.46-.94-.72-1.49L134,55.28c-.29-.62-.58-1.22-.86-1.83l-.82-1.74c-.26-.56-.49-1.07-.68-1.52s-.35-.81-.46-1.11a2.49,2.49,0,0,1-.17-.55.46.46,0,0,1,.08-.25.21.21,0,0,1,.16-.06.59.59,0,0,1,.21,0l.23.09.35.14c.11,0,.19,0,.24-.05s.11-.12.25-.13a.73.73,0,0,1,.35.07s.06,0,.08,0a.21.21,0,0,0,.08-.06l.09-.1a.41.41,0,0,1,.13-.08.39.39,0,0,1,.3.06.84.84,0,0,1,.25.39c.05.15.16.41.31.78s.34.81.56,1.3.45,1,.71,1.59.53,1.12.79,1.67l.74,1.54c.24.48.45.88.63,1.21.27-.51.56-1,.88-1.61s.64-1.13,1-1.7l1-1.66.91-1.51L142,49a7.64,7.64,0,0,1,.55-.79.51.51,0,0,0,.12-.2s0-.06.12-.09l.15-.06a.4.4,0,0,1,.22,0l.21,0a.14.14,0,0,1,.12.09.08.08,0,0,0,.09,0l.15-.05.17-.07a.29.29,0,0,1,.18,0l.21,0a.64.64,0,0,1,.19.08.27.27,0,0,1,.1.16A.35.35,0,0,1,144.5,48.38Z"/><path d="M155.16,54.3a8.42,8.42,0,0,1-.46,2.84,6.65,6.65,0,0,1-1.25,2.15,5.67,5.67,0,0,1-1.83,1.38,5.19,5.19,0,0,1-2.2.48,5.12,5.12,0,0,1-1-.12,4.94,4.94,0,0,1-1.15-.36,5.92,5.92,0,0,1-1.11-.68,4.84,4.84,0,0,1-1-1,5.25,5.25,0,0,1-.67-1.45,6.54,6.54,0,0,1-.23-1.91,7.83,7.83,0,0,1,1.08-4.07,6.33,6.33,0,0,1,1.07-1.39,9.42,9.42,0,0,1,1.21-1,5.53,5.53,0,0,1,1.16-.59,3.86,3.86,0,0,1,1-.23c.14,0,.2,0,.19,0a.4.4,0,0,1-.11.13,1.17,1.17,0,0,0-.16.15c0,.05,0,.08.05.09l.17.06.15.08.12-.14a.35.35,0,0,1,.2-.07.44.44,0,0,1,.17,0l.12,0s0,0,.06-.09.06-.17.12-.19a2.47,2.47,0,0,1,.38,0,2.35,2.35,0,0,1,.55.11,3.49,3.49,0,0,1,.81.36,5.24,5.24,0,0,1,.91.68,5.13,5.13,0,0,1,.84,1.09,6,6,0,0,1,.62,1.55A7.8,7.8,0,0,1,155.16,54.3Zm-5.44-4.41a4.92,4.92,0,0,0-1,.85,7,7,0,0,0-1.59,2.83,6.6,6.6,0,0,0-.26,1.84,8.37,8.37,0,0,0,.19,1.88,4.7,4.7,0,0,0,.55,1.44,2.69,2.69,0,0,0,.88.92,2.22,2.22,0,0,0,1.18.32,2.36,2.36,0,0,0,1.17-.33,3.21,3.21,0,0,0,1-1,5.79,5.79,0,0,0,.73-1.64,8.62,8.62,0,0,0,.28-2.28,6.05,6.05,0,0,0-.35-2.19,5.64,5.64,0,0,0-.77-1.44,3.06,3.06,0,0,0-.82-.78,1.7,1.7,0,0,0-.49-.24h-.32A.74.74,0,0,1,149.72,49.89Z"/><path d="M166.63,60.56c0,.09-.08.2-.23.33a.84.84,0,0,1-.57.2,1.48,1.48,0,0,1-.39-.11,3,3,0,0,1-.58-.31,2.5,2.5,0,0,1-.54-.49,1.11,1.11,0,0,1-.25-.67,2.77,2.77,0,0,1,0-.46V57c0-.49,0-1,0-1.49-.07.36-.16.74-.26,1.12a8.15,8.15,0,0,1-.38,1.15,9.6,9.6,0,0,1-.52,1.13,7.51,7.51,0,0,1-.69,1.07,2.82,2.82,0,0,1-.45.46,3.19,3.19,0,0,1-.46.32,2.51,2.51,0,0,1-.42.19,1.11,1.11,0,0,1-.3.06,1.09,1.09,0,0,1-.28-.13l-.51-.33-.63-.45-.63-.5c-.2-.17-.38-.32-.54-.47a2.83,2.83,0,0,1-.35-.35,1.46,1.46,0,0,1-.18-.51,7.1,7.1,0,0,1-.15-.89c0-.35-.07-.75-.09-1.19s0-.91,0-1.42c0-.27,0-.62,0-1s0-.9.06-1.39.07-1,.12-1.51.1-1,.16-1.37a6.38,6.38,0,0,1,.23-1c.1-.26.2-.38.32-.38a2.53,2.53,0,0,1,.42.06,2.56,2.56,0,0,0,.62.07,1.89,1.89,0,0,0,.65-.08.78.78,0,0,1,.28-.09c.1,0,.15.09.15.26v.14a.5.5,0,0,1,0,.16c0,.06,0,.22-.06.47s-.08.57-.13,1-.1.83-.15,1.32-.1,1-.15,1.53-.08,1.07-.11,1.61,0,1.06,0,1.55c0,.33,0,.66,0,1a8.11,8.11,0,0,0,.08.91,2.75,2.75,0,0,0,.17.65c.07.17.15.25.25.25a.92.92,0,0,0,.39-.13,2.12,2.12,0,0,0,.58-.52,6.57,6.57,0,0,0,.75-1.11,16.73,16.73,0,0,0,.88-1.92q.48-1.2,1-2.94c.35-1.16.7-2.54,1.06-4.14a.07.07,0,0,1,.06-.07.23.23,0,0,1,.13,0c.13,0,.29,0,.49,0a5,5,0,0,1,.58.11,2.24,2.24,0,0,1,.48.16c.14.06.21.12.21.19,0,.45,0,.94-.06,1.48s-.09,1.08-.14,1.65-.09,1.14-.13,1.73-.07,1.18-.07,1.77c0,1,0,2,.1,3S166.52,59.88,166.63,60.56Z"/><path d="M182.42,42.59a4.9,4.9,0,0,1,.31.91,4.33,4.33,0,0,1-.61,3.24,8,8,0,0,1-1.91,2,11.69,11.69,0,0,1-2.77,1.54,13.5,13.5,0,0,1-3.32.86,6.05,6.05,0,0,0,0,.63v.7c0,.53,0,1,0,1.43a5.41,5.41,0,0,0,.15,1.09,3.52,3.52,0,0,1,.1.61.35.35,0,0,1-.06.28.2.2,0,0,1-.19,0,1.3,1.3,0,0,1-.27-.1.2.2,0,0,0-.25.08c-.06.1-.13.21-.2.35s-.15.26-.23.39a.46.46,0,0,1-.31.22.61.61,0,0,1-.33,0,.88.88,0,0,1-.24-.19,1.2,1.2,0,0,1-.18-.26c-.05-.09-.1-.16-.14-.22a2.1,2.1,0,0,1-.1-.54c0-.32-.06-.71-.09-1.16s-.05-.93-.07-1.43,0-1,0-1.37a3.9,3.9,0,0,1,.08-1,1.62,1.62,0,0,1,.16-.44,1.42,1.42,0,0,1,.2-.3,1.2,1.2,0,0,1,.21-.19l.17-.09a1.65,1.65,0,0,1,.36,0c.22,0,.51-.05.86-.11a11.78,11.78,0,0,0,1.2-.25,10.29,10.29,0,0,0,1.36-.45,8.94,8.94,0,0,0,1.35-.74A5.07,5.07,0,0,0,178.8,47a5.35,5.35,0,0,0,.83-1.53,5.91,5.91,0,0,0,.32-2,2.6,2.6,0,0,0-.33-1.33,2.81,2.81,0,0,0-.85-.93,3.57,3.57,0,0,0-1.24-.54,5.8,5.8,0,0,0-1.47-.18,7.2,7.2,0,0,0-1.83.25,6.44,6.44,0,0,0-1.67.72,4,4,0,0,0-1.21,1.15,2.69,2.69,0,0,0-.49,1.54,3.05,3.05,0,0,0,.08.74.53.53,0,0,0,.41.44.25.25,0,0,1,.13.12.44.44,0,0,0,.14.16c.11.06.14.14.08.24a.37.37,0,0,1-.26.18.31.31,0,0,0-.22.14.23.23,0,0,1-.15.12s-.08,0-.09,0,0,0,0,0h-.15l-.37-.07a2.5,2.5,0,0,1-.77-.35,3.35,3.35,0,0,1-.71-.65,3.21,3.21,0,0,1-.53-.85,2.56,2.56,0,0,1-.2-1,2.89,2.89,0,0,1,.21-1,3.33,3.33,0,0,1,.74-1.07,6.91,6.91,0,0,1,1.29-1,8.29,8.29,0,0,1,1.59-.75,10.23,10.23,0,0,1,1.77-.47,10.62,10.62,0,0,1,1.86-.16,10.09,10.09,0,0,1,2.07.21,7.41,7.41,0,0,1,1.92.67,6.72,6.72,0,0,1,1.61,1.14A5.35,5.35,0,0,1,182.42,42.59Zm-7.21,16.46a2.82,2.82,0,0,1,0,.49,3,3,0,0,1-.11.54,2.17,2.17,0,0,1-.22.46.63.63,0,0,1-.33.26,2.87,2.87,0,0,1-.87.2,1.13,1.13,0,0,1-.51-.11l-.41-.24a1.57,1.57,0,0,1-.51-.45,1,1,0,0,1-.2-.57,1.67,1.67,0,0,1,.1-.52,3.66,3.66,0,0,1,.24-.59,2.76,2.76,0,0,1,.32-.53,1.06,1.06,0,0,1,.32-.34,1.16,1.16,0,0,1,.41-.14h.31a1.49,1.49,0,0,1,1.07.36A1.66,1.66,0,0,1,175.21,59.05Z"/></g></g></svg>