<svg xmlns="http://www.w3.org/2000/svg" viewBox="0 0 86.87 81.93"><defs><style>.cls-1{opacity:0.83;}.cls-2{fill:#7e8384;}.cls-3{font-size:17.11px;fill:#141414;font-family:Alatsi-Regular, Alatsi;}</style></defs><title>Asset 92</title><g id="Layer_2" data-name="Layer 2"><g id="레이어_1" data-name="레이어 1"><g class="cls-1"><path class="cls-2" d="M80.28,10C73.79,2.73,65.42-.65,55.34.1A28.57,28.57,0,0,0,36.46,9a.92.92,0,0,1-1.25.2A25.25,25.25,0,0,0,6.43,14.3,21.9,21.9,0,0,0,.09,27.94,21.55,21.55,0,0,0,2.63,40.23a23.27,23.27,0,0,0,8.69,9,24.48,24.48,0,0,0,12.35,3.58,1.41,1.41,0,0,1,1.42.9A13.79,13.79,0,0,0,35.7,61.24a14.53,14.53,0,0,0,14.75-6.68A1.08,1.08,0,0,1,51.84,54,29.29,29.29,0,0,0,63.78,54a28.78,28.78,0,0,0,15.53-8.41,26.19,26.19,0,0,0,7.56-18.08A25.89,25.89,0,0,0,80.28,10Z"/><path class="cls-2" d="M25.32,61.45a6.83,6.83,0,1,0,0,13.64,6.83,6.83,0,1,0,0-13.64Z"/><path class="cls-2" d="M9.15,71.71a5.12,5.12,0,1,0-.24,10.22,5.12,5.12,0,1,0,.24-10.22Z"/></g><text class="cls-3" transform="translate(29.34 36.56)">CSS</text></g></g></svg>