<svg xmlns="http://www.w3.org/2000/svg" viewBox="0 0 87.87 82.93"><defs><style>.cls-1{opacity:0.83;}.cls-2{fill:none;stroke:#fff;stroke-miterlimit:10;stroke-dasharray:12;}.cls-3{fill:#141414;}</style></defs><g id="레이어_2" data-name="레이어 2"><g id="레이어_1-2" data-name="레이어 1"><g class="cls-1"><path class="cls-2" d="M80.78,10.5C74.29,3.23,65.92-.15,55.84.6A28.57,28.57,0,0,0,37,9.5a.92.92,0,0,1-1.25.2A25.25,25.25,0,0,0,6.93,14.8,21.9,21.9,0,0,0,.59,28.44,21.55,21.55,0,0,0,3.13,40.73a23.27,23.27,0,0,0,8.69,9,24.48,24.48,0,0,0,12.35,3.58,1.41,1.41,0,0,1,1.42.9A13.79,13.79,0,0,0,36.2,61.74,14.53,14.53,0,0,0,51,55.06a1.08,1.08,0,0,1,1.39-.58,29.29,29.29,0,0,0,11.94.05,28.78,28.78,0,0,0,15.53-8.41A26.19,26.19,0,0,0,87.37,28,25.89,25.89,0,0,0,80.78,10.5Z"/><path class="cls-2" d="M25.82,62a6.83,6.83,0,1,0,0,13.64,6.83,6.83,0,1,0,0-13.64Z"/><path class="cls-2" d="M9.65,72.21a5.12,5.12,0,1,0-.24,10.22,5.12,5.12,0,1,0,.24-10.22Z"/></g><path class="cls-3" d="M32.91,36.57a5,5,0,0,1-1.77-2.13,8.17,8.17,0,0,1-.67-3.51,7.18,7.18,0,0,1,.67-3.24,4.67,4.67,0,0,1,4.36-2.76,5.61,5.61,0,0,1,1.46.16,3.69,3.69,0,0,1,.94.39,3.89,3.89,0,0,1,.66.51l-1,1.79a4.62,4.62,0,0,0-.53-.5,2,2,0,0,0-.58-.28,3.32,3.32,0,0,0-.91-.1,2.22,2.22,0,0,0-1.47.5,3.11,3.11,0,0,0-.94,1.38,5.81,5.81,0,0,0-.32,2,8,8,0,0,0,.33,2.46,3.43,3.43,0,0,0,.92,1.53,1.91,1.91,0,0,0,1.3.51,4,4,0,0,0,1.34-.21,2.29,2.29,0,0,0,.9-.54l.94,1.69a4.52,4.52,0,0,1-1.26.72,5.55,5.55,0,0,1-2,.29A4.46,4.46,0,0,1,32.91,36.57Z"/><path class="cls-3" d="M41.7,37.06a5.43,5.43,0,0,1-1.24-.49,4,4,0,0,1-.84-.62l.87-1.8a3,3,0,0,0,.6.55,4.23,4.23,0,0,0,.92.49,2.75,2.75,0,0,0,1,.21A1.81,1.81,0,0,0,44.18,35,1.29,1.29,0,0,0,44.63,34a1.35,1.35,0,0,0-.21-.76,2.27,2.27,0,0,0-.55-.57c-.23-.17-.59-.4-1.07-.69-.65-.4-1.17-.74-1.54-1a3.92,3.92,0,0,1-1-1.12,3.19,3.19,0,0,1-.41-1.66,3.43,3.43,0,0,1,.41-1.68,2.76,2.76,0,0,1,1.2-1.14,4.06,4.06,0,0,1,1.92-.41,4.35,4.35,0,0,1,3,1.11l-1,1.74a3,3,0,0,0-.44-.44,2.41,2.41,0,0,0-.7-.42,2.15,2.15,0,0,0-.87-.18,1.37,1.37,0,0,0-1,.38,1.35,1.35,0,0,0-.36,1,1.36,1.36,0,0,0,.22.77,2,2,0,0,0,.57.6c.24.18.56.39,1,.63a15.67,15.67,0,0,1,1.66,1.08,3.68,3.68,0,0,1,1,1.1,3.25,3.25,0,0,1,.39,1.65,3.42,3.42,0,0,1-.45,1.79,3,3,0,0,1-1.27,1.15,4.6,4.6,0,0,1-2,.4A6,6,0,0,1,41.7,37.06Z"/><path class="cls-3" d="M50.32,37.06a5.62,5.62,0,0,1-1.24-.49,4,4,0,0,1-.84-.62l.88-1.8a3,3,0,0,0,.6.55,3.94,3.94,0,0,0,.91.49,2.76,2.76,0,0,0,1,.21A1.78,1.78,0,0,0,52.8,35,1.3,1.3,0,0,0,53.26,34a1.35,1.35,0,0,0-.21-.76,2.32,2.32,0,0,0-.56-.57c-.23-.17-.58-.4-1.06-.69-.66-.4-1.17-.74-1.54-1a4,4,0,0,1-1-1.12,3.19,3.19,0,0,1-.4-1.66,3.42,3.42,0,0,1,.4-1.68,2.78,2.78,0,0,1,1.21-1.14A4,4,0,0,1,52,24.93,4.37,4.37,0,0,1,55.09,26l-1,1.74a2.59,2.59,0,0,0-.44-.44,2.41,2.41,0,0,0-.7-.42,2.11,2.11,0,0,0-.86-.18,1.35,1.35,0,0,0-1,.38,1.31,1.31,0,0,0-.37,1,1.36,1.36,0,0,0,.22.77,2.32,2.32,0,0,0,.57.6q.36.27,1,.63a18.11,18.11,0,0,1,1.66,1.08,3.79,3.79,0,0,1,1,1.1,3.25,3.25,0,0,1,.39,1.65,3.42,3.42,0,0,1-.45,1.79,2.9,2.9,0,0,1-1.27,1.15,4.57,4.57,0,0,1-2,.4A6,6,0,0,1,50.32,37.06Z"/></g></g></svg>