<svg xmlns="http://www.w3.org/2000/svg" viewBox="0 0 242.68 129.16"><defs><style>.cls-1{fill:#000e1c;}</style></defs><title>Asset 44</title><g id="Layer_2" data-name="Layer 2"><g id="레이어_1" data-name="레이어 1"><path class="cls-1" d="M27,19.16S27,3.45,33.26.31s6.82,18.85,6.82,18.85S49,28.59,52.12,38s28.28,0,44,3.14S133.83,50.59,137,91.44c0,0,6.22,9.43,7.82,0S143.25,41.16,159,22.31,184.11,3.45,196.68,3.45,225,12.88,234.39,31.73s12.57,37.11,0,35.84-18.92-1.27-33-13.84S184.11,60,181,69.45s-3.15,44-18.86,50.28-22.4,0-25.34,0-1.94,6-1.94,6H83.41s.13-9.17,9.56-9.17c0,0-12.57-3.14-9.43-28.28,0,0-9.42,6.29-22,0,0,0-3.15,15.71-6.29,18.86s0,22,0,22H38.08s-4.82-3.15,7.75-9.43V110.3s-6-8.24-4-18.24c1.95-9.74,4-3.76.84-10s0-18.86-6.29-22-26.34-3.15-32-6.29-8.83-12.57,10-25.14Z"/></g></g></svg>