<svg xmlns="http://www.w3.org/2000/svg" viewBox="0 0 275 145"><defs><style>.cls-1{fill:#a7e1ea;}</style></defs><title>Asset 64</title><g id="Layer_2" data-name="Layer 2"><g id="레이어_1" data-name="레이어 1"><rect class="cls-1" width="275" height="118" rx="38.11"/><polygon class="cls-1" points="218.5 145 238 111.22 199 111.22 218.5 145"/><path d="M75.64,54.91c0,.05-.19.33-.46.82l-1,1.9c-.42.77-.88,1.65-1.4,2.63s-1.06,2-1.62,3l-1.63,3.05L68,69.1c-.45.83-.83,1.53-1.13,2.1s-.5,1-.59,1.12c-.19.38-.34.72-.47,1s-.22.55-.29.76l-.21.53a1.41,1.41,0,0,1-.2.35,1,1,0,0,1-.37.36.4.4,0,0,1-.26,0,1.28,1.28,0,0,1-.24-.11.35.35,0,0,0-.3,0,2.86,2.86,0,0,1-.67.2.85.85,0,0,0-.44.17c-.11.1-.2.14-.28.12a.82.82,0,0,1-.24-.17l-.22-.19a.91.91,0,0,1-.21-.18,1.06,1.06,0,0,1-.17-.26,1.14,1.14,0,0,1-.1-.44,10.52,10.52,0,0,0-.2-1.08L61,71.14c-.19-.91-.41-1.91-.65-3S59.82,66,59.57,65s-.49-1.94-.73-2.79a18.87,18.87,0,0,0-.61-1.92c-.21.41-.49,1-.84,1.83L56.21,64.8c-.44,1-.89,2-1.36,3.09S53.94,70,53.53,71s-.79,1.9-1.12,2.71-.57,1.45-.73,1.9a2.07,2.07,0,0,1-.15.3.93.93,0,0,1-.25.27.46.46,0,0,1-.28.1.26.26,0,0,1-.23-.15c-.2-.42-.41-.63-.62-.63a2.16,2.16,0,0,1-.47-.06c-.17,0-.3-.24-.39-.59s-.25-1.14-.45-2-.43-1.76-.69-2.78-.54-2.1-.86-3.25-.62-2.28-.92-3.41-.6-2.23-.88-3.28-.54-2-.77-2.8-.41-1.51-.56-2-.23-.85-.24-.94c-.11-.34-.12-.54,0-.58a.48.48,0,0,1,.34,0l.43.11.55.17.55.17.39.1a.25.25,0,0,0,.22,0,.2.2,0,0,0,.08-.13.65.65,0,0,0,0-.19,1,1,0,0,1,0-.25.25.25,0,0,1,.17-.26,2.81,2.81,0,0,1,.64,0h.37a1.33,1.33,0,0,1,.35,0,.46.46,0,0,1,.26.13.51.51,0,0,1,.13.34,9.08,9.08,0,0,0,.21,1c.14.57.31,1.29.52,2.14s.44,1.81.69,2.86.51,2.09.77,3.13.5,2,.74,2.94.42,1.68.58,2.28c.28-.55.62-1.26,1-2.11s.86-1.77,1.32-2.75.94-1.94,1.39-2.93l1.26-2.72c.39-.82.7-1.51.94-2.06a8.33,8.33,0,0,0,.39-1c.1-.4.22-.61.34-.65a.3.3,0,0,1,.31.08c.1.1.18.11.23,0a.55.55,0,0,0,.08-.32c0-.13,0-.22.08-.26a.45.45,0,0,1,.23,0l.28,0a.24.24,0,0,0,.22-.09q0-.15.06-.18a.88.88,0,0,1,.3,0,1,1,0,0,1,.43.05,2.25,2.25,0,0,1,.09.26c.12.51.28,1.16.47,2s.4,1.69.62,2.66.47,2,.74,3,.53,2.07.79,3.06.51,1.93.76,2.79.47,1.6.67,2.19L66,67.32c.47-.84,1-1.77,1.54-2.8l1.76-3.18c.6-1.1,1.16-2.13,1.67-3.09s1-1.8,1.33-2.51.61-1.19.71-1.45a2.47,2.47,0,0,1,.22-.35.61.61,0,0,1,.17-.16l.15-.06.11-.08c.07-.09.13-.14.18-.14a.29.29,0,0,1,.16,0l.16,0a.18.18,0,0,0,.15-.07.62.62,0,0,1,.24-.17,1.21,1.21,0,0,1,.44.22C75.68,54,75.92,54.48,75.64,54.91Z"/><path d="M92.14,60.39A13.56,13.56,0,0,1,92,62.61c-.12.88-.26,1.81-.41,2.81s-.31,2-.44,3a22.09,22.09,0,0,0-.21,2.94,10.66,10.66,0,0,0,.13,1.73,4.33,4.33,0,0,0,.44,1.41,1.52,1.52,0,0,1,.19.6,1.34,1.34,0,0,1,0,.46,1.87,1.87,0,0,1-.1.33.45.45,0,0,0,0,.28.31.31,0,0,1,0,.29,1,1,0,0,1-.23.32.94.94,0,0,1-.35.2.39.39,0,0,1-.35,0,1,1,0,0,0-.46-.21.52.52,0,0,0-.28,0l-.21.09a.21.21,0,0,1-.22,0c-.29-.15-.62-.34-1-.54a1.63,1.63,0,0,1-.68-.68,1.74,1.74,0,0,1-.19-.52c-.06-.24-.11-.53-.16-.86s-.08-.68-.11-1.06-.07-.76-.08-1.12a13.18,13.18,0,0,1-1.83,2.68,10.58,10.58,0,0,1-2,1.7,7.12,7.12,0,0,1-1.93.9,6.66,6.66,0,0,1-1.72.26,4.38,4.38,0,0,1-1.42-.21,3,3,0,0,1-.95-.5,14.7,14.7,0,0,1-1.8-2.06,2.06,2.06,0,0,1-.48-1.29,8.34,8.34,0,0,1,.8-3.06,11.66,11.66,0,0,1,1.69-2.59,14.32,14.32,0,0,1,2.27-2.13,24.29,24.29,0,0,1,2.58-1.69,21.71,21.71,0,0,1,2.58-1.25c.85-.33,1.62-.61,2.31-.81,0-.94-.07-1.76-.11-2.46a9.09,9.09,0,0,0-.2-1.55,5,5,0,0,0-1.19-2.4,2.68,2.68,0,0,0-1.95-.79,2.47,2.47,0,0,0-1.47.54,5.59,5.59,0,0,0-1.34,1.49,8.66,8.66,0,0,0-1,2.15,9.46,9.46,0,0,0-.41,2.57c0,.23,0,.45,0,.65s0,.43.08.65a.22.22,0,0,1-.12.26,1,1,0,0,1-.35.12,2.92,2.92,0,0,1-.44.06,2.39,2.39,0,0,0-.39.08l-.21.07a.21.21,0,0,1-.15,0,.67.67,0,0,1-.2-.14l-.32-.26a3.28,3.28,0,0,0-.43-.26l-.39-.18a1.92,1.92,0,0,1-.29-.15.17.17,0,0,1-.11-.16A8.53,8.53,0,0,1,77.16,59a12,12,0,0,1,1.92-3.13,10.65,10.65,0,0,1,2.81-2.33,6.78,6.78,0,0,1,3.39-.91,6.45,6.45,0,0,1,2.52.45,5.87,5.87,0,0,1,1.82,1.14,6.51,6.51,0,0,1,1.23,1.56,9.69,9.69,0,0,1,.76,1.73A11.56,11.56,0,0,1,92,59.13C92.07,59.64,92.12,60.06,92.14,60.39ZM87.44,65a16.72,16.72,0,0,0-1.72.75,17.26,17.26,0,0,0-1.9,1.11,18.75,18.75,0,0,0-1.92,1.46,14.94,14.94,0,0,0-1.79,1.85,10.11,10.11,0,0,0-1.43,2.08,5.67,5.67,0,0,0-.55,1.54,1.76,1.76,0,0,0,.06,1,.69.69,0,0,0,.36.44,2.6,2.6,0,0,0,1.68.07A5.49,5.49,0,0,0,82,74.44a12,12,0,0,0,1.69-1.54c.54-.59,1.06-1.21,1.54-1.84a21.91,21.91,0,0,0,1.3-1.87c.38-.62.69-1.15.94-1.6Z"/><path d="M103.57,45.06c0,.11,0,.38,0,.82s-.08,1-.14,1.76-.14,1.57-.23,2.53-.17,2-.26,3.1C104,53.14,105,53,106,53s1.8-.12,2.48-.12a1.43,1.43,0,0,1,.6.13,2,2,0,0,1,.43.3,1.59,1.59,0,0,1,.27.37,1.13,1.13,0,0,1,.13.32,1,1,0,0,0,0,.25,1.79,1.79,0,0,1,0,.24,1.58,1.58,0,0,1-.45,1,2.12,2.12,0,0,1-1.37.65l-5.53.6q-.14,1.88-.24,3.84c-.06,1.32-.13,2.63-.19,3.94s-.11,2.6-.14,3.86S102,70.83,102,72c0,.72,0,1.31.06,1.76s0,.75,0,.89a2.45,2.45,0,0,1-.17.87,4.27,4.27,0,0,1-.39.77,2.58,2.58,0,0,1-.47.58.73.73,0,0,1-.4.22,1.93,1.93,0,0,1-1.48-.59,3.61,3.61,0,0,1-.82-1.57A11.06,11.06,0,0,1,98,72.63c-.05-.85-.08-1.73-.08-2.65q0-3.24.18-6.51c.12-2.17.3-4.26.52-6.27l-3.24.39-.16,0a.48.48,0,0,1-.18,0,1.26,1.26,0,0,1-.79-.23,1.59,1.59,0,0,1-.46-.55,1.88,1.88,0,0,1-.19-.64,3.62,3.62,0,0,1,0-.5,2.11,2.11,0,0,1,.1-.68.55.55,0,0,1,.39-.39A11.54,11.54,0,0,1,96,54.2c.91-.17,1.94-.34,3.08-.51.19-1.4.38-2.69.58-3.86s.4-2.18.59-3a20.51,20.51,0,0,1,.53-2c.17-.48.31-.71.43-.71l.13,0,.13,0a.29.29,0,0,0,.25-.17.36.36,0,0,1,.35-.17,1.15,1.15,0,0,1,.5.14,2.62,2.62,0,0,1,.5.35,3.54,3.54,0,0,1,.37.43A.68.68,0,0,1,103.57,45.06Z"/><path d="M127.21,67.64a7.61,7.61,0,0,1-.65,3,9.39,9.39,0,0,1-4.7,4.85,8.67,8.67,0,0,1-3.79.81,8.9,8.9,0,0,1-3.47-.73,9.94,9.94,0,0,1-3.16-2.09,10.66,10.66,0,0,1-2.28-3.31,10.47,10.47,0,0,1-.89-4.37,11.43,11.43,0,0,1,.92-4.53,12.84,12.84,0,0,1,2.43-3.74A11.86,11.86,0,0,1,115.07,55a9.1,9.1,0,0,1,4-.93,8.86,8.86,0,0,1,3.21.51,7.06,7.06,0,0,1,2.12,1.19,4.49,4.49,0,0,1,1.16,1.42,2.92,2.92,0,0,1,.35,1.17,2.83,2.83,0,0,1-.42,1.61,2.9,2.9,0,0,1-1,.93,2.27,2.27,0,0,1-1,.35c-.32,0-.52,0-.61-.17a.34.34,0,0,0-.22-.1.79.79,0,0,0-.25,0l-.24.11a.23.23,0,0,1-.2,0c-.09,0-.09-.12,0-.24a.56.56,0,0,0,.11-.31c0-.15,0-.33,0-.53a1.54,1.54,0,0,1,.12-.64,2,2,0,0,0-.2-2.08,2.6,2.6,0,0,0-1.09-.83,4.7,4.7,0,0,0-1.91-.34,4.8,4.8,0,0,0-2,.55,6.86,6.86,0,0,0-2.17,1.7,9.69,9.69,0,0,0-1.74,2.94,11.28,11.28,0,0,0-.72,4.25,9.39,9.39,0,0,0,.28,2.23,6,6,0,0,0,1,2.16,5.41,5.41,0,0,0,1.9,1.62,6.46,6.46,0,0,0,3,.64,7.26,7.26,0,0,0,2.24-.34,8.37,8.37,0,0,0,1.86-.86,8.65,8.65,0,0,0,1.48-1.14,11.25,11.25,0,0,0,1.09-1.18,8.34,8.34,0,0,0,.69-1,5.12,5.12,0,0,0,.3-.52.7.7,0,0,1,.26-.19.48.48,0,0,1,.31,0,.57.57,0,0,1,.28.18A.74.74,0,0,1,127.21,67.64Z"/><path d="M145,58.16c0,.24.06.51.07.82s0,.62,0,1c0,.83,0,1.8-.1,2.91s-.16,2.42-.26,3.94c0,.59-.06,1.34-.08,2.25s0,1.85,0,2.82,0,1.64,0,2.42.07,1.46.12,2q0,.39-.18.42a1.39,1.39,0,0,1-.52-.06.33.33,0,0,0-.24,0l-.19.13a.63.63,0,0,1-.18.12c-.06,0-.15,0-.25-.09l-.44-.31-.66-.46a5.78,5.78,0,0,1-.67-.53A2.55,2.55,0,0,1,141,75a6.15,6.15,0,0,1-.21-1.79c0-1-.05-2.11-.05-3.46V66.26c0-.76.05-1.51.1-2.26s.11-1.46.18-2.15.13-1.35.18-2,.08-1.18.08-1.68a3.66,3.66,0,0,0-.34-1.79c0-.07-.2,0-.46.13a4.08,4.08,0,0,0-1,1,14.68,14.68,0,0,0-1.38,2.13,27.85,27.85,0,0,0-1.61,3.56q-.85,2.18-1.72,5.27c-.58,2.06-1.13,4.49-1.65,7.27a1.15,1.15,0,0,1-.19.51.52.52,0,0,1-.43.14c-.14,0-.26-.1-.35-.32a1.63,1.63,0,0,0-.35-.53,3.16,3.16,0,0,1-.9-.12.69.69,0,0,1-.48-.64.63.63,0,0,0-.09-.33l-.21-.36a2.63,2.63,0,0,1-.21-.41,1.44,1.44,0,0,1-.09-.53c.06-1.22.1-2.54.13-4s.08-2.89.12-4.39l.12-4.5c0-1.51.07-3,.13-4.33s.1-2.66.14-3.85.1-2.21.17-3.07c.21-2.59.41-4.62.62-6.1s.34-2.34.39-2.58a1.53,1.53,0,0,1,.16-.39.59.59,0,0,1,.14-.18l.1-.08a.22.22,0,0,0,.07-.13.22.22,0,0,1,.19-.12,1.82,1.82,0,0,1,.33,0H133a.42.42,0,0,0,.26-.12l.35-.26a1,1,0,0,1,.5-.1,2.1,2.1,0,0,1,.68,0c.16,0,.25.22.29.51,0,.54.06,1.24,0,2.1s-.06,1.82-.13,2.86-.15,2.14-.24,3.29-.17,2.28-.27,3.39-.18,2.16-.26,3.16-.13,1.85-.17,2.56q0,.59-.06,1.44c0,.56,0,1.17,0,1.82v2c0,.7,0,1.39,0,2.07a30.49,30.49,0,0,1,1.74-4.35,20.71,20.71,0,0,1,1.87-3.11,8.93,8.93,0,0,1,1.81-1.89,3.58,3.58,0,0,1,1.54-.76,1.54,1.54,0,0,1,.56.08l.84.23a8.41,8.41,0,0,1,.81.28,2.27,2.27,0,0,1,.42.19,3.54,3.54,0,0,0,.31.35,3.48,3.48,0,0,1,.43.59,5.22,5.22,0,0,1,.41.93A8.78,8.78,0,0,1,145,58.16Z"/><path d="M177.49,64.65a14.49,14.49,0,0,1-.79,4.91,11.31,11.31,0,0,1-2.16,3.72,9.53,9.53,0,0,1-3.16,2.36,8.81,8.81,0,0,1-3.79.84,9.45,9.45,0,0,1-1.82-.2,8.71,8.71,0,0,1-2-.64,9.51,9.51,0,0,1-1.93-1.16,8,8,0,0,1-1.66-1.8,8.94,8.94,0,0,1-1.16-2.49,11.06,11.06,0,0,1-.4-3.3,13.56,13.56,0,0,1,.52-3.89,14.21,14.21,0,0,1,1.34-3.14,10.8,10.8,0,0,1,1.86-2.4,13.47,13.47,0,0,1,2.07-1.7,8.92,8.92,0,0,1,2-1,6.2,6.2,0,0,1,1.66-.39c.24,0,.35,0,.32.08a.6.6,0,0,1-.19.23,1.69,1.69,0,0,0-.27.26c-.08.09-.05.14.09.16l.3.1.24.13.21-.23a.59.59,0,0,1,.35-.13,1,1,0,0,1,.3,0l.21,0c.05,0,.08,0,.1-.15s.1-.3.2-.33a4.19,4.19,0,0,1,.66,0,3.93,3.93,0,0,1,1,.18,6.55,6.55,0,0,1,1.4.62,9.15,9.15,0,0,1,1.56,1.18A8.35,8.35,0,0,1,176,58.35,10.71,10.71,0,0,1,177.07,61,14,14,0,0,1,177.49,64.65ZM168.11,57a8.51,8.51,0,0,0-1.79,1.48,11.53,11.53,0,0,0-1.6,2.16,12.06,12.06,0,0,0-1.16,2.73,11.35,11.35,0,0,0-.44,3.17,15.33,15.33,0,0,0,.32,3.24,8.56,8.56,0,0,0,.95,2.49,4.81,4.81,0,0,0,1.52,1.58,3.81,3.81,0,0,0,2,.56,4.05,4.05,0,0,0,2-.57,5.46,5.46,0,0,0,1.78-1.72A9.63,9.63,0,0,0,173,69.33a14.35,14.35,0,0,0,.48-3.92,10.52,10.52,0,0,0-.6-3.8,10.18,10.18,0,0,0-1.34-2.48,5.47,5.47,0,0,0-1.42-1.35,2.63,2.63,0,0,0-.83-.4h-.55A1.3,1.3,0,0,1,168.11,57Z"/><path d="M197.29,75.46q0,.24-.39.57a1.44,1.44,0,0,1-1,.34,2.33,2.33,0,0,1-.66-.18,4.87,4.87,0,0,1-1-.53,4.49,4.49,0,0,1-.94-.86,1.89,1.89,0,0,1-.44-1.16,4.16,4.16,0,0,1-.05-.79V69.36c0-.85,0-1.71.05-2.58-.12.63-.27,1.27-.44,1.94a18.47,18.47,0,0,1-.65,2,19.08,19.08,0,0,1-.91,2,14.5,14.5,0,0,1-1.2,1.84,4.79,4.79,0,0,1-.76.79,6,6,0,0,1-.8.55,3.63,3.63,0,0,1-.72.32,2,2,0,0,1-.52.11,1.61,1.61,0,0,1-.48-.22c-.26-.15-.55-.34-.89-.57l-1.08-.78-1.09-.86c-.34-.29-.66-.56-.93-.81a4.68,4.68,0,0,1-.6-.61,2.51,2.51,0,0,1-.32-.88,13.58,13.58,0,0,1-.25-1.53c-.07-.61-.13-1.29-.17-2.06s-.06-1.57-.06-2.44c0-.47,0-1.07,0-1.82s0-1.54.11-2.4.11-1.72.19-2.6.17-1.66.29-2.36a9.58,9.58,0,0,1,.4-1.72c.15-.44.34-.66.54-.66a3.87,3.87,0,0,1,.73.12,5.39,5.39,0,0,0,1.07.11,3.05,3.05,0,0,0,1.13-.14,1.39,1.39,0,0,1,.48-.14c.17,0,.26.15.26.44v.25a1,1,0,0,1-.05.27c0,.1-.06.37-.12.8s-.14,1-.22,1.67-.18,1.43-.26,2.27-.17,1.72-.25,2.64-.14,1.84-.19,2.78-.08,1.83-.08,2.67c0,.58,0,1.15,0,1.72a13.9,13.9,0,0,0,.14,1.56,4.38,4.38,0,0,0,.29,1.13c.12.28.26.43.44.43a1.77,1.77,0,0,0,.66-.22,3.82,3.82,0,0,0,1-.9,12.12,12.12,0,0,0,1.29-1.92,28.14,28.14,0,0,0,1.52-3.32q.83-2.06,1.71-5.06T194,54a.14.14,0,0,1,.09-.12.67.67,0,0,1,.22,0,9.7,9.7,0,0,1,1.86.25,5.79,5.79,0,0,1,.83.27c.23.11.35.22.35.34,0,.78,0,1.63-.11,2.55s-.14,1.86-.23,2.84-.17,2-.23,3-.11,2-.11,3c0,1.8.06,3.52.17,5.16S197.09,74.28,197.29,75.46Z"/><path d="M209.06,45.06c0,.11,0,.38-.06.82s-.08,1-.14,1.76-.13,1.57-.22,2.53-.17,2-.26,3.1c1.09-.13,2.13-.24,3.1-.32s1.81-.12,2.49-.12a1.38,1.38,0,0,1,.59.13,1.63,1.63,0,0,1,.43.3,1.35,1.35,0,0,1,.27.37.9.9,0,0,1,.13.32,1,1,0,0,0,0,.25.93.93,0,0,1,0,.24,1.59,1.59,0,0,1-.46,1,2.09,2.09,0,0,1-1.36.65l-5.54.6c-.08,1.25-.16,2.53-.23,3.84s-.13,2.63-.19,3.94-.11,2.6-.15,3.86-.05,2.46-.05,3.59c0,.72,0,1.31.05,1.76s0,.75,0,.89a2.43,2.43,0,0,1-.16.87,6.14,6.14,0,0,1-.39.77,2.88,2.88,0,0,1-.47.58.76.76,0,0,1-.4.22,2,2,0,0,1-1.49-.59,3.7,3.7,0,0,1-.81-1.57,10.41,10.41,0,0,1-.35-2.26c-.06-.85-.08-1.73-.08-2.65q0-3.24.18-6.51t.52-6.27l-3.25.39-.16,0a.48.48,0,0,1-.18,0,1.28,1.28,0,0,1-.79-.23,1.56,1.56,0,0,1-.45-.55,1.9,1.9,0,0,1-.2-.64c0-.21,0-.38,0-.5a2.11,2.11,0,0,1,.11-.68.55.55,0,0,1,.39-.39,11.54,11.54,0,0,1,1.91-.45c.91-.17,1.93-.34,3.07-.51.19-1.4.39-2.69.59-3.86s.39-2.18.58-3a17.63,17.63,0,0,1,.54-2c.16-.48.3-.71.43-.71l.12,0,.13,0a.28.28,0,0,0,.25-.17.37.37,0,0,1,.35-.17,1.16,1.16,0,0,1,.51.14,2.54,2.54,0,0,1,.49.35,2.93,2.93,0,0,1,.38.43A.78.78,0,0,1,209.06,45.06Z"/><path d="M220.12,72.86a5,5,0,0,1,0,.85,4.56,4.56,0,0,1-.2.92,3,3,0,0,1-.37.79,1.06,1.06,0,0,1-.58.46c-.29.1-.56.18-.81.25a3,3,0,0,1-.67.09,1.8,1.8,0,0,1-.87-.19c-.23-.12-.47-.26-.71-.41a2.5,2.5,0,0,1-.87-.78,1.66,1.66,0,0,1-.35-1,2.7,2.7,0,0,1,.17-.88,8.18,8.18,0,0,1,.41-1,6.78,6.78,0,0,1,.55-.92,1.89,1.89,0,0,1,.56-.57,1.78,1.78,0,0,1,.71-.25h.51a2.59,2.59,0,0,1,1.86.61A2.92,2.92,0,0,1,220.12,72.86Zm-.2-32.68c-.11.61-.2,1.36-.29,2.26s-.16,1.91-.21,3-.09,2.3-.13,3.56,0,2.57,0,3.9c0,1,0,2,0,3s0,2,.09,3q0,.45,0,1.44c0,.67,0,1.5,0,2.48,0,.57,0,1.14,0,1.71s0,1.06,0,1.52,0,.83-.06,1.15a2.85,2.85,0,0,1-.09.59,2.2,2.2,0,0,1-.51.71c-.16.13-.3.18-.4.14s-.14-.07-.21-.23-.09-.07-.26,0a1.64,1.64,0,0,1-.54,0,.32.32,0,0,1-.26-.13c-.07-.09-.2-.11-.39-.08s-.2-.07-.29-.21a1.37,1.37,0,0,1-.18-.57c0-.12,0-.47-.07-1S216,65,216,64.19s-.09-1.76-.14-2.77-.1-2-.15-3-.07-2-.1-2.9,0-1.7,0-2.36,0-1.55-.05-2.46-.07-1.84-.1-2.8-.07-1.93-.11-2.89,0-1.86,0-2.71c0-.56,0-1.08,0-1.56a12.86,12.86,0,0,1,.09-1.33,1,1,0,0,0,0-.22.29.29,0,0,1,.06-.17,1.25,1.25,0,0,1,.25-.18,5.85,5.85,0,0,1,.57-.26,6.49,6.49,0,0,1,.86-.37,1.83,1.83,0,0,1,.62-.12,1,1,0,0,1,.6.21.75.75,0,0,0,.34.14,1.51,1.51,0,0,0,.3,0l.27-.07a.57.57,0,0,1,.26,0,.63.63,0,0,1,.36.25,1.12,1.12,0,0,1,.16.71,3,3,0,0,1,0,.42C220,39.82,220,40,219.92,40.18Z"/></g></g></svg>