<svg xmlns="http://www.w3.org/2000/svg" viewBox="0 0 1594 615.59"><defs><style>.cls-1{fill:#fff;}.cls-2{fill:#eaeaea;}</style></defs><title>Asset 20</title><g id="Layer_2" data-name="Layer 2"><g id="레이어_1" data-name="레이어 1"><path class="cls-1" d="M292.08,140.36s.39,6,7.07,14.17c0,0,10.76.61,16-1.06,0,0-7.82,4.91-17,2.87A19.67,19.67,0,0,1,292.08,140.36Z"/><path class="cls-1" d="M340.64,187.74s11.69-20.41,39.36-21.23c0,0-30.15,12-31,29.73,0,0-21.07-7.43-45.43,3.51C303.6,199.75,310.78,187.09,340.64,187.74Z"/><polygon class="cls-2" points="992.14 307.81 873.84 396.66 873.84 354.81 866.42 394.75 857.1 322.08 857.04 407.5 847.77 374.09 847.77 416.24 829.12 430.25 674.45 486.82 574.08 421.37 500.9 398.19 497.29 364.79 493.74 395.92 491.8 395.3 491.32 395.58 487.96 354.81 483.86 399.99 481.47 401.4 475.35 370.69 475.35 405.02 396.02 451.86 389.89 452.83 387.34 412.5 383.43 453.86 380.72 454.28 377.17 428.58 373.6 455.41 269.66 471.85 235.11 455.91 235.11 443 231.8 454.38 229 453.09 225.78 407.5 223.1 450.37 221.35 449.56 217.01 423.38 217.01 447.56 183 431.88 183 490.86 1248 490.86 1248 286.29 992.14 307.81"/><polygon class="cls-2" points="862.24 0 844.78 0 812.1 0 802.49 0 792.88 0 760.21 0 742.75 0 709.07 42.37 709.07 56.79 709.07 102.11 772.08 195.53 772.08 205.31 777.14 213.12 782.21 205.31 782.22 205.31 787.28 213.12 792.35 205.31 792.35 205.31 797.42 213.12 801.46 206.9 802.49 208.49 803.52 206.9 807.56 213.12 812.63 205.31 812.63 205.31 817.7 213.12 822.77 205.31 822.77 205.31 827.84 213.12 832.91 205.31 832.91 205.31 832.91 205.31 832.91 195.53 834 195.53 897 104.28 897 56.79 897 42.37 862.24 0"/><polygon class="cls-2" points="788.37 220.52 788.37 222.69 789.46 222.69 789.46 246.59 802.49 246.59 815.53 246.59 815.53 222.69 817.7 222.69 817.7 220.52 802.49 220.52 788.37 220.52"/><ellipse class="cls-2" cx="585.34" cy="316.1" rx="11.22" ry="17.06"/><path class="cls-2" d="M601,314.51c0,14.68-10.06-5-22.39-5s-22.28,19.67-22.28,5,10-26.59,22.34-26.59S601,299.82,601,314.51Z"/><polygon class="cls-2" points="586.58 294.72 586.58 417.6 518.76 417.6 558.46 334.24 518.76 334.15 562.92 292.07 594.47 279.59 586.58 294.72"/><polyline class="cls-2" points="570.84 417.6 570.9 437.43 578.34 435.96 583.27 440.59 566.97 440.59 566.97 417.6"/><polyline class="cls-2" points="554.53 417.6 554.59 437.43 562.03 435.96 566.97 440.59 550.66 440.59 550.66 417.6"/><path d="M1119.35,402.34A33.7,33.7,0,0,0,1087.08,413a40.52,40.52,0,0,0-75.14,1.61,34.39,34.39,0,1,0,15.19,47.91,40.54,40.54,0,0,0,56-10.42,33.69,33.69,0,1,0,36.23-49.74Z"/><circle cx="1136.98" cy="459.45" r="46.49"/><path d="M1111.88,461.81a35.81,35.81,0,0,0-15.74,1.92,48.51,48.51,0,0,0-84.73-30,55.78,55.78,0,1,0,2.13,66.67,48.47,48.47,0,0,0,60,6.57,36,36,0,1,0,38.34-45.14Z"/><path d="M1083.28,470.88a25.57,25.57,0,0,0-25.79,1.3,30.79,30.79,0,0,0-55.39-13.94A25.69,25.69,0,0,0,997,454.8a26.14,26.14,0,1,0,6.55,41.6,30.81,30.81,0,0,0,43.14,3.63,25.6,25.6,0,1,0,36.56-29.15Z"/><path d="M965.35,469.34A33.7,33.7,0,0,0,933.08,480a40.52,40.52,0,0,0-75.14,1.61,34.39,34.39,0,1,0,15.19,47.91,40.54,40.54,0,0,0,56-10.42,33.69,33.69,0,1,0,36.23-49.74Z"/><circle cx="982.98" cy="526.45" r="46.49"/><path d="M957.88,528.81a35.81,35.81,0,0,0-15.74,1.92,48.51,48.51,0,0,0-84.73-30,55.78,55.78,0,1,0,2.13,66.67,48.47,48.47,0,0,0,60,6.57,36,36,0,1,0,38.34-45.14Z"/><path d="M929.28,537.88a25.57,25.57,0,0,0-25.79,1.3,30.79,30.79,0,0,0-55.39-13.94A25.69,25.69,0,0,0,843,521.8a26.14,26.14,0,1,0,6.55,41.6A30.81,30.81,0,0,0,892.72,567a25.6,25.6,0,1,0,36.56-29.15Z"/><path d="M160.4,423.6c-9.53-2.2-18.94,1.55-25,8.92-3.87-9.78-11.92-17.44-22.26-19.84-15.35-3.55-30.48,5.75-35.86,21.19a25.16,25.16,0,0,0-5.89-2.17c-14.37-3.33-28.51,6.6-31.58,22.17s6.1,30.88,20.47,34.2c11.68,2.7,23.2-3.35,28.75-14.06a29.94,29.94,0,0,0,11,5.09c12.72,2.94,25.29-2.93,32.28-13.82a26.24,26.24,0,0,0,17.15,13.54c14.08,3.26,27.92-6.47,30.93-21.72S174.47,426.86,160.4,423.6Z"/><ellipse cx="174.04" cy="471.46" rx="35.96" ry="38.96"/><path d="M154.62,473.44a25.68,25.68,0,0,0-12.18,1.61c-.8-19.85-15-36.57-33.74-38.62-12.44-1.35-24.07,4.06-31.8,13.46A42.24,42.24,0,0,0,47.47,432.5C23.76,429.91,2.6,448.65.22,474.34S15.13,523,38.84,525.53c16.12,1.75,31.05-6.34,39.71-19.77a36.21,36.21,0,0,0,22.65,11.57A35.07,35.07,0,0,0,125,511.27c2.92,11.74,12.26,20.88,24.09,22.17,15.3,1.66,28.94-10.42,30.48-27S169.91,475.1,154.62,473.44Z"/><path d="M132.5,481a18.52,18.52,0,0,0-20,1.1,25.79,25.79,0,0,0-12.63-19.4c-10.59-6-23.4-2.43-30.21,7.71a20.73,20.73,0,0,0-3.92-2.88c-9.92-5.57-22.12-1.37-27.26,9.37s-1.27,24,8.64,29.53a19.09,19.09,0,0,0,23.69-4A24.16,24.16,0,0,0,78,508.56a22.37,22.37,0,0,0,26.22-3.09,21.16,21.16,0,0,0,10.06,13.66c9.71,5.46,21.66,1.35,26.7-9.17S142.21,486.49,132.5,481Z"/><path d="M214.4,484.6c-9.53-2.2-18.94,1.55-25,8.92-3.87-9.78-11.92-17.44-22.26-19.84-15.35-3.55-30.48,5.75-35.86,21.19a25.16,25.16,0,0,0-5.89-2.17c-14.37-3.33-28.51,6.6-31.58,22.17s6.1,30.88,20.47,34.2c11.68,2.7,23.2-3.35,28.75-14.06a29.94,29.94,0,0,0,11,5.09c12.72,2.94,25.29-2.93,32.28-13.82a26.24,26.24,0,0,0,17.15,13.54c14.08,3.26,27.92-6.47,30.93-21.72S228.47,487.86,214.4,484.6Z"/><ellipse cx="228.04" cy="532.46" rx="35.96" ry="38.96"/><path d="M208.62,534.44a25.68,25.68,0,0,0-12.18,1.61c-.8-19.85-14.95-36.57-33.74-38.62-12.44-1.35-24.07,4.06-31.8,13.46a42.24,42.24,0,0,0-29.43-17.39c-23.71-2.59-44.87,16.15-47.25,41.84S69.13,584,92.84,586.53c16.12,1.75,31.05-6.34,39.71-19.77a36.21,36.21,0,0,0,22.65,11.57A35.07,35.07,0,0,0,179,572.27c2.92,11.74,12.26,20.88,24.09,22.17,15.3,1.66,28.94-10.42,30.48-27S223.91,536.1,208.62,534.44Z"/><path d="M186.5,542a18.52,18.52,0,0,0-20,1.1,25.79,25.79,0,0,0-12.63-19.4c-10.59-6-23.4-2.43-30.21,7.71a20.73,20.73,0,0,0-3.92-2.88c-9.92-5.57-22.12-1.37-27.26,9.37s-1.27,24,8.64,29.53a19.09,19.09,0,0,0,23.69-4,24.16,24.16,0,0,0,7.14,6.13,22.37,22.37,0,0,0,26.22-3.09,21.16,21.16,0,0,0,10.06,13.66c9.71,5.46,21.66,1.35,26.7-9.17S196.21,547.49,186.5,542Z"/><path d="M355.4,482.6c-9.53-2.2-18.94,1.55-25,8.92-3.87-9.78-11.92-17.44-22.26-19.84-15.35-3.55-30.48,5.75-35.86,21.19a25.16,25.16,0,0,0-5.89-2.17c-14.37-3.33-28.51,6.6-31.58,22.17s6.1,30.88,20.47,34.2c11.68,2.7,23.2-3.35,28.75-14.06a29.94,29.94,0,0,0,11,5.09c12.72,2.94,25.29-2.93,32.28-13.82a26.24,26.24,0,0,0,17.15,13.54c14.08,3.26,27.92-6.47,30.93-21.72S369.47,485.86,355.4,482.6Z"/><ellipse cx="369.04" cy="530.46" rx="35.96" ry="38.96"/><path d="M349.62,532.44a25.68,25.68,0,0,0-12.18,1.61c-.8-19.85-14.95-36.57-33.74-38.62-12.44-1.35-24.07,4.06-31.8,13.46a42.24,42.24,0,0,0-29.43-17.39c-23.71-2.59-44.87,16.15-47.25,41.84s14.91,48.61,38.62,51.19c16.12,1.75,31-6.34,39.71-19.77a36.21,36.21,0,0,0,22.65,11.57A35.07,35.07,0,0,0,320,570.27c2.92,11.74,12.26,20.88,24.09,22.17,15.3,1.66,28.94-10.42,30.48-27S364.91,534.1,349.62,532.44Z"/><path d="M327.5,540a18.52,18.52,0,0,0-20,1.1,25.79,25.79,0,0,0-12.63-19.4c-10.59-6-23.4-2.43-30.21,7.71a20.73,20.73,0,0,0-3.92-2.88c-9.92-5.57-22.12-1.37-27.26,9.37s-1.27,24,8.64,29.53a19.09,19.09,0,0,0,23.69-4,24.16,24.16,0,0,0,7.14,6.13,22.37,22.37,0,0,0,26.22-3.09,21.16,21.16,0,0,0,10.06,13.66c9.71,5.46,21.66,1.35,26.7-9.17S337.21,545.49,327.5,540Z"/><path d="M795.35,484.34A33.7,33.7,0,0,0,763.08,495a40.52,40.52,0,0,0-75.14,1.61,34.39,34.39,0,1,0,15.19,47.91,40.54,40.54,0,0,0,56-10.42,33.69,33.69,0,1,0,36.23-49.74Z"/><circle cx="812.98" cy="541.45" r="46.49"/><path d="M787.88,543.81a35.81,35.81,0,0,0-15.74,1.92,48.51,48.51,0,0,0-84.73-30,55.78,55.78,0,1,0,2.13,66.67,48.47,48.47,0,0,0,60,6.57,36,36,0,1,0,38.34-45.14Z"/><path d="M759.28,552.88a25.57,25.57,0,0,0-25.79,1.3,30.79,30.79,0,0,0-55.39-13.94A25.69,25.69,0,0,0,673,536.8a26.14,26.14,0,1,0,6.55,41.6A30.81,30.81,0,0,0,722.72,582a25.6,25.6,0,1,0,36.56-29.15Z"/><path d="M614.1,463.34A37.38,37.38,0,0,0,579.69,474c-5.34-11.67-16.43-20.81-30.69-23.67-21.16-4.23-42,6.85-49.43,25.28a38.22,38.22,0,0,0-8.13-2.59c-19.81-4-39.29,7.88-43.52,26.46s8.41,36.85,28.22,40.81c16.09,3.22,32-4,39.63-16.77a44.57,44.57,0,0,0,15.2,6.07c17.54,3.51,34.86-3.5,44.5-16.49a35.71,35.71,0,0,0,23.64,16.15c19.4,3.89,38.49-7.71,42.63-25.91S633.5,467.23,614.1,463.34Z"/><ellipse cx="632.9" cy="520.45" rx="49.57" ry="46.49"/><path d="M606.13,522.81a40.55,40.55,0,0,0-16.78,1.92c-1.11-23.68-20.61-43.64-46.51-46.08A53.5,53.5,0,0,0,499,494.71,60.45,60.45,0,0,0,458.44,474c-32.69-3.08-61.85,19.28-65.14,49.94s20.56,58,53.25,61.08c22.21,2.09,42.78-7.57,54.73-23.59a52.9,52.9,0,0,0,31.23,13.81A54.14,54.14,0,0,0,565.25,568c4,14,16.91,24.92,33.22,26.46,21.08,2,39.88-12.44,42-32.21S627.22,524.79,606.13,522.81Z"/><path d="M575.64,531.88a28.82,28.82,0,0,0-27.5,1.3A30.88,30.88,0,0,0,530.73,510c-14.61-7.1-32.27-2.91-41.66,9.2a27.58,27.58,0,0,0-5.4-3.44c-13.67-6.65-30.49-1.64-37.58,11.18s-1.74,28.59,11.92,35.24a29.28,29.28,0,0,0,32.65-4.82,32.44,32.44,0,0,0,9.84,7.32A34.61,34.61,0,0,0,536.65,561a25.9,25.9,0,0,0,13.86,16.31c13.39,6.51,29.87,1.61,36.81-11S589,538.38,575.64,531.88Z"/><path d="M1466,259.16c-24.58-6.11-48.88,4.29-64.43,24.77-10-27.16-30.77-48.45-57.46-55.09-39.63-9.85-78.67,15.95-92.55,58.83a62,62,0,0,0-15.22-6c-37.09-9.23-73.58,18.34-81.49,61.57s15.73,85.76,52.82,95c30.14,7.5,59.87-9.29,74.21-39a75.21,75.21,0,0,0,28.46,14.13c32.84,8.17,65.27-8.15,83.32-38.38,9.18,18.6,24.84,32.77,44.27,37.6,36.32,9,72.06-18,79.81-60.3S1502.31,268.2,1466,259.16Z"/><ellipse cx="1501.18" cy="392.05" rx="92.82" ry="108.19"/><path d="M1451.06,397.55a62.1,62.1,0,0,0-31.43,4.48c-2.08-55.12-38.59-101.56-87.07-107.23-32.13-3.77-62.14,11.25-82.08,37.36-18-26.41-44.86-44.66-76-48.3-61.2-7.17-115.8,44.86-122,116.2s38.49,135,99.69,142.15c41.59,4.87,80.12-17.61,102.48-54.9,15.21,17.59,35.49,29.45,58.47,32.14,22.35,2.62,43.68-3.87,61.31-16.84,7.53,32.6,31.66,58,62.19,61.55,39.47,4.63,74.69-28.93,78.65-74.94S1490.53,402.17,1451.06,397.55Z"/><path d="M1394,418.65c-17-10.25-36.57-8.33-51.5,3-2.65-22.25-14.19-42.73-32.6-53.85-27.35-16.53-60.42-6.77-78,21.4a52.62,52.62,0,0,0-10.12-8c-25.59-15.47-57.09-3.82-70.35,26s-3.28,66.54,22.31,82c20.79,12.56,45.48,7.23,61.13-11.21a64,64,0,0,0,18.42,17c22.66,13.69,49.25,9.34,67.7-8.58,3.51,15.79,12.54,29.85,26,38,25.06,15.14,55.92,3.74,68.91-25.48S1419,433.79,1394,418.65Z"/></g></g></svg>