<svg xmlns="http://www.w3.org/2000/svg" viewBox="0 0 1701 384.78"><defs><style>.cls-1,.cls-2,.cls-3{fill:#fcfcfc;}.cls-1{opacity:0.29;}.cls-2{opacity:0.42;}</style></defs><title>Asset 19</title><g id="Layer_2" data-name="Layer 2"><g id="레이어_1" data-name="레이어 1"><ellipse class="cls-1" cx="1.95" cy="102.99" rx="1.95" ry="1.87"/><ellipse class="cls-2" cx="650.19" cy="89.88" rx="1.95" ry="1.87"/><ellipse class="cls-2" cx="391.36" cy="262.86" rx="1.95" ry="1.87"/><ellipse class="cls-2" cx="189.54" cy="140.3" rx="1.46" ry="1.4"/><ellipse class="cls-3" cx="141.99" cy="104.73" rx="0.68" ry="0.66"/><ellipse class="cls-3" cx="259.32" cy="80.77" rx="0.68" ry="0.66"/><ellipse class="cls-1" cx="637.82" cy="138.81" rx="1.46" ry="1.4"/><ellipse class="cls-2" cx="346.24" cy="192.35" rx="1.46" ry="1.4"/><ellipse class="cls-2" cx="349.36" cy="217.81" rx="1.46" ry="1.4"/><ellipse class="cls-3" cx="457.73" cy="205.08" rx="1.46" ry="1.4"/><ellipse class="cls-3" cx="389.51" cy="148.91" rx="1.46" ry="1.4"/><ellipse class="cls-1" cx="257.76" cy="281.83" rx="1.46" ry="1.4"/><ellipse class="cls-3" cx="269.06" cy="122.33" rx="1.46" ry="1.4"/><ellipse class="cls-1" cx="405.36" cy="204.53" rx="1.95" ry="1.87"/><ellipse class="cls-2" cx="1053.6" cy="191.43" rx="1.95" ry="1.87"/><ellipse class="cls-2" cx="794.77" cy="364.4" rx="1.95" ry="1.87"/><ellipse class="cls-2" cx="592.95" cy="241.85" rx="1.46" ry="1.4"/><ellipse class="cls-3" cx="545.4" cy="206.28" rx="0.68" ry="0.66"/><ellipse class="cls-3" cx="662.73" cy="182.32" rx="0.68" ry="0.66"/><ellipse class="cls-1" cx="1041.23" cy="240.35" rx="1.46" ry="1.4"/><ellipse class="cls-2" cx="749.65" cy="293.89" rx="1.46" ry="1.4"/><ellipse class="cls-2" cx="752.77" cy="319.35" rx="1.46" ry="1.4"/><ellipse class="cls-3" cx="861.14" cy="306.62" rx="1.46" ry="1.4"/><ellipse class="cls-3" cx="792.92" cy="250.46" rx="1.46" ry="1.4"/><ellipse class="cls-1" cx="661.17" cy="383.37" rx="1.46" ry="1.4"/><ellipse class="cls-3" cx="672.47" cy="223.88" rx="1.46" ry="1.4"/><ellipse class="cls-1" cx="436.88" cy="22.87" rx="1.95" ry="1.87"/><ellipse class="cls-2" cx="1085.13" cy="9.76" rx="1.95" ry="1.87"/><ellipse class="cls-2" cx="826.3" cy="182.74" rx="1.95" ry="1.87"/><ellipse class="cls-2" cx="624.47" cy="60.19" rx="1.46" ry="1.4"/><ellipse class="cls-3" cx="576.92" cy="24.62" rx="0.68" ry="0.66"/><ellipse class="cls-3" cx="694.25" cy="0.66" rx="0.68" ry="0.66"/><ellipse class="cls-1" cx="1072.75" cy="58.69" rx="1.46" ry="1.4"/><ellipse class="cls-2" cx="781.18" cy="112.23" rx="1.46" ry="1.4"/><ellipse class="cls-2" cx="784.29" cy="137.69" rx="1.46" ry="1.4"/><ellipse class="cls-3" cx="892.66" cy="124.96" rx="1.46" ry="1.4"/><ellipse class="cls-3" cx="824.44" cy="68.8" rx="1.46" ry="1.4"/><ellipse class="cls-1" cx="692.69" cy="201.71" rx="1.46" ry="1.4"/><ellipse class="cls-3" cx="703.99" cy="42.21" rx="1.46" ry="1.4"/><ellipse class="cls-1" cx="1050.8" cy="92.94" rx="1.95" ry="1.87"/><ellipse class="cls-2" cx="1699.05" cy="79.83" rx="1.95" ry="1.87"/><ellipse class="cls-2" cx="1440.22" cy="252.81" rx="1.95" ry="1.87"/><ellipse class="cls-2" cx="1238.4" cy="130.26" rx="1.46" ry="1.4"/><ellipse class="cls-3" cx="1190.84" cy="94.69" rx="0.68" ry="0.66"/><ellipse class="cls-3" cx="1308.17" cy="70.73" rx="0.68" ry="0.66"/><ellipse class="cls-1" cx="1686.67" cy="128.76" rx="1.46" ry="1.4"/><ellipse class="cls-2" cx="1395.1" cy="182.3" rx="1.46" ry="1.4"/><ellipse class="cls-2" cx="1398.22" cy="207.76" rx="1.46" ry="1.4"/><ellipse class="cls-3" cx="1506.58" cy="195.03" rx="1.46" ry="1.4"/><ellipse class="cls-3" cx="1438.37" cy="138.87" rx="1.46" ry="1.4"/><ellipse class="cls-1" cx="1306.61" cy="271.78" rx="1.46" ry="1.4"/><ellipse class="cls-3" cx="1317.92" cy="112.28" rx="1.46" ry="1.4"/></g></g></svg>