<svg xmlns="http://www.w3.org/2000/svg" viewBox="0 0 520.85 177.07"><defs><style>.cls-1{fill:#fcfcfc;}.cls-2{fill:none;stroke:#fff;stroke-miterlimit:10;stroke-width:2px;}.cls-3{fill:#fff;}</style></defs><title>Asset 17</title><g id="Layer_2" data-name="Layer 2"><g id="레이어_1" data-name="레이어 1"><path class="cls-1" d="M97.31,1.42,69.93,84.21H68L48.66,36.8l-19,47.29h-2L0,1.42H16.36l14.4,47.95L48,1.42h2L67.5,49.19,81.07,1.42Z"/><path class="cls-1" d="M164,1.42V84H148.63V49H121.37V84H106.08V1.42h15.29V35.91h27.26V1.42Z"/><path class="cls-1" d="M222.47,72.06H193l-4.39,12H172L207,0h1.18l35.08,84H227.09Zm-4.38-11.49-8.66-22.52-2-6.64-1.9,6.64-8.29,22.52Z"/><path class="cls-1" d="M292.64,14.82H273.56V84H258.27V14.82H239.18V1.42h53.46Z"/><path class="cls-1" d="M365.77,72.06H336.25l-4.38,12H315.28l35-84h1.19l35.08,84H370.39Zm-4.39-11.49-8.65-22.52-2-6.64-1.89,6.64-8.3,22.52Z"/><path class="cls-1" d="M463.55,0V84h-14.7V48.59l.53-14-4.2,6.4L428.94,60.09,412.7,41l-4.21-6.4.66,14V84h-14.7V0h1.18l33.43,39.41L462.25,0Z"/><path class="cls-1" d="M505.62,1.42h15.17V84H505.62Z"/><line class="cls-2" y1="114.56" x2="520.85" y2="114.56"/><path class="cls-3" d="M20.28,151.75q0,3-2.94,5.44l-6,4.61a7.82,7.82,0,0,0-2.3,3,9.32,9.32,0,0,0-.69,3.61h11.7v1.87H6c0-.32,0-.57,0-.76s0-.37,0-.54a11.41,11.41,0,0,1,.78-4.21,10.82,10.82,0,0,1,2.36-3.63l5.9-4.75a10.71,10.71,0,0,0,2.5-2.4,4.13,4.13,0,0,0,.85-2.26,6,6,0,0,0-.32-1.95,4.31,4.31,0,0,0-1-1.57,4.65,4.65,0,0,0-1.64-1,6.22,6.22,0,0,0-2.3-.39,7.9,7.9,0,0,0-3.38.68,6.61,6.61,0,0,0-2.52,2.16l-1.49-1a7.61,7.61,0,0,1,1.43-1.57A8.81,8.81,0,0,1,9,145.94a9.64,9.64,0,0,1,2-.73,9.2,9.2,0,0,1,2.14-.25,8.17,8.17,0,0,1,2.9.49,6.62,6.62,0,0,1,2.26,1.37A6.2,6.2,0,0,1,19.76,149,7.11,7.11,0,0,1,20.28,151.75Z"/><path class="cls-3" d="M47.54,157.84a18.57,18.57,0,0,1-.64,5,13.8,13.8,0,0,1-1.85,4.11,9.35,9.35,0,0,1-3,2.81,8.15,8.15,0,0,1-7.95,0,9.43,9.43,0,0,1-3-2.82,13.56,13.56,0,0,1-1.85-4.11,19.64,19.64,0,0,1,0-9.87,14,14,0,0,1,1.83-4.1,9.43,9.43,0,0,1,3-2.81,8.17,8.17,0,0,1,8,0,9.45,9.45,0,0,1,3,2.8,13.16,13.16,0,0,1,1.85,4.1A19,19,0,0,1,47.54,157.84Zm-1.88,0a18.29,18.29,0,0,0-.49-4.26,11.86,11.86,0,0,0-1.44-3.51,7.42,7.42,0,0,0-2.35-2.38,6.39,6.39,0,0,0-6.47,0,7.49,7.49,0,0,0-2.36,2.39,11.78,11.78,0,0,0-1.45,3.52,18.29,18.29,0,0,0-.49,4.26,18,18,0,0,0,.48,4.23,11.61,11.61,0,0,0,1.43,3.52A7.23,7.23,0,0,0,34.87,168a6.4,6.4,0,0,0,6.53,0,7.46,7.46,0,0,0,2.35-2.42,11.87,11.87,0,0,0,1.43-3.52A18,18,0,0,0,45.66,157.84Z"/><path class="cls-3" d="M70.5,151.75q0,3-2.94,5.44l-6,4.61a8,8,0,0,0-2.31,3,9.51,9.51,0,0,0-.68,3.61h11.7v1.87h-14c0-.32,0-.57,0-.76s0-.37,0-.54a11.41,11.41,0,0,1,.78-4.21,10.94,10.94,0,0,1,2.35-3.63l5.91-4.75a10.71,10.71,0,0,0,2.5-2.4,4.13,4.13,0,0,0,.85-2.26,6,6,0,0,0-.32-1.95,4.31,4.31,0,0,0-1-1.57,4.65,4.65,0,0,0-1.64-1,6.22,6.22,0,0,0-2.3-.39,7.9,7.9,0,0,0-3.38.68,6.61,6.61,0,0,0-2.52,2.16l-1.49-1a7.34,7.34,0,0,1,1.43-1.57,8.81,8.81,0,0,1,1.79-1.15,9.44,9.44,0,0,1,2-.73,9.13,9.13,0,0,1,2.14-.25,8.21,8.21,0,0,1,2.9.49,6.48,6.48,0,0,1,2.25,1.37A6.22,6.22,0,0,1,70,149,7.11,7.11,0,0,1,70.5,151.75Z"/><path class="cls-3" d="M92.53,170.3H90.61V150.07a12.19,12.19,0,0,1-2.82,1.25,12.93,12.93,0,0,1-3.63.55v-1.82a9.18,9.18,0,0,0,4.7-1.27,5.44,5.44,0,0,0,2.3-3.37h1.37Z"/><path class="cls-3" d="M127.32,155.3a10.61,10.61,0,0,1,1.76-1.66,7.46,7.46,0,0,1,1.64-.93,6.09,6.09,0,0,1,1.51-.41,11.68,11.68,0,0,1,1.43-.09,6.85,6.85,0,0,1,3.06.66,6.29,6.29,0,0,1,2.25,1.85,8.61,8.61,0,0,1,1.38,2.87,13.64,13.64,0,0,1,.48,3.73,12.8,12.8,0,0,1-.56,3.9,9,9,0,0,1-1.56,3,6.87,6.87,0,0,1-2.34,1.9,6.47,6.47,0,0,1-2.93.67c-.44,0-.91,0-1.39-.05a7.57,7.57,0,0,1-1.48-.29,8,8,0,0,1-1.58-.67,9.13,9.13,0,0,1-1.67-1.19v8.22h-1.91V152.69h1.91Zm0,11a8.13,8.13,0,0,0,5.93,2.59,5.48,5.48,0,0,0,2.33-.48,4.78,4.78,0,0,0,1.78-1.45,6.72,6.72,0,0,0,1.15-2.37,12.13,12.13,0,0,0,.41-3.31,8.64,8.64,0,0,0-1.45-5.43,4.87,4.87,0,0,0-4.08-1.84c-2.29,0-4.32,1.17-6.07,3.52Z"/><path class="cls-3" d="M152.91,152.23a8.91,8.91,0,0,1,3.42.63,6.93,6.93,0,0,1,2.6,1.81,8.13,8.13,0,0,1,1.65,2.91,12,12,0,0,1,.58,3.88,12.21,12.21,0,0,1-.59,3.93,8.26,8.26,0,0,1-1.66,2.92,7.19,7.19,0,0,1-2.61,1.82,9.65,9.65,0,0,1-6.78,0,6.94,6.94,0,0,1-2.59-1.81,8.36,8.36,0,0,1-1.68-2.92,12.29,12.29,0,0,1-.59-3.95,12,12,0,0,1,.58-3.9,8.18,8.18,0,0,1,1.67-2.9,7,7,0,0,1,2.6-1.8A8.84,8.84,0,0,1,152.91,152.23Zm0,16.7a6.87,6.87,0,0,0,2.57-.46,5.18,5.18,0,0,0,2-1.41,6.63,6.63,0,0,0,1.31-2.34,11.71,11.71,0,0,0,0-6.5,6.37,6.37,0,0,0-1.31-2.32,5.47,5.47,0,0,0-2-1.39,6.87,6.87,0,0,0-2.57-.46,7,7,0,0,0-2.6.46,5.47,5.47,0,0,0-2,1.39,6.35,6.35,0,0,0-1.3,2.32,12,12,0,0,0,0,6.5,6.62,6.62,0,0,0,1.3,2.34,5.18,5.18,0,0,0,2,1.41A7,7,0,0,0,152.91,168.93Z"/><path class="cls-3" d="M174.67,154.09a3.52,3.52,0,0,0-.58,0h-.69a4.13,4.13,0,0,0-1.58.32,7.1,7.1,0,0,0-1.46.83,8.78,8.78,0,0,0-1.29,1.16,9,9,0,0,0-1,1.33V170.3h-1.91V152.69H168v2.43a9.84,9.84,0,0,1,1.62-1.48,8.61,8.61,0,0,1,1.55-.89,6.17,6.17,0,0,1,1.45-.42,8.41,8.41,0,0,1,1.27-.1h.36l.38,0Z"/><path class="cls-3" d="M184.35,170.46l-.81.07-.81,0a5.05,5.05,0,0,1-2-.33,2.48,2.48,0,0,1-1.15-1,4.22,4.22,0,0,1-.51-1.65,19.4,19.4,0,0,1-.12-2.3V154.5h-2.37v-1.81H179v-4.62h1.91v4.62h3v1.81h-3v10.93a7.26,7.26,0,0,0,.17,1.74,2.24,2.24,0,0,0,.5,1,1.52,1.52,0,0,0,.83.46,5.26,5.26,0,0,0,1.11.1h.45l.43,0Z"/><path class="cls-3" d="M191.17,154.5v15.8h-1.92V154.5h-2.86v-1.81h2.86v-2.05c0-3.64,1.53-5.45,4.57-5.45.32,0,.64,0,1,0a8,8,0,0,1,.8.07V147l-.34,0H195a7,7,0,0,0-1.78.19,2.59,2.59,0,0,0-1.19.61,2.45,2.45,0,0,0-.64,1.14,6.68,6.68,0,0,0-.19,1.75v2h3.51v1.81Z"/><path class="cls-3" d="M205.73,152.23a8.91,8.91,0,0,1,3.42.63,7,7,0,0,1,2.61,1.81,8.28,8.28,0,0,1,1.65,2.91,13.55,13.55,0,0,1,0,7.81,8.43,8.43,0,0,1-1.67,2.92,7.07,7.07,0,0,1-2.6,1.82,9.07,9.07,0,0,1-3.4.62,8.92,8.92,0,0,1-3.38-.61,6.9,6.9,0,0,1-2.6-1.81,8.5,8.5,0,0,1-1.67-2.92,13.24,13.24,0,0,1,0-7.85,8.16,8.16,0,0,1,1.66-2.9,7.14,7.14,0,0,1,2.61-1.8A8.82,8.82,0,0,1,205.73,152.23Zm0,16.7a6.84,6.84,0,0,0,2.57-.46,5.21,5.21,0,0,0,2-1.41,6.62,6.62,0,0,0,1.3-2.34,11.47,11.47,0,0,0,0-6.5,6.35,6.35,0,0,0-1.3-2.32,5.51,5.51,0,0,0-2-1.39,6.84,6.84,0,0,0-2.57-.46,6.91,6.91,0,0,0-2.59.46,5.51,5.51,0,0,0-2,1.39,6.2,6.2,0,0,0-1.29,2.32,11.71,11.71,0,0,0,0,6.5,6.45,6.45,0,0,0,1.29,2.34,5.21,5.21,0,0,0,2,1.41A6.91,6.91,0,0,0,205.73,168.93Z"/><path class="cls-3" d="M221.08,170.3h-1.91V145.41h1.91Z"/><path class="cls-3" d="M229.41,170.3h-1.92V152.69h1.92Zm0-22.05h-1.91v-2.84h1.91Z"/><path class="cls-3" d="M242.7,152.23a8.91,8.91,0,0,1,3.42.63,7,7,0,0,1,2.61,1.81,8.13,8.13,0,0,1,1.65,2.91,13.55,13.55,0,0,1,0,7.81,8.27,8.27,0,0,1-1.67,2.92,7.07,7.07,0,0,1-2.6,1.82,9,9,0,0,1-3.4.62,8.92,8.92,0,0,1-3.38-.61,7,7,0,0,1-2.6-1.81,8.5,8.5,0,0,1-1.67-2.92,13.24,13.24,0,0,1,0-7.85,8.16,8.16,0,0,1,1.66-2.9,7.14,7.14,0,0,1,2.61-1.8A8.82,8.82,0,0,1,242.7,152.23Zm0,16.7a6.84,6.84,0,0,0,2.57-.46,5.21,5.21,0,0,0,2-1.41,6.62,6.62,0,0,0,1.3-2.34,11.47,11.47,0,0,0,0-6.5,6.35,6.35,0,0,0-1.3-2.32,5.51,5.51,0,0,0-2-1.39,6.84,6.84,0,0,0-2.57-.46,6.91,6.91,0,0,0-2.59.46,5.51,5.51,0,0,0-2,1.39,6.2,6.2,0,0,0-1.29,2.32,12,12,0,0,0,0,6.5,6.45,6.45,0,0,0,1.29,2.34,5.21,5.21,0,0,0,2,1.41A6.91,6.91,0,0,0,242.7,168.93Z"/><path class="cls-3" d="M279.6,171.05a12.12,12.12,0,0,1-.31,3,4.87,4.87,0,0,1-.86,1.83,2.76,2.76,0,0,1-1.34.9,6,6,0,0,1-1.75.24,13.49,13.49,0,0,1-1.48-.07v-1.93l.29,0h.24A8.34,8.34,0,0,0,276,175a1.7,1.7,0,0,0,1-.57,2.62,2.62,0,0,0,.5-1.26,13,13,0,0,0,.15-2.2V152.64h1.91Zm0-22.8h-1.91v-2.84h1.91Z"/><path class="cls-3" d="M292.87,152.23a8.91,8.91,0,0,1,3.42.63,7,7,0,0,1,2.61,1.81,8.13,8.13,0,0,1,1.65,2.91,13.55,13.55,0,0,1,0,7.81,8.27,8.27,0,0,1-1.67,2.92,7.07,7.07,0,0,1-2.6,1.82,9,9,0,0,1-3.4.62,8.92,8.92,0,0,1-3.38-.61,7,7,0,0,1-2.6-1.81,8.5,8.5,0,0,1-1.67-2.92,13.24,13.24,0,0,1,0-7.85,8.16,8.16,0,0,1,1.66-2.9,7.14,7.14,0,0,1,2.61-1.8A8.82,8.82,0,0,1,292.87,152.23Zm0,16.7a6.84,6.84,0,0,0,2.57-.46,5.21,5.21,0,0,0,2-1.41,6.62,6.62,0,0,0,1.3-2.34,11.47,11.47,0,0,0,0-6.5,6.35,6.35,0,0,0-1.3-2.32,5.51,5.51,0,0,0-2-1.39,6.84,6.84,0,0,0-2.57-.46,6.91,6.91,0,0,0-2.59.46,5.51,5.51,0,0,0-2,1.39,6.2,6.2,0,0,0-1.29,2.32,12,12,0,0,0,0,6.5,6.45,6.45,0,0,0,1.29,2.34,5.21,5.21,0,0,0,2,1.41A6.91,6.91,0,0,0,292.87,168.93Z"/><path class="cls-3" d="M318.46,167.93a6.61,6.61,0,0,1-1.57,1.33,9.67,9.67,0,0,1-1.77.87,8.92,8.92,0,0,1-1.77.47,9.28,9.28,0,0,1-1.56.15q-5.7,0-5.69-6.43V152.69H308v11.47a5.57,5.57,0,0,0,1,3.63,4.2,4.2,0,0,0,3.36,1.14,6.24,6.24,0,0,0,3.24-.9,11.13,11.13,0,0,0,2.88-2.6V152.69h1.91V170.3h-1.91Z"/><path class="cls-3" d="M335,154.09a3.48,3.48,0,0,0-.57,0h-.7a4.13,4.13,0,0,0-1.58.32,6.78,6.78,0,0,0-1.45.83,8.37,8.37,0,0,0-1.3,1.16,9,9,0,0,0-1,1.33V170.3h-1.91V152.69h1.91v2.43a10.26,10.26,0,0,1,1.62-1.48,8.61,8.61,0,0,1,1.55-.89,6.31,6.31,0,0,1,1.45-.42,8.41,8.41,0,0,1,1.27-.1h.36l.38,0Z"/><path class="cls-3" d="M340.44,155.3a10.41,10.41,0,0,1,1.82-1.66,8.07,8.07,0,0,1,1.75-.93,6.49,6.49,0,0,1,1.62-.4c.5-.05,1-.08,1.43-.08q5.71,0,5.71,6.41V170.3h-1.91V158.8a8.37,8.37,0,0,0-.23-2.13,3.35,3.35,0,0,0-.74-1.47,3.07,3.07,0,0,0-1.34-.87,6.23,6.23,0,0,0-2-.28,6,6,0,0,0-3.09.89,12.68,12.68,0,0,0-3,2.5V170.3h-1.92V152.69h1.92Z"/><path class="cls-3" d="M366.38,170.75a9.58,9.58,0,0,1-3.51-.62,7.61,7.61,0,0,1-2.72-1.82,8.29,8.29,0,0,1-1.76-2.92,12.71,12.71,0,0,1,0-7.78,8,8,0,0,1,1.7-2.91,7.32,7.32,0,0,1,2.6-1.83,8.44,8.44,0,0,1,3.35-.64,8.72,8.72,0,0,1,3.42.64,7.1,7.1,0,0,1,2.61,1.83,8,8,0,0,1,1.65,2.91,12.21,12.21,0,0,1,.57,3.87v.41H359.69a9.9,9.9,0,0,0,.69,3.11,6.76,6.76,0,0,0,1.43,2.2,5.73,5.73,0,0,0,2.05,1.3,7.09,7.09,0,0,0,2.52.43,8.8,8.8,0,0,0,1.91-.21,6.67,6.67,0,0,0,1.74-.65,4.41,4.41,0,0,0,1.3-1.07,2.7,2.7,0,0,0,.62-1.45h1.89a5.84,5.84,0,0,1-.93,2.21,6.43,6.43,0,0,1-1.65,1.64,7.37,7.37,0,0,1-2.22,1A9.94,9.94,0,0,1,366.38,170.75Zm6-10.68a7.4,7.4,0,0,0-2.17-4.52,6,6,0,0,0-4.15-1.5,7,7,0,0,0-2.27.36,5.53,5.53,0,0,0-1.88,1.12,6.24,6.24,0,0,0-1.38,1.88,8.84,8.84,0,0,0-.8,2.66Z"/><path class="cls-3" d="M393.21,152.69l-6.74,17.93a29.11,29.11,0,0,1-1.26,2.79,9.75,9.75,0,0,1-1.37,2,5,5,0,0,1-1.64,1.23,4.8,4.8,0,0,1-2,.41l-.74,0-.72-.07v-2a2.73,2.73,0,0,0,.41,0h.46a4,4,0,0,0,2.82-1.08,8.89,8.89,0,0,0,2.05-3.51l-7.05-17.77h2.1l6.05,15.36,5.55-15.36Z"/><path class="cls-3" d="M425.09,170.46l-.82.07-.81,0a5.09,5.09,0,0,1-2-.33,2.41,2.41,0,0,1-1.14-1,4.06,4.06,0,0,1-.52-1.65,19.4,19.4,0,0,1-.12-2.3V154.5h-2.36v-1.81h2.36v-4.62h1.92v4.62h3v1.81h-3v10.93a7.34,7.34,0,0,0,.16,1.74,2.24,2.24,0,0,0,.51,1,1.5,1.5,0,0,0,.82.46,5.39,5.39,0,0,0,1.11.1h.46l.43,0Z"/><path class="cls-3" d="M436.3,152.23a8.91,8.91,0,0,1,3.42.63,7,7,0,0,1,2.61,1.81,8.13,8.13,0,0,1,1.65,2.91,13.55,13.55,0,0,1,0,7.81,8.27,8.27,0,0,1-1.67,2.92,7.07,7.07,0,0,1-2.6,1.82,9,9,0,0,1-3.4.62,8.92,8.92,0,0,1-3.38-.61,7,7,0,0,1-2.6-1.81,8.5,8.5,0,0,1-1.67-2.92,13.24,13.24,0,0,1,0-7.85,8.16,8.16,0,0,1,1.66-2.9,7.14,7.14,0,0,1,2.61-1.8A8.82,8.82,0,0,1,436.3,152.23Zm0,16.7a6.84,6.84,0,0,0,2.57-.46,5.21,5.21,0,0,0,2-1.41,6.62,6.62,0,0,0,1.3-2.34,11.47,11.47,0,0,0,0-6.5,6.35,6.35,0,0,0-1.3-2.32,5.51,5.51,0,0,0-2-1.39,6.84,6.84,0,0,0-2.57-.46,6.91,6.91,0,0,0-2.59.46,5.51,5.51,0,0,0-2,1.39,6.2,6.2,0,0,0-1.29,2.32,12,12,0,0,0,0,6.5,6.45,6.45,0,0,0,1.29,2.34,5.21,5.21,0,0,0,2,1.41A6.91,6.91,0,0,0,436.3,168.93Z"/><path class="cls-3" d="M495.54,170.3h-1.92V158.8a6.25,6.25,0,0,0-.82-3.64,3.4,3.4,0,0,0-2.91-1.11,5.53,5.53,0,0,0-3,.9,11.65,11.65,0,0,0-2.82,2.53V170.3h-1.91V158.8a11.33,11.33,0,0,0-.18-2.16,3.52,3.52,0,0,0-.61-1.48,2.46,2.46,0,0,0-1.13-.84,4.89,4.89,0,0,0-1.74-.27,5.14,5.14,0,0,0-2.87.9,13.13,13.13,0,0,0-2.75,2.53V170.3H471V152.69h1.91v2.61a12.82,12.82,0,0,1,1.81-1.63,9,9,0,0,1,1.6-.92,6.1,6.1,0,0,1,1.44-.42,8.41,8.41,0,0,1,1.3-.1,5.67,5.67,0,0,1,3.06.8,4.52,4.52,0,0,1,1.84,2.43,8.52,8.52,0,0,1,1.52-1.58,7.37,7.37,0,0,1,3.29-1.5,9.21,9.21,0,0,1,1.62-.15q5.14,0,5.15,6.41Z"/><path class="cls-3" d="M509,170.75a9.58,9.58,0,0,1-3.51-.62,7.58,7.58,0,0,1-2.71-1.82,8.15,8.15,0,0,1-1.76-2.92,11.42,11.42,0,0,1-.62-3.93,11.83,11.83,0,0,1,.59-3.85,8.19,8.19,0,0,1,1.7-2.91,7.27,7.27,0,0,1,2.61-1.83,8.41,8.41,0,0,1,3.35-.64,8.72,8.72,0,0,1,3.42.64,7.06,7.06,0,0,1,2.6,1.83,8,8,0,0,1,1.65,2.91,12.2,12.2,0,0,1,.58,3.87v.41H502.28A10.49,10.49,0,0,0,503,165a6.78,6.78,0,0,0,1.44,2.2,5.78,5.78,0,0,0,2,1.3,7.17,7.17,0,0,0,2.52.43,9,9,0,0,0,1.92-.21,6.6,6.6,0,0,0,1.73-.65,4.41,4.41,0,0,0,1.3-1.07,2.71,2.71,0,0,0,.63-1.45h1.89a6,6,0,0,1-.94,2.21,6.13,6.13,0,0,1-1.65,1.64,7.26,7.26,0,0,1-2.22,1A9.89,9.89,0,0,1,509,170.75Zm6-10.68a7.4,7.4,0,0,0-2.16-4.52,6,6,0,0,0-4.15-1.5,7,7,0,0,0-2.28.36,5.49,5.49,0,0,0-1.87,1.12,6.43,6.43,0,0,0-1.39,1.88,9.45,9.45,0,0,0-.8,2.66Z"/></g></g></svg>