<svg xmlns="http://www.w3.org/2000/svg" viewBox="0 0 1920 368.8"><defs><style>.cls-1{fill:#0a2035;}</style></defs><title>Asset 8</title><g id="Layer_2" data-name="Layer 2"><g id="레이어_1" data-name="레이어 1"><polygon class="cls-1" points="1458.72 38.81 1245.46 198.98 1245.46 123.53 1232.08 195.53 1215.27 64.53 1215.17 218.53 1198.46 158.3 1198.46 234.28 1164.84 259.53 885.99 361.53 705.04 243.53 573.12 201.73 566.6 141.53 560.2 197.64 556.71 196.53 555.85 197.04 549.79 123.53 542.39 204.99 538.1 207.53 527.05 152.17 527.05 214.05 384.05 298.5 372.98 300.25 368.39 227.53 361.33 302.09 356.45 302.87 350.05 256.53 343.62 304.89 156.24 334.53 93.94 305.8 93.94 282.53 87.97 303.05 82.93 300.72 77.13 218.53 72.29 295.81 69.14 294.36 61.31 247.15 61.31 290.75 0 262.47 0 368.8 1920 368.8 1920 0 1458.72 38.81"/></g></g></svg>