<svg xmlns="http://www.w3.org/2000/svg" viewBox="0 0 197 175.14"><defs><style>.cls-1{fill:#4a5656;}</style></defs><title>Asset 95</title><g id="Layer_2" data-name="Layer 2"><g id="레이어_1" data-name="레이어 1"><path class="cls-1" d="M82.62,146.68s44.81-19.43,58,28.46c0,0,12.31-38.44,56.33-27.49,0,0-28.63-24.25-55.39,8.09C141.61,155.74,121.9,118.55,82.62,146.68Z"/><path class="cls-1" d="M25.21,94.1s30.58-13.26,39.62,19.43c0,0,8.4-26.24,38.44-18.76,0,0-19.54-16.56-37.8,5.51C65.47,100.28,52,74.9,25.21,94.1Z"/><path class="cls-1" d="M71.42,52S91.07,43.5,96.89,64.51c0,0,5.4-16.86,24.71-12.06,0,0-12.56-10.64-24.3,3.55C97.3,56,88.65,39.69,71.42,52Z"/><path class="cls-1" d="M0,3.05S13-2.58,16.83,11.3c0,0,3.57-11.14,16.33-8,0,0-8.3-7-16.06,2.35C17.1,5.68,11.39-5.11,0,3.05Z"/></g></g></svg>