<svg xmlns="http://www.w3.org/2000/svg" viewBox="0 0 405.45 313"><defs><style>.cls-1{fill:#c6c6c6;}.cls-1,.cls-2{stroke:#fff;stroke-miterlimit:10;stroke-width:0.25px;opacity:0.77;}.cls-2{fill:none;}</style></defs><title>Asset 62</title><g id="Layer_2" data-name="Layer 2"><g id="레이어_1" data-name="레이어 1"><path d="M0,313S55.45,190.75,69.31,175.64,93.57,164,110.89,188.25s46.61,14.06,48.52-6.93c3.46-38.12-1.49-75.44,1-108.71,2.12-28.4,19.67-62,52.39-62.26,30.07-.27,50.71,26,64.44,49.68,38.12,65.84,110.89,218.32,128.22,253Z"/><path d="M160.86,98.12l-1,.58Q154,101.92,148.17,105c-5.87,3.09-11.79,6.1-17.81,8.88-4.89,2.26-10,4.69-15.27,5.88a17.83,17.83,0,0,1-2.51.35c-2.26.15-4.44-1.84-6.46-2.77a42.76,42.76,0,0,0-15.55-3.84c-2.48-.13-5-.28-7.33.66-1.15.46-2.8,1.24-3,2.63-.32,2,2.44,3.36,4.1,3.31,2.22-.06,4.36-.52,6.6-.46a28.9,28.9,0,0,1,7.33,1.16,11.57,11.57,0,0,1,4.2,2,7.12,7.12,0,0,1,2.06,2.93,3.16,3.16,0,0,1,.19,2,2.8,2.8,0,0,1-1.87,1.69,11.31,11.31,0,0,1-4.26.23,35.92,35.92,0,0,0-12,.55c-3.24.8-7.28,2.29-8.85,5.46a2.3,2.3,0,0,0-.16,2.18,2.08,2.08,0,0,0,1.22.79,6.36,6.36,0,0,0,4.44-.63,25.76,25.76,0,0,1,4.59-1.53,37.93,37.93,0,0,1,6.1-.84c1-.06,2-.05,3.08-.11a8.09,8.09,0,0,1,2.82.05,2.44,2.44,0,0,1,1.78,1.69A2.54,2.54,0,0,1,99.82,140a10.31,10.31,0,0,1-3.38.39A18,18,0,0,0,89,142.29c-1,.5-2,.82-3,1.39a18.38,18.38,0,0,0-3.14,2.49,5.89,5.89,0,0,0-1.72,4.59,2.92,2.92,0,0,0,2.58,2.54c1.66.27,3.07-1,4.17-2.05,2.8-2.8,8-4.56,11.74-5.74,1.93-.62,4-.82,5.92-1.46,2-.71,3.46-1.43,5.67-.41a11.33,11.33,0,0,1,4.52,4.38c1.15,1.79,2.07,3.72,3.35,5.42a16.43,16.43,0,0,0,5.75,4.82,6.12,6.12,0,0,0,4.91.66c5-2-1.79-8-3.3-10.21-1.66-2.36-5.53-7.28-4-10.43,1.83-3.65,0-5.48,3.65-5.48h3.65L166.34,131Z"/><path d="M285.08,108.35c.2-.43.42-.85.63-1.28q3.56-7.2,7.29-14.31c3.73-7.11,7.56-14.17,11.65-21.07,3.33-5.61,6.74-11.52,11.2-16.32a20.19,20.19,0,0,1,2.27-2.07c2.14-1.7,5.69-1.2,8.34-1.65a51.79,51.79,0,0,0,18.14-6.8c2.57-1.57,5.17-3.14,6.86-5.68.83-1.25,1.94-3.16,1.2-4.7-1.07-2.23-4.74-1.69-6.36-.51-2.18,1.59-4,3.51-6.27,5a34.44,34.44,0,0,1-8.1,3.86,13.88,13.88,0,0,1-5.59.83,8.62,8.62,0,0,1-4.06-1.51,3.88,3.88,0,0,1-1.6-1.92,3.39,3.39,0,0,1,.71-3,13.3,13.3,0,0,1,4.09-3.15,43.18,43.18,0,0,0,11.6-8.77c2.69-3,5.69-7.27,5.08-11.51a2.79,2.79,0,0,0-1.34-2.29,2.49,2.49,0,0,0-1.76,0,7.61,7.61,0,0,0-4,3.67,30.21,30.21,0,0,1-3.53,4.66,45.05,45.05,0,0,1-5.5,5c-1,.76-2,1.46-3,2.22A9.67,9.67,0,0,1,320.19,29a2.91,2.91,0,0,1-2.92-.47,3.06,3.06,0,0,1-.06-3.81,12.38,12.38,0,0,1,3.1-2.7,21.54,21.54,0,0,0,6.08-7c.63-1.17,1.49-2.22,2-3.43a21.46,21.46,0,0,0,1.42-4.64,7.14,7.14,0,0,0-1.43-5.77A3.52,3.52,0,0,0,324.09.4c-1.84.86-2.42,3-2.76,4.89-.87,4.73-4.89,10.08-7.77,13.79-1.5,1.93-3.46,3.57-4.89,5.51-1.56,2.11-2.48,3.79-5.38,4.28a13.75,13.75,0,0,1-7.51-1.28c-2.37-1-4.62-2.3-7.06-3.13a19.87,19.87,0,0,0-9.05-.89c-2,.28-4.2,1-5.35,2.71-3.61,5.42,7.32,6.82,10.31,7.94,3.27,1.23,10.51,3.51,11.1,7.74.69,4.9,3.76,5.47.12,8l-3.64,2.5L257.06,79.24Z"/><ellipse class="cls-1" cx="231.65" cy="81.25" rx="2.5" ry="5"/><line class="cls-2" x1="231.83" y1="65.54" x2="231.83" y2="96.55"/><line class="cls-2" x1="234.44" y1="65.73" x2="229.29" y2="96.31"/><line class="cls-2" x1="236.99" y1="66.35" x2="226.83" y2="95.65"/><line class="cls-2" x1="239.4" y1="67.38" x2="224.51" y2="94.59"/><line class="cls-2" x1="241.6" y1="68.8" x2="222.39" y2="93.15"/><line class="cls-2" x1="243.54" y1="70.57" x2="220.55" y2="91.39"/><line class="cls-2" x1="245.15" y1="72.63" x2="219.03" y2="89.35"/><line class="cls-2" x1="246.4" y1="74.94" x2="217.86" y2="87.08"/><line class="cls-2" x1="247.25" y1="77.42" x2="217.09" y2="84.64"/><line class="cls-2" x1="247.67" y1="80" x2="216.73" y2="82.12"/><line class="cls-2" x1="247.66" y1="82.62" x2="216.8" y2="79.57"/><line class="cls-2" x1="247.22" y1="85.2" x2="217.29" y2="77.06"/><line class="cls-2" x1="246.35" y1="87.68" x2="218.19" y2="74.68"/><line class="cls-2" x1="245.08" y1="89.97" x2="219.48" y2="72.47"/><line class="cls-2" x1="243.45" y1="92.02" x2="221.11" y2="70.51"/><line class="cls-2" x1="241.5" y1="93.77" x2="223.05" y2="68.85"/><line class="cls-2" x1="239.29" y1="95.18" x2="225.23" y2="67.53"/><line class="cls-2" x1="236.88" y1="96.19" x2="227.61" y2="66.6"/><line class="cls-2" x1="234.33" y1="96.8" x2="230.1" y2="66.07"/><ellipse class="cls-1" cx="183.13" cy="82.58" rx="2.5" ry="5"/><line class="cls-2" x1="183.3" y1="66.86" x2="183.3" y2="97.88"/><line class="cls-2" x1="185.92" y1="67.05" x2="180.76" y2="97.63"/><line class="cls-2" x1="188.46" y1="67.67" x2="178.3" y2="96.97"/><line class="cls-2" x1="190.87" y1="68.71" x2="175.98" y2="95.91"/><line class="cls-2" x1="193.07" y1="70.13" x2="173.87" y2="94.48"/><line class="cls-2" x1="195.01" y1="71.89" x2="172.02" y2="92.72"/><line class="cls-2" x1="196.62" y1="73.96" x2="170.5" y2="90.67"/><line class="cls-2" x1="197.87" y1="76.26" x2="169.33" y2="88.4"/><line class="cls-2" x1="198.72" y1="78.74" x2="168.56" y2="85.97"/><line class="cls-2" x1="199.15" y1="81.33" x2="168.21" y2="83.44"/><line class="cls-2" x1="199.14" y1="83.95" x2="168.28" y2="80.89"/><line class="cls-2" x1="198.69" y1="86.53" x2="168.77" y2="78.39"/><line class="cls-2" x1="197.82" y1="89" x2="169.67" y2="76"/><line class="cls-2" x1="196.56" y1="91.3" x2="170.95" y2="73.8"/><line class="cls-2" x1="194.93" y1="93.35" x2="172.59" y2="71.84"/><line class="cls-2" x1="192.98" y1="95.1" x2="174.52" y2="70.18"/><line class="cls-2" x1="190.77" y1="96.5" x2="176.71" y2="68.86"/><line class="cls-2" x1="188.35" y1="97.52" x2="179.08" y2="67.92"/><line class="cls-2" x1="185.8" y1="98.12" x2="181.58" y2="67.4"/></g></g></svg>