<svg xmlns="http://www.w3.org/2000/svg" viewBox="0 0 158 98.18"><defs><style>.cls-1{fill:#050505;}.cls-2{fill:#fffdfd;}</style></defs><g id="레이어_2" data-name="레이어 2"><g id="레이어_1-2" data-name="레이어 1"><rect class="cls-1" width="158" height="81.39" rx="26.16"/><polygon class="cls-1" points="115.99 98.18 128.47 76.55 103.5 76.55 115.99 98.18"/><path class="cls-2" d="M39.39,25.43c0,.41,0,.95,0,1.6s0,1.39-.07,2.22,0,1.73-.09,2.69-.06,2-.07,3a12.65,12.65,0,0,1,1.8-.87l2.21-.92c.77-.33,1.54-.69,2.31-1.07a15,15,0,0,0,2.12-1.27,20.6,20.6,0,0,0,3.55-3.26,4.54,4.54,0,0,0,1.18-2.72,2.12,2.12,0,0,0-.17-.88,3.23,3.23,0,0,0-.4-.65A5.89,5.89,0,0,0,50,22.73a14.91,14.91,0,0,0-2.9-.24,20.77,20.77,0,0,0-3.23.25c-1.09.16-2.13.37-3.13.62s-1.95.53-2.82.82-1.65.57-2.33.83-1.22.49-1.64.69-.66.32-.75.35a1.58,1.58,0,0,0-.3.17.56.56,0,0,1-.32.12.48.48,0,0,1-.47-.26.87.87,0,0,1-.08-.55.65.65,0,0,1-.34-.3,2.1,2.1,0,0,1-.2-.48,2.37,2.37,0,0,1-.11-.5,3,3,0,0,1,0-.38,1.2,1.2,0,0,1,.45-.92,4.4,4.4,0,0,1,1.18-.72l.79-.36q.62-.29,1.56-.66c.64-.25,1.35-.52,2.15-.8s1.64-.53,2.54-.76,1.83-.43,2.78-.59a18.32,18.32,0,0,1,2.84-.23c.67,0,1.39.06,2.15.12a13.32,13.32,0,0,1,2.26.37,9.07,9.07,0,0,1,2.09.81,5.05,5.05,0,0,1,1.65,1.4A5.15,5.15,0,0,1,55,23.08a4.67,4.67,0,0,1,.56,2.35,8.25,8.25,0,0,1-.17,1.73,6.61,6.61,0,0,1-.3,1.08,10.24,10.24,0,0,1-1.73,2.9,12.7,12.7,0,0,1-2.26,2.1,15.5,15.5,0,0,1-2.43,1.46c-.81.4-1.55.73-2.21,1,.73,0,1.48,0,2.25.11a14.77,14.77,0,0,1,2.29.37,10.44,10.44,0,0,1,2.17.79,8.57,8.57,0,0,1,1.92,1.33,10.53,10.53,0,0,1,1,1.35,8.39,8.39,0,0,1,.71,1.47,5,5,0,0,1,.33,1.83,6.12,6.12,0,0,1,.16,1.43,15.55,15.55,0,0,1-.16,2,10.3,10.3,0,0,1-.65,2.31A11.3,11.3,0,0,1,55,51.44a15.63,15.63,0,0,1-2.85,2.74,17.2,17.2,0,0,1-4.37,2.32,18.3,18.3,0,0,1-3,.94,11.94,11.94,0,0,1-2.44.28,6.57,6.57,0,0,1-1.13-.1,6.67,6.67,0,0,1-1.15-.3,3.05,3.05,0,0,1-.88-.48.85.85,0,0,1-.35-.68.35.35,0,0,0-.13-.29l-.29-.22a2.41,2.41,0,0,1-.3.7,1.83,1.83,0,0,1-.35.41,1.34,1.34,0,0,1-.41.26.27.27,0,0,1-.18-.05.32.32,0,0,1-.24-.21,3,3,0,0,1-.27.43.43.43,0,0,1-.33.22h-.22c-.09,0-.19-.13-.28-.35a5.92,5.92,0,0,1-.29-1.16c-.09-.54-.18-1.37-.26-2.47s-.14-2.52-.19-4.27S35,45.22,35,42.6V39.26c0-1.17,0-2.32,0-3.45s0-2.23.1-3.28.1-2,.18-2.85a20.12,20.12,0,0,1,.3-2.16A2.62,2.62,0,0,1,36,26.34a2.09,2.09,0,0,1,.74-.5l1.06-.42c.34-.13.65-.24.91-.32s.37-.13.33-.16a.5.5,0,0,1,.22.16A.48.48,0,0,1,39.39,25.43Zm.91,13.41a1.2,1.2,0,0,1-.54-.21c-.23-.14-.49-.31-.76-.5-.06,1.46-.11,2.91-.16,4.37s-.1,2.84-.16,4.14-.09,2.52-.11,3.63,0,2,0,2.78a10.78,10.78,0,0,1,.67-.95c.25-.3.48-.57.72-.81a4.23,4.23,0,0,1,.65-.55.94.94,0,0,1,.45-.21l.11,0a2.2,2.2,0,0,1,.23.21l.1,0a.23.23,0,0,1,.11,0,.33.33,0,0,1,.31.18,1.6,1.6,0,0,1,.1.7.84.84,0,0,1-.15.5,3.06,3.06,0,0,1-.35.37l-.39.33a1.12,1.12,0,0,0-.28.31l.42.08.65,0,.95-.09a9.62,9.62,0,0,0,1.83-.39,17.75,17.75,0,0,0,2.59-1,20.57,20.57,0,0,0,3.2-2,12.54,12.54,0,0,0,2.39-2.29,11.44,11.44,0,0,0,1.39-2.2,7.88,7.88,0,0,0,.64-1.8A7.08,7.08,0,0,0,55,42.29a3.12,3.12,0,0,0-.82-1.75,6.08,6.08,0,0,0-1.9-1.37,11.56,11.56,0,0,0-2.77-.88,17.4,17.4,0,0,0-3.4-.31,15.47,15.47,0,0,0-2.16.13c-.62.09-1.17.18-1.65.3l-1.2.3A3.76,3.76,0,0,1,40.3,38.84Z"/><path class="cls-2" d="M94.29,34.42c0,.19,0,.37,0,.54v.55a22.63,22.63,0,0,1-.77,5.77,26.14,26.14,0,0,1-2.16,5.62A22.69,22.69,0,0,1,88,51.74a15.39,15.39,0,0,1-4.47,3.39,13.3,13.3,0,0,1-3.14,1,17,17,0,0,1-3.4.34,16.66,16.66,0,0,1-2.46-.18,21.72,21.72,0,0,1-2.3-.47,13,13,0,0,1-4.38-2.17,15.64,15.64,0,0,1-3.31-3.39,16.7,16.7,0,0,1-2.17-4.14,15.58,15.58,0,0,1-.92-4.4c0-.21,0-.42,0-.63s0-.41,0-.62A20.31,20.31,0,0,1,62,35.68a24.86,24.86,0,0,1,1.63-4.6A26.2,26.2,0,0,1,66,27a22.65,22.65,0,0,1,2.91-3.38,16.45,16.45,0,0,1,3.17-2.37,9.19,9.19,0,0,1,3.18-1.16l.27,0h.15s.06,0,.13,0a5.5,5.5,0,0,1,.85,0,.76.76,0,0,1,.32.08c0,.05,0,.09,0,.1l-.19.11-.12,0s0,0,0,.08,0,.17-.11.24l-.2.15s0,.06,0,.08l0,0s0,0,0,0a.26.26,0,0,1-.12.08,7.08,7.08,0,0,1-.66.38,6.65,6.65,0,0,0-.72.4,13.56,13.56,0,0,0-3.29,3.48,22.82,22.82,0,0,0-2.4,4.7,30.39,30.39,0,0,0-1.45,5.42A32.79,32.79,0,0,0,67.19,41v.71c0,.23,0,.47,0,.71a13.9,13.9,0,0,0,.37,2.45,17.44,17.44,0,0,0,.84,2.63A16.9,16.9,0,0,0,69.72,50a11.63,11.63,0,0,0,1.75,2.17,8.57,8.57,0,0,0,2.21,1.53,6.46,6.46,0,0,0,2.68.61,8.74,8.74,0,0,0,3.92-.7,10.55,10.55,0,0,0,3.08-2.09,13.54,13.54,0,0,0,2.3-3,22.47,22.47,0,0,0,1.6-3.5,28.75,28.75,0,0,0,1.49-6.72c0-.36.06-.73.08-1.1s0-.74,0-1.08A18.68,18.68,0,0,0,88,30.18a14.15,14.15,0,0,0-2.31-4.39A10.42,10.42,0,0,0,82.36,23,9.2,9.2,0,0,0,78.49,22a3.91,3.91,0,0,0-.5,0h-.58l-.52,0a.76.76,0,0,1-.27,0,1.66,1.66,0,0,1-.42-.23l0,0a.41.41,0,0,1,.1-.31l.26-.13.25-.12L77,21c0-.05,0-.09,0-.11s-.08-.1-.08-.23a.21.21,0,0,1,.08-.24q.13-.12.18-.12l.33-.09h.24a3,3,0,0,0,.43-.07,1.4,1.4,0,0,0,.31-.09l.33-.09a3.55,3.55,0,0,1,.49-.07,2.78,2.78,0,0,1,.52-.05,8.32,8.32,0,0,0,.86-.05,13.3,13.3,0,0,1,4.09.51,11.4,11.4,0,0,1,3.35,1.6,11.93,11.93,0,0,1,2.61,2.45,15.08,15.08,0,0,1,1.89,3.07,17.71,17.71,0,0,1,1.19,3.44A20,20,0,0,1,94.29,34.42Z"/><path class="cls-2" d="M116.06,45.8a14.53,14.53,0,0,1-.79,4.91,11.37,11.37,0,0,1-2.16,3.71A9.56,9.56,0,0,1,110,56.79a9,9,0,0,1-3.79.83,9.39,9.39,0,0,1-1.82-.19,9.24,9.24,0,0,1-2-.64,10,10,0,0,1-1.93-1.17,7.92,7.92,0,0,1-1.66-1.79,8.87,8.87,0,0,1-1.16-2.5,11.06,11.06,0,0,1-.4-3.3,13.49,13.49,0,0,1,.52-3.88A14.09,14.09,0,0,1,99.08,41a11.28,11.28,0,0,1,1.86-2.4A14.75,14.75,0,0,1,103,36.9a9.36,9.36,0,0,1,2-1,7.08,7.08,0,0,1,1.66-.39c.24,0,.35,0,.32.08a.61.61,0,0,1-.19.24,1.34,1.34,0,0,0-.27.26q-.12.12.09.15a2.45,2.45,0,0,1,.3.11,1.15,1.15,0,0,1,.24.13l.21-.24a.59.59,0,0,1,.35-.13,1,1,0,0,1,.3,0,.68.68,0,0,0,.21,0c.05,0,.08,0,.1-.16s.1-.3.2-.32a2.93,2.93,0,0,1,.66,0,3.93,3.93,0,0,1,1,.18,6.16,6.16,0,0,1,1.4.63,8.21,8.21,0,0,1,1.56,1.18,7.91,7.91,0,0,1,1.45,1.87,10.56,10.56,0,0,1,1.08,2.69A13.93,13.93,0,0,1,116.06,45.8Zm-9.38-7.61a7.94,7.94,0,0,0-1.79,1.48,11.45,11.45,0,0,0-1.6,2.15,12.46,12.46,0,0,0-1.16,2.73,11.4,11.4,0,0,0-.44,3.17A15.36,15.36,0,0,0,102,51a8.39,8.39,0,0,0,.95,2.48A4.81,4.81,0,0,0,104.48,55a3.72,3.72,0,0,0,2,.56,4.05,4.05,0,0,0,2-.57,5.53,5.53,0,0,0,1.78-1.71,9.75,9.75,0,0,0,1.26-2.83,14.48,14.48,0,0,0,.48-3.93,10.42,10.42,0,0,0-.6-3.79,10,10,0,0,0-1.34-2.48,5.32,5.32,0,0,0-1.42-1.35,2.77,2.77,0,0,0-.83-.41h-.56A1.38,1.38,0,0,1,106.68,38.19Z"/><path class="cls-2" d="M125.15,54a4.88,4.88,0,0,1,0,.84,4.81,4.81,0,0,1-.2.93,3,3,0,0,1-.38.79A1,1,0,0,1,124,57a6.77,6.77,0,0,1-.82.25,2.87,2.87,0,0,1-.66.09,1.87,1.87,0,0,1-.87-.18,7.73,7.73,0,0,1-.71-.42,2.5,2.5,0,0,1-.87-.78,1.66,1.66,0,0,1-.35-1,3,3,0,0,1,.16-.89,8.11,8.11,0,0,1,.42-1,6,6,0,0,1,.55-.93,2.15,2.15,0,0,1,.55-.57,1.81,1.81,0,0,1,.72-.24l.51,0a2.59,2.59,0,0,1,1.85.61A2.9,2.9,0,0,1,125.15,54Zm-.21-32.69c-.1.61-.2,1.36-.28,2.26s-.16,1.91-.21,3-.1,2.29-.13,3.56,0,2.56,0,3.89c0,1,0,2,0,3s0,2,.09,3c0,.3,0,.78,0,1.45s0,1.49,0,2.48c0,.57,0,1.14,0,1.7s0,1.07,0,1.52,0,.84-.06,1.16a2.71,2.71,0,0,1-.09.58,2.23,2.23,0,0,1-.51.71c-.17.13-.3.18-.4.15s-.14-.08-.21-.24-.09-.06-.26,0a1.46,1.46,0,0,1-.55,0,.32.32,0,0,1-.26-.13.41.41,0,0,0-.39-.08.33.33,0,0,1-.28-.2,1.37,1.37,0,0,1-.18-.58c0-.12,0-.46-.07-1s-.06-1.28-.1-2.11-.09-1.75-.15-2.77-.1-2-.14-3-.08-2-.1-2.89,0-1.71,0-2.37,0-1.54,0-2.45-.07-1.85-.11-2.81-.07-1.92-.1-2.88,0-1.87,0-2.72c0-.55,0-1.07,0-1.56a12.85,12.85,0,0,1,.09-1.32,1,1,0,0,0,0-.22.27.27,0,0,1,.06-.17,1,1,0,0,1,.25-.18,4.13,4.13,0,0,1,.57-.26,6.77,6.77,0,0,1,.86-.38,1.83,1.83,0,0,1,.62-.12,1,1,0,0,1,.6.21.58.58,0,0,0,.34.14,1,1,0,0,0,.3,0l.27-.06a.57.57,0,0,1,.26,0,.68.68,0,0,1,.36.25,1.14,1.14,0,0,1,.16.71,3,3,0,0,1,0,.42C125,21,125,21.13,124.94,21.32Z"/></g></g></svg>