<svg xmlns="http://www.w3.org/2000/svg" viewBox="0 0 62 121.37"><defs><style>.cls-1{fill:#fff;}</style></defs><title>Asset 10</title><g id="Layer_2" data-name="Layer 2"><g id="레이어_1" data-name="레이어 1"><polygon class="cls-1" points="51.13 11.4 51.13 104.04 0 104.04 29.93 41.2 0 41.13 33.29 9.41 57.08 0 51.13 11.4"/><path class="cls-1" d="M62,26.32c0,11.07-7.58-3.76-16.88-3.76S28.33,37.39,28.33,26.32s7.54-20,16.83-20S62,15.25,62,26.32Z"/><polyline class="cls-1" points="39.26 104.04 39.31 118.99 44.92 117.88 48.64 121.37 36.34 121.37 36.34 104.04"/><polyline class="cls-1" points="26.97 104.04 27.02 118.99 32.63 117.88 36.34 121.37 24.05 121.37 24.05 104.04"/><ellipse class="cls-1" cx="50.2" cy="27.52" rx="8.46" ry="12.86"/></g></g></svg>