<svg xmlns="http://www.w3.org/2000/svg" viewBox="0 0 98.52 87.07"><defs><style>.cls-1{opacity:0.83;}.cls-2{fill:#7e8384;}.cls-3{font-size:16.88px;fill:#141414;font-family:Alatsi-Regular, Alatsi;}</style></defs><title>Asset 93</title><g id="Layer_2" data-name="Layer 2"><g id="레이어_1" data-name="레이어 1"><g class="cls-1"><path class="cls-2" d="M7.47,76.44C14.83,84.17,24.33,87.75,35.75,87a33.38,33.38,0,0,0,21.42-9.45,1.07,1.07,0,0,1,1.42-.22C69.81,82.12,82.78,80,91.23,71.87a22.6,22.6,0,0,0,7.19-14.49,21.61,21.61,0,0,0-2.88-13.06,25.51,25.51,0,0,0-9.85-9.61,29.26,29.26,0,0,0-14-3.8,1.63,1.63,0,0,1-1.61-1c-2.47-4.46-6.53-7.14-12-8-6.7-1-13.38,1.86-16.74,7.1a1.25,1.25,0,0,1-1.57.62,35.25,35.25,0,0,0-13.54-.06A33.41,33.41,0,0,0,8.57,38.59,26.92,26.92,0,0,0,0,57.8,26.54,26.54,0,0,0,7.47,76.44Z"/><path class="cls-2" d="M69.81,21.76c4.47,0,8.16-3.25,8.19-7.21s-3.71-7.28-8.21-7.28-8.15,3.25-8.21,7.22S65.33,21.77,69.81,21.76Z"/><path class="cls-2" d="M88.14,10.87a5.9,5.9,0,0,0,6.29-5.34c.12-2.89-2.65-5.44-6-5.53s-6.18,2.31-6.27,5.35S84.76,10.78,88.14,10.87Z"/></g><text class="cls-3" transform="translate(28.35 60.4)">HTML</text></g></g></svg>