<svg xmlns="http://www.w3.org/2000/svg" viewBox="0 0 99.52 88.07"><defs><style>.cls-1{opacity:0.83;}.cls-2,.cls-3,.cls-4{fill:none;stroke:#fff;stroke-miterlimit:10;}.cls-2{stroke-dasharray:12.01 12.01;}.cls-3{stroke-dasharray:12.12 12.12;}.cls-4{stroke-dasharray:9.08 9.08;}.cls-5{fill:#141414;}</style></defs><g id="레이어_2" data-name="레이어 2"><g id="레이어_1-2" data-name="레이어 1"><g class="cls-1"><path class="cls-2" d="M8,76.94c7.36,7.73,16.86,11.31,28.28,10.52A33.38,33.38,0,0,0,57.67,78a1.08,1.08,0,0,1,1.42-.22c11.22,4.83,24.19,2.69,32.64-5.42a22.6,22.6,0,0,0,7.19-14.49A21.61,21.61,0,0,0,96,44.82a25.51,25.51,0,0,0-9.85-9.61,29.26,29.26,0,0,0-14-3.8,1.63,1.63,0,0,1-1.61-1c-2.47-4.46-6.53-7.14-12-8-6.7-1-13.38,1.86-16.74,7.1a1.25,1.25,0,0,1-1.57.62,35.25,35.25,0,0,0-13.54-.06A33.41,33.41,0,0,0,9.07,39.09,26.92,26.92,0,0,0,.5,58.3,26.54,26.54,0,0,0,8,76.94Z"/><path class="cls-3" d="M70.31,22.26c4.47,0,8.16-3.25,8.19-7.21s-3.71-7.28-8.21-7.28S62.14,11,62.08,15,65.83,22.27,70.31,22.26Z"/><path class="cls-4" d="M88.64,11.37A5.9,5.9,0,0,0,94.93,6c.12-2.89-2.65-5.44-6-5.53s-6.18,2.31-6.27,5.35S85.26,11.29,88.64,11.37Z"/></g><path class="cls-5" d="M38.52,49.13V60.9H36.33v-5H32.45v5H30.27V49.13h2.18v4.92h3.88V49.13Z"/><path class="cls-5" d="M47.86,51H45.14V60.9H43V51H40.25V49.13h7.61Z"/><path class="cls-5" d="M59.42,48.93v12H57.33v-5l.08-2-.6.91-2.32,2.72-2.31-2.72-.6-.91.09,2v5H49.58v-12h.17l4.76,5.61,4.73-5.61Z"/><path class="cls-5" d="M67.91,59V60.9H62.26V49.13H64.4V59Z"/></g></g></svg>