<svg xmlns="http://www.w3.org/2000/svg" viewBox="0 0 95.47 87.2"><defs><style>.cls-1{opacity:0.83;}.cls-2{fill:#7e8384;}.cls-3{fill:#141414;}</style></defs><g id="레이어_2" data-name="레이어 2"><g id="레이어_1-2" data-name="레이어 1"><g class="cls-1"><path class="cls-2" d="M7.24,10.64C14.37,2.9,23.58-.69,34.65.11A31.8,31.8,0,0,1,55.4,9.57a1,1,0,0,0,1.37.22,28.43,28.43,0,0,1,31.64,5.43,23,23,0,0,1,7,14.51,22.27,22.27,0,0,1-2.79,13.08A25.16,25.16,0,0,1,83,52.44a27.65,27.65,0,0,1-13.57,3.81,1.55,1.55,0,0,0-1.56,1,15.17,15.17,0,0,1-11.66,8A16.19,16.19,0,0,1,40,58.07a1.19,1.19,0,0,0-1.52-.62,33.12,33.12,0,0,1-13.12,0A32,32,0,0,1,8.31,48.56,27.43,27.43,0,0,1,0,29.31,27,27,0,0,1,7.24,10.64Z"/><path class="cls-2" d="M67.65,65.4c4.33,0,7.9,3.26,7.93,7.23s-3.59,7.29-8,7.29-7.9-3.26-7.95-7.23S63.3,65.39,67.65,65.4Z"/><path class="cls-2" d="M85.41,76.32a5.76,5.76,0,0,1,6.09,5.35c.12,2.89-2.56,5.44-5.82,5.53a5.75,5.75,0,0,1-6.08-5.36C79.52,78.89,82.13,76.4,85.41,76.32Z"/></g><path class="cls-3" d="M14.19,37.92a2.58,2.58,0,0,1-.8-.3L14.05,36a1.33,1.33,0,0,0,.45.4,1.1,1.1,0,0,0,.54.15,1.7,1.7,0,0,0,.59-.09.79.79,0,0,0,.4-.39,1.84,1.84,0,0,0,.17-.91V28.26H18V35a3.49,3.49,0,0,1-.67,2.25,2.62,2.62,0,0,1-2.19.84A4.11,4.11,0,0,1,14.19,37.92Z"/><path class="cls-3" d="M24.62,36.46H21.19l-.5,1.39H18.76l4.06-9.76H23L27,37.85H25.16Zm-.51-1.34-1-2.61-.24-.77-.22.77-1,2.61Z"/><path class="cls-3" d="M33.87,28.26l-3.8,9.64h-.22L26,28.26H28l1.51,4.22L30,34.09l.53-1.61L32,28.26Z"/><path class="cls-3" d="M38.74,36.46H35.31l-.51,1.39H32.88l4.06-9.76h.13l4.08,9.76H39.28Zm-.51-1.34-1-2.61L37,31.74l-.22.77-1,2.61Z"/><path class="cls-3" d="M43.2,37.85a4.09,4.09,0,0,1-1-.39,2.74,2.74,0,0,1-.68-.51l.7-1.44a2.45,2.45,0,0,0,.49.44,3.19,3.19,0,0,0,.73.4,2.26,2.26,0,0,0,.83.16,1.41,1.41,0,0,0,.92-.3,1,1,0,0,0,.36-.84,1.13,1.13,0,0,0-.16-.61A2.17,2.17,0,0,0,45,34.3c-.19-.13-.47-.32-.86-.55s-.94-.6-1.24-.82a3.11,3.11,0,0,1-.77-.9,2.56,2.56,0,0,1-.33-1.34,2.7,2.7,0,0,1,.33-1.35,2.27,2.27,0,0,1,1-.92,3.31,3.31,0,0,1,1.54-.33A3.51,3.51,0,0,1,47,29l-.77,1.4a2,2,0,0,0-.36-.36,2.31,2.31,0,0,0-.56-.34,1.81,1.81,0,0,0-.69-.14,1,1,0,0,0-1.12,1.08,1.1,1.1,0,0,0,.18.62,1.74,1.74,0,0,0,.46.48c.19.14.44.31.76.51a14.14,14.14,0,0,1,1.34.86,3,3,0,0,1,.77.89,2.59,2.59,0,0,1,.32,1.33A2.8,2.8,0,0,1,47,36.76a2.31,2.31,0,0,1-1,.92,3.63,3.63,0,0,1-1.57.32A4.72,4.72,0,0,1,43.2,37.85Z"/><path class="cls-3" d="M50.32,37.45a3.88,3.88,0,0,1-1.42-1.71,6.57,6.57,0,0,1-.54-2.82,6,6,0,0,1,.53-2.61,3.93,3.93,0,0,1,1.46-1.65,3.81,3.81,0,0,1,2-.57,4.38,4.38,0,0,1,1.18.14,2.91,2.91,0,0,1,.76.31,3.28,3.28,0,0,1,.53.41l-.78,1.44a3.66,3.66,0,0,0-.42-.4,1.47,1.47,0,0,0-.47-.23,2.54,2.54,0,0,0-.73-.08,1.79,1.79,0,0,0-1.18.4,2.59,2.59,0,0,0-.76,1.11,4.87,4.87,0,0,0-.26,1.64,6.29,6.29,0,0,0,.27,2A2.71,2.71,0,0,0,51.28,36a1.5,1.5,0,0,0,1,.42,3,3,0,0,0,1.08-.18,1.76,1.76,0,0,0,.72-.43l.76,1.36a3.83,3.83,0,0,1-1,.58,4.39,4.39,0,0,1-1.61.23A3.52,3.52,0,0,1,50.32,37.45Z"/><path class="cls-3" d="M60.47,37.85,58,34.38v3.47H56.25V28.26h2.67q3.42,0,3.42,3a4.37,4.37,0,0,1-.22,1.34,3.1,3.1,0,0,1-.72,1.17,2.67,2.67,0,0,1-1.28.7l2.48,3.33Zm-1.74-4.34a1.68,1.68,0,0,0,1.63-1,2.41,2.41,0,0,0,.22-1,1.61,1.61,0,0,0-1.89-1.85H58v3.88Z"/><path class="cls-3" d="M64.15,28.26h1.76v9.59H64.15Z"/><path class="cls-3" d="M73.33,29a3.15,3.15,0,0,1,1,2.59,4.39,4.39,0,0,1-.37,1.82,3.08,3.08,0,0,1-1.15,1.33,3.49,3.49,0,0,1-2,.51H70v2.57H68.18V28.26h2.58A3.92,3.92,0,0,1,73.33,29Zm-1.28,4.26a2.42,2.42,0,0,0,.46-1.58,3.2,3.2,0,0,0-.18-1.17,1.29,1.29,0,0,0-.59-.67,2.27,2.27,0,0,0-1.09-.22H70v4.18h.73A1.69,1.69,0,0,0,72.05,33.29Z"/><path class="cls-3" d="M81,29.81H78.79v8H77v-8H74.8V28.26H81Z"/></g></g></svg>