<svg xmlns="http://www.w3.org/2000/svg" viewBox="0 0 95.47 87.2"><defs><style>.cls-1{opacity:0.83;}.cls-2{fill:#7e8384;}.cls-3{font-size:13.76px;fill:#141414;font-family:Alatsi-Regular, Alatsi;}.cls-4{letter-spacing:-0.04em;}</style></defs><title>Asset 91</title><g id="Layer_2" data-name="Layer 2"><g id="레이어_1" data-name="레이어 1"><g class="cls-1"><path class="cls-2" d="M7.24,10.64C14.37,2.9,23.58-.69,34.65.11A31.8,31.8,0,0,1,55.4,9.57a1,1,0,0,0,1.37.22,28.43,28.43,0,0,1,31.64,5.43,23,23,0,0,1,7,14.51,22.27,22.27,0,0,1-2.79,13.08A25.16,25.16,0,0,1,83,52.44a27.65,27.65,0,0,1-13.57,3.81,1.55,1.55,0,0,0-1.56,1,15.17,15.17,0,0,1-11.66,8A16.19,16.19,0,0,1,40,58.07a1.19,1.19,0,0,0-1.52-.62,33.12,33.12,0,0,1-13.12,0A32,32,0,0,1,8.31,48.56,27.43,27.43,0,0,1,0,29.31,27,27,0,0,1,7.24,10.64Z"/><path class="cls-2" d="M67.65,65.4c4.33,0,7.9,3.26,7.93,7.23s-3.59,7.29-8,7.29-7.9-3.26-7.95-7.23S63.3,65.39,67.65,65.4Z"/><path class="cls-2" d="M85.41,76.32a5.76,5.76,0,0,1,6.09,5.35c.12,2.89-2.56,5.44-5.82,5.53a5.75,5.75,0,0,1-6.08-5.36C79.52,78.89,82.13,76.4,85.41,76.32Z"/></g><text class="cls-3" transform="translate(13.49 37.85)">J<tspan class="cls-4" x="5.5" y="0">AV</tspan><tspan x="19.62" y="0">ASCRIPT</tspan></text></g></g></svg>