<svg xmlns="http://www.w3.org/2000/svg" viewBox="0 0 125.53 105.98"><defs><style>.cls-1{opacity:0.83;}.cls-2{fill:none;stroke:#fff;stroke-miterlimit:10;stroke-dasharray:12;}.cls-3{fill:#141414;}</style></defs><g id="레이어_2" data-name="레이어 2"><g id="레이어_1-2" data-name="레이어 1"><g class="cls-1"><path class="cls-2" d="M115.58,92.67c-9.3,9.32-21.3,13.64-35.74,12.68A43,43,0,0,1,52.77,94,1.4,1.4,0,0,0,51,93.7C36.79,99.53,20.4,96.94,9.71,87.16A26.86,26.86,0,0,1,.63,69.69,25.07,25.07,0,0,1,4.28,53.94,31.57,31.57,0,0,1,16.72,42.35a38.28,38.28,0,0,1,17.71-4.58,2.08,2.08,0,0,0,2-1.16c3.12-5.37,8.24-8.6,15.2-9.6,8.47-1.21,16.91,2.25,21.16,8.57a1.6,1.6,0,0,0,2,.74,46.65,46.65,0,0,1,17.11-.06A42.93,42.93,0,0,1,114.2,47C121.35,53.7,124.85,61.58,125,70.2A31.17,31.17,0,0,1,115.58,92.67Z"/><path class="cls-2" d="M36.79,26.74c-5.65,0-10.31-3.92-10.35-8.7s4.69-8.78,10.38-8.77,10.3,3.92,10.37,8.7S42.46,26.76,36.79,26.74Z"/><path class="cls-2" d="M13.62,13.61c-4.26.1-7.78-2.76-7.95-6.45C5.52,3.68,9,.61,13.27.5S21.08,3.29,21.2,7,17.9,13.5,13.62,13.61Z"/></g><path class="cls-3" d="M32.69,74.4a3.81,3.81,0,0,1-1.19-.46l1-2.45a1.94,1.94,0,0,0,.67.6,1.66,1.66,0,0,0,.82.22,2.49,2.49,0,0,0,.87-.13,1.15,1.15,0,0,0,.61-.59,3,3,0,0,0,.25-1.36V59.92h2.68V70a5.3,5.3,0,0,1-1,3.37A4,4,0,0,1,34.1,74.6,6.41,6.41,0,0,1,32.69,74.4Z"/><path class="cls-3" d="M51.78,71.43A5.23,5.23,0,0,1,49.27,74l1.57,2.58-2.38,1.27L46.9,74.54h-.21a5.66,5.66,0,0,1-3.26-.92,5.57,5.57,0,0,1-2-2.58,10.12,10.12,0,0,1-.7-3.94,10.3,10.3,0,0,1,.69-3.93,5.65,5.65,0,0,1,2-2.58,5.58,5.58,0,0,1,3.23-.91A5.72,5.72,0,0,1,50,60.6a5.55,5.55,0,0,1,2,2.59,10.39,10.39,0,0,1,.68,3.91A9.83,9.83,0,0,1,51.78,71.43ZM43.85,70A3.74,3.74,0,0,0,45,71.75a2.62,2.62,0,0,0,1.71.58,2.53,2.53,0,0,0,1.65-.59A4,4,0,0,0,49.49,70,8.9,8.9,0,0,0,49.91,67a7.25,7.25,0,0,0-.86-3.88,2.73,2.73,0,0,0-2.42-1.33,2.6,2.6,0,0,0-2.34,1.33,7.39,7.39,0,0,0-.83,3.9A9.52,9.52,0,0,0,43.85,70Z"/><path class="cls-3" d="M56.2,73.3c-.93-.83-1.39-2.21-1.39-4.14V59.92h2.68v9.53a2.85,2.85,0,0,0,.72,2.24,2.49,2.49,0,0,0,1.67.62,2.36,2.36,0,0,0,1.65-.61,2.92,2.92,0,0,0,.68-2.25V59.92h2.68v9.24q0,2.9-1.35,4.14a5.08,5.08,0,0,1-3.62,1.26A5.31,5.31,0,0,1,56.2,73.3Z"/><path class="cls-3" d="M75.84,72v2.33H67.92V59.92h7.5v2.25H70.5v3.36h3.91v2.18H70.5V72Z"/><path class="cls-3" d="M84.72,74.29,81,69.1v5.19H78.41V59.92h4q5.11,0,5.11,4.58a6.21,6.21,0,0,1-.33,2,4.51,4.51,0,0,1-1.08,1.75,3.84,3.84,0,0,1-1.91,1l3.71,5Zm-2.6-6.49a2.64,2.64,0,0,0,1.5-.42,2.6,2.6,0,0,0,.94-1.11,3.51,3.51,0,0,0,.32-1.52,3,3,0,0,0-.65-2.1A3,3,0,0,0,82.06,62H81V67.8Z"/><path class="cls-3" d="M95.44,68.67v5.62H92.8v-5.8l-4.54-8.57h2.91l3,6.25,2.89-6.25H100Z"/></g></g></svg>