<svg xmlns="http://www.w3.org/2000/svg" viewBox="0 0 124.53 104.98"><defs><style>.cls-1{opacity:0.83;}.cls-2{fill:#7e8384;}.cls-3{fill:#141414;}</style></defs><g id="레이어_2" data-name="레이어 2"><g id="레이어_1-2" data-name="레이어 1"><g class="cls-1"><path class="cls-2" d="M115.08,92.17c-9.3,9.32-21.3,13.64-35.74,12.68A43,43,0,0,1,52.27,93.46a1.4,1.4,0,0,0-1.79-.26C36.29,99,19.9,96.44,9.21,86.66A26.86,26.86,0,0,1,.13,69.19,25.07,25.07,0,0,1,3.78,53.44,31.57,31.57,0,0,1,16.22,41.85a38.28,38.28,0,0,1,17.71-4.58,2.08,2.08,0,0,0,2-1.16c3.12-5.37,8.24-8.6,15.2-9.6,8.47-1.21,16.91,2.25,21.16,8.57a1.6,1.6,0,0,0,2,.74,46.65,46.65,0,0,1,17.11-.06A42.93,42.93,0,0,1,113.7,46.53c7.15,6.67,10.65,14.55,10.83,23.17A31.17,31.17,0,0,1,115.08,92.17Z"/><path class="cls-2" d="M36.29,26.24c-5.65,0-10.31-3.92-10.35-8.7s4.69-8.78,10.38-8.77,10.3,3.92,10.37,8.7S42,26.26,36.29,26.24Z"/><path class="cls-2" d="M13.12,13.11c-4.26.1-7.78-2.76-7.95-6.45C5,3.18,8.52.11,12.77,0s7.81,2.79,7.93,6.45S17.4,13,13.12,13.11Z"/></g><path class="cls-3" d="M32.19,73.9A3.81,3.81,0,0,1,31,73.44L32,71a1.94,1.94,0,0,0,.67.6,1.66,1.66,0,0,0,.82.22,2.49,2.49,0,0,0,.87-.13,1.15,1.15,0,0,0,.61-.59,3,3,0,0,0,.25-1.36V59.42h2.68V69.48a5.3,5.3,0,0,1-1,3.37A4,4,0,0,1,33.6,74.1,6.41,6.41,0,0,1,32.19,73.9Z"/><path class="cls-3" d="M51.28,70.93a5.23,5.23,0,0,1-2.51,2.57l1.57,2.58L48,77.35,46.4,74h-.21a5.66,5.66,0,0,1-3.26-.92,5.57,5.57,0,0,1-2-2.58,10.12,10.12,0,0,1-.7-3.94,10.3,10.3,0,0,1,.69-3.93,5.65,5.65,0,0,1,2-2.58,5.58,5.58,0,0,1,3.23-.91,5.72,5.72,0,0,1,3.32.92,5.55,5.55,0,0,1,2,2.59,10.39,10.39,0,0,1,.68,3.91A9.83,9.83,0,0,1,51.28,70.93Zm-7.93-1.44a3.74,3.74,0,0,0,1.13,1.76,2.62,2.62,0,0,0,1.71.58,2.53,2.53,0,0,0,1.65-.59A4,4,0,0,0,49,69.46a8.9,8.9,0,0,0,.42-2.93,7.25,7.25,0,0,0-.86-3.88,2.73,2.73,0,0,0-2.42-1.33,2.6,2.6,0,0,0-2.34,1.33,7.39,7.39,0,0,0-.83,3.9A9.52,9.52,0,0,0,43.35,69.49Z"/><path class="cls-3" d="M55.7,72.8c-.93-.83-1.39-2.21-1.39-4.14V59.42H57V69a2.85,2.85,0,0,0,.72,2.24,2.49,2.49,0,0,0,1.67.62A2.36,2.36,0,0,0,61,71.2,2.92,2.92,0,0,0,61.71,69V59.42h2.68v9.24q0,2.9-1.35,4.14a5.08,5.08,0,0,1-3.62,1.26A5.31,5.31,0,0,1,55.7,72.8Z"/><path class="cls-3" d="M75.34,71.46v2.33H67.42V59.42h7.5v2.25H70V65h3.91v2.18H70v4.25Z"/><path class="cls-3" d="M84.22,73.79,80.53,68.6v5.19H77.91V59.42h4Q87,59.42,87,64a6.21,6.21,0,0,1-.33,2,4.51,4.51,0,0,1-1.08,1.75,3.84,3.84,0,0,1-1.91,1l3.71,5Zm-2.6-6.49a2.64,2.64,0,0,0,1.5-.42,2.6,2.6,0,0,0,.94-1.11,3.51,3.51,0,0,0,.32-1.52,3,3,0,0,0-.65-2.1,3,3,0,0,0-2.17-.67h-1V67.3Z"/><path class="cls-3" d="M94.94,68.17v5.62H92.3V68l-4.54-8.57h2.91l3,6.25,2.89-6.25h2.89Z"/></g></g></svg>