<svg xmlns="http://www.w3.org/2000/svg" viewBox="0 0 124.53 104.98"><defs><style>.cls-1{opacity:0.83;}.cls-2{fill:#7e8384;}.cls-3{font-size:20.61px;fill:#141414;font-family:Alatsi-Regular, Alatsi;}</style></defs><title>Asset 94</title><g id="Layer_2" data-name="Layer 2"><g id="레이어_1" data-name="레이어 1"><g class="cls-1"><path class="cls-2" d="M115.08,92.17c-9.3,9.32-21.3,13.64-35.74,12.68A43,43,0,0,1,52.27,93.46a1.4,1.4,0,0,0-1.79-.26C36.29,99,19.9,96.44,9.21,86.66A26.86,26.86,0,0,1,.13,69.19,25.07,25.07,0,0,1,3.78,53.44,31.57,31.57,0,0,1,16.22,41.85a38.28,38.28,0,0,1,17.71-4.58,2.08,2.08,0,0,0,2-1.16c3.12-5.37,8.24-8.6,15.2-9.6,8.47-1.21,16.91,2.25,21.16,8.57a1.6,1.6,0,0,0,2,.74,46.65,46.65,0,0,1,17.11-.06A42.93,42.93,0,0,1,113.7,46.53c7.15,6.67,10.65,14.55,10.83,23.17A31.17,31.17,0,0,1,115.08,92.17Z"/><path class="cls-2" d="M36.29,26.24c-5.65,0-10.31-3.92-10.35-8.7s4.69-8.78,10.38-8.77,10.3,3.92,10.37,8.7S42,26.26,36.29,26.24Z"/><path class="cls-2" d="M13.12,13.11c-4.26.1-7.78-2.76-7.95-6.45C5,3.18,8.52.11,12.77,0s7.81,2.79,7.93,6.45S17.4,13,13.12,13.11Z"/></g><text class="cls-3" transform="translate(31.15 73.79)">JQUERY</text></g></g></svg>