<svg xmlns="http://www.w3.org/2000/svg" viewBox="0 0 468.7 582.32"><defs><style>.cls-1{fill:#fff;}.cls-2{fill:none;stroke:#fff;stroke-miterlimit:10;stroke-width:3px;}.cls-3{opacity:0.26;}</style></defs><title>Asset 26</title><g id="Layer_2" data-name="Layer 2"><g id="레이어_1" data-name="레이어 1"><polygon class="cls-1" points="0.56 246.26 4.54 222.97 461.45 37.45 457.88 58.4 0.56 246.26"/><polyline class="cls-2" points="1.48 244.73 11.01 188.85 466.77 2.41 457.24 58.29"/><line class="cls-2" x1="18.7" y1="238.66" x2="28.22" y2="182.77"/><line class="cls-2" x1="35.77" y1="230.5" x2="45.3" y2="174.61"/><line class="cls-2" x1="52.6" y1="223.78" x2="62.13" y2="167.9"/><line class="cls-2" x1="69.43" y1="217.07" x2="78.96" y2="161.18"/><line class="cls-2" x1="86.26" y1="210.35" x2="95.79" y2="154.47"/><line class="cls-2" x1="103.09" y1="203.64" x2="112.62" y2="147.75"/><line class="cls-2" x1="119.92" y1="196.92" x2="129.45" y2="141.04"/><line class="cls-2" x1="136.75" y1="190.21" x2="146.28" y2="134.32"/><line class="cls-2" x1="153.58" y1="183.49" x2="163.11" y2="127.61"/><line class="cls-2" x1="170.65" y1="175.33" x2="180.18" y2="119.45"/><line class="cls-2" x1="187.48" y1="168.62" x2="197.01" y2="112.74"/><line class="cls-2" x1="204.31" y1="161.9" x2="213.84" y2="106.02"/><line class="cls-2" x1="221.14" y1="155.19" x2="230.67" y2="99.31"/><line class="cls-2" x1="237.97" y1="148.47" x2="247.5" y2="92.59"/><line class="cls-2" x1="254.8" y1="141.76" x2="264.33" y2="85.88"/><line class="cls-2" x1="271.63" y1="135.04" x2="281.16" y2="79.16"/><line class="cls-2" x1="288.7" y1="126.89" x2="298.23" y2="71"/><line class="cls-2" x1="305.53" y1="120.17" x2="315.06" y2="64.29"/><line class="cls-2" x1="322.36" y1="113.46" x2="331.89" y2="57.57"/><line class="cls-2" x1="339.44" y1="105.3" x2="348.97" y2="49.42"/><line class="cls-2" x1="356.27" y1="98.58" x2="365.8" y2="42.7"/><line class="cls-2" x1="373.1" y1="91.87" x2="382.62" y2="35.99"/><line class="cls-2" x1="389.93" y1="85.15" x2="399.45" y2="29.27"/><line class="cls-2" x1="406.75" y1="78.44" x2="416.28" y2="22.56"/><line class="cls-2" x1="423.58" y1="71.72" x2="433.11" y2="15.84"/><line class="cls-2" x1="440.41" y1="65.01" x2="449.94" y2="9.13"/><g class="cls-3"><path class="cls-1" d="M405.75,536.58,403,552.79l-.58-.41-14-9.91-14-9.9-14-9.9-14-9.91-14-9.9-14-9.9-14-9.9-14-9.91-14-9.9-14-9.9-14-9.91-14-9.9-14-9.9-14-9.91-14-9.9-14-9.9-14-9.91-14-9.9-14-9.9-14-9.9-14-9.91-14-9.9-14-9.9-8.36-5.92a55.53,55.53,0,0,0,4.35-16.84l77,54.86,97.89,69.79Z"/><polyline class="cls-2" points="58.11 338.24 62.02 341.01 159.94 410.63 173.92 420.58 257.86 480.25 271.85 490.2 285.83 500.14 285.83 500.15 299.83 510.1 313.81 520.04 327.8 529.99 341.79 539.93 355.78 549.88 369.77 559.83 383.75 569.77 397.74 579.72 402.41 552.38 405.12 536.48"/><polyline class="cls-2" points="62.01 341.05 62.02 341.01 63.43 332.75"/><line class="cls-2" x1="83.4" y1="307.62" x2="76.03" y2="350.85"/><line class="cls-2" x1="97.41" y1="317.42" x2="90.04" y2="360.66"/><line class="cls-2" x1="111.43" y1="327.23" x2="104.05" y2="370.46"/><line class="cls-2" x1="125.44" y1="337.03" x2="118.07" y2="380.27"/><line class="cls-2" x1="139.45" y1="346.84" x2="132.08" y2="390.07"/><line class="cls-2" x1="153.46" y1="356.64" x2="146.09" y2="399.88"/><line class="cls-2" x1="167.29" y1="367.56" x2="159.91" y2="410.8"/><line class="cls-2" x1="181.3" y1="377.37" x2="173.93" y2="420.6"/><line class="cls-2" x1="195.31" y1="387.17" x2="187.94" y2="430.41"/><line class="cls-2" x1="209.32" y1="396.98" x2="201.95" y2="440.21"/><line class="cls-2" x1="223.34" y1="406.78" x2="215.96" y2="450.02"/><line class="cls-2" x1="237.35" y1="416.59" x2="229.98" y2="459.82"/><line class="cls-2" x1="251.36" y1="426.39" x2="243.99" y2="469.63"/><line class="cls-2" x1="265.18" y1="437.31" x2="257.81" y2="480.55"/><line class="cls-2" x1="279.19" y1="447.12" x2="271.82" y2="490.35"/><line class="cls-2" x1="293.21" y1="456.92" x2="285.84" y2="500.16"/><line class="cls-2" x1="307.03" y1="467.84" x2="299.66" y2="511.08"/><line class="cls-2" x1="321.04" y1="477.65" x2="313.67" y2="520.88"/><line class="cls-2" x1="335.05" y1="487.45" x2="327.68" y2="530.69"/><line class="cls-2" x1="349.07" y1="497.26" x2="341.69" y2="540.49"/><line class="cls-2" x1="363.08" y1="507.06" x2="355.71" y2="550.3"/><line class="cls-2" x1="377.09" y1="516.87" x2="369.72" y2="560.1"/><line class="cls-2" x1="391.1" y1="526.67" x2="383.73" y2="569.91"/></g></g></g></svg>