<svg xmlns="http://www.w3.org/2000/svg" viewBox="0 0 595 575.27"><defs><style>.cls-1{fill:#bf913d;}.cls-2{fill:#4b9281;}.cls-3{fill:#2f7764;}.cls-4{fill:#176464;}.cls-5{fill:#3d8074;}.cls-6{fill:#6cba93;}.cls-7{fill:#b6eaa2;}.cls-8{fill:#440202;}.cls-9{fill:#b7b7b7;}.cls-10{fill:#b7ab76;}.cls-11{fill:#686247;}.cls-12{fill:#edebdf;}.cls-13{fill:#666568;}.cls-14{fill:#f7d823;}.cls-15{fill:#e0e0c7;}.cls-16{fill:#df330e;}</style></defs><title>Asset 23</title><g id="Layer_2" data-name="Layer 2"><g id="레이어_1" data-name="레이어 1"><polygon class="cls-1" points="384 72 382 72.13 373 82.69 373 66 364.51 66 364.51 75 364.51 78.52 358.12 75 353.51 73.5 364.51 81.38 364.51 105.19 364.51 108 373 108 373 86.93 384 72"/><path class="cls-2" d="M415.5,57a3.67,3.67,0,0,0-.75.08l0-.09c2.94-.05,5.28-1.14,5.28-2.49,0-1-1.25-1.83-3.05-2.24A4.49,4.49,0,0,0,413.88,44a5,5,0,0,0-.89.22,20,20,0,0,0-.39-3.8A4.49,4.49,0,0,0,410.5,32a3.67,3.67,0,0,0-.75.08,4.46,4.46,0,0,0-3.13-2.92,28,28,0,0,0-3-2.78,3.56,3.56,0,0,0,1-2.38c0-2.62-3.35-4.76-7.61-5A4,4,0,0,0,398,16.5c0-2.49-2.46-4.5-5.5-4.5a6.55,6.55,0,0,0-2.2.38A4.41,4.41,0,0,0,391,10a3.78,3.78,0,0,0-3.5-4,3.29,3.29,0,0,0-2.56,1.29A3.67,3.67,0,0,0,381.5,4a3.17,3.17,0,0,0-1.54.42A3,3,0,0,0,380,4a3.78,3.78,0,0,0-3.5-4A3.28,3.28,0,0,0,374,1.21,3.28,3.28,0,0,0,371.5,0,3.78,3.78,0,0,0,368,4a4.15,4.15,0,0,0,.07.79,4.46,4.46,0,0,0-7.14,0A4.49,4.49,0,1,0,353,8.28,4.46,4.46,0,0,0,350.05,12l-.55,0c-3,0-5.5,2-5.5,4.5a3.84,3.84,0,0,0,.54,1.93A7.51,7.51,0,0,0,342,18c-2.76,0-5,1.34-5,3s2.24,3,5,3a8.07,8.07,0,0,0,1.88-.22A3.45,3.45,0,0,0,343,26c0,1.42,1,2.71,2.59,3.62A2.12,2.12,0,0,0,345,31a2,2,0,0,0,.14.69,9.15,9.15,0,0,0-2.69-.64,2.5,2.5,0,1,0-3.61.3,6.56,6.56,0,0,0-2.9,1.58,4.49,4.49,0,0,0-8.94.57s0,0,0,.07A10.4,10.4,0,0,0,323.5,33c-3,0-5.5,1.12-5.5,2.5,0,.72.68,1.38,1.77,1.83-1.65.43-2.77,1.24-2.77,2.17A1.93,1.93,0,0,0,318.14,41l-.64,0c-3,0-5.5,1.12-5.5,2.5s2.46,2.5,5.5,2.5a10,10,0,0,0,3.8-.69,3.93,3.93,0,0,0,1.88,1.18,4.43,4.43,0,0,0-1,1.73,4.48,4.48,0,0,0,.25,3.19A7.69,7.69,0,0,0,317.5,50c-3,0-5.5,1.12-5.5,2.5s2.46,2.5,5.5,2.5l.61,0c.49,1.15,2.72,2,5.39,2a10.13,10.13,0,0,0,3.62-.62,14.46,14.46,0,0,0,.57,2.61,4.24,4.24,0,0,0-1.62,2.37,3.72,3.72,0,0,0-.5-.2,4.5,4.5,0,0,0-5.6,3,5.31,5.31,0,0,0-.16.87,7.19,7.19,0,0,0-.81,0c-2.76,0-5,1.34-5,3,0,1,.87,1.94,2.19,2.48A4.46,4.46,0,0,0,318,77.73a2.45,2.45,0,0,0,0,.27c0,2.76,3.73,5,8.33,5a11.78,11.78,0,0,0,5.59-1.3,4.39,4.39,0,0,0,1.58.3,4.49,4.49,0,0,0,4.5-4.5,4.58,4.58,0,0,0-.08-.83,10.07,10.07,0,0,0,2.58.33,8.61,8.61,0,0,0,4.82-1.33c.43,1.38,1.24,2.33,2.18,2.33a2.28,2.28,0,0,0,1.85-1.5,9.77,9.77,0,0,0,3.15.5c3.39,0,6.18-1.6,6.47-3.64a9.74,9.74,0,0,0,3.53.64c3.59,0,6.5-1.79,6.5-4v0l1,.22A4.3,4.3,0,0,0,369,73a3.52,3.52,0,1,0,7,.11A8,8,0,0,0,381.5,75c3.59,0,6.5-1.79,6.5-4a1.55,1.55,0,0,0,0-.31,10.19,10.19,0,0,0,2.53.31,9.74,9.74,0,0,0,3.53-.64A3.71,3.71,0,0,0,397.5,74a3.78,3.78,0,0,0,3.5-4c0-.1,0-.19,0-.28a4.46,4.46,0,0,0,1.52.28,3.93,3.93,0,0,0,.6-.06q.6.06,1.23.06c4.61,0,8.34-2.24,8.34-5,0,0,0,0,0,0a4.49,4.49,0,1,0,2.84-8Zm-3.89-5.07q.22.18.45.33a5.79,5.79,0,0,0-.63.17C411.5,52.26,411.55,52.1,411.61,51.93ZM355,17h0s0,0,0,.05v0h0S355,17,355,17ZM335.18,36.07l0,0,0,0Zm-6.82.65-.1,0,.07-.06ZM378,7.58A3,3,0,0,0,378,8c0,.07,0,.14,0,.21-.66-.07-1.33-.12-2-.16l-.1-.12a3,3,0,0,0,.59.07A3.17,3.17,0,0,0,378,7.58Z"/><path class="cls-3" d="M415.5,57a3.67,3.67,0,0,0-.75.08l0-.09c2.94-.05,5.28-1.14,5.28-2.49,0-1-1.25-1.83-3.05-2.24A4.49,4.49,0,0,0,413.88,44a5,5,0,0,0-.89.22,20,20,0,0,0-.39-3.8A4.49,4.49,0,0,0,410.5,32a3.67,3.67,0,0,0-.75.08,4.46,4.46,0,0,0-3.13-2.92,28,28,0,0,0-3-2.78,3.56,3.56,0,0,0,1-2.38c0-2.62-3.35-4.76-7.61-5A4,4,0,0,0,398,16.5c0-2.49-2.46-4.5-5.5-4.5a6.55,6.55,0,0,0-2.2.38A4.41,4.41,0,0,0,391,10a3.78,3.78,0,0,0-3.5-4,3.29,3.29,0,0,0-2.56,1.29A3.67,3.67,0,0,0,381.5,4a3.17,3.17,0,0,0-1.54.42A3,3,0,0,0,380,4a3.78,3.78,0,0,0-3.5-4A3.28,3.28,0,0,0,374,1.21,3.28,3.28,0,0,0,371.5,0,3.78,3.78,0,0,0,368,4a4.15,4.15,0,0,0,.07.79,4.46,4.46,0,0,0-7.14,0A4.49,4.49,0,0,0,352,5.5a3.94,3.94,0,0,0,.19,1.25A13,13,0,0,1,357,5.88c5,0,9,2.49,9,5.56h0c-2.25.16-4,1.34-4,2.77a2.08,2.08,0,0,0,.72,1.51A5.3,5.3,0,0,0,366,17l.53,0a5.84,5.84,0,0,0,3.5-1,5.84,5.84,0,0,0,3.5,1,5.39,5.39,0,0,0,3.91-1.4c2.74,1,4.59,2.76,4.59,4.84h0c-2.25.16-4,1.34-4,2.77a1.94,1.94,0,0,0,0,.24,8.89,8.89,0,0,0-1.52.59A7,7,0,0,0,373.94,26a12.58,12.58,0,0,0,4.15-.95A4.42,4.42,0,0,1,380,28.44a3.91,3.91,0,0,1-.95,2.48,12.8,12.8,0,0,1,3.45.71,8,8,0,0,1,1.62.75,2.94,2.94,0,0,0-.12.84,2.65,2.65,0,0,0,.07.63,4.27,4.27,0,0,0,1.92,2.6,5.62,5.62,0,0,0,1,.56A10.2,10.2,0,0,0,391,38a4.71,4.71,0,0,1,.89.75,3.64,3.64,0,0,1,1,1.87,6.3,6.3,0,0,0,2.44-2.14,10.23,10.23,0,0,1,1.7.27,1.59,1.59,0,0,0-.07.48c0,1.54,2,2.78,4.5,2.78h.24a3.09,3.09,0,0,1,.26,1.23c0,2.64-3.36,4.78-7.5,4.78-.35,0-.69,0-1,0a7,7,0,0,1,1.67,1.61c-1.82.37-3.14,1.42-3.14,2.66a1.69,1.69,0,0,0,.15.7,3.79,3.79,0,0,0,2.79,1.91,7.1,7.1,0,0,0,1.56.17,6.76,6.76,0,0,0,1.72-.21A5.29,5.29,0,0,1,401,59.06c0,3-3.54,5.56-8.2,6.07a4.4,4.4,0,0,1,1.2,2.93,4.36,4.36,0,0,1-.94,2.62,9.18,9.18,0,0,0,1-.32A3.71,3.71,0,0,0,397.5,74a3.78,3.78,0,0,0,3.5-4c0-.1,0-.19,0-.28a4.46,4.46,0,0,0,1.52.28,3.93,3.93,0,0,0,.6-.06q.6.06,1.23.06c4.61,0,8.34-2.24,8.34-5,0,0,0,0,0,0a4.49,4.49,0,1,0,2.84-8ZM378,8.21c-.66-.07-1.33-.12-2-.16l-.1-.12a3,3,0,0,0,.59.07A3.17,3.17,0,0,0,378,7.58,3,3,0,0,0,378,8C378,8.07,378,8.14,378,8.21Zm33.41,44.22c.07-.17.12-.33.18-.5q.22.18.45.33A5.79,5.79,0,0,0,411.43,52.43Z"/><path class="cls-4" d="M0,106,26,211.5l55,54.67,18,11.51h52.51L282,512.67s25,5.75,33,5.75,34,7.68,34,7.68l24.64,49.17H594.69v-437L136,116.55Z"/><polygon class="cls-5" points="144.5 133.5 258.5 351.5 448.5 447.5 542.57 447.5 469.04 133.5 144.5 133.5"/><polygon class="cls-6" points="393.5 153.5 439.75 365.5 595 516.6 593.5 153.5 393.5 153.5"/><path class="cls-7" d="M593.79,106H3.34S46.5,126.5,62.5,126.5H185.13l-39.63,7,10,6H358l37.52,15,198.25,4.73Z"/><polygon class="cls-8" points="312 30 344 64 334 64 301 30 312 30"/><polygon class="cls-9" points="277.5 64.29 308.5 31.51 337.5 62.3 337.5 106 277.5 106 277.5 64.29"/><polygon class="cls-10" points="257.25 21.32 257.25 41.32 265.04 41.32 265.04 20.89 257.25 20.89 257.25 21.32"/><polyline class="cls-11" points="265.04 20.89 271.51 20.89 271.51 41.32 265.04 41.32"/><rect class="cls-12" x="237.5" y="65.5" width="40.5" height="40.5"/><rect class="cls-13" x="291" y="66" width="10" height="23"/><rect class="cls-14" x="291" y="66" width="9" height="11"/><rect class="cls-14" x="291" y="78" width="9" height="10"/><rect class="cls-10" x="255" y="18" width="18" height="3"/><rect class="cls-15" x="251" y="66" width="11" height="40"/><polygon class="cls-16" points="267 30 311 30 277.5 66 231.36 66 267 30"/><polygon class="cls-14" points="291 106 301 106 351.11 139.5 296 139.5 291 106"/></g></g></svg>