<svg xmlns="http://www.w3.org/2000/svg" viewBox="0 0 1425.79 353"><defs><style>.cls-1{fill:#dff4f3;}</style></defs><title>Asset 16</title><g id="Layer_2" data-name="Layer 2"><g id="레이어_1" data-name="레이어 1"><path class="cls-1" d="M0,136.82A25.78,25.78,0,0,1,25.81,111H380.73a25.82,25.82,0,1,1,0,51.63h-42.4c-13.39,0-24.2,10.1-24.2,22.58s10.81,22.59,24.2,22.59H484a25.81,25.81,0,1,1,0,51.62H348.46v.16C336.39,260.85,327,270.4,327,282s9.35,21.16,21.42,22.42v.16h74.21a24.2,24.2,0,0,1,0,48.4H222.18a24.2,24.2,0,0,1,0-48.4h58.53c13.35,0,24.19-10.1,24.19-22.58s-10.84-22.59-24.19-22.59H129.06a25.81,25.81,0,1,1,0-51.62h87.12c13.35,0,24.19-10.1,24.19-22.59s-10.84-22.58-24.19-22.58H25.81A25.81,25.81,0,0,1,0,136.82Z"/><path class="cls-1" d="M1425.79,132.21A15.77,15.77,0,0,1,1410,148H1192.93a15.79,15.79,0,1,1,0-31.57h25.93c8.19,0,14.8-6.18,14.8-13.82s-6.61-13.81-14.8-13.81h-89.07a15.79,15.79,0,1,1,0-31.57h82.88v-.1c7.38-.77,13.1-6.61,13.1-13.72s-5.72-12.94-13.1-13.71v-.1h-45.39a14.8,14.8,0,1,1,0-29.6H1289.9a14.8,14.8,0,0,1,0,29.6h-35.79c-8.17,0-14.8,6.18-14.8,13.81s6.63,13.82,14.8,13.82h92.74a15.79,15.79,0,1,1,0,31.57h-53.28c-8.17,0-14.8,6.18-14.8,13.81s6.63,13.82,14.8,13.82H1410A15.78,15.78,0,0,1,1425.79,132.21Z"/></g></g></svg>