<svg xmlns="http://www.w3.org/2000/svg" viewBox="0 0 96.19 104.94"><defs><style>.cls-1{fill:#f4f4f4;}.cls-2{fill:#fc821f;}.cls-3{fill:#3c6284;}.cls-4{fill:#dd7e0b;}</style></defs><title>Asset 29</title><g id="Layer_2" data-name="Layer 2"><g id="레이어_1" data-name="레이어 1"><path class="cls-1" d="M77.72,51.71c11.91,13.41,12,32.8.14,43.32s-31.09,8.17-43-5.24S9,41.4,20.87,30.88,65.8,38.3,77.72,51.71Z"/><path class="cls-1" d="M45.67,26.6a19.06,19.06,0,0,1-18.84,19A18.91,18.91,0,0,1,8,26.6c0-37.16,34-27,18.83-19C30.69,5.57,46,9.6,45.67,26.6Z"/><polygon class="cls-2" points="0 26.41 9 31.21 9 21.61 0 26.41"/><path class="cls-3" d="M72,52.88c15.43,6,26.57,16,23.83,25.44S81.25,91.14,66.52,83.59C46.52,73.35,37.31,46.45,40.05,37S55.52,46.48,72,52.88Z"/><path class="cls-4" d="M43.81,97.19s-2.68,2.53-1.32,7.48c0,0-3-3.61-.81-7.74S43.81,97.19,43.81,97.19Z"/><path class="cls-4" d="M46.67,97.16s-2.68,2.53-1.32,7.48c0,0-3-3.61-.81-7.74S46.67,97.16,46.67,97.16Z"/><path class="cls-4" d="M52,97.82s-2.67,2.24-1.67,7A6.81,6.81,0,0,1,50,97.46C52.31,93.69,52,97.82,52,97.82Z"/><path class="cls-4" d="M54.65,98s-2.67,2.24-1.67,7c0,0-2.66-3.58-.31-7.34S54.65,98,54.65,98Z"/></g></g></svg>