<svg xmlns="http://www.w3.org/2000/svg" xmlns:xlink="http://www.w3.org/1999/xlink" viewBox="0 0 1196.26 1189.35"><defs><style>.cls-1{opacity:0.46;}.cls-2{fill:url(#무제_그라디언트_134);}.cls-3{fill:url(#무제_그라디언트_134-2);}.cls-4{fill:url(#무제_그라디언트_134-3);}.cls-5{fill:url(#무제_그라디언트_134-4);}.cls-6{fill:url(#무제_그라디언트_134-5);}.cls-7{fill:url(#무제_그라디언트_134-6);}.cls-8{fill:url(#무제_그라디언트_134-7);}.cls-9{fill:url(#무제_그라디언트_134-8);}.cls-10{fill:url(#무제_그라디언트_134-9);}.cls-11{fill:url(#무제_그라디언트_134-10);}.cls-12{fill:url(#무제_그라디언트_134-11);}.cls-13{fill:url(#무제_그라디언트_134-12);}.cls-14{fill:url(#무제_그라디언트_134-13);}.cls-15{fill:url(#무제_그라디언트_134-14);}.cls-16{fill:url(#무제_그라디언트_134-15);}.cls-17{fill:url(#무제_그라디언트_134-16);}.cls-18{fill:url(#무제_그라디언트_134-17);}.cls-19{fill:url(#무제_그라디언트_134-18);}</style><linearGradient id="무제_그라디언트_134" x1="611.67" y1="637.76" x2="611.67" y2="3.23" gradientUnits="userSpaceOnUse"><stop offset="0" stop-color="#fff"/><stop offset="1" stop-color="#f2f2f2" stop-opacity="0"/></linearGradient><linearGradient id="무제_그라디언트_134-2" x1="611.95" y1="638.16" x2="611.95" y2="3.63" gradientTransform="translate(-167.72 240.15) rotate(-20)" xlink:href="#무제_그라디언트_134"/><linearGradient id="무제_그라디언트_134-3" x1="612.08" y1="638.63" x2="612.08" y2="4.1" gradientTransform="translate(-243.19 523.19) rotate(-40)" xlink:href="#무제_그라디언트_134"/><linearGradient id="무제_그라디언트_134-4" x1="612.04" y1="639.12" x2="612.04" y2="4.59" gradientTransform="matrix(0.5, -0.87, 0.87, 0.5, -217.3, 814.97)" xlink:href="#무제_그라디언트_134"/><linearGradient id="무제_그라디언트_134-5" x1="611.83" y1="639.57" x2="611.83" y2="5.04" gradientTransform="translate(-93.18 1080.3) rotate(-80)" xlink:href="#무제_그라디언트_134"/><linearGradient id="무제_그라디언트_134-6" x1="611.48" y1="639.91" x2="611.48" y2="5.39" gradientTransform="translate(114.2 1287.17) rotate(-100)" xlink:href="#무제_그라디언트_134"/><linearGradient id="무제_그라디언트_134-7" x1="611.04" y1="640.12" x2="611.04" y2="5.59" gradientTransform="translate(379.83 1410.64) rotate(-120)" xlink:href="#무제_그라디언트_134"/><linearGradient id="무제_그라디언트_134-8" x1="610.55" y1="640.17" x2="610.55" y2="5.64" gradientTransform="translate(671.67 1435.81) rotate(-140)" xlink:href="#무제_그라디언트_134"/><linearGradient id="무제_그라디언트_134-9" x1="610.07" y1="640.04" x2="610.07" y2="5.51" gradientTransform="translate(954.52 1359.66) rotate(-160)" xlink:href="#무제_그라디언트_134"/><linearGradient id="무제_그라디언트_134-10" x1="609.67" y1="639.76" x2="609.67" y2="5.23" gradientTransform="translate(1194.26 1191.35) rotate(180)" xlink:href="#무제_그라디언트_134"/><linearGradient id="무제_그라디언트_134-11" x1="609.39" y1="639.35" x2="609.39" y2="4.83" gradientTransform="translate(1361.98 951.19) rotate(160)" xlink:href="#무제_그라디언트_134"/><linearGradient id="무제_그라디언트_134-12" x1="609.26" y1="638.88" x2="609.26" y2="4.35" gradientTransform="translate(1437.45 668.16) rotate(140)" xlink:href="#무제_그라디언트_134"/><linearGradient id="무제_그라디언트_134-13" x1="609.31" y1="638.39" x2="609.31" y2="3.86" gradientTransform="matrix(-0.5, 0.87, -0.87, -0.5, 1411.56, 376.38)" xlink:href="#무제_그라디언트_134"/><linearGradient id="무제_그라디언트_134-14" x1="609.51" y1="637.95" x2="609.51" y2="3.42" gradientTransform="translate(1287.45 111.05) rotate(100)" xlink:href="#무제_그라디언트_134"/><linearGradient id="무제_그라디언트_134-15" x1="609.86" y1="637.6" x2="609.86" y2="3.07" gradientTransform="translate(1080.06 -95.82) rotate(80)" xlink:href="#무제_그라디언트_134"/><linearGradient id="무제_그라디언트_134-16" x1="610.31" y1="637.39" x2="610.31" y2="2.86" gradientTransform="translate(814.43 -219.29) rotate(60)" xlink:href="#무제_그라디언트_134"/><linearGradient id="무제_그라디언트_134-17" x1="610.79" y1="637.35" x2="610.79" y2="2.82" gradientTransform="translate(522.59 -244.47) rotate(40)" xlink:href="#무제_그라디언트_134"/><linearGradient id="무제_그라디언트_134-18" x1="611.27" y1="637.47" x2="611.27" y2="2.95" gradientTransform="translate(239.74 -168.31) rotate(20)" xlink:href="#무제_그라디언트_134"/></defs><title>Asset 17</title><g id="Layer_2" data-name="Layer 2"><g id="레이어_1" data-name="레이어 1"><g class="cls-1"><polygon class="cls-2" points="618.37 593.66 587.34 593.66 553.28 0 670.07 0 618.37 593.66"/><polygon class="cls-3" points="616.81 586.8 587.65 597.42 352.59 51.2 462.34 11.26 616.81 586.8"/><polygon class="cls-4" points="612.99 580.89 589.22 600.84 181.52 167.96 270.99 92.89 612.99 580.89"/><polygon class="cls-5" points="607.38 576.64 591.86 603.51 60.7 336.18 119.09 235.04 607.38 576.64"/><polygon class="cls-6" points="600.65 574.56 595.26 605.13 4.7 535.58 24.98 420.57 600.65 574.56"/><polygon class="cls-7" points="593.62 574.91 599.01 605.48 20.28 742.11 0 627.1 593.62 574.91"/><polygon class="cls-8" points="587.14 577.65 602.65 604.52 105.55 930.85 47.16 829.71 587.14 577.65"/><polygon class="cls-9" points="581.98 582.43 605.75 602.38 250.24 1079.05 160.78 1003.98 581.98 582.43"/><polygon class="cls-10" points="578.76 588.7 607.92 599.31 436.89 1168.83 327.14 1128.88 578.76 588.7"/><polygon class="cls-11" points="577.89 595.68 608.92 595.68 642.98 1189.35 526.2 1189.35 577.89 595.68"/><polygon class="cls-12" points="579.45 602.55 608.62 591.93 843.67 1138.14 733.92 1178.09 579.45 602.55"/><polygon class="cls-13" points="583.27 608.46 607.04 588.51 1014.74 1021.39 925.27 1096.46 583.27 608.46"/><polygon class="cls-14" points="588.88 612.71 604.4 585.83 1135.56 853.17 1077.17 954.31 588.88 612.71"/><polygon class="cls-15" points="595.61 614.78 601 584.22 1191.56 653.77 1171.28 768.78 595.61 614.78"/><polygon class="cls-16" points="602.64 614.43 597.25 583.87 1175.98 447.24 1196.26 562.25 602.64 614.43"/><polygon class="cls-17" points="609.13 611.7 593.61 584.83 1090.71 258.49 1149.1 359.63 609.13 611.7"/><polygon class="cls-18" points="614.29 606.91 590.51 586.97 946.02 110.3 1035.48 185.37 614.29 606.91"/><polygon class="cls-19" points="617.5 600.65 588.34 590.04 759.37 20.52 869.12 60.47 617.5 600.65"/></g></g></g></svg>