<svg xmlns="http://www.w3.org/2000/svg" viewBox="0 0 1960.82 582.03"><defs><style>.cls-1{opacity:0.44;}.cls-2,.cls-8{fill:#bdcd6a;}.cls-3,.cls-7{fill:#a4c069;}.cls-4{fill:#5c8c58;}.cls-5{fill:#536652;}.cls-6{fill:#0c3334;}.cls-10,.cls-7,.cls-8{opacity:0.49;}.cls-9{fill:#609358;}</style></defs><title>Asset 25</title><g id="Layer_2" data-name="Layer 2"><g id="레이어_1" data-name="레이어 1"><g class="cls-1"><path class="cls-2" d="M1887.67,564a93.69,93.69,0,0,1-44.46-2.09,88.76,88.76,0,0,1-39.64,18.43c-29.28,5.69-58.25-2.93-78.16-20.66A89.46,89.46,0,0,1,1689,575.57c-36.28,7-72.1-7.87-90.77-34.88a63.5,63.5,0,0,1-25.29,10.88,65.36,65.36,0,0,1-51.51-11.47,61.46,61.46,0,0,1-37,22.15c-33,6.4-65.35-12.73-72.39-42.72s14-59.5,46.93-65.9a65.34,65.34,0,0,1,51.52,11.46,61.45,61.45,0,0,1,37-22.14,65.27,65.27,0,0,1,52.4,12.13c12-16.14,30.62-28.26,53.22-32.65,29.28-5.69,58.25,2.93,78.16,20.67a89.25,89.25,0,0,1,36.45-15.94,93.55,93.55,0,0,1,44.46,2.1,88.7,88.7,0,0,1,39.65-18.44c46.45-9,92.14,17.94,102,60.23S1934.13,554.93,1887.67,564Z"/><path class="cls-3" d="M1880.49,505.55c-34.46,6.69-68.56-3.39-92-24.2a75.61,75.61,0,0,1-9.38,17.66c-25.84,36.29-79.09,46.63-119,23.11a83.62,83.62,0,0,1-18.65-14.89,88.35,88.35,0,0,1-49.18,27.32c-45.93,8.92-91.12-16.94-102.5-58.06-12.33,24.84-37,44.2-68.54,50.33-52.66,10.23-104.46-20.34-115.7-68.29s22.34-95.1,75-105.33,104.47,20.34,115.7,68.28c0,.08,0,.15,0,.22,11.43-20.8,32.75-36.84,59.67-42.07,32.63-6.34,64.89,4.88,84.91,26.65,27.47-30,75.88-37.34,112.8-15.55q3.42,2,6.55,4.28c8.41-34.13,37.85-62.42,77.89-70.2,54.82-10.65,108.75,21.18,120.45,71.09S1935.31,494.9,1880.49,505.55Z"/><path class="cls-4" d="M1640.68,468.36c-26.13,5.08-52-3.56-68.5-20.56-10.64,22.55-32.71,40.22-61.08,45.74-42.13,8.18-83.64-13.24-98.39-48.85a78.16,78.16,0,0,1-16.18,5c-39.43,7.66-78.22-15.23-86.63-51.12s16.73-71.21,56.16-78.87c32-6.22,63.64,7.72,78.88,32.42a90.43,90.43,0,0,1,30.26-11.73c34.91-6.78,69.39,6.77,88.58,31.87,9.76-15.45,26.4-27.21,47.06-31.23,38.61-7.5,76.6,14.92,84.84,50.08S1679.3,460.86,1640.68,468.36Z"/><ellipse class="cls-5" cx="1837.19" cy="349.2" rx="96" ry="87.4"/><ellipse class="cls-6" cx="1741.54" cy="373.78" rx="98.67" ry="89.83"/><path class="cls-6" d="M1614.24,371a82.93,82.93,0,0,1-33.41-3.73c-2.21,45.77-41,84.33-92.56,89-34.15,3.12-66.06-9.34-87.26-31-19.19,21.94-47.69,37.09-80.76,40.11-65.07,5.95-123.11-37.25-129.65-96.48s40.92-112.08,106-118c44.22-4,85.17,14.62,108.94,45.58a107,107,0,0,1,62.17-26.68,110.48,110.48,0,0,1,65.17,14c8-27.07,33.66-48.14,66.12-51.11,42-3.84,79.4,24,83.61,62.23S1656.21,367.13,1614.24,371Z"/><path class="cls-4" d="M1574.7,349.48A58.93,58.93,0,0,1,1520,347c-2.81,18.48-15.08,35.48-34.66,44.71-29.07,13.72-64.22,5.63-82.91-17.77a55.78,55.78,0,0,1-10.75,6.64c-27.21,12.84-60.69,3.17-74.8-21.6s-3.48-55.25,23.73-68.09c22.1-10.43,48.35-6,65,9.31A64.63,64.63,0,0,1,1425.13,286c24.08-11.37,52.35-7.75,72,7.13,3.74-13.11,13.34-24.78,27.59-31.51,26.65-12.57,59.45-3.1,73.26,21.16S1601.35,336.9,1574.7,349.48Z"/><ellipse class="cls-5" cx="1692.39" cy="226.13" rx="72.97" ry="66.43"/></g><path class="cls-3" d="M1880.49,33.78a101.39,101.39,0,0,0-92,26.59,86,86,0,0,0-147-28.44,87,87,0,0,0-151.68,33.78,97.51,97.51,0,1,0,6.46,60.42c0-.08,0-.16,0-.24a87,87,0,0,0,144.58,16.94,86,86,0,0,0,112.8,17.08c2.28-1.48,4.46-3.06,6.55-4.71A101.51,101.51,0,1,0,1880.49,33.78Z"/><circle class="cls-6" cx="1741.54" cy="121.53" r="98.67"/><path class="cls-6" d="M1614.24,124.62a76,76,0,0,0-33.41,4.09A102.94,102.94,0,0,0,1401,65a118.39,118.39,0,1,0,4.51,141.5,102.88,102.88,0,0,0,127.34,13.95,76.37,76.37,0,1,0,81.38-95.82Z"/><path class="cls-4" d="M1574.7,140.22A54.31,54.31,0,0,0,1520,143a65.36,65.36,0,0,0-117.57-29.6,55.48,55.48,0,1,0,3.16,81,65.4,65.4,0,0,0,91.55,7.7,54.34,54.34,0,1,0,77.61-61.88Z"/><path class="cls-3" d="M708.92,76.56A67.08,67.08,0,0,0,648,94.14a56.89,56.89,0,0,0-97.21-18.8A57.53,57.53,0,0,0,450.51,97.67a64.49,64.49,0,1,0,4.28,40l0-.15a57.55,57.55,0,0,0,95.62,11.2A56.88,56.88,0,0,0,625.05,160c1.51-1,3-2,4.33-3.12a67.14,67.14,0,1,0,79.54-80.3Z"/><path class="cls-2" d="M658.47,131.83a50.44,50.44,0,0,0-26.25-.32,50.7,50.7,0,0,0-69.43-3,50.73,50.73,0,0,0-75.67,7.44,36,36,0,0,0-45.23-2.52,36,36,0,1,0-9.54,48.08,35.95,35.95,0,0,0,52.19,9.85,50.7,50.7,0,0,0,76.83,12.71,50.69,50.69,0,0,0,47,12,50.72,50.72,0,1,0,50.05-84.23Z"/><path class="cls-7" d="M414.15,273.08c-.64.13-1.27.29-1.91.47A29.76,29.76,0,0,0,400.41,280a69.26,69.26,0,0,0-7.63-6.71h0A53.51,53.51,0,0,1,414.15,273.08Z"/><path class="cls-7" d="M712.74,316.45a56.28,56.28,0,0,1-13.06,30.88h0a55.91,55.91,0,0,1-81.79,3.86,47.4,47.4,0,0,1-81.1,15.73,48,48,0,0,1-83.7-18.69A53.82,53.82,0,0,1,404.78,380a74.83,74.83,0,0,0,16.84-47.43,29.53,29.53,0,0,0,6.88-1.1,29.94,29.94,0,0,0,17.4-13.15,30,30,0,0,0,37.73-2.11,42.24,42.24,0,0,0,63.13,6.22,42.24,42.24,0,0,0,57.93-2.51,42,42,0,0,0,21.9-.27,42.5,42.5,0,0,0,23.72-64.43,56.13,56.13,0,0,1,62.43,61.21Z"/><path class="cls-7" d="M626.59,319.67a42,42,0,0,1-21.9.27,42.24,42.24,0,0,1-57.93,2.51,42.24,42.24,0,0,1-63.13-6.22,30,30,0,0,1-37.73,2.11,29.94,29.94,0,0,1-17.4,13.15,29.53,29.53,0,0,1-6.88,1.1q0-3.68-.35-7.43A74,74,0,0,0,400.41,280a29.76,29.76,0,0,1,11.83-6.49c.64-.18,1.27-.34,1.91-.47a53.9,53.9,0,0,1,42.51,41.74s0,.08,0,.13a47.94,47.94,0,0,1,79.78-9.37,47.36,47.36,0,0,1,62.25-9.45q1.89,1.23,3.61,2.6a56.1,56.1,0,0,1,43-42.66c1.67-.36,3.34-.64,5-.83a42.5,42.5,0,0,1-23.72,64.43Z"/><path class="cls-8" d="M626.59,319.67a42,42,0,0,1-21.9.27,42.24,42.24,0,0,1-57.93,2.51,42.24,42.24,0,0,1-63.13-6.22,30,30,0,0,1-37.73,2.11,29.94,29.94,0,0,1-17.4,13.15,29.53,29.53,0,0,1-6.88,1.1q0-3.68-.35-7.43A74,74,0,0,0,400.41,280a29.76,29.76,0,0,1,11.83-6.49c.64-.18,1.27-.34,1.91-.47a29.85,29.85,0,0,1,23.78,5,30,30,0,0,1,43.55-8.24,42.24,42.24,0,0,1,64.1-10.63,42.21,42.21,0,0,1,39.25-10,42.38,42.38,0,1,1,41.76,70.46Z"/><path class="cls-9" d="M311.34,24.77a50.56,50.56,0,0,0-48.45,16,60.84,60.84,0,0,0-112.82,2.42,51.64,51.64,0,1,0,22.8,71.92,60.85,60.85,0,0,0,84.07-15.65,50.58,50.58,0,1,0,54.4-74.67Z"/><circle class="cls-6" cx="337.81" cy="110.51" r="69.8"/><path class="cls-6" d="M300.12,114.06A53.74,53.74,0,0,0,276.49,117,72.83,72.83,0,0,0,149.28,71.87,83.76,83.76,0,1,0,152.47,172a72.76,72.76,0,0,0,90.08,9.87,54,54,0,1,0,57.57-67.78Z"/><path class="cls-3" d="M257.19,127.67a38.42,38.42,0,0,0-38.73,2,46.24,46.24,0,0,0-83.18-20.94A39.25,39.25,0,1,0,137.52,166a46.24,46.24,0,0,0,64.76,5.45,38.45,38.45,0,1,0,54.91-43.78Z"/><g class="cls-10"><path class="cls-5" d="M231.49,317.67a47.94,47.94,0,0,1-23.55,31.14c-20.56,11.15-45.43,4.57-58.65-14.45a39.6,39.6,0,0,1-7.61,5.4A38,38,0,0,1,95,331.42c6.6-14.87,19.57-26.42,36.07-30.11,22.66-5.06,45,6.28,55.81,26.36a59.1,59.1,0,0,1,21.4-9.54A57.94,57.94,0,0,1,231.49,317.67Z"/><path class="cls-4" d="M352.66,405.48a49.94,49.94,0,0,1-27.31,16.67c-18.49,4.13-36.77-2.89-48.46-16.72-7.53,18.34-23.14,32.7-43.21,37.19-29.81,6.65-59.17-10.77-69.6-39.71A50.24,50.24,0,0,1,152.63,407a49.33,49.33,0,0,1-33-4.08,83.36,83.36,0,0,0,43.68-30c15,17.63,37.57,27.76,61.73,25.22,27.27-2.87,49.51-21.12,59.64-45.72C293.13,383.82,321,405.92,352.66,405.48Z"/><path class="cls-6" d="M421.62,332.59A74.83,74.83,0,0,1,404.78,380a68.65,68.65,0,0,1-46,25.1q-3.09.33-6.13.36c-31.71.44-59.53-21.66-68-53.1C274.52,377,252.28,395.23,225,398.1c-24.16,2.54-46.74-7.59-61.73-25.22a83.36,83.36,0,0,1-43.68,30h0a80.23,80.23,0,0,1-13.44,2.58c-46,4.84-87.1-30.28-91.72-78.43s28.94-91.11,75-96c29.51-3.09,57,10.23,74.1,32.88a46.84,46.84,0,0,0-12,10.43,38,38,0,0,0-46-7.56C86.3,277.28,78.79,302.07,88.77,322.2A41.12,41.12,0,0,0,95,331.42a38,38,0,0,0,46.68,8.34,39.6,39.6,0,0,0,7.61-5.4c13.22,19,38.09,25.6,58.65,14.45a49,49,0,0,0,24.52-36.35,37,37,0,0,0,38.73,2C290,304.28,297.4,280,287.63,260.29a38.79,38.79,0,0,0-23.23-20.06,53.46,53.46,0,0,1,38.93-23.94c27.48-2.89,52.23,16.31,58.11,43.83a67.9,67.9,0,0,1,31.34,13.21,69.26,69.26,0,0,1,7.63,6.71,74,74,0,0,1,20.86,45.12Q421.63,328.91,421.62,332.59Z"/><path class="cls-6" d="M271.19,314.5a37,37,0,0,1-38.73-2,49,49,0,0,1-24.52,36.35c-20.56,11.15-45.43,4.57-58.65-14.45a39.6,39.6,0,0,1-7.61,5.4A38,38,0,0,1,95,331.42a41.12,41.12,0,0,1-6.23-9.22c-10-20.13-2.47-44.92,16.78-55.35a38,38,0,0,1,46,7.56,46.84,46.84,0,0,1,12-10.43c1,1.36,2,2.75,3,4.18a73.86,73.86,0,0,1,11.68-9.85,70.37,70.37,0,0,1,51.65-11.19h0a70.78,70.78,0,0,1,26.74,10.72,57.83,57.83,0,0,1,7.85-17.61,38.79,38.79,0,0,1,23.23,20.06C297.4,280,290,304.28,271.19,314.5Z"/><path class="cls-3" d="M271.19,314.5a37,37,0,0,1-38.73-2,49,49,0,0,1-24.52,36.35c-20.56,11.15-45.43,4.57-58.65-14.45a39.6,39.6,0,0,1-7.61,5.4A38,38,0,0,1,95,331.42a41.12,41.12,0,0,1-6.23-9.22c-10-20.13-2.47-44.92,16.78-55.35a38,38,0,0,1,46,7.56,46.84,46.84,0,0,1,12-10.43c.62-.36,1.24-.72,1.88-1.07a44.6,44.6,0,0,1,50.91,5.8,40.39,40.39,0,0,1,13.51-21.59h0a38.26,38.26,0,0,1,6-4,36.83,36.83,0,0,1,28.6-2.86,38.79,38.79,0,0,1,23.23,20.06C297.4,280,290,304.28,271.19,314.5Z"/></g></g></g></svg>