<svg xmlns="http://www.w3.org/2000/svg" viewBox="0 0 509.79 241.99"><defs><style>.cls-1{opacity:0.36;}.cls-2{fill:#fafcfc;}</style></defs><title>Asset 100</title><g id="Layer_2" data-name="Layer 2"><g id="레이어_1" data-name="레이어 1"><g class="cls-1"><path class="cls-2" d="M0,25.81A25.78,25.78,0,0,1,25.81,0H380.73a25.81,25.81,0,1,1,0,51.62h-42.4c-13.39,0-24.2,10.1-24.2,22.59s10.81,22.58,24.2,22.58H484a25.82,25.82,0,1,1,0,51.63H348.46v.16C336.39,149.84,327,159.39,327,171s9.35,21.17,21.42,22.43v.16h74.21a24.2,24.2,0,0,1,0,48.4H222.18a24.2,24.2,0,0,1,0-48.4h58.53c13.35,0,24.19-10.1,24.19-22.59s-10.84-22.58-24.19-22.58H129.06a25.82,25.82,0,1,1,0-51.63h87.12c13.35,0,24.19-10.09,24.19-22.58s-10.84-22.59-24.19-22.59H25.81A25.8,25.8,0,0,1,0,25.81Z"/></g></g></g></svg>