<svg xmlns="http://www.w3.org/2000/svg" viewBox="0 0 509.79 241.99"><defs><style>.cls-1{fill:#ecf5f2;}</style></defs><title>Asset 102</title><g id="Layer_2" data-name="Layer 2"><g id="레이어_1" data-name="레이어 1"><path class="cls-1" d="M509.79,216.18A25.78,25.78,0,0,1,484,242H129.06a25.82,25.82,0,1,1,0-51.63h42.4c13.39,0,24.19-10.1,24.19-22.58s-10.8-22.59-24.19-22.59H25.81a25.81,25.81,0,1,1,0-51.62H161.32v-.16C173.39,92.15,182.75,82.6,182.75,71s-9.36-21.16-21.43-22.42V48.4H87.12a24.2,24.2,0,0,1,0-48.4H287.61a24.2,24.2,0,0,1,0,48.4H229.08c-13.36,0-24.2,10.1-24.2,22.58s10.84,22.59,24.2,22.59H380.73a25.81,25.81,0,1,1,0,51.62H293.61c-13.36,0-24.2,10.1-24.2,22.59s10.84,22.58,24.2,22.58H484A25.81,25.81,0,0,1,509.79,216.18Z"/></g></g></svg>