<svg xmlns="http://www.w3.org/2000/svg" viewBox="0 0 176 510.78"><defs><style>.cls-1{fill:#e2df83;}.cls-2{fill:#051b23;}</style></defs><title>Asset 77</title><g id="Layer_2" data-name="Layer 2"><g id="레이어_1" data-name="레이어 1"><rect class="cls-1" x="42" y="51.78" width="94" height="50"/><path class="cls-2" d="M176,510.78l-32.29-325.9c12.11-4.31,23.41-12.92,23.41-12.92V143.17c-9.15-6.46-23.41-9.42-23.41-9.42V54.63L96,21.26h-.06V15a5.8,5.8,0,0,0,1.87-4.17C97.81,7.25,94.32,0,90,0s-7.79,7.25-7.79,10.8A5.76,5.76,0,0,0,84.1,15v6.39L36.33,55.17v78.56c-18.57,5.64-19.11,9.44-19.11,9.44V172c5.25,7.45,19.11,13.46,19.11,13.46L0,510.78ZM117.74,52.34l17.89,4.85V69.57l-17.89-4.85Zm0,15.07,17.89,4.85V84.64l-17.89-4.85Zm0,15.07,17.89,4.85V99.71l-17.89-4.85ZM92,51.78h22.6V64.59H92Zm0,15.77h22.6V79.12H92Zm-.27,14.26h22.87V94.19H91.77Zm-26.38-30H88.54V64.59H65.39Zm0,15.77H88.54V79.12H65.39Zm0,14.26H88.54V94.19H65.39ZM43.73,57.19l18.44-4.85V64.72L43.73,69.57Zm0,15.07,18.44-4.85V79.79L43.73,84.64Zm0,15.07,18.44-4.85V94.86L43.73,99.71Z"/></g></g></svg>