<svg xmlns="http://www.w3.org/2000/svg" viewBox="0 0 341.28 162"><defs><style>.cls-1{opacity:0.95;}.cls-2{fill:#fafcfc;}</style></defs><title>Asset 101</title><g id="Layer_2" data-name="Layer 2"><g id="레이어_1" data-name="레이어 1"><g class="cls-1"><path class="cls-2" d="M0,17.28A17.24,17.24,0,0,1,17.28,0h237.6a17.28,17.28,0,1,1,0,34.56H226.5c-9,0-16.2,6.76-16.2,15.12s7.23,15.12,16.2,15.12H324a17.28,17.28,0,1,1,0,34.56H233.28v.11c-8.08.84-14.34,7.23-14.34,15s6.26,14.17,14.34,15v.11H283a16.2,16.2,0,1,1,0,32.4H148.74a16.2,16.2,0,0,1,0-32.4h39.18c8.94,0,16.2-6.76,16.2-15.12s-7.26-15.12-16.2-15.12H86.4a17.28,17.28,0,1,1,0-34.56h58.32c8.94,0,16.2-6.76,16.2-15.12s-7.26-15.12-16.2-15.12H17.28A17.27,17.27,0,0,1,0,17.28Z"/></g></g></g></svg>