<svg xmlns="http://www.w3.org/2000/svg" viewBox="0 0 175 111.5"><defs><style>.cls-1{fill:none;stroke:#fff;stroke-miterlimit:10;stroke-width:3px;stroke-dasharray:12;}</style></defs><g id="레이어_2" data-name="레이어 2"><g id="레이어_1-2" data-name="레이어 1"><path class="cls-1" d="M135,1.5H40A38.49,38.49,0,0,0,1.5,40V53A38.49,38.49,0,0,0,40,91.5h82.15l9.82,17,10.2-17.67A38.51,38.51,0,0,0,173.5,53V40A38.49,38.49,0,0,0,135,1.5Z"/><path d="M49,35.16V57H45.16V47.78l.14-3.63-1.1,1.66-4.22,5-4.21-5-1.1-1.66.17,3.63V57H31V35.16h.31L40,45.4l8.62-10.24Z"/><path d="M56,56.33a6.15,6.15,0,0,1-2.37-2.82,10.19,10.19,0,0,1-.74-4,10,10,0,0,1,.84-4.15,6.82,6.82,0,0,1,2.45-3A6.64,6.64,0,0,1,60,41.28c2.22,0,3.8.64,4.76,1.92a9.55,9.55,0,0,1,1.43,5.72c0,.49,0,1-.06,1.66H56.89a4.39,4.39,0,0,0,1,2.88,3.64,3.64,0,0,0,2.78,1,5.77,5.77,0,0,0,2-.42,4.06,4.06,0,0,0,1.61-1l1.23,2.92a9.73,9.73,0,0,1-5.54,1.45A7.27,7.27,0,0,1,56,56.33Zm6.31-8.15a6.16,6.16,0,0,0-.56-3.12,1.84,1.84,0,0,0-1.63-.85,2.7,2.7,0,0,0-2.31,1.11,5.12,5.12,0,0,0-.92,2.86Z"/><path d="M75.15,60.53a3.89,3.89,0,0,0,3-1,4.56,4.56,0,0,0,1-3.25v-2.4a5.25,5.25,0,0,1-1.34,2.37,3.56,3.56,0,0,1-2.66,1,6.28,6.28,0,0,1-3.21-.81,5.52,5.52,0,0,1-2.2-2.57,10.61,10.61,0,0,1-.81-4.44,11.1,11.1,0,0,1,.8-4.53,5.72,5.72,0,0,1,2.18-2.67A5.83,5.83,0,0,1,75,41.28a4.58,4.58,0,0,1,2.07.44,3.59,3.59,0,0,1,2,2.58l.43-2.65h3v14.6a9.69,9.69,0,0,1-.8,4.09A5.78,5.78,0,0,1,79.37,63a7.54,7.54,0,0,1-3.85.92,10.65,10.65,0,0,1-3-.41,9.84,9.84,0,0,1-2.26-.95L72,59.64A6,6,0,0,0,75.15,60.53ZM78,52.89a7.15,7.15,0,0,0,.75-3.6A7.94,7.94,0,0,0,78,45.7,2.22,2.22,0,0,0,76,44.39a2.65,2.65,0,0,0-1.55.5,3.36,3.36,0,0,0-1.15,1.59,7.84,7.84,0,0,0-.44,2.84,6.57,6.57,0,0,0,.82,3.62,2.54,2.54,0,0,0,2.2,1.22A2.37,2.37,0,0,0,78,52.89Z"/><path d="M87.78,56.8a3.74,3.74,0,0,1-1.41-1.66,5.56,5.56,0,0,1-.47-2.34,4.07,4.07,0,0,1,.74-2.24,5.73,5.73,0,0,1,2.66-1.9,13.91,13.91,0,0,1,5.16-.79v-.7a2.89,2.89,0,0,0-.61-2,2.75,2.75,0,0,0-2.13-.69,6.76,6.76,0,0,0-2.35.41,4,4,0,0,0-1.69,1l-1.23-3a10.31,10.31,0,0,1,2.6-1.2,10.87,10.87,0,0,1,3.31-.5,7.57,7.57,0,0,1,3.49.68,3.81,3.81,0,0,1,1.81,1.91,7.8,7.8,0,0,1,.52,3.05V57H94.89l-.28-2.19a5.53,5.53,0,0,1-1.93,2,5.12,5.12,0,0,1-2.6.65A4.09,4.09,0,0,1,87.78,56.8Zm5.43-2.91a4.2,4.2,0,0,0,1.25-1.43V50.28a6.25,6.25,0,0,0-.74,0,7.14,7.14,0,0,0-2.78.51,1.74,1.74,0,0,0-1.23,1.67A2.11,2.11,0,0,0,90.2,54a2.08,2.08,0,0,0,1.52.47A2.56,2.56,0,0,0,93.21,53.89Z"/><path d="M115.77,47.39a6,6,0,0,1,.89,3.41,5.53,5.53,0,0,1-2,4.57q-2,1.62-6.21,1.62h-5.82V35.53h5.72q7.25,0,7.24,5.72a5.48,5.48,0,0,1-.63,2.56,4,4,0,0,1-1.88,1.82A4.28,4.28,0,0,1,115.77,47.39Zm-5-8.18a4.42,4.42,0,0,0-2.47-.64H106.5v6H109a2.52,2.52,0,0,0,1.6-.48,2.84,2.84,0,0,0,.9-1.19,4.16,4.16,0,0,0,.27-1.47A2.41,2.41,0,0,0,110.81,39.21Zm.75,14a2.92,2.92,0,0,0,1-2.6A2.71,2.71,0,0,0,111.52,48a5.35,5.35,0,0,0-2.84-.66H106.5v6.5h2.37A4.67,4.67,0,0,0,111.56,53.18Z"/><path d="M122.06,56.34a6,6,0,0,1-2.41-2.75,10.05,10.05,0,0,1-.84-4.3,10,10,0,0,1,.86-4.31,6.1,6.1,0,0,1,2.48-2.75,7.55,7.55,0,0,1,3.87-.95,7,7,0,0,1,3.79,1A6.11,6.11,0,0,1,132.18,45a10.46,10.46,0,0,1,.8,4.25,10.12,10.12,0,0,1-.83,4.24,6.26,6.26,0,0,1-2.43,2.79,7.19,7.19,0,0,1-3.82,1A7.3,7.3,0,0,1,122.06,56.34ZM128.14,53a7.37,7.37,0,0,0,.74-3.68,7.43,7.43,0,0,0-.74-3.7A2.4,2.4,0,0,0,126,44.33a2.54,2.54,0,0,0-2.28,1.19,7.15,7.15,0,0,0-.77,3.77,7.06,7.06,0,0,0,.77,3.76A2.55,2.55,0,0,0,126,54.22,2.41,2.41,0,0,0,128.14,53Z"/><path d="M137.81,51.32,139,49.44l-1.17-2-3.14-5.82H139l1.85,3.88.77,1.79.8-1.79,1.82-3.88h4.09l-3.08,5.7-1.1,1.94,1.1,1.85L148.59,57h-4.34L142,52.86l-.68-1.38-.55,1.38L138.89,57h-4.25Z"/></g></g></svg>