<svg xmlns="http://www.w3.org/2000/svg" viewBox="0 0 172 107"><defs><style>.cls-1{fill:#fff;}</style></defs><g id="레이어_2" data-name="레이어 2"><g id="레이어_1-2" data-name="레이어 1"><rect class="cls-1" width="172" height="90" rx="38.49"/><polygon class="cls-1" points="130.46 107 141.72 87.5 119.2 87.5 130.46 107"/><path d="M47.48,33.66V55.49H43.66V46.28l.14-3.63-1.1,1.66-4.22,5-4.21-5-1.1-1.66.17,3.63v9.21H29.52V33.66h.31L38.52,43.9l8.62-10.24Z"/><path d="M54.47,54.83A6.15,6.15,0,0,1,52.1,52a10.19,10.19,0,0,1-.74-4,10,10,0,0,1,.84-4.15,6.82,6.82,0,0,1,2.45-3,6.64,6.64,0,0,1,3.85-1.11c2.22,0,3.8.64,4.76,1.92a9.55,9.55,0,0,1,1.43,5.72c0,.49,0,1-.06,1.66H55.39a4.39,4.39,0,0,0,1,2.88,3.64,3.64,0,0,0,2.78,1,5.77,5.77,0,0,0,2-.42,4.06,4.06,0,0,0,1.61-1l1.23,2.92a9.73,9.73,0,0,1-5.54,1.45A7.27,7.27,0,0,1,54.47,54.83Zm6.31-8.15a6.16,6.16,0,0,0-.56-3.12,1.84,1.84,0,0,0-1.63-.85,2.7,2.7,0,0,0-2.31,1.11,5.12,5.12,0,0,0-.92,2.86Z"/><path d="M73.65,59a3.89,3.89,0,0,0,3-1,4.56,4.56,0,0,0,1-3.25v-2.4a5.25,5.25,0,0,1-1.34,2.37,3.56,3.56,0,0,1-2.66,1,6.28,6.28,0,0,1-3.21-.81,5.52,5.52,0,0,1-2.2-2.57,10.61,10.61,0,0,1-.81-4.44,11.1,11.1,0,0,1,.8-4.53,5.72,5.72,0,0,1,2.18-2.67,5.83,5.83,0,0,1,3.15-.87,4.58,4.58,0,0,1,2.07.44,3.59,3.59,0,0,1,2,2.58L78,40.15h3v14.6a9.69,9.69,0,0,1-.8,4.09,5.83,5.83,0,0,1-2.37,2.63,7.54,7.54,0,0,1-3.85.92A10.65,10.65,0,0,1,71,62,9.84,9.84,0,0,1,68.72,61l1.73-2.89A6,6,0,0,0,73.65,59Zm2.82-7.64a7.15,7.15,0,0,0,.75-3.6,7.94,7.94,0,0,0-.68-3.59,2.22,2.22,0,0,0-2.06-1.31,2.65,2.65,0,0,0-1.55.5A3.36,3.36,0,0,0,71.78,45a7.84,7.84,0,0,0-.44,2.84,6.57,6.57,0,0,0,.82,3.62,2.54,2.54,0,0,0,2.2,1.22A2.37,2.37,0,0,0,76.47,51.39Z"/><path d="M86.28,55.3a3.74,3.74,0,0,1-1.41-1.66,5.56,5.56,0,0,1-.47-2.34,4.07,4.07,0,0,1,.74-2.24,5.73,5.73,0,0,1,2.66-1.9A13.91,13.91,0,0,1,93,46.37v-.7a2.89,2.89,0,0,0-.61-2A2.75,2.75,0,0,0,90.22,43a6.76,6.76,0,0,0-2.35.41,4,4,0,0,0-1.69,1l-1.23-3a10.31,10.31,0,0,1,2.6-1.2,10.87,10.87,0,0,1,3.31-.5,7.57,7.57,0,0,1,3.49.68,3.81,3.81,0,0,1,1.81,1.91,7.8,7.8,0,0,1,.52,3.05V55.49H93.39l-.28-2.19a5.53,5.53,0,0,1-1.93,2,5.12,5.12,0,0,1-2.6.65A4.09,4.09,0,0,1,86.28,55.3Zm5.43-2.91A4.2,4.2,0,0,0,93,51V48.78a6.25,6.25,0,0,0-.74,0,7.14,7.14,0,0,0-2.78.51,1.74,1.74,0,0,0-1.23,1.67,2.11,2.11,0,0,0,.49,1.56,2.08,2.08,0,0,0,1.52.47A2.56,2.56,0,0,0,91.71,52.39Z"/><path d="M114.27,45.89a6,6,0,0,1,.89,3.41,5.53,5.53,0,0,1-2,4.57q-2,1.62-6.21,1.62h-5.82V34h5.72q7.25,0,7.24,5.72a5.48,5.48,0,0,1-.63,2.56,4,4,0,0,1-1.88,1.82A4.28,4.28,0,0,1,114.27,45.89Zm-5-8.18a4.42,4.42,0,0,0-2.47-.64H105v6h2.49a2.52,2.52,0,0,0,1.6-.48,2.84,2.84,0,0,0,.9-1.19,4.16,4.16,0,0,0,.27-1.47A2.41,2.41,0,0,0,109.31,37.71Zm.75,14a2.92,2.92,0,0,0,1-2.6A2.71,2.71,0,0,0,110,46.54a5.35,5.35,0,0,0-2.84-.66H105v6.5h2.37A4.67,4.67,0,0,0,110.06,51.68Z"/><path d="M120.56,54.84a6,6,0,0,1-2.41-2.75,10.05,10.05,0,0,1-.84-4.3,10,10,0,0,1,.86-4.31,6.1,6.1,0,0,1,2.48-2.75,7.55,7.55,0,0,1,3.87-.95,7,7,0,0,1,3.79,1,6.11,6.11,0,0,1,2.37,2.78,10.46,10.46,0,0,1,.8,4.25,10.12,10.12,0,0,1-.83,4.24,6.26,6.26,0,0,1-2.43,2.79,7.19,7.19,0,0,1-3.82,1A7.3,7.3,0,0,1,120.56,54.84Zm6.08-3.37a7.37,7.37,0,0,0,.74-3.68,7.43,7.43,0,0,0-.74-3.7,2.4,2.4,0,0,0-2.18-1.26A2.54,2.54,0,0,0,122.18,44a7.15,7.15,0,0,0-.77,3.77,7.06,7.06,0,0,0,.77,3.76,2.55,2.55,0,0,0,2.28,1.17A2.41,2.41,0,0,0,126.64,51.47Z"/><path d="M136.31,49.82l1.14-1.88-1.17-2-3.14-5.82h4.37L139.36,44l.77,1.79.8-1.79,1.82-3.88h4.09l-3.08,5.7-1.1,1.94,1.1,1.85,3.33,5.85h-4.34l-2.22-4.13L139.85,50l-.55,1.38-1.91,4.13h-4.25Z"/></g></g></svg>