<svg xmlns="http://www.w3.org/2000/svg" viewBox="0 0 165.84 88.42"><defs><style>.cls-1{fill:none;stroke:#fff;stroke-miterlimit:10;stroke-width:3px;stroke-dasharray:11;}</style></defs><g id="레이어_2" data-name="레이어 2"><g id="레이어_1-2" data-name="레이어 1"><path class="cls-1" d="M128.89,1.5H37A35.45,35.45,0,0,0,1.5,37h0A35.45,35.45,0,0,0,37,72.4h78.77L125,85.79l9.62-13.86a35.44,35.44,0,0,0,29.71-35h0A35.45,35.45,0,0,0,128.89,1.5Z"/><path d="M32.83,32.39V45.82h-.18l-6.31-7.19-.59-.76.1,1.83v5.86H23.52V32.17h.21L30,39.42l.66.86-.1-1.81V32.39Z"/><path d="M36.29,45.44a2.32,2.32,0,0,1-.86-1A3.45,3.45,0,0,1,35.14,43a2.45,2.45,0,0,1,.46-1.38,3.5,3.5,0,0,1,1.63-1.16A8.5,8.5,0,0,1,40.39,40v-.44a1.78,1.78,0,0,0-.37-1.2,1.7,1.7,0,0,0-1.31-.42,4.2,4.2,0,0,0-1.44.25,2.45,2.45,0,0,0-1,.62L35.48,37a6.1,6.1,0,0,1,1.6-.73,6.69,6.69,0,0,1,2-.31,4.6,4.6,0,0,1,2.14.42,2.35,2.35,0,0,1,1.1,1.17,4.71,4.71,0,0,1,.33,1.87v6.18h-2l-.17-1.34a3.31,3.31,0,0,1-1.18,1.2,3.08,3.08,0,0,1-1.59.4A2.49,2.49,0,0,1,36.29,45.44Zm3.33-1.78a2.51,2.51,0,0,0,.77-.88V41.44l-.45,0a4.38,4.38,0,0,0-1.71.32,1.06,1.06,0,0,0-.75,1,1.28,1.28,0,0,0,.3,1,1.31,1.31,0,0,0,.93.29A1.58,1.58,0,0,0,39.62,43.66Z"/><path d="M43.32,36.15H46l1.63,4.7L48,42.4l.38-1.55L50,36.15h2.49l-3.63,9.41H47.13Z"/><path d="M55,45.16a3.79,3.79,0,0,1-1.45-1.74A6.15,6.15,0,0,1,53.12,41a6.24,6.24,0,0,1,.51-2.55,4.35,4.35,0,0,1,1.51-1.82,4.1,4.1,0,0,1,2.36-.68,3.43,3.43,0,0,1,2.92,1.18,5.85,5.85,0,0,1,.88,3.51c0,.3,0,.64,0,1H55.59a2.67,2.67,0,0,0,.64,1.76,2.25,2.25,0,0,0,1.71.62,3.54,3.54,0,0,0,1.25-.26,2.35,2.35,0,0,0,1-.63l.76,1.79a6,6,0,0,1-3.4.89A4.52,4.52,0,0,1,55,45.16Zm3.87-5a3.75,3.75,0,0,0-.35-1.92,1.11,1.11,0,0,0-1-.52,1.67,1.67,0,0,0-1.42.68,3.15,3.15,0,0,0-.57,1.76Z"/><path d="M63.43,36.15h2.14l.11,1.66a3.19,3.19,0,0,1,.95-1.25A2.88,2.88,0,0,1,68.47,36a2.41,2.41,0,0,1,.87.15l-.53,2.47a1,1,0,0,0-.38-.23,1.73,1.73,0,0,0-.54-.07,2.19,2.19,0,0,0-1.14.28,2.09,2.09,0,0,0-.72.65,1.17,1.17,0,0,0-.24.6v5.67H63.43Z"/><path d="M88.25,32.39l-4.37,13.2h-.3L80.5,38l-3,7.54h-.32l-4.4-13.18h2.61L77.64,40l2.75-7.64h.32L83.5,40l2.16-7.61Z"/><path d="M90,45.16a3.85,3.85,0,0,1-1.45-1.74A6.33,6.33,0,0,1,88.1,41a6.24,6.24,0,0,1,.51-2.55,4.35,4.35,0,0,1,1.51-1.82,4.1,4.1,0,0,1,2.36-.68A3.43,3.43,0,0,1,95.4,37.1a5.86,5.86,0,0,1,.87,3.51q0,.45,0,1H90.57a2.67,2.67,0,0,0,.64,1.76,2.23,2.23,0,0,0,1.7.62,3.59,3.59,0,0,0,1.26-.26,2.35,2.35,0,0,0,1-.63l.76,1.79a6,6,0,0,1-3.4.89A4.56,4.56,0,0,1,90,45.16Zm3.88-5a3.75,3.75,0,0,0-.35-1.92,1.11,1.11,0,0,0-1-.52,1.68,1.68,0,0,0-1.43.68,3.23,3.23,0,0,0-.56,1.76Z"/><path d="M102,45.53a2.45,2.45,0,0,1-.86-.77,3.25,3.25,0,0,1-.49-1.07v1.87H98.58V31.2h2.26v4.95l-.18,1.63a1.93,1.93,0,0,1,.58-1,2.76,2.76,0,0,1,1-.64,3.6,3.6,0,0,1,1.14-.2,3.06,3.06,0,0,1,2.66,1.24,6.23,6.23,0,0,1,.9,3.67,6.84,6.84,0,0,1-.5,2.76,3.71,3.71,0,0,1-1.35,1.68,3.32,3.32,0,0,1-1.91.56A2.32,2.32,0,0,1,102,45.53Zm1.54-1.9a2.21,2.21,0,0,0,.67-1,5.36,5.36,0,0,0,.25-1.79,5,5,0,0,0-.24-1.68,2.12,2.12,0,0,0-.65-1,1.44,1.44,0,0,0-.9-.32,1.34,1.34,0,0,0-1,.41,2.55,2.55,0,0,0-.61,1.12,5.66,5.66,0,0,0-.21,1.61,4.94,4.94,0,0,0,.22,1.56,2.42,2.42,0,0,0,.6,1,1.33,1.33,0,0,0,.94.37A1.48,1.48,0,0,0,103.55,43.63Z"/><path d="M110.61,45.48a1.92,1.92,0,0,1-.84-1.08,6.19,6.19,0,0,1-.24-1.9V38.13h-1.22v-2h1.32l.13-2,2.06-.89v2.87h2.32v2h-2.32v4.31a2.07,2.07,0,0,0,.22,1.12.7.7,0,0,0,.65.33,2,2,0,0,0,.84-.2,2.89,2.89,0,0,0,.76-.46l.46,1.91a3.79,3.79,0,0,1-1.2.5,5.57,5.57,0,0,1-1.3.2A3.17,3.17,0,0,1,110.61,45.48Z"/><path d="M117.7,45.16a3.74,3.74,0,0,1-1.48-1.68,6.28,6.28,0,0,1-.51-2.64,6.14,6.14,0,0,1,.52-2.65,3.72,3.72,0,0,1,1.52-1.68,4.64,4.64,0,0,1,2.38-.59,4.32,4.32,0,0,1,2.33.6,3.76,3.76,0,0,1,1.45,1.71,6.5,6.5,0,0,1,.49,2.61,6.19,6.19,0,0,1-.51,2.6,3.84,3.84,0,0,1-1.49,1.71,4.39,4.39,0,0,1-2.35.6A4.48,4.48,0,0,1,117.7,45.16Zm3.73-2.07a4.51,4.51,0,0,0,.45-2.25,4.62,4.62,0,0,0-.45-2.28,1.48,1.48,0,0,0-1.34-.77,1.58,1.58,0,0,0-1.4.73,4.45,4.45,0,0,0-.47,2.32,4.37,4.37,0,0,0,.47,2.3,1.57,1.57,0,0,0,1.4.72A1.48,1.48,0,0,0,121.43,43.09Z"/><path d="M128,45.16a3.76,3.76,0,0,1-1.49-1.68,6.28,6.28,0,0,1-.51-2.64,6.14,6.14,0,0,1,.53-2.65A3.66,3.66,0,0,1,128,36.51a4.58,4.58,0,0,1,2.37-.59,4.29,4.29,0,0,1,2.33.6,3.76,3.76,0,0,1,1.45,1.71,6.33,6.33,0,0,1,.49,2.61,6.19,6.19,0,0,1-.51,2.6,3.78,3.78,0,0,1-1.49,1.71,4.38,4.38,0,0,1-2.34.6A4.45,4.45,0,0,1,128,45.16Zm3.72-2.07a4.4,4.4,0,0,0,.46-2.25,4.5,4.5,0,0,0-.46-2.28,1.46,1.46,0,0,0-1.33-.77,1.57,1.57,0,0,0-1.4.73,4.35,4.35,0,0,0-.47,2.32,4.27,4.27,0,0,0,.47,2.3,1.56,1.56,0,0,0,1.4.72A1.46,1.46,0,0,0,131.7,43.09Z"/><path d="M144,36.82a4,4,0,0,1,.71,2.52v6.22h-2.42v-6a2.16,2.16,0,0,0-.34-1.28,1.14,1.14,0,0,0-1-.48,1.59,1.59,0,0,0-.82.23,1.61,1.61,0,0,0-.61.63,1.83,1.83,0,0,0-.23.9v6h-2.42V36.15h2.19l0,1.24a3.13,3.13,0,0,1,2.77-1.47A2.54,2.54,0,0,1,144,36.82Z"/></g></g></svg>