<svg xmlns="http://www.w3.org/2000/svg" viewBox="0 0 162.84 84.29"><defs><style>.cls-1{fill:#fff;}</style></defs><g id="레이어_2" data-name="레이어 2"><g id="레이어_1-2" data-name="레이어 1"><rect class="cls-1" width="162.84" height="70.9" rx="35.45"/><polygon class="cls-1" points="123.51 84.29 134.17 68.93 112.85 68.93 123.51 84.29"/><path d="M31.33,30.89V44.32h-.18l-6.31-7.19-.59-.76.1,1.83v5.86H22V30.67h.21l6.22,7.25.66.86L29,37V30.89Z"/><path d="M34.79,43.94a2.32,2.32,0,0,1-.86-1,3.45,3.45,0,0,1-.29-1.43,2.45,2.45,0,0,1,.46-1.38A3.5,3.5,0,0,1,35.73,39a8.5,8.5,0,0,1,3.16-.48V38a1.78,1.78,0,0,0-.37-1.2,1.7,1.7,0,0,0-1.31-.42,4.2,4.2,0,0,0-1.44.25,2.45,2.45,0,0,0-1,.62L34,35.46a6.1,6.1,0,0,1,1.6-.73,6.69,6.69,0,0,1,2-.31,4.6,4.6,0,0,1,2.14.42A2.35,2.35,0,0,1,40.85,36a4.71,4.71,0,0,1,.33,1.87v6.18h-2L39,42.72a3.31,3.31,0,0,1-1.18,1.2,3.08,3.08,0,0,1-1.59.4A2.49,2.49,0,0,1,34.79,43.94Zm3.33-1.78a2.51,2.51,0,0,0,.77-.88V39.94l-.45,0a4.38,4.38,0,0,0-1.71.32,1.06,1.06,0,0,0-.75,1,1.28,1.28,0,0,0,.3,1,1.31,1.31,0,0,0,.93.29A1.58,1.58,0,0,0,38.12,42.16Z"/><path d="M41.82,34.65h2.64l1.63,4.7.41,1.55.38-1.55,1.57-4.7h2.49l-3.63,9.41H45.63Z"/><path d="M53.53,43.66a3.79,3.79,0,0,1-1.45-1.74,6.15,6.15,0,0,1-.46-2.45,6.24,6.24,0,0,1,.51-2.55,4.35,4.35,0,0,1,1.51-1.82A4.1,4.1,0,0,1,56,34.42a3.43,3.43,0,0,1,2.92,1.18,5.85,5.85,0,0,1,.88,3.51c0,.3,0,.64,0,1H54.09a2.67,2.67,0,0,0,.64,1.76,2.25,2.25,0,0,0,1.71.62,3.54,3.54,0,0,0,1.25-.26,2.35,2.35,0,0,0,1-.63l.76,1.79a6,6,0,0,1-3.4.89A4.52,4.52,0,0,1,53.53,43.66Zm3.87-5a3.75,3.75,0,0,0-.35-1.92,1.11,1.11,0,0,0-1-.52,1.67,1.67,0,0,0-1.42.68,3.15,3.15,0,0,0-.57,1.76Z"/><path d="M61.93,34.65h2.14l.11,1.66a3.19,3.19,0,0,1,.95-1.25A2.88,2.88,0,0,1,67,34.54a2.41,2.41,0,0,1,.87.15l-.53,2.47a1,1,0,0,0-.38-.23,1.73,1.73,0,0,0-.54-.07,2.19,2.19,0,0,0-1.14.28,2.09,2.09,0,0,0-.72.65,1.17,1.17,0,0,0-.24.6v5.67H61.93Z"/><path d="M86.75,30.89l-4.37,13.2h-.3L79,36.53l-3,7.54h-.32l-4.4-13.18h2.61l2.29,7.64,2.75-7.64h.32L82,38.5l2.16-7.61Z"/><path d="M88.5,43.66a3.85,3.85,0,0,1-1.45-1.74,6.33,6.33,0,0,1-.45-2.45,6.24,6.24,0,0,1,.51-2.55,4.35,4.35,0,0,1,1.51-1.82A4.1,4.1,0,0,1,91,34.42,3.43,3.43,0,0,1,93.9,35.6a5.86,5.86,0,0,1,.87,3.51q0,.45,0,1H89.07a2.67,2.67,0,0,0,.64,1.76,2.23,2.23,0,0,0,1.7.62,3.59,3.59,0,0,0,1.26-.26,2.35,2.35,0,0,0,1-.63l.76,1.79a6,6,0,0,1-3.4.89A4.53,4.53,0,0,1,88.5,43.66Zm3.88-5A3.75,3.75,0,0,0,92,36.74a1.11,1.11,0,0,0-1-.52,1.68,1.68,0,0,0-1.43.68,3.23,3.23,0,0,0-.56,1.76Z"/><path d="M100.51,44a2.45,2.45,0,0,1-.86-.77,3.25,3.25,0,0,1-.49-1.07v1.87H97.08V29.7h2.26v4.95l-.18,1.63a1.93,1.93,0,0,1,.58-1,2.76,2.76,0,0,1,1-.64,3.6,3.6,0,0,1,1.14-.2,3.06,3.06,0,0,1,2.66,1.24,6.23,6.23,0,0,1,.9,3.67,6.84,6.84,0,0,1-.5,2.76,3.71,3.71,0,0,1-1.35,1.68,3.32,3.32,0,0,1-1.91.56A2.32,2.32,0,0,1,100.51,44Zm1.54-1.9a2.21,2.21,0,0,0,.67-1,5.36,5.36,0,0,0,.25-1.79,5,5,0,0,0-.24-1.68,2.12,2.12,0,0,0-.65-1,1.44,1.44,0,0,0-.9-.32,1.34,1.34,0,0,0-1,.41,2.55,2.55,0,0,0-.61,1.12,5.66,5.66,0,0,0-.21,1.61A4.94,4.94,0,0,0,99.6,41a2.42,2.42,0,0,0,.6,1,1.33,1.33,0,0,0,.94.37A1.48,1.48,0,0,0,102.05,42.13Z"/><path d="M109.11,44a1.92,1.92,0,0,1-.84-1.08A6.19,6.19,0,0,1,108,41V36.63h-1.22v-2h1.32l.13-2,2.06-.89v2.87h2.32v2h-2.32v4.31a2.07,2.07,0,0,0,.22,1.12.7.7,0,0,0,.65.33,2,2,0,0,0,.84-.2,2.89,2.89,0,0,0,.76-.46l.46,1.91a3.79,3.79,0,0,1-1.2.5,5.57,5.57,0,0,1-1.3.2A3.17,3.17,0,0,1,109.11,44Z"/><path d="M116.2,43.66A3.74,3.74,0,0,1,114.72,42a6.28,6.28,0,0,1-.51-2.64,6.14,6.14,0,0,1,.52-2.65A3.72,3.72,0,0,1,116.25,35a4.64,4.64,0,0,1,2.38-.59A4.32,4.32,0,0,1,121,35a3.76,3.76,0,0,1,1.45,1.71,6.5,6.5,0,0,1,.49,2.61,6.19,6.19,0,0,1-.51,2.6,3.84,3.84,0,0,1-1.49,1.71,4.39,4.39,0,0,1-2.35.6A4.48,4.48,0,0,1,116.2,43.66Zm3.73-2.07a4.51,4.51,0,0,0,.45-2.25,4.62,4.62,0,0,0-.45-2.28,1.48,1.48,0,0,0-1.34-.77,1.58,1.58,0,0,0-1.4.73,4.45,4.45,0,0,0-.47,2.32,4.37,4.37,0,0,0,.47,2.3,1.57,1.57,0,0,0,1.4.72A1.48,1.48,0,0,0,119.93,41.59Z"/><path d="M126.48,43.66A3.76,3.76,0,0,1,125,42a6.28,6.28,0,0,1-.51-2.64,6.14,6.14,0,0,1,.53-2.65A3.66,3.66,0,0,1,126.53,35a4.58,4.58,0,0,1,2.37-.59,4.29,4.29,0,0,1,2.33.6,3.76,3.76,0,0,1,1.45,1.71,6.33,6.33,0,0,1,.49,2.61,6.19,6.19,0,0,1-.51,2.6,3.78,3.78,0,0,1-1.49,1.71,4.38,4.38,0,0,1-2.34.6A4.45,4.45,0,0,1,126.48,43.66Zm3.72-2.07a4.4,4.4,0,0,0,.46-2.25,4.5,4.5,0,0,0-.46-2.28,1.46,1.46,0,0,0-1.33-.77,1.57,1.57,0,0,0-1.4.73,4.35,4.35,0,0,0-.47,2.32,4.27,4.27,0,0,0,.47,2.3,1.56,1.56,0,0,0,1.4.72A1.46,1.46,0,0,0,130.2,41.59Z"/><path d="M142.49,35.32a4,4,0,0,1,.71,2.52v6.22h-2.42v-6a2.16,2.16,0,0,0-.34-1.28,1.14,1.14,0,0,0-1-.48,1.59,1.59,0,0,0-.82.23,1.61,1.61,0,0,0-.61.63,1.83,1.83,0,0,0-.23.9v6h-2.42V34.65h2.19l0,1.24a3.13,3.13,0,0,1,2.77-1.47A2.54,2.54,0,0,1,142.49,35.32Z"/></g></g></svg>