<svg xmlns="http://www.w3.org/2000/svg" viewBox="0 0 186.42 115.97"><defs><style>.cls-1{fill:#a7e1ea;}</style></defs><g id="레이어_2" data-name="레이어 2"><g id="레이어_1-2" data-name="레이어 1"><rect class="cls-1" width="186.42" height="97.55" rx="38.49"/><polygon class="cls-1" points="141.4 115.97 153.6 94.84 129.19 94.84 141.4 115.97"/><path d="M51.16,55.8a.71.71,0,0,1,.09.15.08.08,0,0,1,0,.07l-.07,0-.08.05q-.08,0,0,.09s0,.08-.06.16a.06.06,0,0,0,0,.1s0,.06,0,.08a1.78,1.78,0,0,1-.34.44.66.66,0,0,0-.21,0l-.06,0-.09.11-.08.12a.19.19,0,0,1-.07.08s0,0-.08,0a.13.13,0,0,0-.11-.07.11.11,0,0,0-.1,0l-.08.07a.18.18,0,0,0,0,.08.09.09,0,0,0,0,.07.56.56,0,0,0,.21.08c.25.07.3.14.14.21a2.34,2.34,0,0,1-.88,0l-1.17-.08L47,57.69l-1.12,0H44.63c-.57,0-1.18,0-1.81.07l-1.9.14L39.11,58c-.57,0-1.09.1-1.55.16s-.85.09-1.17.14-.52.08-.61.1a.38.38,0,0,1-.19,0s-.06,0-.07-.08a.87.87,0,0,1,0-.22,3.2,3.2,0,0,0-.08-.41,2.45,2.45,0,0,0-.12-.31,1.73,1.73,0,0,1-.12-.25,1.17,1.17,0,0,1,0-.34c0-.06.07-.1.18-.13l1.85-.49a24,24,0,0,1-.23-2.43c0-.93-.07-1.94-.07-3s0-1.89.06-2.87.1-2,.18-3q.3-3.77.51-5.77A9.73,9.73,0,0,1,38,36.83l.08-.14a.09.09,0,0,1,.09-.07c.06,0,.1,0,.13,0s.09,0,.17,0a.05.05,0,0,0,0,0l.07-.08,0,0,.12-.07a2,2,0,0,1,.33.13l.08,0a.52.52,0,0,1,.18.16c.06.07.11.08.16,0l0,0a.12.12,0,0,1,.09,0l.09.06.08.06.07.06A.53.53,0,0,1,40,37a.92.92,0,0,1,.12.29,5,5,0,0,1,0,1.11c0,.56-.06,1.26-.12,2.08s-.11,1.74-.17,2.77-.1,2.09-.11,3.19c0,.51,0,1.06,0,1.65s0,1.19-.06,1.8,0,1.23,0,1.83,0,1.18,0,1.72,0,.83,0,1.21a6.42,6.42,0,0,0,.08,1c1.1-.23,2.32-.44,3.68-.62a33.35,33.35,0,0,1,4.36-.27,9.26,9.26,0,0,1,1.41.09,3.91,3.91,0,0,1,.94.23l.26.11.34.19.33.21A.81.81,0,0,1,51.16,55.8Z"/><path d="M62.48,51.57A8.42,8.42,0,0,1,62,54.41a6.76,6.76,0,0,1-1.25,2.15A5.5,5.5,0,0,1,59,57.93a5,5,0,0,1-3.25.37,4.53,4.53,0,0,1-1.15-.37,5.38,5.38,0,0,1-1.11-.67,4.61,4.61,0,0,1-1-1,5.25,5.25,0,0,1-.67-1.45,6.54,6.54,0,0,1-.23-1.91,7.83,7.83,0,0,1,1.08-4.07,6.33,6.33,0,0,1,1.07-1.39,8.78,8.78,0,0,1,1.21-1,5.53,5.53,0,0,1,1.16-.59,3.86,3.86,0,0,1,1-.23c.14,0,.2,0,.19,0a.4.4,0,0,1-.11.13,1.17,1.17,0,0,0-.16.15s0,.08.05.09l.17.06.15.08.12-.14a.32.32,0,0,1,.2-.07.47.47,0,0,1,.17,0L58,46s0,0,.06-.09.06-.17.12-.19a2.47,2.47,0,0,1,.38,0,2.35,2.35,0,0,1,.55.11,3.49,3.49,0,0,1,.81.36,5.24,5.24,0,0,1,.91.68,5.13,5.13,0,0,1,.84,1.09,6.34,6.34,0,0,1,.62,1.55A8.25,8.25,0,0,1,62.48,51.57Zm-5.43-4.41A4.92,4.92,0,0,0,56,48a7,7,0,0,0-1.59,2.83,6.6,6.6,0,0,0-.26,1.84,8.37,8.37,0,0,0,.19,1.88A4.7,4.7,0,0,0,54.9,56a2.69,2.69,0,0,0,.88.92,2.22,2.22,0,0,0,1.18.32,2.36,2.36,0,0,0,1.17-.33,3.21,3.21,0,0,0,1-1,5.79,5.79,0,0,0,.73-1.64A8.62,8.62,0,0,0,60.17,52a6.05,6.05,0,0,0-.35-2.19A5.35,5.35,0,0,0,59,48.37a3,3,0,0,0-.82-.79,1.71,1.71,0,0,0-.48-.23h-.32A.74.74,0,0,1,57.05,47.16Z"/><path d="M75.1,51.57a8.17,8.17,0,0,1-.46,2.84,6.58,6.58,0,0,1-1.25,2.15,5.5,5.5,0,0,1-1.83,1.37,5,5,0,0,1-2.2.49,5.12,5.12,0,0,1-1-.12,4.59,4.59,0,0,1-1.14-.37,5.19,5.19,0,0,1-1.12-.67,4.57,4.57,0,0,1-1-1,5,5,0,0,1-.67-1.45,6.22,6.22,0,0,1-.23-1.91,8,8,0,0,1,.3-2.25,8.37,8.37,0,0,1,.77-1.82,6.68,6.68,0,0,1,1.08-1.39,8.72,8.72,0,0,1,1.2-1,5.53,5.53,0,0,1,1.16-.59,3.83,3.83,0,0,1,1-.23c.14,0,.2,0,.18,0a.3.3,0,0,1-.11.13l-.16.15s0,.08,0,.09l.18.06.14.08.12-.14a.35.35,0,0,1,.2-.07.5.5,0,0,1,.18,0l.12,0s.05,0,.06-.09.06-.17.11-.19a2.64,2.64,0,0,1,.39,0,2.35,2.35,0,0,1,.55.11,3.9,3.9,0,0,1,.81.36,5.6,5.6,0,0,1,.9.68,4.56,4.56,0,0,1,.84,1.09,6,6,0,0,1,.63,1.55A8.25,8.25,0,0,1,75.1,51.57Zm-5.43-4.41a4.68,4.68,0,0,0-1,.85,7.52,7.52,0,0,0-.93,1.25A7,7,0,0,0,67,50.84a6.6,6.6,0,0,0-.26,1.84A9,9,0,0,0,67,54.56,5,5,0,0,0,67.51,56a2.78,2.78,0,0,0,.88.92,2.24,2.24,0,0,0,1.18.32,2.34,2.34,0,0,0,1.17-.33,3.11,3.11,0,0,0,1-1,5.52,5.52,0,0,0,.73-1.64A8.22,8.22,0,0,0,72.78,52a5.85,5.85,0,0,0-.35-2.19,5.35,5.35,0,0,0-.77-1.44,3.3,3.3,0,0,0-.82-.79,1.71,1.71,0,0,0-.48-.23H70A.76.76,0,0,1,69.67,47.16Z"/><path d="M80.22,37.6a3.8,3.8,0,0,1,0,.51c0,.31,0,.72-.08,1.22S80,40.41,80,41.06s-.1,1.34-.16,2-.11,1.45-.16,2.2-.11,1.47-.16,2.15-.09,1.31-.13,1.89-.06,1.08-.08,1.48a4.41,4.41,0,0,0,.76-.6c.3-.27.61-.59.93-.94s.66-.72,1-1.1l1-1.1.81-.93a6.13,6.13,0,0,1,.56-.57,1.47,1.47,0,0,1,.46-.29.62.62,0,0,1,.31,0,.36.36,0,0,1,.21.11.8.8,0,0,1,.15.17c0,.06.05.13.08.21a.74.74,0,0,1,0,.26.73.73,0,0,1-.11.3,1.17,1.17,0,0,1-.32.3,4.17,4.17,0,0,0-.86.9c-.3.4-.64.84-1,1.31s-.78.94-1.21,1.39a6.21,6.21,0,0,1-1.43,1.1,6.07,6.07,0,0,1,.54.64c.2.28.43.59.69.92s.54.67.84,1a8,8,0,0,0,1,.93,5.31,5.31,0,0,0,1.13.7,3.13,3.13,0,0,0,1.28.27,4.7,4.7,0,0,0,1.34-.15,4.93,4.93,0,0,0,1-.38,4,4,0,0,0,.71-.45,3.14,3.14,0,0,0,.39-.35c.18-.25.33-.33.46-.24s.17.29.15.6a2.18,2.18,0,0,1-.14.55,5.61,5.61,0,0,1-.37.81,7.2,7.2,0,0,1-.59.89,4.89,4.89,0,0,1-.8.84,4.15,4.15,0,0,1-1,.62,3.29,3.29,0,0,1-1.26.24,3.46,3.46,0,0,1-1.6-.38,5.73,5.73,0,0,1-1.35-1,8.53,8.53,0,0,1-1.13-1.32c-.35-.49-.67-1-1-1.44s-.59-.91-.86-1.31a5.34,5.34,0,0,0-.77-1,4.15,4.15,0,0,1,0,.49v.51c0,.52,0,1.07,0,1.65s0,1.11,0,1.6,0,.91,0,1.26,0,.55,0,.61a.29.29,0,0,1-.17.29.92.92,0,0,1-.36.07.8.8,0,0,1-.4-.15,3.29,3.29,0,0,1-.46-.33,5.14,5.14,0,0,1-.42-.38,4.12,4.12,0,0,1-.3-.3,2.07,2.07,0,0,1-.11-.75c0-.44,0-1,0-1.72,0-.51,0-1.09,0-1.72s0-1.32,0-2,0-1.46.08-2.24.07-1.56.11-2.36c.06-1.34.11-2.52.16-3.53s.1-1.89.15-2.63.11-1.35.18-1.84A7.51,7.51,0,0,1,78,37.73a.79.79,0,0,1,.2-.24,1.21,1.21,0,0,1,.39-.22c.23-.08.44-.17.63-.25a1.08,1.08,0,0,1,.35-.13.51.51,0,0,1,.22.07,1.8,1.8,0,0,1,.2.19,1.07,1.07,0,0,1,.15.22A.79.79,0,0,1,80.22,37.6Z"/><path d="M105.69,49.1a7.87,7.87,0,0,1-.09,1.28c-.07.51-.15,1-.24,1.63s-.18,1.17-.26,1.77a12.93,12.93,0,0,0-.12,1.7,6.33,6.33,0,0,0,.08,1,2.64,2.64,0,0,0,.25.82.72.72,0,0,1,.09.61c0,.08,0,.14-.06.2a.22.22,0,0,0,0,.16.21.21,0,0,1,0,.17.73.73,0,0,1-.14.18.82.82,0,0,1-.2.12.23.23,0,0,1-.2,0,.82.82,0,0,0-.27-.12h-.16l-.12.06a.15.15,0,0,1-.13,0l-.56-.32a1,1,0,0,1-.5-.69,3,3,0,0,1-.09-.5c0-.19,0-.39-.07-.62s0-.43,0-.64a7.36,7.36,0,0,1-1.06,1.55,5.54,5.54,0,0,1-1.13,1,3.88,3.88,0,0,1-2.11.67,2.53,2.53,0,0,1-.82-.12,1.65,1.65,0,0,1-.55-.28,9,9,0,0,1-1-1.2,1.27,1.27,0,0,1-.28-.74A4.93,4.93,0,0,1,96.31,55a7,7,0,0,1,1-1.5,7.7,7.7,0,0,1,1.32-1.23,11.58,11.58,0,0,1,1.49-1,10.66,10.66,0,0,1,1.49-.72c.5-.2.94-.36,1.34-.48,0-.54,0-1-.06-1.42a5.45,5.45,0,0,0-.12-.9,2.88,2.88,0,0,0-.69-1.39,1.54,1.54,0,0,0-1.13-.46,1.45,1.45,0,0,0-.85.32,3.09,3.09,0,0,0-.77.86,4.8,4.8,0,0,0-.57,1.25,5.53,5.53,0,0,0-.23,1.49c0,.13,0,.25,0,.37s0,.25,0,.38a.13.13,0,0,1-.07.15.77.77,0,0,1-.2.07l-.26,0a1,1,0,0,0-.22,0l-.13,0a.15.15,0,0,1-.09,0,.48.48,0,0,1-.11-.08l-.19-.15a1.28,1.28,0,0,0-.25-.15l-.22-.11-.17-.08a.11.11,0,0,1-.06-.1A4.88,4.88,0,0,1,97,48.29a7,7,0,0,1,1.11-1.82,6.22,6.22,0,0,1,1.63-1.35,3.91,3.91,0,0,1,2-.52,3.78,3.78,0,0,1,1.46.25,3.25,3.25,0,0,1,1.06.67,3.57,3.57,0,0,1,.71.9,5.16,5.16,0,0,1,.44,1,6.51,6.51,0,0,1,.23.95C105.65,48.66,105.68,48.91,105.69,49.1ZM103,51.78a9.61,9.61,0,0,0-1,.43,11.53,11.53,0,0,0-1.1.64,11.73,11.73,0,0,0-1.11.85,9.57,9.57,0,0,0-1,1.07A6.11,6.11,0,0,0,97.89,56a3.47,3.47,0,0,0-.32.89,1.07,1.07,0,0,0,0,.58.42.42,0,0,0,.22.26,1.53,1.53,0,0,0,1,0,3.2,3.2,0,0,0,1-.52,6.14,6.14,0,0,0,1-.88c.32-.35.62-.71.9-1.07s.53-.73.75-1.09.4-.66.54-.92Z"/><path d="M112.31,40.22c0,.06,0,.21,0,.47s0,.6-.08,1-.08.91-.13,1.46-.1,1.16-.15,1.8q.94-.12,1.8-.18c.57,0,1-.07,1.44-.07a.74.74,0,0,1,.34.07.8.8,0,0,1,.25.18.65.65,0,0,1,.16.21,1,1,0,0,1,.08.19.66.66,0,0,0,0,.14.61.61,0,0,1,0,.14.89.89,0,0,1-.26.6,1.23,1.23,0,0,1-.79.38l-3.2.35c-.06.72-.1,1.46-.14,2.22s-.08,1.53-.11,2.28-.07,1.51-.09,2.24,0,1.42,0,2.08q0,.63,0,1t0,.51a1.52,1.52,0,0,1-.09.51,3.17,3.17,0,0,1-.23.45,2.39,2.39,0,0,1-.27.33.39.39,0,0,1-.23.13,1.13,1.13,0,0,1-.86-.34,2.25,2.25,0,0,1-.48-.91,6.82,6.82,0,0,1-.2-1.31c0-.49,0-1,0-1.54,0-1.25,0-2.51.1-3.77s.17-2.47.3-3.63l-1.88.22-.09,0h-.11a.69.69,0,0,1-.45-.13.91.91,0,0,1-.27-.32,1,1,0,0,1-.11-.37,1.68,1.68,0,0,1,0-.29,1.23,1.23,0,0,1,.06-.39.32.32,0,0,1,.22-.23,6.57,6.57,0,0,1,1.11-.26c.53-.1,1.12-.2,1.78-.3.11-.81.23-1.55.34-2.23s.23-1.27.34-1.76a9.48,9.48,0,0,1,.31-1.16c.09-.28.18-.42.25-.42l.07,0h.08a.15.15,0,0,0,.14-.09.2.2,0,0,1,.2-.1.75.75,0,0,1,.3.08,1.42,1.42,0,0,1,.28.2,2.32,2.32,0,0,1,.22.25A.43.43,0,0,1,112.31,40.22Z"/><path d="M136.22,56.9a1.3,1.3,0,0,1,.06.19.4.4,0,0,1,0,.15.15.15,0,0,1-.12.16l-.23.05s0,.06-.06.15-.05.17-.08.27a.91.91,0,0,1-.17.28.4.4,0,0,1-.31.12,2.15,2.15,0,0,1-1-.28,1.47,1.47,0,0,1-.54-.64,3,3,0,0,1-.23-1c0-.38,0-.8,0-1.26s0-1.11.07-1.7.09-1.17.15-1.73.12-1.09.16-1.59.07-.92.07-1.27a4.12,4.12,0,0,0-.13-1.19c-.08-.28-.2-.42-.35-.42s-.25.2-.54.62a14.17,14.17,0,0,0-1.05,1.89c-.41.84-.84,1.9-1.31,3.18a41.89,41.89,0,0,0-1.33,4.48.85.85,0,0,0,0,.23,1.5,1.5,0,0,1,0,.22.29.29,0,0,1-.07.16.16.16,0,0,1-.15.07.62.62,0,0,1-.33-.08,1.42,1.42,0,0,1-.22-.18l-.16-.18a.25.25,0,0,0-.2-.09s0,0-.07.06l-.08.15a.71.71,0,0,1-.1.14.24.24,0,0,1-.17.06.46.46,0,0,1-.19,0,.45.45,0,0,1-.21-.19,1.32,1.32,0,0,1-.18-.47,4.46,4.46,0,0,1-.07-.84v-.67c0-.14,0-.36,0-.66s.06-.64.1-1,.07-.81.12-1.27l.12-1.39c0-.48.06-.94.09-1.39s0-.86,0-1.23c0-1.14-.14-1.7-.43-1.7a.49.49,0,0,0-.24.07,1.26,1.26,0,0,0-.32.31,6.22,6.22,0,0,0-.44.66,11.67,11.67,0,0,0-.55,1.15c-.21.47-.45,1.05-.71,1.74s-.56,1.52-.88,2.48a8.07,8.07,0,0,0-.23.92c-.09.41-.17.82-.24,1.25s-.13.81-.17,1.16a6.15,6.15,0,0,0-.07.7s0,.08-.16.15a3.21,3.21,0,0,1-.37.18,3.61,3.61,0,0,1-.42.16,1.13,1.13,0,0,1-.34.07.53.53,0,0,1-.39-.14,1,1,0,0,1-.21-.53,7,7,0,0,1-.07-1c0-.45,0-1,0-1.73,0-.18,0-.53,0-1.07s0-1.14.08-1.83.09-1.42.15-2.18.14-1.45.22-2.08a12.33,12.33,0,0,1,.28-1.57c.11-.41.24-.62.38-.62a.29.29,0,0,1,.19.08,1.29,1.29,0,0,1,.17.16l.14.16a.19.19,0,0,0,.15.07.17.17,0,0,0,.12-.06.53.53,0,0,0,.12-.14l.11-.15s.06-.06.08-.06.08.05.14.16a2.88,2.88,0,0,1,.17.35,3,3,0,0,1,.15.42,1.13,1.13,0,0,1,.07.34c0,.2,0,.49-.05.86s-.08.78-.12,1.22-.09.9-.12,1.37-.06.88-.06,1.28v.06c.13-.43.29-.88.46-1.34s.37-.9.58-1.34.44-.85.67-1.24a6.41,6.41,0,0,1,.75-1,3.79,3.79,0,0,1,.79-.69,1.58,1.58,0,0,1,.83-.26,2.12,2.12,0,0,1,.88.17,1.53,1.53,0,0,1,.6.49,2.06,2.06,0,0,1,.33.7,3.36,3.36,0,0,1,.1.85,7.76,7.76,0,0,1-.05.91c0,.34-.07.72-.11,1.13s-.08.88-.11,1.37-.06,1-.07,1.62c.13-.36.29-.79.47-1.3s.39-1,.62-1.57.47-1.08.72-1.62.52-1,.78-1.42a5,5,0,0,1,.79-1,1.12,1.12,0,0,1,.76-.39,2.85,2.85,0,0,1,.47.07,6.3,6.3,0,0,1,.78.19,4.55,4.55,0,0,1,.78.32,1.08,1.08,0,0,1,.48.43,3.79,3.79,0,0,1,.22.71,6.6,6.6,0,0,1,.1,1.23c0,.45,0,1-.1,1.62s-.18,1.38-.34,2.26c-.05.3-.08.58-.1.85s0,.53,0,.79,0,.74.05,1.07.08.63.13.89.1.49.15.67A1.76,1.76,0,0,0,136.22,56.9Z"/><path d="M148.55,52.42c0,.12,0,.25,0,.4s0,.32,0,.51a4.75,4.75,0,0,1-.11.89,6.22,6.22,0,0,1-.34,1.13,6,6,0,0,1-.62,1.17,4.57,4.57,0,0,1-1,1,4.72,4.72,0,0,1-1.34.76,4.9,4.9,0,0,1-1.77.3,5.46,5.46,0,0,1-1.82-.34,4.92,4.92,0,0,1-1.68-1.06,5.3,5.3,0,0,1-1.25-1.82,6.41,6.41,0,0,1-.49-2.64,7.24,7.24,0,0,1,.25-1.9,8.85,8.85,0,0,1,.66-1.76,8.66,8.66,0,0,1,1-1.53,8,8,0,0,1,1.19-1.2,5.34,5.34,0,0,1,1.29-.79,3.33,3.33,0,0,1,1.3-.29,4.19,4.19,0,0,1,1.82.35,3.35,3.35,0,0,1,1.13.86,3,3,0,0,1,.6,1.09,3.94,3.94,0,0,1,.17,1,2.89,2.89,0,0,1-.22,1,3.27,3.27,0,0,1-.71,1.1,4.1,4.1,0,0,1-1.3.87,4.72,4.72,0,0,1-1.95.35,3.23,3.23,0,0,1-1.11-.17,3.66,3.66,0,0,1-.86-.44,2.74,2.74,0,0,1-.64-.57,5.1,5.1,0,0,1-.45-.58,7.87,7.87,0,0,0-.27,2.18,4.42,4.42,0,0,0,.25,1.55,3.42,3.42,0,0,0,.68,1.16,2.92,2.92,0,0,0,1,.74,3.39,3.39,0,0,0,1.33.26,3.71,3.71,0,0,0,1.58-.31,4.4,4.4,0,0,0,1.18-.78,5.48,5.48,0,0,0,.87-1c.25-.37.46-.7.64-1s.34-.56.48-.76.26-.3.4-.29.09.05.09.15a.77.77,0,0,1,0,.15A.66.66,0,0,1,148.55,52.42ZM144,46.83a2.67,2.67,0,0,0-.7.11,3.46,3.46,0,0,0-.9.4,4.9,4.9,0,0,0-.94.77,4.59,4.59,0,0,0-.81,1.24l.37-.18a.55.55,0,0,1,.21-.07.18.18,0,0,1,.1.06,2,2,0,0,0,.86.83,2.64,2.64,0,0,0,1.17.25,2.16,2.16,0,0,0,.88-.17,1.86,1.86,0,0,0,.61-.45,1.6,1.6,0,0,0,.34-.59,2.1,2.1,0,0,0,.11-.64,1.78,1.78,0,0,0-.35-1.12A1.11,1.11,0,0,0,144,46.83Z"/><path d="M153.68,56.32a2.82,2.82,0,0,1,0,.49,2.35,2.35,0,0,1-.11.54,1.78,1.78,0,0,1-.22.46.63.63,0,0,1-.33.26,4,4,0,0,1-.47.14,1.55,1.55,0,0,1-.39.06,1.06,1.06,0,0,1-.5-.11,4.36,4.36,0,0,1-.41-.24,1.47,1.47,0,0,1-.51-.45,1,1,0,0,1-.2-.57,1.62,1.62,0,0,1,.1-.52,3.66,3.66,0,0,1,.24-.59,4,4,0,0,1,.31-.54,1.27,1.27,0,0,1,.33-.33,1.1,1.1,0,0,1,.41-.14h.29a1.48,1.48,0,0,1,1.08.36A1.66,1.66,0,0,1,153.68,56.32Zm-.12-18.93c-.06.35-.12.78-.17,1.31s-.09,1.1-.12,1.74-.05,1.33-.07,2.06,0,1.49,0,2.26c0,.57,0,1.15,0,1.73s0,1.15,0,1.72c0,.17,0,.45,0,.83s0,.87,0,1.44c0,.33,0,.66,0,1s0,.62,0,.88,0,.48,0,.67a1.12,1.12,0,0,1-.05.34,1.11,1.11,0,0,1-.3.41c-.09.08-.17.11-.23.09s-.08,0-.12-.14-.05,0-.15,0a1.16,1.16,0,0,1-.32,0,.19.19,0,0,1-.15-.08s-.11-.06-.22,0a.21.21,0,0,1-.17-.12.86.86,0,0,1-.1-.33c0-.07,0-.27,0-.6s0-.74-.06-1.22-.05-1-.08-1.61l-.09-1.76c0-.59,0-1.14-.06-1.68s0-1,0-1.37,0-.89,0-1.42,0-1.07-.06-1.63l-.06-1.67c0-.55,0-1.08,0-1.57,0-.32,0-.62,0-.9a6,6,0,0,1,0-.77.62.62,0,0,0,0-.13.21.21,0,0,1,0-.1l.14-.1.34-.15a3.64,3.64,0,0,1,.49-.22,1,1,0,0,1,.36-.07.59.59,0,0,1,.35.12.5.5,0,0,0,.2.09H153l.16,0a.26.26,0,0,1,.15,0,.38.38,0,0,1,.21.15.67.67,0,0,1,.09.41,1.94,1.94,0,0,1,0,.24C153.59,37.18,153.58,37.28,153.56,37.39Z"/></g></g></svg>