<svg xmlns="http://www.w3.org/2000/svg" viewBox="0 0 1950 117"><defs><style>.cls-1{fill:#dae8ed;}.cls-2{fill:#a0a0a0;}.cls-3{fill:#c9d1d3;}.cls-4{fill:#b7b7b7;}.cls-5{fill:#e6eced;}.cls-6{fill:#eaeaea;}.cls-7{fill:#e1e4e5;}.cls-8{fill:#dadfe0;}.cls-9{fill:#dde6e8;}.cls-10{fill:#e6e8e8;}.cls-11{fill:#c1c1c1;}.cls-12{fill:#cbd0d1;}.cls-13{fill:#e5e5e5;}</style></defs><title>Asset 27</title><g id="Layer_2" data-name="Layer 2"><g id="레이어_1" data-name="레이어 1"><rect class="cls-1" width="1950" height="117" transform="translate(1950 117) rotate(180)"/><path class="cls-2" d="M1926.6,31.88V49.32c0,3.14-3.25,5.69-7.26,5.69H1815.5c-11.26,0-20.39-7.15-20.39-16V21.91c0-3,3-5.48,6.78-5.68l96.35-5.12C1913.58,10.3,1926.6,19.83,1926.6,31.88Z"/><path class="cls-3" d="M1925.49,28.63V44.57c0,2.87-3.23,5.2-7.21,5.2h-103c-11.16,0-20.21-6.54-20.21-14.6V19.52c0-2.74,2.94-5,6.72-5.19l95.54-4.68C1912.58,8.9,1925.49,17.62,1925.49,28.63Z"/><path class="cls-2" d="M1779.51,26.45V41.31c0,7.57-7.82,13.7-17.47,13.7H1616.76c-10.18,0-18.21-6.79-17.43-14.75l1.12-11.42c1.06-10.78,12.71-19,26.51-18.75l135.52,2.67C1772,13,1779.51,19,1779.51,26.45Z"/><path class="cls-4" d="M1779.51,23.83V38.7c0,7.56-7.82,13.69-17.47,13.69H1616.76c-10.18,0-18.21-6.79-17.43-14.74l1.12-11.43c1.06-10.78,12.71-19,26.51-18.75l135.52,2.67C1772,10.33,1779.51,16.4,1779.51,23.83Z"/><path class="cls-2" d="M146,78.17V89.29c0,5.66-5.85,10.25-13.07,10.25H24.22c-7.62,0-13.62-5.08-13-11L12,80c.79-8.06,9.51-14.23,19.83-14l101.38,2C140.32,68.07,146,72.62,146,78.17Z"/><path class="cls-2" d="M606.17,21.85v9.53c0,4.85-5,8.78-11.21,8.78H501.78c-6.53,0-11.67-4.35-11.17-9.45l.72-7.33c.68-6.91,8.15-12.2,17-12l86.93,1.72C601.32,13.19,606.17,17.08,606.17,21.85Z"/><path class="cls-2" d="M820.11,72.73V87.59c0,7.56-7.82,13.69-17.47,13.69H657.36c-10.18,0-18.21-6.79-17.43-14.74l1.12-11.42c1.06-10.78,12.71-19,26.51-18.75L803.08,59C812.56,59.22,820.11,65.3,820.11,72.73Z"/><path class="cls-4" d="M820.11,69.23V84.1c0,7.56-7.82,13.69-17.47,13.69H657.36c-10.18,0-18.21-6.79-17.43-14.74l1.12-11.43c1.06-10.78,12.71-19,26.51-18.75l135.52,2.67C812.56,55.73,820.11,61.81,820.11,69.23Z"/><path class="cls-3" d="M1349.4,23.11v22c0,4.47-5.1,8.1-11.39,8.1H1180.07c-6.63,0-11.86-4-11.36-8.72l2.69-24.83c.46-4.3,5.58-7.59,11.64-7.48L1338.3,15C1344.47,15.12,1349.4,18.71,1349.4,23.11Z"/><path class="cls-3" d="M200.57,23.11v22c0,4.47-5.1,8.1-11.39,8.1H31.24c-6.63,0-11.86-4-11.35-8.72l2.68-24.83c.47-4.3,5.58-7.59,11.64-7.48L189.47,15C195.65,15.12,200.57,18.71,200.57,23.11Z"/><path class="cls-5" d="M205,18.74V40.79c0,4.48-5.1,8.11-11.39,8.11H35.7c-6.64,0-11.87-4-11.36-8.73L27,15.34c.46-4.3,5.58-7.59,11.64-7.48l155.26,2.78C200.1,10.75,205,14.34,205,18.74Z"/><path class="cls-2" d="M1024,72v22c0,4.48-5.1,8.11-11.39,8.11H854.7c-6.64,0-11.87-4-11.36-8.73L846,68.6c.46-4.3,5.58-7.59,11.64-7.48l155.26,2.78C1019.1,64,1024,67.61,1024,72Z"/><path class="cls-3" d="M1025.14,67.64v22c0,4.47-5.1,8.1-11.39,8.1H855.81c-6.63,0-11.86-4-11.35-8.72l2.68-24.83c.47-4.3,5.58-7.59,11.64-7.48L1014,59.54C1020.22,59.65,1025.14,63.24,1025.14,67.64Z"/><path class="cls-3" d="M1858.39,66.36H1746.06a13.4,13.4,0,0,0-13.35,13.46V87a13.41,13.41,0,0,0,13,13.45l117.91,3.45a13.46,13.46,0,0,0,12.19-19.75l-5.58-10.63A13.32,13.32,0,0,0,1858.39,66.36Z"/><path class="cls-6" d="M1858.39,62.87H1746.06a13.4,13.4,0,0,0-13.35,13.45V83.5a13.41,13.41,0,0,0,13,13.46l117.91,3.44a13.45,13.45,0,0,0,12.19-19.75L1870.19,70A13.32,13.32,0,0,0,1858.39,62.87Z"/><path class="cls-2" d="M815.42,12.22H703.09a13.41,13.41,0,0,0-13.35,13.46v7.18a13.42,13.42,0,0,0,13,13.46l117.91,3.44A13.45,13.45,0,0,0,832.79,30l-5.57-10.62A13.34,13.34,0,0,0,815.42,12.22Z"/><path class="cls-7" d="M818.76,7H706.43a13.39,13.39,0,0,0-13.34,13.45v7.18A13.41,13.41,0,0,0,706,41.08L824,44.52a13.45,13.45,0,0,0,12.18-19.75l-5.58-10.62A13.32,13.32,0,0,0,818.76,7Z"/><path class="cls-3" d="M1917.28,62h-16.36c-8.12,0-13.37,6.73-9.67,12.4l11.15,17c1.86,2.84,5.59,4.62,9.67,4.62h8.55c6.66,0,11.75-4.64,10.74-9.8l-3.34-17C1927.2,65.06,1922.64,62,1917.28,62Z"/><path class="cls-8" d="M1913.94,60.25h-16.36c-8.13,0-13.37,6.73-9.67,12.39l11.15,17c1.86,2.84,5.59,4.63,9.66,4.63h8.56c6.66,0,11.75-4.65,10.74-9.81l-3.35-17C1923.86,63.31,1919.3,60.25,1913.94,60.25Z"/><path class="cls-3" d="M658.14,13.1H641.78c-8.13,0-13.37,6.73-9.67,12.39l11.15,17c1.86,2.84,5.59,4.63,9.66,4.63h8.56c6.66,0,11.75-4.65,10.74-9.81l-3.35-17C668.06,16.16,663.5,13.1,658.14,13.1Z"/><path class="cls-2" d="M1706.11,64.61h-116.6c-10.51,0-16,13.81-9,22.46L1590,98.72a11.67,11.67,0,0,0,8.56,4.42l107.13,4.25c6.86.27,12.55-5.83,12.55-13.44V78.06C1718.23,70.63,1712.8,64.61,1706.11,64.61Z"/><path class="cls-3" d="M1706.11,60.25h-116.6c-10.51,0-16,13.81-9,22.46L1590,94.35a11.68,11.68,0,0,0,8.56,4.43L1705.68,103c6.86.27,12.55-5.82,12.55-13.44V73.69C1718.23,66.27,1712.8,60.25,1706.11,60.25Z"/><path class="cls-3" d="M384.4,10.48H234.06c-13.54,0-20.68,11.84-11.6,19.25l12.22,10a18.41,18.41,0,0,0,11,3.79l138.12,3.64c8.85.23,16.19-5,16.19-11.52V22C400,15.64,393,10.48,384.4,10.48Z"/><path class="cls-3" d="M446,52.76,329.42,56.05c-10.5.3-15.39,14.25-8,22.7l10,11.37a11.93,11.93,0,0,0,8.76,4.18l107.25,1.22c6.87.08,12.28-6.18,11.93-13.79l-.74-15.88C458.33,58.43,452.63,52.57,446,52.76Z"/><path class="cls-9" d="M442.6,49.27,326.08,52.56c-10.5.29-15.39,14.25-8,22.7l10,11.37a11.93,11.93,0,0,0,8.76,4.18L444.14,92c6.86.08,12.27-6.17,11.92-13.78l-.73-15.88C455,54.94,449.29,49.08,442.6,49.27Z"/><path class="cls-3" d="M1578.94,48.9l4.11-24.15c1.37-8-6.6-15.15-16.93-15.15H1452.17c-9.37,0-17,6-17,13.3V42.52c0,3.57,3.57,6.53,8.13,6.72L1570,54.67c4.45.19,8.35-2.32,9-5.77Z"/><path class="cls-10" d="M1581.17,44.53l4.11-24.14c1.36-8-6.6-15.15-16.93-15.15H1454.4c-9.37,0-17,5.95-17,13.3V38.15c0,3.58,3.57,6.53,8.13,6.73l126.63,5.42c4.45.2,8.35-2.31,9-5.77Z"/><path class="cls-3" d="M289.43,90.28l3.15-24.66c.4-3.15-2.83-5.85-6.86-5.75L183.34,62.51c-3.69.09-6.57,2.51-6.45,5.39l.85,20.3c.11,2.78,3,5,6.52,5.06l98.39,1.68c3.46.06,6.4-2,6.78-4.66Z"/><path class="cls-10" d="M292.77,86.79l3.15-24.66c.4-3.15-2.82-5.85-6.86-5.75L186.68,59c-3.68.1-6.57,2.51-6.45,5.4l.85,20.3c.12,2.78,3,5,6.52,5.06L286,91.45c3.46.06,6.4-2,6.78-4.66Z"/><path class="cls-3" d="M1004.07,47.2l2.83-31.87c.36-4.07-3.93-7.45-9.12-7.19L866,14.65c-4.74.24-8.34,3.44-8,7.15l2.11,26.12c.28,3.58,4.08,6.35,8.65,6.32l126.82-.84c4.46,0,8.15-2.72,8.5-6.2Z"/><path class="cls-3" d="M1185.6,98.66l2.73-16c2.09-12.31-10.13-23.25-26-23.25H1050.46c-4.75,0-8.6,3-8.6,6.74V92.28c0,3.58,3.57,6.54,8.13,6.73l126.63,5.43c4.45.19,8.35-2.32,9-5.78Z"/><path class="cls-7" d="M1185.6,94.3l2.73-16C1190.42,66,1178.2,55,1162.35,55H1050.46c-4.75,0-8.6,3-8.6,6.74V87.92c0,3.58,3.57,6.53,8.13,6.73l126.63,5.42c4.45.19,8.35-2.31,9-5.77Z"/><path class="cls-11" d="M1557.5,73.49l3.23,12.18c2.94,11-4.64,22.06-14.92,21.72l-112.17-3.75c-8.78-.29-15.48-8.89-14.56-18.67l1.26-13.49c.84-8.88,7.69-15.5,15.66-15.13l107.66,5.07C1550.1,61.72,1555.66,66.57,1557.5,73.49Z"/><path class="cls-12" d="M1557.5,70.87l3.23,12.18c2.94,11-4.64,22.06-14.92,21.72L1433.64,101c-8.78-.29-15.48-8.89-14.56-18.67l1.26-13.49c.84-8.88,7.69-15.5,15.66-15.13l107.66,5.07C1550.1,59.1,1555.66,64,1557.5,70.87Z"/><path class="cls-11" d="M613.56,61.49,617,73.63c3.1,11-4.29,22.11-14.58,21.87L490.19,92.83c-8.78-.2-15.63-8.73-14.86-18.52l1.06-13.51c.69-8.88,7.44-15.57,15.41-15.27l107.73,4C606,49.79,611.62,54.59,613.56,61.49Z"/><path class="cls-2" d="M1418.82,23.91,1416,43.12c-.65,4.51-5.42,8-11.2,8.1l-22.6.58c-7.11.18-12.76-4.62-12-10.16L1373.11,22c.67-4.59,5.59-8.07,11.49-8.11l22.53-.15C1414.13,13.7,1419.6,18.46,1418.82,23.91Z"/><path class="cls-4" d="M1423.27,20.49,1420.5,39.7c-.65,4.5-5.42,7.95-11.21,8.1l-22.59.58c-7.11.18-12.77-4.62-12-10.16l2.84-19.64c.66-4.58,5.59-8.06,11.48-8.1l22.54-.15C1418.59,10.28,1424.06,15,1423.27,20.49Z"/><path class="cls-3" d="M1157,27.47l-2.78,19.21c-.65,4.51-5.42,8-11.2,8.11l-22.6.57c-7.1.18-12.76-4.62-12-10.16l2.84-19.63c.66-4.59,5.59-8.07,11.48-8.11l22.54-.15C1152.27,17.26,1157.75,22,1157,27.47Z"/><path class="cls-13" d="M1157,23.11l-2.78,19.21c-.65,4.5-5.42,8-11.2,8.1l-22.6.58c-7.1.18-12.76-4.62-12-10.16l2.84-19.64c.66-4.58,5.59-8.06,11.48-8.1l22.54-.16C1152.27,12.9,1157.75,17.66,1157,23.11Z"/><path class="cls-3" d="M463.94,23.38l-2.12,14.71c-.5,3.45-4.15,6.09-8.58,6.2l-17.3.45c-5.44.14-9.78-3.54-9.16-7.78l2.17-15c.51-3.51,4.28-6.17,8.79-6.2L455,15.6C460.36,15.56,464.55,19.21,463.94,23.38Z"/><path class="cls-6" d="M461.72,21.63l-2.13,14.71c-.5,3.45-4.15,6.1-8.58,6.21l-17.3.44c-5.44.14-9.77-3.54-9.16-7.78l2.17-15c.51-3.52,4.28-6.18,8.79-6.21l17.26-.12C458.13,13.82,462.32,17.46,461.72,21.63Z"/><path class="cls-2" d="M1400.46,83.33l-7,14.8c-1.68,3.53-5.67,5.81-10.08,5.77l-87.86-.79c-6.34-.06-11.25-4.81-10.61-10.26l2.2-18.56c.59-5,5.58-8.63,11.33-8.35l92.72,4.54C1398.51,70.84,1403.28,77.4,1400.46,83.33Z"/><path class="cls-3" d="M1273.75,81.58l-4.28,14.81c-1,3.52-3.45,5.81-6.13,5.77l-53.43-.79c-3.85-.06-6.84-4.82-6.45-10.27l1.34-18.55c.36-5,3.39-8.64,6.89-8.35l56.38,4.53C1272.57,69.09,1275.47,75.66,1273.75,81.58Z"/><path class="cls-7" d="M1277.1,78.09l-4.29,14.81c-1,3.52-3.45,5.8-6.13,5.76l-53.42-.79c-3.86-.05-6.85-4.81-6.45-10.26l1.33-18.56c.36-5,3.4-8.63,6.89-8.35l56.38,4.54C1275.91,65.6,1278.81,72.16,1277.1,78.09Z"/><path class="cls-3" d="M1091,30.94l-4.29,14.81c-1,3.52-3.44,5.8-6.12,5.76l-53.43-.79c-3.86,0-6.84-4.81-6.45-10.26l1.34-18.56c.36-4.95,3.39-8.63,6.89-8.35l56.37,4.54C1089.82,18.45,1092.73,25,1091,30.94Z"/></g></g></svg>