<svg xmlns="http://www.w3.org/2000/svg" viewBox="0 0 1750 134"><defs><style>.cls-1{fill:#dae8ed;}.cls-2{fill:#a0a0a0;}.cls-3{fill:#c9d1d3;}.cls-4{fill:#b7b7b7;}.cls-5{fill:#e6eced;}.cls-6{fill:#eaeaea;}.cls-7{fill:#e1e4e5;}.cls-8{fill:#dadfe0;}.cls-9{fill:#dde6e8;}.cls-10{fill:#e6e8e8;}.cls-11{fill:#c1c1c1;}.cls-12{fill:#cbd0d1;}.cls-13{fill:#e5e5e5;}</style></defs><title>Asset 16</title><g id="Layer_2" data-name="Layer 2"><g id="레이어_1" data-name="레이어 1"><rect class="cls-1" width="1750" height="134"/><path class="cls-2" d="M21,36.51v20A6.52,6.52,0,0,0,27.52,63h93.19A18.29,18.29,0,0,0,139,44.71V25.09a6.52,6.52,0,0,0-6.08-6.5L46.45,12.73A23.83,23.83,0,0,0,21,36.51Z"/><path class="cls-3" d="M22,32.79V51a6.22,6.22,0,0,0,6.46,6h92.4c10,0,18.14-7.49,18.14-16.72V22.35a6.18,6.18,0,0,0-6-5.94L47.23,11.05C33.58,10.2,22,20.17,22,32.79Z"/><path class="cls-2" d="M153,30.29v17A15.68,15.68,0,0,0,168.68,63H299.06A15.69,15.69,0,0,0,314.7,46.11l-1-13.08a23.25,23.25,0,0,0-23.78-21.47L168.29,14.62A15.68,15.68,0,0,0,153,30.29Z"/><path class="cls-4" d="M153,27.29v17A15.68,15.68,0,0,0,168.68,60H299.06A15.69,15.69,0,0,0,314.7,43.11l-1-13.08A23.25,23.25,0,0,0,289.91,8.56L168.29,11.62A15.68,15.68,0,0,0,153,27.29Z"/><path class="cls-2" d="M1619,89.53v12.74A11.73,11.73,0,0,0,1630.73,114h97.54A11.73,11.73,0,0,0,1740,101.37l-.75-9.79a17.39,17.39,0,0,0-17.79-16.06l-91,2.28A11.73,11.73,0,0,0,1619,89.53Z"/><path class="cls-2" d="M1206,25V35.94A10.05,10.05,0,0,0,1216.06,46h83.62a10.06,10.06,0,0,0,10-10.83l-.64-8.39A14.94,14.94,0,0,0,1293.81,13l-78,2A10.05,10.05,0,0,0,1206,25Z"/><path class="cls-2" d="M1014,83.29v17A15.68,15.68,0,0,0,1029.68,116h130.38a15.69,15.69,0,0,0,15.64-16.89l-1-13.08a23.25,23.25,0,0,0-23.78-21.47l-121.62,3.06A15.68,15.68,0,0,0,1014,83.29Z"/><path class="cls-4" d="M1014,79.29v17A15.68,15.68,0,0,0,1029.68,112h130.38a15.69,15.69,0,0,0,15.64-16.89l-1-13.08a23.25,23.25,0,0,0-23.78-21.47l-121.62,3.06A15.68,15.68,0,0,0,1014,79.29Z"/><path class="cls-3" d="M539,26.46V51.72c0,5.12,4.58,9.28,10.22,9.28H691c6,0,10.65-4.6,10.19-10l-2.41-28.44c-.41-4.93-5-8.69-10.44-8.57L549,17.19C543.42,17.31,539,21.43,539,26.46Z"/><path class="cls-3" d="M1570,26.46V51.72c0,5.12,4.58,9.28,10.22,9.28H1722c6,0,10.65-4.6,10.19-10l-2.41-28.44c-.41-4.93-5-8.69-10.44-8.57L1580,17.19C1574.42,17.31,1570,21.43,1570,26.46Z"/><path class="cls-5" d="M1566,21.46V46.72c0,5.12,4.58,9.28,10.22,9.28H1718c6,0,10.65-4.6,10.19-10l-2.41-28.44c-.41-4.93-5-8.69-10.44-8.57L1576,12.19C1570.42,12.31,1566,16.43,1566,21.46Z"/><path class="cls-2" d="M831,82.46v25.26c0,5.12,4.58,9.28,10.22,9.28H983c6,0,10.65-4.6,10.19-10l-2.41-28.44c-.41-4.93-5-8.69-10.44-8.57L841,73.19C835.42,73.31,831,77.43,831,82.46Z"/><path class="cls-3" d="M830,77.46v25.26c0,5.12,4.58,9.28,10.22,9.28H982c6,0,10.65-4.6,10.19-10l-2.41-28.44c-.41-4.93-5-8.69-10.44-8.57L840,68.19C834.42,68.31,830,72.43,830,77.46Z"/><path class="cls-3" d="M82.21,76H183c6.62,0,12,6.9,12,15.41v8.23c0,8.34-5.15,15.16-11.63,15.41L77.55,119c-9.17.35-15.22-12.18-10.93-22.62l5-12.17C73.7,79.16,77.77,76,82.21,76Z"/><path class="cls-6" d="M82.21,72H183c6.62,0,12,6.9,12,15.41v8.23c0,8.34-5.15,15.16-11.63,15.41L77.55,115c-9.17.35-15.22-12.18-10.93-22.62l5-12.17C73.7,75.16,77.77,72,82.21,72Z"/><path class="cls-2" d="M1018.21,14H1119c6.62,0,12,6.9,12,15.41v8.23c0,8.34-5.15,15.16-11.63,15.41L1013.55,57c-9.17.35-15.22-12.18-10.93-22.62l5-12.17C1009.7,17.16,1013.77,14,1018.21,14Z"/><path class="cls-7" d="M1015.21,8H1116c6.62,0,12,6.9,12,15.41v8.23c0,8.34-5.15,15.16-11.63,15.41L1010.55,51c-9.17.35-15.22-12.18-10.93-22.62l5-12.17C1006.7,11.16,1010.77,8,1015.21,8Z"/><path class="cls-3" d="M29.36,71H44.05a9.75,9.75,0,0,1,8.67,14.2l-10,19.5A9.76,9.76,0,0,1,34,110H26.36a9.75,9.75,0,0,1-9.63-11.23l3-19.5A9.74,9.74,0,0,1,29.36,71Z"/><path class="cls-8" d="M32.36,69H47.05a9.75,9.75,0,0,1,8.67,14.2l-10,19.5A9.76,9.76,0,0,1,37,108H29.36a9.75,9.75,0,0,1-9.63-11.23l3-19.5A9.74,9.74,0,0,1,32.36,69Z"/><path class="cls-3" d="M1159.36,15h14.69a9.75,9.75,0,0,1,8.67,14.2l-10,19.5A9.76,9.76,0,0,1,1164,54h-7.68a9.75,9.75,0,0,1-9.63-11.23l3-19.5A9.74,9.74,0,0,1,1159.36,15Z"/><path class="cls-2" d="M218.88,74H323.52c9.43,0,14.39,15.82,8.07,25.72l-8.51,13.34c-2,3.09-4.74,4.92-7.68,5.07L219.26,123c-6.15.31-11.26-6.67-11.26-15.39V89.4C208,80.9,212.87,74,218.88,74Z"/><path class="cls-3" d="M218.88,69H323.52c9.43,0,14.39,15.82,8.07,25.72l-8.51,13.34c-2,3.09-4.74,4.92-7.68,5.07L219.26,118c-6.15.31-11.26-6.67-11.26-15.39V84.4C208,75.9,212.87,69,218.88,69Z"/><path class="cls-3" d="M1405,12H1540c12.15,0,18.55,13.56,10.41,22l-11,11.43a14.39,14.39,0,0,1-9.91,4.34l-124,4.17c-7.93.27-14.52-5.72-14.52-13.19V25.2C1391,17.91,1397.28,12,1405,12Z"/><path class="cls-3" d="M1349.79,60.42l104.58,3.77c9.42.34,13.81,16.33,7.14,26l-9,13c-2.09,3-4.92,4.75-7.86,4.79l-96.25,1.4c-6.17.08-11-7.08-10.71-15.79l.66-18.19C1338.68,66.92,1343.79,60.21,1349.79,60.42Z"/><path class="cls-9" d="M1352.79,56.42l104.58,3.77c9.42.34,13.81,16.33,7.14,26l-9,13c-2.09,3-4.92,4.75-7.86,4.79l-96.25,1.4c-6.17.08-11-7.08-10.71-15.79l.66-18.19C1341.68,62.92,1346.79,56.21,1352.79,56.42Z"/><path class="cls-3" d="M333,56l-3.69-27.65A15.33,15.33,0,0,1,344.5,11H446.77A15.23,15.23,0,0,1,462,26.23V48.69a7.72,7.72,0,0,1-7.3,7.71L341.06,62.61A7.72,7.72,0,0,1,333,56Z"/><path class="cls-10" d="M331,51l-3.69-27.65A15.33,15.33,0,0,1,342.5,6H444.77A15.23,15.23,0,0,1,460,21.23V43.69a7.72,7.72,0,0,1-7.3,7.71L339.06,57.61A7.72,7.72,0,0,1,331,51Z"/><path class="cls-3" d="M1490.26,103.4l-2.83-28.25a6,6,0,0,1,6.16-6.58l91.88,3a6,6,0,0,1,5.78,6.18l-.76,23.25a6,6,0,0,1-5.85,5.79l-88.3,1.93a6,6,0,0,1-6.08-5.34Z"/><path class="cls-10" d="M1487.26,99.4l-2.83-28.25a6,6,0,0,1,6.16-6.58l91.88,3a6,6,0,0,1,5.78,6.18L1587.49,97a6,6,0,0,1-5.85,5.79l-88.3,1.93a6,6,0,0,1-6.08-5.34Z"/><path class="cls-3" d="M848.91,54.05l-2.54-36.49a7.72,7.72,0,0,1,8.19-8.24l118.23,7.46A7.73,7.73,0,0,1,980,25l-1.89,29.92a7.72,7.72,0,0,1-7.77,7.23l-113.81-1a7.72,7.72,0,0,1-7.63-7.11Z"/><path class="cls-3" d="M686,113l-2.45-18.37A23.52,23.52,0,0,1,706.86,68H807.28A7.71,7.71,0,0,1,815,75.72v30a7.72,7.72,0,0,1-7.3,7.71l-113.64,6.21A7.72,7.72,0,0,1,686,113Z"/><path class="cls-7" d="M686,108l-2.45-18.37A23.52,23.52,0,0,1,706.86,63H807.28A7.71,7.71,0,0,1,815,70.72v30a7.72,7.72,0,0,1-7.3,7.71l-113.64,6.21A7.72,7.72,0,0,1,686,108Z"/><path class="cls-11" d="M352.24,84.17l-2.9,14c-2.63,12.64,4.17,25.26,13.4,24.87L463.4,118.7c7.88-.34,13.9-10.18,13.07-21.39l-1.14-15.45c-.75-10.17-6.9-17.75-14-17.32l-96.62,5.8C358.88,70.69,353.89,76.24,352.24,84.17Z"/><path class="cls-12" d="M352.24,81.17l-2.9,14c-2.63,12.64,4.17,25.26,13.4,24.87L463.4,115.7c7.88-.34,13.9-10.18,13.07-21.39l-1.14-15.45c-.75-10.17-6.9-17.75-14-17.32l-96.62,5.8C358.88,67.69,353.89,73.24,352.24,81.17Z"/><path class="cls-11" d="M1199.37,70.42l-3.08,13.91c-2.78,12.62,3.86,25.32,13.09,25l100.7-3.05c7.89-.23,14-10,13.34-21.22l-1-15.46c-.62-10.18-6.67-17.84-13.83-17.5L1212,56.75C1206.17,57,1201.11,62.52,1199.37,70.42Z"/><path class="cls-2" d="M476.7,27.38l2.49,22a10.47,10.47,0,0,0,10.06,9.28l20.28.66a10.46,10.46,0,0,0,10.73-11.64L517.72,25.2a10.47,10.47,0,0,0-10.31-9.28l-20.22-.17A10.46,10.46,0,0,0,476.7,27.38Z"/><path class="cls-4" d="M472.7,23.46l2.49,22a10.47,10.47,0,0,0,10.06,9.28l20.28.66a10.46,10.46,0,0,0,10.73-11.64l-2.54-22.49A10.47,10.47,0,0,0,503.41,12l-20.22-.17A10.46,10.46,0,0,0,472.7,23.46Z"/><path class="cls-3" d="M711.7,31.46l2.49,22a10.47,10.47,0,0,0,10.06,9.28l20.28.66a10.46,10.46,0,0,0,10.73-11.64l-2.54-22.49A10.47,10.47,0,0,0,742.41,20l-20.22-.17A10.46,10.46,0,0,0,711.7,31.46Z"/><path class="cls-13" d="M711.7,26.46l2.49,22a10.47,10.47,0,0,0,10.06,9.28l20.28.66a10.46,10.46,0,0,0,10.73-11.64l-2.54-22.49A10.47,10.47,0,0,0,742.41,15l-20.22-.17A10.46,10.46,0,0,0,711.7,26.46Z"/><path class="cls-3" d="M1333.64,26.78l1.91,16.85a8,8,0,0,0,7.7,7.1l15.52.51a8,8,0,0,0,8.23-8.91l-2-17.22a8,8,0,0,0-7.9-7.11l-15.48-.13A8,8,0,0,0,1333.64,26.78Z"/><path class="cls-6" d="M1335.64,24.78l1.91,16.85a8,8,0,0,0,7.7,7.1l15.52.51a8,8,0,0,0,8.23-8.91l-2-17.22a8,8,0,0,0-7.9-7.11l-15.48-.13A8,8,0,0,0,1335.64,24.78Z"/><path class="cls-2" d="M493.18,95.43l6.33,17a9.69,9.69,0,0,0,9,6.61l78.85-.91c5.69-.06,10.1-5.51,9.52-11.75l-2-21.25c-.52-5.68-5-9.89-10.16-9.57l-83.21,5.2C494.93,81.13,490.64,88.65,493.18,95.43Z"/><path class="cls-3" d="M606.89,93.43l3.85,17c.91,4,3.09,6.65,5.49,6.61l47.95-.91c3.46-.06,6.14-5.51,5.79-11.75l-1.2-21.25c-.32-5.68-3-9.89-6.18-9.57L612,78.72C608,79.13,605.35,86.65,606.89,93.43Z"/><path class="cls-7" d="M603.89,89.43l3.85,17c.91,4,3.09,6.65,5.49,6.61l47.95-.91c3.46-.06,6.14-5.51,5.79-11.75l-1.2-21.25c-.32-5.68-3-9.89-6.18-9.57L609,74.72C605,75.13,602.35,82.65,603.89,89.43Z"/><path class="cls-3" d="M770.89,35.43l3.85,17c.91,4,3.09,6.65,5.49,6.61l47.95-.91c3.46-.06,6.14-5.51,5.79-11.75l-1.2-21.25c-.32-5.68-3-9.89-6.18-9.57L776,20.72C772,21.13,769.35,28.65,770.89,35.43Z"/></g></g></svg>