<svg xmlns="http://www.w3.org/2000/svg" viewBox="0 0 1220.46 523.88"><defs><style>.cls-1{fill:#bdcd6a;}.cls-2{fill:#cde6ee;}.cls-3{fill:#6f959b;}.cls-4{fill:#28434d;}.cls-5{fill:#b5ac84;}.cls-6{fill:#082637;}.cls-7{fill:#fdfcfe;}.cls-8{fill:#c6c6c6;}.cls-9{fill:#929699;}.cls-10{fill:#0d232e;}.cls-11{fill:#609358;}.cls-12{fill:#e4f1f4;}.cls-13{fill:#9fc4b7;}.cls-14{fill:#e7bf58;}.cls-15{fill:#1e7fba;}.cls-16{fill:#a4c069;}.cls-17{fill:#0c3334;}.cls-18{fill:#fdfbff;}.cls-19{fill:#555655;}.cls-20{fill:#87a5c6;}.cls-21{fill:#382c1c;}.cls-22{fill:#9db6c8;}.cls-23{fill:#aacfd1;}.cls-24{fill:#1e4f55;}.cls-25{fill:#5c8c58;}.cls-26{fill:#536652;}.cls-27{fill:#668499;}.cls-28{fill:#f1f6f5;}.cls-29{fill:#c7cfd3;}.cls-30{fill:#2d2423;}.cls-31{fill:#c7bdc2;}.cls-32{fill:#45b5b5;}.cls-33{fill:#1a4256;}</style></defs><title>Asset 26</title><g id="Layer_2" data-name="Layer 2"><g id="레이어_1" data-name="레이어 1"><path class="cls-1" d="M1183.46,289.8a50.33,50.33,0,0,0-26.25-.32,50.7,50.7,0,0,0-69.43-3,50.72,50.72,0,0,0-75.66,7.44,36,36,0,0,0-45.23-2.52,36,36,0,1,0-9.55,48.08,36,36,0,0,0,52.2,9.85A50.7,50.7,0,0,0,1086.37,362a50.66,50.66,0,0,0,47,12,50.72,50.72,0,1,0,50-84.23Z"/><polygon class="cls-2" points="619.34 123.57 495.84 123.57 495.84 63.16 557.78 11.15 619.34 63.16 619.34 123.57"/><polygon class="cls-3" points="495.84 64.53 495.84 72.33 557.78 21.1 619.34 73.86 619.34 63.16 557.78 11.15 495.84 64.53"/><path class="cls-4" d="M627.6,65.67a5,5,0,0,0-.58-7.06L557.94,0l-.14.16-.09-.1-70,57.78a4.86,4.86,0,0,0-.66,6.84l.5.6a4.67,4.67,0,0,0,6.59.63l63.32-52.27a.44.44,0,0,1,.57,0l62.05,52.65a5.32,5.32,0,0,0,7.49-.62Z"/><rect class="cls-3" x="551.67" y="50.54" width="14.15" height="22.56"/><rect class="cls-5" x="550.52" y="49.01" width="14.15" height="22.56"/><rect x="552.05" y="50.54" width="4.59" height="5.74"/><rect x="558.55" y="50.54" width="4.59" height="5.74"/><rect x="552.05" y="57.42" width="4.59" height="5.74"/><rect x="558.55" y="57.42" width="4.59" height="5.74"/><rect x="552.05" y="64.3" width="4.59" height="5.74"/><rect x="558.55" y="64.3" width="4.59" height="5.74"/><rect class="cls-3" x="512.28" y="87.63" width="14.15" height="22.56"/><rect class="cls-5" x="511.14" y="86.1" width="14.15" height="22.56"/><rect x="512.67" y="87.63" width="4.59" height="5.74"/><rect x="519.17" y="87.63" width="4.59" height="5.74"/><rect x="512.67" y="94.51" width="4.59" height="5.74"/><rect x="519.17" y="94.51" width="4.59" height="5.74"/><rect x="512.67" y="101.39" width="4.59" height="5.74"/><rect x="519.17" y="101.39" width="4.59" height="5.74"/><rect class="cls-3" x="550.9" y="87.63" width="14.15" height="22.56"/><rect class="cls-5" x="549.75" y="86.1" width="14.15" height="22.56"/><rect x="551.28" y="87.63" width="4.59" height="5.74"/><rect x="557.78" y="87.63" width="4.59" height="5.74"/><rect x="551.28" y="94.51" width="4.59" height="5.74"/><rect x="557.78" y="94.51" width="4.59" height="5.74"/><rect x="551.28" y="101.39" width="4.59" height="5.74"/><rect x="557.78" y="101.39" width="4.59" height="5.74"/><rect class="cls-3" x="587.23" y="87.63" width="14.15" height="22.56"/><rect class="cls-5" x="586.08" y="86.1" width="14.15" height="22.56"/><rect x="587.61" y="87.63" width="4.59" height="5.74"/><rect x="594.11" y="87.63" width="4.59" height="5.74"/><rect x="587.61" y="94.51" width="4.59" height="5.74"/><rect x="594.11" y="94.51" width="4.59" height="5.74"/><rect x="587.61" y="101.39" width="4.59" height="5.74"/><rect x="594.11" y="101.39" width="4.59" height="5.74"/><rect class="cls-6" x="995.29" y="273.69" width="7.73" height="11.28"/><polygon class="cls-7" points="1037.16 325 1037.16 374.44 961.45 374.44 961.45 325 999.46 286.37 1037.16 325"/><polygon class="cls-8" points="1037.16 325 1037.16 334.69 999.75 296.47 961.45 335.33 961.45 325 999.46 286.37 1037.16 325"/><rect class="cls-8" x="988.27" y="332.04" width="23.49" height="42.96"/><polygon class="cls-6" points="959.38 333.4 953 327.1 999.47 279.97 1045 326.5 1038.59 332.77 999.45 292.76 959.38 333.4"/><rect class="cls-9" x="987.71" y="331.49" width="23.49" height="42.96"/><rect class="cls-10" x="989.26" y="333.7" width="9.27" height="11.43"/><rect class="cls-10" x="1000.08" y="333.7" width="9.27" height="11.43"/><rect class="cls-10" x="989.26" y="347.03" width="9.27" height="11.43"/><rect class="cls-10" x="1000.08" y="347.03" width="9.27" height="11.43"/><rect class="cls-10" x="989.26" y="360.37" width="9.27" height="11.43"/><rect class="cls-10" x="1000.08" y="360.37" width="9.27" height="11.43"/><path class="cls-11" d="M0,379.81c7.83,2.35,202.79-49.33,256-99.44S366.43,155.1,465.87,129.26,668.66,99.5,795.5,225.56,975.59,377.46,1021,400.17V509L0,523.88Z"/><polygon class="cls-12" points="885.11 312.57 781.95 312.57 781.95 262.11 833.69 218.67 885.11 262.11 885.11 312.57"/><polygon class="cls-13" points="781.95 263.25 781.95 269.77 833.69 226.97 885.11 271.05 885.11 262.11 833.69 218.67 781.95 263.25"/><path class="cls-14" d="M892,264.21a4.19,4.19,0,0,0-.49-5.9l-57.7-49-.12.14-.07-.09-58.45,48.26a4.06,4.06,0,0,0-.55,5.72l.41.5a3.92,3.92,0,0,0,5.51.53l52.89-43.67a.38.38,0,0,1,.48,0l51.83,44a4.44,4.44,0,0,0,6.26-.51Z"/><rect class="cls-13" x="828.58" y="251.57" width="11.82" height="18.84"/><rect class="cls-5" x="827.62" y="250.29" width="11.82" height="18.84"/><rect x="828.9" y="251.57" width="3.83" height="4.79"/><rect x="834.33" y="251.57" width="3.83" height="4.79"/><rect x="828.9" y="257.31" width="3.83" height="4.79"/><rect x="834.33" y="257.31" width="3.83" height="4.79"/><rect x="828.9" y="263.06" width="3.83" height="4.79"/><rect x="834.33" y="263.06" width="3.83" height="4.79"/><rect class="cls-13" x="795.68" y="282.55" width="11.82" height="18.84"/><rect class="cls-5" x="794.72" y="281.27" width="11.82" height="18.84"/><rect x="796" y="282.55" width="3.83" height="4.79"/><rect x="801.43" y="282.55" width="3.83" height="4.79"/><rect x="796" y="288.3" width="3.83" height="4.79"/><rect x="801.43" y="288.3" width="3.83" height="4.79"/><rect x="796" y="294.04" width="3.83" height="4.79"/><rect x="801.43" y="294.04" width="3.83" height="4.79"/><rect class="cls-13" x="827.94" y="282.55" width="11.82" height="18.84"/><rect class="cls-5" x="826.98" y="281.27" width="11.82" height="18.84"/><rect x="828.26" y="282.55" width="3.83" height="4.79"/><rect x="833.69" y="282.55" width="3.83" height="4.79"/><rect x="828.26" y="288.3" width="3.83" height="4.79"/><rect x="833.69" y="288.3" width="3.83" height="4.79"/><rect x="828.26" y="294.04" width="3.83" height="4.79"/><rect x="833.69" y="294.04" width="3.83" height="4.79"/><rect class="cls-13" x="858.28" y="282.55" width="11.82" height="18.84"/><rect class="cls-5" x="857.32" y="281.27" width="11.82" height="18.84"/><rect x="858.6" y="282.55" width="3.83" height="4.79"/><rect x="864.03" y="282.55" width="3.83" height="4.79"/><rect x="858.6" y="288.3" width="3.83" height="4.79"/><rect x="864.03" y="288.3" width="3.83" height="4.79"/><rect x="858.6" y="294.04" width="3.83" height="4.79"/><rect x="864.03" y="294.04" width="3.83" height="4.79"/><polygon class="cls-12" points="481.11 214.57 377.95 214.57 377.95 164.11 429.69 120.67 481.11 164.11 481.11 214.57"/><polygon class="cls-13" points="377.95 165.25 377.95 171.77 429.69 128.97 481.11 173.05 481.11 164.11 429.69 120.67 377.95 165.25"/><path class="cls-15" d="M488,166.21a4.19,4.19,0,0,0-.49-5.9l-57.7-49-.12.14-.07-.09-58.45,48.26a4.06,4.06,0,0,0-.55,5.72l.41.5a3.92,3.92,0,0,0,5.51.53l52.89-43.67a.38.38,0,0,1,.48,0l51.83,44a4.44,4.44,0,0,0,6.26-.51Z"/><rect class="cls-13" x="424.58" y="153.57" width="11.82" height="18.84"/><rect class="cls-5" x="423.62" y="152.29" width="11.82" height="18.84"/><rect x="424.9" y="153.57" width="3.83" height="4.79"/><rect x="430.33" y="153.57" width="3.83" height="4.79"/><rect x="424.9" y="159.31" width="3.83" height="4.79"/><rect x="430.33" y="159.31" width="3.83" height="4.79"/><rect x="424.9" y="165.06" width="3.83" height="4.79"/><rect x="430.33" y="165.06" width="3.83" height="4.79"/><rect class="cls-13" x="391.68" y="184.55" width="11.82" height="18.84"/><rect class="cls-5" x="390.72" y="183.27" width="11.82" height="18.84"/><rect x="392" y="184.55" width="3.83" height="4.79"/><rect x="397.43" y="184.55" width="3.83" height="4.79"/><rect x="392" y="190.3" width="3.83" height="4.79"/><rect x="397.43" y="190.3" width="3.83" height="4.79"/><rect x="392" y="196.04" width="3.83" height="4.79"/><rect x="397.43" y="196.04" width="3.83" height="4.79"/><rect class="cls-13" x="423.94" y="184.55" width="11.82" height="18.84"/><rect class="cls-5" x="422.98" y="183.27" width="11.82" height="18.84"/><rect x="424.26" y="184.55" width="3.83" height="4.79"/><rect x="429.69" y="184.55" width="3.83" height="4.79"/><rect x="424.26" y="190.3" width="3.83" height="4.79"/><rect x="429.69" y="190.3" width="3.83" height="4.79"/><rect x="424.26" y="196.04" width="3.83" height="4.79"/><rect x="429.69" y="196.04" width="3.83" height="4.79"/><rect class="cls-13" x="454.28" y="184.55" width="11.82" height="18.84"/><rect class="cls-5" x="453.32" y="183.27" width="11.82" height="18.84"/><rect x="454.6" y="184.55" width="3.83" height="4.79"/><rect x="460.03" y="184.55" width="3.83" height="4.79"/><rect x="454.6" y="190.3" width="3.83" height="4.79"/><rect x="460.03" y="190.3" width="3.83" height="4.79"/><rect x="454.6" y="196.04" width="3.83" height="4.79"/><rect x="460.03" y="196.04" width="3.83" height="4.79"/><path class="cls-1" d="M949.71,300.76a33.51,33.51,0,0,0-17.38.9,33.63,33.63,0,0,0-46.05,1,33.62,33.62,0,0,0-49.72,8.13,23.86,23.86,0,0,0-30,.25,23.84,23.84,0,1,0-4.27,32.21,23.83,23.83,0,0,0,34.94,4.3,33.59,33.59,0,0,0,51.35,5.14,33.58,33.58,0,0,0,31.63,6,33.62,33.62,0,1,0,29.53-57.84Z"/><path class="cls-16" d="M946.9,325.84a39.63,39.63,0,0,0-36,10.39,33.63,33.63,0,0,0-50.16-17.51,33.81,33.81,0,0,0-7.29,6.4,34,34,0,0,0-59.29,13.2,38.11,38.11,0,1,0,2.53,23.61s0-.06,0-.09a34,34,0,0,0,56.51,6.62,33.62,33.62,0,0,0,44.1,6.68c.89-.58,1.74-1.2,2.55-1.84a39.68,39.68,0,1,0,47-47.46Z"/><path class="cls-11" d="M853.16,341.81a27.93,27.93,0,0,0-26.77,8.83A33.62,33.62,0,0,0,764.05,352a28.53,28.53,0,1,0,12.6,39.74,33.62,33.62,0,0,0,46.45-8.64,27.95,27.95,0,1,0,30.06-41.26Z"/><circle class="cls-11" cx="929.98" cy="392.97" r="37.52"/><circle class="cls-17" cx="892.59" cy="382.42" r="38.57"/><path class="cls-17" d="M842.83,383.62a30,30,0,0,0-13.06,1.6,40.23,40.23,0,0,0-70.29-24.9,46.28,46.28,0,1,0,1.76,55.31A40.24,40.24,0,0,0,811,421.08a29.85,29.85,0,1,0,31.81-37.46Z"/><path class="cls-11" d="M827.37,392.85a21.24,21.24,0,0,0-21.4,1.08,25.54,25.54,0,0,0-46-11.57,21.91,21.91,0,0,0-4.21-2.85A21.69,21.69,0,1,0,761.25,414,25.57,25.57,0,0,0,797,417a21.24,21.24,0,1,0,30.33-24.19Z"/><path class="cls-11" d="M758.37,409.85a21.24,21.24,0,0,0-21.4,1.08,25.54,25.54,0,0,0-46-11.57,21.91,21.91,0,0,0-4.21-2.85A21.69,21.69,0,1,0,692.25,431,25.57,25.57,0,0,0,728,434a21.24,21.24,0,1,0,30.33-24.19Z"/><path class="cls-11" d="M867.37,420.85a21.24,21.24,0,0,0-21.4,1.08,25.54,25.54,0,0,0-46-11.57,21.91,21.91,0,0,0-4.21-2.85A21.69,21.69,0,1,0,801.25,442,25.57,25.57,0,0,0,837,445a21.24,21.24,0,1,0,30.33-24.19Z"/><path class="cls-11" d="M938.37,408.85a21.24,21.24,0,0,0-21.4,1.08,25.54,25.54,0,0,0-46-11.57,21.91,21.91,0,0,0-4.21-2.85A21.69,21.69,0,1,0,872.25,430,25.57,25.57,0,0,0,908,433a21.24,21.24,0,1,0,30.33-24.19Z"/><circle class="cls-11" cx="873.37" cy="445.81" r="28.52"/><polygon class="cls-18" points="379.6 169.63 371.9 169.63 371.9 259.57 288.61 259.57 288.61 169.63 280.21 169.63 329.9 123.78 379.6 169.63"/><polygon class="cls-19" points="377.81 169.63 371.9 169.63 371.9 171.79 330.25 133.2 288.61 171.84 288.61 169.63 282.76 169.63 330.25 125.56 377.81 169.63"/><rect class="cls-19" x="349.85" y="214.42" width="8.75" height="24.15"/><rect class="cls-19" x="351.25" y="215.47" width="6.3" height="10.5"/><rect class="cls-19" x="351.25" y="227.02" width="6.3" height="10.5"/><rect class="cls-19" x="326.4" y="227.72" width="8.75" height="31.85"/><rect class="cls-19" x="327.8" y="229.11" width="6.3" height="13.85"/><rect class="cls-19" x="327.8" y="244.34" width="6.3" height="13.85"/><rect class="cls-19" x="350.2" y="180.83" width="8.75" height="24.15"/><rect class="cls-19" x="351.6" y="181.88" width="6.3" height="10.5"/><rect class="cls-19" x="351.6" y="193.43" width="6.3" height="10.5"/><rect class="cls-19" x="326.4" y="180.48" width="8.75" height="24.15"/><rect class="cls-19" x="327.8" y="181.53" width="6.3" height="10.5"/><rect class="cls-19" x="327.8" y="193.08" width="6.3" height="10.5"/><rect class="cls-19" x="304" y="180.13" width="8.75" height="24.15"/><rect class="cls-19" x="305.4" y="181.18" width="6.3" height="10.5"/><rect class="cls-19" x="305.4" y="192.73" width="6.3" height="10.5"/><rect class="cls-20" x="302.6" y="179.43" width="9.1" height="24.15"/><rect class="cls-21" x="304" y="180.48" width="6.3" height="10.5"/><rect class="cls-21" x="304" y="192.03" width="6.3" height="10.5"/><rect class="cls-20" x="325" y="179.43" width="9.1" height="24.15"/><rect class="cls-21" x="326.4" y="180.48" width="6.3" height="10.5"/><rect class="cls-21" x="326.4" y="192.03" width="6.3" height="10.5"/><rect class="cls-20" x="348.45" y="179.78" width="9.1" height="24.15"/><rect class="cls-21" x="349.85" y="180.83" width="6.3" height="10.5"/><rect class="cls-21" x="349.85" y="192.38" width="6.3" height="10.5"/><polygon class="cls-22" points="279.14 173.96 275.33 169.85 330.6 118.56 385 168.97 381.19 173.08 330.6 126.2 279.14 173.96"/><rect class="cls-23" x="304" y="180.48" width="6.3" height="10.5"/><rect class="cls-23" x="326.4" y="180.48" width="6.3" height="10.5"/><rect class="cls-20" x="348.45" y="213.72" width="8.75" height="24.15"/><rect class="cls-21" x="349.85" y="214.77" width="6.3" height="10.5"/><rect class="cls-21" x="349.85" y="226.32" width="6.3" height="10.5"/><rect class="cls-20" x="324.3" y="227.72" width="9.8" height="31.85"/><rect class="cls-23" x="325.7" y="228.77" width="7" height="30.8"/><path class="cls-16" d="M619.48,101.45a21.21,21.21,0,0,0-18.3,8.16A18,18,0,0,0,573.31,104a17.72,17.72,0,0,0-3.39,3.93,18.19,18.19,0,0,0-30.45,11.36,20.39,20.39,0,1,0,3.08,12.33v-.05a18.2,18.2,0,0,0,30.44-.66,18,18,0,0,0,23.86.29c.43-.37.83-.76,1.22-1.16a21.23,21.23,0,1,0,21.41-28.62Z"/><path class="cls-11" d="M588.63,118.38a12.53,12.53,0,0,0-12,4,15,15,0,0,0-27.89.59,12.77,12.77,0,1,0,5.63,17.79,14.78,14.78,0,0,0,5.3,2.25,15,15,0,0,0,15.49-6.12,12.51,12.51,0,1,0,13.46-18.47Z"/><circle class="cls-11" cx="623.01" cy="141.28" r="16.79"/><path class="cls-11" d="M577.09,141.23a9.5,9.5,0,0,0-9.58.48,11.44,11.44,0,0,0-20.57-5.17,9.58,9.58,0,0,0-1.88-1.28,9.71,9.71,0,1,0,2.43,15.45,11.44,11.44,0,0,0,16,1.35,9.51,9.51,0,1,0,13.58-10.83Z"/><path class="cls-11" d="M546.2,148.84a9.48,9.48,0,0,0-9.57.48,11.44,11.44,0,0,0-20.57-5.17,9.89,9.89,0,0,0-1.88-1.28,9.71,9.71,0,1,0,2.43,15.45,11.47,11.47,0,0,0,16,1.35,9.5,9.5,0,1,0,13.57-10.83Z"/><path class="cls-11" d="M595,153.76a9.5,9.5,0,0,0-9.58.49,11.43,11.43,0,0,0-20.57-5.18,9.58,9.58,0,0,0-1.88-1.28,9.71,9.71,0,1,0,2.43,15.45,11.44,11.44,0,0,0,16,1.35A9.51,9.51,0,1,0,595,153.76Z"/><path class="cls-11" d="M626.77,148.39a9.5,9.5,0,0,0-9.58.49,11.43,11.43,0,0,0-20.57-5.18,9.89,9.89,0,0,0-1.88-1.28,9.71,9.71,0,1,0,2.43,15.45,11.44,11.44,0,0,0,16,1.35,9.51,9.51,0,1,0,13.58-10.83Z"/><circle class="cls-11" cx="597.67" cy="164.93" r="12.77"/><rect class="cls-24" x="703.35" y="84.49" width="9.02" height="13.16"/><polygon class="cls-7" points="752.22 144.36 752.22 202.06 663.86 202.06 663.86 144.36 708.22 99.28 752.22 144.36"/><polygon class="cls-8" points="752.22 144.36 752.22 155.68 708.56 111.07 663.86 156.41 663.86 144.36 708.22 99.28 752.22 144.36"/><rect class="cls-8" x="695.16" y="152.58" width="27.41" height="50.13"/><polygon class="cls-24" points="661.45 154.16 654 146.82 708.23 91.81 761.36 146.11 753.89 153.43 708.2 106.74 661.45 154.16"/><rect class="cls-9" x="694.51" y="151.93" width="27.41" height="50.13"/><rect class="cls-10" x="696.31" y="154.52" width="10.82" height="13.34"/><rect class="cls-10" x="708.94" y="154.52" width="10.82" height="13.34"/><rect class="cls-10" x="696.31" y="170.08" width="10.82" height="13.34"/><rect class="cls-10" x="708.94" y="170.08" width="10.82" height="13.34"/><rect class="cls-10" x="696.31" y="185.64" width="10.82" height="13.34"/><rect class="cls-10" x="708.94" y="185.64" width="10.82" height="13.34"/><path class="cls-1" d="M685.28,176a13.7,13.7,0,0,0-6.71,2.39,13.6,13.6,0,0,0-7-1.3,13.74,13.74,0,0,0-10.94,7,13.77,13.77,0,0,0-18.54,9,9.76,9.76,0,0,0-11.73,3.61,9.74,9.74,0,1,0,2.08,13.12,9.77,9.77,0,0,0,14.2-2.4,13.73,13.73,0,0,0,20.72-4,13.76,13.76,0,0,0,6.38,1,13.59,13.59,0,0,0,6.71-2.38A13.74,13.74,0,1,0,685.28,176Z"/><path class="cls-1" d="M516.82,166.27a14.43,14.43,0,0,1,7.88,1,14.28,14.28,0,0,1,7.19-3.39,15,15,0,0,1,13.73,5.31,14.28,14.28,0,0,1,6.6-2.91c6.5-1,12.75,2.55,15.86,8.47a10.06,10.06,0,0,1,4.58-2,10.53,10.53,0,0,1,9.07,3.05,10.35,10.35,0,0,1,6.74-4.21c5.9-.94,11.51,3.49,12.54,9.9s-2.93,12.36-8.83,13.31a10.52,10.52,0,0,1-9.07-3.05,10.35,10.35,0,0,1-6.74,4.21,10.54,10.54,0,0,1-9.22-3.21,14.62,14.62,0,0,1-9.71,6.23,15,15,0,0,1-13.73-5.32,14.08,14.08,0,0,1-6.6,2.91,14.24,14.24,0,0,1-7.88-1,14.3,14.3,0,0,1-7.18,3.4c-8.33,1.33-16.24-4.91-17.69-14S508.49,167.6,516.82,166.27Z"/><path class="cls-16" d="M741.3,189.74a24.5,24.5,0,0,0-21.12,9.41,20.75,20.75,0,0,0-36.08-1.91A21,21,0,0,0,649,210.36a23.54,23.54,0,1,0,3.55,14.23v-.06a21,21,0,0,0,35.12-.75,20.77,20.77,0,0,0,27.54.33c.5-.43,1-.88,1.41-1.34a24.5,24.5,0,1,0,24.71-33Z"/><path class="cls-11" d="M700.17,206.88a14.44,14.44,0,0,0-13.84,4.56,17.36,17.36,0,0,0-32.2.69,14.24,14.24,0,0,0-3.26-1.11,14.74,14.74,0,1,0,9.77,21.64,17.38,17.38,0,0,0,24-4.47,14.43,14.43,0,1,0,15.53-21.31Z"/><path class="cls-11" d="M587.17,183.88a14.44,14.44,0,0,0-13.84,4.56,17.36,17.36,0,0,0-32.2.69,14.24,14.24,0,0,0-3.26-1.11,14.74,14.74,0,1,0,9.77,21.64,17.38,17.38,0,0,0,24-4.47,14.43,14.43,0,1,0,15.53-21.31Z"/><circle class="cls-11" cx="739.84" cy="233.31" r="19.38"/><path class="cls-11" d="M686.84,233.24a11,11,0,0,0-11.05.56,13.2,13.2,0,0,0-23.74-6,11.86,11.86,0,0,0-2.17-1.48,11.21,11.21,0,1,0,2.81,17.83,13,13,0,0,0,3.95,3.14,13.2,13.2,0,0,0,14.53-1.58,11,11,0,1,0,15.67-12.5Z"/><path class="cls-11" d="M651.2,242a11,11,0,0,0-11.06.55,13.19,13.19,0,0,0-23.73-6,11.41,11.41,0,0,0-2.18-1.47A11.2,11.2,0,1,0,617,253a13.23,13.23,0,0,0,18.49,1.55A11,11,0,1,0,651.2,242Z"/><path class="cls-25" d="M707.51,247.71a11,11,0,0,0-11.06.56,13.2,13.2,0,0,0-23.74-6,11,11,0,0,0-2.17-1.47,11.2,11.2,0,1,0,2.81,17.83,13.21,13.21,0,0,0,18.48,1.55,11,11,0,1,0,15.68-12.49Z"/><path class="cls-11" d="M744.18,241.51a11,11,0,0,0-11,.56,13.2,13.2,0,0,0-23.74-6,11.33,11.33,0,0,0-2.17-1.47A11.2,11.2,0,1,0,710,252.45,13.19,13.19,0,0,0,728.51,254a11,11,0,1,0,15.67-12.5Z"/><circle class="cls-11" cx="710.61" cy="260.6" r="14.73"/><path class="cls-1" d="M275.73,228.9a24.75,24.75,0,0,0-12.13,4.31,24.85,24.85,0,0,0-32.43,10.39,24.86,24.86,0,0,0-33.52,16.26,17.63,17.63,0,0,0-21.22,6.52,17.63,17.63,0,1,0,3.77,23.72,17.62,17.62,0,0,0,25.67-4.33,24.83,24.83,0,0,0,37.47-7.19A24.87,24.87,0,0,0,267,276.12a24.86,24.86,0,1,0,8.72-47.22Z"/><path class="cls-1" d="M261.18,234.67a22.77,22.77,0,0,1,12.6,2.68,22.8,22.8,0,0,1,12-4.64c8.57-.68,16.5,3.58,21.49,10.59a22.69,22.69,0,0,1,11-3.91c10.62-.84,20.26,5.89,24.54,16.06a16.13,16.13,0,0,1,7.63-2.66A16.92,16.92,0,0,1,364.72,259a16.56,16.56,0,0,1,11.41-6c9.64-.76,18.15,7.28,19,18s-6.28,20-15.92,20.73A16.92,16.92,0,0,1,365,285.45a16.61,16.61,0,0,1-11.4,6A17,17,0,0,1,339.07,285a23.42,23.42,0,0,1-16.44,9c-8.57.68-16.5-3.58-21.49-10.59a22.59,22.59,0,0,1-23.61,1.23,22.8,22.8,0,0,1-12,4.64c-13.6,1.08-25.59-10.26-26.78-25.32S247.58,235.75,261.18,234.67Z"/><path class="cls-16" d="M361.38,256.9a44.24,44.24,0,0,0-38.19,17A38.15,38.15,0,0,0,318,266.1a37.55,37.55,0,0,0-53-3.82,38,38,0,0,0-7.08,8.19,38,38,0,0,0-63.55,23.73,42.56,42.56,0,1,0,6.43,25.73s0-.07,0-.1a38,38,0,0,0,63.53-1.37,37.54,37.54,0,0,0,49.79.6q1.35-1.17,2.55-2.43a44.31,44.31,0,1,0,44.69-59.73Z"/><path class="cls-26" d="M309.9,335.58a19.8,19.8,0,0,0-20,1A23.87,23.87,0,0,0,247,325.78a19.59,19.59,0,0,0-3.92-2.66,20.26,20.26,0,1,0,5.08,32.24,23.88,23.88,0,0,0,33.43,2.81,19.84,19.84,0,1,0,28.34-22.59Z"/><path class="cls-11" d="M245.44,351.46a19.82,19.82,0,0,0-20,1,23.87,23.87,0,0,0-42.93-10.81,20.86,20.86,0,0,0-3.93-2.66,20.26,20.26,0,1,0,5.08,32.24,23.89,23.89,0,0,0,33.43,2.82,19.84,19.84,0,1,0,28.34-22.6Z"/><path class="cls-11" d="M347.26,361.73a19.85,19.85,0,0,0-20,1,23.86,23.86,0,0,0-42.93-10.8,20.26,20.26,0,1,0,1.16,29.58,23.87,23.87,0,0,0,33.42,2.81,19.84,19.84,0,1,0,28.34-22.6Z"/><path class="cls-11" d="M413.59,350.52a19.85,19.85,0,0,0-20,1,23.87,23.87,0,0,0-42.93-10.8,20.26,20.26,0,1,0,1.15,29.58,23.88,23.88,0,0,0,33.43,2.81,19.84,19.84,0,1,0,28.34-22.6Z"/><circle class="cls-11" cx="352.87" cy="385.05" r="26.64"/><path class="cls-11" d="M320.8,302.2a28.66,28.66,0,0,0-27.48,9.06,34.49,34.49,0,0,0-64,1.37,29.28,29.28,0,1,0,12.93,40.78A34.49,34.49,0,0,0,290,344.54,28.68,28.68,0,1,0,320.8,302.2Z"/><circle class="cls-11" cx="368.75" cy="331.69" r="35.05"/><path class="cls-11" d="M490.42,193.87a24.83,24.83,0,0,0-23.81,7.86,29.89,29.89,0,0,0-55.44,1.18,25.67,25.67,0,0,0-5.62-1.91,25.37,25.37,0,1,0,16.83,37.26,29.9,29.9,0,0,0,41.31-7.69,24.85,24.85,0,1,0,26.73-36.7Z"/><polygon class="cls-27" points="550.67 283.94 537.69 283.94 539.21 261.71 539.44 258.32 548.91 258.32 549.15 261.71 550.67 283.94"/><polygon class="cls-28" points="563.23 292.64 563.23 385.43 442.9 385.43 442.9 292.64 502.82 253.01 563.23 292.64"/><rect class="cls-29" x="442.9" y="358.36" width="120.34" height="27.06"/><rect class="cls-29" x="488.81" y="333.23" width="28.51" height="52.19"/><polygon class="cls-29" points="563.23 293.76 563.56 302.75 503.64 263.85 443.18 302.89 442.9 294.66 503.3 254.85 563.23 293.76"/><rect class="cls-29" x="530.13" y="308.34" width="25.37" height="35.76"/><rect class="cls-29" x="456.67" y="308.83" width="14.74" height="35.76"/><rect class="cls-30" x="528.68" y="307.38" width="25.37" height="35.76"/><rect class="cls-31" x="530.37" y="309.07" width="21.75" height="31.9"/><rect class="cls-30" x="531.82" y="310.69" width="8.7" height="13.85"/><rect class="cls-30" x="541.49" y="310.69" width="8.7" height="13.85"/><rect class="cls-30" x="531.82" y="326.15" width="8.7" height="13.85"/><rect class="cls-30" x="541.49" y="326.15" width="8.7" height="13.85"/><rect class="cls-30" x="455.46" y="307.62" width="14.02" height="35.76"/><rect class="cls-31" x="456.91" y="309.55" width="11.12" height="31.9"/><rect class="cls-30" x="457.88" y="310.69" width="8.7" height="13.85"/><rect class="cls-30" x="457.88" y="325.98" width="8.7" height="14.02"/><path class="cls-32" d="M436.62,301.55A6.5,6.5,0,0,1,433,289.63l70.79-46.85,69.8,46.88a6.5,6.5,0,1,1-7.24,10.79L503.76,258.4,440.2,300.47A6.47,6.47,0,0,1,436.62,301.55Z"/><rect class="cls-30" x="486.39" y="332.27" width="28.51" height="53.16"/><polygon class="cls-33" points="549.15 261.71 539.21 261.71 539.44 258.32 548.91 258.32 549.15 261.71"/><polygon class="cls-12" points="696.56 303.57 625.39 303.57 625.39 268.76 661.08 238.79 696.56 268.76 696.56 303.57"/><polygon class="cls-13" points="625.39 269.55 625.39 274.05 661.08 244.52 696.56 274.93 696.56 268.76 661.08 238.79 625.39 269.55"/><path class="cls-14" d="M701.31,270.21a2.88,2.88,0,0,0-.33-4.07l-39.81-33.78-.08.1-.05-.06-40.32,33.29a2.82,2.82,0,0,0-.38,3.95l.29.34a2.7,2.7,0,0,0,3.8.36l36.48-30.12a.25.25,0,0,1,.33,0L697,270.56a3.06,3.06,0,0,0,4.31-.35Z"/><rect class="cls-13" x="657.56" y="261.49" width="8.15" height="13"/><rect class="cls-5" x="656.9" y="260.6" width="8.15" height="13"/><rect x="657.78" y="261.49" width="2.64" height="3.31"/><rect x="661.52" y="261.49" width="2.64" height="3.31"/><rect x="657.78" y="265.45" width="2.64" height="3.31"/><rect x="661.52" y="265.45" width="2.64" height="3.31"/><rect x="657.78" y="269.42" width="2.64" height="3.31"/><rect x="661.52" y="269.42" width="2.64" height="3.31"/><rect class="cls-13" x="634.86" y="282.86" width="8.15" height="13"/><rect class="cls-5" x="634.2" y="281.98" width="8.15" height="13"/><rect x="635.08" y="282.86" width="2.64" height="3.31"/><rect x="638.83" y="282.86" width="2.64" height="3.31"/><rect x="635.08" y="286.82" width="2.64" height="3.31"/><rect x="638.83" y="286.82" width="2.64" height="3.31"/><rect x="635.08" y="290.79" width="2.64" height="3.31"/><rect x="638.83" y="290.79" width="2.64" height="3.31"/><rect class="cls-13" x="657.12" y="282.86" width="8.15" height="13"/><rect class="cls-5" x="656.46" y="281.98" width="8.15" height="13"/><rect x="657.34" y="282.86" width="2.64" height="3.31"/><rect x="661.08" y="282.86" width="2.64" height="3.31"/><rect x="657.34" y="286.82" width="2.64" height="3.31"/><rect x="661.08" y="286.82" width="2.64" height="3.31"/><rect x="657.34" y="290.79" width="2.64" height="3.31"/><rect x="661.08" y="290.79" width="2.64" height="3.31"/><rect class="cls-13" x="678.05" y="282.86" width="8.15" height="13"/><rect class="cls-5" x="677.39" y="281.98" width="8.15" height="13"/><rect x="678.27" y="282.86" width="2.64" height="3.31"/><rect x="682.02" y="282.86" width="2.64" height="3.31"/><rect x="678.27" y="286.82" width="2.64" height="3.31"/><rect x="682.02" y="286.82" width="2.64" height="3.31"/><rect x="678.27" y="290.79" width="2.64" height="3.31"/><rect x="682.02" y="290.79" width="2.64" height="3.31"/><path class="cls-17" d="M676.86,300.9a15.31,15.31,0,0,0-6.29,2.34,20.54,20.54,0,0,0-37.84-4.05,23.62,23.62,0,1,0,7.42,27.25,20.49,20.49,0,0,0,25.35-3.18,15.23,15.23,0,1,0,11.36-22.36Z"/><path class="cls-17" d="M593.86,355.9a15.31,15.31,0,0,0-6.29,2.34,20.54,20.54,0,0,0-37.84-4.05,23.62,23.62,0,1,0,7.42,27.25,20.49,20.49,0,0,0,25.35-3.18,15.23,15.23,0,1,0,11.36-22.36Z"/><path class="cls-11" d="M694,306.06a20.12,20.12,0,0,0-19.28,6.35,24.2,24.2,0,0,0-44.88,1,21.49,21.49,0,0,0-4.56-1.55A20.55,20.55,0,1,0,638.9,342a24.22,24.22,0,0,0,33.44-6.23A20.12,20.12,0,1,0,694,306.06Z"/><path class="cls-11" d="M600,363.89a26.1,26.1,0,0,0-25,8.25,31.4,31.4,0,0,0-58.23,1.25,26.66,26.66,0,1,0,11.76,37.12,31.41,31.41,0,0,0,43.4-8.07A26.11,26.11,0,1,0,600,363.89Z"/><path class="cls-11" d="M516.62,364.87a15.47,15.47,0,0,0-14.84,4.9,18.64,18.64,0,0,0-34.56.73,16.12,16.12,0,0,0-3.51-1.19,15.82,15.82,0,1,0,10.5,23.23,18.64,18.64,0,0,0,25.75-4.8,15.49,15.49,0,1,0,16.66-22.87Z"/></g></g></svg>