<svg xmlns="http://www.w3.org/2000/svg" viewBox="0 0 787 581.52"><defs><style>.cls-1{fill:#020911;}.cls-2{fill:#072a43;}.cls-3{fill:#0f1d31;}.cls-4{fill:#1a3553;}.cls-5{fill:#52a4af;}.cls-6{fill:#373447;}.cls-7{fill:#b7a25f;}.cls-8{fill:#4092a0;}</style></defs><title>Asset 27</title><g id="Layer_2" data-name="Layer 2"><g id="레이어_1" data-name="레이어 1"><polygon class="cls-1" points="787 578 0.33 578.27 0.33 141.28 484.46 119.55 628 109 625 211 639 417 719.1 528.15 719.13 528.18 787 578"/><polygon class="cls-1" points="206 72 204 72.13 195 82.69 195 66 186.51 66 186.51 75 186.51 78.52 180.12 75 175.51 73.5 186.51 81.38 186.51 105.19 186.51 108 195 108 195 86.93 206 72"/><path class="cls-2" d="M237.5,57a3.67,3.67,0,0,0-.75.08l0-.09c2.94-.05,5.28-1.14,5.28-2.49,0-1-1.25-1.83-3.05-2.24A4.49,4.49,0,0,0,235.88,44a5,5,0,0,0-.89.22,20,20,0,0,0-.39-3.8A4.49,4.49,0,0,0,232.5,32a3.67,3.67,0,0,0-.75.08,4.46,4.46,0,0,0-3.13-2.92,28,28,0,0,0-3-2.78,3.56,3.56,0,0,0,1-2.38c0-2.62-3.35-4.76-7.61-5A4,4,0,0,0,220,16.5c0-2.49-2.46-4.5-5.5-4.5a6.55,6.55,0,0,0-2.2.38A4.41,4.41,0,0,0,213,10a3.78,3.78,0,0,0-3.5-4,3.29,3.29,0,0,0-2.56,1.29A3.67,3.67,0,0,0,203.5,4a3.17,3.17,0,0,0-1.54.42A3,3,0,0,0,202,4a3.78,3.78,0,0,0-3.5-4A3.28,3.28,0,0,0,196,1.21,3.28,3.28,0,0,0,193.5,0,3.78,3.78,0,0,0,190,4a4.15,4.15,0,0,0,.07.79,4.46,4.46,0,0,0-7.14,0A4.49,4.49,0,1,0,175,8.28,4.46,4.46,0,0,0,172.05,12l-.55,0c-3,0-5.5,2-5.5,4.5a3.84,3.84,0,0,0,.54,1.93A7.51,7.51,0,0,0,164,18c-2.76,0-5,1.34-5,3s2.24,3,5,3a8.07,8.07,0,0,0,1.88-.22A3.45,3.45,0,0,0,165,26c0,1.42,1,2.71,2.59,3.62A2.12,2.12,0,0,0,167,31a2,2,0,0,0,.14.69,9.15,9.15,0,0,0-2.69-.64,2.5,2.5,0,1,0-3.61.3,6.56,6.56,0,0,0-2.9,1.58,4.49,4.49,0,0,0-8.94.57s0,0,0,.07A10.4,10.4,0,0,0,145.5,33c-3,0-5.5,1.12-5.5,2.5,0,.72.68,1.38,1.77,1.83-1.65.43-2.77,1.24-2.77,2.17A1.93,1.93,0,0,0,140.14,41l-.64,0c-3,0-5.5,1.12-5.5,2.5s2.46,2.5,5.5,2.5a10,10,0,0,0,3.8-.69,3.93,3.93,0,0,0,1.88,1.18,4.43,4.43,0,0,0-1,1.73,4.48,4.48,0,0,0,.25,3.19A7.69,7.69,0,0,0,139.5,50c-3,0-5.5,1.12-5.5,2.5s2.46,2.5,5.5,2.5l.61,0c.49,1.15,2.72,2,5.39,2a10.13,10.13,0,0,0,3.62-.62,14.46,14.46,0,0,0,.57,2.61,4.24,4.24,0,0,0-1.62,2.37,3.72,3.72,0,0,0-.5-.2,4.5,4.5,0,0,0-5.6,3,5.31,5.31,0,0,0-.16.87,7.19,7.19,0,0,0-.81,0c-2.76,0-5,1.34-5,3,0,1,.87,1.94,2.19,2.48A4.46,4.46,0,0,0,140,77.73a2.45,2.45,0,0,0,0,.27c0,2.76,3.73,5,8.33,5a11.78,11.78,0,0,0,5.59-1.3,4.39,4.39,0,0,0,1.58.3,4.49,4.49,0,0,0,4.5-4.5,4.58,4.58,0,0,0-.08-.83,10.07,10.07,0,0,0,2.58.33,8.61,8.61,0,0,0,4.82-1.33c.43,1.38,1.24,2.33,2.18,2.33a2.28,2.28,0,0,0,1.85-1.5,9.77,9.77,0,0,0,3.15.5c3.39,0,6.18-1.6,6.47-3.64a9.74,9.74,0,0,0,3.53.64c3.59,0,6.5-1.79,6.5-4v0l1,.22A4.3,4.3,0,0,0,191,73a3.52,3.52,0,1,0,7,.11A8,8,0,0,0,203.5,75c3.59,0,6.5-1.79,6.5-4a1.55,1.55,0,0,0,0-.31,10.19,10.19,0,0,0,2.53.31,9.74,9.74,0,0,0,3.53-.64A3.71,3.71,0,0,0,219.5,74a3.78,3.78,0,0,0,3.5-4c0-.1,0-.19,0-.28a4.46,4.46,0,0,0,1.52.28,3.93,3.93,0,0,0,.6-.06q.6.06,1.23.06c4.61,0,8.34-2.24,8.34-5,0,0,0,0,0,0a4.49,4.49,0,1,0,2.84-8Zm-3.89-5.07q.22.18.45.33a5.79,5.79,0,0,0-.63.17C233.5,52.26,233.55,52.1,233.61,51.93ZM177,17h0s0,0,0,.05v0h0S177,17,177,17ZM157.18,36.07l0,0,0,0Zm-6.82.65-.1,0,.07-.06ZM200,7.58A3,3,0,0,0,200,8c0,.07,0,.14,0,.21-.66-.07-1.33-.12-2-.16l-.1-.12a3,3,0,0,0,.59.07A3.17,3.17,0,0,0,200,7.58Z"/><path class="cls-1" d="M237.5,57a3.67,3.67,0,0,0-.75.08l0-.09c2.94-.05,5.28-1.14,5.28-2.49,0-1-1.25-1.83-3.05-2.24A4.49,4.49,0,0,0,235.88,44a5,5,0,0,0-.89.22,20,20,0,0,0-.39-3.8A4.49,4.49,0,0,0,232.5,32a3.67,3.67,0,0,0-.75.08,4.46,4.46,0,0,0-3.13-2.92,28,28,0,0,0-3-2.78,3.56,3.56,0,0,0,1-2.38c0-2.62-3.35-4.76-7.61-5A4,4,0,0,0,220,16.5c0-2.49-2.46-4.5-5.5-4.5a6.55,6.55,0,0,0-2.2.38A4.41,4.41,0,0,0,213,10a3.78,3.78,0,0,0-3.5-4,3.29,3.29,0,0,0-2.56,1.29A3.67,3.67,0,0,0,203.5,4a3.17,3.17,0,0,0-1.54.42A3,3,0,0,0,202,4a3.78,3.78,0,0,0-3.5-4A3.28,3.28,0,0,0,196,1.21,3.28,3.28,0,0,0,193.5,0,3.78,3.78,0,0,0,190,4a4.15,4.15,0,0,0,.07.79,4.46,4.46,0,0,0-7.14,0A4.49,4.49,0,0,0,174,5.5a3.94,3.94,0,0,0,.19,1.25A13,13,0,0,1,179,5.88c5,0,9,2.49,9,5.56h0c-2.25.16-4,1.34-4,2.77a2.08,2.08,0,0,0,.72,1.51A5.3,5.3,0,0,0,188,17l.53,0a5.84,5.84,0,0,0,3.5-1,5.84,5.84,0,0,0,3.5,1,5.39,5.39,0,0,0,3.91-1.4c2.74,1,4.59,2.76,4.59,4.84h0c-2.25.16-4,1.34-4,2.77a1.94,1.94,0,0,0,0,.24,8.89,8.89,0,0,0-1.52.59A7,7,0,0,0,195.94,26a12.58,12.58,0,0,0,4.15-.95A4.42,4.42,0,0,1,202,28.44a3.91,3.91,0,0,1-.95,2.48,12.8,12.8,0,0,1,3.45.71,8,8,0,0,1,1.62.75,2.94,2.94,0,0,0-.12.84,2.65,2.65,0,0,0,.07.63,4.27,4.27,0,0,0,1.92,2.6,5.62,5.62,0,0,0,1,.56A10.2,10.2,0,0,0,213,38a4.71,4.71,0,0,1,.89.75,3.64,3.64,0,0,1,1,1.87,6.3,6.3,0,0,0,2.44-2.14,10.23,10.23,0,0,1,1.7.27,1.59,1.59,0,0,0-.07.48c0,1.54,2,2.78,4.5,2.78h.24a3.09,3.09,0,0,1,.26,1.23c0,2.64-3.36,4.78-7.5,4.78-.35,0-.69,0-1,0a7,7,0,0,1,1.67,1.61c-1.82.37-3.14,1.42-3.14,2.66a1.69,1.69,0,0,0,.15.7,3.79,3.79,0,0,0,2.79,1.91,7.1,7.1,0,0,0,1.56.17,6.76,6.76,0,0,0,1.72-.21A5.29,5.29,0,0,1,223,59.06c0,3-3.54,5.56-8.2,6.07a4.4,4.4,0,0,1,1.2,2.93,4.36,4.36,0,0,1-.94,2.62,9.18,9.18,0,0,0,1-.32A3.71,3.71,0,0,0,219.5,74a3.78,3.78,0,0,0,3.5-4c0-.1,0-.19,0-.28a4.46,4.46,0,0,0,1.52.28,3.93,3.93,0,0,0,.6-.06q.6.06,1.23.06c4.61,0,8.34-2.24,8.34-5,0,0,0,0,0,0a4.49,4.49,0,1,0,2.84-8ZM200,8.21c-.66-.07-1.33-.12-2-.16l-.1-.12a3,3,0,0,0,.59.07A3.17,3.17,0,0,0,200,7.58,3,3,0,0,0,200,8C200,8.07,200,8.14,200,8.21Zm33.41,44.22c.07-.17.12-.33.18-.5q.22.18.45.33A5.79,5.79,0,0,0,233.43,52.43Z"/><polygon class="cls-3" points="475.49 135.5 355 421 168.63 574.5 0 579 132.94 135.5 475.49 135.5"/><polygon class="cls-4" points="212.68 155.5 165.84 430.42 1.98 581.52 1.58 155.5 212.68 155.5"/><path class="cls-5" d="M1.28,108,628,109s-49.08,19.5-66,19.5H432.6l41.83,7-10.55,6H250.17l-39.61,15L1.32,161.23Z"/><polygon class="cls-3" points="138.16 34 175.92 68 164.12 68 125.18 34 138.16 34"/><polygon class="cls-1" points="97.45 68.29 134.03 35.51 168.25 66.3 168.25 110 97.45 110 97.45 68.29"/><polygon class="cls-3" points="73.55 25.32 73.55 45.32 82.75 45.32 82.75 24.89 73.55 24.89 73.55 25.32"/><polyline class="cls-1" points="82.75 24.89 90.38 24.89 90.38 45.32 82.75 45.32"/><rect class="cls-3" x="50.24" y="69.5" width="47.79" height="40.5"/><rect class="cls-6" x="113.38" y="70" width="11.8" height="23"/><rect class="cls-7" x="113.38" y="70" width="10.62" height="11"/><rect class="cls-7" x="113.38" y="82" width="10.62" height="10"/><rect class="cls-3" x="70.89" y="22" width="21.24" height="3"/><rect class="cls-4" x="66.17" y="70" width="12.98" height="40"/><polygon class="cls-8" points="85.06 34 136.98 34 97.45 70 43 70 85.06 34"/><polygon class="cls-7" points="116 110 126 110 176.11 158 121 158 116 110"/></g></g></svg>