<svg xmlns="http://www.w3.org/2000/svg" viewBox="0 0 298.86 298.75"><defs><style>.cls-1{opacity:0.83;}.cls-2{fill:#536163;}</style></defs><title>Asset 36</title><g id="Layer_2" data-name="Layer 2"><g id="레이어_1" data-name="레이어 1"><g class="cls-1"><path class="cls-2" d="M276.19,36.47C253.86,9.94,225.06-2.36,190.41.37c-25.87,2-47.47,13.33-65,32.43-1.46,1.59-2.5,1.62-4.3.74-34-16.58-73.37-9.23-99,18.6A81.89,81.89,0,0,0,.32,101.86a82.13,82.13,0,0,0,8.74,44.81,82.8,82.8,0,0,0,29.87,33,80.77,80.77,0,0,0,42.49,13c2.57.06,3.79,1.05,4.89,3.3,7.5,15.29,19.8,24.48,36.5,27.31a49,49,0,0,0,50.77-24.37c1.22-2.16,2.35-2.67,4.78-2.11a95,95,0,0,0,41.07.18,97.62,97.62,0,0,0,53.43-30.65c17.17-19,25.56-41.4,26-65.95C298.57,75.84,291.4,54.53,276.19,36.47Z"/><path class="cls-2" d="M87.1,224.07a24.87,24.87,0,1,0,25,25C112.2,235.56,100.69,224,87.1,224.07Z"/><path class="cls-2" d="M31.49,261.45a18.75,18.75,0,0,0-19.07,18.34c-.38,9.9,8,18.65,18.23,18.95a18.65,18.65,0,0,0,.84-37.29Z"/></g><path d="M116.44,112.61h64.37c0,.14,0,.25,0,.36,0,2.66.06,5.32,0,8a31.51,31.51,0,0,1-5.64,17,32,32,0,0,1-12.45,10.73,31.31,31.31,0,0,1-10.51,3,32.13,32.13,0,0,1-28.62-11.8,32.25,32.25,0,0,1-6.28-12.74,38.41,38.41,0,0,1-.87-9.62c0-1.48,0-3,0-4.45Z"/><path d="M146.84,69.71v3.43c0,2.37,0,4.74,0,7.11a.6.6,0,0,1-.4.65,5.2,5.2,0,0,0-3.16,5c0,3.52,0,7,0,10.55a5.24,5.24,0,0,0,3.24,5c.13.06.31.22.31.34,0,2.4,0,4.8,0,7.23H116.43v-2.16c0-1.94,0-3.89,0-5.83a31.48,31.48,0,0,1,4.37-15.33,31.94,31.94,0,0,1,10.41-10.84,31.47,31.47,0,0,1,12.36-4.71C144.65,69.93,145.72,69.84,146.84,69.71Z"/><path d="M150.45,109c0-.16,0-.3,0-.44,0-2.19,0-4.38,0-6.57a.58.58,0,0,1,.4-.61,5.23,5.23,0,0,0,3.18-5c0-3.51,0-7,0-10.54a5.14,5.14,0,0,0-3.18-4.9c-.25-.12-.39-.23-.39-.54,0-3.43,0-6.86,0-10.29,0-.09,0-.19,0-.3a30.17,30.17,0,0,1,6.23,1,31.76,31.76,0,0,1,14.92,8.63,31.2,31.2,0,0,1,8.7,16.85,42.57,42.57,0,0,1,.51,6c.08,2.25,0,4.51,0,6.79Z"/><path d="M146.83,91.13c0-1.77,0-3.53,0-5.29a1.7,1.7,0,0,1,1.07-1.71,1.74,1.74,0,0,1,2,.34,1.85,1.85,0,0,1,.56,1.45c0,3.5,0,7,0,10.49a1.83,1.83,0,0,1-1.84,1.88,1.85,1.85,0,0,1-1.76-1.92Z"/></g></g></svg>