<svg xmlns="http://www.w3.org/2000/svg" viewBox="0 0 1206 228.27"><defs><style>.cls-1{fill:#0a2035;}</style></defs><title>Asset 29</title><g id="Layer_2" data-name="Layer 2"><g id="레이어_1" data-name="레이어 1"><polygon class="cls-1" points="1158.37 58.49 1158.37 34.78 1149.35 59.05 1143.83 59.4 1132.85 28.08 1141.17 59.57 953.68 71.33 942 34.78 942 72.06 932.27 42.51 932.27 72.67 929.97 72.82 916.26 0 916.26 73.68 782.31 148.71 782.31 113.37 773.9 147.1 763.34 85.73 763.28 157.87 752.78 129.66 752.78 165.25 731.67 177.08 556.51 224.86 442.85 169.58 359.99 150 355.89 121.8 351.88 148.08 349.68 147.57 349.14 147.81 345.34 113.37 340.69 151.53 337.99 152.72 331.05 126.78 331.05 155.77 241.23 195.33 234.28 196.15 231.4 162.09 226.96 197.02 223.89 197.38 219.87 175.67 215.84 198.33 98.14 212.21 59.01 198.75 59.01 187.85 55.26 197.46 52.09 196.38 48.45 157.87 45.41 194.07 43.43 193.39 38.51 171.28 38.51 191.7 0 178.45 0 228.27 1206 228.27 1206 55.5 1158.37 58.49"/></g></g></svg>