<svg xmlns="http://www.w3.org/2000/svg" viewBox="0 0 796 651.27"><defs><style>.cls-1{fill:#1a3553;}.cls-2{fill:#020911;}.cls-3{fill:#0f1d31;}.cls-4{fill:#52a4af;}.cls-5{fill:#072a43;}.cls-6{fill:#031526;}.cls-7{fill:#071f2d;}.cls-8{fill:#051628;}</style></defs><title>Asset 30</title><g id="Layer_2" data-name="Layer 2"><g id="레이어_1" data-name="레이어 1"><polygon class="cls-1" points="0 237.76 0 378.33 59.88 514.25 20.04 650 435 648.5 380 193 0 237.76"/><polygon class="cls-2" points="283.4 235.23 263 496 355.4 651.27 735.32 647 704 209.5 283.4 235.23"/><polygon class="cls-1" points="506 245.95 496 392 544 465 527 611 554.55 650 735.32 647 693.96 226.17 506 245.95"/><polygon class="cls-3" points="635 272.72 635 528.87 700.14 650 766 650 766 217.73 643.45 244.47 635 272.72"/><polygon class="cls-4" points="150 211 225 182 605.11 182 766 182 766 222.51 643 257 506 245.95 286.47 257 6 237.26 23 214.37 150 211"/><polygon class="cls-2" points="562 145 560 145.13 551 155.69 551 139 542.51 139 542.51 148 542.51 151.52 536.12 148 531.51 146.5 542.51 154.38 542.51 178.19 542.51 181 551 181 551 159.93 562 145"/><path class="cls-5" d="M593.5,130a3.67,3.67,0,0,0-.75.08l0-.09c2.94-.05,5.28-1.14,5.28-2.49,0-1-1.25-1.83-3-2.24a4.49,4.49,0,0,0-3.07-8.22,5,5,0,0,0-.89.22,20,20,0,0,0-.39-3.8,4.49,4.49,0,0,0-2.1-8.46,3.67,3.67,0,0,0-.75.08,4.46,4.46,0,0,0-3.13-2.92,28,28,0,0,0-3-2.78,3.56,3.56,0,0,0,1-2.38c0-2.62-3.35-4.76-7.61-5A4,4,0,0,0,576,89.5c0-2.49-2.46-4.5-5.5-4.5a6.55,6.55,0,0,0-2.2.38A4.41,4.41,0,0,0,569,83a3.78,3.78,0,0,0-3.5-4,3.29,3.29,0,0,0-2.56,1.29A3.67,3.67,0,0,0,559.5,77a3.17,3.17,0,0,0-1.54.42,3,3,0,0,0,0-.42,3.78,3.78,0,0,0-3.5-4,3.19,3.19,0,0,1-5,0,3.78,3.78,0,0,0-3.5,4,4.15,4.15,0,0,0,.07.79,4.46,4.46,0,0,0-7.14,0A4.49,4.49,0,1,0,531,81.28,4.46,4.46,0,0,0,528.05,85l-.55,0c-3,0-5.5,2-5.5,4.5a3.84,3.84,0,0,0,.54,1.93A7.51,7.51,0,0,0,520,91c-2.76,0-5,1.34-5,3s2.24,3,5,3a8.07,8.07,0,0,0,1.88-.22A3.45,3.45,0,0,0,521,99c0,1.42,1,2.71,2.59,3.62A2.12,2.12,0,0,0,523,104a2,2,0,0,0,.14.69,9.15,9.15,0,0,0-2.69-.64,2.5,2.5,0,1,0-3.61.3,6.56,6.56,0,0,0-2.9,1.58,4.49,4.49,0,0,0-8.94.57s0,0,0,.07a10.4,10.4,0,0,0-3.51-.57c-3,0-5.5,1.12-5.5,2.5,0,.72.68,1.38,1.77,1.83-1.65.43-2.77,1.24-2.77,2.17a1.93,1.93,0,0,0,1.14,1.52l-.64,0c-3,0-5.5,1.12-5.5,2.5s2.46,2.5,5.5,2.5a10,10,0,0,0,3.8-.69,3.93,3.93,0,0,0,1.88,1.18,4.43,4.43,0,0,0-1,1.73,4.48,4.48,0,0,0,.25,3.19A7.69,7.69,0,0,0,495.5,123c-3,0-5.5,1.12-5.5,2.5s2.46,2.5,5.5,2.5l.61,0c.49,1.15,2.72,2,5.39,2a10.13,10.13,0,0,0,3.62-.62,14.46,14.46,0,0,0,.57,2.61,4.24,4.24,0,0,0-1.62,2.37,3.72,3.72,0,0,0-.5-.2,4.5,4.5,0,0,0-5.6,3,5.31,5.31,0,0,0-.16.87A7.19,7.19,0,0,0,497,138c-2.76,0-5,1.34-5,3,0,1,.87,1.94,2.19,2.48a4.46,4.46,0,0,0,1.83,7.25,2.45,2.45,0,0,0,0,.27c0,2.76,3.73,5,8.33,5a11.78,11.78,0,0,0,5.59-1.3,4.39,4.39,0,0,0,1.58.3,4.49,4.49,0,0,0,4.5-4.5,4.58,4.58,0,0,0-.08-.83,10.07,10.07,0,0,0,2.58.33,8.61,8.61,0,0,0,4.82-1.33c.43,1.38,1.24,2.33,2.18,2.33a2.28,2.28,0,0,0,1.85-1.5,9.77,9.77,0,0,0,3.15.5c3.39,0,6.18-1.6,6.47-3.64a9.74,9.74,0,0,0,3.53.64c3.59,0,6.5-1.79,6.5-4v0l1,.22a4.3,4.3,0,0,0-1,2.81,3.52,3.52,0,1,0,7,.11A8,8,0,0,0,559.5,148c3.59,0,6.5-1.79,6.5-4a1.55,1.55,0,0,0,0-.31,10.19,10.19,0,0,0,2.53.31,9.74,9.74,0,0,0,3.53-.64A3.71,3.71,0,0,0,575.5,147a3.78,3.78,0,0,0,3.5-4c0-.1,0-.19,0-.28a4.46,4.46,0,0,0,1.52.28,3.93,3.93,0,0,0,.6-.06q.6.06,1.23.06c4.61,0,8.34-2.24,8.34-5v0a4.49,4.49,0,1,0,2.84-8Zm-3.89-5.07.45.33a5.79,5.79,0,0,0-.63.17C589.5,125.26,589.55,125.1,589.61,124.93ZM533,90h0s0,0,0,0v0h0S533,90,533,90Zm-19.79,19.12s0,0,0,0l0,0Zm-6.82.65-.1,0,.07-.06ZM556,80.58a3,3,0,0,0,0,.42c0,.07,0,.14,0,.21-.66-.07-1.33-.12-2-.16l-.1-.12a3,3,0,0,0,.59.07A3.17,3.17,0,0,0,556,80.58Z"/><path class="cls-6" d="M593.5,130a3.67,3.67,0,0,0-.75.08l0-.09c2.94-.05,5.28-1.14,5.28-2.49,0-1-1.25-1.83-3-2.24a4.49,4.49,0,0,0-3.07-8.22,5,5,0,0,0-.89.22,20,20,0,0,0-.39-3.8,4.49,4.49,0,0,0-2.1-8.46,3.67,3.67,0,0,0-.75.08,4.46,4.46,0,0,0-3.13-2.92,28,28,0,0,0-3-2.78,3.56,3.56,0,0,0,1-2.38c0-2.62-3.35-4.76-7.61-5A4,4,0,0,0,576,89.5c0-2.49-2.46-4.5-5.5-4.5a6.55,6.55,0,0,0-2.2.38A4.41,4.41,0,0,0,569,83a3.78,3.78,0,0,0-3.5-4,3.29,3.29,0,0,0-2.56,1.29A3.67,3.67,0,0,0,559.5,77a3.17,3.17,0,0,0-1.54.42,3,3,0,0,0,0-.42,3.78,3.78,0,0,0-3.5-4,3.19,3.19,0,0,1-5,0,3.78,3.78,0,0,0-3.5,4,4.15,4.15,0,0,0,.07.79,4.46,4.46,0,0,0-7.14,0,4.49,4.49,0,0,0-8.93.71,3.94,3.94,0,0,0,.19,1.25,13,13,0,0,1,4.81-.87c5,0,9,2.49,9,5.56h0c-2.25.16-4,1.34-4,2.77a2.08,2.08,0,0,0,.72,1.51A5.3,5.3,0,0,0,544,90l.53,0a5.84,5.84,0,0,0,3.5-1,5.84,5.84,0,0,0,3.5,1,5.39,5.39,0,0,0,3.91-1.4c2.74,1,4.59,2.76,4.59,4.84h0c-2.25.16-4,1.34-4,2.77a1.94,1.94,0,0,0,0,.24,8.89,8.89,0,0,0-1.52.59A7,7,0,0,0,551.94,99a12.58,12.58,0,0,0,4.15-1,4.42,4.42,0,0,1,1.91,3.42,3.91,3.91,0,0,1-1,2.48,12.8,12.8,0,0,1,3.45.71,8,8,0,0,1,1.62.75,2.94,2.94,0,0,0-.12.84,2.65,2.65,0,0,0,.07.63,4.27,4.27,0,0,0,1.92,2.6,5.62,5.62,0,0,0,1,.56,10.2,10.2,0,0,0,4.06,1,4.71,4.71,0,0,1,.89.75,3.64,3.64,0,0,1,1,1.87,6.3,6.3,0,0,0,2.44-2.14,10.23,10.23,0,0,1,1.7.27,1.59,1.59,0,0,0-.07.48c0,1.54,2,2.78,4.5,2.78h.24a3.09,3.09,0,0,1,.26,1.23c0,2.64-3.36,4.78-7.5,4.78-.35,0-.69,0-1,0a7,7,0,0,1,1.67,1.61c-1.82.37-3.14,1.42-3.14,2.66a1.69,1.69,0,0,0,.15.7,3.79,3.79,0,0,0,2.79,1.91,7.1,7.1,0,0,0,1.56.17,6.76,6.76,0,0,0,1.72-.21,5.29,5.29,0,0,1,2.78,4.27c0,3-3.54,5.56-8.2,6.07a4.4,4.4,0,0,1,1.2,2.93,4.36,4.36,0,0,1-.94,2.62,9.18,9.18,0,0,0,1-.32A3.71,3.71,0,0,0,575.5,147a3.78,3.78,0,0,0,3.5-4c0-.1,0-.19,0-.28a4.46,4.46,0,0,0,1.52.28,3.93,3.93,0,0,0,.6-.06q.6.06,1.23.06c4.61,0,8.34-2.24,8.34-5v0a4.49,4.49,0,1,0,2.84-8ZM556,81.21c-.66-.07-1.33-.12-2-.16l-.1-.12a3,3,0,0,0,.59.07,3.17,3.17,0,0,0,1.54-.42,3,3,0,0,0,0,.42C556,81.07,556,81.14,556,81.21Zm33.41,44.22c.07-.17.12-.33.18-.5l.45.33A5.79,5.79,0,0,0,589.43,125.43Z"/><polygon class="cls-2" points="614.67 147.67 613.2 147.76 606.62 155.49 606.62 143.28 600.41 143.28 600.41 149.86 600.41 152.44 595.74 149.86 592.36 148.76 600.41 154.53 600.41 171.95 600.41 174 606.62 174 606.62 158.59 614.67 147.67"/><path class="cls-7" d="M637.71,136.69a3.31,3.31,0,0,0-.55.06l0-.06c2.15,0,3.86-.84,3.86-1.82,0-.72-.91-1.34-2.23-1.64a3.28,3.28,0,0,0-2.25-6,3.61,3.61,0,0,0-.65.15,15.15,15.15,0,0,0-.28-2.78,3.28,3.28,0,0,0-1.54-6.18,3.31,3.31,0,0,0-.55,0,3.27,3.27,0,0,0-2.29-2.13,20.87,20.87,0,0,0-2.16-2,2.58,2.58,0,0,0,.73-1.74c0-1.92-2.44-3.49-5.56-3.65a2.89,2.89,0,0,0,.69-1.84c0-1.82-1.8-3.29-4-3.29a4.88,4.88,0,0,0-1.6.27,3.21,3.21,0,0,0,.51-1.74,2.76,2.76,0,0,0-2.56-2.92,2.44,2.44,0,0,0-1.88.94,2.67,2.67,0,0,0-2.51-2.4,2.2,2.2,0,0,0-1.13.31c0-.11,0-.21,0-.31A2.77,2.77,0,0,0,609.18,95a2.34,2.34,0,0,1-3.66,0A2.77,2.77,0,0,0,603,97.93a3.55,3.55,0,0,0,0,.57,3.26,3.26,0,0,0-5.22,0,3.28,3.28,0,1,0-5.81,2.56,3.27,3.27,0,0,0-2.15,2.73h-.4c-2.22,0-4,1.47-4,3.29a2.8,2.8,0,0,0,.39,1.41,5.71,5.71,0,0,0-1.86-.31c-2,0-3.65,1-3.65,2.19s1.63,2.2,3.65,2.2a5.55,5.55,0,0,0,1.38-.17,2.52,2.52,0,0,0-.64,1.63,3.22,3.22,0,0,0,1.89,2.64,1.55,1.55,0,0,0-.43,1,1.44,1.44,0,0,0,.1.5,6.78,6.78,0,0,0-2-.47,1.8,1.8,0,0,0,.41-1.13,1.83,1.83,0,1,0-3.66,0,1.81,1.81,0,0,0,.61,1.35,4.8,4.8,0,0,0-2.12,1.16,3.28,3.28,0,0,0-6.54.41s0,0,0,.06a7.51,7.51,0,0,0-2.57-.42c-2.22,0-4,.82-4,1.83,0,.53.5,1,1.29,1.34-1.21.31-2,.9-2,1.58a1.39,1.39,0,0,0,.83,1.11H566c-2.22,0-4,.82-4,1.83s1.8,1.83,4,1.83a7.22,7.22,0,0,0,2.78-.51,2.92,2.92,0,0,0,1.37.87,3.22,3.22,0,0,0-.53,3.6,5.62,5.62,0,0,0-3.62-1c-2.22,0-4,.82-4,1.83s1.8,1.83,4,1.83h.45c.36.84,2,1.47,3.94,1.47a7.37,7.37,0,0,0,2.65-.45,11.19,11.19,0,0,0,.41,1.91,3.07,3.07,0,0,0-1.17,1.74,3,3,0,0,0-.37-.16,3.31,3.31,0,0,0-4.1,2.22,3.5,3.5,0,0,0-.12.63,5.68,5.68,0,0,0-.59,0c-2,0-3.66,1-3.66,2.19,0,.75.64,1.42,1.6,1.81a3.26,3.26,0,0,0,1.35,5.31,1.23,1.23,0,0,0,0,.2c0,2,2.73,3.65,6.09,3.65a8.64,8.64,0,0,0,4.09-1,3.19,3.19,0,0,0,1.16.22,3.29,3.29,0,0,0,3.29-3.29,4.07,4.07,0,0,0-.06-.61,7.14,7.14,0,0,0,1.89.24,6.32,6.32,0,0,0,3.53-1c.31,1,.9,1.71,1.59,1.71a1.66,1.66,0,0,0,1.35-1.1,7.27,7.27,0,0,0,2.31.36c2.48,0,4.51-1.17,4.73-2.66a6.94,6.94,0,0,0,2.58.47c2.63,0,4.75-1.31,4.75-2.93v0l.74.16a3.2,3.2,0,0,0-.74,2.06,2.58,2.58,0,1,0,5.12.08,5.84,5.84,0,0,0,4,1.38c2.62,0,4.75-1.31,4.75-2.92a1.64,1.64,0,0,0,0-.23,7.81,7.81,0,0,0,1.85.23,6.94,6.94,0,0,0,2.58-.48,2.72,2.72,0,0,0,2.54,2.67,2.76,2.76,0,0,0,2.56-2.93,1.36,1.36,0,0,0,0-.2,3.47,3.47,0,0,0,1.12.2,3.27,3.27,0,0,0,.44,0,8.77,8.77,0,0,0,.9,0c3.37,0,6.1-1.63,6.1-3.65v0a3.26,3.26,0,0,0,2.08.76,3.3,3.3,0,0,0,0-6.59Zm-2.84-3.7a2.8,2.8,0,0,0,.33.24,3.23,3.23,0,0,0-.47.12ZM593.43,107.4h0s0,0,0,0v0h0A.13.13,0,0,0,593.43,107.4Zm-14.47,14,0,0s0,0,0,0Zm-5,.47-.08,0,.06,0Zm36.34-21.32c0,.11,0,.21,0,.31s0,.1,0,.15c-.48,0-1-.09-1.47-.11l-.07-.09a2,2,0,0,0,.43,0A2.34,2.34,0,0,0,610.31,100.54Z"/><path class="cls-2" d="M637.71,136.69a3.31,3.31,0,0,0-.55.06l0-.06c2.15,0,3.86-.84,3.86-1.82,0-.72-.91-1.34-2.23-1.64a3.29,3.29,0,0,0-2.25-6,3.66,3.66,0,0,0-.65.17,15,15,0,0,0-.28-2.78,3.29,3.29,0,0,0-1.54-6.19,2.51,2.51,0,0,0-.55.06,3.25,3.25,0,0,0-2.29-2.14,19.85,19.85,0,0,0-2.16-2,2.61,2.61,0,0,0,.74-1.74c0-1.92-2.45-3.49-5.57-3.65a2.89,2.89,0,0,0,.69-1.84c0-1.82-1.8-3.29-4-3.29a4.64,4.64,0,0,0-1.6.28,3.27,3.27,0,0,0,.51-1.75,2.76,2.76,0,0,0-2.56-2.92,2.41,2.41,0,0,0-1.88.94,2.67,2.67,0,0,0-2.51-2.4,2.36,2.36,0,0,0-1.13.3,1.53,1.53,0,0,0,0-.3A2.77,2.77,0,0,0,609.18,95a2.33,2.33,0,0,1-3.66,0A2.77,2.77,0,0,0,603,97.93a3.66,3.66,0,0,0,0,.57,3.26,3.26,0,0,0-5.22,0,3.29,3.29,0,0,0-6.53.52,2.77,2.77,0,0,0,.14.92,9.48,9.48,0,0,1,3.52-.64c3.63,0,6.58,1.82,6.58,4.07h0c-1.65.11-2.93,1-2.93,2a1.54,1.54,0,0,0,.53,1.11,3.92,3.92,0,0,0,2.38.91l.39,0a4.69,4.69,0,0,1,5.12,0,4,4,0,0,0,2.86-1c2,.7,3.35,2,3.35,3.54h0c-1.64.12-2.92,1-2.92,2,0,.06,0,.12,0,.18a7.31,7.31,0,0,0-1.11.43,5.18,5.18,0,0,0-1.87,1.41,9.3,9.3,0,0,0,3-.7,3.23,3.23,0,0,1,1.4,2.5,2.91,2.91,0,0,1-.69,1.82,9.09,9.09,0,0,1,2.52.52,5.33,5.33,0,0,1,1.18.55,2.43,2.43,0,0,0-.08.61,1.8,1.8,0,0,0,.05.46,3.11,3.11,0,0,0,1.4,1.9,3.47,3.47,0,0,0,.7.41,7.42,7.42,0,0,0,3,.72,3.57,3.57,0,0,1,.66.55,2.71,2.71,0,0,1,.75,1.37,4.68,4.68,0,0,0,1.78-1.57,8.16,8.16,0,0,1,1.25.2,1,1,0,0,0-.05.35c0,1.13,1.47,2,3.29,2h.17a2.21,2.21,0,0,1,.19.9c0,1.94-2.45,3.5-5.48,3.5a6.34,6.34,0,0,1-.76,0,5.35,5.35,0,0,1,1.23,1.18c-1.34.27-2.3,1-2.3,1.95a1.3,1.3,0,0,0,.11.51,2.78,2.78,0,0,0,2,1.4,5.24,5.24,0,0,0,1.14.12,5.06,5.06,0,0,0,1.26-.15,3.85,3.85,0,0,1,2,3.12c0,2.22-2.59,4.07-6,4.44a3,3,0,0,1,.19,4.06,6.57,6.57,0,0,0,.71-.23,2.71,2.71,0,0,0,2.54,2.66,2.77,2.77,0,0,0,2.56-2.93c0-.07,0-.14,0-.2a3.32,3.32,0,0,0,1.11.2,3.27,3.27,0,0,0,.44,0,8.77,8.77,0,0,0,.9,0c3.37,0,6.1-1.63,6.1-3.65,0,0,0,0,0,0a3.29,3.29,0,1,0,2.08-5.83ZM610.29,101c-.48-.06-1-.09-1.47-.12l-.07-.09a2.1,2.1,0,0,0,.43,0,2.37,2.37,0,0,0,1.13-.31,1.71,1.71,0,0,0,0,.31C610.28,100.9,610.29,101,610.29,101Zm24.44,32.34c0-.12.09-.24.13-.36l.33.24A3.45,3.45,0,0,0,634.73,133.35Z"/><polygon class="cls-2" points="737.67 116.67 734.43 116.87 719.84 134 719.84 106.94 706.09 106.94 706.09 121.53 706.09 127.23 695.74 121.53 688.26 119.1 706.09 131.86 706.09 170.45 706.09 175 719.84 175 719.84 140.86 737.67 116.67"/><path class="cls-5" d="M788.71,92.36a8.13,8.13,0,0,0-1.22.12s0-.08,0-.13c4.75-.08,8.55-1.86,8.55-4,0-1.59-2-3-5-3.62a7.28,7.28,0,0,0-5-13.32,6.89,6.89,0,0,0-1.44.35,33.08,33.08,0,0,0-.63-6.16,7.27,7.27,0,0,0-3.4-13.71,8.13,8.13,0,0,0-1.22.12,7.25,7.25,0,0,0-5.07-4.72,46.62,46.62,0,0,0-4.79-4.5,5.73,5.73,0,0,0,1.62-3.86c0-4.24-5.42-7.71-12.33-8.07a6.33,6.33,0,0,0,1.53-4.08c0-4-4-7.3-8.91-7.3a10.56,10.56,0,0,0-3.56.61A7,7,0,0,0,749,16.2c0-3.58-2.54-6.48-5.67-6.48a5.34,5.34,0,0,0-4.15,2.1c-.48-3-2.79-5.34-5.57-5.34a5,5,0,0,0-2.5.69,5.2,5.2,0,0,0,.07-.69c0-3.58-2.54-6.48-5.68-6.48a5.33,5.33,0,0,0-4,2A5.33,5.33,0,0,0,717.41,0c-3.13,0-5.67,2.9-5.67,6.48a7.71,7.71,0,0,0,.11,1.28,7.22,7.22,0,0,0-11.57,0,7.28,7.28,0,1,0-12.87,5.66,7.23,7.23,0,0,0-4.76,6.06c-.29,0-.59,0-.89,0-4.92,0-8.91,3.27-8.91,7.3a6.18,6.18,0,0,0,.87,3.12,12.29,12.29,0,0,0-4.11-.69c-4.47,0-8.1,2.17-8.1,4.86s3.63,4.86,8.1,4.86a12.79,12.79,0,0,0,3-.36,5.61,5.61,0,0,0-1.42,3.6c0,2.31,1.62,4.38,4.2,5.86a3.42,3.42,0,0,0-1,2.24,3.08,3.08,0,0,0,.24,1.12,14.59,14.59,0,0,0-4.37-1,4.05,4.05,0,1,0-5.85.49,10.56,10.56,0,0,0-4.69,2.56,7.27,7.27,0,0,0-14.49.92s0,.08,0,.12a16.57,16.57,0,0,0-5.69-.93c-4.92,0-8.91,1.82-8.91,4.05,0,1.18,1.11,2.23,2.87,3-2.68.7-4.49,2-4.49,3.51a3.1,3.1,0,0,0,1.84,2.46l-1,0c-4.92,0-8.91,1.81-8.91,4s4,4.05,8.91,4.05a15.83,15.83,0,0,0,6.16-1.13,6.31,6.31,0,0,0,3,1.92,7.13,7.13,0,0,0-1.6,2.8,7.22,7.22,0,0,0,.41,5.17c-1.44-1.35-4.48-2.28-8-2.28-4.92,0-8.91,1.81-8.91,4s4,4.05,8.91,4.05c.33,0,.66,0,1,0,.81,1.87,4.41,3.27,8.74,3.27a16.35,16.35,0,0,0,5.87-1,24.35,24.35,0,0,0,.92,4.23,6.85,6.85,0,0,0-2.61,3.84,7.43,7.43,0,0,0-.82-.34,7.3,7.3,0,0,0-9.07,4.91,7.85,7.85,0,0,0-.27,1.4c-.43,0-.86-.08-1.31-.08-4.47,0-8.1,2.18-8.1,4.87,0,1.66,1.41,3.14,3.54,4a7.23,7.23,0,0,0,3,11.75c0,.15,0,.29,0,.44,0,4.47,6,8.1,13.51,8.1a19.2,19.2,0,0,0,9-2.1,7.25,7.25,0,0,0,9.85-6.81,6.72,6.72,0,0,0-.14-1.35,16,16,0,0,0,4.19.54,14.05,14.05,0,0,0,7.82-2.15c.69,2.24,2,3.77,3.52,3.77,1.2,0,2.26-1,3-2.43a16.1,16.1,0,0,0,5.11.81c5.5,0,10-2.6,10.48-5.91a15.51,15.51,0,0,0,5.72,1c5.82,0,10.53-2.9,10.53-6.48v-.05c.54.12,1.09.25,1.64.35a7,7,0,0,0-1.64,4.56c0,3.58,2.54,6.48,5.67,6.48s5.57-2.81,5.66-6.3c1.86,1.83,5.16,3.06,8.93,3.06,5.81,0,10.53-2.9,10.53-6.48a4.21,4.21,0,0,0,0-.51,16.13,16.13,0,0,0,4.09.51,15.51,15.51,0,0,0,5.72-1c.26,3.31,2.66,5.91,5.62,5.91,3.13,0,5.67-2.9,5.67-6.48,0-.16,0-.31,0-.46a7.27,7.27,0,0,0,2.47.46,7.74,7.74,0,0,0,1-.1c.65.06,1.31.1,2,.1,7.46,0,13.51-3.63,13.51-8.11a.43.43,0,0,1,0,0,7.28,7.28,0,1,0,4.6-12.91Zm-6.3-8.21a7.54,7.54,0,0,0,.73.53c-.35.08-.7.17-1,.27C782.22,84.68,782.31,84.42,782.41,84.15ZM690.63,27.47h0v.13h-.07A.5.5,0,0,0,690.63,27.47Zm-32.06,31,.06-.08a.36.36,0,0,0,0,.09Zm-11.06,1-.16,0,.12-.08S647.5,59.48,647.51,59.5ZM728,12.28c0,.23-.06.45-.06.68s0,.22,0,.34c-1.06-.11-2.15-.2-3.25-.25-.05-.07-.11-.13-.15-.2a4.93,4.93,0,0,0,.94.11A5.08,5.08,0,0,0,728,12.28Z"/><path class="cls-2" d="M788.71,92.36a6.08,6.08,0,0,0-1.22.13l0-.15c4.77-.08,8.56-1.84,8.56-4,0-1.59-2-3-4.94-3.63a7.28,7.28,0,0,0-5-13.32,8.2,8.2,0,0,0-1.44.36,33.17,33.17,0,0,0-.63-6.16,7.27,7.27,0,0,0-3.4-13.71,6.08,6.08,0,0,0-1.22.13,7.25,7.25,0,0,0-5.07-4.73,44.76,44.76,0,0,0-4.8-4.5,5.79,5.79,0,0,0,1.64-3.86c0-4.25-5.43-7.71-12.33-8.07a6.47,6.47,0,0,0,1.52-4.08c0-4-4-7.3-8.91-7.3a10.56,10.56,0,0,0-3.56.62A7.2,7.2,0,0,0,749,16.2c0-3.58-2.54-6.48-5.67-6.48a5.34,5.34,0,0,0-4.15,2.09c-.49-3-2.79-5.33-5.57-5.33a5.14,5.14,0,0,0-2.5.68,5.05,5.05,0,0,0,.07-.68c0-3.58-2.55-6.48-5.68-6.48a5.34,5.34,0,0,0-4,2,5.31,5.31,0,0,0-4.05-2c-3.13,0-5.67,2.9-5.67,6.48a6.77,6.77,0,0,0,.11,1.28,7.22,7.22,0,0,0-11.57,0,7.28,7.28,0,0,0-14.47,1.15,6.39,6.39,0,0,0,.31,2,21,21,0,0,1,7.8-1.41c8.05,0,14.58,4,14.58,9h0c-3.65.26-6.48,2.17-6.48,4.49a3.36,3.36,0,0,0,1.17,2.45,8.57,8.57,0,0,0,5.26,2c.28,0,.57,0,.86,0A9.47,9.47,0,0,0,715,25.88a9.47,9.47,0,0,0,5.67,1.67A8.76,8.76,0,0,0,727,25.28c4.44,1.54,7.44,4.47,7.44,7.84v0c-3.65.26-6.49,2.17-6.49,4.48a2.58,2.58,0,0,0,0,.39,14.56,14.56,0,0,0-2.47,1,11.4,11.4,0,0,0-4.14,3.11,20.4,20.4,0,0,0,6.72-1.54,7.17,7.17,0,0,1,3.1,5.54,6.36,6.36,0,0,1-1.54,4,21.16,21.16,0,0,1,5.59,1.15,13.13,13.13,0,0,1,2.62,1.22,4.75,4.75,0,0,0-.19,1.36,4.31,4.31,0,0,0,.11,1,6.92,6.92,0,0,0,3.11,4.21,9.12,9.12,0,0,0,1.56.91A16.47,16.47,0,0,0,749,61.56a7.82,7.82,0,0,1,1.44,1.21,5.93,5.93,0,0,1,1.67,3,10.16,10.16,0,0,0,4-3.46,17.29,17.29,0,0,1,2.76.43,2.35,2.35,0,0,0-.12.78c0,2.5,3.26,4.51,7.29,4.51a2.55,2.55,0,0,0,.39,0,4.9,4.9,0,0,1,.42,2c0,4.28-5.44,7.75-12.15,7.75-.57,0-1.12,0-1.67-.08a11.09,11.09,0,0,1,2.71,2.61c-3,.6-5.09,2.3-5.09,4.31a2.8,2.8,0,0,0,.24,1.13c.59,1.44,2.3,2.59,4.52,3.09a11.47,11.47,0,0,0,2.53.28,10.83,10.83,0,0,0,2.79-.34c2.79,1.8,4.5,4.25,4.5,6.92,0,4.91-5.73,9-13.28,9.83a7.17,7.17,0,0,1,1.94,4.75,7.08,7.08,0,0,1-1.52,4.25c.55-.15,1.07-.33,1.57-.52.26,3.3,2.66,5.9,5.62,5.9,3.13,0,5.67-2.9,5.67-6.48,0-.17,0-.31,0-.46a7.12,7.12,0,0,0,2.46.46,6.38,6.38,0,0,0,1-.1c.64.06,1.31.1,2,.1,7.47,0,13.51-3.63,13.51-8.11,0,0,0,0,0,0a7.28,7.28,0,1,0,4.6-12.92ZM728,13.3c-1.07-.11-2.16-.19-3.26-.26l-.16-.19a4.7,4.7,0,0,0,3.45-.57,5.41,5.41,0,0,0-.07.68C727.94,13.08,728,13.19,728,13.3ZM782.11,85c.12-.28.2-.54.29-.81.25.19.49.37.73.53A8.51,8.51,0,0,0,782.11,85Z"/><polygon class="cls-2" points="560 227 558.72 227.08 552.97 233.83 552.97 223.17 547.55 223.17 547.55 228.92 547.55 231.16 543.47 228.92 540.52 227.96 547.55 232.99 547.55 248.21 547.55 250 552.97 250 552.97 236.54 560 227"/><path class="cls-7" d="M580.13,217.42a2.63,2.63,0,0,0-.49.05s0,0,0-.06c1.87,0,3.37-.73,3.37-1.59,0-.63-.8-1.17-2-1.43a2.87,2.87,0,0,0-2-5.25,2.64,2.64,0,0,0-.57.14,13,13,0,0,0-.25-2.43,2.87,2.87,0,0,0-1.34-5.41,3.91,3.91,0,0,0-.48.05,2.86,2.86,0,0,0-2-1.86,18.82,18.82,0,0,0-1.89-1.78,2.25,2.25,0,0,0,.64-1.52c0-1.67-2.14-3-4.86-3.18a2.51,2.51,0,0,0,.6-1.61c0-1.59-1.57-2.87-3.51-2.87a4,4,0,0,0-1.4.24,2.85,2.85,0,0,0,.44-1.52,2.42,2.42,0,0,0-2.23-2.56,2.1,2.1,0,0,0-1.64.83,2.34,2.34,0,0,0-2.2-2.1,2,2,0,0,0-1,.27,2.45,2.45,0,0,0,0-.27,2.41,2.41,0,0,0-2.23-2.56,2,2,0,0,1-3.2,0,2.41,2.41,0,0,0-2.23,2.56,2.74,2.74,0,0,0,0,.5,2.85,2.85,0,0,0-4.56,0,2.87,2.87,0,0,0-5.7.45,2.84,2.84,0,0,0,.63,1.78,2.85,2.85,0,0,0-1.88,2.39H538c-1.94,0-3.52,1.28-3.52,2.87a2.41,2.41,0,0,0,.35,1.23,4.87,4.87,0,0,0-1.62-.27c-1.77,0-3.2.86-3.2,1.92s1.43,1.91,3.2,1.91a5.13,5.13,0,0,0,1.2-.14,2.2,2.2,0,0,0-.56,1.42,2.8,2.8,0,0,0,1.65,2.31,1.37,1.37,0,0,0-.38.89,1.17,1.17,0,0,0,.1.44,5.49,5.49,0,0,0-1.73-.41,1.59,1.59,0,1,0-2.84-1,1.57,1.57,0,0,0,.54,1.18,4.15,4.15,0,0,0-1.85,1,2.87,2.87,0,0,0-5.72.36s0,0,0,0a6.48,6.48,0,0,0-2.24-.37c-1.94,0-3.52.72-3.52,1.6,0,.46.44.88,1.13,1.17-1.05.28-1.77.79-1.77,1.39a1.25,1.25,0,0,0,.73,1l-.41,0c-1.94,0-3.51.72-3.51,1.6s1.57,1.6,3.51,1.6a6.32,6.32,0,0,0,2.43-.44,2.56,2.56,0,0,0,1.2.75,2.93,2.93,0,0,0-.63,1.1,2.88,2.88,0,0,0,.16,2,4.88,4.88,0,0,0-3.16-.91c-1.94,0-3.51.72-3.51,1.6s1.57,1.6,3.51,1.6h.39c.32.73,1.74,1.29,3.45,1.29a6.33,6.33,0,0,0,2.31-.4,9.37,9.37,0,0,0,.36,1.67,2.72,2.72,0,0,0-1,1.51l-.32-.13a2.88,2.88,0,0,0-3.58,1.94,3.53,3.53,0,0,0-.1.55,4.41,4.41,0,0,0-.52,0c-1.76,0-3.19.86-3.19,1.91,0,.66.55,1.24,1.39,1.59a2.86,2.86,0,0,0,1.18,4.63,1.11,1.11,0,0,0,0,.17c0,1.77,2.39,3.2,5.33,3.2a7.65,7.65,0,0,0,3.57-.83,2.79,2.79,0,0,0,1,.19,2.88,2.88,0,0,0,2.87-2.88,3.17,3.17,0,0,0-.05-.53,6.16,6.16,0,0,0,1.65.21,5.55,5.55,0,0,0,3.08-.84c.27.88.79,1.48,1.39,1.48a1.44,1.44,0,0,0,1.18-1,6.11,6.11,0,0,0,2,.32c2.16,0,3.94-1,4.13-2.32a6.1,6.1,0,0,0,2.25.41c2.3,0,4.16-1.15,4.16-2.56h0l.64.13a2.74,2.74,0,0,0-.64,1.8,2.25,2.25,0,1,0,4.46.07,5.14,5.14,0,0,0,3.52,1.21c2.3,0,4.16-1.15,4.16-2.56a1.36,1.36,0,0,0,0-.2,6.4,6.4,0,0,0,1.61.2,6.11,6.11,0,0,0,2.26-.41,2.38,2.38,0,0,0,2.22,2.33,2.42,2.42,0,0,0,2.23-2.56c0-.06,0-.12,0-.18a2.83,2.83,0,0,0,1,.18,2.33,2.33,0,0,0,.38,0,6.85,6.85,0,0,0,.79,0c2.94,0,5.32-1.43,5.32-3.19v0a2.87,2.87,0,1,0,1.82-5.09Zm-2.49-3.24a3.06,3.06,0,0,0,.29.21l-.41.1C577.57,214.39,577.6,214.28,577.64,214.18Zm-36.19-22.35h0s0,0,0,0v0h0Zm-12.64,12.22,0,0v0Zm-4.36.41-.06,0s0,0,0,0Zm31.74-18.62a2.45,2.45,0,0,0,0,.27s0,.09,0,.13l-1.28-.1-.07-.07a2.45,2.45,0,0,0,.38,0A2,2,0,0,0,556.19,185.84Z"/><path class="cls-8" d="M580.13,217.42a2.44,2.44,0,0,0-.48.05l0-.06c1.87,0,3.37-.73,3.37-1.59,0-.63-.8-1.17-2-1.43a2.87,2.87,0,0,0-2-5.25,2.64,2.64,0,0,0-.57.14,13,13,0,0,0-.25-2.43,2.87,2.87,0,0,0-1.34-5.41,1.86,1.86,0,0,0-.48.06,2.85,2.85,0,0,0-2-1.87,17.8,17.8,0,0,0-1.89-1.78,2.26,2.26,0,0,0,.65-1.52c0-1.67-2.14-3-4.87-3.18a2.51,2.51,0,0,0,.6-1.61c0-1.59-1.57-2.87-3.51-2.87a4.19,4.19,0,0,0-1.4.24,2.85,2.85,0,0,0,.44-1.52,2.42,2.42,0,0,0-2.23-2.56,2.09,2.09,0,0,0-1.64.83,2.34,2.34,0,0,0-2.2-2.1,2.08,2.08,0,0,0-1,.26,2.28,2.28,0,0,0,0-.26,2.41,2.41,0,0,0-2.23-2.56,2,2,0,0,1-3.2,0,2.41,2.41,0,0,0-2.23,2.56,2.81,2.81,0,0,0,0,.5,6,6,0,0,1-7.39-2.42,2.86,2.86,0,0,0-2.87,2.87,2.31,2.31,0,0,0,.12.8,8.23,8.23,0,0,1,3.07-.55c3.18,0,5.75,1.59,5.75,3.55h0c-1.44.1-2.56.85-2.56,1.76a1.35,1.35,0,0,0,.46,1,3.49,3.49,0,0,0,2.08.8h.34a3.7,3.7,0,0,0,2.24-.66,3.65,3.65,0,0,0,2.23.66,3.48,3.48,0,0,0,2.5-.89c1.75.6,2.93,1.76,2.93,3.09h0c-1.44.1-2.55.85-2.55,1.76a.81.81,0,0,0,0,.16,4.89,4.89,0,0,0-1,.38,4.46,4.46,0,0,0-1.64,1.22,7.7,7.7,0,0,0,2.65-.61,2.84,2.84,0,0,1,1.22,2.19,2.45,2.45,0,0,1-.6,1.58,8.33,8.33,0,0,1,2.2.46,5.51,5.51,0,0,1,1,.48,1.89,1.89,0,0,0-.08.53,1.84,1.84,0,0,0,0,.41,2.74,2.74,0,0,0,1.23,1.66,5.15,5.15,0,0,0,.61.36,6.72,6.72,0,0,0,2.6.62,3,3,0,0,1,.57.48,2.4,2.4,0,0,1,.66,1.2,4.11,4.11,0,0,0,1.55-1.37,6.21,6.21,0,0,1,1.09.17,1.06,1.06,0,0,0,0,.31c0,1,1.28,1.77,2.87,1.77h.15a1.92,1.92,0,0,1,.17.78c0,1.69-2.15,3.06-4.79,3.06-.23,0-.44,0-.66,0a4.79,4.79,0,0,1,1.07,1c-1.17.24-2,.91-2,1.7a1,1,0,0,0,.1.45A2.41,2.41,0,0,0,567,216a4.51,4.51,0,0,0,1,.11,4.17,4.17,0,0,0,1.09-.14,3.39,3.39,0,0,1,1.78,2.73c0,1.94-2.26,3.55-5.24,3.88a2.84,2.84,0,0,1,.77,1.87,2.81,2.81,0,0,1-.6,1.68,5.64,5.64,0,0,0,.62-.21,2.37,2.37,0,0,0,2.22,2.33,2.42,2.42,0,0,0,2.23-2.56c0-.06,0-.12,0-.18a2.79,2.79,0,0,0,1,.18,2.45,2.45,0,0,0,.38,0,6.85,6.85,0,0,0,.79,0c2.94,0,5.33-1.43,5.33-3.19v0a2.86,2.86,0,0,0,4.69-2.22A2.86,2.86,0,0,0,580.13,217.42Zm-24-31.17c-.42-.05-.85-.08-1.28-.11l-.07-.07a2.45,2.45,0,0,0,.38,0,2,2,0,0,0,1-.27,2.45,2.45,0,0,0,0,.27S556.18,186.2,556.18,186.25Zm21.34,28.25c.05-.11.08-.21.12-.32l.29.21A2.75,2.75,0,0,0,577.52,214.5Z"/><polygon class="cls-2" points="648.67 217.67 646.43 217.81 636.34 229.65 636.34 210.94 626.83 210.94 626.83 221.03 626.83 224.97 619.67 221.03 614.51 219.35 626.83 228.17 626.83 254.85 626.83 258 636.34 258 636.34 234.4 648.67 217.67"/><path class="cls-5" d="M684,200.86a4.6,4.6,0,0,0-.84.09l0-.09c3.28-.06,5.91-1.29,5.91-2.8,0-1.1-1.4-2.05-3.42-2.51a5,5,0,0,0-3.44-9.21,4.63,4.63,0,0,0-1,.25,23.14,23.14,0,0,0-.44-4.26,5,5,0,0,0-2.35-9.48,4.81,4.81,0,0,0-.85.09,5,5,0,0,0-3.5-3.27,31.58,31.58,0,0,0-3.31-3.11,4,4,0,0,0,1.12-2.67c0-2.93-3.75-5.33-8.53-5.58a4.38,4.38,0,0,0,1.06-2.82c0-2.79-2.76-5.05-6.16-5.05a7.26,7.26,0,0,0-2.46.43,4.93,4.93,0,0,0,.78-2.67,4.23,4.23,0,0,0-3.92-4.48,3.7,3.7,0,0,0-2.87,1.45,4.11,4.11,0,0,0-3.85-3.69,3.46,3.46,0,0,0-1.73.48,3.91,3.91,0,0,0,.05-.48,4.24,4.24,0,0,0-3.93-4.48,3.58,3.58,0,0,1-5.6,0,4.23,4.23,0,0,0-3.92,4.48,5.05,5.05,0,0,0,.08.88,5,5,0,0,0-8,0,5,5,0,1,0-8.9,3.91,5,5,0,0,0-3.29,4.19c-.2,0-.41,0-.62,0-3.4,0-6.16,2.26-6.16,5.05a4.31,4.31,0,0,0,.6,2.16,8.41,8.41,0,0,0-2.84-.48c-3.09,0-5.6,1.5-5.6,3.36s2.51,3.36,5.6,3.36a8.76,8.76,0,0,0,2.1-.25,3.89,3.89,0,0,0-1,2.49c0,1.59,1.12,3,2.9,4.05a2.37,2.37,0,0,0-.66,1.55,2.25,2.25,0,0,0,.16.77,10.21,10.21,0,0,0-3-.72,2.75,2.75,0,0,0,.62-1.73,2.8,2.8,0,1,0-4.66,2.08,7.25,7.25,0,0,0-3.25,1.77,5,5,0,0,0-10,.63v.09a11.14,11.14,0,0,0-3.93-.65c-3.4,0-6.16,1.26-6.16,2.8,0,.82.77,1.54,2,2.06-1.85.48-3.1,1.38-3.1,2.42a2.16,2.16,0,0,0,1.28,1.71c-.24,0-.48,0-.72,0-3.4,0-6.16,1.25-6.16,2.8s2.76,2.8,6.16,2.8a11,11,0,0,0,4.26-.78,4.42,4.42,0,0,0,2.1,1.32,5.18,5.18,0,0,0-1.11,1.94,5,5,0,0,0,.29,3.58c-1-.94-3.1-1.58-5.54-1.58-3.4,0-6.16,1.25-6.16,2.8s2.76,2.8,6.16,2.8l.68,0c.56,1.29,3,2.26,6,2.26a11.28,11.28,0,0,0,4.06-.69,16.86,16.86,0,0,0,.63,2.92,4.76,4.76,0,0,0-1.8,2.66,5.65,5.65,0,0,0-.57-.23,5,5,0,0,0-6.27,3.39,5.51,5.51,0,0,0-.18,1,9.07,9.07,0,0,0-.91-.06c-3.09,0-5.6,1.51-5.6,3.37,0,1.15,1,2.17,2.45,2.77a5,5,0,0,0,2.06,8.13c0,.1,0,.2,0,.3,0,3.09,4.18,5.6,9.34,5.6a13.19,13.19,0,0,0,6.26-1.46,4.93,4.93,0,0,0,1.77.34,5,5,0,0,0,5-5,5.64,5.64,0,0,0-.09-.93,11,11,0,0,0,2.89.37,9.77,9.77,0,0,0,5.41-1.49c.47,1.55,1.38,2.61,2.43,2.61a2.56,2.56,0,0,0,2.08-1.68,11.12,11.12,0,0,0,3.53.56c3.8,0,6.92-1.8,7.24-4.08a10.87,10.87,0,0,0,4,.72c4,0,7.28-2,7.28-4.48v0l1.14.24a4.76,4.76,0,0,0-1.14,3.15,3.94,3.94,0,1,0,7.83.13,9,9,0,0,0,6.18,2.11c4,0,7.28-2,7.28-4.48,0-.12,0-.24,0-.35a11.6,11.6,0,0,0,2.83.35,10.67,10.67,0,0,0,4-.73,4.16,4.16,0,0,0,3.88,4.09,4.23,4.23,0,0,0,3.92-4.48c0-.11,0-.21,0-.32a5,5,0,0,0,1.7.32,5.23,5.23,0,0,0,.68-.07c.45,0,.91.07,1.38.07,5.15,0,9.33-2.51,9.33-5.61v0a5,5,0,1,0,3.18-8.93Zm-4.35-5.68a3.59,3.59,0,0,0,.5.37c-.25.06-.49.12-.71.19ZM616.14,156h0v.09h0S616.14,156,616.14,156ZM594,177.42l0-.06a.14.14,0,0,1,0,.06Zm-7.64.72-.11,0,.08-.06ZM642,145.49a3.75,3.75,0,0,0,0,.47c0,.08,0,.16,0,.23-.73-.07-1.48-.13-2.25-.17a1.47,1.47,0,0,0-.1-.13,3.5,3.5,0,0,0,.65.07A3.59,3.59,0,0,0,642,145.49Z"/><path class="cls-2" d="M684,200.86a3.86,3.86,0,0,0-.84.09l0-.1c3.3-.06,5.92-1.28,5.92-2.79,0-1.1-1.4-2.05-3.42-2.51a5,5,0,0,0-3.44-9.21,6.24,6.24,0,0,0-1,.25,23.14,23.14,0,0,0-.44-4.26,5,5,0,0,0-2.35-9.48,4.6,4.6,0,0,0-.84.09,5,5,0,0,0-3.51-3.27,30.73,30.73,0,0,0-3.32-3.11,4,4,0,0,0,1.13-2.67c0-2.94-3.75-5.33-8.52-5.58a4.45,4.45,0,0,0,1.05-2.82c0-2.79-2.75-5.05-6.16-5.05a7.3,7.3,0,0,0-2.46.43,5,5,0,0,0,.78-2.67,4.23,4.23,0,0,0-3.92-4.48,3.69,3.69,0,0,0-2.87,1.45,4.12,4.12,0,0,0-3.85-3.69,3.59,3.59,0,0,0-1.73.47,3.56,3.56,0,0,0,.05-.47,4.24,4.24,0,0,0-3.93-4.48,3.56,3.56,0,0,1-5.6,0,4.23,4.23,0,0,0-3.92,4.48,4.4,4.4,0,0,0,.08.89,5,5,0,0,0-8,0,5,5,0,0,0-10,.79,4.24,4.24,0,0,0,.22,1.4,14.67,14.67,0,0,1,5.39-1c5.56,0,10.08,2.79,10.08,6.23h0c-2.52.18-4.48,1.5-4.48,3.1a2.31,2.31,0,0,0,.81,1.69,5.85,5.85,0,0,0,3.64,1.4,5.68,5.68,0,0,0,.59,0,6.52,6.52,0,0,0,3.92-1.16,6.52,6.52,0,0,0,3.92,1.16,6,6,0,0,0,4.38-1.57c3.07,1.06,5.15,3.09,5.15,5.42h0c-2.52.18-4.49,1.5-4.49,3.1a2.48,2.48,0,0,0,0,.27,10.84,10.84,0,0,0-1.71.66,7.94,7.94,0,0,0-2.86,2.16,14.42,14.42,0,0,0,4.65-1.07,5,5,0,0,1,2.14,3.83,4.4,4.4,0,0,1-1.07,2.78,14.21,14.21,0,0,1,3.87.8,8.58,8.58,0,0,1,1.81.84,3.24,3.24,0,0,0-.13.94,2.74,2.74,0,0,0,.08.7,4.78,4.78,0,0,0,2.15,2.92,5.87,5.87,0,0,0,1.07.62,11.29,11.29,0,0,0,4.55,1.1,5.56,5.56,0,0,1,1,.84,4.11,4.11,0,0,1,1.15,2.1,7.14,7.14,0,0,0,2.74-2.4,12.77,12.77,0,0,1,1.9.3,1.68,1.68,0,0,0-.08.54c0,1.73,2.25,3.12,5,3.12a1.23,1.23,0,0,0,.27,0,3.49,3.49,0,0,1,.29,1.38c0,3-3.76,5.36-8.4,5.36a10.93,10.93,0,0,1-1.15-.06,7.7,7.7,0,0,1,1.87,1.81c-2,.41-3.52,1.59-3.52,3a2,2,0,0,0,.17.78,4.23,4.23,0,0,0,3.12,2.14,8.23,8.23,0,0,0,1.75.19,8,8,0,0,0,1.93-.23c1.93,1.24,3.11,2.93,3.11,4.78,0,3.39-4,6.23-9.18,6.8a4.66,4.66,0,0,1,.29,6.22,10.51,10.51,0,0,0,1.08-.36,4.16,4.16,0,0,0,3.89,4.08,4.23,4.23,0,0,0,3.92-4.48c0-.12,0-.22,0-.32a4.2,4.2,0,0,0,2.38.25c.44,0,.9.07,1.37.07,5.17,0,9.35-2.51,9.35-5.61,0,0,0,0,0,0a5,5,0,1,0,3.18-8.93ZM642,146.2c-.74-.08-1.49-.14-2.26-.18a1.34,1.34,0,0,0-.11-.14,3.05,3.05,0,0,0,.66.08,3.59,3.59,0,0,0,1.73-.47,4,4,0,0,0,0,.47C641.94,146,642,146.12,642,146.2Zm37.43,49.54c.08-.19.13-.37.2-.56.17.14.34.26.5.37A7.15,7.15,0,0,0,679.4,195.74Z"/><polygon class="cls-2" points="460.67 144.67 458.59 144.8 449.26 155.76 449.26 138.44 440.45 138.44 440.45 147.78 440.45 151.43 433.83 147.78 429.05 146.22 440.45 154.39 440.45 179.09 440.45 182 449.26 182 449.26 160.15 460.67 144.67"/><path class="cls-7" d="M493.33,129.11a5.16,5.16,0,0,0-.78.08s0-.06,0-.08c3-.06,5.47-1.2,5.47-2.59,0-1-1.29-1.9-3.17-2.32a4.66,4.66,0,0,0-3.18-8.53,4.59,4.59,0,0,0-.92.23,21.4,21.4,0,0,0-.4-3.94,4.65,4.65,0,0,0-2.18-8.77,4.92,4.92,0,0,0-.78.07,4.64,4.64,0,0,0-3.24-3,30,30,0,0,0-3.07-2.88,3.71,3.71,0,0,0,1-2.47c0-2.71-3.47-4.94-7.89-5.16a4.14,4.14,0,0,0,1-2.62c0-2.58-2.56-4.67-5.71-4.67a7,7,0,0,0-2.28.39,4.48,4.48,0,0,0,.73-2.46,3.92,3.92,0,0,0-3.63-4.15,3.41,3.41,0,0,0-2.66,1.34,3.79,3.79,0,0,0-3.57-3.41,3.14,3.14,0,0,0-1.59.44c0-.15,0-.29,0-.44A3.92,3.92,0,0,0,452.89,70a3.4,3.4,0,0,0-2.59,1.25A3.42,3.42,0,0,0,447.7,70a3.92,3.92,0,0,0-3.63,4.15,4.28,4.28,0,0,0,.08.81,4.63,4.63,0,0,0-7.41,0,4.66,4.66,0,1,0-8.24,3.62,4.61,4.61,0,0,0-3,3.88,5.44,5.44,0,0,0-.57,0c-3.15,0-5.7,2.09-5.7,4.67a4,4,0,0,0,.55,2,8,8,0,0,0-2.63-.44c-2.86,0-5.18,1.39-5.18,3.11s2.32,3.11,5.18,3.11a8.61,8.61,0,0,0,1.95-.23,3.56,3.56,0,0,0-.91,2.3c0,1.48,1,2.81,2.68,3.75a2.24,2.24,0,0,0-.61,1.44,2,2,0,0,0,.15.71,9.51,9.51,0,0,0-2.79-.66,2.59,2.59,0,1,0-3.75.32,6.75,6.75,0,0,0-3,1.63,4.65,4.65,0,0,0-9.27.59v.08a10.52,10.52,0,0,0-3.63-.6c-3.15,0-5.71,1.16-5.71,2.59,0,.76.71,1.43,1.84,1.91-1.72.44-2.87,1.28-2.87,2.24a2,2,0,0,0,1.17,1.58l-.66,0c-3.15,0-5.7,1.16-5.7,2.59s2.55,2.59,5.7,2.59a10,10,0,0,0,3.94-.72,4.08,4.08,0,0,0,1.95,1.23,4.54,4.54,0,0,0-.76,5.1,8,8,0,0,0-5.13-1.46c-3.15,0-5.7,1.16-5.7,2.59s2.55,2.6,5.7,2.6l.63,0c.52,1.19,2.82,2.09,5.6,2.09a10.41,10.41,0,0,0,3.75-.64,14.72,14.72,0,0,0,.59,2.71,4.31,4.31,0,0,0-1.67,2.46,4.93,4.93,0,0,0-.53-.22,4.66,4.66,0,0,0-5.8,3.14,4.75,4.75,0,0,0-.17.9,7.73,7.73,0,0,0-.84-.05c-2.86,0-5.19,1.39-5.19,3.11,0,1.07.9,2,2.27,2.57a4.61,4.61,0,0,0-1.23,3.13,4.66,4.66,0,0,0,3.14,4.39,2.4,2.4,0,0,0,0,.28c0,2.86,3.87,5.18,8.64,5.18a12.33,12.33,0,0,0,5.8-1.34,4.63,4.63,0,0,0,6.3-4.36,4.91,4.91,0,0,0-.08-.86,10.35,10.35,0,0,0,2.68.34,9.05,9.05,0,0,0,5-1.37c.44,1.43,1.28,2.41,2.25,2.41a2.38,2.38,0,0,0,1.93-1.56,10.08,10.08,0,0,0,3.26.52c3.52,0,6.41-1.66,6.71-3.78a10,10,0,0,0,3.66.67c3.72,0,6.74-1.86,6.74-4.15v0l1.05.22a4.44,4.44,0,0,0-1.05,2.91,3.65,3.65,0,1,0,7.25.12,8.25,8.25,0,0,0,5.71,2c3.73,0,6.74-1.86,6.74-4.15,0-.11,0-.22,0-.33a10.38,10.38,0,0,0,2.62.33,10,10,0,0,0,3.66-.67,3.85,3.85,0,0,0,3.6,3.78,3.92,3.92,0,0,0,3.63-4.15,2.85,2.85,0,0,0,0-.29,4.61,4.61,0,0,0,1.58.29,4.34,4.34,0,0,0,.63-.06c.41,0,.84.06,1.27.06,4.78,0,8.65-2.32,8.65-5.18,0,0,0,0,0,0a4.66,4.66,0,1,0,2.94-8.26Zm-4-5.25c.15.12.31.23.47.34a6.36,6.36,0,0,0-.66.17C489.18,124.2,489.24,124,489.3,123.86ZM430.56,87.58h0a.43.43,0,0,0,0,0s0,0,0,0h-.05S430.56,87.61,430.56,87.58ZM410,107.41l0,0,0,.06Zm-7.07.67-.11,0,.08-.06Zm51.51-30.22c0,.14,0,.29,0,.44s0,.14,0,.21c-.68-.07-1.37-.13-2.08-.16l-.1-.12a4.07,4.07,0,0,0,.61.07A3.25,3.25,0,0,0,454.48,77.86Z"/><path class="cls-8" d="M493.33,129.11a3.79,3.79,0,0,0-.77.08l0-.09c3.05,0,5.48-1.18,5.48-2.58,0-1-1.3-1.9-3.16-2.32a4.66,4.66,0,0,0-3.19-8.53,5.38,5.38,0,0,0-.92.23,20.57,20.57,0,0,0-.4-3.94,4.65,4.65,0,0,0-2.18-8.77,4,4,0,0,0-.78.08,4.61,4.61,0,0,0-3.25-3,28.07,28.07,0,0,0-3.07-2.88,3.68,3.68,0,0,0,1.05-2.47c0-2.72-3.47-4.94-7.89-5.17a4.1,4.1,0,0,0,1-2.61c0-2.58-2.56-4.67-5.71-4.67a6.74,6.74,0,0,0-2.28.4,4.57,4.57,0,0,0,.73-2.47,3.92,3.92,0,0,0-3.63-4.15,3.43,3.43,0,0,0-2.66,1.34,3.8,3.8,0,0,0-3.57-3.41,3.24,3.24,0,0,0-1.59.43,3.13,3.13,0,0,0,0-.43A3.92,3.92,0,0,0,452.89,70a3.4,3.4,0,0,0-2.59,1.25A3.44,3.44,0,0,0,447.7,70a3.92,3.92,0,0,0-3.63,4.15,3.74,3.74,0,0,0,.08.82,4.62,4.62,0,0,0-7.41,0,4.66,4.66,0,0,0-9.26.73,3.94,3.94,0,0,0,.2,1.3,13.45,13.45,0,0,1,5-.9c5.15,0,9.33,2.58,9.33,5.76h0c-2.33.17-4.15,1.39-4.15,2.88a2.13,2.13,0,0,0,.75,1.56,5.43,5.43,0,0,0,3.37,1.3l.55,0a6.09,6.09,0,0,0,3.63-1.07,6.09,6.09,0,0,0,3.63,1.07,5.59,5.59,0,0,0,4.05-1.45c2.84,1,4.76,2.86,4.76,5h0c-2.33.16-4.15,1.39-4.15,2.87a1.07,1.07,0,0,0,0,.25,8.78,8.78,0,0,0-1.58.61,7.38,7.38,0,0,0-2.66,2,13,13,0,0,0,4.31-1,4.58,4.58,0,0,1,2,3.54,4,4,0,0,1-1,2.58,13.3,13.3,0,0,1,3.58.73,8.63,8.63,0,0,1,1.68.78,3.15,3.15,0,0,0-.12.87,2.76,2.76,0,0,0,.07.65,4.44,4.44,0,0,0,2,2.7,5.7,5.7,0,0,0,1,.58,10.69,10.69,0,0,0,4.21,1,5,5,0,0,1,.92.77,3.88,3.88,0,0,1,1.07,1.94,6.45,6.45,0,0,0,2.53-2.22,12.2,12.2,0,0,1,1.76.28,1.77,1.77,0,0,0-.07.5c0,1.6,2.08,2.89,4.66,2.89h.25a3.12,3.12,0,0,1,.27,1.27c0,2.74-3.48,5-7.77,5-.37,0-.72,0-1.07,0a7.08,7.08,0,0,1,1.73,1.67c-1.89.38-3.26,1.47-3.26,2.75a1.69,1.69,0,0,0,.16.73,3.92,3.92,0,0,0,2.89,2,7.66,7.66,0,0,0,1.62.18,7.23,7.23,0,0,0,1.78-.22,5.48,5.48,0,0,1,2.89,4.43c0,3.14-3.67,5.76-8.51,6.29a4.3,4.3,0,0,1,.27,5.76c.35-.1.69-.21,1-.33a3.84,3.84,0,0,0,3.6,3.77,3.92,3.92,0,0,0,3.63-4.15c0-.1,0-.19,0-.29a4.47,4.47,0,0,0,1.57.29,4.07,4.07,0,0,0,.62-.06c.42,0,.84.06,1.28.06,4.78,0,8.65-2.32,8.65-5.18v0a4.66,4.66,0,1,0,2.94-8.27Zm-38.86-50.6c-.69-.07-1.38-.12-2.09-.16a1.47,1.47,0,0,1-.1-.13,2.49,2.49,0,0,0,.61.08,3.31,3.31,0,0,0,1.6-.44,3.29,3.29,0,0,0-.05.44C454.44,78.37,454.47,78.44,454.47,78.51Zm34.64,45.86a4.6,4.6,0,0,0,.19-.52,5.2,5.2,0,0,0,.47.35A6.36,6.36,0,0,0,489.11,124.37Z"/><polygon class="cls-2" points="494 209 491.83 209.14 482.08 220.59 482.08 202.5 472.89 202.5 472.89 212.25 472.89 216.06 465.97 212.25 460.97 210.63 472.89 219.16 472.89 244.96 472.89 248 482.08 248 482.08 225.18 494 209"/><path class="cls-5" d="M528.13,192.75a5.56,5.56,0,0,0-.82.08l0-.09c3.18-.05,5.72-1.24,5.72-2.7,0-1.06-1.35-2-3.31-2.42a4.86,4.86,0,0,0-4.28-8.67,22.49,22.49,0,0,0-.43-4.12,4.86,4.86,0,0,0-2.27-9.16,4.47,4.47,0,0,0-.82.08,4.84,4.84,0,0,0-3.38-3.16,30.68,30.68,0,0,0-3.21-3,3.87,3.87,0,0,0,1.09-2.58c0-2.83-3.63-5.15-8.25-5.39a4.25,4.25,0,0,0,1-2.73c0-2.7-2.67-4.88-6-4.88a7.08,7.08,0,0,0-2.38.41,4.71,4.71,0,0,0,.75-2.58,4.08,4.08,0,0,0-3.79-4.33,3.55,3.55,0,0,0-2.77,1.4,4,4,0,0,0-3.73-3.57,3.39,3.39,0,0,0-1.66.46c0-.15,0-.3,0-.46a4.09,4.09,0,0,0-3.79-4.33,3.54,3.54,0,0,0-2.71,1.31,3.56,3.56,0,0,0-2.71-1.31,4.08,4.08,0,0,0-3.79,4.33,4.83,4.83,0,0,0,.07.86,4.82,4.82,0,0,0-7.73,0A4.87,4.87,0,1,0,460.4,140a4.85,4.85,0,0,0-3.18,4.05l-.59,0c-3.3,0-6,2.18-6,4.88a4.1,4.1,0,0,0,.58,2.08,8.43,8.43,0,0,0-2.75-.46c-3,0-5.42,1.46-5.42,3.25s2.43,3.25,5.42,3.25a8.75,8.75,0,0,0,2-.24,3.76,3.76,0,0,0-.95,2.41c0,1.54,1.08,2.93,2.81,3.91a2.27,2.27,0,0,0-.64,1.5,1.94,1.94,0,0,0,.16.75,10,10,0,0,0-2.92-.7,2.7,2.7,0,1,0-3.92.34,7,7,0,0,0-3.13,1.71,4.86,4.86,0,0,0-9.69.61s0,.05,0,.08a11,11,0,0,0-3.8-.62c-3.29,0-6,1.21-6,2.71,0,.78.74,1.49,1.91,2-1.79.47-3,1.35-3,2.35a2.09,2.09,0,0,0,1.23,1.65c-.23,0-.46,0-.69,0-3.29,0-6,1.21-6,2.71s2.67,2.7,6,2.7a10.48,10.48,0,0,0,4.11-.75,4.22,4.22,0,0,0,2,1.28,4.77,4.77,0,0,0-1.07,1.87,4.83,4.83,0,0,0,.27,3.46c-1-.9-3-1.52-5.35-1.52-3.29,0-6,1.21-6,2.71s2.67,2.7,6,2.7h.65c.54,1.24,2.95,2.18,5.85,2.18a10.8,10.8,0,0,0,3.92-.67,17,17,0,0,0,.61,2.83,4.55,4.55,0,0,0-1.74,2.57,5.31,5.31,0,0,0-.55-.23,4.87,4.87,0,0,0-6.06,3.28,5.19,5.19,0,0,0-.18.94,8.49,8.49,0,0,0-.88-.05c-3,0-5.41,1.45-5.41,3.25,0,1.11.94,2.1,2.36,2.68a4.84,4.84,0,0,0,2,7.86c0,.1,0,.19,0,.29,0,3,4,5.42,9,5.42a12.84,12.84,0,0,0,6.05-1.41,4.86,4.86,0,0,0,6.59-4.55,5.28,5.28,0,0,0-.09-.9,10.78,10.78,0,0,0,2.8.36A9.41,9.41,0,0,0,452.1,213c.46,1.5,1.34,2.52,2.36,2.52a2.46,2.46,0,0,0,2-1.63,10.57,10.57,0,0,0,3.42.55c3.67,0,6.69-1.74,7-3.95a10.45,10.45,0,0,0,3.83.7c3.89,0,7-1.94,7-4.34v0c.36.09.73.17,1.1.24a4.63,4.63,0,0,0-1.1,3,3.81,3.81,0,1,0,7.57.13,8.7,8.7,0,0,0,6,2c3.89,0,7-1.94,7-4.33,0-.12,0-.23,0-.34a10.8,10.8,0,0,0,2.73.34,10.41,10.41,0,0,0,3.83-.7,4,4,0,0,0,3.76,3.95,4.09,4.09,0,0,0,3.79-4.34c0-.1,0-.2,0-.3a5,5,0,0,0,1.65.3,4.62,4.62,0,0,0,.65-.06c.44,0,.88.06,1.34.06,5,0,9-2.42,9-5.41,0,0,0,0,0,0a4.87,4.87,0,1,0,3.08-8.63Zm-4.21-5.49a4.29,4.29,0,0,0,.48.36l-.69.17C523.79,187.62,523.85,187.44,523.92,187.26Zm-61.37-37.89h0s0,0,0,.06,0,0,0,0h0S462.55,149.39,462.55,149.37Zm-21.43,20.71,0-.05,0,.06Zm-7.39.7-.11,0,.07-.06Zm53.81-31.57c0,.15,0,.3,0,.46s0,.14,0,.22c-.71-.07-1.44-.13-2.18-.17a1.47,1.47,0,0,1-.1-.13,3,3,0,0,0,2.3-.38Z"/><path class="cls-6" d="M528.13,192.75a3.62,3.62,0,0,0-.82.09l0-.1c3.18-.05,5.72-1.24,5.72-2.7,0-1.06-1.35-2-3.3-2.42a4.87,4.87,0,0,0-3.33-8.91,4.82,4.82,0,0,0-1,.24,22.58,22.58,0,0,0-.43-4.12,4.86,4.86,0,0,0-2.27-9.16,4.28,4.28,0,0,0-.81.08,4.83,4.83,0,0,0-3.39-3.16,30.68,30.68,0,0,0-3.21-3,3.87,3.87,0,0,0,1.09-2.58c0-2.84-3.63-5.16-8.24-5.4a4.28,4.28,0,0,0,1-2.72c0-2.7-2.67-4.88-6-4.88a7,7,0,0,0-2.38.41,4.8,4.8,0,0,0,.75-2.58,4.09,4.09,0,0,0-3.79-4.33,3.55,3.55,0,0,0-2.77,1.4,4,4,0,0,0-3.73-3.57,3.49,3.49,0,0,0-1.67.46,3.41,3.41,0,0,0,.05-.46,4.09,4.09,0,0,0-3.79-4.33,3.54,3.54,0,0,0-2.71,1.31,3.57,3.57,0,0,0-2.71-1.31,4.09,4.09,0,0,0-3.79,4.33,4.83,4.83,0,0,0,.07.86,4.82,4.82,0,0,0-7.73,0,4.87,4.87,0,0,0-9.68.77,4.24,4.24,0,0,0,.21,1.35,14.19,14.19,0,0,1,5.21-.94c5.38,0,9.75,2.7,9.75,6h0c-2.44.18-4.33,1.46-4.33,3A2.26,2.26,0,0,0,471,148a5.66,5.66,0,0,0,3.52,1.35,5.3,5.3,0,0,0,.57,0,6.34,6.34,0,0,0,3.79-1.12,6.37,6.37,0,0,0,3.8,1.12,5.84,5.84,0,0,0,4.23-1.52c3,1,5,3,5,5.24h0c-2.43.18-4.33,1.46-4.33,3a2.11,2.11,0,0,0,0,.26,10,10,0,0,0-1.64.64,7.78,7.78,0,0,0-2.78,2.08,13.27,13.27,0,0,0,4.5-1,4.79,4.79,0,0,1,2.07,3.71,4.27,4.27,0,0,1-1,2.69,13.35,13.35,0,0,1,3.74.77,8.24,8.24,0,0,1,1.75.81,3,3,0,0,0-.13.91,2.58,2.58,0,0,0,.08.68,4.61,4.61,0,0,0,2.08,2.82,6.15,6.15,0,0,0,1,.6,11,11,0,0,0,4.39,1.07,4.85,4.85,0,0,1,1,.81,4,4,0,0,1,1.11,2,6.81,6.81,0,0,0,2.65-2.31,10.87,10.87,0,0,1,1.84.29,1.82,1.82,0,0,0-.08.52c0,1.67,2.18,3,4.88,3h.26a3.41,3.41,0,0,1,.28,1.33c0,2.86-3.64,5.18-8.12,5.18-.38,0-.75,0-1.12-.05a7.53,7.53,0,0,1,1.81,1.74c-2,.4-3.4,1.54-3.4,2.88a1.82,1.82,0,0,0,.16.76,4.13,4.13,0,0,0,3,2.07,7.68,7.68,0,0,0,1.69.18,7.35,7.35,0,0,0,1.86-.22c1.87,1.2,3,2.83,3,4.62,0,3.28-3.84,6-8.89,6.58a4.72,4.72,0,0,1,1.3,3.17,4.78,4.78,0,0,1-1,2.84c.36-.1.71-.22,1.05-.35a4,4,0,0,0,3.76,3.95,4.09,4.09,0,0,0,3.79-4.34c0-.11,0-.2,0-.3a5,5,0,0,0,1.65.3,4.62,4.62,0,0,0,.65-.06c.44,0,.88.06,1.33.06,5,0,9-2.42,9-5.41v0a4.87,4.87,0,1,0,3.08-8.63Zm-40.61-52.86c-.71-.07-1.44-.13-2.18-.17l-.1-.13a3.4,3.4,0,0,0,.64.08,3.45,3.45,0,0,0,1.66-.46,3.42,3.42,0,0,0,0,.46C487.5,139.74,487.52,139.82,487.52,139.89Zm36.2,47.91c.07-.18.13-.36.19-.54.16.13.33.25.49.36A4.5,4.5,0,0,0,523.72,187.8Z"/><polygon class="cls-2" points="337 238 335.78 238.08 330.28 244.54 330.28 234.33 325.09 234.33 325.09 239.83 325.09 241.98 321.19 239.83 318.37 238.92 325.09 243.73 325.09 258.28 325.09 260 330.28 260 330.28 247.13 337 238"/><path class="cls-7" d="M356.25,228.83a2.31,2.31,0,0,0-.46,0,.09.09,0,0,1,0,0c1.79,0,3.22-.7,3.22-1.52,0-.6-.76-1.12-1.87-1.37a2.74,2.74,0,0,0-1.87-5,2.37,2.37,0,0,0-.54.13,12.87,12.87,0,0,0-.24-2.33,2.72,2.72,0,0,0,1.46-2.41,2.75,2.75,0,0,0-2.75-2.75,3.73,3.73,0,0,0-.46,0,2.72,2.72,0,0,0-1.91-1.78,17.11,17.11,0,0,0-1.8-1.7,2.16,2.16,0,0,0,.61-1.45c0-1.6-2.05-2.91-4.65-3a2.43,2.43,0,0,0,.58-1.54c0-1.52-1.51-2.75-3.37-2.75a4.19,4.19,0,0,0-1.34.23,2.58,2.58,0,0,0,.43-1.45,2.3,2.3,0,0,0-2.14-2.44,2,2,0,0,0-1.57.79,2.24,2.24,0,0,0-2.1-2,1.92,1.92,0,0,0-.94.26,2.06,2.06,0,0,0,0-.26,2.3,2.3,0,0,0-2.14-2.44,2,2,0,0,1-3.06,0,2.3,2.3,0,0,0-2.14,2.44,3.89,3.89,0,0,0,0,.49,2.71,2.71,0,0,0-4.36,0,2.75,2.75,0,1,0-4.85,2.13,2.73,2.73,0,0,0-1.8,2.29l-.33,0c-1.86,0-3.36,1.23-3.36,2.75a2.4,2.4,0,0,0,.32,1.18,4.66,4.66,0,0,0-1.55-.26c-1.68,0-3.05.82-3.05,1.83s1.37,1.84,3.05,1.84a4.65,4.65,0,0,0,1.15-.14,2.13,2.13,0,0,0-.54,1.36,2.7,2.7,0,0,0,1.59,2.21,1.25,1.25,0,0,0-.36.84,1,1,0,0,0,.09.42,6,6,0,0,0-1.65-.39,1.47,1.47,0,0,0,.33-.94,1.53,1.53,0,1,0-2.54,1.13,3.87,3.87,0,0,0-1.77,1,2.74,2.74,0,0,0-5.46.34v.05a6.19,6.19,0,0,0-2.14-.35c-1.86,0-3.36.68-3.36,1.52,0,.45.41.85,1.08,1.12-1,.27-1.69.76-1.69,1.33a1.18,1.18,0,0,0,.69.93h-.39c-1.86,0-3.36.68-3.36,1.52s1.5,1.53,3.36,1.53a6,6,0,0,0,2.32-.42,2.4,2.4,0,0,0,1.15.72,2.71,2.71,0,0,0-.6,1.06,2.67,2.67,0,0,0,.15,1.95,4.69,4.69,0,0,0-3-.86c-1.86,0-3.36.68-3.36,1.52s1.5,1.53,3.36,1.53h.37c.3.7,1.66,1.23,3.3,1.23a6,6,0,0,0,2.21-.38,9.5,9.5,0,0,0,.35,1.6,2.65,2.65,0,0,0-1,1.45l-.31-.13a2.76,2.76,0,0,0-3.42,1.85,3.51,3.51,0,0,0-.1.53c-.16,0-.32,0-.49,0-1.69,0-3.06.82-3.06,1.84,0,.63.53,1.18,1.34,1.51a2.72,2.72,0,0,0,1.12,4.43c0,.06,0,.11,0,.17,0,1.68,2.28,3.05,5.09,3.05a7.29,7.29,0,0,0,3.42-.79,2.73,2.73,0,0,0,3.71-2.57,2.94,2.94,0,0,0-.05-.51,6.1,6.1,0,0,0,1.58.21,5.32,5.32,0,0,0,2.94-.81c.27.84.76,1.42,1.33,1.42a1.39,1.39,0,0,0,1.14-.92,6.08,6.08,0,0,0,1.92.31c2.07,0,3.78-1,3.95-2.23a5.89,5.89,0,0,0,2.16.39c2.19,0,4-1.09,4-2.44v0l.62.13a2.66,2.66,0,0,0-.62,1.72,2.15,2.15,0,1,0,4.27.07,4.92,4.92,0,0,0,3.37,1.15c2.2,0,4-1.09,4-2.44a1.15,1.15,0,0,0,0-.19,6.24,6.24,0,0,0,1.54.19,5.81,5.81,0,0,0,2.16-.4,2.27,2.27,0,0,0,2.12,2.23,2.3,2.3,0,0,0,2.14-2.44,1.1,1.1,0,0,0,0-.18,2.71,2.71,0,0,0,.94.18,2.2,2.2,0,0,0,.36,0c.25,0,.5,0,.76,0,2.81,0,5.09-1.37,5.09-3.06v0a2.7,2.7,0,0,0,1.73.63,2.75,2.75,0,0,0,0-5.5Zm-2.37-3.09a1.89,1.89,0,0,0,.27.2l-.39.1Zm-34.62-21.38h0v0h0S319.26,204.38,319.26,204.36Zm-12.09,11.69s0,0,0,0l0,0Zm-4.17.39-.06,0s0,0,0,0Zm30.36-17.81a2.3,2.3,0,0,0,0,.26s0,.08,0,.12c-.4,0-.81-.07-1.22-.09l-.06-.07a2.09,2.09,0,0,0,.36,0A1.92,1.92,0,0,0,333.36,198.63Z"/><path class="cls-2" d="M356.25,228.83a2.31,2.31,0,0,0-.46,0l0,0c1.8,0,3.23-.7,3.23-1.52,0-.6-.76-1.12-1.86-1.37a2.75,2.75,0,0,0-1.88-5,3.05,3.05,0,0,0-.54.14,12.67,12.67,0,0,0-.24-2.32,2.74,2.74,0,0,0-1.29-5.17,2.22,2.22,0,0,0-.45,0,2.73,2.73,0,0,0-1.92-1.78,16.29,16.29,0,0,0-1.81-1.7,2.13,2.13,0,0,0,.62-1.45c0-1.6-2.05-2.91-4.65-3a2.43,2.43,0,0,0,.58-1.54c0-1.52-1.51-2.75-3.37-2.75a3.93,3.93,0,0,0-1.34.24,2.72,2.72,0,0,0,.43-1.46,2.3,2.3,0,0,0-2.14-2.44,2,2,0,0,0-1.57.78,2.24,2.24,0,0,0-2.1-2,2,2,0,0,0-.94.26,2.06,2.06,0,0,0,0-.26,2.3,2.3,0,0,0-2.14-2.44,2,2,0,0,1-3.06,0,2.3,2.3,0,0,0-2.14,2.44,2,2,0,0,0,0,.49,2.72,2.72,0,0,0-4.37,0,2.75,2.75,0,0,0-5.46.43,2.43,2.43,0,0,0,.12.77,7.78,7.78,0,0,1,2.94-.54c3,0,5.5,1.52,5.5,3.4h0c-1.37.09-2.44.82-2.44,1.69a1.24,1.24,0,0,0,.44.92,3.18,3.18,0,0,0,2,.77h.33a3.59,3.59,0,0,0,2.13-.63,3.65,3.65,0,0,0,2.14.63,3.26,3.26,0,0,0,2.39-.86c1.68.58,2.81,1.69,2.81,3h0c-1.38.09-2.45.82-2.45,1.69a.77.77,0,0,0,0,.15,4.49,4.49,0,0,0-.93.36,4.28,4.28,0,0,0-1.57,1.17,7.58,7.58,0,0,0,2.54-.58,2.7,2.7,0,0,1,1.17,2.09,2.43,2.43,0,0,1-.58,1.52,7.67,7.67,0,0,1,2.1.43,4.49,4.49,0,0,1,1,.46,1.7,1.7,0,0,0-.07.51,1.72,1.72,0,0,0,0,.39,2.66,2.66,0,0,0,1.18,1.59,4,4,0,0,0,.58.34,6.33,6.33,0,0,0,2.48.6,3.08,3.08,0,0,1,.55.45,2.31,2.31,0,0,1,.63,1.15,3.93,3.93,0,0,0,1.49-1.31,6.85,6.85,0,0,1,1,.16,1,1,0,0,0-.05.3c0,.94,1.23,1.7,2.75,1.7h.15a2,2,0,0,1,.16.75c0,1.62-2.05,2.92-4.58,2.92-.22,0-.42,0-.63,0a4.59,4.59,0,0,1,1,1c-1.11.22-1.92.86-1.92,1.62a1,1,0,0,0,.09.43,2.33,2.33,0,0,0,1.71,1.17,4.69,4.69,0,0,0,.95.1,3.92,3.92,0,0,0,1.05-.13,3.24,3.24,0,0,1,1.7,2.61c0,1.85-2.16,3.4-5,3.71a2.55,2.55,0,0,1,.16,3.39,5.8,5.8,0,0,0,.59-.19,2.27,2.27,0,0,0,2.12,2.22,2.3,2.3,0,0,0,2.14-2.44c0-.06,0-.12,0-.17a2.79,2.79,0,0,0,.93.17,2.2,2.2,0,0,0,.36,0,6.28,6.28,0,0,0,.75,0c2.82,0,5.1-1.37,5.1-3.06a0,0,0,0,1,0,0,2.75,2.75,0,1,0,1.74-4.87ZM333.35,199c-.41-.05-.82-.08-1.23-.1l-.06-.07a2.09,2.09,0,0,0,.36,0,2,2,0,0,0,.94-.26,2.3,2.3,0,0,0,0,.26S333.35,199,333.35,199Zm20.41,27a1.63,1.63,0,0,0,.11-.31,2.55,2.55,0,0,0,.28.21Z"/><polygon class="cls-2" points="744.67 194.67 742.2 194.82 731.12 207.84 731.12 187.28 720.67 187.28 720.67 198.36 720.67 202.69 712.8 198.36 707.12 196.51 720.67 206.21 720.67 235.54 720.67 239 731.12 239 731.12 213.06 744.67 194.67"/><path class="cls-7" d="M783.46,176.19a5.63,5.63,0,0,0-.93.1l0-.1c3.61-.07,6.5-1.42,6.5-3.07,0-1.21-1.53-2.25-3.76-2.76a5.54,5.54,0,0,0-4.87-9.86,26,26,0,0,0-.48-4.68,5.52,5.52,0,0,0-2.59-10.41,5.75,5.75,0,0,0-.93.09,5.52,5.52,0,0,0-3.85-3.59,34.84,34.84,0,0,0-3.64-3.42,4.36,4.36,0,0,0,1.24-2.93c0-3.22-4.13-5.86-9.38-6.13a4.84,4.84,0,0,0,1.17-3.11c0-3.06-3-5.54-6.78-5.54a7.93,7.93,0,0,0-2.7.46,5.37,5.37,0,0,0,.86-2.93c0-2.72-1.93-4.92-4.31-4.92a4.09,4.09,0,0,0-3.16,1.59,4.51,4.51,0,0,0-4.23-4,3.82,3.82,0,0,0-1.9.52,4.8,4.8,0,0,0,0-.52c0-2.72-1.93-4.93-4.31-4.93a3.93,3.93,0,0,1-6.16,0c-2.38,0-4.31,2.21-4.31,4.93a5.23,5.23,0,0,0,.09,1,5.49,5.49,0,0,0-8.8,0,5.53,5.53,0,1,0-9.78,4.3,5.47,5.47,0,0,0-3.61,4.61c-.23,0-.45,0-.68,0-3.74,0-6.77,2.48-6.77,5.54a4.67,4.67,0,0,0,.66,2.37,9.55,9.55,0,0,0-3.13-.52c-3.4,0-6.15,1.65-6.15,3.69s2.75,3.7,6.15,3.7a9.58,9.58,0,0,0,2.32-.28,4.26,4.26,0,0,0-1.08,2.74c0,1.75,1.22,3.33,3.18,4.45a2.64,2.64,0,0,0-.72,1.71,2.22,2.22,0,0,0,.18.84,11.63,11.63,0,0,0-3.32-.79,3,3,0,0,0,.68-1.9,3.08,3.08,0,1,0-6.16,0,3,3,0,0,0,1,2.28,7.91,7.91,0,0,0-3.56,1.95,5.53,5.53,0,0,0-11,.69s0,.07,0,.1a12.32,12.32,0,0,0-4.32-.71c-3.74,0-6.77,1.38-6.77,3.08,0,.89.84,1.69,2.18,2.25-2,.54-3.41,1.53-3.41,2.67a2.35,2.35,0,0,0,1.4,1.87l-.79,0c-3.74,0-6.77,1.38-6.77,3.08s3,3.08,6.77,3.08a12,12,0,0,0,4.68-.86,4.85,4.85,0,0,0,2.31,1.46,5.41,5.41,0,0,0-1.21,2.13,5.47,5.47,0,0,0,.31,3.93c-1.1-1-3.41-1.74-6.09-1.74-3.74,0-6.77,1.38-6.77,3.08s3,3.08,6.77,3.08l.75,0c.61,1.42,3.35,2.48,6.64,2.48a12.43,12.43,0,0,0,4.46-.76,17.6,17.6,0,0,0,.7,3.22,5.19,5.19,0,0,0-2,2.92,5.76,5.76,0,0,0-.62-.26,5.54,5.54,0,0,0-6.89,3.73,5,5,0,0,0-.2,1.07,8.26,8.26,0,0,0-1-.06c-3.4,0-6.16,1.65-6.16,3.69,0,1.27,1.07,2.39,2.69,3a5.49,5.49,0,0,0,2.27,8.93c0,.12,0,.22,0,.34,0,3.4,4.59,6.15,10.26,6.15a14.6,14.6,0,0,0,6.88-1.6,5.51,5.51,0,0,0,7.49-5.17,5.69,5.69,0,0,0-.1-1,12.36,12.36,0,0,0,3.18.4,10.71,10.71,0,0,0,5.94-1.63c.52,1.7,1.52,2.87,2.68,2.87.91,0,1.71-.73,2.28-1.85a12.14,12.14,0,0,0,3.88.61c4.18,0,7.6-2,8-4.48a11.87,11.87,0,0,0,4.35.79c4.42,0,8-2.21,8-4.93v0c.42.09.83.19,1.25.27a5.28,5.28,0,0,0-1.25,3.46c0,2.72,1.93,4.92,4.31,4.92a4.62,4.62,0,0,0,4.3-4.78,9.87,9.87,0,0,0,6.79,2.32c4.42,0,8-2.2,8-4.92a2.47,2.47,0,0,0,0-.39,12.38,12.38,0,0,0,3.11.39,11.79,11.79,0,0,0,4.35-.8,4.58,4.58,0,0,0,4.27,4.49c2.38,0,4.31-2.21,4.31-4.93,0-.12,0-.23,0-.35a5.36,5.36,0,0,0,1.88.35,6.17,6.17,0,0,0,.74-.07c.5,0,1,.07,1.52.07,5.66,0,10.26-2.75,10.26-6.15v0a5.51,5.51,0,0,0,9-4.27A5.55,5.55,0,0,0,783.46,176.19ZM778.67,170a5.75,5.75,0,0,0,.56.41l-.79.2A6.37,6.37,0,0,0,778.67,170Zm-69.75-43.07h0s0,0,0,.07,0,0,0,0h-.06A.29.29,0,0,0,708.92,126.88Zm-24.37,23.55s0,0,.05-.07l0,.07Zm-8.4.79-.12,0,.08-.06Zm61.17-35.89c0,.17,0,.34,0,.52s0,.17,0,.26c-.81-.09-1.63-.15-2.47-.19l-.12-.15a4.29,4.29,0,0,0,.72.08A3.86,3.86,0,0,0,737.32,115.33Z"/><path class="cls-2" d="M783.46,176.19a4.73,4.73,0,0,0-.93.1l0-.11c3.62-.06,6.5-1.4,6.5-3.06,0-1.21-1.54-2.26-3.76-2.76a5.54,5.54,0,0,0-3.78-10.13,6.21,6.21,0,0,0-1.09.28,25,25,0,0,0-.48-4.68,5.53,5.53,0,0,0-2.59-10.42,3.93,3.93,0,0,0-.92.1,5.49,5.49,0,0,0-3.86-3.6,33.87,33.87,0,0,0-3.64-3.42,4.39,4.39,0,0,0,1.24-2.93c0-3.23-4.12-5.87-9.37-6.14a4.86,4.86,0,0,0,1.16-3.1c0-3.07-3-5.54-6.78-5.54a7.89,7.89,0,0,0-2.7.47,5.54,5.54,0,0,0,.86-2.94c0-2.72-1.94-4.92-4.31-4.92a4,4,0,0,0-3.16,1.59,4.51,4.51,0,0,0-4.23-4,3.91,3.91,0,0,0-1.9.51,2.94,2.94,0,0,0,0-.51c0-2.73-1.93-4.93-4.31-4.93a3.93,3.93,0,0,1-6.16,0c-2.37,0-4.31,2.2-4.31,4.93a5.23,5.23,0,0,0,.09,1,5.48,5.48,0,0,0-8.79,0,5.53,5.53,0,0,0-11,.87,4.82,4.82,0,0,0,.23,1.54,16,16,0,0,1,5.93-1.07c6.12,0,11.08,3.07,11.08,6.85h0c-2.77.2-4.93,1.65-4.93,3.41a2.55,2.55,0,0,0,.89,1.86,6.52,6.52,0,0,0,4,1.54c.21,0,.43,0,.66,0a7.26,7.26,0,0,0,4.31-1.27,7.23,7.23,0,0,0,4.31,1.27,6.62,6.62,0,0,0,4.81-1.73c3.38,1.17,5.65,3.4,5.65,6h0c-2.77.2-4.92,1.65-4.92,3.41,0,.1,0,.2,0,.3a11,11,0,0,0-1.87.73,8.64,8.64,0,0,0-3.15,2.36,15.45,15.45,0,0,0,5.11-1.17,5.43,5.43,0,0,1,2.35,4.21,4.84,4.84,0,0,1-1.17,3.06,15.63,15.63,0,0,1,4.25.87,9.85,9.85,0,0,1,2,.93,3.88,3.88,0,0,0-.14,1,3.39,3.39,0,0,0,.08.78,5.27,5.27,0,0,0,2.37,3.2,6.77,6.77,0,0,0,1.18.69,12.48,12.48,0,0,0,5,1.2,5.94,5.94,0,0,1,1.1.93,4.51,4.51,0,0,1,1.26,2.3,7.76,7.76,0,0,0,3-2.63,12.5,12.5,0,0,1,2.09.33,2,2,0,0,0-.08.59c0,1.9,2.47,3.42,5.54,3.42h.29a3.79,3.79,0,0,1,.32,1.51c0,3.26-4.13,5.89-9.23,5.89-.43,0-.85,0-1.27-.06a8.67,8.67,0,0,1,2.06,2c-2.25.46-3.87,1.75-3.87,3.28a2.14,2.14,0,0,0,.18.86,4.66,4.66,0,0,0,3.44,2.35,8.43,8.43,0,0,0,1.92.21,8,8,0,0,0,2.12-.26c2.12,1.37,3.42,3.23,3.42,5.26,0,3.73-4.36,6.85-10.1,7.48a5.4,5.4,0,0,1,1.48,3.6,5.35,5.35,0,0,1-1.16,3.23c.42-.11.82-.25,1.2-.39a4.57,4.57,0,0,0,4.27,4.48c2.38,0,4.31-2.2,4.31-4.93,0-.12,0-.23,0-.34a5.45,5.45,0,0,0,1.87.34,4.53,4.53,0,0,0,.74-.07,15,15,0,0,0,1.51.07c5.68,0,10.27-2.75,10.27-6.15,0,0,0,0,0,0a5.54,5.54,0,1,0,3.5-9.82ZM737.3,116.11c-.81-.09-1.64-.15-2.47-.2l-.13-.14a4.53,4.53,0,0,0,.73.08,3.92,3.92,0,0,0,1.9-.52,3.15,3.15,0,0,0-.05.52C737.28,115.94,737.3,116,737.3,116.11Zm41.15,54.46c.08-.21.14-.41.22-.62.18.15.37.28.55.41A5.77,5.77,0,0,0,778.45,170.57Z"/></g></g></svg>