<svg xmlns="http://www.w3.org/2000/svg" viewBox="0 0 908 1035"><defs><style>.cls-1{fill:#0b3241;}</style></defs><title>Asset 37</title><g id="Layer_2" data-name="Layer 2"><g id="레이어_1" data-name="레이어 1"><path class="cls-1" d="M0,777.3s117-26.53,279.07,55S681.92,828.46,908,1035H0Z"/><path class="cls-1" d="M110.43,19.3s46.18-12.59,41.63,282,1.14,634.45-43.2,688.16H237L187.3,0H108.86Z"/><path class="cls-1" d="M262.33,8.91s20.47,115.88-67.19,147.17v43s101.3-67.35,80.27-192.15"/><path class="cls-1" d="M152.36,252.93S33.83,216.9,2,103v53.49s33.56,78,150.36,119.71Z"/><path class="cls-1" d="M334.71,872.18S285.37,186.36,334.71,3H403.2s20.95,4.19-13.07,28.3c-45.06,31.92-65.5,742.49,38.94,844.91Z"/><path class="cls-1" d="M288.39,3S268,118.11,314.48,196.25L314,235S260.7,166.45,272.56,3Z"/><path class="cls-1" d="M369.11,104.62S438.73,85.76,466.68,3h5.66s-33,106.89-106.23,124.71Z"/></g></g></svg>