<svg xmlns="http://www.w3.org/2000/svg" viewBox="0 0 1535 1057"><defs><style>.cls-1{fill:#000e1c;}.cls-2{fill:#fff;}</style></defs><title>Asset 52</title><g id="Layer_2" data-name="Layer 2"><g id="레이어_1" data-name="레이어 1"><path class="cls-1" d="M1535,1057,54,1046.89S390.46,831,1535,835"/><path class="cls-1" d="M1429.62,19.49S1389,6.78,1393,304.19s-1,640.58,38,694.81H1318.3L1362,0h69Z"/><path class="cls-1" d="M1296,9s-18,117,59.11,148.58V201S1266,133,1284.5,7"/><path class="cls-1" d="M1392.74,255.38S1497,219,1533,95v43s-37.52,98.74-140.26,140.87Z"/><path class="cls-1" d="M1177.51,843.05s49.31-661,.53-836h-67.7s-20.71,4,12.92,27c44.54,30.47,62,711.27-41.79,815.6Z"/><path class="cls-1" d="M1223.83,7S1244,116.87,1198,191.44L1195,231s56.2-68,44.48-224Z"/><path class="cls-1" d="M1144,104s-68.82-18-96.44-97H1042s32.66,102,105,119Z"/><path class="cls-1" d="M158.56,27.25S114.94,14,119.24,323.07,118.16,988.65,160.05,1045H39L86,7h74.1Z"/><path class="cls-1" d="M15.07,16.35S-4.27,137.92,78.54,170.74v45.11S-17.15,145.19,2.71,14.27"/><path class="cls-1" d="M119,272.35s112-37.8,142-157.29L264,147S229.3,253,119,296.76Z"/><path class="cls-1" d="M1159,329.35S930,399,773,279l3,13s123,132,383,61.76Z"/><path class="cls-1" d="M995.28,357.8l.72-5.57-6.36-1.69,3.43-1.19-.66-3.9-3.28,1.15,2.19-1.42,2.51.47.35-3.74-4.4-.84c0-.24,0-.47,0-.71v-.22l4.51-3.74L992.94,333l-1.83,1.52-.65-2.06-2.32,1.5c-.19-.35-.39-.69-.6-1l1.47.39.45-3.52-3.33-.89,2-.68-.37-2.18-4.05,1.41-1.36-.59,1.51-.52-.37-2.19-4,1.38-1.25-.69,3.59-4.36-1.7-2.88-2.43,2.95-1.45-2.77-4.05,4.36-.06-2.9-6.84.31-.47-.21L967,317l-1.58-3-3.71,4-4.11-1.77-.73,3.49.44.19-1.2.06-.33-.07-6.2-5.64-1.4,3.19,1.4,1.28-4.43-.84,2.06-2.5-1.63-2.78-5.36,6.51,0-.07-1.59,1.71-6,.27,0,1.4L927,320l-.73,3.49,5.66,2.43-7.47,4.84.86,2.72-7.6-2L917,337l5.19,1.37-2.48,2.68,1,2,1.16-1.25v0l.75.4-.41,3.17.07,0-2.23.78.37,2.18,5.63-2,.14,0,.44.82-2.31.81.37,2.18,3.21-1.11a18.83,18.83,0,0,0,1.64,1.86l-7.85,2.73.37,2.19,9.32-3.25.4.32-3,2,1.13,3.61,3.74-2.43-.12,1.9,4.41.58L935.78,360l1,3.27,3.1-2,.29,1.72,7.36-2.57,1.93,1,.48,2.88,8.76-3.05h0L954.35,365l1.37,3.42,7-5.78.68,2.42,4.38-2.56,6,.78.18-2.89-2.16-.28,1.73-1,3.18,2.9,1.41-3.19-1-.92,7,1.85.45-3.53-4.17-1.11,1.49-.87Zm-69-24.09.4-.25-.14.25-.06.06Zm8.85,21.51.25.15-.4-.05Z"/><path class="cls-2" d="M948.4,322.06c3.8,3.49,4.73,8.66,2.08,11.54s-7.87,2.39-11.67-1.1-6.92-10.66-4.27-13.55S944.6,318.57,948.4,322.06Z"/><path class="cls-2" d="M963.77,337.14c-2,2.72-5.3,3.7-7.36,2.18s-2.11-5-.11-7.68,6.45-5.25,8.51-3.73S965.77,334.43,963.77,337.14Z"/></g></g></svg>