<svg xmlns="http://www.w3.org/2000/svg" viewBox="0 0 1933.75 1045"><defs><style>.cls-1{fill:#145f70;}</style></defs><title>Asset 33</title><g id="Layer_2" data-name="Layer 2"><g id="레이어_1" data-name="레이어 1"><path class="cls-1" d="M1762.18,13.36s46.18-8.71,41.63,195.22S1805,647.82,1760.61,685h128.12L1839.05,0h-78.44Z"/><path class="cls-1" d="M1914.08,6.17s20.47,80.23-67.19,101.88v29.77s101.3-46.62,80.27-133"/><path class="cls-1" d="M1804.11,175.11s-118.53-24.94-150.36-103.8v37s33.56,54,150.36,82.88Z"/><path class="cls-1" d="M513.4,26.82s-50-10.32-45,231.13S467.12,778,515.1,822H376.44L430.21,11H515.1Z"/><path class="cls-1" d="M349,18.31s-22.15,95,72.72,120.62v35.24S312.1,119,334.86,16.68"/><path class="cls-1" d="M467.75,193s143-24,205-173h15S624.75,189,468,237.39Z"/><path class="cls-1" d="M1601.46,881.61s-49.34-692.45,0-877.61H1670s21,4.23-13.07,28.57c-45.06,32.23-65.5,749.67,38.94,853.07Z"/><path class="cls-1" d="M1555.14,4s-20.41,116.25,26.09,195.14l-1.7,39.57S1527.45,169.06,1539.31,4Z"/><path class="cls-1" d="M1635.86,106.63s69.62-19,97.57-102.63h5.66s-33,107.92-106.23,125.91Z"/><path class="cls-1" d="M1433.14,797s44.48-623.33,0-790h-61.73s-18.89,3.81,11.78,25.72c40.62,29,59,674.84-35.1,767.92Z"/><path class="cls-1" d="M498.88,813.2C73.29,717.12-2.93,778.78.08,838.92V1045H1933.75V658.5C1001.75,684.2,1007.55,928,498.88,813.2Z"/></g></g></svg>