<svg xmlns="http://www.w3.org/2000/svg" viewBox="0 0 1850 1051"><defs><style>.cls-1{fill:#000e1c;}</style></defs><title>Asset 51</title><g id="Layer_2" data-name="Layer 2"><g id="레이어_1" data-name="레이어 1"><path class="cls-1" d="M174.62,29.49S134,16.78,138,314.19,137,954.77,176,1009H63.3L107,10h69Z"/><path class="cls-1" d="M41,19S23,136,100.11,167.58V211S11,143,29.5,17"/><path class="cls-1" d="M137.74,265.38S242,229,278,105v43s-37.52,98.74-140.26,140.87Z"/><path class="cls-1" d="M1608.68,20.5S1675.06,7.13,1668.53,320s1.63,673.93-62.11,731h184.21L1719.2,0H1606.42Z"/><path class="cls-1" d="M1827.07,9.47s29.42,123.09-96.61,156.32v45.67s145.65-71.54,115.41-204.1"/><path class="cls-1" d="M1669,268.67S1498.54,230.4,1439.7,99.94v45.24S1501,249.07,1669,293.39Z"/><path class="cls-1" d="M1761.13,1050H0V841s334.57-.84,746.86,28.89l-.46,7c-2.12,33.34,85.08,66,194.76,73,100.61,6.4,185.2-11.06,200.14-39.73a3.49,3.49,0,0,1,3.53-1.9C1560.38,963.06,1761.13,1050,1761.13,1050Z"/><path class="cls-1" d="M1333.67,1012.27c6.61-63,4.35-66.45,5.77-69.52,6.82-14.72,21.7-49.66,14.12-59.35-8-10.18-28.65-40.17-35.75-50.52a4.58,4.58,0,0,1,1-6.22l12.28-9.56a4.6,4.6,0,0,1,6.47.81l28.24,36.54s6.48,9.3,3-6.35c-2.58-11.66-4.53-31.72-5.36-41.18a11,11,0,0,1,7.14-11.38c5-1.79,13.27-3.28,27-3.28,40.85,0,215.21-2.58,218.35-2.64s20.29,2.64,20.49,12.07-2.53,97.57,4.13,116.3a65.91,65.91,0,0,0,11.79,20.47c2.52,3,.41,7.5-13.48,70.54Z"/></g></g></svg>