<svg xmlns="http://www.w3.org/2000/svg" viewBox="0 0 1313 1046"><defs><style>.cls-1{fill:#0b3241;}</style></defs><title>Asset 50</title><g id="Layer_2" data-name="Layer 2"><g id="레이어_1" data-name="레이어 1"><path class="cls-1" d="M1313,725.14s-169.24-33-403.54,68.42S326.92,788.84,0,1046H1313Z"/><path class="cls-1" d="M994.67,19.52S946.44,6.79,951.19,304.63s-1.19,641.5,45.12,695.81H862.49L914.38,0h81.93Z"/><path class="cls-1" d="M836,9s-21.38,117.17,70.18,148.8v43.48S800.39,133.19,822.35,7"/><path class="cls-1" d="M950.88,255.75s123.81-36.43,157.05-151.6v54.08s-35,78.86-157.05,121Z"/><path class="cls-1" d="M764.34,894.09s52.43-705.45,0-894.09H691.56S669.3,4.31,705.45,29.1c47.88,32.84,69.6,763.76-41.38,869.11Z"/><path class="cls-1" d="M813.56,0s21.69,118.44-27.72,198.81L785,239s58-70.84,45.38-239Z"/><path class="cls-1" d="M727.79,104.56S653.8,85.16,624.11,0h-6S653.21,110,731,128.27Z"/></g></g></svg>