<svg xmlns="http://www.w3.org/2000/svg" viewBox="0 0 608.03 2833"><defs><style>.cls-1{fill:#3d3d3d;}.cls-2{fill:none;stroke:#3d3d3d;stroke-miterlimit:10;stroke-width:3px;}</style></defs><title>Asset 54</title><g id="Layer_2" data-name="Layer 2"><g id="레이어_1" data-name="레이어 1"><polygon class="cls-1" points="305 0 305 43.59 262.36 122.58 282.92 200.28 282.92 226.79 220.21 273.69 218.34 343.25 258 398 232 482.97 220.21 627.05 187.18 654.11 164 816 206.86 873.15 139 1020 116 1128.29 125 1300.98 181 1382 305 1466.21 282.92 1622.91 223.67 1704.51 223.67 1766.29 223.67 1886.26 206.86 2001.1 305 2123.63 339 2209 378.55 2232.06 378.55 2337.86 351.79 2400.94 430.47 2476.2 462.1 2550.25 462.1 2652.93 545.01 2652.93 608.03 2797.64 603.41 2831.51 0 2833 0 0 305 0"/><polygon class="cls-1" points="206.34 1417.65 234.59 1371.53 223.26 1311.34 248.45 1206.96 266.15 1186.47 269.24 1194.48 257.91 1213.38 243.6 1313.08 255.98 1363.28 231.03 1439.43 206.34 1417.65"/><polyline class="cls-2" points="145.07 983.1 178.81 977.32 193.19 986.17 183.95 1002.99 190.73 1014.28 179.82 1017.8 182.56 1026.27 205.2 1023.43 222.54 1031.71 225.01 1039.37"/><polyline class="cls-2" points="189.46 992.96 193.79 997.15 198.82 1002.02 213.94 1005.05"/><line class="cls-2" x1="211.02" y1="996" x2="196.14" y2="999.43"/><polyline class="cls-2" points="166.93 955.1 214.39 949.63 225.72 962.01 224.3 983.6 235.44 992.17"/><path class="cls-2" d="M154.81,995.44l8.78,7.74s-9.54,22.38-9.11,23.7,9.42,3.24,9.42,3.24"/><polyline class="cls-2" points="131.38 1028.54 134.47 1038.12 149.97 1038.9 147.9 1056.12 157.18 1061.25"/><line class="cls-2" x1="161.02" y1="1009.3" x2="168.88" y2="1019.58"/><polyline class="cls-2" points="205.2 1023.43 225.99 1021.31 227.5 1025.98"/><polyline class="cls-2" points="224.91 974.24 230.88 978.01 244.54 976.95 247.48 986.05"/><polyline class="cls-2" points="203.29 950.91 204.45 954.53 214.09 963.32 215.89 968.89"/><polyline class="cls-2" points="164 946 194.92 946.08 218.16 938.58 246.66 945.78 281.19 939.21"/><polyline class="cls-2" points="176.88 953.96 189.29 960.54 185.86 967.55"/><line class="cls-2" x1="228.99" y1="941.32" x2="257.89" y2="933.3"/><polyline class="cls-2" points="149.24 1045 129.77 1057.44 135.7 1061.83"/><polyline class="cls-2" points="148.46 1051.48 163.92 1056.16 172.36 1056.35"/><line class="cls-2" x1="184.62" y1="946.05" x2="202.54" y2="938.04"/><line class="cls-2" x1="163.59" y1="1003.18" x2="143.23" y2="1017.98"/><polyline class="cls-2" points="357.53 2435.97 387.44 2415.28 432.33 2428.09 448.27 2417.06"/><polyline class="cls-2" points="367.65 2472.84 378.06 2465.64 427.33 2473.59"/><polyline class="cls-2" points="397.02 2418.02 411.83 2387.91 469.27 2402.53 504.55 2378.13"/><polyline class="cls-2" points="352.53 2365.46 390.39 2365.71 418.36 2346.37 426.2 2327.72 459.02 2312.32"/><path class="cls-2" d="M378.29,2315.91l22.94,8.39s1.89-17.45,6.25-16.46,7.95-30.74,7.95-30.74l19.72-13.64s-2.88-21.77-1.3-26.52"/><polyline class="cls-2" points="407.48 2307.84 429.32 2292.73 449.01 2258.85"/><polyline class="cls-2" points="413.95 2287.81 414.21 2263.05 421.46 2258.04"/><polyline class="cls-2" points="436.69 2280.05 463.56 2261.46 462.67 2249.4"/><polyline class="cls-2" points="398.79 2359.9 420.18 2359.72 441.69 2337.53"/><polyline class="cls-2" points="431.58 2392.94 440.59 2378.51 464.95 2378.34 478.42 2360.68"/><line class="cls-2" x1="418.91" y1="2424.26" x2="427.01" y2="2409.84"/><line class="cls-2" x1="394.03" y1="2468.22" x2="417.55" y2="2480.36"/></g></g></svg>