<svg xmlns="http://www.w3.org/2000/svg" viewBox="0 0 410.03 2830"><defs><style>.cls-1{fill:#2b2b2b;}.cls-2{fill:none;stroke:#2b2b2b;stroke-miterlimit:10;stroke-width:3px;}</style></defs><title>Asset 56</title><g id="Layer_2" data-name="Layer 2"><g id="레이어_1" data-name="레이어 1"><polygon class="cls-1" points="239.28 1933 194.35 1991.51 205.2 2065.31 257.05 2129.89 277.32 2156 254.18 2156 187.97 2068.21 176.48 1991.99 234.56 1908.54 250.06 1896 265.95 1922.27 239.28 1933"/><path class="cls-1" d="M268.79,0,217.91,79.26V240.88L94,598.16,73.34,853.91,10,1076.14,0,1360l88.32,138.68,23,96,24,53.91,52.8,81.12,49,166.27,47,35.71-7.76,123.66L241,2221.82l43.2,79.57,35.37,34s-25.77,43.78-23.85,52.71,12.48,22.31,12.48,22.31v27.9l-39.36,63.61,7.68,54.68-52.8,87-17.87,34.57,21.57,31.67-11.77,22.27-35.29,22.26,2,61,7.84,14.57H410V0Z"/><polyline class="cls-2" points="234 259.71 183.64 255.92 160.8 225.4 172.7 187.47 161.04 154.87 177.11 151.88 171.93 128.7 138 123.5 110.75 92.8 106.07 71.86"/><polyline class="cls-2" points="165.6 210.09 158.53 196.99 150.31 181.77 127.06 165.69"/><line class="cls-2" x1="132.59" y1="190.45" x2="154.69" y2="189.87"/><polyline class="cls-2" points="204.37 319.28 133.21 307.13 114.55 269.26 114.02 214.84 96.11 186.81"/><path class="cls-2" d="M217.73,222.79l-14.24-24.6s11.67-52,10.86-55.6-14.66-13.46-14.66-13.46"/><polyline class="cls-2" points="249.1 151.06 243.24 124.87 219.68 114.34 220.69 71.47 206.02 53.25"/><line class="cls-2" x1="206.62" y1="183.94" x2="193.46" y2="153.33"/><polyline class="cls-2" points="138 123.5 106.81 117.5 103.95 104.72"/><polyline class="cls-2" points="114.25 238.43 104.76 225.51 84.21 220.7 78.65 195.82"/><polyline class="cls-2" points="149.87 309.98 147.65 300.08 131.97 272.31 128.57 257.08"/><polyline class="cls-2" points="209.93 344.16 163.13 326.95 128.88 333.33 84.85 299.22 33.41 297.05"/><polyline class="cls-2" points="189.46 316.73 169.85 293.06 174.18 277.02"/><line class="cls-2" x1="112.15" y1="320.37" x2="69.4" y2="324.96"/><polyline class="cls-2" points="220.04 99.16 247.97 78.06 238.46 63.58"/><polyline class="cls-2" points="220.42 83.01 196.45 62.55 183.65 57.41"/><line class="cls-2" x1="178.72" y1="332.68" x2="152.59" y2="343.31"/><line class="cls-2" x1="203.49" y1="198.19" x2="232.47" y2="171.54"/></g></g></svg>