<svg xmlns="http://www.w3.org/2000/svg" viewBox="0 0 478.17 2827"><defs><style>.cls-1{fill:#3d3d3d;}.cls-2{fill:none;stroke:#3d3d3d;stroke-miterlimit:10;stroke-width:4px;}</style></defs><title>Asset 55</title><g id="Layer_2" data-name="Layer 2"><g id="레이어_1" data-name="레이어 1"><polygon class="cls-1" points="314.03 146 268.88 205 227.42 324 255.06 433 248.07 458.31 215.44 326 248.61 238 258.41 208.4 310.23 123.22 314.03 146"/><path class="cls-1" d="M342.6,0,293.76,79.18V240.63l-118.9,356.9-34.05,442.55L84.6,1171.62v187l84.77,138.53L191.49,1593l23,53.86,50.68,81,47,166.1,45.15,35.67-7.45,123.53-34,166.3L357.34,2299l34,34s-24.75,43.74-22.9,52.66,12,22.29,12,22.29v27.87l-37.78,63.54,7.37,54.62-50.68,87-17.15,34.53,20.7,31.63-11.29,22.25-33.88,22.24,1.88,61,7.53,14.55H478.17V0Z"/><polygon class="cls-1" points="179.87 980.16 140.91 947.3 130.85 887.07 75.48 798.75 53.81 786 53.81 794.58 69.57 808.14 114.22 896.01 120.13 947.3 166.08 1009.37 179.87 980.16"/><polyline class="cls-2" points="200.67 609.71 150.31 605.92 127.47 575.4 139.37 537.47 127.71 504.87 143.78 501.88 138.6 478.7 104.67 473.5 77.42 442.8 72.74 421.86"/><polyline class="cls-2" points="132.27 560.09 125.2 546.99 116.98 531.77 93.73 515.69"/><line class="cls-2" x1="99.26" y1="540.45" x2="121.36" y2="539.87"/><polyline class="cls-2" points="171.04 669.28 99.88 657.13 81.22 619.26 80.7 564.84 62.78 536.81"/><path class="cls-2" d="M184.4,572.79l-14.24-24.6s11.67-52,10.86-55.6-14.66-13.46-14.66-13.46"/><polyline class="cls-2" points="215.77 501.06 209.91 474.87 186.35 464.35 187.37 421.47 172.69 403.25"/><line class="cls-2" x1="173.29" y1="533.94" x2="160.13" y2="503.33"/><polyline class="cls-2" points="104.67 473.5 73.48 467.5 70.63 454.72"/><polyline class="cls-2" points="80.92 588.43 71.43 575.51 50.88 570.7 45.32 545.82"/><polyline class="cls-2" points="116.54 659.98 114.32 650.08 98.65 622.31 95.24 607.08"/><polyline class="cls-2" points="176.6 694.16 129.8 676.95 95.55 683.33 51.52 649.22 0.08 647.05"/><polyline class="cls-2" points="156.13 666.73 136.53 643.07 140.85 627.02"/><line class="cls-2" x1="78.82" y1="670.37" x2="36.07" y2="674.96"/><polyline class="cls-2" points="186.71 449.16 214.64 428.06 205.13 413.58"/><polyline class="cls-2" points="187.09 433.01 163.12 412.55 150.32 407.41"/><line class="cls-2" x1="145.39" y1="682.68" x2="119.26" y2="693.31"/><line class="cls-2" x1="170.16" y1="548.19" x2="199.15" y2="521.54"/><polyline class="cls-2" points="326.72 2610.71 276.37 2606.92 253.53 2576.4 265.43 2538.47 253.76 2505.87 269.84 2502.88 264.66 2479.7 230.73 2474.5 203.48 2443.8 198.79 2422.86"/><polyline class="cls-2" points="258.33 2561.09 251.26 2547.99 243.04 2532.77 219.78 2516.69"/><line class="cls-2" x1="225.32" y1="2541.45" x2="247.41" y2="2540.87"/><polyline class="cls-2" points="297.09 2670.28 225.94 2658.14 207.28 2620.26 206.75 2565.84 188.83 2537.81"/><path class="cls-2" d="M331.46,2595.79l-14.24-24.6s11.67-52,10.86-55.6-14.66-13.46-14.66-13.46"/><polyline class="cls-2" points="341.83 2502.06 335.97 2475.87 312.41 2465.34 313.42 2422.47 298.74 2404.25"/><line class="cls-2" x1="320.35" y1="2556.94" x2="307.18" y2="2526.33"/><polyline class="cls-2" points="230.73 2474.5 199.54 2468.5 196.68 2455.72"/><polyline class="cls-2" points="206.98 2589.43 197.49 2576.51 176.94 2571.7 171.37 2546.82"/><polyline class="cls-2" points="242.59 2660.98 240.38 2651.08 224.7 2623.31 221.3 2608.08"/><polyline class="cls-2" points="302.66 2695.16 255.85 2677.95 221.61 2684.33 177.57 2650.22 126.14 2648.05"/><polyline class="cls-2" points="282.19 2667.73 262.58 2644.07 266.91 2628.02"/><line class="cls-2" x1="204.87" y1="2671.37" x2="162.13" y2="2675.96"/><polyline class="cls-2" points="312.77 2450.16 340.7 2429.06 331.18 2414.58"/><polyline class="cls-2" points="313.15 2434.01 289.18 2413.55 276.38 2408.41"/><line class="cls-2" x1="271.44" y1="2683.68" x2="245.32" y2="2694.31"/><line class="cls-2" x1="317.22" y1="2571.19" x2="346.2" y2="2544.54"/></g></g></svg>