<svg xmlns="http://www.w3.org/2000/svg" viewBox="0 0 623.07 2833"><defs><style>.cls-1{fill:#2b2b2b;}.cls-2,.cls-3{fill:none;stroke:#2b2b2b;stroke-miterlimit:10;}.cls-2{stroke-width:4px;}.cls-3{stroke-width:3px;}</style></defs><title>Asset 57</title><g id="Layer_2" data-name="Layer 2"><g id="레이어_1" data-name="레이어 1"><polygon class="cls-1" points="305 0 305 43.59 262.36 122.58 282.92 200.28 282.92 226.79 220.21 273.69 223.67 358.37 249 399 232 482.97 220.21 627.05 187.18 654.11 152 833 206.86 873.15 143 1005 116 1128.29 121 1253 186 1368 296 1436 282.92 1622.91 223.67 1704.51 223.67 1766.29 223.67 1886.26 206.86 2001.1 305 2123.63 322 2205 378.55 2232.06 378.55 2337.86 351.79 2400.94 430.47 2476.2 462.1 2550.25 462.1 2652.93 545.01 2652.93 608.03 2797.64 603.41 2831.51 0 2833 0 0 305 0"/><polyline class="cls-2" points="264 103 298 117 309 154 295 192 298 229 286.5 229 286.5 254.68 309 266.94 323 305 323 328.21"/><polyline class="cls-2" points="303.35 169.34 306.19 184.67 309.5 202.5 323 224.21"/><line class="cls-2" x1="323" y1="196.78" x2="307.74" y2="193.01"/><polyline class="cls-2" points="293.5 45.49 340.5 72.5 347.5 116.5 339.5 174.5 347.5 207.87"/><path class="cls-2" d="M269.5,145.5l6,29s-16,53-16,57,8,17.22,8,17.22"/><polyline class="cls-2" points="236.94 215.61 236.94 244.64 251.5 260.5 244.22 305.92 251.5 328.21"/><line class="cls-2" x1="271.16" y1="189.04" x2="275.5" y2="224.21"/><polyline class="cls-2" points="309 266.94 329.5 279.5 329.5 293.66"/><polyline class="cls-2" points="342.97 149.35 347.5 164.98 360.88 174.17 360.88 201.75"/><polyline class="cls-2" points="329.5 66.18 329.5 77.15 336 109.8 336 126.68"/><polyline class="cls-2" points="293.5 17.91 323 45.49 347.5 45.49 372.5 90.5 407.49 103"/><polyline class="cls-2" points="303.35 51.15 313.17 80.21 307.74 96.43"/><line class="cls-2" x1="357" y1="62.59" x2="387.06" y2="66.18"/><polyline class="cls-2" points="248.92 276.58 226.5 293.5 230.81 310.8"/><polyline class="cls-2" points="246.18 293.69 259.5 320.21 267.5 328.21"/><line class="cls-2" x1="313.17" y1="36.3" x2="332.75" y2="30.17"/><line class="cls-2" x1="275.5" y1="174.5" x2="251.5" y2="197.11"/><polyline class="cls-3" points="446.18 2644.87 467.11 2606.36 496.54 2600.05 518.45 2624.19 545.25 2627.55 541.48 2641.47 559.39 2646.33 575.33 2621.42 606.48 2611.67 622.68 2616.06"/><polyline class="cls-3" points="505.38 2609.8 517.01 2609.25 530.54 2608.62 550.12 2596.39"/><line class="cls-3" x1="530.98" y1="2591.2" x2="523.34" y2="2608.96"/><polyline class="cls-3" points="415.74 2598.28 450.01 2546.5 483.01 2546.35 520.85 2567.01 546.76 2563.64"/><path class="cls-3" d="M477.64,2646.26l22.2-1.78s31.73,29.39,34.52,30.15,14.64-6.42,14.64-6.42"/><polyline class="cls-3" points="515.86 2698.94 536.12 2704.43 551.96 2689.8 581.26 2707.21 599.21 2702.61"/><line class="cls-3" x1="508.56" y1="2652.48" x2="534.53" y2="2653.88"/><polyline class="cls-3" points="575.33 2621.42 590.82 2598.98 600.7 2601.66"/><polyline class="cls-3" points="504.44 2558.05 516.83 2555.52 527.64 2541.07 546.88 2546.29"/><polyline class="cls-3" points="441.99 2558.62 449.65 2560.7 474.56 2559 486.34 2562.2"/><polyline class="cls-3" points="396.5 2593.07 425.43 2562.57 433.47 2532.92 473.08 2511.17 493.28 2471.18"/><polyline class="cls-3" points="422.92 2587.43 446.43 2581.04 455.96 2590.68"/><line class="cls-3" x1="448.52" y1="2524.65" x2="460.89" y2="2488.94"/><polyline class="cls-3" points="562.34 2695.97 566.78 2726.31 580.26 2724.36"/><polyline class="cls-3" points="573.37 2702.52 596.25 2691.41 604.46 2683.24"/><line class="cls-3" x1="415.79" y1="2572.73" x2="417.94" y2="2547.87"/><line class="cls-3" x1="499.84" y1="2644.48" x2="507.74" y2="2677.81"/><polygon class="cls-1" points="192.81 650.66 209.54 726.6 161.9 851.91 179.46 863 224.1 727.48 193 605 192.81 650.66"/><polygon class="cls-1" points="233.59 1657.65 281.43 1726 302.83 1924.72 199.72 2116.56 225.35 2122.75 318.67 1933.21 297.32 1712.45 248.37 1596.45 233.59 1657.65"/></g></g></svg>