<svg xmlns="http://www.w3.org/2000/svg" viewBox="0 0 1927.13 1066"><defs><style>.cls-1{fill:#3d3d3d;}.cls-2{fill:none;stroke:#3d3d3d;stroke-miterlimit:10;stroke-width:2px;}</style></defs><title>Asset 60</title><g id="Layer_2" data-name="Layer 2"><g id="레이어_1" data-name="레이어 1"><polygon class="cls-1" points="1130.29 1 1208.47 10.06 1277.45 78.57 1348.71 78.57 1449.05 155.71 1575.11 184.79 1707.3 184.79 1769.25 250.99 1868.96 274.66 1927.13 274.66 1922 0 1130.29 1"/><polygon class="cls-1" points="8 250.99 93.98 311.43 155.38 281.21 177.41 201.13 177.41 127.6 240.35 82.66 351.58 127.6 449 123.51 522.5 123.51 619.28 56.86 767.88 56.86 852.15 1 11 0 8 250.99"/><polyline class="cls-2" points="130.58 238.36 151 257.92 173.22 255.15 185.88 234.83 204.89 226.53 200.26 218.59 212.62 211.4 227.56 223.5 251.51 222.5 262.68 216"/><polyline class="cls-2" points="178.33 246.94 186.85 244.61 196.76 241.9 212.64 245.14"/><line class="cls-2" x1="199.44" y1="252.83" x2="191.49" y2="243.35"/><polyline class="cls-2" points="114.78 274.85 146.68 299.74 170.66 292.25 195.35 270.47 214.63 266.64"/><path class="cls-2" d="M153.25,230.25l16.36-4s19.07-25.91,21-27,11.51.7,11.51.7"/><polyline class="cls-2" points="173.88 188.11 187.85 179.98 201.34 185.59 220.26 167.84 233.92 166.62"/><line class="cls-2" x1="174.86" y1="219.19" x2="193.53" y2="212.34"/><polyline class="cls-2" points="227.56 223.5 241.85 234.14 248.67 230.17"/><polyline class="cls-2" points="184.65 279.91 193.99 278.66 203.79 285.32 217.06 277.6"/><polyline class="cls-2" points="139.21 293.92 144.49 290.84 162.81 286.18 170.94 281.45"/><polyline class="cls-2" points="101.51 282.57 126.64 295.22 136.5 312.14 168.21 316.8 188.3 337.46"/><polyline class="cls-2" points="121.46 280.06 139.4 278.71 145.01 270.41"/><line class="cls-2" x1="148.55" y1="313.91" x2="162.36" y2="333.67"/><polyline class="cls-2" points="208.04 179.3 207.16 159.08 217.22 157.21"/><polyline class="cls-2" points="215.17 172.62 233.29 174.38 240.36 177.67"/><line class="cls-2" x1="118.27" y1="291.01" x2="123.19" y2="306.25"/><line class="cls-2" x1="169.61" y1="226.27" x2="170.84" y2="203.35"/><polyline class="cls-2" points="1.15 860.75 29.23 863.98 45.26 848.33 43.04 824.5 53.16 806.39 44.67 802.86 50.16 789.66 69.38 790.25 87.84 774.98 92.8 763.04"/><polyline class="cls-2" points="44.36 838.71 49.73 831.69 55.98 823.54 70.59 816.52"/><line class="cls-2" x1="64.73" y1="830.62" x2="52.66" y2="827.88"/><polyline class="cls-2" points="10.63 899.37 51.09 899.89 65.66 879.41 72.15 847.14 85.18 832.43"/><path class="cls-2" d="M14.29,840.59l10.62-13.08s-.49-32.15.37-34.21,9.58-6.4,9.58-6.4"/><polyline class="cls-2" points="5.23 794.55 11.43 779.63 25.57 775.93 29.89 750.35 40.03 741.12"/><line class="cls-2" x1="24.81" y1="818.71" x2="35.53" y2="801.95"/><polyline class="cls-2" points="69.38 790.25 87.19 790.08 90.22 782.8"/><polyline class="cls-2" points="69.33 861.13 76.02 854.49 87.85 853.86 93.74 839.68"/><polyline class="cls-2" points="41.63 899.77 43.97 894.13 55.74 879.34 59.35 870.65"/><polyline class="cls-2" points="4.75 913.55 32.41 908.42 50.49 915.93 78.56 900.45 107.06 904.75"/><polyline class="cls-2" points="19.11 899.48 32.57 887.55 32.03 877.54"/><line class="cls-2" x1="61.16" y1="910.05" x2="84.11" y2="917.42"/><polyline class="cls-2" points="27.1 766.87 14.16 751.3 21.04 743.73"/><polyline class="cls-2" points="28.73 757.24 44.23 747.68 51.84 746.02"/><line class="cls-2" x1="23.19" y1="910.13" x2="36.33" y2="919.28"/><line class="cls-2" x1="24.91" y1="827.51" x2="12.02" y2="808.53"/><polygon class="cls-1" points="1301.75 59.63 1334.2 81.72 1348.35 128.58 1399.13 193.08 1416.56 200.97 1415.6 194.15 1402.44 185 1359.65 119.75 1349.56 79.57 1308.68 34.98 1301.75 59.63"/><polygon class="cls-1" points="387.77 1000.75 350.98 987.02 326.07 944.89 261.39 894.36 242.58 890.85 245.13 897.25 260.09 902.99 317.2 956.16 336.58 992.78 386.92 1026.34 387.77 1000.75"/><polygon class="cls-1" points="0 876.66 93.98 876.66 126 894.5 212.57 980 373.06 1001.81 536.22 1017.13 629.79 1066 0 1065 0 876.66"/><polygon class="cls-1" points="1129.06 1066 1277.45 980 1416.68 980 1533.57 1023 1679.7 1007.94 1750.4 932.32 1927.13 894.5 1922 1066 1129.06 1066"/></g></g></svg>