<svg xmlns="http://www.w3.org/2000/svg" viewBox="0 0 1926 1067"><defs><style>.cls-1{fill:none;stroke:#2b2b2b;stroke-miterlimit:10;stroke-width:3px;}.cls-2{fill:#2b2b2b;}</style></defs><title>Asset 61</title><g id="Layer_2" data-name="Layer 2"><g id="레이어_1" data-name="레이어 1"><polyline class="cls-1" points="615.92 119.06 625.25 150.01 649.91 160.02 675.23 147.28 699.89 150.01 699.89 139.54 717 139.54 725.17 160.02 750.53 172.76 766 172.76"/><polyline class="cls-1" points="660.13 154.88 670.35 157.46 682.23 160.47 696.7 172.76"/><line class="cls-1" x1="678.41" y1="172.76" x2="675.9" y2="158.87"/><polyline class="cls-1" points="577.6 145.91 595.6 188.69 624.92 195.06 663.57 187.78 685.81 195.06"/><path class="cls-1" d="M644.24,124.07l19.33,5.46s35.32-14.56,38-14.56S713,122.25,713,122.25"/><polyline class="cls-1" points="690.96 94.43 710.31 94.43 720.88 107.69 751.14 101.06 766 107.69"/><line class="cls-1" x1="673.26" y1="125.58" x2="696.7" y2="129.53"/><polyline class="cls-1" points="725.17 160.02 733.54 178.68 742.97 178.68"/><polyline class="cls-1" points="646.81 190.93 657.22 195.06 663.35 207.23 681.72 207.23"/><polyline class="cls-1" points="591.38 178.68 598.7 178.68 620.45 184.59 631.7 184.59"/><polyline class="cls-1" points="559.22 145.91 577.6 172.76 577.6 195.06 607.59 217.81 615.92 249.65"/><polyline class="cls-1" points="581.37 154.88 600.74 163.82 611.54 158.87"/><line class="cls-1" x1="589" y1="203.7" x2="591.38" y2="231.06"/><polyline class="cls-1" points="731.59 105.34 742.87 84.94 754.39 88.86"/><polyline class="cls-1" points="742.99 102.85 760.67 114.97 766 122.25"/><line class="cls-1" x1="571.48" y1="163.82" x2="567.39" y2="181.63"/><line class="cls-1" x1="663.57" y1="129.53" x2="678.64" y2="107.69"/><polygon class="cls-2" points="7 380.87 64.51 456.51 92.98 456.51 125 418.69 125 380.87 187 360.45 228.2 376.79 280.89 344.11 318 344.11 349.1 368.62 366.81 344.11 384.19 209.3 428.77 170.49 478 180.7 478 250.99 501.42 274.66 521.5 262.4 580.96 170.49 593.03 137.33 659.53 117.38 766.88 90.83 792 115 835 111 898.14 70.4 965.5 70.4 1058.96 96.96 1061 137.33 1175.98 195 1237.48 195 1323.02 217.47 1423 291 1598.47 311.43 1710.72 403.34 1819 428 1926 423.77 1921 0 10 0 7 380.87"/><polygon class="cls-2" points="0 775.51 145.17 815.86 197.25 872.85 286.11 933.32 612.34 981 730.46 1067 0 1066 0 775.51"/><polygon class="cls-2" points="1922 840.39 1762.12 872.85 1558 992 1429 962 1257 953 1208 970 1074.72 1067 1922 1067 1922 840.39"/></g></g></svg>