<svg xmlns="http://www.w3.org/2000/svg" viewBox="0 0 236 319"><defs><style>.cls-1{fill:#3e5560;}.cls-2{fill:#354e59;}</style></defs><title>Asset 74</title><g id="Layer_2" data-name="Layer 2"><g id="레이어_1" data-name="레이어 1"><polygon class="cls-1" points="3 64.94 74 17 123 0 147 8 155 27 168 41 182 201 193 231 214 250 236 319 0 319 3 64.94"/><polygon class="cls-2" points="147 8 93.92 57 118 117.02 107.5 151.5 120.46 176.77 137.5 173.5 165.5 208.5 161.5 228.5 146.5 250.5 100.5 275.5 83.19 319 206.51 319 214 250 189.41 221.21 182 201 168 41 152.79 21.76 147 8"/><polygon points="235.51 319 213 319 218.72 266.33 235.51 319"/></g></g></svg>