<svg xmlns="http://www.w3.org/2000/svg" viewBox="0 0 304.14 298.75"><defs><style>.cls-1{opacity:0.44;}.cls-2{fill:#d6e4e5;}</style></defs><title>Asset 43</title><g id="Layer_2" data-name="Layer 2"><g id="레이어_1" data-name="레이어 1"><g class="cls-1"><path class="cls-2" d="M23.07,36.47c22.72-26.53,52-38.83,87.3-36.1,26.32,2,48.31,13.33,66.11,32.43,1.49,1.59,2.55,1.62,4.38.74,34.65-16.58,74.67-9.23,100.77,18.6a82.67,82.67,0,0,1,13.29,94.53,85.42,85.42,0,0,1-73.64,46c-2.61.06-3.86,1.05-5,3.3-7.63,15.29-20.15,24.48-37.14,27.31a50.18,50.18,0,0,1-51.66-24.37c-1.25-2.16-2.4-2.67-4.87-2.11a98.31,98.31,0,0,1-41.79.18,99.77,99.77,0,0,1-54.38-30.65A97.55,97.55,0,0,1,0,100.4C.3,75.84,7.59,54.53,23.07,36.47Z"/><path class="cls-2" d="M215.5,224.07c13.81,0,25.18,11.17,25.28,24.77s-11.44,25-25.34,25A25.34,25.34,0,0,1,190.11,249C190,235.56,201.67,224,215.5,224.07Z"/><path class="cls-2" d="M272.09,261.45a18.93,18.93,0,0,1,19.41,18.34c.38,9.9-8.18,18.65-18.55,18.95a18.85,18.85,0,0,1-19.36-18.36C253.32,270.27,261.64,261.74,272.09,261.45Z"/></g><path d="M185.64,112.61h-65.5c0,.14,0,.25,0,.36,0,2.66-.06,5.32,0,8a31.06,31.06,0,0,0,5.74,17,32.84,32.84,0,0,0,23.36,13.77A32.72,32.72,0,0,0,168,148.29a32.45,32.45,0,0,0,16.73-21.09,37.07,37.07,0,0,0,.89-9.62c0-1.48,0-3,0-4.45Z"/><path d="M154.7,69.71v3.43q0,3.56,0,7.11a.6.6,0,0,0,.41.65,5.19,5.19,0,0,1,3.22,5c0,3.52,0,7,0,10.55a5.25,5.25,0,0,1-3.3,5c-.13.06-.31.22-.31.34,0,2.4,0,4.8,0,7.23h31v-2.16c0-1.94,0-3.89,0-5.83a31,31,0,0,0-4.45-15.33A32.79,32.79,0,0,0,158,70.1C156.94,69.93,155.85,69.84,154.7,69.71Z"/><path d="M151,109c0-.16,0-.3,0-.44,0-2.19,0-4.38,0-6.57a.58.58,0,0,0-.41-.61,5.22,5.22,0,0,1-3.23-5c0-3.51,0-7,0-10.54a5.13,5.13,0,0,1,3.24-4.9c.25-.12.39-.23.39-.54q0-5.14,0-10.29a1.77,1.77,0,0,0,0-.3,31.33,31.33,0,0,0-6.34,1,32.56,32.56,0,0,0-15.19,8.63,31.15,31.15,0,0,0-8.85,16.85,42.57,42.57,0,0,0-.51,6c-.09,2.25,0,4.51,0,6.79Z"/><path d="M154.71,91.13c0-1.77,0-3.53,0-5.29a1.71,1.71,0,0,0-1.1-1.71,1.8,1.8,0,0,0-2,.34,1.83,1.83,0,0,0-.57,1.45c0,3.5,0,7,0,10.49a1.83,1.83,0,1,0,3.66,0Z"/></g></g></svg>