<svg xmlns="http://www.w3.org/2000/svg" viewBox="0 0 1913 326"><defs><style>.cls-1{fill:#407f89;}.cls-2{fill:#1c585e;}.cls-3{fill:#1f4a54;}.cls-4{fill:#072935;}.cls-5{fill:#021b21;}.cls-6{fill:#011014;}.cls-7{fill:#122a35;}</style></defs><title>Asset 73</title><g id="Layer_2" data-name="Layer 2"><g id="레이어_1" data-name="레이어 1"><polygon class="cls-1" points="0 309 63.53 309 83.19 300.37 118 273.77 167.5 264.13 198.5 247.23 231.5 251.46 297.5 252.16 345.5 231.74 361.5 220.48 760.5 208.51 819.28 196.72 800.5 189.5 0 189.5 0 309"/><polygon class="cls-2" points="1083.7 157.42 1488.13 157.42 1469.74 142.75 1467.7 121.88 1767.96 120.27 1788.38 90.54 1913 92.7 1911 314.42 1677 326 1629.06 303.57 1525 256.35 1365.57 232.49 1279.79 223.28 1161.32 223.28 1083.7 157.42"/><polygon class="cls-3" points="1491.56 1 1431.49 35.51 1343.78 61.26 1297 95.25 1297 138 1910 138 1910 1 1491.56 1"/><polygon class="cls-4" points="1080.7 156.7 1485.13 156.7 1466.74 168.07 1464.7 184.25 1764.96 185.5 1785.38 208.54 1910 206.87 1908 34.98 1674 26 1626.06 43.39 1522 80 1362.57 98.5 1276.79 105.63 1158.32 105.63 1080.7 156.7"/><polygon class="cls-5" points="1488.13 157.42 1578 109 1627 103 1649 99 1654 78.89 1705 56 1771.12 74.3 1808.87 64.01 1832 50 1910 51.83 1910 184.6 1465.11 184.6 1465.11 168.07 1488.13 157.42"/><polygon class="cls-6" points="1908.7 94.98 1794 105 1785 121 1750 135 1720.11 185.31 1764.96 185.5 1785.38 208.54 1910 206.87 1908.7 94.98"/><polygon class="cls-3" points="214.68 0 245.5 33.5 290.5 58.5 314.5 91.5 314.5 133 0 133 0 0 214.68 0"/><polygon class="cls-7" points="0 20.77 63.53 20.77 83.19 33.02 118 70.81 167.5 84.5 198.5 108.5 231.5 102.5 297.5 101.5 345.5 130.5 361.5 146.5 760.5 163.5 819.28 180.25 800.5 190.5 0 190.5 0 20.77"/><polygon class="cls-6" points="4 71.89 52.28 66.5 60.45 87.66 84.19 92.56 167.14 127.52 202.39 127.52 237 152.43 274.04 190.5 0 189.5 1 72.6 4 71.89"/></g></g></svg>