<svg xmlns="http://www.w3.org/2000/svg" viewBox="0 0 1698.95 244.5"><defs><style>.cls-1,.cls-2{fill:#051b23;}.cls-2{opacity:0.51;}</style></defs><title>Asset 76</title><g id="Layer_2" data-name="Layer 2"><g id="레이어_1" data-name="레이어 1"><path class="cls-1" d="M1699,0V127H742V41.68A26.69,26.69,0,0,0,715.3,15h-7.9A25.37,25.37,0,0,0,682,40.36V127H659.18V41.68A26.69,26.69,0,0,0,632.49,15h-7.9a25.37,25.37,0,0,0-25.37,25.37V127H576.38V41.68A26.69,26.69,0,0,0,549.69,15h-7.9a25.37,25.37,0,0,0-25.37,25.37V127H493.58V41.68A26.69,26.69,0,0,0,466.88,15H459a25.37,25.37,0,0,0-25.38,25.37V127H410.77V41.68A26.69,26.69,0,0,0,384.08,15h-7.9a25.37,25.37,0,0,0-25.37,25.37V127H328V41.68A26.69,26.69,0,0,0,301.28,15h-7.9A25.37,25.37,0,0,0,268,40.36V127H245.16V41.68A26.69,26.69,0,0,0,218.47,15h-7.89A25.37,25.37,0,0,0,185.2,40.36V127H162.36V41.68A26.69,26.69,0,0,0,135.67,15h-7.9A25.37,25.37,0,0,0,102.4,40.36V127H79.56V41.68A26.69,26.69,0,0,0,52.87,15H45A25.37,25.37,0,0,0,19.6,40.36V127H0L.32,0Z"/><path class="cls-2" d="M1699,244.5V121H742v83c0,14.33-12,26-26.69,26h-7.9c-14,0-25.37-11.05-25.37-24.67V121H659.18v83c0,14.33-11.95,26-26.69,26h-7.9c-14,0-25.37-11.05-25.37-24.67V121H576.38v83c0,14.33-12,26-26.69,26h-7.9c-14,0-25.37-11.05-25.37-24.67V121H493.58v83c0,14.33-11.95,26-26.7,26H459c-14,0-25.38-11.05-25.38-24.67V121H410.77v83c0,14.33-11.95,26-26.69,26h-7.9c-14,0-25.37-11.05-25.37-24.67V121H328v83c0,14.33-12,26-26.69,26h-7.9c-14,0-25.37-11.05-25.37-24.67V121H245.16v83c0,14.33-11.95,26-26.69,26h-7.89c-14,0-25.38-11.05-25.38-24.67V121H162.36v83c0,14.33-12,26-26.69,26h-7.9c-14,0-25.37-11.05-25.37-24.67V121H79.56v83c0,14.33-12,26-26.69,26H45c-14,0-25.37-11.05-25.37-24.67V121H0L.32,244.5Z"/></g></g></svg>