<svg xmlns="http://www.w3.org/2000/svg" viewBox="0 0 1911 283.66"><defs><style>.cls-1,.cls-4{fill:#1f4a54;}.cls-1{opacity:0.15;}.cls-2,.cls-6{fill:#072935;}.cls-2{opacity:0.22;}.cls-3,.cls-5{fill:#3f6570;}.cls-3{opacity:0.57;}</style></defs><title>Asset 92</title><g id="Layer_2" data-name="Layer 2"><g id="레이어_1" data-name="레이어 1"><polygon class="cls-1" points="2 265 280.51 265 325 251.51 364.77 212.07 406.13 198.06 449.02 172.99 496.51 165.4 526 130.09 2 131.13 2 265"/><polygon class="cls-2" points="375 157.35 192.12 157.35 200.44 145.55 201.36 128.76 65.59 127.46 56.35 103.54 0 105.28 0.9 283.66 109 283.64 128.39 274.93 175.45 236.94 247.54 217.75 286.33 210.34 339.9 210.34 375 157.35"/><polygon class="cls-3" points="1545.88 77.06 1723.94 77.06 1715.85 70.8 1714.95 61.91 1847.14 61.22 1856.13 48.54 1911 49.46 1910.12 144 1804.87 143.99 1785.99 139.37 1740.17 119.24 1669.98 109.07 1632.21 105.14 1580.05 105.14 1545.88 77.06"/><polygon class="cls-4" points="0 0 278.51 0 323 13 362.77 51 404.13 64.5 447.02 88.66 494.51 95.98 524 130 0 129 0 0"/><polygon class="cls-5" points="1545.88 76.91 1723.94 76.91 1715.85 83.63 1714.95 93.19 1847.14 93.93 1856.13 107.54 1911 106.55 1910.12 5 1804.87 5.01 1785.99 9.97 1740.17 31.6 1669.98 42.53 1632.21 46.74 1580.05 46.74 1545.88 76.91"/><polygon class="cls-6" points="375 157.7 192.12 157.7 200.44 169.07 201.36 185.25 65.59 186.5 56.35 209.54 0 207.87 0.9 35.98 109 36 128.39 44.39 175.45 81 247.54 99.5 286.33 106.63 339.9 106.63 375 157.7"/></g></g></svg>