<svg xmlns="http://www.w3.org/2000/svg" viewBox="0 0 130.52 247"><defs><style>.cls-1{opacity:0.53;}.cls-2{fill:#141414;}.cls-3{fill:none;}</style></defs><title>Asset 96</title><g id="Layer_2" data-name="Layer 2"><g id="레이어_1" data-name="레이어 1"><g class="cls-1"><polygon class="cls-2" points="93.46 192.78 93.46 146.62 67.29 146.62 82.61 177.93 67.29 177.97 84.33 193.77 96.51 198.46 93.46 192.78"/><ellipse class="cls-2" cx="90.41" cy="183.66" rx="8.62" ry="9.99"/><polyline class="cls-2" points="87.39 146.62 87.41 139.17 90.28 139.72 92.19 137.99 85.89 137.99 85.89 146.62"/><polyline class="cls-2" points="81.09 146.62 81.12 139.17 83.99 139.72 85.89 137.99 79.6 137.99 79.6 146.62"/><path d="M59.93,168.7H53.79v5.07c0,9.65,1.31,42.72,2.05,60.94l0,.65c0,.35,0,.69,0,1,0,.12,0,.24,0,.36,0,.85.06,1.67.1,2.43,0,.4,0,.78,0,1.16.18,4.13.28,6.66.28,6.66h3.54s0-3.68,0-9.44v0c0-.63,0-1.29,0-2v-.71c0-.5,0-1,0-1.53v-1.17c-.1-19.81-.2-53.39.07-62.29C59.91,169.46,59.91,169.08,59.93,168.7Z"/><path d="M60,148.75c0-.51,0-1,0-1.45,0-.62,0-1.18,0-1.67,0-.3,0-.58,0-.83,0-.94,0-1.46,0-1.46l-1.78,1.35-1.08.82-2.13,1.61-1.12.85V168.7h6.14C60.13,161.24,60.08,153.66,60,148.75Z"/><path d="M112.33,149.82l-.58.92-.41.64h0c-2.93,4.6-7.93,12.42-9.83,15.2-2.76,4-8.68,14.39-13.61,22.26-4.8,7.67-27,46.73-28.06,48.67l0,.08-.21,0-1.17-.21-.22,0-.64-.12-.21,0-1.29-.22-.13-.18-.27-.36-.75-1.07-.11-.17A78.39,78.39,0,0,1,48.07,223c-3.24-7.3-32.15-61.57-39.89-76.08h0a.36.36,0,0,0,0-.09l-.58-1.08-1.28-2.39,9.67.4,10.91.46L57,145.51l2.91.12,24.3,1h.26l1.92.08h0l24.76,1,2.36.1ZM59.93,168.7c0,.38,0,.76,0,1.15-.27,8.9-.17,42.48-.07,62.29,4.12-7.16,39.23-67.95,47.57-80.7a101.78,101.78,0,0,1-13.07-.63c-3.21-.44-7-.78-10.66-1-8.49-.59-16.57-.75-16.57-.75L60,148.75C60.08,153.66,60.13,161.24,59.93,168.7Z"/><path d="M54.54,235.3l.37,0-.11-.16Z"/><path d="M109.54,149.69l-.49-.55a4.38,4.38,0,0,0-.58.71c-.18.25-.39.55-.63.91l-.45.68c-8.34,12.75-43.45,73.54-47.57,80.7l-.29.49-3.69,2.08,0,.65,3,.16-1.27,1.63,0,0-1.53,2c0,.4,0,.78,0,1.16l2.35-3,0,0,1.38-1.76v-.71l-2.5-.13,2.49-1.4.26-.15.05-.09c14.72-25.51,41.76-72,48.14-81.64.16-.25.3-.47.44-.66a9.58,9.58,0,0,1,.68-.92A.8.8,0,0,1,109.54,149.69Z"/><path d="M76.13,125.85c7.36-.3,10.42,5.07,12.56,6.56s.92,2.09-.61,3.88,2.76,1.79,3.37,3.28-5.82.3-6.74,6a21.7,21.7,0,0,1-.6,2.82c-23-1.28-69.46-2.4-69.46-2.4L.46,145.57s.41-3.3,1-7.3l.09-.72c.73-5.06,1.65-11,2.29-12.71H50.93c2.47,0,7.78-.28,14.32-.68C66.08,124.57,69.73,126.11,76.13,125.85Z"/><path d="M93.25,149.17c-2.21-.23-5.47-.46-9.43-.68a25.43,25.43,0,0,0,.6-2.81c.92-5.67,7.35-4.48,6.74-6s-4.9-1.49-3.37-3.28,2.76-2.38.61-3.87S83.19,125.7,75.84,126c-6.41.26-10-1.29-10.89-1.69,16.94-1,42.16-2.76,48-2.2,0,0,7.31,7,11.75,20.88.11.32.21.64.31,1h0c.5,1.65,1,3.38,1.35,5.21C126.35,149.17,108.25,150.7,93.25,149.17Z"/><path d="M84.37,146.63h-.12c-9.17-.53-18-1.14-21.49-1.57-.64-.09-1.6-.16-2.83-.25l-1.81-.11c-7-.39-19.64-.79-31.27-1.11l-10.91-.28C8.15,143.11,2.16,143,.79,143H.5L0,146.68l8.18.25,18.32.56,27.29,1,6.22.23,7.08.27s8.08.16,16.57.75c.11-.33.23-.75.35-1.27l0-.15c.1-.48.21-1,.32-1.69Z"/><path d="M126.51,150.71l-.36-1.53-.4-1.71s-8.13.3-14.55.32h-.84c-3.32,0-13.6-.46-23.92-1h0l-1.92-.1h-.14v0c-.11.65-.22,1.21-.32,1.69l0,.15c-.12.52-.24.94-.35,1.27,3.68.26,7.45.6,10.66,1a101.78,101.78,0,0,0,13.07.63h.88l3.07,0C119.4,151.22,126.51,150.71,126.51,150.71Z"/><path d="M125.29,144.88l-.3-1c-1.86-.15-39-3-63.18-3-23.46,0-56.73-2.06-60.29-2.28l-.09.72c3.28.21,36.78,2.29,60.38,2.29C86.29,141.62,124.27,144.8,125.29,144.88Z"/><line class="cls-3" x1="15.94" y1="145.77" x2="15.94" y2="140.04"/><path d="M20.39,134.29c-1.88-5-6.61-3.6-8.44-2.63a3.9,3.9,0,0,0-1.86,3.87,7.46,7.46,0,0,0,.69,2.62,5.75,5.75,0,0,0,4.33,3.24,3.12,3.12,0,0,0,1.88,0,5.83,5.83,0,0,0,3.44-2.78A5.31,5.31,0,0,0,20.39,134.29Z"/><line class="cls-3" x1="26.85" y1="145.77" x2="26.85" y2="141.72"/><path d="M30.32,139.16a4.64,4.64,0,0,0-.33-1.51c-1.33-3.54-4.68-2.55-6-1.86a2.2,2.2,0,0,0-.59.45c-.83.87-1,2.43-.24,4.14a4.1,4.1,0,0,0,3.07,2.29,2.17,2.17,0,0,0,1.33,0A3.64,3.64,0,0,0,30.32,139.16Z"/><path d="M20.39,134.29c-1.88-5-6.61-3.6-8.44-2.63a3.9,3.9,0,0,0-1.86,3.87c1.45-.28,4.76-.61,6.33,1.58,2.06,2.86,4,1.5,4,1.5A5.31,5.31,0,0,0,20.39,134.29Z"/><path d="M30.32,139.16a4.64,4.64,0,0,0-.33-1.51c-1.33-3.54-4.68-2.55-6-1.86a2.2,2.2,0,0,0-.59.45,3.76,3.76,0,0,1,2.08.59C27.56,138,29.28,139.78,30.32,139.16Z"/></g><polygon class="cls-2" points="96.43 56.39 96.43 104.4 69.43 104.4 85.23 71.83 69.43 71.8 87.01 55.36 99.57 50.48 96.43 56.39"/><ellipse class="cls-2" cx="93.28" cy="65.88" rx="8.89" ry="10.39"/><polyline class="cls-2" points="90.16 104.4 90.19 112.14 93.15 111.57 95.11 113.38 88.62 113.38 88.62 104.4"/><polyline class="cls-2" points="83.67 104.4 83.69 112.14 86.66 111.57 88.62 113.38 82.13 113.38 82.13 104.4"/><path d="M61.83,81.43H55.5V76.16c0-10,1.34-44.43,2.11-63.38l0-.67c0-.36,0-.72,0-1.07,0-.13,0-.25,0-.38,0-.89.07-1.73.1-2.53,0-.42,0-.81.05-1.2L58.14,0h3.65s0,3.82,0,9.82v0c0,.66,0,1.34,0,2.05v.73c0,.52,0,1,0,1.6,0,.4,0,.81,0,1.22-.09,20.59-.2,55.52.08,64.78C61.81,80.64,61.82,81,61.83,81.43Z"/><path d="M61.92,102.18c0,.53,0,1,0,1.51,0,.64,0,1.23,0,1.74,0,.31,0,.6,0,.85,0,1,0,1.52,0,1.52L60,106.4l-1.11-.85-2.2-1.68L55.5,103V81.43h6.33C62,89.19,62,97.08,61.92,102.18Z"/><path d="M115.9,101.07l-.61-1-.42-.67h0c-3-4.79-8.18-12.93-10.14-15.81-2.85-4.19-9-15-14-23.16-5-8-27.82-48.59-28.95-50.61l-.05-.08-.21,0L60.27,10l-.22,0-.66.12-.22,0-1.33.24-.14.18-.27.38q-.3.41-.78,1.11l-.11.17A81.19,81.19,0,0,0,49.6,25c-3.34,7.59-33.17,64-41.16,79.12h0a.3.3,0,0,1,0,.08c-.22.41-.41.79-.6,1.13-.84,1.6-1.32,2.49-1.32,2.49l10-.42,11.25-.48,31.15-1.33,3-.12,25.06-1.07h.27l2-.08h0l25.54-1.09,2.43-.1ZM61.83,81.43c0-.4,0-.79,0-1.19-.28-9.26-.17-44.19-.08-64.78C66,22.9,102.19,86.12,110.8,99.39a102.58,102.58,0,0,0-13.49.65c-3.31.45-7.19.81-11,1.07-8.75.62-17.09.79-17.09.79l-7.3.28C62,97.08,62,89.19,61.83,81.43Z"/><path d="M56.27,12.17l.39,0-.12.17Z"/><path d="M113,101.2l-.49.58a4.71,4.71,0,0,1-.61-.74l-.65-1-.46-.7C102.19,86.12,66,22.9,61.71,15.46c-.12-.22-.22-.4-.29-.51l-3.81-2.17,0-.67,3.08-.17-1.3-1.7,0,0L57.8,8.13c0-.42,0-.81.05-1.2L60.27,10l0,0,1.42,1.83v.73l-2.58.14,2.57,1.46.27.16,0,.08C77.22,41,105.12,89.37,111.7,99.39c.17.26.32.49.46.69a11.35,11.35,0,0,0,.7,1A1.23,1.23,0,0,0,113,101.2Z"/><path d="M78.55,126c7.59.31,10.75-5.28,13-6.83s.95-2.17-.63-4,2.84-1.86,3.47-3.41-6-.31-6.95-6.2a24.21,24.21,0,0,0-.62-2.93c-23.7,1.33-71.66,2.49-71.66,2.49l-14.65.4s.42,3.43,1,7.59c0,.25.07.5.1.75.75,5.26,1.7,11.39,2.36,13.22H52.55c2.55,0,8,.29,14.77.7C68.18,127.33,71.94,125.73,78.55,126Z"/><path d="M96.21,101.75c-2.28.23-5.64.47-9.73.7a24.4,24.4,0,0,1,.62,2.92c1,5.9,7.58,4.66,7,6.21S89,113.13,90.57,115s2.85,2.48.64,4-5.38,7.13-13,6.82c-6.61-.27-10.37,1.34-11.23,1.76,17.47,1.05,43.49,2.86,49.51,2.29,0,0,7.53-7.24,12.12-21.72.11-.33.21-.67.31-1h0c.51-1.71,1-3.51,1.39-5.41C130.36,101.75,111.69,100.15,96.21,101.75Z"/><path d="M87.05,104.39h-.12c-9.46.56-18.55,1.19-22.17,1.64-.66.09-1.66.17-2.92.25L60,106.4c-7.25.41-20.26.83-32.26,1.16l-11.25.29c-8,.2-14.22.33-15.63.36H.51L0,104.33l8.44-.26,18.9-.58,28.16-1.07,6.42-.24,7.3-.28s8.34-.17,17.09-.79c.12.35.24.79.37,1.33l0,.16c.11.5.22,1.08.33,1.76C87,104.37,87.05,104.38,87.05,104.39Z"/><path d="M130.52,100.15l-.36,1.58-.41,1.78s-8.4-.31-15-.33h-.87c-3.42,0-14,.48-24.67,1.09h0l-2,.11h-.15s0,0,0,0c-.11-.68-.22-1.26-.33-1.76l0-.16c-.13-.54-.25-1-.37-1.33,3.81-.26,7.69-.62,11-1.07a102.58,102.58,0,0,1,13.49-.65h.9l3.17,0C123.19,99.61,130.52,100.15,130.52,100.15Z"/><path d="M129.27,106.2c-.1.35-.21.69-.32,1-1.91.15-40.19,3.13-65.17,3.13-24.21,0-58.54,2.14-62.21,2.37,0-.25-.07-.5-.1-.75,3.39-.21,38-2.38,62.31-2.38C89,109.59,128.22,106.29,129.27,106.2Z"/><line class="cls-3" x1="16.45" y1="105.28" x2="16.45" y2="111.24"/><path d="M21,117.22c-1.94,5.2-6.82,3.74-8.72,2.73a4.07,4.07,0,0,1-1.91-4,7.58,7.58,0,0,1,.71-2.72,6,6,0,0,1,4.47-3.38,3.23,3.23,0,0,1,1.94,0,6.12,6.12,0,0,1,3.55,2.89A5.57,5.57,0,0,1,21,117.22Z"/><line class="cls-3" x1="27.7" y1="105.28" x2="27.7" y2="109.5"/><path d="M31.29,112.15a5.43,5.43,0,0,1-.34,1.58c-1.38,3.68-4.83,2.65-6.17,1.93a2.32,2.32,0,0,1-.61-.47c-.85-.91-1.05-2.52-.24-4.3a4.2,4.2,0,0,1,3.16-2.39,2.31,2.31,0,0,1,1.37,0A3.8,3.8,0,0,1,31.29,112.15Z"/><path d="M21,117.22c-1.94,5.2-6.82,3.74-8.72,2.73a4.07,4.07,0,0,1-1.91-4c1.49.29,4.91.63,6.53-1.65,2.12-3,4.14-1.56,4.14-1.56A5.57,5.57,0,0,1,21,117.22Z"/><path d="M31.29,112.15a5.43,5.43,0,0,1-.34,1.58c-1.38,3.68-4.83,2.65-6.17,1.93a2.32,2.32,0,0,1-.61-.47,3.86,3.86,0,0,0,2.15-.61C28.44,113.4,30.21,111.51,31.29,112.15Z"/></g></g></svg>