<svg xmlns="http://www.w3.org/2000/svg" viewBox="0 0 1713 403.43"><defs><style>.cls-1,.cls-2,.cls-3{fill:#a7e1ea;}.cls-1{opacity:0.29;}.cls-2{opacity:0.42;}</style></defs><title>Asset 11</title><g id="Layer_2" data-name="Layer 2"><g id="레이어_1" data-name="레이어 1"><circle class="cls-1" cx="1.96" cy="107.98" r="1.96"/><circle class="cls-2" cx="654.78" cy="94.24" r="1.96"/><circle class="cls-2" cx="394.12" cy="275.6" r="1.96"/><circle class="cls-2" cx="190.88" cy="147.1" r="1.47"/><circle class="cls-3" cx="142.99" cy="109.81" r="0.69"/><circle class="cls-3" cx="261.15" cy="84.69" r="0.69"/><circle class="cls-1" cx="642.32" cy="145.53" r="1.47"/><circle class="cls-2" cx="348.69" cy="201.67" r="1.47"/><circle class="cls-2" cx="351.83" cy="228.36" r="1.47"/><circle class="cls-3" cx="460.96" cy="215.02" r="1.47"/><circle class="cls-3" cx="392.26" cy="156.13" r="1.47"/><circle class="cls-1" cx="259.58" cy="295.49" r="1.47"/><circle class="cls-3" cx="270.96" cy="128.26" r="1.47"/><circle class="cls-1" cx="408.22" cy="214.44" r="1.96"/><circle class="cls-2" cx="1061.04" cy="200.7" r="1.96"/><circle class="cls-2" cx="800.38" cy="382.06" r="1.96"/><circle class="cls-2" cx="597.13" cy="253.57" r="1.47"/><circle class="cls-3" cx="549.24" cy="216.28" r="0.69"/><circle class="cls-3" cx="667.4" cy="191.15" r="0.69"/><circle class="cls-1" cx="1048.57" cy="252" r="1.47"/><circle class="cls-2" cx="754.94" cy="308.13" r="1.47"/><circle class="cls-2" cx="758.08" cy="334.83" r="1.47"/><circle class="cls-3" cx="867.21" cy="321.48" r="1.47"/><circle class="cls-3" cx="798.52" cy="262.6" r="1.47"/><circle class="cls-1" cx="665.83" cy="401.96" r="1.47"/><circle class="cls-3" cx="677.22" cy="234.73" r="1.47"/><circle class="cls-1" cx="439.96" cy="23.98" r="1.96"/><circle class="cls-2" cx="1092.78" cy="10.24" r="1.96"/><circle class="cls-2" cx="832.12" cy="191.6" r="1.96"/><circle class="cls-2" cx="628.88" cy="63.1" r="1.47"/><circle class="cls-3" cx="580.99" cy="25.81" r="0.69"/><circle class="cls-3" cx="699.15" cy="0.69" r="0.69"/><circle class="cls-1" cx="1080.32" cy="61.53" r="1.47"/><circle class="cls-2" cx="786.69" cy="117.67" r="1.47"/><circle class="cls-2" cx="789.83" cy="144.36" r="1.47"/><circle class="cls-3" cx="898.96" cy="131.02" r="1.47"/><circle class="cls-3" cx="830.26" cy="72.13" r="1.47"/><circle class="cls-1" cx="697.58" cy="211.49" r="1.47"/><circle class="cls-3" cx="708.96" cy="44.26" r="1.47"/><circle class="cls-1" cx="1058.22" cy="97.44" r="1.96"/><circle class="cls-2" cx="1711.04" cy="83.7" r="1.96"/><circle class="cls-2" cx="1450.38" cy="265.06" r="1.96"/><circle class="cls-2" cx="1247.13" cy="136.57" r="1.47"/><circle class="cls-3" cx="1199.24" cy="99.28" r="0.69"/><circle class="cls-3" cx="1317.4" cy="74.15" r="0.69"/><circle class="cls-1" cx="1698.57" cy="135" r="1.47"/><circle class="cls-2" cx="1404.94" cy="191.13" r="1.47"/><circle class="cls-2" cx="1408.08" cy="217.83" r="1.47"/><circle class="cls-3" cx="1517.21" cy="204.48" r="1.47"/><circle class="cls-3" cx="1448.52" cy="145.6" r="1.47"/><circle class="cls-1" cx="1315.83" cy="284.96" r="1.47"/><circle class="cls-3" cx="1327.22" cy="117.73" r="1.47"/></g></g></svg>