<svg xmlns="http://www.w3.org/2000/svg" viewBox="0 0 81.91 138.38"><defs><style>.cls-1{fill:#06232f;}.cls-2{fill:#fff;}.cls-3{fill:#30454c;}.cls-4{fill:#092937;}.cls-5{fill:#e8e8e8;}.cls-6{fill:#f9b14f;}.cls-7{fill:#ce9959;}.cls-8{opacity:0.26;}</style></defs><title>Asset 18</title><g id="Layer_2" data-name="Layer 2"><g id="레이어_1" data-name="레이어 1"><path class="cls-1" d="M38.8,52.09h-4V48.72c0-6.42.84-28.42,1.33-40.54,0-.15,0-.29,0-.44s0-.45,0-.68c0-.66,0-1.28.08-1.86,0-.27,0-.52,0-.77.11-2.75.18-4.43.18-4.43h2.29s0,2.44,0,6.28c0,.43,0,.87,0,1.33v.48c0,.33,0,.67,0,1v.78c-.06,13.17-.13,35.52.05,41.44C38.79,51.58,38.8,51.83,38.8,52.09Z"/><path d="M34.83,52.09V65.88l4,3.08s.25-8.55,0-16.87Z"/><path class="cls-2" d="M4.34,69.09l-.55-.29L5,66.42C9,58.85,28.7,20.79,30.84,15.83a53,53,0,0,1,4.38-8.12l.08-.12.48-.71.27-.36.07-.1,2.76-.51L39,6.1c.15.28,15,27.25,18.19,32.42,1.42,2.33,2.94,4.93,4.4,7.44C63.34,49,65,51.84,66,53.32c1.25,1.88,4.53,7.15,6.37,10.12l0,.07c.08.12.15.25.22.37l1.18,1.89-.54.33s-.46-.76-1.17-1.9l-.22-.36,0-.07c-1.84-3-5.12-8.23-6.36-10.1-1-1.5-2.59-4.23-4.43-7.39-1.46-2.51-3-5.11-4.39-7.43-3-5-16.73-29.77-18.1-32.25L36.48,7l-.19.25-.47.7-.08.12a52.53,52.53,0,0,0-4.33,8c-2.14,5-21.9,43.06-25.84,50.64Z"/><path class="cls-2" d="M35.32,7.78h.24l-.08.11Z"/><path class="cls-2" d="M70.93,64.74l-.32.36A6.67,6.67,0,0,1,69.83,64c-.09-.14-.19-.28-.29-.45C64.13,55.09,41.4,14.65,38.73,9.89l-.18-.33L36.16,8.18c0-.15,0-.29,0-.44l1.93-.1-.82-1.09-1-1.35c0-.27,0-.52,0-.77l1.54,2,.89,1.16v.48l-1.62.09,1.61.93.17.1,0,.06c9.52,17,27,47.9,31.16,54.31l.29.44A4.4,4.4,0,0,0,70.93,64.74Z"/><path class="cls-3" d="M49.3,80.59c4.76.2,6.74-3.37,8.13-4.36s.59-1.39-.4-2.58,1.79-1.19,2.18-2.18-3.76-.2-4.36-4a14.56,14.56,0,0,0-.39-1.87c-14.87.85-45,1.59-45,1.59l-9.2.26s.27,2.19.63,4.85c0,.16,0,.32.07.48a72.43,72.43,0,0,0,1.47,8.46H33c1.6,0,5,.19,9.27.45A14.86,14.86,0,0,1,49.3,80.59Z"/><path class="cls-4" d="M60.38,65.08c-1.43.15-3.54.3-6.11.45a15,15,0,0,1,.39,1.87c.6,3.77,4.76,3,4.37,4s-3.18,1-2.19,2.18,1.79,1.59.4,2.58-3.37,4.57-8.13,4.37a14.93,14.93,0,0,0-7,1.12c11,.67,27.3,1.83,31.07,1.47,0,0,4.73-4.64,7.61-13.9.07-.21.13-.43.2-.64h0c.32-1.1.61-2.25.87-3.47A133,133,0,0,0,60.38,65.08Z"/><path class="cls-2" d="M43.44,65.18l-26.28,1L0,66.74l.32,2.48s35.32-.75,40.32-1.39c2.28-.3,8-.7,14-1.06a14.93,14.93,0,0,0-.46-2.09C48.67,65.07,43.44,65.18,43.44,65.18Z"/><path class="cls-5" d="M61.07,64c-2.08.29-4.51.52-6.9.69a14.93,14.93,0,0,1,.46,2.09c7.11-.42,14.54-.77,16.83-.77,4.22,0,10,.21,10,.21l.48-2.15S67.94,63,61.07,64Z"/><path class="cls-2" d="M81.13,67.93c-.07.22-.13.44-.2.65-1.2.1-25.23,2-40.91,2C24.83,70.59,3.29,72,1,72.11c0-.17-.05-.33-.07-.48C3.05,71.49,24.74,70.1,40,70.1,55.87,70.1,80.47,68,81.13,67.93Z"/><rect class="cls-2" x="9.7" y="67.35" width="1.25" height="3.81"/><path class="cls-6" d="M13.2,75C12,78.31,8.92,77.37,7.73,76.73a2.62,2.62,0,0,1-1.2-2.57A4.87,4.87,0,0,1,7,72.41a3.71,3.71,0,0,1,2.8-2.15,1.92,1.92,0,0,1,1.22,0,3.77,3.77,0,0,1,2.23,1.85A3.63,3.63,0,0,1,13.2,75Z"/><rect class="cls-2" x="16.76" y="67.35" width="1.25" height="2.69"/><path class="cls-6" d="M19.63,71.74a3.2,3.2,0,0,1-.21,1c-.86,2.35-3,1.69-3.87,1.23a1.2,1.2,0,0,1-.38-.3A2.51,2.51,0,0,1,15,70.93a2.63,2.63,0,0,1,2-1.52,1.31,1.31,0,0,1,.86,0A2.39,2.39,0,0,1,19.63,71.74Z"/><path class="cls-7" d="M13.2,75C12,78.31,8.92,77.37,7.73,76.73a2.62,2.62,0,0,1-1.2-2.57c.94.18,3.08.4,4.1-1.06,1.33-1.9,2.6-1,2.6-1A3.63,3.63,0,0,1,13.2,75Z"/><path class="cls-7" d="M19.63,71.74a3.2,3.2,0,0,1-.21,1c-.86,2.35-3,1.69-3.87,1.23a1.2,1.2,0,0,1-.38-.3,2.37,2.37,0,0,0,1.35-.39C17.85,72.53,19,71.33,19.63,71.74Z"/><g class="cls-8"><path class="cls-1" d="M38.78,110.91c-.12,4.06-.13,16-.1,27.18L35.56,138c-.38-10.07-.73-20.47-.73-24.53v-3.31h4Z"/><path d="M34.83,110.16V96.62l4-3s.25,8.4,0,16.57Z"/><path class="cls-2" d="M27.56,137.76l-.73,0C20.28,125,8,101.77,5,96.08l-.08-.15-.4-.76-.75-1.42.55-.28.91,1.71.32.61s0,.1.09.16C8.83,101.94,21.08,125.14,27.56,137.76Z"/><path class="cls-2" d="M73.8,96.73l-.68,1.08-.49.78a2.13,2.13,0,0,0-.16.25L72.4,99l0,.06c-1.84,2.92-5.12,8.1-6.37,9.94-1,1.46-2.65,4.26-4.41,7.23-1.46,2.47-3,5-4.39,7.31s-5,8.48-8.61,14.89l-.72,0c3.7-6.51,7.4-12.94,8.79-15.19s2.93-4.83,4.39-7.3c1.84-3.11,3.43-5.79,4.43-7.26,1.23-1.79,4.39-6.81,6.26-9.75l.1-.17,0-.07.22-.35.28-.45.84-1.33.06-.09.13.09h0Z"/><path class="cls-2" d="M70.93,97.74l-.09.1q-.15.18-.45.6l-.28.43h0c-3.14,4.77-14,23.45-23.21,39.45h-.54c7.94-13.8,19.52-33.79,23.18-39.44l.29-.44c.16-.24.29-.44.41-.6a2.47,2.47,0,0,1,.38-.46Z"/><path class="cls-3" d="M49.3,82.16c4.76-.19,6.74,3.32,8.13,4.29S58,87.82,57,89s1.79,1.17,2.18,2.15-3.76.19-4.36,3.89a13.89,13.89,0,0,1-.39,1.84c-14.87-.83-45-1.56-45-1.56l-9.2-.25s.27-2.16.63-4.77c0-.16,0-.31.07-.47A70.44,70.44,0,0,1,2.46,81.5H33c1.6,0,5-.18,9.27-.44A15,15,0,0,0,49.3,82.16Z"/><path class="cls-4" d="M60.38,97.4c-1.43-.15-3.54-.3-6.11-.44a14.26,14.26,0,0,0,.39-1.84c.6-3.7,4.76-2.92,4.37-3.9s-3.18-1-2.19-2.14,1.79-1.56.4-2.53-3.37-4.48-8.13-4.29a15.19,15.19,0,0,1-7-1.1c11-.66,27.3-1.8,31.07-1.44,0,0,4.73,4.55,7.61,13.64.07.21.13.42.2.64h0c.32,1.07.61,2.2.87,3.4A135.64,135.64,0,0,1,60.38,97.4Z"/><path class="cls-2" d="M43.44,97.3l-26.28-1L0,95.77l.32-2.44s35.32.75,40.32,1.38c2.28.28,8,.68,14,1a15,15,0,0,1-.46,2.06C48.67,97.41,43.44,97.3,43.44,97.3Z"/><path class="cls-5" d="M61.07,98.47c-2.08-.28-4.51-.51-6.9-.67a15,15,0,0,0,.46-2.06c7.11.42,14.54.76,16.83.76,4.22,0,10-.21,10-.21l.48,2.11S67.94,99.43,61.07,98.47Z"/><path class="cls-2" d="M81.13,94.6c-.07-.22-.13-.43-.2-.64-1.2-.09-25.23-2-40.91-2C24.83,92,3.29,90.65,1,90.5c0,.16-.05.32-.07.47,2.13.14,23.82,1.5,39.1,1.5C55.87,92.47,80.47,94.54,81.13,94.6Z"/><rect class="cls-2" x="9.7" y="91.44" width="1.25" height="3.74"/><path class="cls-6" d="M13.2,87.68C12,84.41,8.92,85.33,7.73,86a2.56,2.56,0,0,0-1.2,2.53A4.68,4.68,0,0,0,7,90.2a3.72,3.72,0,0,0,2.8,2.12,2,2,0,0,0,1.22,0,3.81,3.81,0,0,0,2.23-1.82A3.51,3.51,0,0,0,13.2,87.68Z"/><rect class="cls-2" x="16.76" y="92.53" width="1.25" height="2.65"/><path class="cls-6" d="M19.63,90.86a3.09,3.09,0,0,0-.21-1c-.86-2.31-3-1.66-3.87-1.21a1.33,1.33,0,0,0-.38.29,2.43,2.43,0,0,0-.15,2.7,2.64,2.64,0,0,0,2,1.5,1.4,1.4,0,0,0,.86,0A2.36,2.36,0,0,0,19.63,90.86Z"/><path class="cls-7" d="M13.2,87.68C12,84.41,8.92,85.33,7.73,86a2.56,2.56,0,0,0-1.2,2.53c.94-.18,3.08-.4,4.1,1,1.33,1.87,2.6,1,2.6,1A3.51,3.51,0,0,0,13.2,87.68Z"/><path class="cls-7" d="M19.63,90.86a3.09,3.09,0,0,0-.21-1c-.86-2.31-3-1.66-3.87-1.21a1.33,1.33,0,0,0-.38.29,2.45,2.45,0,0,1,1.35.39C17.85,90.08,19,91.27,19.63,90.86Z"/></g></g></g></svg>