<svg xmlns="http://www.w3.org/2000/svg" viewBox="0 0 2111 1182.29"><defs><style>.cls-1{fill:#070707;}.cls-2{fill:none;stroke:#fff;stroke-miterlimit:10;}</style></defs><title>Asset 5</title><g id="Layer_2" data-name="Layer 2"><g id="Layer_1-2" data-name="Layer 1"><path class="cls-1" d="M0,0V1182.29H2111V0ZM536,1081.65c-282.22,0-511-228.79-511-511s228.78-511,511-511,511,228.78,511,511S818.22,1081.65,536,1081.65Zm1036,0c-282.22,0-511-228.79-511-511s228.78-511,511-511,511,228.78,511,511S1854.22,1081.65,1572,1081.65Z"/><line class="cls-2" x1="536" y1="536.65" x2="536" y2="620.65"/><line class="cls-2" x1="578" y1="579.15" x2="494" y2="579.15"/><line class="cls-2" x1="1572" y1="536.65" x2="1572" y2="620.65"/><line class="cls-2" x1="1614" y1="579.15" x2="1530" y2="579.15"/></g></g></svg>