<svg xmlns="http://www.w3.org/2000/svg" viewBox="0 0 705.07 236.03"><defs><style>.cls-1{fill:#bdcd6a;}.cls-2{fill:#a4c069;}.cls-3{fill:#6fb75f;}.cls-4{fill:#0c3334;}</style></defs><title>Asset 20</title><g id="Layer_2" data-name="Layer 2"><g id="레이어_1" data-name="레이어 1"><path class="cls-1" d="M134.6,95.46a5,5,0,0,0-2.47.88,5,5,0,0,0-6.6,2.11,5,5,0,0,0-2.35-.37,5.07,5.07,0,0,0-4.48,3.69,3.42,3.42,0,0,0-1.63-.25,3.6,3.6,0,0,0-2.69,1.57,3.59,3.59,0,1,0-1.93,6.41,3.58,3.58,0,0,0,2.7-1.58,3.51,3.51,0,0,0,2.49.75,3.55,3.55,0,0,0,2.73-1.63,5.06,5.06,0,0,0,7.63-1.46,5.1,5.1,0,0,0,4.82-.5,5.06,5.06,0,1,0,1.78-9.62Z"/><path class="cls-1" d="M72.56,91.86a5.31,5.31,0,0,1,2.91.37A5.16,5.16,0,0,1,78.11,91a5.5,5.5,0,0,1,5.06,2,5.27,5.27,0,0,1,2.43-1.08A5.67,5.67,0,0,1,91.44,95a3.78,3.78,0,0,1,1.69-.73,3.87,3.87,0,0,1,3.34,1.13A3.79,3.79,0,0,1,99,93.82a4.34,4.34,0,0,1,1.36,8.55A3.85,3.85,0,0,1,97,101.25a3.84,3.84,0,0,1-2.49,1.55,3.9,3.9,0,0,1-3.39-1.18,5.37,5.37,0,0,1-3.57,2.29,5.5,5.5,0,0,1-5.06-2,5.24,5.24,0,0,1-5.33.71,5.31,5.31,0,0,1-2.65,1.25,6.12,6.12,0,0,1-1.93-12Z"/><path class="cls-2" d="M155.23,100.5a9,9,0,0,0-7.78,3.47,7.47,7.47,0,0,0-1.06-1.59,7.66,7.66,0,0,0-12.23.89,7.63,7.63,0,0,0-4.69-2,7.73,7.73,0,0,0-8.25,6.87,8.67,8.67,0,1,0,1.31,5.24v0a7.73,7.73,0,0,0,12.94-.28,7.64,7.64,0,0,0,10.14.12c.18-.16.36-.32.52-.49a9,9,0,1,0,9.1-12.17Z"/><path class="cls-3" d="M140.08,106.81a5.34,5.34,0,0,0-5.09,1.68,6.4,6.4,0,0,0-11.86.26,5.48,5.48,0,0,0-1.2-.41,5.43,5.43,0,1,0,3.6,8,6.38,6.38,0,0,0,8.83-1.65,5.32,5.32,0,1,0,5.72-7.85Z"/><path class="cls-3" d="M98.47,98.35A5.31,5.31,0,0,0,93.38,100a6.4,6.4,0,0,0-11.86.26,5.43,5.43,0,1,0,2.4,7.56,6.38,6.38,0,0,0,8.83-1.65,5.31,5.31,0,1,0,5.72-7.84Z"/><circle class="cls-3" cx="154.69" cy="116.55" r="7.14"/><path class="cls-3" d="M135.18,116.52a4.07,4.07,0,0,0-4.08.21,4.86,4.86,0,0,0-8.74-2.2,3.74,3.74,0,0,0-.8-.54,4.12,4.12,0,1,0,1,6.56,4.73,4.73,0,0,0,1.45,1.16,4.87,4.87,0,0,0,5.35-.58,4,4,0,1,0,5.78-4.61Z"/><path class="cls-3" d="M122.05,119.76a4,4,0,0,0-4.07.2,4.86,4.86,0,0,0-8.74-2.2,4.49,4.49,0,0,0-.8-.54,4.13,4.13,0,1,0,1,6.57,5,5,0,0,0,1.46,1.15,4.85,4.85,0,0,0,5.35-.58,4,4,0,1,0,5.77-4.6Z"/><path class="cls-3" d="M142.78,121.85a4,4,0,0,0-4.07.21,4.85,4.85,0,0,0-8.74-2.2,4.19,4.19,0,0,0-.8-.55,4.13,4.13,0,1,0,1,6.57,4.7,4.7,0,0,0,1.45,1.15,4.85,4.85,0,0,0,5.35-.58,4,4,0,1,0,5.77-4.6Z"/><path class="cls-3" d="M156.29,119.57a4,4,0,0,0-4.07.2,4.86,4.86,0,0,0-8.74-2.2,4.49,4.49,0,0,0-.8-.54,4.13,4.13,0,1,0,1,6.57,5,5,0,0,0,1.46,1.15,4.85,4.85,0,0,0,5.35-.58,4,4,0,1,0,5.77-4.6Z"/><circle class="cls-3" cx="143.93" cy="126.6" r="5.43"/><path class="cls-2" d="M694.78.94a11.1,11.1,0,0,0-9.56,4.27,9.58,9.58,0,0,0-1.31-2,9.41,9.41,0,0,0-15,1.09A9.51,9.51,0,0,0,653,10.28a10.65,10.65,0,1,0,1.61,6.44v0a9.51,9.51,0,0,0,15.91-.35A9.38,9.38,0,0,0,683,16.5a7.31,7.31,0,0,0,.64-.6,11.09,11.09,0,1,0,11.19-15Z"/><path class="cls-3" d="M684.62,12.28a7.2,7.2,0,0,0-6.88,2.27,8.63,8.63,0,0,0-16,.35,6.82,6.82,0,0,0-1.63-.56A7.33,7.33,0,1,0,665,25.1a8.49,8.49,0,0,0,3,1.3,8.64,8.64,0,0,0,8.9-3.52,7.18,7.18,0,1,0,7.72-10.6Z"/><path class="cls-2" d="M423.47,15.36a11.05,11.05,0,0,0-9.56,4.26,9.58,9.58,0,0,0-1.31-2,9.41,9.41,0,0,0-13.26-1,9.57,9.57,0,0,0-1.77,2.06,9.51,9.51,0,0,0-15.91,5.93,10.66,10.66,0,1,0,1.61,6.45v0a9.52,9.52,0,0,0,15.91-.34,9.39,9.39,0,0,0,12.46.15c.23-.2.44-.4.64-.61a11.09,11.09,0,1,0,11.19-14.95Z"/><path class="cls-3" d="M413.31,26.7A7.17,7.17,0,0,0,406.43,29a8.63,8.63,0,0,0-16,.34,7.33,7.33,0,1,0,3.23,10.21,8.79,8.79,0,0,0,3,1.29,8.63,8.63,0,0,0,8.89-3.51,7.18,7.18,0,1,0,7.73-10.6Z"/><path class="cls-2" d="M654.08,136.81a8.31,8.31,0,0,0-7.17,3.2,7,7,0,0,0-1-1.47,7,7,0,0,0-9.94-.72,7.15,7.15,0,0,0-1.33,1.54,7.12,7.12,0,0,0-11.92,4.45,8,8,0,1,0,1.2,4.83v0a7.12,7.12,0,0,0,11.92-.26,7,7,0,0,0,9.34.12c.17-.15.33-.3.48-.46a8.31,8.31,0,1,0,8.39-11.21Z"/><path class="cls-3" d="M646.46,145.31a5.38,5.38,0,0,0-5.15,1.7,6.48,6.48,0,0,0-12,.26,6.05,6.05,0,0,0-1.22-.42,5.5,5.5,0,1,0,3.65,8.07,6.37,6.37,0,0,0,2.28,1,6.47,6.47,0,0,0,6.66-2.63,5.38,5.38,0,1,0,5.79-7.95Z"/><path class="cls-3" d="M440,31.22a4.4,4.4,0,0,0-4.2,1.38,5.26,5.26,0,0,0-9.75.21,4.63,4.63,0,0,0-1-.34A4.47,4.47,0,1,0,428,39a5.26,5.26,0,0,0,7.27-1.35A4.37,4.37,0,1,0,440,31.22Z"/><circle class="cls-3" cx="452.02" cy="39.23" r="5.87"/><circle class="cls-4" cx="446.17" cy="37.58" r="6.04"/><path class="cls-4" d="M438.38,37.76a4.83,4.83,0,0,0-2.05.25,6.29,6.29,0,0,0-11-3.89,7.24,7.24,0,1,0-6.39,11.72,7.26,7.26,0,0,0,6.67-3.07,6.24,6.24,0,0,0,3.8,1.8,6.34,6.34,0,0,0,4-.94,4.67,4.67,0,1,0,5-5.87Z"/><path class="cls-3" d="M436,39.21a3.31,3.31,0,0,0-3.35.17,4,4,0,0,0-7.19-1.81,3.84,3.84,0,0,0-.66-.45,3.4,3.4,0,1,0,.85,5.4,3.89,3.89,0,0,0,1.2.95,4,4,0,0,0,4.4-.48A3.32,3.32,0,1,0,436,39.21Z"/><path class="cls-3" d="M425.16,41.87a3.31,3.31,0,0,0-3.35.17,4,4,0,0,0-7.19-1.81,3.84,3.84,0,0,0-.66-.45,3.4,3.4,0,1,0,.85,5.4,3.89,3.89,0,0,0,1.2,1,4,4,0,0,0,4.4-.47,3.33,3.33,0,1,0,4.75-3.79Z"/><path class="cls-3" d="M442.22,43.59a3.34,3.34,0,0,0-3.35.17A4,4,0,0,0,431.68,42a3.84,3.84,0,0,0-.66-.45,3.4,3.4,0,1,0,.85,5.41,4.17,4.17,0,0,0,1.2,1,4,4,0,0,0,4.4-.48,3.32,3.32,0,0,0,6.17.69A3.32,3.32,0,0,0,442.22,43.59Z"/><path class="cls-3" d="M453.33,41.71a3.34,3.34,0,0,0-3.35.17,4,4,0,0,0-7.19-1.81,3.3,3.3,0,0,0-.66-.44A3.39,3.39,0,1,0,443,45a4.17,4.17,0,0,0,1.2.95,4,4,0,0,0,4.4-.48,3.33,3.33,0,1,0,4.75-3.79Z"/><circle class="cls-3" cx="443.16" cy="47.5" r="4.46"/><path class="cls-3" d="M31,114.22a4.4,4.4,0,0,0-4.2,1.38,5.26,5.26,0,0,0-9.75.21,4.63,4.63,0,0,0-1-.34A4.47,4.47,0,1,0,19,122a5.26,5.26,0,0,0,7.27-1.35A4.37,4.37,0,1,0,31,114.22Z"/><circle class="cls-3" cx="43.02" cy="122.23" r="5.87"/><circle class="cls-4" cx="37.17" cy="120.58" r="6.04"/><path class="cls-4" d="M29.38,120.76a4.83,4.83,0,0,0-2.05.25,6.29,6.29,0,0,0-11-3.89,7.24,7.24,0,1,0-6.39,11.72,7.26,7.26,0,0,0,6.67-3.07,6.24,6.24,0,0,0,3.8,1.8,6.34,6.34,0,0,0,4-.94,4.67,4.67,0,1,0,5-5.87Z"/><path class="cls-3" d="M27,122.21a3.31,3.31,0,0,0-3.35.17,4,4,0,0,0-7.19-1.81,3.84,3.84,0,0,0-.66-.45,3.4,3.4,0,1,0,.85,5.4,3.89,3.89,0,0,0,1.2,1,4,4,0,0,0,4.4-.48A3.32,3.32,0,1,0,27,122.21Z"/><path class="cls-3" d="M16.16,124.87a3.31,3.31,0,0,0-3.35.17,4,4,0,0,0-7.19-1.81,3.84,3.84,0,0,0-.66-.45,3.4,3.4,0,1,0,.85,5.4,3.89,3.89,0,0,0,1.2.95,4,4,0,0,0,4.4-.47,3.33,3.33,0,1,0,4.75-3.79Z"/><path class="cls-3" d="M33.22,126.59a3.34,3.34,0,0,0-3.35.17A4,4,0,0,0,22.68,125a3.84,3.84,0,0,0-.66-.45,3.4,3.4,0,1,0,.85,5.41,4.17,4.17,0,0,0,1.2,1,4,4,0,0,0,4.4-.48,3.32,3.32,0,0,0,6.17.69A3.32,3.32,0,0,0,33.22,126.59Z"/><path class="cls-3" d="M44.33,124.71a3.34,3.34,0,0,0-3.35.17,4,4,0,0,0-7.19-1.81,3.3,3.3,0,0,0-.66-.44A3.39,3.39,0,1,0,34,128a4.17,4.17,0,0,0,1.2.95,4,4,0,0,0,4.4-.48,3.33,3.33,0,1,0,4.75-3.79Z"/><circle class="cls-3" cx="34.16" cy="130.5" r="4.46"/><path class="cls-1" d="M476.6,199.46a5,5,0,0,0-2.47.88,5,5,0,0,0-6.6,2.11,5,5,0,0,0-2.35-.37,5.07,5.07,0,0,0-4.48,3.69,3.42,3.42,0,0,0-1.63-.25,3.6,3.6,0,0,0-2.69,1.57,3.59,3.59,0,1,0-1.93,6.41,3.58,3.58,0,0,0,2.7-1.58,3.51,3.51,0,0,0,2.49.75,3.55,3.55,0,0,0,2.73-1.63,5.06,5.06,0,0,0,7.63-1.46,5.1,5.1,0,0,0,4.82-.5,5.06,5.06,0,1,0,1.78-9.62Z"/><path class="cls-1" d="M414.56,195.86a5.31,5.31,0,0,1,2.91.37,5.16,5.16,0,0,1,2.64-1.25,5.5,5.5,0,0,1,5.06,2,5.27,5.27,0,0,1,2.43-1.08,5.67,5.67,0,0,1,5.84,3.12,3.78,3.78,0,0,1,1.69-.73,3.87,3.87,0,0,1,3.34,1.13,3.79,3.79,0,0,1,2.48-1.56,4.34,4.34,0,0,1,1.36,8.55,3.85,3.85,0,0,1-3.33-1.12,3.84,3.84,0,0,1-2.49,1.55,3.9,3.9,0,0,1-3.39-1.18,5.37,5.37,0,0,1-3.57,2.29,5.5,5.5,0,0,1-5.06-2,5.24,5.24,0,0,1-5.33.71,5.31,5.31,0,0,1-2.65,1.25,6.12,6.12,0,0,1-1.93-12Z"/><path class="cls-2" d="M497.23,204.5a9,9,0,0,0-7.78,3.47,7.47,7.47,0,0,0-1.06-1.59,7.66,7.66,0,0,0-12.23.89,7.63,7.63,0,0,0-4.69-2,7.73,7.73,0,0,0-8.25,6.87,8.67,8.67,0,1,0,1.31,5.24v0a7.73,7.73,0,0,0,12.94-.28,7.64,7.64,0,0,0,10.14.12c.18-.16.36-.32.52-.49a9,9,0,1,0,9.1-12.17Z"/><path class="cls-3" d="M482.08,210.81a5.34,5.34,0,0,0-5.09,1.68,6.4,6.4,0,0,0-11.86.26,5.48,5.48,0,0,0-1.2-.41,5.43,5.43,0,1,0,3.6,8,6.38,6.38,0,0,0,8.83-1.65,5.32,5.32,0,1,0,5.72-7.85Z"/><path class="cls-3" d="M440.47,202.35a5.31,5.31,0,0,0-5.09,1.67,6.4,6.4,0,0,0-11.86.26,5.43,5.43,0,1,0,2.4,7.56,6.38,6.38,0,0,0,8.83-1.65,5.31,5.31,0,1,0,5.72-7.84Z"/><circle class="cls-3" cx="496.69" cy="220.55" r="7.14"/><path class="cls-3" d="M477.18,220.52a4.07,4.07,0,0,0-4.08.21,4.86,4.86,0,0,0-8.74-2.2,3.74,3.74,0,0,0-.8-.54,4.12,4.12,0,1,0,1,6.56,4.73,4.73,0,0,0,1.45,1.16,4.87,4.87,0,0,0,5.35-.58,4,4,0,1,0,5.78-4.61Z"/><path class="cls-3" d="M464.05,223.76a4,4,0,0,0-4.07.2,4.86,4.86,0,0,0-8.74-2.2,4.49,4.49,0,0,0-.8-.54,4.13,4.13,0,1,0,1,6.57,5,5,0,0,0,1.46,1.15,4.85,4.85,0,0,0,5.35-.58,4,4,0,1,0,5.77-4.6Z"/><path class="cls-3" d="M484.78,225.85a4,4,0,0,0-4.07.21,4.85,4.85,0,0,0-8.74-2.2,4.19,4.19,0,0,0-.8-.55,4.13,4.13,0,1,0,1,6.57,4.7,4.7,0,0,0,1.45,1.15,4.85,4.85,0,0,0,5.35-.58,4,4,0,1,0,5.77-4.6Z"/><path class="cls-3" d="M498.29,223.57a4,4,0,0,0-4.07.2,4.86,4.86,0,0,0-8.74-2.2,4.49,4.49,0,0,0-.8-.54,4.13,4.13,0,1,0,1,6.57,5,5,0,0,0,1.46,1.15,4.85,4.85,0,0,0,5.35-.58,4,4,0,1,0,5.77-4.6Z"/><circle class="cls-3" cx="485.93" cy="230.6" r="5.43"/></g></g></svg>