<svg xmlns="http://www.w3.org/2000/svg" viewBox="0 0 1264.79 271"><defs><style>.cls-1{opacity:0.69;}.cls-2{fill:#fafcfc;}.cls-3{opacity:0.65;}.cls-4{fill:#fff;}</style></defs><title>Asset 21</title><g id="Layer_2" data-name="Layer 2"><g id="레이어_1" data-name="레이어 1"><g class="cls-1"><path class="cls-2" d="M496,6.88A6.86,6.86,0,0,1,502.88,0h94.53a6.88,6.88,0,1,1,0,13.75H586.12a6.24,6.24,0,0,0-6.45,6,6.24,6.24,0,0,0,6.45,6h38.79a6.88,6.88,0,1,1,0,13.75H588.82v0a6,6,0,0,0,0,11.94v0h19.76a6.45,6.45,0,0,1,0,12.9h-53.4a6.45,6.45,0,1,1,0-12.9h15.59a6,6,0,1,0,0-12H530.38a6.88,6.88,0,1,1,0-13.75h23.2a6.24,6.24,0,0,0,6.45-6,6.24,6.24,0,0,0-6.45-6h-50.7A6.88,6.88,0,0,1,496,6.88Z"/></g><g class="cls-1"><path class="cls-2" d="M182,184.94a8.83,8.83,0,0,0-2.7-6.33,9.41,9.41,0,0,0-6.52-2.61H46.08a9.08,9.08,0,0,0-9.22,8.94,8.81,8.81,0,0,0,2.7,6.32,9.37,9.37,0,0,0,6.52,2.62H61.21c4.78,0,8.64,3.49,8.64,7.82s-3.86,7.82-8.64,7.82h-52A9.08,9.08,0,0,0,0,218.46a8.83,8.83,0,0,0,2.7,6.32,9.36,9.36,0,0,0,6.52,2.61H57.59v.06c4.31.43,7.65,3.74,7.65,7.76s-3.34,7.33-7.65,7.77V243H31.1a8.38,8.38,0,1,0,0,16.76h71.58a8.38,8.38,0,1,0,0-16.76H81.78c-4.76,0-8.63-3.49-8.63-7.82s3.87-7.82,8.63-7.82h54.14a9.07,9.07,0,0,0,9.22-8.93,8.83,8.83,0,0,0-2.7-6.33,9.36,9.36,0,0,0-6.52-2.61h-31.1c-4.77,0-8.64-3.5-8.64-7.82s3.87-7.82,8.64-7.82h68A9.08,9.08,0,0,0,182,184.94Z"/></g><g class="cls-3"><path class="cls-4" d="M1264.79,261a10,10,0,0,1-10,10h-137.7a10,10,0,1,1,0-20h16.45c5.2,0,9.39-3.92,9.39-8.76s-4.19-8.76-9.39-8.76H1077a10,10,0,1,1,0-20h52.58v-.07a8.71,8.71,0,0,0,0-17.4v-.06H1100.8a9.39,9.39,0,1,1,0-18.78h77.79a9.39,9.39,0,1,1,0,18.78h-22.71c-5.18,0-9.39,3.92-9.39,8.76s4.21,8.77,9.39,8.77h58.83a10,10,0,1,1,0,20h-33.79c-5.19,0-9.39,3.91-9.39,8.76s4.2,8.76,9.39,8.76h73.85A10,10,0,0,1,1264.79,261Z"/></g></g></g></svg>