<svg xmlns="http://www.w3.org/2000/svg" viewBox="0 0 2113 1247.2"><defs><style>.cls-1{fill:none;stroke:#f9f9f9;stroke-miterlimit:10;}</style></defs><g id="레이어_2" data-name="레이어 2"><g id="레이어_1-2" data-name="레이어 1"><path d="M0,0V1247.2H2113V0ZM571,1083C311.64,1083,101.4,872.78,101.4,613.44S311.64,143.86,571,143.86s469.58,210.24,469.58,469.58S830.32,1083,571,1083Zm984.63,0C1296.27,1083,1086,872.78,1086,613.44s210.24-469.58,469.58-469.58,469.57,210.24,469.57,469.58S1815,1083,1555.61,1083Z"/><line class="cls-1" x1="1553.35" y1="587.19" x2="1553.35" y2="659.88"/><line class="cls-1" x1="1589.69" y1="623.53" x2="1517" y2="623.53"/><line class="cls-1" x1="571.35" y1="587.19" x2="571.35" y2="659.88"/><line class="cls-1" x1="607.69" y1="623.53" x2="535" y2="623.53"/></g></g></svg>