<svg xmlns="http://www.w3.org/2000/svg" viewBox="0 0 681.57 110.21"><defs><style>.cls-1{fill:#fcfcfc;}</style></defs><title>Asset 22</title><g id="Layer_2" data-name="Layer 2"><g id="레이어_1" data-name="레이어 1"><path class="cls-1" d="M127.35,1.86,91.52,110.21H89l-25.37-62L38.78,110.05H36.14L0,1.86H21.41L40.25,64.61,62.82,1.86h2.64L88.34,64.37,106.1,1.86Z"/><path class="cls-1" d="M214.68,1.86V110H194.51V64.06H158.84V110h-20V1.86h20V47h35.67V1.86Z"/><path class="cls-1" d="M291.15,94.31H252.53L246.79,110H225.07L270.83,0h1.55l45.91,110H297.2Zm-5.74-15L274.09,49.79l-2.64-8.68L269,49.79,258.11,79.26Z"/><path class="cls-1" d="M383,19.39H358V110H338V19.39H313V1.86h70Z"/><path class="cls-1" d="M478.68,94.31H440.06L434.32,110H412.6L458.36,0h1.55l45.92,110h-21.1Zm-5.74-15L461.62,49.79,459,41.11l-2.48,8.68L445.64,79.26Z"/><path class="cls-1" d="M606.65,0V110H587.41V63.6l.7-18.31-5.5,8.38-21.26,25-21.25-25-5.5-8.38.85,18.31V110H516.22V0h1.55l43.74,51.58L604.94,0Z"/><path class="cls-1" d="M661.71,1.86h19.86V110H661.71Z"/></g></g></svg>