<svg xmlns="http://www.w3.org/2000/svg" viewBox="0 0 1545.36 494.52"><defs><style>.cls-1{fill:#a53229;}.cls-2{fill:#d3d3d3;}.cls-3{fill:#77140e;}.cls-4{fill:#b74816;}.cls-5{fill:#fefaff;}.cls-6{fill:#682f09;}.cls-7{fill:#020202;}.cls-8{fill:#fcfafd;}.cls-9{fill:#dceefb;}.cls-10{fill:#a3c268;}.cls-11{fill:#5c8c58;}.cls-12{fill:#668499;}.cls-13{fill:#d6eaf2;}.cls-14{fill:#324d5b;}.cls-15{fill:#3d5b6d;}.cls-16{fill:#1a4256;}.cls-17{fill:#2d2423;}.cls-18{fill:#c7bdc2;}.cls-19,.cls-39{fill:none;stroke-linecap:round;stroke-miterlimit:10;}.cls-19{stroke:#3b565e;stroke-width:16px;}.cls-20{fill:#cde6ee;}.cls-21{fill:#b4c7cc;}.cls-22{fill:#45b5b5;}.cls-23{fill:#6f959b;}.cls-24{fill:#b5ac84;}.cls-25{fill:#082637;}.cls-26{fill:#fdfcfe;}.cls-27{fill:#c6c6c6;}.cls-28{fill:#929699;}.cls-29{fill:#0d232e;}.cls-30{fill:#f4982a;}.cls-31{fill:#fdfbff;}.cls-32{fill:#555655;}.cls-33{fill:#87a5c6;}.cls-34{fill:#382c1c;}.cls-35{fill:#1e7fba;}.cls-36{fill:#aacfd1;}.cls-37{fill:#f1f6f5;}.cls-38{fill:#c7cfd3;}.cls-39{stroke:#8b98b4;stroke-width:13px;}.cls-40{fill:#455758;}.cls-41{fill:#81c5ef;}.cls-42{fill:#e4f1f4;}.cls-43{fill:#9fc4b7;}.cls-44{fill:#ead511;}</style></defs><title>Asset 23</title><g id="Layer_2" data-name="Layer 2"><g id="레이어_1" data-name="레이어 1"><polygon class="cls-1" points="736.13 442.4 736.13 477.15 414.03 477.15 414.03 434.38 428.73 434.38 534.32 434.38 538.33 434.38 538.33 438.39 623.86 438.39 623.86 434.38 722.76 434.38 722.77 442.4 736.13 442.4"/><polygon class="cls-1" points="736.13 434.38 736.13 442.4 736.11 434.38 736.13 434.38"/><polygon class="cls-2" points="736.13 227.85 736.13 241.56 735.54 241.12 735.5 227.38 736.13 227.85"/><polygon class="cls-1" points="736.11 434.38 736.13 442.4 722.77 442.4 722.76 434.38 722.77 434.38 736.11 434.38"/><polygon class="cls-1" points="735.54 241.12 736.11 434.38 722.77 434.38 722.77 231.57 735.54 241.12"/><polygon class="cls-3" points="735.5 227.38 735.54 241.12 722.77 231.57 722.77 217.87 735.5 227.38"/><polygon class="cls-4" points="735.5 227.22 735.5 227.38 722.77 217.87 722.77 217.86 722.5 217.66 722.5 217.22 735.5 227.22"/><polygon class="cls-1" points="722.77 231.57 722.77 434.38 722.76 434.38 722.52 231.38 722.77 231.57"/><polygon class="cls-1" points="722.77 217.87 722.77 231.57 722.52 231.38 722.5 217.67 722.77 217.86 722.77 217.87"/><polygon class="cls-4" points="722.77 217.86 722.5 217.67 722.5 217.66 722.77 217.86"/><path class="cls-5" d="M722.52,231.38l.24,203h-98.9V292.7h-4v-4H534.32V434.38H428.73V235.31h0L572.79,119.52Zm-19.8,188.3V318.1h-2.67v-4H653.27V415.67h2.67v4ZM602.48,223.2V177.76h-4v-2.67H553v45.44h2.67v2.67ZM500.9,419.68V318.1h-2.67v-4H451.45V415.67h2.67v4Z"/><polygon class="cls-2" points="722.5 217.67 722.52 231.38 572.79 119.52 428.73 235.3 428.73 219.52 571.34 104.92 571.59 104.92 722.5 217.66 722.5 217.67"/><polygon class="cls-4" points="572.63 104.92 722.5 217.66 571.59 104.92 572.63 104.92"/><polygon class="cls-2" points="702.72 318.1 702.72 419.68 655.94 419.68 655.94 415.67 700.05 415.67 700.05 318.1 702.72 318.1"/><path class="cls-6" d="M700.05,318.1v97.57H655.94V318.1h1.34v13.36h17.61V318.1h3.53v13.36H696V318.1Zm-4,93.56V398.29H678.42v13.37Zm0-16V382.25H678.42v13.37Zm0-16V366.21H678.42v13.37Zm0-16V350.18H678.42v13.36Zm0-16V334.14H678.42V347.5Zm-21.15,64.16V398.29H657.28v13.37Zm0-16V382.25H657.28v13.37Zm0-16V366.21H657.28v13.37Zm0-16V350.18H657.28v13.36Zm0-16V334.14H657.28V347.5Z"/><polygon class="cls-6" points="700.05 314.09 700.05 318.1 696.04 318.1 678.42 318.1 674.89 318.1 657.28 318.1 655.94 318.1 655.94 415.67 653.27 415.67 653.27 314.09 700.05 314.09"/><rect class="cls-7" x="678.42" y="398.29" width="17.62" height="13.37"/><rect class="cls-7" x="678.42" y="382.25" width="17.62" height="13.37"/><rect class="cls-7" x="678.42" y="366.21" width="17.62" height="13.37"/><rect class="cls-7" x="678.42" y="350.18" width="17.62" height="13.36"/><rect class="cls-7" x="678.42" y="334.14" width="17.62" height="13.36"/><rect class="cls-7" x="678.42" y="318.1" width="17.62" height="13.36"/><rect class="cls-7" x="657.28" y="398.29" width="17.61" height="13.37"/><rect class="cls-7" x="657.28" y="382.25" width="17.61" height="13.37"/><rect class="cls-7" x="657.28" y="366.21" width="17.61" height="13.37"/><rect class="cls-7" x="657.28" y="350.18" width="17.61" height="13.36"/><rect class="cls-7" x="657.28" y="334.14" width="17.61" height="13.36"/><rect class="cls-7" x="657.28" y="318.1" width="17.61" height="13.36"/><polygon class="cls-1" points="623.86 434.38 623.86 438.39 538.33 438.39 538.33 434.38 539.66 434.38 614.51 434.38 619.85 434.38 623.86 434.38"/><rect class="cls-2" x="619.85" y="292.7" width="4.01" height="141.68"/><path class="cls-1" d="M619.85,292.7V434.38h-5.34V324.78H539.66v109.6h-1.33V292.7Zm-5.34,24.06V294H592.19v22.72Zm-26.26,0V294H565.92v22.72Zm-26.27,0V294H539.66v22.72Z"/><polygon class="cls-1" points="619.85 288.69 619.85 292.7 538.33 292.7 538.33 434.38 534.32 434.38 534.32 288.69 619.85 288.69"/><rect class="cls-7" x="539.66" y="324.78" width="74.85" height="109.6"/><rect class="cls-7" x="592.19" y="294.04" width="22.32" height="22.72"/><polygon class="cls-4" points="570.4 0 606.91 43.15 604.66 46.57 570.4 6.69 537.34 47.46 534.98 42.82 570.4 0"/><polygon class="cls-2" points="602.48 177.76 602.48 223.2 555.7 223.2 555.7 220.53 598.47 220.53 598.47 177.76 602.48 177.76"/><path class="cls-8" d="M599,41.34v58.6L571.16,79.15l-.11-.14,0,0-.24-.18-.63.88L543,101.58V41L570.4,8ZM582.41,68.92v-24h-24v24Z"/><path class="cls-6" d="M598.47,177.76v42.77H555.7V177.76Zm-5.35,37.43V200.48h-14.7v14.71Zm0-20.05v-14.7h-14.7v14.7Zm-21.38,20.05V200.48H557v14.71Zm0-20.05v-14.7H557v14.7Z"/><polygon class="cls-6" points="598.47 175.09 598.47 177.76 555.7 177.76 555.7 220.53 553.03 220.53 553.03 175.09 598.47 175.09"/><rect class="cls-7" x="578.42" y="200.48" width="14.7" height="14.71"/><rect class="cls-7" x="578.42" y="180.44" width="14.7" height="14.7"/><rect class="cls-7" x="565.92" y="294.04" width="22.33" height="22.72"/><rect class="cls-9" x="558.4" y="44.9" width="24.01" height="24.02"/><polygon class="cls-4" points="572.63 104.92 571.59 104.92 571.46 104.82 571.34 104.92 570.89 104.92 571.74 104.25 572.63 104.92"/><rect class="cls-7" x="557.04" y="200.48" width="14.7" height="14.71"/><rect class="cls-7" x="557.04" y="180.44" width="14.7" height="14.7"/><polygon class="cls-2" points="571.46 104.82 571.59 104.92 571.34 104.92 571.46 104.82"/><polygon class="cls-4" points="571.34 104.92 428.73 219.52 428.73 216.52 570.89 104.92 571.34 104.92"/><rect class="cls-7" x="539.66" y="294.04" width="22.32" height="22.72"/><polygon class="cls-4" points="598.98 99.94 571.16 79.15 571.05 79.01 571.01 79.04 570.77 78.86 570.14 79.74 542.96 101.58 386.87 227.03 399.23 243.23 414.03 231.34 414.03 231.22 428.5 219.22 428.5 219.71 428.73 219.52 428.73 216.52 570.89 104.92 571.74 104.25 572.63 104.92 722.5 217.66 722.5 217.22 735.5 227.22 735.5 227.38 736.13 227.85 752.58 240.14 764.38 223.51 598.98 99.94"/><polygon class="cls-2" points="500.9 318.1 500.9 419.68 454.12 419.68 454.12 415.67 498.23 415.67 498.23 318.1 500.9 318.1"/><path class="cls-6" d="M498.23,318.1v97.57H454.12V318.1h1.34v13.36h17.62V318.1h3.52v13.36h17.62V318.1Zm-4,93.56V398.29H476.6v13.37Zm0-16V382.25H476.6v13.37Zm0-16V366.21H476.6v13.37Zm0-16V350.18H476.6v13.36Zm0-16V334.14H476.6V347.5Zm-21.14,64.16V398.29H455.46v13.37Zm0-16V382.25H455.46v13.37Zm0-16V366.21H455.46v13.37Zm0-16V350.18H455.46v13.36Zm0-16V334.14H455.46V347.5Z"/><polygon class="cls-6" points="498.23 314.09 498.23 318.1 494.22 318.1 476.6 318.1 473.08 318.1 455.46 318.1 454.12 318.1 454.12 415.67 451.45 415.67 451.45 314.09 498.23 314.09"/><rect class="cls-7" x="476.6" y="398.29" width="17.62" height="13.37"/><rect class="cls-7" x="476.6" y="382.25" width="17.62" height="13.37"/><rect class="cls-7" x="476.6" y="366.21" width="17.62" height="13.37"/><rect class="cls-7" x="476.6" y="350.18" width="17.62" height="13.36"/><rect class="cls-7" x="476.6" y="334.14" width="17.62" height="13.36"/><rect class="cls-7" x="476.6" y="318.1" width="17.62" height="13.36"/><rect class="cls-7" x="455.46" y="398.29" width="17.62" height="13.37"/><rect class="cls-7" x="455.46" y="382.25" width="17.62" height="13.37"/><rect class="cls-7" x="455.46" y="366.21" width="17.62" height="13.37"/><rect class="cls-7" x="455.46" y="350.18" width="17.62" height="13.36"/><rect class="cls-7" x="455.46" y="334.14" width="17.62" height="13.36"/><rect class="cls-7" x="455.46" y="318.1" width="17.62" height="13.36"/><polygon class="cls-2" points="428.73 235.3 428.73 235.31 428.52 235.47 428.5 219.71 428.73 219.52 428.73 235.3"/><polygon class="cls-1" points="428.52 235.48 428.73 434.38 414.03 434.38 414.03 247.12 428.52 235.48"/><polygon class="cls-3" points="428.5 219.71 428.52 235.47 428.52 235.48 414.03 247.12 414.03 231.34 428.5 219.71"/><polygon class="cls-4" points="428.5 219.22 428.5 219.71 414.03 231.34 414.03 231.22 428.5 219.22"/><path class="cls-10" d="M612.72,435.45a32.46,32.46,0,0,0,57.45,29.87,32.44,32.44,0,0,0,49.26,9.75,32.45,32.45,0,1,0,7-42.1,32.43,32.43,0,0,0-39.83-13,32.45,32.45,0,0,0-60.06-1.1q-.33.79-.63,1.59A32.31,32.31,0,0,0,612.72,435.45Z"/><path class="cls-11" d="M684,445.56a21,21,0,0,0-10.24,2.66,21.09,21.09,0,0,0-28.68-7.1,21.06,21.06,0,0,0-32,2.8,21.08,21.08,0,1,0,6.19,30.17,21.09,21.09,0,0,0,21.73.15,21.09,21.09,0,0,0,25.07,3.45A21.08,21.08,0,1,0,684,445.56Z"/><polygon class="cls-12" points="1137.47 352.08 1120.89 352.08 1122.83 323.69 1123.13 319.36 1135.23 319.36 1135.53 323.69 1137.47 352.08"/><polygon class="cls-13" points="1153.52 363.19 1153.52 481.72 999.81 481.72 999.81 363.19 1076.36 312.57 1153.52 363.19"/><rect class="cls-14" x="999.81" y="447.15" width="153.71" height="34.57"/><rect class="cls-15" x="1058.45" y="415.05" width="36.42" height="66.67"/><polygon class="cls-16" points="1153.52 364.63 1153.52 369.79 1076.98 320.09 999.81 370.96 999.81 365.78 1076.97 314.93 1153.52 364.63"/><rect class="cls-15" x="1111.23" y="383.26" width="32.41" height="45.68"/><rect class="cls-15" x="1017.4" y="383.87" width="18.83" height="45.68"/><rect class="cls-17" x="1109.38" y="382.02" width="32.41" height="45.68"/><rect class="cls-18" x="1111.54" y="384.18" width="27.78" height="40.74"/><rect class="cls-17" x="1113.39" y="386.25" width="11.11" height="17.69"/><rect class="cls-17" x="1125.74" y="386.25" width="11.11" height="17.69"/><rect class="cls-17" x="1113.39" y="406" width="11.11" height="17.69"/><rect class="cls-17" x="1125.74" y="406" width="11.11" height="17.69"/><rect class="cls-17" x="1015.86" y="382.33" width="17.9" height="45.68"/><rect class="cls-18" x="1017.71" y="384.8" width="14.2" height="40.74"/><rect class="cls-17" x="1018.94" y="386.25" width="11.11" height="17.69"/><rect class="cls-17" x="1018.94" y="405.79" width="11.11" height="17.9"/><polyline class="cls-19" points="991.78 366.28 1077.59 309.49 1162.16 366.28"/><rect class="cls-17" x="1055.37" y="413.81" width="36.42" height="67.91"/><polygon class="cls-16" points="1135.53 323.69 1122.83 323.69 1123.13 319.36 1135.23 319.36 1135.53 323.69"/><polygon class="cls-20" points="481.23 478.29 264.67 478.29 264.67 372.36 373.29 281.18 481.23 372.36 481.23 478.29"/><polygon class="cls-21" points="264.67 374.77 264.67 388.45 373.29 298.61 481.23 391.13 481.23 372.36 373.29 281.18 264.67 374.77"/><path class="cls-22" d="M495.7,376.77a8.79,8.79,0,0,0-1-12.39L373.55,261.62l-.24.29-.15-.18L250.46,363a8.53,8.53,0,0,0-1.15,12l.87,1.05a8.22,8.22,0,0,0,11.57,1.11l111-91.66a.8.8,0,0,1,1,0l108.8,92.31a9.32,9.32,0,0,0,13.13-1.08Z"/><rect class="cls-23" x="362.56" y="350.23" width="24.81" height="39.56"/><rect class="cls-24" x="360.55" y="347.55" width="24.81" height="39.56"/><rect x="363.23" y="350.23" width="8.05" height="10.06"/><rect x="374.63" y="350.23" width="8.05" height="10.06"/><rect x="363.23" y="362.3" width="8.05" height="10.06"/><rect x="374.63" y="362.3" width="8.05" height="10.06"/><rect x="363.23" y="374.37" width="8.05" height="10.06"/><rect x="374.63" y="374.37" width="8.05" height="10.06"/><rect class="cls-23" x="293.5" y="415.27" width="24.81" height="39.56"/><rect class="cls-24" x="291.49" y="412.59" width="24.81" height="39.56"/><rect x="294.17" y="415.27" width="8.05" height="10.06"/><rect x="305.57" y="415.27" width="8.05" height="10.06"/><rect x="294.17" y="427.34" width="8.05" height="10.06"/><rect x="305.57" y="427.34" width="8.05" height="10.06"/><rect x="294.17" y="439.4" width="8.05" height="10.06"/><rect x="305.57" y="439.4" width="8.05" height="10.06"/><rect class="cls-23" x="361.22" y="415.27" width="24.81" height="39.56"/><rect class="cls-24" x="359.21" y="412.59" width="24.81" height="39.56"/><rect x="361.89" y="415.27" width="8.05" height="10.06"/><rect x="373.29" y="415.27" width="8.05" height="10.06"/><rect x="361.89" y="427.34" width="8.05" height="10.06"/><rect x="373.29" y="427.34" width="8.05" height="10.06"/><rect x="361.89" y="439.4" width="8.05" height="10.06"/><rect x="373.29" y="439.4" width="8.05" height="10.06"/><rect class="cls-23" x="424.91" y="415.27" width="24.81" height="39.56"/><rect class="cls-24" x="422.9" y="412.59" width="24.81" height="39.56"/><rect x="425.58" y="415.27" width="8.05" height="10.06"/><rect x="436.98" y="415.27" width="8.05" height="10.06"/><rect x="425.58" y="427.34" width="8.05" height="10.06"/><rect x="436.98" y="427.34" width="8.05" height="10.06"/><rect x="425.58" y="439.4" width="8.05" height="10.06"/><rect x="436.98" y="439.4" width="8.05" height="10.06"/><rect class="cls-25" x="188.55" y="291.13" width="14.54" height="21.22"/><polygon class="cls-26" points="267.34 387.64 267.34 480.67 124.89 480.67 124.89 387.64 196.4 314.97 267.34 387.64"/><polygon class="cls-27" points="267.34 387.64 267.34 405.89 196.96 333.97 124.89 407.08 124.89 387.64 196.4 314.97 267.34 387.64"/><rect class="cls-27" x="175.36" y="400.9" width="44.19" height="80.82"/><polygon class="cls-25" points="121.01 403.45 109 391.61 196.43 302.94 282.08 390.47 270.03 402.26 196.38 327 121.01 403.45"/><rect class="cls-28" x="174.31" y="399.86" width="44.19" height="80.82"/><rect class="cls-29" x="177.22" y="404.02" width="17.44" height="21.5"/><rect class="cls-29" x="197.57" y="404.02" width="17.44" height="21.5"/><rect class="cls-29" x="177.22" y="429.11" width="17.44" height="21.5"/><rect class="cls-29" x="197.57" y="429.11" width="17.44" height="21.5"/><rect class="cls-29" x="177.22" y="454.19" width="17.44" height="21.5"/><rect class="cls-29" x="197.57" y="454.19" width="17.44" height="21.5"/><rect class="cls-30" x="1451.83" y="282.84" width="14.54" height="21.22"/><polygon class="cls-26" points="1530.62 379.36 1530.62 472.39 1388.17 472.39 1388.17 379.36 1459.68 306.68 1530.62 379.36"/><polygon class="cls-27" points="1530.62 379.36 1530.62 397.6 1460.24 325.69 1388.17 398.8 1388.17 379.36 1459.68 306.68 1530.62 379.36"/><rect class="cls-27" x="1438.63" y="392.61" width="44.19" height="80.82"/><polygon class="cls-30" points="1384.29 395.16 1372.28 383.32 1459.7 294.65 1545.36 382.18 1533.31 393.98 1459.66 318.71 1384.29 395.16"/><rect class="cls-28" x="1437.59" y="391.57" width="44.19" height="80.82"/><rect class="cls-29" x="1440.5" y="395.73" width="17.44" height="21.5"/><rect class="cls-29" x="1460.85" y="395.73" width="17.44" height="21.5"/><rect class="cls-29" x="1440.5" y="420.82" width="17.44" height="21.5"/><rect class="cls-29" x="1460.85" y="420.82" width="17.44" height="21.5"/><rect class="cls-29" x="1440.5" y="445.91" width="17.44" height="21.5"/><rect class="cls-29" x="1460.85" y="445.91" width="17.44" height="21.5"/><polygon class="cls-31" points="1015.26 317.05 1001.45 317.05 1001.45 478.29 852.13 478.29 852.13 317.05 837.08 317.05 926.17 234.86 1015.26 317.05"/><polygon class="cls-32" points="1012.04 317.05 1001.45 317.05 1001.45 320.92 926.79 251.74 852.13 321.01 852.13 317.05 841.65 317.05 926.79 238.05 1012.04 317.05"/><rect class="cls-32" x="961.93" y="397.35" width="15.69" height="43.29"/><rect class="cls-32" x="964.44" y="399.24" width="11.29" height="18.82"/><rect class="cls-32" x="964.44" y="419.94" width="11.29" height="18.82"/><rect class="cls-32" x="919.89" y="421.2" width="15.69" height="57.09"/><rect class="cls-32" x="922.4" y="423.68" width="11.29" height="24.82"/><rect class="cls-32" x="922.4" y="450.98" width="11.29" height="24.82"/><rect class="cls-32" x="962.56" y="337.12" width="15.69" height="43.29"/><rect class="cls-32" x="965.07" y="339.01" width="11.29" height="18.82"/><rect class="cls-32" x="965.07" y="359.71" width="11.29" height="18.82"/><rect class="cls-32" x="919.89" y="336.5" width="15.69" height="43.29"/><rect class="cls-32" x="922.4" y="338.38" width="11.29" height="18.82"/><rect class="cls-32" x="922.4" y="359.08" width="11.29" height="18.82"/><rect class="cls-32" x="879.74" y="335.87" width="15.69" height="43.29"/><rect class="cls-32" x="882.25" y="337.75" width="11.29" height="18.82"/><rect class="cls-32" x="882.25" y="358.46" width="11.29" height="18.82"/><rect class="cls-33" x="877.23" y="334.61" width="16.31" height="43.29"/><rect class="cls-34" x="879.74" y="336.5" width="11.29" height="18.82"/><rect class="cls-34" x="879.74" y="357.2" width="11.29" height="18.82"/><rect class="cls-33" x="917.38" y="334.61" width="16.31" height="43.29"/><rect class="cls-34" x="919.89" y="336.5" width="11.29" height="18.82"/><rect class="cls-34" x="919.89" y="357.2" width="11.29" height="18.82"/><rect class="cls-33" x="959.42" y="335.24" width="16.31" height="43.29"/><rect class="cls-34" x="961.93" y="337.12" width="11.29" height="18.82"/><rect class="cls-34" x="961.93" y="357.83" width="11.29" height="18.82"/><polygon class="cls-35" points="835.16 324.8 828.33 317.45 927.42 225.5 1024.94 315.88 1018.12 323.24 927.42 239.19 835.16 324.8"/><rect class="cls-36" x="879.74" y="336.5" width="11.29" height="18.82"/><rect class="cls-36" x="919.89" y="336.5" width="11.29" height="18.82"/><rect class="cls-33" x="959.42" y="396.1" width="15.69" height="43.29"/><rect class="cls-34" x="961.93" y="397.98" width="11.29" height="18.82"/><rect class="cls-34" x="961.93" y="418.69" width="11.29" height="18.82"/><rect class="cls-33" x="916.13" y="421.2" width="17.57" height="57.09"/><rect class="cls-36" x="918.64" y="423.08" width="12.55" height="55.21"/><polygon class="cls-12" points="841.3 347.51 824.72 347.51 826.67 319.11 826.96 314.79 839.06 314.79 839.36 319.11 841.3 347.51"/><polygon class="cls-37" points="857.35 358.62 857.35 477.15 703.64 477.15 703.64 358.62 780.19 308 857.35 358.62"/><rect class="cls-38" x="703.64" y="442.58" width="153.71" height="34.57"/><rect class="cls-38" x="762.29" y="410.48" width="36.42" height="66.67"/><polygon class="cls-38" points="857.35 360.06 857.77 371.54 781.23 321.84 704 371.72 703.64 361.21 780.8 310.36 857.35 360.06"/><rect class="cls-38" x="815.07" y="378.68" width="32.41" height="45.68"/><rect class="cls-38" x="721.23" y="379.3" width="18.83" height="45.68"/><rect class="cls-17" x="813.22" y="377.45" width="32.41" height="45.68"/><rect class="cls-18" x="815.38" y="379.61" width="27.78" height="40.74"/><rect class="cls-17" x="817.23" y="381.68" width="11.11" height="17.69"/><rect class="cls-17" x="829.57" y="381.68" width="11.11" height="17.69"/><rect class="cls-17" x="817.23" y="401.43" width="11.11" height="17.69"/><rect class="cls-17" x="829.57" y="401.43" width="11.11" height="17.69"/><rect class="cls-17" x="719.69" y="377.76" width="17.9" height="45.68"/><rect class="cls-18" x="721.54" y="380.23" width="14.2" height="40.74"/><rect class="cls-17" x="722.78" y="381.68" width="11.11" height="17.69"/><rect class="cls-17" x="722.78" y="401.22" width="11.11" height="17.9"/><polyline class="cls-39" points="695.62 361.71 781.42 304.91 866 361.71"/><rect class="cls-17" x="759.2" y="409.24" width="36.42" height="67.91"/><polygon class="cls-16" points="839.36 319.11 826.67 319.11 826.96 314.79 839.06 314.79 839.36 319.11"/><path class="cls-10" d="M1062.08,465.22c3.43-8.34-.24-18-8.19-21.62a15.3,15.3,0,0,0-19.55,6.48,16,16,0,0,0-7.62-7.35,15.09,15.09,0,0,0-16.17,2.41,15.88,15.88,0,0,0-7.13-6.46c-7.95-3.6-17.17.25-20.6,8.59s.24,18,8.19,21.62a15.07,15.07,0,0,0,16.17-2.41,15.82,15.82,0,0,0,7.13,6.46,14.94,14.94,0,0,0,12.11.13,16.06,16.06,0,0,0,8.4,9.15c8,3.6,17.18-.25,20.6-8.59.11-.27.22-.54.31-.81A16.11,16.11,0,0,0,1062.08,465.22Z"/><path class="cls-40" d="M1026.09,457.27a16.09,16.09,0,0,0-8.16,2.22,16.65,16.65,0,0,0-14.31-8.39,16.13,16.13,0,0,0-8.55,2.46,16.31,16.31,0,0,0-11.81-5.1,16.53,16.53,0,0,0-13.7,7.43,16.14,16.14,0,0,0-8.77-2.59c-9.27,0-16.79,7.89-16.79,17.63s7.52,17.62,16.79,17.62a16.56,16.56,0,0,0,13.7-7.43,16.12,16.12,0,0,0,17.32.13,16.35,16.35,0,0,0,11.81,5.1,16.15,16.15,0,0,0,8.16-2.22,16.65,16.65,0,0,0,14.31,8.39c9.27,0,16.79-7.89,16.79-17.63S1035.36,457.27,1026.09,457.27Z"/><path class="cls-10" d="M1178.2,471a14.19,14.19,0,0,0-25.11-13.06,14.18,14.18,0,0,0-21.53-4.26,14.18,14.18,0,1,0-3,18.4,14.19,14.19,0,0,0,17.41,5.69,14.18,14.18,0,0,0,26.25.48c.1-.23.19-.47.28-.7A14.06,14.06,0,0,0,1178.2,471Z"/><path class="cls-40" d="M1145.63,464.12a15.11,15.11,0,0,0-7.39,1.91,15.19,15.19,0,0,0-20.68-5.11,15.19,15.19,0,0,0-23.09,2,15.21,15.21,0,1,0,4.46,21.75,15.17,15.17,0,0,0,15.67.12,15.18,15.18,0,0,0,18.08,2.48,15.2,15.2,0,1,0,13-23.16Z"/><path class="cls-10" d="M1437.84,466.55a12,12,0,0,0-21.22-11,12,12,0,0,0-18.2-3.6,12,12,0,1,0-2.57,15.56,12,12,0,0,0,14.71,4.8,12,12,0,0,0,22.19.41c.09-.19.16-.39.24-.59A11.86,11.86,0,0,0,1437.84,466.55Z"/><path class="cls-40" d="M1435.47,460.16a11.15,11.15,0,0,0-5.48,1.42,82.84,82.84,0,0,1-23.28-7.06,11.28,11.28,0,0,0-9.21,4.76,11.28,11.28,0,1,0,3.32,16.14,26.6,26.6,0,0,1,19.56,3.35,11.26,11.26,0,0,0,5.48-1.42,11.28,11.28,0,1,0,9.61-17.19Z"/><path class="cls-40" d="M133.29,443.22a15.71,15.71,0,0,0-8.11,2.26A16.49,16.49,0,0,0,111,436.94a15.76,15.76,0,0,0-8.51,2.5,16.05,16.05,0,0,0-11.75-5.19,16.36,16.36,0,0,0-13.62,7.57,15.82,15.82,0,0,0-8.72-2.64c-9.23,0-16.71,8-16.71,17.94s7.48,17.94,16.71,17.94A16.37,16.37,0,0,0,82,467.49a15.71,15.71,0,0,0,17.22.14A16.09,16.09,0,0,0,111,472.82a15.74,15.74,0,0,0,8.12-2.26,16.48,16.48,0,0,0,14.22,8.54c9.23,0,16.71-8,16.71-17.94S142.52,443.22,133.29,443.22Z"/><polygon class="cls-31" points="1400.24 347.79 1389.17 347.79 1389.17 477.15 1269.38 477.15 1269.38 347.79 1257.3 347.79 1328.77 281.85 1400.24 347.79"/><polygon class="cls-32" points="1397.67 347.79 1389.17 347.79 1389.17 350.9 1329.27 295.39 1269.38 350.97 1269.38 347.79 1260.97 347.79 1329.27 284.41 1397.67 347.79"/><rect class="cls-32" x="1357.46" y="412.22" width="12.58" height="34.73"/><rect class="cls-32" x="1359.47" y="413.73" width="9.06" height="15.1"/><rect class="cls-32" x="1359.47" y="430.34" width="9.06" height="15.1"/><rect class="cls-32" x="1323.74" y="431.34" width="12.58" height="45.8"/><rect class="cls-32" x="1325.75" y="433.33" width="9.06" height="19.91"/><rect class="cls-32" x="1325.75" y="455.24" width="9.06" height="19.91"/><rect class="cls-32" x="1357.96" y="363.89" width="12.58" height="34.73"/><rect class="cls-32" x="1359.98" y="365.4" width="9.06" height="15.1"/><rect class="cls-32" x="1359.98" y="382.01" width="9.06" height="15.1"/><rect class="cls-32" x="1323.74" y="363.39" width="12.58" height="34.73"/><rect class="cls-32" x="1325.75" y="364.9" width="9.06" height="15.1"/><rect class="cls-32" x="1325.75" y="381.51" width="9.06" height="15.1"/><rect class="cls-32" x="1291.52" y="362.89" width="12.58" height="34.73"/><rect class="cls-32" x="1293.54" y="364.4" width="9.06" height="15.1"/><rect class="cls-32" x="1293.54" y="381.01" width="9.06" height="15.1"/><rect class="cls-33" x="1289.51" y="361.88" width="13.09" height="34.73"/><rect class="cls-34" x="1291.52" y="363.39" width="9.06" height="15.1"/><rect class="cls-34" x="1291.52" y="380" width="9.06" height="15.1"/><rect class="cls-33" x="1321.72" y="361.88" width="13.09" height="34.73"/><rect class="cls-34" x="1323.74" y="363.39" width="9.06" height="15.1"/><rect class="cls-34" x="1323.74" y="380" width="9.06" height="15.1"/><rect class="cls-33" x="1355.45" y="362.38" width="13.09" height="34.73"/><rect class="cls-34" x="1357.46" y="363.89" width="9.06" height="15.1"/><rect class="cls-34" x="1357.46" y="380.5" width="9.06" height="15.1"/><polygon class="cls-41" points="1255.76 354.01 1250.28 348.11 1329.78 274.35 1408.02 346.85 1402.54 352.75 1329.78 285.33 1255.76 354.01"/><rect class="cls-36" x="1291.52" y="363.39" width="9.06" height="15.1"/><rect class="cls-36" x="1323.74" y="363.39" width="9.06" height="15.1"/><rect class="cls-33" x="1355.45" y="411.21" width="12.58" height="34.73"/><rect class="cls-34" x="1357.46" y="412.72" width="9.06" height="15.1"/><rect class="cls-34" x="1357.46" y="429.33" width="9.06" height="15.1"/><rect class="cls-33" x="1320.72" y="431.34" width="14.09" height="45.8"/><rect class="cls-36" x="1322.73" y="432.85" width="10.07" height="44.29"/><polygon class="cls-42" points="1285.31 478.29 1116.22 478.29 1116.22 395.58 1201.02 324.38 1285.31 395.58 1285.31 478.29"/><polygon class="cls-43" points="1116.22 397.46 1116.22 408.14 1201.02 337.99 1285.31 410.23 1285.31 395.58 1201.02 324.38 1116.22 397.46"/><path class="cls-44" d="M1296.61,399a6.86,6.86,0,0,0-.79-9.67l-94.59-80.24-.19.22-.11-.13-95.81,79.09a6.66,6.66,0,0,0-.9,9.38l.68.81a6.41,6.41,0,0,0,9,.87l86.69-71.57a.61.61,0,0,1,.78,0l85,72.07a7.27,7.27,0,0,0,10.25-.84Z"/><rect class="cls-43" x="1192.65" y="378.3" width="19.37" height="30.89"/><rect class="cls-24" x="1191.08" y="376.21" width="19.37" height="30.89"/><rect x="1193.17" y="378.3" width="6.28" height="7.85"/><rect x="1202.07" y="378.3" width="6.28" height="7.85"/><rect x="1193.17" y="387.72" width="6.28" height="7.85"/><rect x="1202.07" y="387.72" width="6.28" height="7.85"/><rect x="1193.17" y="397.15" width="6.28" height="7.85"/><rect x="1202.07" y="397.15" width="6.28" height="7.85"/><rect class="cls-43" x="1138.73" y="429.08" width="19.37" height="30.89"/><rect class="cls-24" x="1137.16" y="426.99" width="19.37" height="30.89"/><rect x="1139.25" y="429.08" width="6.28" height="7.85"/><rect x="1148.15" y="429.08" width="6.28" height="7.85"/><rect x="1139.25" y="438.5" width="6.28" height="7.85"/><rect x="1148.15" y="438.5" width="6.28" height="7.85"/><rect x="1139.25" y="447.93" width="6.28" height="7.85"/><rect x="1148.15" y="447.93" width="6.28" height="7.85"/><rect class="cls-43" x="1191.6" y="429.08" width="19.37" height="30.89"/><rect class="cls-24" x="1190.03" y="426.99" width="19.37" height="30.89"/><rect x="1192.12" y="429.08" width="6.28" height="7.85"/><rect x="1201.02" y="429.08" width="6.28" height="7.85"/><rect x="1192.12" y="438.5" width="6.28" height="7.85"/><rect x="1201.02" y="438.5" width="6.28" height="7.85"/><rect x="1192.12" y="447.93" width="6.28" height="7.85"/><rect x="1201.02" y="447.93" width="6.28" height="7.85"/><rect class="cls-43" x="1241.33" y="429.08" width="19.37" height="30.89"/><rect class="cls-24" x="1239.76" y="426.99" width="19.37" height="30.89"/><rect x="1241.86" y="429.08" width="6.28" height="7.85"/><rect x="1250.76" y="429.08" width="6.28" height="7.85"/><rect x="1241.86" y="438.5" width="6.28" height="7.85"/><rect x="1250.76" y="438.5" width="6.28" height="7.85"/><rect x="1241.86" y="447.93" width="6.28" height="7.85"/><rect x="1250.76" y="447.93" width="6.28" height="7.85"/><path class="cls-10" d="M1.69,452.64c-4.51,11.24.32,24.29,10.79,29.14C22,486.2,33,482.28,38.24,473a21.12,21.12,0,0,0,10,9.91,19.49,19.49,0,0,0,21.3-3.25A21.08,21.08,0,0,0,79,488.41c10.48,4.85,22.63-.33,27.14-11.58s-.31-24.29-10.78-29.14A19.51,19.51,0,0,0,74,450.94a21.08,21.08,0,0,0-9.39-8.71,19.27,19.27,0,0,0-16-.18A21.52,21.52,0,0,0,37.6,429.72c-10.47-4.85-22.62.33-27.14,11.58-.14.36-.28.73-.41,1.09A21.72,21.72,0,0,0,1.69,452.64Z"/></g></g></svg>