<svg xmlns="http://www.w3.org/2000/svg" viewBox="0 0 1545.36 393.24"><defs><style>.cls-1{opacity:0.2;}.cls-2{fill:#ae6555;}.cls-3{fill:#9f5349;}.cls-4{fill:#7c2415;}.cls-5{fill:#fefaff;}.cls-6{fill:#d3d3d3;}.cls-7{fill:#682f09;}.cls-8{fill:#020202;}.cls-9{fill:#092937;}.cls-10{fill:#a85f53;}.cls-11{fill:#fcfafd;}.cls-12{fill:#dceefb;}.cls-13{fill:#a3c268;}.cls-14{fill:#455758;}.cls-15{fill:#668499;}.cls-16{fill:#324d5b;}.cls-17{fill:#3d5b6d;}.cls-18{fill:#1a4256;}.cls-19{fill:#2d2423;}.cls-20{fill:#c7bdc2;}.cls-21,.cls-40{fill:none;stroke-linecap:round;stroke-miterlimit:10;}.cls-21{stroke:#3b565e;stroke-width:16px;}.cls-22{fill:#cde6ee;}.cls-23{fill:#6f959b;}.cls-24{fill:#28434d;}.cls-25{fill:#b5ac84;}.cls-26{fill:#082637;}.cls-27{fill:#fdfcfe;}.cls-28{fill:#c6c6c6;}.cls-29{fill:#929699;}.cls-30{fill:#0d232e;}.cls-31{fill:#1e4f55;}.cls-32{fill:#fdfbff;}.cls-33{fill:#555655;}.cls-34{fill:#87a5c6;}.cls-35{fill:#382c1c;}.cls-36{fill:#9db6c8;}.cls-37{fill:#aacfd1;}.cls-38{fill:#f1f6f5;}.cls-39{fill:#c7cfd3;}.cls-40{stroke:#8b98b4;stroke-width:13px;}.cls-41{fill:#e4f1f4;}.cls-42{fill:#9fc4b7;}.cls-43{fill:#e7bf58;}</style></defs><title>Asset 24</title><g id="Layer_2" data-name="Layer 2"><g id="레이어_1" data-name="레이어 1"><g class="cls-1"><polygon class="cls-2" points="764.38 214.04 752.58 200.71 736.13 210.56 736.13 219.97 736.13 220.71 734.89 220.71 587.3 309.12 598.98 309.12 598.98 313.12 764.38 214.04"/><polygon class="cls-3" points="736.13 38.55 736.13 10.69 414.03 10.69 414.03 44.98 428.73 44.98 534.32 44.98 538.33 44.98 538.33 41.76 623.86 41.76 623.86 44.98 722.77 44.98 722.77 38.55 736.13 38.55"/><rect class="cls-3" x="722.77" y="38.55" width="13.36" height="6.43"/><polygon class="cls-3" points="736.13 199.57 736.13 44.98 722.77 44.98 722.77 207.58 736.13 199.57"/><polygon class="cls-4" points="736.13 210.56 736.13 199.57 722.77 207.58 722.77 218.56 736.13 210.56"/><polygon class="cls-2" points="736.13 219.97 736.13 210.56 722.77 218.56 722.77 218.57 722.77 220.71 734.89 220.71 736.13 219.97"/><polygon class="cls-2" points="736.13 220.71 736.13 219.97 734.89 220.71 736.13 220.71"/><polygon class="cls-2" points="734.89 220.71 722.77 220.71 722.77 218.57 572.63 309.12 587.3 309.12 734.89 220.71"/><path class="cls-5" d="M722.77,207.58V45H623.86V158.57h-4v3.22H534.32V45H428.73V204.59l144.06,92.83Zm-20-150.82v81.45h-2.67v3.21H653.27V60h2.67V56.76ZM602.48,214.29v36.43h-4v2.14H553V216.43h2.67v-2.14ZM500.9,56.76v81.45h-2.67v3.21H451.45V60h2.67V56.76Z"/><polygon class="cls-6" points="722.77 218.56 722.77 207.58 572.79 297.42 428.73 204.59 428.73 217.24 571.34 309.12 571.59 309.12 722.77 218.57 722.77 218.56"/><polygon class="cls-2" points="722.77 218.57 571.59 309.12 572.63 309.12 722.77 218.57"/><polygon class="cls-6" points="702.72 138.21 702.72 56.76 655.94 56.76 655.94 59.98 700.05 59.98 700.05 138.21 702.72 138.21"/><path class="cls-7" d="M700.05,138.21V60H655.94v78.23h1.34V127.49h17.61v10.72h3.53V127.49H696v10.72Zm-4-75V73.91H678.42V63.19Zm0,12.86V86.77H678.42V76.05Zm0,12.86V99.63H678.42V88.91Zm0,12.86v10.72H678.42V101.77Zm0,12.86v10.72H678.42V114.63ZM674.89,63.19V73.91H657.28V63.19Zm0,12.86V86.77H657.28V76.05Zm0,12.86V99.63H657.28V88.91Zm0,12.86v10.72H657.28V101.77Zm0,12.86v10.72H657.28V114.63Z"/><polygon class="cls-7" points="700.05 141.42 700.05 138.21 696.04 138.21 678.42 138.21 674.89 138.21 657.28 138.21 655.94 138.21 655.94 59.98 653.27 59.98 653.27 141.42 700.05 141.42"/><rect class="cls-8" x="678.42" y="63.19" width="17.62" height="10.72"/><rect class="cls-8" x="678.42" y="76.05" width="17.62" height="10.72"/><rect class="cls-8" x="678.42" y="88.91" width="17.62" height="10.72"/><rect class="cls-8" x="678.42" y="101.77" width="17.62" height="10.71"/><rect class="cls-8" x="678.42" y="114.63" width="17.62" height="10.71"/><rect class="cls-8" x="678.42" y="127.49" width="17.62" height="10.71"/><rect class="cls-8" x="657.28" y="63.19" width="17.61" height="10.72"/><rect class="cls-8" x="657.28" y="76.05" width="17.61" height="10.72"/><rect class="cls-8" x="657.28" y="88.91" width="17.61" height="10.72"/><rect class="cls-8" x="657.28" y="101.77" width="17.61" height="10.71"/><rect class="cls-8" x="657.28" y="114.63" width="17.61" height="10.71"/><rect class="cls-8" x="657.28" y="127.49" width="17.61" height="10.71"/><polygon class="cls-3" points="623.86 44.98 623.86 41.76 538.33 41.76 538.33 44.98 539.66 44.98 614.51 44.98 619.85 44.98 623.86 44.98"/><rect class="cls-6" x="619.85" y="44.98" width="4.01" height="113.59"/><path class="cls-7" d="M619.85,158.57V45h-5.34v87.87H539.66V45h-1.33V158.57Zm-5.34-19.29V157.5H592.19V139.28Zm-26.26,0V157.5H565.92V139.28Zm-26.27,0V157.5H539.66V139.28Z"/><polygon class="cls-7" points="619.85 161.78 619.85 158.57 538.33 158.57 538.33 44.98 534.32 44.98 534.32 161.78 619.85 161.78"/><rect class="cls-9" x="539.66" y="44.98" width="74.85" height="87.87"/><rect class="cls-9" x="592.19" y="139.28" width="22.32" height="18.22"/><polygon class="cls-10" points="570.4 393.24 606.91 358.65 604.66 355.9 570.4 387.88 537.34 355.19 534.98 358.91 570.4 393.24"/><polygon class="cls-6" points="602.48 250.72 602.48 214.29 555.7 214.29 555.7 216.43 598.47 216.43 598.47 250.72 602.48 250.72"/><polygon class="cls-2" points="598.98 313.12 598.98 309.12 587.3 309.12 572.5 317.99 572.39 318.11 572.35 318.08 572.11 318.23 571.48 317.53 558.44 309.12 542.96 309.12 542.96 311.8 570.14 329.31 570.77 330.02 571.01 329.87 571.05 329.9 571.16 329.78 598.98 313.12"/><path class="cls-11" d="M599,360.1v-47l-27.82,16.66-.11.12,0,0-.24.15-.63-.71L543,311.8v48.61l27.44,26.4ZM582.41,338v19.25h-24V338Z"/><path class="cls-7" d="M598.47,250.72V216.43H555.7v34.29Zm-5.35-30v11.8h-14.7v-11.8Zm0,16.08v11.78h-14.7V236.79Zm-21.38-16.08v11.8H557v-11.8Zm0,16.08v11.78H557V236.79Z"/><polygon class="cls-7" points="598.47 252.86 598.47 250.72 555.7 250.72 555.7 216.43 553.03 216.43 553.03 252.86 598.47 252.86"/><rect class="cls-8" x="578.42" y="220.71" width="14.7" height="11.79"/><rect class="cls-8" x="578.42" y="236.79" width="14.7" height="11.79"/><rect class="cls-9" x="565.92" y="139.28" width="22.33" height="18.22"/><polygon class="cls-2" points="572.5 317.99 587.3 309.12 572.63 309.12 571.74 309.66 570.89 309.12 558.44 309.12 571.48 317.53 572.11 318.23 572.35 318.08 572.39 318.11 572.5 317.99"/><rect class="cls-12" x="558.4" y="337.99" width="24.01" height="19.26"/><polygon class="cls-2" points="572.63 309.12 571.59 309.12 571.46 309.2 571.34 309.12 570.89 309.12 571.74 309.66 572.63 309.12"/><rect class="cls-8" x="557.04" y="220.71" width="14.7" height="11.79"/><rect class="cls-8" x="557.04" y="236.79" width="14.7" height="11.79"/><polygon class="cls-6" points="571.46 309.2 571.59 309.12 571.34 309.12 571.46 309.2"/><polygon class="cls-2" points="571.34 309.12 428.73 217.24 428.73 219.65 570.89 309.12 571.34 309.12"/><polygon class="cls-2" points="570.89 309.12 428.73 219.65 428.73 220.71 421.24 220.71 558.44 309.12 570.89 309.12"/><rect class="cls-9" x="539.66" y="139.28" width="22.32" height="18.22"/><polygon class="cls-2" points="558.44 309.12 421.24 220.71 414.03 220.71 414.03 216.06 414.03 207.77 399.23 198.23 386.87 211.22 542.96 311.8 542.96 309.12 558.44 309.12"/><polygon class="cls-6" points="500.9 138.21 500.9 56.76 454.12 56.76 454.12 59.98 498.23 59.98 498.23 138.21 500.9 138.21"/><path class="cls-7" d="M498.23,138.21V60H454.12v78.23h1.34V127.49h17.62v10.72h3.52V127.49h17.62v10.72Zm-4-75V73.91H476.6V63.19Zm0,12.86V86.77H476.6V76.05Zm0,12.86V99.63H476.6V88.91Zm0,12.86v10.72H476.6V101.77Zm0,12.86v10.72H476.6V114.63ZM473.08,63.19V73.91H455.46V63.19Zm0,12.86V86.77H455.46V76.05Zm0,12.86V99.63H455.46V88.91Zm0,12.86v10.72H455.46V101.77Zm0,12.86v10.72H455.46V114.63Z"/><polygon class="cls-7" points="498.23 141.42 498.23 138.21 494.22 138.21 476.6 138.21 473.08 138.21 455.46 138.21 454.12 138.21 454.12 59.98 451.45 59.98 451.45 141.42 498.23 141.42"/><rect class="cls-8" x="476.6" y="63.19" width="17.62" height="10.72"/><rect class="cls-8" x="476.6" y="76.05" width="17.62" height="10.72"/><rect class="cls-8" x="476.6" y="88.91" width="17.62" height="10.72"/><rect class="cls-8" x="476.6" y="101.77" width="17.62" height="10.71"/><rect class="cls-8" x="476.6" y="114.63" width="17.62" height="10.71"/><rect class="cls-8" x="476.6" y="127.49" width="17.62" height="10.71"/><rect class="cls-8" x="455.46" y="63.19" width="17.62" height="10.72"/><rect class="cls-8" x="455.46" y="76.05" width="17.62" height="10.72"/><rect class="cls-8" x="455.46" y="88.91" width="17.62" height="10.72"/><rect class="cls-8" x="455.46" y="101.77" width="17.62" height="10.71"/><rect class="cls-8" x="455.46" y="114.63" width="17.62" height="10.71"/><rect class="cls-8" x="455.46" y="127.49" width="17.62" height="10.71"/><polygon class="cls-3" points="428.73 204.59 428.73 44.98 414.03 44.98 414.03 195.11 428.73 204.59"/><polygon class="cls-4" points="428.73 217.24 428.73 204.59 414.03 195.11 414.03 207.77 428.73 217.24"/><polygon class="cls-2" points="428.73 219.65 428.73 217.24 414.03 207.77 414.03 216.06 421.24 220.71 428.73 220.71 428.73 219.65"/><polygon class="cls-2" points="421.24 220.71 414.03 216.06 414.03 220.71 421.24 220.71"/><path class="cls-13" d="M612.72,44.12c-7.09-13.2.5-28.51,17-34.2,15-5.18,32.18-.59,40.49,10.25A30.67,30.67,0,0,1,685.93,8.54c11.56-4,24.41-2.18,33.5,3.82A31.29,31.29,0,0,1,734.18,2.13c16.47-5.69,35.56.4,42.66,13.6s-.49,28.51-17,34.2c-11.56,4-24.4,2.18-33.5-3.82a31.2,31.2,0,0,1-14.75,10.22,39.79,39.79,0,0,1-25.08.21c-3,6.27-9.08,11.6-17.4,14.48-16.46,5.69-35.56-.4-42.66-13.6-.22-.42-.43-.85-.63-1.27A28.74,28.74,0,0,1,612.72,44.12Z"/><path class="cls-14" d="M684,36a25,25,0,0,1-10.24-2.13c-3.71,4.83-10.36,8-17.95,8a24.93,24.93,0,0,1-10.73-2.36,23.93,23.93,0,0,1-14.83,4.89c-7.1,0-13.37-2.82-17.19-7.13a24.92,24.92,0,0,1-11,2.48c-11.64,0-21.08-7.56-21.08-16.9S590.44,6,602.08,6c7.1,0,13.37,2.81,17.19,7.12A25.6,25.6,0,0,1,641,13a23.93,23.93,0,0,1,14.83-4.89,25,25,0,0,1,10.24,2.13c3.71-4.83,10.36-8,17.95-8,11.64,0,21.08,7.57,21.08,16.9S695.66,36,684,36Z"/><polygon class="cls-15" points="1137.47 110.96 1120.89 110.96 1122.83 133.73 1123.13 137.19 1135.23 137.19 1135.53 133.73 1137.47 110.96"/><polygon class="cls-15" points="1153.52 102.05 1153.52 7.02 999.81 7.02 999.81 102.05 1076.36 142.64 1153.52 102.05"/><rect class="cls-16" x="999.81" y="7.02" width="153.71" height="27.72"/><rect class="cls-17" x="1058.45" y="7.02" width="36.42" height="53.45"/><polygon class="cls-18" points="1153.52 100.9 1153.52 96.76 1076.98 136.61 999.81 95.83 999.81 99.98 1076.97 140.75 1153.52 100.9"/><rect class="cls-17" x="1111.23" y="49.34" width="32.41" height="36.63"/><rect class="cls-17" x="1017.4" y="48.85" width="18.83" height="36.63"/><rect class="cls-19" x="1109.38" y="50.33" width="32.41" height="36.63"/><rect class="cls-20" x="1111.54" y="52.56" width="27.78" height="32.67"/><rect class="cls-19" x="1113.39" y="69.39" width="11.11" height="14.18"/><rect class="cls-19" x="1125.74" y="69.39" width="11.11" height="14.18"/><rect class="cls-19" x="1113.39" y="53.55" width="11.11" height="14.18"/><rect class="cls-19" x="1125.74" y="53.55" width="11.11" height="14.18"/><rect class="cls-19" x="1015.86" y="50.08" width="17.9" height="36.63"/><rect class="cls-20" x="1017.71" y="52.06" width="14.2" height="32.67"/><rect class="cls-19" x="1018.94" y="69.39" width="11.11" height="14.18"/><rect class="cls-19" x="1018.94" y="53.55" width="11.11" height="14.35"/><polyline class="cls-21" points="991.78 99.58 1077.59 145.11 1162.16 99.58"/><rect class="cls-19" x="1055.37" y="7.02" width="36.42" height="54.44"/><polygon class="cls-18" points="1135.53 133.73 1122.83 133.73 1123.13 137.19 1135.23 137.19 1135.53 133.73"/><polygon class="cls-22" points="481.23 9.77 264.67 9.77 264.67 94.7 373.29 167.81 481.23 94.7 481.23 9.77"/><polygon class="cls-23" points="264.67 92.77 264.67 81.8 373.29 153.83 481.23 79.65 481.23 94.7 373.29 167.81 264.67 92.77"/><path class="cls-24" d="M495.7,91.17c3.14,3,2.69,7.41-1,9.93L373.55,183.49l-.24-.23-.15.14-122.7-81.22c-3.63-2.4-4.14-6.71-1.15-9.62l.87-.84a9.68,9.68,0,0,1,11.57-.89l111,73.49a.94.94,0,0,0,1,0l108.8-74a11,11,0,0,1,13.13.87Z"/><rect class="cls-23" x="362.56" y="80.73" width="24.81" height="31.71"/><rect class="cls-25" x="360.55" y="82.88" width="24.81" height="31.71"/><rect x="363.23" y="104.38" width="8.05" height="8.06"/><rect x="374.63" y="104.38" width="8.05" height="8.06"/><rect x="363.23" y="94.7" width="8.05" height="8.06"/><rect x="374.63" y="94.7" width="8.05" height="8.06"/><rect x="363.23" y="85.03" width="8.05" height="8.06"/><rect x="374.63" y="85.03" width="8.05" height="8.06"/><rect class="cls-23" x="293.5" y="28.59" width="24.81" height="31.71"/><rect class="cls-25" x="291.49" y="30.74" width="24.81" height="31.71"/><rect x="294.17" y="52.24" width="8.05" height="8.06"/><rect x="305.57" y="52.24" width="8.05" height="8.06"/><rect x="294.17" y="42.56" width="8.05" height="8.06"/><rect x="305.57" y="42.56" width="8.05" height="8.06"/><rect x="294.17" y="32.89" width="8.05" height="8.06"/><rect x="305.57" y="32.89" width="8.05" height="8.06"/><rect class="cls-23" x="361.22" y="28.59" width="24.81" height="31.71"/><rect class="cls-25" x="359.21" y="30.74" width="24.81" height="31.71"/><rect x="361.89" y="52.24" width="8.05" height="8.06"/><rect x="373.29" y="52.24" width="8.05" height="8.06"/><rect x="361.89" y="42.56" width="8.05" height="8.06"/><rect x="373.29" y="42.56" width="8.05" height="8.06"/><rect x="361.89" y="32.89" width="8.05" height="8.06"/><rect x="373.29" y="32.89" width="8.05" height="8.06"/><rect class="cls-23" x="424.91" y="28.59" width="24.81" height="31.71"/><rect class="cls-25" x="422.9" y="30.74" width="24.81" height="31.71"/><rect x="425.58" y="52.24" width="8.05" height="8.06"/><rect x="436.98" y="52.24" width="8.05" height="8.06"/><rect x="425.58" y="42.56" width="8.05" height="8.06"/><rect x="436.98" y="42.56" width="8.05" height="8.06"/><rect x="425.58" y="32.89" width="8.05" height="8.06"/><rect x="436.98" y="32.89" width="8.05" height="8.06"/><rect class="cls-26" x="188.55" y="142.82" width="14.54" height="17.01"/><polygon class="cls-27" points="267.34 82.45 267.34 7.86 124.89 7.86 124.89 82.45 196.4 140.72 267.34 82.45"/><polygon class="cls-28" points="267.34 82.45 267.34 67.82 196.96 125.48 124.89 66.86 124.89 82.45 196.4 140.72 267.34 82.45"/><rect class="cls-28" x="175.36" y="7.02" width="44.19" height="64.8"/><polygon class="cls-26" points="121.01 69.78 109 79.27 196.43 150.36 282.08 80.18 270.03 70.73 196.38 131.07 121.01 69.78"/><rect class="cls-29" x="174.31" y="7.86" width="44.19" height="64.8"/><rect class="cls-30" x="177.22" y="52.08" width="17.44" height="17.24"/><rect class="cls-30" x="197.57" y="52.08" width="17.44" height="17.24"/><rect class="cls-30" x="177.22" y="31.97" width="17.44" height="17.24"/><rect class="cls-30" x="197.57" y="31.97" width="17.44" height="17.24"/><rect class="cls-30" x="177.22" y="11.85" width="17.44" height="17.24"/><rect class="cls-30" x="197.57" y="11.85" width="17.44" height="17.24"/><rect class="cls-31" x="1451.83" y="149.46" width="14.54" height="17.01"/><polygon class="cls-27" points="1530.62 89.09 1530.62 14.51 1388.17 14.51 1388.17 89.09 1459.68 147.36 1530.62 89.09"/><polygon class="cls-28" points="1530.62 89.09 1530.62 74.46 1460.24 132.12 1388.17 73.51 1388.17 89.09 1459.68 147.36 1530.62 89.09"/><rect class="cls-28" x="1438.63" y="13.67" width="44.19" height="64.8"/><polygon class="cls-31" points="1384.29 76.42 1372.28 85.91 1459.7 157.01 1545.36 86.83 1533.31 77.37 1459.66 137.72 1384.29 76.42"/><rect class="cls-29" x="1437.59" y="14.51" width="44.19" height="64.8"/><rect class="cls-30" x="1440.5" y="58.72" width="17.44" height="17.24"/><rect class="cls-30" x="1460.85" y="58.72" width="17.44" height="17.24"/><rect class="cls-30" x="1440.5" y="38.61" width="17.44" height="17.24"/><rect class="cls-30" x="1460.85" y="38.61" width="17.44" height="17.24"/><rect class="cls-30" x="1440.5" y="18.5" width="17.44" height="17.24"/><rect class="cls-30" x="1460.85" y="18.5" width="17.44" height="17.24"/><polygon class="cls-32" points="1015.26 139.05 1001.45 139.05 1001.45 9.77 852.13 9.77 852.13 139.05 837.08 139.05 926.17 204.95 1015.26 139.05"/><polygon class="cls-33" points="1012.04 139.05 1001.45 139.05 1001.45 135.94 926.79 191.41 852.13 135.87 852.13 139.05 841.65 139.05 926.79 202.39 1012.04 139.05"/><rect class="cls-33" x="961.93" y="39.96" width="15.69" height="34.71"/><rect class="cls-33" x="964.44" y="58.06" width="11.29" height="15.09"/><rect class="cls-33" x="964.44" y="41.46" width="11.29" height="15.09"/><rect class="cls-33" x="919.89" y="9.77" width="15.69" height="45.77"/><rect class="cls-33" x="922.4" y="33.66" width="11.29" height="19.9"/><rect class="cls-33" x="922.4" y="11.76" width="11.29" height="19.9"/><rect class="cls-33" x="962.56" y="88.25" width="15.69" height="34.71"/><rect class="cls-33" x="965.07" y="106.35" width="11.29" height="15.09"/><rect class="cls-33" x="965.07" y="89.75" width="11.29" height="15.09"/><rect class="cls-33" x="919.89" y="88.75" width="15.69" height="34.71"/><rect class="cls-33" x="922.4" y="106.86" width="11.29" height="15.09"/><rect class="cls-33" x="922.4" y="90.26" width="11.29" height="15.09"/><rect class="cls-33" x="879.74" y="89.25" width="15.69" height="34.71"/><rect class="cls-33" x="882.25" y="107.36" width="11.29" height="15.09"/><rect class="cls-33" x="882.25" y="90.76" width="11.29" height="15.09"/><rect class="cls-34" x="877.23" y="90.26" width="16.31" height="34.71"/><rect class="cls-35" x="879.74" y="108.37" width="11.29" height="15.09"/><rect class="cls-35" x="879.74" y="91.77" width="11.29" height="15.09"/><rect class="cls-34" x="917.38" y="90.26" width="16.31" height="34.71"/><rect class="cls-35" x="919.89" y="108.37" width="11.29" height="15.09"/><rect class="cls-35" x="919.89" y="91.77" width="11.29" height="15.09"/><rect class="cls-34" x="959.42" y="89.75" width="16.31" height="34.71"/><rect class="cls-35" x="961.93" y="107.86" width="11.29" height="15.09"/><rect class="cls-35" x="961.93" y="91.26" width="11.29" height="15.09"/><polygon class="cls-36" points="835.16 132.83 828.33 138.73 927.42 212.45 1024.94 139.99 1018.12 134.09 927.42 201.47 835.16 132.83"/><rect class="cls-37" x="879.74" y="108.37" width="11.29" height="15.09"/><rect class="cls-37" x="919.89" y="108.37" width="11.29" height="15.09"/><rect class="cls-34" x="959.42" y="40.96" width="15.69" height="34.71"/><rect class="cls-35" x="961.93" y="59.07" width="11.29" height="15.09"/><rect class="cls-35" x="961.93" y="42.47" width="11.29" height="15.09"/><rect class="cls-34" x="916.13" y="9.77" width="17.57" height="45.77"/><rect class="cls-37" x="918.64" y="9.77" width="12.55" height="44.27"/><polygon class="cls-15" points="841.3 114.63 824.72 114.63 826.67 137.4 826.96 140.86 839.06 140.86 839.36 137.4 841.3 114.63"/><polygon class="cls-38" points="857.35 105.72 857.35 10.69 703.64 10.69 703.64 105.72 780.19 146.3 857.35 105.72"/><rect class="cls-39" x="703.64" y="10.69" width="153.71" height="27.72"/><rect class="cls-39" x="762.29" y="10.69" width="36.42" height="53.45"/><polygon class="cls-39" points="857.35 104.57 857.77 95.36 781.23 135.21 704 95.22 703.64 103.64 780.8 144.41 857.35 104.57"/><rect class="cls-39" x="815.07" y="53.01" width="32.41" height="36.63"/><rect class="cls-39" x="721.23" y="52.51" width="18.83" height="36.63"/><rect class="cls-19" x="813.22" y="54" width="32.41" height="36.63"/><rect class="cls-20" x="815.38" y="56.23" width="27.78" height="32.67"/><rect class="cls-19" x="817.23" y="73.05" width="11.11" height="14.18"/><rect class="cls-19" x="829.57" y="73.05" width="11.11" height="14.18"/><rect class="cls-19" x="817.23" y="57.22" width="11.11" height="14.18"/><rect class="cls-19" x="829.57" y="57.22" width="11.11" height="14.18"/><rect class="cls-19" x="719.69" y="53.75" width="17.9" height="36.63"/><rect class="cls-20" x="721.54" y="55.73" width="14.2" height="32.67"/><rect class="cls-19" x="722.78" y="73.05" width="11.11" height="14.18"/><rect class="cls-19" x="722.78" y="57.22" width="11.11" height="14.35"/><polyline class="cls-40" points="695.62 103.24 781.42 148.78 866 103.24"/><rect class="cls-19" x="759.2" y="10.69" width="36.42" height="54.44"/><polygon class="cls-18" points="839.36 137.4 826.67 137.4 826.96 140.86 839.06 140.86 839.36 137.4"/><path class="cls-13" d="M1062.08,20.25c3.43,6.69-.24,14.45-8.19,17.33-7.24,2.63-15.54.3-19.55-5.19a14.92,14.92,0,0,1-7.62,5.89,18,18,0,0,1-16.17-1.93,15.14,15.14,0,0,1-7.13,5.18c-7.95,2.88-17.17-.2-20.6-6.89s.24-14.45,8.19-17.33a18,18,0,0,1,16.17,1.93,15.14,15.14,0,0,1,7.13-5.18,18.3,18.3,0,0,1,12.11-.1,14.5,14.5,0,0,1,8.4-7.34c8-2.88,17.18.2,20.6,6.89.11.21.22.43.31.65A14.14,14.14,0,0,1,1062.08,20.25Z"/><path class="cls-14" d="M133.29,37.89a18.78,18.78,0,0,1-8.11-1.81A17.41,17.41,0,0,1,111,42.93a18.77,18.77,0,0,1-8.51-2,18.09,18.09,0,0,1-11.75,4.16A17.59,17.59,0,0,1,77.07,39a18.82,18.82,0,0,1-8.72,2.11c-9.23,0-16.71-6.44-16.71-14.39s7.48-14.38,16.71-14.38A17.62,17.62,0,0,1,82,18.43a19.07,19.07,0,0,1,17.22-.11A18.13,18.13,0,0,1,111,14.16,18.83,18.83,0,0,1,119.07,16a17.4,17.4,0,0,1,14.22-6.85c9.23,0,16.71,6.44,16.71,14.39S142.52,37.89,133.29,37.89Z"/><polygon class="cls-32" points="1400.24 114.4 1389.17 114.4 1389.17 10.69 1269.38 10.69 1269.38 114.4 1257.3 114.4 1328.77 167.27 1400.24 114.4"/><polygon class="cls-33" points="1397.67 114.4 1389.17 114.4 1389.17 111.91 1329.27 156.41 1269.38 111.85 1269.38 114.4 1260.97 114.4 1329.27 165.22 1397.67 114.4"/><rect class="cls-33" x="1357.46" y="34.9" width="12.58" height="27.85"/><rect class="cls-33" x="1359.47" y="49.43" width="9.06" height="12.11"/><rect class="cls-33" x="1359.47" y="36.11" width="9.06" height="12.11"/><rect class="cls-33" x="1323.74" y="10.69" width="12.58" height="36.72"/><rect class="cls-33" x="1325.75" y="29.85" width="9.06" height="15.97"/><rect class="cls-33" x="1325.75" y="12.29" width="9.06" height="15.97"/><rect class="cls-33" x="1357.96" y="73.64" width="12.58" height="27.85"/><rect class="cls-33" x="1359.98" y="88.17" width="9.06" height="12.11"/><rect class="cls-33" x="1359.98" y="74.86" width="9.06" height="12.11"/><rect class="cls-33" x="1323.74" y="74.05" width="12.58" height="27.85"/><rect class="cls-33" x="1325.75" y="88.58" width="9.06" height="12.11"/><rect class="cls-33" x="1325.75" y="75.26" width="9.06" height="12.11"/><rect class="cls-33" x="1291.52" y="74.45" width="12.58" height="27.85"/><rect class="cls-33" x="1293.54" y="88.98" width="9.06" height="12.11"/><rect class="cls-33" x="1293.54" y="75.66" width="9.06" height="12.11"/><rect class="cls-34" x="1289.51" y="75.26" width="13.09" height="27.85"/><rect class="cls-35" x="1291.52" y="89.79" width="9.06" height="12.11"/><rect class="cls-35" x="1291.52" y="76.47" width="9.06" height="12.11"/><rect class="cls-34" x="1321.72" y="75.26" width="13.09" height="27.85"/><rect class="cls-35" x="1323.74" y="89.79" width="9.06" height="12.11"/><rect class="cls-35" x="1323.74" y="76.47" width="9.06" height="12.11"/><rect class="cls-34" x="1355.45" y="74.86" width="13.09" height="27.85"/><rect class="cls-35" x="1357.46" y="89.38" width="9.06" height="12.11"/><rect class="cls-35" x="1357.46" y="76.07" width="9.06" height="12.11"/><polygon class="cls-36" points="1255.76 109.41 1250.28 114.15 1329.78 173.29 1408.02 115.16 1402.54 110.42 1329.78 164.48 1255.76 109.41"/><rect class="cls-37" x="1291.52" y="89.79" width="9.06" height="12.11"/><rect class="cls-37" x="1323.74" y="89.79" width="9.06" height="12.11"/><rect class="cls-34" x="1355.45" y="35.71" width="12.58" height="27.85"/><rect class="cls-35" x="1357.46" y="50.24" width="9.06" height="12.11"/><rect class="cls-35" x="1357.46" y="36.92" width="9.06" height="12.11"/><rect class="cls-34" x="1320.72" y="10.69" width="14.09" height="36.72"/><rect class="cls-37" x="1322.73" y="10.69" width="10.07" height="35.51"/><polygon class="cls-41" points="1285.31 9.77 1116.22 9.77 1116.22 76.09 1201.02 133.17 1285.31 76.09 1285.31 9.77"/><polygon class="cls-42" points="1116.22 74.58 1116.22 66.02 1201.02 122.26 1285.31 64.34 1285.31 76.09 1201.02 133.17 1116.22 74.58"/><path class="cls-43" d="M1296.61,73.33c2.45,2.31,2.1,5.79-.79,7.75l-94.59,64.34-.19-.19-.11.11-95.81-63.41c-2.84-1.88-3.24-5.24-.9-7.52l.68-.65a7.55,7.55,0,0,1,9-.69l86.69,57.37a.73.73,0,0,0,.78,0l85-57.79a8.57,8.57,0,0,1,10.25.68Z"/><rect class="cls-42" x="1192.65" y="65.18" width="19.37" height="24.76"/><rect class="cls-25" x="1191.08" y="66.86" width="19.37" height="24.76"/><rect x="1193.17" y="83.64" width="6.28" height="6.3"/><rect x="1202.07" y="83.64" width="6.28" height="6.3"/><rect x="1193.17" y="76.09" width="6.28" height="6.3"/><rect x="1202.07" y="76.09" width="6.28" height="6.3"/><rect x="1193.17" y="68.53" width="6.28" height="6.3"/><rect x="1202.07" y="68.53" width="6.28" height="6.3"/><rect class="cls-42" x="1138.73" y="24.46" width="19.37" height="24.76"/><rect class="cls-25" x="1137.16" y="26.14" width="19.37" height="24.76"/><rect x="1139.25" y="42.93" width="6.28" height="6.3"/><rect x="1148.15" y="42.93" width="6.28" height="6.3"/><rect x="1139.25" y="35.38" width="6.28" height="6.3"/><rect x="1148.15" y="35.38" width="6.28" height="6.3"/><rect x="1139.25" y="27.82" width="6.28" height="6.3"/><rect x="1148.15" y="27.82" width="6.28" height="6.3"/><rect class="cls-42" x="1191.6" y="24.46" width="19.37" height="24.76"/><rect class="cls-25" x="1190.03" y="26.14" width="19.37" height="24.76"/><rect x="1192.12" y="42.93" width="6.28" height="6.3"/><rect x="1201.02" y="42.93" width="6.28" height="6.3"/><rect x="1192.12" y="35.38" width="6.28" height="6.3"/><rect x="1201.02" y="35.38" width="6.28" height="6.3"/><rect x="1192.12" y="27.82" width="6.28" height="6.3"/><rect x="1201.02" y="27.82" width="6.28" height="6.3"/><rect class="cls-42" x="1241.33" y="24.46" width="19.37" height="24.76"/><rect class="cls-25" x="1239.76" y="26.14" width="19.37" height="24.76"/><rect x="1241.86" y="42.93" width="6.28" height="6.3"/><rect x="1250.76" y="42.93" width="6.28" height="6.3"/><rect x="1241.86" y="35.38" width="6.28" height="6.3"/><rect x="1250.76" y="35.38" width="6.28" height="6.3"/><rect x="1241.86" y="27.82" width="6.28" height="6.3"/><rect x="1250.76" y="27.82" width="6.28" height="6.3"/><path class="cls-13" d="M1.69,30.34C-2.82,21.33,2,10.86,12.48,7,22,3.43,33,6.57,38.24,14A19.68,19.68,0,0,1,48.27,6a23.32,23.32,0,0,1,21.3,2.61,20,20,0,0,1,9.39-7c10.48-3.89,22.63.27,27.14,9.28s-.31,19.48-10.78,23.37A23.33,23.33,0,0,1,74,31.7a20.06,20.06,0,0,1-9.39,7,23.69,23.69,0,0,1-16,.14A19.28,19.28,0,0,1,37.6,48.72C27.13,52.6,15,48.45,10.46,39.43c-.14-.29-.28-.58-.41-.87A18.88,18.88,0,0,1,1.69,30.34Z"/></g></g></g></svg>