<svg xmlns="http://www.w3.org/2000/svg" viewBox="0 0 219.84 114.07"><defs><style>.cls-1{fill:none;stroke:#fff;stroke-miterlimit:10;stroke-width:3px;stroke-dasharray:12;}</style></defs><g id="레이어_2" data-name="레이어 2"><g id="레이어_1-2" data-name="레이어 1"><path class="cls-1" d="M182.89,1.5H37A35.45,35.45,0,0,0,1.5,37v21.6A35.45,35.45,0,0,0,37,94H153.6L166,111.47,178.34,94h4.55a35.45,35.45,0,0,0,35.45-35.45V37A35.45,35.45,0,0,0,182.89,1.5Z"/><path d="M47.91,36.5,40.8,58h-.5l-5-12.32L30.33,58H29.8L22.63,36.5h4.25L30.62,49,35.1,36.5h.52l4.55,12.41L43.69,36.5Z"/><path d="M50.77,57.31a6.27,6.27,0,0,1-2.36-2.83,10.15,10.15,0,0,1-.75-4,10,10,0,0,1,.84-4.15,6.91,6.91,0,0,1,2.46-3,6.63,6.63,0,0,1,3.85-1.1c2.22,0,3.8.64,4.76,1.91A9.55,9.55,0,0,1,61,49.89c0,.5,0,1-.06,1.67H51.7a4.36,4.36,0,0,0,1,2.87,3.63,3.63,0,0,0,2.78,1,5.75,5.75,0,0,0,2-.43,4,4,0,0,0,1.62-1l1.23,2.92a9.73,9.73,0,0,1-5.54,1.45A7.41,7.41,0,0,1,50.77,57.31Zm6.32-8.16A6.14,6.14,0,0,0,56.53,46a1.84,1.84,0,0,0-1.63-.86,2.73,2.73,0,0,0-2.32,1.11,5.12,5.12,0,0,0-.91,2.86Z"/><path d="M70.35,57.92a4.06,4.06,0,0,1-1.41-1.26,5.46,5.46,0,0,1-.8-1.75V58H64.75V34.56h3.7v8.07l-.31,2.64a3.38,3.38,0,0,1,1-1.67,4.62,4.62,0,0,1,1.65-1,5.63,5.63,0,0,1,1.87-.33,5,5,0,0,1,4.32,2,10.12,10.12,0,0,1,1.47,6,11.19,11.19,0,0,1-.81,4.51,6.06,6.06,0,0,1-2.2,2.74,5.51,5.51,0,0,1-3.12.91A3.85,3.85,0,0,1,70.35,57.92Zm2.5-3.1A3.67,3.67,0,0,0,74,53.15a8.88,8.88,0,0,0,.41-2.92A8.24,8.24,0,0,0,74,47.49a3.42,3.42,0,0,0-1.06-1.61,2.35,2.35,0,0,0-1.47-.51,2.17,2.17,0,0,0-1.59.66,4.24,4.24,0,0,0-1,1.82,9.27,9.27,0,0,0-.34,2.63A8.59,8.59,0,0,0,68.86,53a4,4,0,0,0,1,1.71,2.16,2.16,0,0,0,1.52.6A2.35,2.35,0,0,0,72.85,54.82Z"/><path d="M82.73,57.69A4.72,4.72,0,0,1,81,56.51l1.14-2.92a6.45,6.45,0,0,0,4.19,1.63,2.25,2.25,0,0,0,1.48-.41,1.25,1.25,0,0,0,.49-1,1.5,1.5,0,0,0-.84-1.19,18.45,18.45,0,0,0-2.49-1.27,13,13,0,0,1-1.84-1A4.74,4.74,0,0,1,81.71,49a3.76,3.76,0,0,1-.57-2.11,4.24,4.24,0,0,1,.68-2.42,4.34,4.34,0,0,1,2-1.59A8,8,0,0,1,87,42.32a8.47,8.47,0,0,1,2.05.24,7.79,7.79,0,0,1,1.64.58,4,4,0,0,1,1,.66l-1,2.77A6.91,6.91,0,0,0,89,45.65a4.89,4.89,0,0,0-1.88-.38,3.17,3.17,0,0,0-1.62.3,1.09,1.09,0,0,0-.47,1,1.34,1.34,0,0,0,.68,1.15,11.66,11.66,0,0,0,2.12,1A9.24,9.24,0,0,1,91,50.69a3.7,3.7,0,0,1,1.11,2.71,4.85,4.85,0,0,1-.61,2.43,4.5,4.5,0,0,1-1.92,1.75,7.49,7.49,0,0,1-3.35.66A8.77,8.77,0,0,1,82.73,57.69Z"/><path d="M97.83,57.84a3.12,3.12,0,0,1-1.37-1.77,10,10,0,0,1-.39-3.1V45.86h-2V42.63h2.15l.22-3.24L99.8,38v4.68h3.78v3.23H99.8v7a3.46,3.46,0,0,0,.35,1.83,1.19,1.19,0,0,0,1.06.54,3.46,3.46,0,0,0,1.38-.33,5,5,0,0,0,1.24-.75l.74,3.11a6,6,0,0,1-1.95.81,8.73,8.73,0,0,1-2.12.33A5.16,5.16,0,0,1,97.83,57.84Z"/><path d="M108.2,57.78a3.9,3.9,0,0,1-1.41-1.67,5.65,5.65,0,0,1-.47-2.34,4,4,0,0,1,.75-2.24,5.68,5.68,0,0,1,2.66-1.9,13.91,13.91,0,0,1,5.15-.78v-.71a2.91,2.91,0,0,0-.6-2,2.76,2.76,0,0,0-2.14-.69,7,7,0,0,0-2.34.41,4,4,0,0,0-1.69,1l-1.23-3a10.15,10.15,0,0,1,2.6-1.2,10.86,10.86,0,0,1,3.31-.49,7.58,7.58,0,0,1,3.49.67,3.89,3.89,0,0,1,1.81,1.91,7.8,7.8,0,0,1,.52,3V58h-3.29L115,55.77a5.65,5.65,0,0,1-1.93,2,5.11,5.11,0,0,1-2.6.64A4.14,4.14,0,0,1,108.2,57.78Zm5.44-2.91a4.11,4.11,0,0,0,1.24-1.44V51.25a5.94,5.94,0,0,0-.73,0,7.14,7.14,0,0,0-2.78.51,1.74,1.74,0,0,0-1.23,1.67,1.74,1.74,0,0,0,2,2A2.59,2.59,0,0,0,113.64,54.87Z"/><path d="M134.35,43.71a6.42,6.42,0,0,1,1.17,4.12V58h-4V48.17a3.54,3.54,0,0,0-.55-2.09,1.86,1.86,0,0,0-1.63-.77,2.63,2.63,0,0,0-2.34,1.39,2.87,2.87,0,0,0-.37,1.47V58h-3.94V42.63h3.57l.08,2a5.09,5.09,0,0,1,4.51-2.38A4.14,4.14,0,0,1,134.35,43.71Z"/><path d="M141.87,57.39a6.42,6.42,0,0,1-2.13-2.82,11.13,11.13,0,0,1-.74-4.25,9.84,9.84,0,0,1,1.56-6,5.34,5.34,0,0,1,4.59-2.11,4.44,4.44,0,0,1,2.67.78,3.66,3.66,0,0,1,1.4,2.23L148.94,43V34.56h3.63V58h-3.35V54.82a5.19,5.19,0,0,1-1.5,2.61,3.76,3.76,0,0,1-2.63,1A5.31,5.31,0,0,1,141.87,57.39Zm5.54-2.57a3.61,3.61,0,0,0,1.05-1.64,8.56,8.56,0,0,0,.39-2.79,8.07,8.07,0,0,0-.69-3.73,2.24,2.24,0,0,0-2.08-1.29,2.64,2.64,0,0,0-1.5.47,3.4,3.4,0,0,0-1.16,1.59,7.79,7.79,0,0,0-.45,2.89,8.58,8.58,0,0,0,.39,2.78,3.61,3.61,0,0,0,1.08,1.68,2.33,2.33,0,0,0,1.55.56A2.23,2.23,0,0,0,147.41,54.82Z"/><path d="M157.56,57.78a3.9,3.9,0,0,1-1.41-1.67,5.65,5.65,0,0,1-.47-2.34,4,4,0,0,1,.75-2.24,5.68,5.68,0,0,1,2.66-1.9,13.93,13.93,0,0,1,5.16-.78v-.71a2.91,2.91,0,0,0-.61-2,2.76,2.76,0,0,0-2.14-.69,7,7,0,0,0-2.34.41,4,4,0,0,0-1.69,1l-1.23-3a10.15,10.15,0,0,1,2.6-1.2,10.86,10.86,0,0,1,3.31-.49,7.58,7.58,0,0,1,3.49.67,3.85,3.85,0,0,1,1.81,1.91,7.8,7.8,0,0,1,.52,3V58h-3.29l-.28-2.19a5.65,5.65,0,0,1-1.93,2,5.11,5.11,0,0,1-2.6.64A4.14,4.14,0,0,1,157.56,57.78ZM163,54.87a4.24,4.24,0,0,0,1.25-1.44V51.25a6.25,6.25,0,0,0-.74,0,7.14,7.14,0,0,0-2.78.51,1.74,1.74,0,0,0-1.23,1.67A2.15,2.15,0,0,0,160,55a2.12,2.12,0,0,0,1.51.47A2.59,2.59,0,0,0,163,54.87Z"/><path d="M171.94,42.63h3.48l.19,2.71a5.1,5.1,0,0,1,1.55-2,4.69,4.69,0,0,1,3-.86,3.8,3.8,0,0,1,1.41.25l-.86,4a1.65,1.65,0,0,0-.62-.38,3.28,3.28,0,0,0-.89-.11,3.54,3.54,0,0,0-3,1.51,2,2,0,0,0-.39,1V58h-3.85Z"/><path d="M185.47,57.39a6.42,6.42,0,0,1-2.13-2.82,11.32,11.32,0,0,1-.74-4.25,9.84,9.84,0,0,1,1.56-6,5.35,5.35,0,0,1,4.6-2.11,4.43,4.43,0,0,1,2.66.78,3.62,3.62,0,0,1,1.4,2.23L192.54,43V34.56h3.64V58h-3.36V54.82a5.18,5.18,0,0,1-1.49,2.61,3.8,3.8,0,0,1-2.64,1A5.31,5.31,0,0,1,185.47,57.39ZM191,54.82a3.53,3.53,0,0,0,1.05-1.64,8.56,8.56,0,0,0,.39-2.79,8.07,8.07,0,0,0-.69-3.73,2.23,2.23,0,0,0-2.08-1.29,2.68,2.68,0,0,0-1.5.47A3.47,3.47,0,0,0,187,47.43a7.79,7.79,0,0,0-.45,2.89A8.58,8.58,0,0,0,187,53.1,3.61,3.61,0,0,0,188,54.78a2.35,2.35,0,0,0,1.55.56A2.21,2.21,0,0,0,191,54.82Z"/></g></g></svg>