<svg xmlns="http://www.w3.org/2000/svg" viewBox="0 0 100.16 196.24"><defs><style>.cls-1{fill:#fff;}</style></defs><g id="레이어_2" data-name="레이어 2"><g id="레이어_1-2" data-name="레이어 1"><polygon class="cls-1" points="82.6 18.42 82.6 168.07 0 168.07 48.35 66.55 0 66.44 53.78 15.2 92.2 0 82.6 18.42"/><path class="cls-1" d="M100.16,42.52c0,17.88-12.25-6.08-27.27-6.08s-27.13,24-27.13,6.08S57.94,10.14,73,10.14,100.16,24.64,100.16,42.52Z"/><polyline class="cls-1" points="63.81 159.98 63.5 192.21 72.56 190.43 78.57 196.06 58.71 196.06 59.1 159.98"/><polyline class="cls-1" points="40.17 162.39 40.8 192.3 49.83 190.35 55.94 195.88 36.09 196.24 35.46 162.48"/><ellipse class="cls-1" cx="81.09" cy="44.46" rx="13.67" ry="20.77"/></g></g></svg>