<svg xmlns="http://www.w3.org/2000/svg" viewBox="0 0 631.7 157.68"><defs><style>.cls-1,.cls-10,.cls-11,.cls-12,.cls-13,.cls-14,.cls-15,.cls-16,.cls-17,.cls-18,.cls-19,.cls-2,.cls-20,.cls-21,.cls-22,.cls-23,.cls-24,.cls-25,.cls-26,.cls-27,.cls-28,.cls-29,.cls-3,.cls-30,.cls-31,.cls-32,.cls-33,.cls-34,.cls-35,.cls-36,.cls-37,.cls-38,.cls-39,.cls-4,.cls-5,.cls-6,.cls-7,.cls-8,.cls-9{fill:none;stroke:#fff;stroke-miterlimit:10;stroke-width:2px;}.cls-2{stroke-dasharray:11.04 11.04;}.cls-3{stroke-dasharray:11.46 11.46;}.cls-4{stroke-dasharray:11.46 11.46;}.cls-5{stroke-dasharray:11.05 11.05;}.cls-6{stroke-dasharray:11.32 11.32;}.cls-7{stroke-dasharray:11.19 11.19;}.cls-8{stroke-dasharray:11.22 11.22;}.cls-9{stroke-dasharray:11.91 11.91;}.cls-10{stroke-dasharray:13.03 13.03;}.cls-11{stroke-dasharray:11.4 11.4;}.cls-12{stroke-dasharray:11.17 11.17;}.cls-13{stroke-dasharray:11.23 11.23;}.cls-14{stroke-dasharray:12.39 12.39;}.cls-15{stroke-dasharray:11.89 11.89;}.cls-16{stroke-dasharray:12.21 12.21;}.cls-17{stroke-dasharray:12.7 12.7;}.cls-18{stroke-dasharray:11.05 11.05;}.cls-19{stroke-dasharray:11.19 11.19;}.cls-20{stroke-dasharray:9.82 9.82;}.cls-21{stroke-dasharray:9.93 9.93;}.cls-22{stroke-dasharray:11.05 11.05;}.cls-23{stroke-dasharray:9.35 9.35;}.cls-24{stroke-dasharray:12.62 12.62;}.cls-25{stroke-dasharray:12.23 12.23;}.cls-26{stroke-dasharray:6.75 6.75;}.cls-27{stroke-dasharray:12.08 12.08;}.cls-28{stroke-dasharray:8.49 8.49;}.cls-29{stroke-dasharray:15.44 15.44;}.cls-30{stroke-dasharray:6.09 6.09;}.cls-31{stroke-dasharray:11.69 11.69;}.cls-32{stroke-dasharray:10.86 10.86;}.cls-33{stroke-dasharray:6.29 6.29;}.cls-34{stroke-dasharray:12.64 12.64;}.cls-35{stroke-dasharray:12.64 12.64;}.cls-36{stroke-dasharray:10.99 10.99;}.cls-37{stroke-dasharray:6.29 6.29;}.cls-38{stroke-dasharray:12.14 12.14;}.cls-39{stroke-dasharray:12.9 12.9;}</style></defs><g id="레이어_2" data-name="레이어 2"><g id="레이어_1-2" data-name="레이어 1"><polyline class="cls-1" points="64.87 1.03 70.87 1.04 70.56 7.03"/><line class="cls-2" x1="69.99" y1="18.06" x2="63.5" y2="144.9"/><polyline class="cls-1" points="63.22 150.42 62.91 156.41 56.91 156.4"/><polyline class="cls-1" points="55.12 156.4 49.12 156.4 48.26 150.46"/><line class="cls-3" x1="46.6" y1="139.12" x2="37.51" y2="76.75"/><polyline class="cls-1" points="36.69 71.08 35.82 65.14 34.94 65.14 34.07 71.07"/><line class="cls-4" x1="32.41" y1="82.41" x2="23.25" y2="144.78"/><polyline class="cls-1" points="22.42 150.45 21.55 156.39 15.55 156.38"/><polyline class="cls-1" points="15.51 156.38 9.51 156.38 9.19 150.39"/><line class="cls-5" x1="8.59" y1="139.36" x2="1.68" y2="12.51"/><polyline class="cls-1" points="1.38 6.99 1.06 1 7.06 1"/><polyline class="cls-1" points="11.03 1 17.03 1.01 17.03 7.01"/><line class="cls-6" x1="17.02" y1="18.33" x2="16.97" y2="125.9"/><polyline class="cls-1" points="16.97 131.56 16.96 137.56 17.84 137.56 18.5 131.6"/><line class="cls-7" x1="19.75" y1="120.48" x2="29.08" y2="37.05"/><polyline class="cls-1" points="29.7 31.49 30.37 25.52 39.78 25.53 40.55 31.48"/><line class="cls-8" x1="42" y1="42.61" x2="52.88" y2="126.07"/><polyline class="cls-1" points="53.61 131.63 54.38 137.58 55.48 137.58 55.48 131.58"/><line class="cls-6" x1="55.49" y1="120.26" x2="55.54" y2="12.69"/><polyline class="cls-1" points="55.54 7.03 55.55 1.03 61.55 1.03"/><polyline class="cls-1" points="118.87 94.57 118.31 88.59 112.42 87.43"/><polyline class="cls-1" points="105.38 86.03 99.49 84.86 99.49 90.86"/><line class="cls-9" x1="99.48" y1="102.78" x2="99.46" y2="144.47"/><polyline class="cls-1" points="99.46 150.43 99.46 156.43 93.46 156.42"/><polyline class="cls-1" points="89.26 156.42 83.26 156.42 83.27 150.42"/><line class="cls-10" x1="83.27" y1="137.38" x2="83.33" y2="13.56"/><polyline class="cls-1" points="83.34 7.04 83.34 1.04 89.34 1.04"/><polyline class="cls-1" points="93.1 1.05 99.1 1.05 98.88 7.05"/><line class="cls-11" x1="98.48" y1="18.43" x2="97.07" y2="58.29"/><polyline class="cls-1" points="96.87 63.99 96.65 69.98 102.65 69.68"/><polyline class="cls-1" points="112.33 69.2 118.32 68.9 118.32 62.9"/><line class="cls-12" x1="118.33" y1="51.73" x2="118.35" y2="12.64"/><polyline class="cls-1" points="118.35 7.06 118.35 1.06 124.35 1.06"/><polyline class="cls-1" points="128.33 1.06 134.33 1.07 134.33 7.07"/><line class="cls-10" x1="134.32" y1="20.1" x2="134.26" y2="143.93"/><polyline class="cls-1" points="134.25 150.44 134.25 156.44 124.62 156.44 124.07 150.46"/><line class="cls-13" x1="123.03" y1="139.29" x2="119.39" y2="100.16"/><path class="cls-1" d="M156,12.33v-6A31.31,31.31,0,0,1,161.52,4" transform="translate(0 0)"/><path class="cls-14" d="M173.67,1.73q6.53-.64,15.59-.64a15,15,0,0,1,9.62,3,9.24,9.24,0,0,1,3.72,7.56l-1.47,132.66" transform="translate(0 0)"/><polyline class="cls-1" points="201.06 150.48 201 156.48 195 156.47"/><path class="cls-15" d="M183.11,156.47H171.89q-9,0-12.47-2.85t-3.5-9.41L156,18.28" transform="translate(0 0)"/><polyline class="cls-1" points="179.49 143.49 185.47 144 187.44 142.03 187.47 138.81"/><path class="cls-16" d="M187.6,126.6l1.21-109.53c0-.73-.65-1.17-2-1.31L183,15.57" transform="translate(0 0)"/><polyline class="cls-1" points="176.9 15.27 173.27 15.09 171.3 16.41 171.24 22.4"/><line class="cls-17" x1="171.1" y1="35.1" x2="170.06" y2="130.33"/><polyline class="cls-1" points="169.99 136.67 169.93 142.67 175.91 143.18"/><polyline class="cls-1" points="318.06 1.16 324.06 1.16 323.75 7.15"/><line class="cls-2" x1="323.19" y1="18.18" x2="316.69" y2="145.03"/><polyline class="cls-1" points="316.41 150.54 316.1 156.53 310.1 156.53"/><polyline class="cls-1" points="308.32 156.53 302.32 156.53 301.45 150.59"/><line class="cls-3" x1="299.8" y1="139.25" x2="290.71" y2="76.87"/><polyline class="cls-1" points="289.88 71.2 289.01 65.26 288.14 65.26 287.27 71.2"/><line class="cls-4" x1="285.6" y1="82.54" x2="276.45" y2="144.91"/><polyline class="cls-1" points="275.61 150.58 274.74 156.51 268.74 156.51"/><polyline class="cls-1" points="268.71 156.51 262.71 156.51 262.38 150.52"/><line class="cls-18" x1="261.78" y1="139.49" x2="254.88" y2="12.63"/><polyline class="cls-1" points="254.57 7.12 254.25 1.13 260.25 1.13"/><polyline class="cls-1" points="264.23 1.13 270.23 1.14 270.22 7.13"/><line class="cls-6" x1="270.22" y1="18.46" x2="270.16" y2="126.03"/><polyline class="cls-1" points="270.16 131.69 270.16 137.69 271.03 137.69 271.7 131.73"/><line class="cls-19" x1="272.94" y1="120.61" x2="282.27" y2="37.18"/><polyline class="cls-1" points="282.89 31.61 283.56 25.65 292.97 25.66 293.75 31.61"/><line class="cls-8" x1="295.2" y1="42.73" x2="306.08" y2="126.2"/><polyline class="cls-1" points="306.8 131.76 307.58 137.71 308.67 137.71 308.68 131.71"/><line class="cls-6" x1="308.68" y1="120.39" x2="308.73" y2="12.82"/><polyline class="cls-1" points="308.74 7.15 308.74 1.15 314.74 1.16"/><polyline class="cls-1" points="381.1 150.57 381.1 156.57 375.1 156.56"/><polyline class="cls-1" points="374.41 156.56 368.41 156.56 367.85 150.59"/><line class="cls-20" x1="366.94" y1="140.81" x2="363.76" y2="106.58"/><polyline class="cls-1" points="363.3 101.69 362.75 95.72 351.59 95.71 350.6 101.63"/><line class="cls-21" x1="348.98" y1="111.43" x2="343.28" y2="145.73"/><polyline class="cls-1" points="342.47 150.63 341.49 156.55 331.2 156.54 331.59 150.55"/><line class="cls-22" x1="332.29" y1="139.52" x2="340.39" y2="12.67"/><polyline class="cls-1" points="340.75 7.16 341.13 1.17 347.13 1.17"/><line class="cls-23" x1="356.48" y1="1.18" x2="370.5" y2="1.19"/><polyline class="cls-1" points="375.18 1.19 381.18 1.19 381.17 7.19"/><line class="cls-10" x1="381.17" y1="20.22" x2="381.1" y2="144.05"/><path class="cls-24" d="M366.07,8.19h-9.41a1.16,1.16,0,0,0-1.31,1.31l0,74.85c0,.73.44,1.09,1.31,1.09H366a1.17,1.17,0,0,0,1.32-1.32l0-74.62A1.16,1.16,0,0,0,366.07,8.19Z" transform="translate(0 0)"/><polyline class="cls-1" points="444.62 26.08 444.4 32.08 436.31 32.08 434.82 26.26"/><polyline class="cls-1" points="433.42 20.82 431.94 15 425.98 15.7"/><polyline class="cls-1" points="424.76 15.84 418.81 16.53 418.4 22.51"/><line class="cls-25" x1="417.57" y1="34.72" x2="416.32" y2="53.02"/><polyline class="cls-1" points="415.91 59.12 415.5 65.11 421.4 66.17"/><line class="cls-26" x1="428.04" y1="67.36" x2="438" y2="69.16"/><polyline class="cls-1" points="441.32 69.75 447.23 70.81 446.97 76.81"/><path class="cls-27" d="M446.46,88.88l-2.33,54.59q0,4.38-5.7,8.75c-3.79,2.92-7.3,4.37-10.5,4.37H414.36" transform="translate(0 0)"/><polyline class="cls-1" points="408.32 156.58 402.32 156.58 402.01 150.59"/><line class="cls-28" x1="401.57" y1="142.11" x2="400.91" y2="129.39"/><polyline class="cls-1" points="400.68 125.15 400.37 119.16 406.37 119.16"/><polyline class="cls-1" points="407.28 119.16 413.28 119.16 413.21 125.16"/><polyline class="cls-1" points="413.13 132.2 413.06 138.2 418.9 139.54"/><polyline class="cls-1" points="422.52 140.37 428.37 141.71 428.74 135.72"/><line class="cls-29" x1="429.67" y1="120.31" x2="431.07" y2="97.19"/><polyline class="cls-1" points="431.54 89.49 431.9 83.5 426.05 82.19"/><line class="cls-30" x1="420.1" y1="80.87" x2="411.19" y2="78.89"/><polyline class="cls-1" points="408.22 78.22 402.36 76.92 402.37 70.92"/><line class="cls-31" x1="402.37" y1="59.23" x2="402.39" y2="18.3"/><polyline class="cls-1" points="402.39 12.45 402.4 6.45 407.54 3.37"/><line class="cls-32" x1="417.8" y1="1.21" x2="434.08" y2="1.22"/><polyline class="cls-1" points="439.51 1.22 445.51 1.22 445.3 7.22"/><line class="cls-33" x1="445.07" y1="13.51" x2="444.73" y2="22.94"/><polyline class="cls-1" points="523.38 146.26 523.56 152.26 517.56 152.26"/><polyline class="cls-1" points="511.18 152.25 505.18 152.25 505.18 146.25"/><line class="cls-34" x1="505.18" y1="133.62" x2="505.24" y2="13.57"/><polyline class="cls-1" points="505.25 7.25 505.25 1.25 511.25 1.25"/><polyline class="cls-1" points="513.04 1.26 519.04 1.26 519.22 7.26"/><line class="cls-35" x1="519.6" y1="19.89" x2="523.19" y2="139.95"/><polyline class="cls-1" points="603.96 116.78 603.45 122.76 593.6 121 593.6 115"/><polyline class="cls-36" points="593.61 104.01 593.62 78.11 611.58 49.01 613.32 26.77"/><polyline class="cls-1" points="613.75 21.29 614.22 15.31 608.22 15.31"/><polyline class="cls-1" points="604.03 15.31 598.03 15.3 594.42 20.1"/><polyline class="cls-1" points="593.65 32.07 593.42 38.06 582.7 36.52 582.7 30.52"/><line class="cls-37" x1="582.7" y1="24.24" x2="582.71" y2="14.81"/><polyline class="cls-1" points="582.71 11.67 582.71 5.67 588.56 4.31"/><polyline class="cls-38" points="600.39 1.57 601.54 1.3 618.57 1.31"/><polyline class="cls-1" points="624.64 1.31 630.64 1.31 630.32 7.31"/><polyline class="cls-39" points="629.63 20.19 627.77 55.15 606.53 86.87 604.51 110.35"/><polyline class="cls-1" points="588.55 142.54 588.56 136.54 594.55 136.29"/><polyline class="cls-1" points="603.57 135.92 609.57 135.67 609.31 141.67"/><polyline class="cls-1" points="608.93 150.69 608.68 156.68 602.68 156.68"/><polyline class="cls-1" points="594.55 156.67 588.55 156.67 588.55 150.67"/></g></g></svg>