<svg xmlns="http://www.w3.org/2000/svg" xmlns:xlink="http://www.w3.org/1999/xlink" viewBox="0 0 688.99 646.34"><defs><style>.cls-1,.cls-4{fill:none;}.cls-2{fill:#296c77;}.cls-2,.cls-7{opacity:0.78;}.cls-3{fill:#b3e5f4;}.cls-4{stroke:#000;stroke-linecap:round;stroke-miterlimit:10;stroke-width:3px;}.cls-5{fill:#295a7a;}.cls-6{clip-path:url(#clip-path);}.cls-7{fill:#33738d;}.cls-8{fill:#4092a0;opacity:0.55;}.cls-9{fill:#c2e4e5;opacity:0.67;}.cls-10{fill:#fff;}.cls-11{fill:#f2f2e7;}.cls-12{opacity:0.42;}.cls-13{fill:#71a8b5;}.cls-14{opacity:0.22;}.cls-15{fill:#133b42;}.cls-16{clip-path:url(#clip-path-2);}.cls-17{clip-path:url(#clip-path-3);}.cls-18{fill:#020911;}.cls-19{fill:#072a43;}.cls-20{clip-path:url(#clip-path-4);}.cls-21{clip-path:url(#clip-path-5);}.cls-22{clip-path:url(#clip-path-6);}</style><clipPath id="clip-path" transform="translate(95.33)"><rect class="cls-1" x="181.19" y="40.89" width="167.81" height="129.9"/></clipPath><clipPath id="clip-path-2" transform="translate(95.33)"><rect class="cls-1" x="181.19" y="182.49" width="167.81" height="129.9"/></clipPath><clipPath id="clip-path-3" transform="translate(95.33)"><rect class="cls-1" x="181.19" y="324.1" width="167.81" height="129.9"/></clipPath><clipPath id="clip-path-4" transform="translate(95.33)"><rect class="cls-1" y="40.89" width="167.81" height="129.9"/></clipPath><clipPath id="clip-path-5" transform="translate(95.33)"><rect class="cls-1" y="182.49" width="167.81" height="129.9"/></clipPath><clipPath id="clip-path-6" transform="translate(95.33)"><rect class="cls-1" y="324.1" width="167.81" height="129.9"/></clipPath></defs><title>Asset 18</title><g id="Layer_2" data-name="Layer 2"><g id="레이어_1" data-name="레이어 1"><circle class="cls-2" cx="636.31" cy="55.32" r="52.68"/><circle class="cls-3" cx="633.02" cy="52.68" r="52.68"/><circle cx="633.02" cy="7.9" r="3.29"/><circle cx="604.23" cy="18.38" r="3.29"/><circle cx="588.92" cy="44.91" r="3.29"/><circle cx="594.24" cy="75.07" r="3.29"/><circle cx="617.7" cy="94.76" r="3.29"/><circle cx="648.33" cy="94.76" r="3.29"/><circle cx="671.8" cy="75.07" r="3.29"/><circle cx="677.12" cy="44.91" r="3.29"/><circle cx="661.8" cy="18.38" r="3.29"/><circle cx="633.68" cy="50.05" r="5.27"/><line class="cls-4" x1="633.68" y1="50.05" x2="633.68" y2="82.23"/><line class="cls-4" x1="633.68" y1="50.71" x2="647.5" y2="65.85"/><rect class="cls-5" x="95.33" y="40.89" width="167.81" height="129.9"/><rect class="cls-5" x="276.52" y="40.89" width="167.81" height="129.9"/><rect class="cls-5" x="95.33" y="182.49" width="167.81" height="129.9"/><rect class="cls-5" x="276.52" y="182.49" width="167.81" height="129.9"/><rect class="cls-5" x="95.33" y="324.1" width="167.81" height="129.9"/><rect class="cls-5" x="276.52" y="324.1" width="167.81" height="129.9"/><g class="cls-6"><circle class="cls-7" cx="338.12" cy="138.74" r="103.99"/><circle class="cls-8" cx="338.12" cy="138.74" r="53.8"/><circle class="cls-9" cx="338.12" cy="138.74" r="31.04"/><circle class="cls-10" cx="338.38" cy="139" r="16.3"/><circle class="cls-11" cx="330.48" cy="138.1" r="6.33"/><circle class="cls-11" cx="335.19" cy="128.39" r="3.45"/><g class="cls-12"><path class="cls-13" d="M189.82,122a5.74,5.74,0,0,1-5.75,5.75h-79a5.75,5.75,0,1,1,0-11.49h9.43a5,5,0,1,0,0-10.05H82.12a5.75,5.75,0,1,1,0-11.49h30.16v0a5,5,0,0,0,0-10v0H95.76a5.39,5.39,0,0,1,0-10.77h44.62a5.39,5.39,0,0,1,0,10.77h-13a5,5,0,1,0,0,10H161.1a5.75,5.75,0,1,1,0,11.49H141.71a5,5,0,1,0,0,10.05h42.36A5.74,5.74,0,0,1,189.82,122Z" transform="translate(95.33)"/></g><g class="cls-14"><path class="cls-15" d="M-95.33,160.1a14.39,14.39,0,0,1,4.21-10.19,14.38,14.38,0,0,1,10.18-4.2H116.92a14.39,14.39,0,1,1,0,28.78H93.29c-7.47,0-13.49,5.63-13.49,12.59s6,12.59,13.49,12.59h81.2a14.39,14.39,0,1,1,0,28.78H98.94v.09c-6.73.7-12,6-12,12.5s5.22,11.8,12,12.5v.09h41.37a13.49,13.49,0,0,1,0,27H28.53a13.49,13.49,0,1,1,0-27H61.16c7.45,0,13.49-5.63,13.49-12.59s-6-12.59-13.49-12.59H-23.38a14.39,14.39,0,0,1-14.39-14.39,14.41,14.41,0,0,1,4.21-10.18,14.41,14.41,0,0,1,10.18-4.21H25.19c7.44,0,13.49-5.63,13.49-12.59s-6-12.59-13.49-12.59H-80.94A14.39,14.39,0,0,1-95.33,160.1Z" transform="translate(95.33)"/></g></g><g class="cls-16"><circle class="cls-7" cx="338.12" cy="138.74" r="103.99"/><circle class="cls-8" cx="338.12" cy="138.74" r="53.8"/><circle class="cls-9" cx="338.12" cy="138.74" r="31.04"/><circle class="cls-10" cx="338.38" cy="139" r="16.3"/><circle class="cls-11" cx="330.48" cy="138.1" r="6.33"/><circle class="cls-11" cx="335.19" cy="128.39" r="3.45"/><g class="cls-12"><path class="cls-13" d="M189.82,122a5.74,5.74,0,0,1-5.75,5.75h-79a5.75,5.75,0,1,1,0-11.49h9.43a5,5,0,1,0,0-10.05H82.12a5.75,5.75,0,1,1,0-11.49h30.16v0a5,5,0,0,0,0-10v0H95.76a5.39,5.39,0,0,1,0-10.77h44.62a5.39,5.39,0,0,1,0,10.77h-13a5,5,0,1,0,0,10H161.1a5.75,5.75,0,1,1,0,11.49H141.71a5,5,0,1,0,0,10.05h42.36A5.74,5.74,0,0,1,189.82,122Z" transform="translate(95.33)"/></g><g class="cls-14"><path class="cls-15" d="M-95.33,160.1a14.39,14.39,0,0,1,4.21-10.19,14.38,14.38,0,0,1,10.18-4.2H116.92a14.39,14.39,0,1,1,0,28.78H93.29c-7.47,0-13.49,5.63-13.49,12.59s6,12.59,13.49,12.59h81.2a14.39,14.39,0,1,1,0,28.78H98.94v.09c-6.73.7-12,6-12,12.5s5.22,11.8,12,12.5v.09h41.37a13.49,13.49,0,0,1,0,27H28.53a13.49,13.49,0,1,1,0-27H61.16c7.45,0,13.49-5.63,13.49-12.59s-6-12.59-13.49-12.59H-23.38a14.39,14.39,0,0,1-14.39-14.39,14.41,14.41,0,0,1,4.21-10.18,14.41,14.41,0,0,1,10.18-4.21H25.19c7.44,0,13.49-5.63,13.49-12.59s-6-12.59-13.49-12.59H-80.94A14.39,14.39,0,0,1-95.33,160.1Z" transform="translate(95.33)"/></g></g><g class="cls-17"><polygon class="cls-18" points="407.54 541.53 401.71 541.9 375.51 572.67 375.51 524.06 350.8 524.06 350.8 550.26 350.8 560.51 332.2 550.26 318.77 545.9 350.8 568.83 350.8 638.16 350.8 646.34 375.51 646.34 375.51 585 407.54 541.53"/><path class="cls-19" d="M403.91,497.86a13,13,0,0,0-2.18.22c0-.08-.05-.16-.08-.24,8.54-.15,15.37-3.34,15.37-7.26,0-2.86-3.63-5.32-8.9-6.51a13.08,13.08,0,0,0-8.93-23.94,13.51,13.51,0,0,0-2.58.63,59.89,59.89,0,0,0-1.14-11.07,13,13,0,0,0-8.3-24.4,13.05,13.05,0,0,0-9.11-8.49,85,85,0,0,0-8.61-8.09,10.28,10.28,0,0,0,2.92-6.93c0-7.61-9.74-13.85-22.16-14.49a11.44,11.44,0,0,0,2.75-7.35c0-7.23-7.16-13.1-16-13.1a19,19,0,0,0-6.4,1.1,12.68,12.68,0,0,0,2-6.92c0-6.43-4.56-11.65-10.19-11.65a9.64,9.64,0,0,0-7.46,3.77c-.85-5.45-5-9.59-10-9.59a9.12,9.12,0,0,0-4.48,1.23c0-.41.11-.81.11-1.23,0-6.43-4.56-11.64-10.19-11.64a9.58,9.58,0,0,0-7.28,3.51,9.58,9.58,0,0,0-7.28-3.51c-5.63,0-10.19,5.21-10.19,11.64a13.18,13.18,0,0,0,.2,2.29,13,13,0,0,0-20.79,0A13.07,13.07,0,1,0,221.91,356a13,13,0,0,0-8.55,10.9c-.53,0-1.06-.07-1.6-.07-8.84,0-16,5.87-16,13.1a11.13,11.13,0,0,0,1.56,5.62,21.92,21.92,0,0,0-7.39-1.25c-8,0-14.55,3.91-14.55,8.74s6.51,8.73,14.55,8.73a23.23,23.23,0,0,0,5.47-.65,10.09,10.09,0,0,0-2.55,6.47c0,4.15,2.9,7.88,7.53,10.53a6.15,6.15,0,0,0-1.71,4,5.51,5.51,0,0,0,.42,2,26.74,26.74,0,0,0-7.85-1.86,7.27,7.27,0,1,0-10.52.89,18.87,18.87,0,0,0-8.42,4.6,13.07,13.07,0,0,0-26,1.65c0,.07,0,.14,0,.22A29.44,29.44,0,0,0,136.06,428c-8.84,0-16,3.26-16,7.28,0,2.11,2,4,5.15,5.34-4.81,1.25-8.06,3.6-8.06,6.31,0,1.66,1.24,3.19,3.31,4.42-.61,0-1.23-.06-1.86-.06-8.84,0-16,3.26-16,7.28s7.17,7.28,16,7.28a28.49,28.49,0,0,0,11.06-2,11.47,11.47,0,0,0,5.47,3.44A12.82,12.82,0,0,0,133,481.58c-2.6-2.42-8.06-4.1-14.4-4.1-8.84,0-16,3.26-16,7.28s7.17,7.27,16,7.27c.6,0,1.19,0,1.77,0,1.44,3.34,7.92,5.87,15.7,5.87a29.2,29.2,0,0,0,10.54-1.81,43.34,43.34,0,0,0,1.65,7.61,12.33,12.33,0,0,0-4.69,6.9,11.9,11.9,0,0,0-1.47-.6,13.1,13.1,0,0,0-16.78,11.33c-.77-.07-1.54-.14-2.35-.14-8,0-14.56,3.91-14.56,8.73,0,3,2.53,5.65,6.37,7.22a13,13,0,0,0,5.35,21.12,6.65,6.65,0,0,0-.07.78c0,8,10.86,14.55,24.26,14.55a34.58,34.58,0,0,0,16.28-3.78,13,13,0,0,0,4.59.87,13.1,13.1,0,0,0,13.1-13.1,12.9,12.9,0,0,0-.25-2.42,29.12,29.12,0,0,0,7.53,1,25.31,25.31,0,0,0,14-3.86c1.24,4,3.6,6.77,6.34,6.77,2.15,0,4.06-1.71,5.39-4.37a28.75,28.75,0,0,0,9.16,1.46c9.89,0,18-4.67,18.84-10.61a28,28,0,0,0,10.28,1.87c10.45,0,18.92-5.21,18.92-11.64v-.08c1,.22,2,.43,3,.63a12.48,12.48,0,0,0-3,8.18c0,6.43,4.57,11.65,10.19,11.65s10-5,10.16-11.32c3.35,3.3,9.27,5.49,16.05,5.49,10.45,0,18.92-5.21,18.92-11.64a9.06,9.06,0,0,0-.07-.91,29.65,29.65,0,0,0,7.35.91,28,28,0,0,0,10.28-1.88c.46,5.94,4.78,10.61,10.1,10.61,5.63,0,10.19-5.21,10.19-11.64,0-.29-.06-.55-.07-.83a12.82,12.82,0,0,0,4.44.83,12.65,12.65,0,0,0,1.75-.18c1.17.1,2.36.18,3.58.18,13.4,0,24.27-6.52,24.27-14.56,0,0,0-.06,0-.1a13.08,13.08,0,1,0,8.25-23.19ZM392.6,483.1a15.15,15.15,0,0,0,1.31,1c-.64.14-1.26.3-1.85.48C392.26,484.06,392.42,483.58,392.6,483.1ZM227.69,381.26h.1c0,.05,0,.1,0,.15s0,.05,0,.08h-.13C227.66,381.41,227.68,381.34,227.69,381.26Zm-57.61,55.67a1.49,1.49,0,0,1,.12-.14l.06.16Zm-19.86,1.88-.29.08.2-.15ZM294.84,354c0,.41-.1.81-.1,1.23,0,.2,0,.39.05.6-1.92-.2-3.86-.35-5.85-.45-.08-.12-.19-.23-.28-.35a8.78,8.78,0,0,0,1.71.2A9.09,9.09,0,0,0,294.84,354Z" transform="translate(95.33)"/><path class="cls-18" d="M403.91,497.86a10.4,10.4,0,0,0-2.18.23l-.09-.26c8.56-.15,15.38-3.32,15.38-7.25,0-2.85-3.64-5.33-8.88-6.52a13.08,13.08,0,0,0-8.94-23.93,13.44,13.44,0,0,0-2.59.64,58.14,58.14,0,0,0-1.14-11.07,13.06,13.06,0,0,0-6.11-24.63,11.13,11.13,0,0,0-2.19.23,13,13,0,0,0-9.11-8.5,81,81,0,0,0-8.62-8.09,10.34,10.34,0,0,0,2.94-6.93c0-7.63-9.75-13.86-22.15-14.5a11.55,11.55,0,0,0,2.73-7.34c0-7.25-7.16-13.1-16-13.1a19,19,0,0,0-6.4,1.11,12.85,12.85,0,0,0,2-6.93c0-6.43-4.57-11.65-10.19-11.65a9.57,9.57,0,0,0-7.45,3.76c-.87-5.44-5-9.58-10-9.58a9.32,9.32,0,0,0-4.49,1.22,8.27,8.27,0,0,0,.12-1.22c0-6.43-4.57-11.64-10.19-11.64a9.52,9.52,0,0,0-7.28,3.52,9.52,9.52,0,0,0-7.28-3.52c-5.62,0-10.19,5.21-10.19,11.64a11.72,11.72,0,0,0,.21,2.3,13,13,0,0,0-20.79,0,13.08,13.08,0,0,0-26,2.07,11.46,11.46,0,0,0,.55,3.64,37.78,37.78,0,0,1,14-2.54c14.47,0,26.2,7.25,26.2,16.19v0c-6.55.47-11.65,3.9-11.65,8.07a6.05,6.05,0,0,0,2.1,4.39,15.42,15.42,0,0,0,9.46,3.64c.5,0,1,.06,1.54.06a16.94,16.94,0,0,0,10.19-3,17,17,0,0,0,10.19,3c4.9,0,9.15-1.63,11.39-4.08,8,2.77,13.36,8,13.36,14.1v0c-6.55.47-11.64,3.91-11.64,8.07,0,.23,0,.47.05.7a25.36,25.36,0,0,0-4.42,1.72,20.24,20.24,0,0,0-7.45,5.59A37,37,0,0,0,295,404.75c3.49,2.74,5.56,6.2,5.56,10a11.37,11.37,0,0,1-2.77,7.22,37.49,37.49,0,0,1,10,2.06,23.15,23.15,0,0,1,4.71,2.19,8.62,8.62,0,0,0-.35,2.44,7.53,7.53,0,0,0,.21,1.84A12.44,12.44,0,0,0,318,438a16.47,16.47,0,0,0,2.79,1.63,29.64,29.64,0,0,0,11.82,2.85,13.64,13.64,0,0,1,2.59,2.18,10.5,10.5,0,0,1,3,5.45,18.41,18.41,0,0,0,7.11-6.23,30.09,30.09,0,0,1,4.95.78,4.58,4.58,0,0,0-.21,1.4c0,4.49,5.86,8.1,13.1,8.1a5.39,5.39,0,0,0,.7,0,8.85,8.85,0,0,1,.76,3.58c0,7.68-9.78,13.91-21.84,13.91-1,0-2,0-3-.14a20.36,20.36,0,0,1,4.86,4.69c-5.3,1.07-9.14,4.13-9.14,7.74a5,5,0,0,0,.43,2c1.05,2.59,4.14,4.66,8.13,5.56a20.65,20.65,0,0,0,4.54.49,19.52,19.52,0,0,0,5-.61c5,3.23,8.1,7.63,8.1,12.43,0,8.83-10.31,16.19-23.87,17.68a12.81,12.81,0,0,1,3.49,8.53,12.67,12.67,0,0,1-2.74,7.63,29.32,29.32,0,0,0,2.83-.94c.46,5.94,4.77,10.6,10.1,10.6,5.62,0,10.19-5.21,10.19-11.64,0-.3-.06-.56-.06-.82a12.86,12.86,0,0,0,4.43.82,11,11,0,0,0,1.74-.18,35,35,0,0,0,3.58.18c13.43,0,24.28-6.53,24.28-14.56,0,0,0-.06,0-.09a13.08,13.08,0,1,0,8.26-23.2Zm-109.12-142c-1.92-.21-3.87-.35-5.85-.47-.09-.11-.2-.23-.29-.35a8.42,8.42,0,0,0,1.72.21,9.21,9.21,0,0,0,4.48-1.23,8.52,8.52,0,0,0-.11,1.23C294.74,355.4,294.79,355.6,294.79,355.81Zm97.27,128.74c.21-.49.35-1,.53-1.45.44.35.87.67,1.31,1A17.07,17.07,0,0,0,392.06,484.55Z" transform="translate(95.33)"/></g><g class="cls-20"><circle class="cls-7" cx="338.12" cy="138.74" r="103.99"/><circle class="cls-8" cx="338.12" cy="138.74" r="53.8"/><circle class="cls-9" cx="338.12" cy="138.74" r="31.04"/><circle class="cls-10" cx="338.38" cy="139" r="16.3"/><circle class="cls-11" cx="330.48" cy="138.1" r="6.33"/><circle class="cls-11" cx="335.19" cy="128.39" r="3.45"/><g class="cls-12"><path class="cls-13" d="M189.82,122a5.74,5.74,0,0,1-5.75,5.75h-79a5.75,5.75,0,1,1,0-11.49h9.43a5,5,0,1,0,0-10.05H82.12a5.75,5.75,0,1,1,0-11.49h30.16v0a5,5,0,0,0,0-10v0H95.76a5.39,5.39,0,0,1,0-10.77h44.62a5.39,5.39,0,0,1,0,10.77h-13a5,5,0,1,0,0,10H161.1a5.75,5.75,0,1,1,0,11.49H141.71a5,5,0,1,0,0,10.05h42.36A5.74,5.74,0,0,1,189.82,122Z" transform="translate(95.33)"/></g><g class="cls-14"><path class="cls-15" d="M-95.33,160.1a14.39,14.39,0,0,1,4.21-10.19,14.38,14.38,0,0,1,10.18-4.2H116.92a14.39,14.39,0,1,1,0,28.78H93.29c-7.47,0-13.49,5.63-13.49,12.59s6,12.59,13.49,12.59h81.2a14.39,14.39,0,1,1,0,28.78H98.94v.09c-6.73.7-12,6-12,12.5s5.22,11.8,12,12.5v.09h41.37a13.49,13.49,0,0,1,0,27H28.53a13.49,13.49,0,1,1,0-27H61.16c7.45,0,13.49-5.63,13.49-12.59s-6-12.59-13.49-12.59H-23.38a14.39,14.39,0,0,1-14.39-14.39,14.41,14.41,0,0,1,4.21-10.18,14.41,14.41,0,0,1,10.18-4.21H25.19c7.44,0,13.49-5.63,13.49-12.59s-6-12.59-13.49-12.59H-80.94A14.39,14.39,0,0,1-95.33,160.1Z" transform="translate(95.33)"/></g></g><g class="cls-21"><circle class="cls-7" cx="338.12" cy="138.74" r="103.99"/><circle class="cls-8" cx="338.12" cy="138.74" r="53.8"/><circle class="cls-9" cx="338.12" cy="138.74" r="31.04"/><circle class="cls-10" cx="338.38" cy="139" r="16.3"/><circle class="cls-11" cx="330.48" cy="138.1" r="6.33"/><circle class="cls-11" cx="335.19" cy="128.39" r="3.45"/><g class="cls-12"><path class="cls-13" d="M189.82,122a5.74,5.74,0,0,1-5.75,5.75h-79a5.75,5.75,0,1,1,0-11.49h9.43a5,5,0,1,0,0-10.05H82.12a5.75,5.75,0,1,1,0-11.49h30.16v0a5,5,0,0,0,0-10v0H95.76a5.39,5.39,0,0,1,0-10.77h44.62a5.39,5.39,0,0,1,0,10.77h-13a5,5,0,1,0,0,10H161.1a5.75,5.75,0,1,1,0,11.49H141.71a5,5,0,1,0,0,10.05h42.36A5.74,5.74,0,0,1,189.82,122Z" transform="translate(95.33)"/></g><g class="cls-14"><path class="cls-15" d="M-95.33,160.1a14.39,14.39,0,0,1,4.21-10.19,14.38,14.38,0,0,1,10.18-4.2H116.92a14.39,14.39,0,1,1,0,28.78H93.29c-7.47,0-13.49,5.63-13.49,12.59s6,12.59,13.49,12.59h81.2a14.39,14.39,0,1,1,0,28.78H98.94v.09c-6.73.7-12,6-12,12.5s5.22,11.8,12,12.5v.09h41.37a13.49,13.49,0,0,1,0,27H28.53a13.49,13.49,0,1,1,0-27H61.16c7.45,0,13.49-5.63,13.49-12.59s-6-12.59-13.49-12.59H-23.38a14.39,14.39,0,0,1-14.39-14.39,14.41,14.41,0,0,1,4.21-10.18,14.41,14.41,0,0,1,10.18-4.21H25.19c7.44,0,13.49-5.63,13.49-12.59s-6-12.59-13.49-12.59H-80.94A14.39,14.39,0,0,1-95.33,160.1Z" transform="translate(95.33)"/></g></g><g class="cls-22"><polygon class="cls-18" points="407.54 541.53 401.71 541.9 375.51 572.67 375.51 524.06 350.8 524.06 350.8 550.26 350.8 560.51 332.2 550.26 318.77 545.9 350.8 568.83 350.8 638.16 350.8 646.34 375.51 646.34 375.51 585 407.54 541.53"/><path class="cls-19" d="M403.91,497.86a13,13,0,0,0-2.18.22c0-.08-.05-.16-.08-.24,8.54-.15,15.37-3.34,15.37-7.26,0-2.86-3.63-5.32-8.9-6.51a13.08,13.08,0,0,0-8.93-23.94,13.51,13.51,0,0,0-2.58.63,59.89,59.89,0,0,0-1.14-11.07,13,13,0,0,0-8.3-24.4,13.05,13.05,0,0,0-9.11-8.49,85,85,0,0,0-8.61-8.09,10.28,10.28,0,0,0,2.92-6.93c0-7.61-9.74-13.85-22.16-14.49a11.44,11.44,0,0,0,2.75-7.35c0-7.23-7.16-13.1-16-13.1a19,19,0,0,0-6.4,1.1,12.68,12.68,0,0,0,2-6.92c0-6.43-4.56-11.65-10.19-11.65a9.64,9.64,0,0,0-7.46,3.77c-.85-5.45-5-9.59-10-9.59a9.12,9.12,0,0,0-4.48,1.23c0-.41.11-.81.11-1.23,0-6.43-4.56-11.64-10.19-11.64a9.58,9.58,0,0,0-7.28,3.51,9.58,9.58,0,0,0-7.28-3.51c-5.63,0-10.19,5.21-10.19,11.64a13.18,13.18,0,0,0,.2,2.29,13,13,0,0,0-20.79,0A13.07,13.07,0,1,0,221.91,356a13,13,0,0,0-8.55,10.9c-.53,0-1.06-.07-1.6-.07-8.84,0-16,5.87-16,13.1a11.13,11.13,0,0,0,1.56,5.62,21.92,21.92,0,0,0-7.39-1.25c-8,0-14.55,3.91-14.55,8.74s6.51,8.73,14.55,8.73a23.23,23.23,0,0,0,5.47-.65,10.09,10.09,0,0,0-2.55,6.47c0,4.15,2.9,7.88,7.53,10.53a6.15,6.15,0,0,0-1.71,4,5.51,5.51,0,0,0,.42,2,26.74,26.74,0,0,0-7.85-1.86,7.27,7.27,0,1,0-10.52.89,18.87,18.87,0,0,0-8.42,4.6,13.07,13.07,0,0,0-26,1.65c0,.07,0,.14,0,.22A29.44,29.44,0,0,0,136.06,428c-8.84,0-16,3.26-16,7.28,0,2.11,2,4,5.15,5.34-4.81,1.25-8.06,3.6-8.06,6.31,0,1.66,1.24,3.19,3.31,4.42-.61,0-1.23-.06-1.86-.06-8.84,0-16,3.26-16,7.28s7.17,7.28,16,7.28a28.49,28.49,0,0,0,11.06-2,11.47,11.47,0,0,0,5.47,3.44A12.82,12.82,0,0,0,133,481.58c-2.6-2.42-8.06-4.1-14.4-4.1-8.84,0-16,3.26-16,7.28s7.17,7.27,16,7.27c.6,0,1.19,0,1.77,0,1.44,3.34,7.92,5.87,15.7,5.87a29.2,29.2,0,0,0,10.54-1.81,43.34,43.34,0,0,0,1.65,7.61,12.33,12.33,0,0,0-4.69,6.9,11.9,11.9,0,0,0-1.47-.6,13.1,13.1,0,0,0-16.78,11.33c-.77-.07-1.54-.14-2.35-.14-8,0-14.56,3.91-14.56,8.73,0,3,2.53,5.65,6.37,7.22a13,13,0,0,0,5.35,21.12,6.65,6.65,0,0,0-.07.78c0,8,10.86,14.55,24.26,14.55a34.58,34.58,0,0,0,16.28-3.78,13,13,0,0,0,4.59.87,13.1,13.1,0,0,0,13.1-13.1,12.9,12.9,0,0,0-.25-2.42,29.12,29.12,0,0,0,7.53,1,25.31,25.31,0,0,0,14-3.86c1.24,4,3.6,6.77,6.34,6.77,2.15,0,4.06-1.71,5.39-4.37a28.75,28.75,0,0,0,9.16,1.46c9.89,0,18-4.67,18.84-10.61a28,28,0,0,0,10.28,1.87c10.45,0,18.92-5.21,18.92-11.64v-.08c1,.22,2,.43,3,.63a12.48,12.48,0,0,0-3,8.18c0,6.43,4.57,11.65,10.19,11.65s10-5,10.16-11.32c3.35,3.3,9.27,5.49,16.05,5.49,10.45,0,18.92-5.21,18.92-11.64a9.06,9.06,0,0,0-.07-.91,29.65,29.65,0,0,0,7.35.91,28,28,0,0,0,10.28-1.88c.46,5.94,4.78,10.61,10.1,10.61,5.63,0,10.19-5.21,10.19-11.64,0-.29-.06-.55-.07-.83a12.82,12.82,0,0,0,4.44.83,12.65,12.65,0,0,0,1.75-.18c1.17.1,2.36.18,3.58.18,13.4,0,24.27-6.52,24.27-14.56,0,0,0-.06,0-.1a13.08,13.08,0,1,0,8.25-23.19ZM392.6,483.1a15.15,15.15,0,0,0,1.31,1c-.64.14-1.26.3-1.85.48C392.26,484.06,392.42,483.58,392.6,483.1ZM227.69,381.26h.1c0,.05,0,.1,0,.15s0,.05,0,.08h-.13C227.66,381.41,227.68,381.34,227.69,381.26Zm-57.61,55.67a1.49,1.49,0,0,1,.12-.14l.06.16Zm-19.86,1.88-.29.08.2-.15ZM294.84,354c0,.41-.1.81-.1,1.23,0,.2,0,.39.05.6-1.92-.2-3.86-.35-5.85-.45-.08-.12-.19-.23-.28-.35a8.78,8.78,0,0,0,1.71.2A9.09,9.09,0,0,0,294.84,354Z" transform="translate(95.33)"/><path class="cls-18" d="M403.91,497.86a10.4,10.4,0,0,0-2.18.23l-.09-.26c8.56-.15,15.38-3.32,15.38-7.25,0-2.85-3.64-5.33-8.88-6.52a13.08,13.08,0,0,0-8.94-23.93,13.44,13.44,0,0,0-2.59.64,58.14,58.14,0,0,0-1.14-11.07,13.06,13.06,0,0,0-6.11-24.63,11.13,11.13,0,0,0-2.19.23,13,13,0,0,0-9.11-8.5,81,81,0,0,0-8.62-8.09,10.34,10.34,0,0,0,2.94-6.93c0-7.63-9.75-13.86-22.15-14.5a11.55,11.55,0,0,0,2.73-7.34c0-7.25-7.16-13.1-16-13.1a19,19,0,0,0-6.4,1.11,12.85,12.85,0,0,0,2-6.93c0-6.43-4.57-11.65-10.19-11.65a9.57,9.57,0,0,0-7.45,3.76c-.87-5.44-5-9.58-10-9.58a9.32,9.32,0,0,0-4.49,1.22,8.27,8.27,0,0,0,.12-1.22c0-6.43-4.57-11.64-10.19-11.64a9.52,9.52,0,0,0-7.28,3.52,9.52,9.52,0,0,0-7.28-3.52c-5.62,0-10.19,5.21-10.19,11.64a11.72,11.72,0,0,0,.21,2.3,13,13,0,0,0-20.79,0,13.08,13.08,0,0,0-26,2.07,11.46,11.46,0,0,0,.55,3.64,37.78,37.78,0,0,1,14-2.54c14.47,0,26.2,7.25,26.2,16.19v0c-6.55.47-11.65,3.9-11.65,8.07a6.05,6.05,0,0,0,2.1,4.39,15.42,15.42,0,0,0,9.46,3.64c.5,0,1,.06,1.54.06a16.94,16.94,0,0,0,10.19-3,17,17,0,0,0,10.19,3c4.9,0,9.15-1.63,11.39-4.08,8,2.77,13.36,8,13.36,14.1v0c-6.55.47-11.64,3.91-11.64,8.07,0,.23,0,.47.05.7a25.36,25.36,0,0,0-4.42,1.72,20.24,20.24,0,0,0-7.45,5.59A37,37,0,0,0,295,404.75c3.49,2.74,5.56,6.2,5.56,10a11.37,11.37,0,0,1-2.77,7.22,37.49,37.49,0,0,1,10,2.06,23.15,23.15,0,0,1,4.71,2.19,8.62,8.62,0,0,0-.35,2.44,7.53,7.53,0,0,0,.21,1.84A12.44,12.44,0,0,0,318,438a16.47,16.47,0,0,0,2.79,1.63,29.64,29.64,0,0,0,11.82,2.85,13.64,13.64,0,0,1,2.59,2.18,10.5,10.5,0,0,1,3,5.45,18.41,18.41,0,0,0,7.11-6.23,30.09,30.09,0,0,1,4.95.78,4.58,4.58,0,0,0-.21,1.4c0,4.49,5.86,8.1,13.1,8.1a5.39,5.39,0,0,0,.7,0,8.85,8.85,0,0,1,.76,3.58c0,7.68-9.78,13.91-21.84,13.91-1,0-2,0-3-.14a20.36,20.36,0,0,1,4.86,4.69c-5.3,1.07-9.14,4.13-9.14,7.74a5,5,0,0,0,.43,2c1.05,2.59,4.14,4.66,8.13,5.56a20.65,20.65,0,0,0,4.54.49,19.52,19.52,0,0,0,5-.61c5,3.23,8.1,7.63,8.1,12.43,0,8.83-10.31,16.19-23.87,17.68a12.81,12.81,0,0,1,3.49,8.53,12.67,12.67,0,0,1-2.74,7.63,29.32,29.32,0,0,0,2.83-.94c.46,5.94,4.77,10.6,10.1,10.6,5.62,0,10.19-5.21,10.19-11.64,0-.3-.06-.56-.06-.82a12.86,12.86,0,0,0,4.43.82,11,11,0,0,0,1.74-.18,35,35,0,0,0,3.58.18c13.43,0,24.28-6.53,24.28-14.56,0,0,0-.06,0-.09a13.08,13.08,0,1,0,8.26-23.2Zm-109.12-142c-1.92-.21-3.87-.35-5.85-.47-.09-.11-.2-.23-.29-.35a8.42,8.42,0,0,0,1.72.21,9.21,9.21,0,0,0,4.48-1.23,8.52,8.52,0,0,0-.11,1.23C294.74,355.4,294.79,355.6,294.79,355.81Zm97.27,128.74c.21-.49.35-1,.53-1.45.44.35.87.67,1.31,1A17.07,17.07,0,0,0,392.06,484.55Z" transform="translate(95.33)"/></g></g></g></svg>