<svg xmlns="http://www.w3.org/2000/svg" viewBox="0 0 629.59 155.68"><defs><style>.cls-1{fill:#fff;}</style></defs><g id="레이어_2" data-name="레이어 2"><g id="레이어_1-2" data-name="레이어 1"><path class="cls-1" d="M69.81,0l-8,155.38H48.07L34.76,64.14h-.87l-13.4,91.25h-12L0,0H16l-.07,136.55h.87l12.53-112h9.41L53.33,136.58h1.09L54.49,0Z"/><path class="cls-1" d="M117.25,87.59,98.44,83.86l0,71.57H82.21L82.28,0H98L95.6,69l21.66-1.08,0-67.84h16l-.07,155.37h-9.63Z"/><path class="cls-1" d="M170.83,155.46q-9,0-12.47-2.85t-3.49-9.41l.06-137.87A40.56,40.56,0,0,1,167.52,1.4,129,129,0,0,1,188.2.09a15.07,15.07,0,0,1,9.63,3,9.2,9.2,0,0,1,3.71,7.56l-1.6,144.87ZM184.41,143l2-2,1.37-125c0-.73-.65-1.17-2-1.31l-13.57-.67-2,1.31-1.38,126.27Z"/><path class="cls-1" d="M323,.16l-7.95,155.37H301.26L288,64.26h-.88l-13.39,91.25h-12L253.19.13h16l-.07,136.56H270l12.53-112h9.41l14.6,112.05h1.1L307.68.15Z"/><path class="cls-1" d="M380,155.57H367.35l-5.66-60.84H350.53l-10.1,60.84H330.15L340.07.17l40.05,0ZM365,7.19h-9.41a1.16,1.16,0,0,0-1.32,1.31l0,74.85c0,.73.43,1.09,1.31,1.09H365a1.16,1.16,0,0,0,1.31-1.32l0-74.62A1.16,1.16,0,0,0,365,7.19Z"/><path class="cls-1" d="M435.25,31.07,430.88,14l-13.13,1.53-3.31,48.58,31.73,5.7-3.1,72.66q0,4.38-5.69,8.75t-10.51,4.37h-25.6l-1.95-37.43h12.91l-.23,19,15.32,3.51,3.53-58.21-29.54-6.58,0-70.47L410.1.21h34.36l-1.11,30.86Z"/><path class="cls-1" d="M522.5,151.26H504.12l.07-151H518Z"/><path class="cls-1" d="M592.54,120l0-42.89,18-29.1,2.65-33.7H597L593,19.55l-.67,17.51-10.72-1.54,0-30.85L600.48.3h29.11l-2.88,53.84L605.47,85.87l-3.08,35.89Zm-5,15.54,21-.87-.89,21H587.49Z"/></g></g></svg>