<svg xmlns="http://www.w3.org/2000/svg" viewBox="0 0 177.08 163.5"><defs><style>.cls-1{fill:#fff;}</style></defs><g id="레이어_2" data-name="레이어 2"><g id="레이어_1-2" data-name="레이어 1"><path class="cls-1" d="M122.71,6.89c-2.79,3.93,0,7.14,1.94,10.53C131,28.55,140,37.14,150.49,44.34c5.77,3.94,11.17,5.6,17.55,1.44,2.05-1.34,5.47-3.43,7.06,0,1.68,3.64-2.35,4.54-4.64,5.08-7.54,1.77-10.49,6.74-11.82,13.91-2.57,13.82-2.3,27.34,2,40.81a6.52,6.52,0,0,0,4.21,4.54c3,1.19,5.93,2.41,8.84,3.76,1.77.82,4,1.85,3.15,4.23-1.1,3-3.91,2.08-5.61.92-11.68-8-20.1-1.24-28.65,5.89a81.37,81.37,0,0,0-17.38,19.94c-2.66,4.32-5.09,8.38-1.82,13.52,1.15,1.81.89,4.1-1.44,5-2.07.75-3.32-1.06-3.68-2.7-1.27-5.91-5.83-7.18-10.75-8.34a78.42,78.42,0,0,0-37.27-.08c-4.51,1.11-9.35,1.55-11,7.14A2.42,2.42,0,0,1,55.79,161c-.74-.34-1.75-1.62-1.59-2.16,3.88-13.06-6.71-19.49-13-27.6-3.38-4.37-8.4-7.52-12.84-11-6.18-4.85-12.65-7.31-20.1-2.22-1.85,1.27-4.9,2.9-6.28-.46s2.14-4.38,4.16-4.77C15.39,111,17.73,104.16,19,96.34a85.35,85.35,0,0,0-1.22-34.42c-1.31-5.35-3.59-8.84-9-10.2A32.2,32.2,0,0,1,2,48.82C.6,48.14-.52,47,.25,45.25S2.38,43.31,4,43.76A11.33,11.33,0,0,1,7.41,45c8.11,5.76,15.16,2.78,22-2.46,9.28-7.07,17.45-15.1,23.32-25.37C54.94,13.35,56.57,9.92,54,5.65,53,4,52.37,1.58,54.63.43c2.95-1.49,4,1.2,4.61,3.21,1.24,4.49,4.44,5.82,8.54,6.91a80,80,0,0,0,42.34-.2c3.2-.87,6.12-1.67,7.23-5.36.5-1.67,1.68-3.23,3.8-2.65C123.44,3,123,4.88,122.71,6.89ZM65.46,16.16c3.3,13,4.21,13.85,15.89,14.44a136.19,136.19,0,0,0,14.71,0c11.69-.68,13.09-2.05,15.36-14.43A88.87,88.87,0,0,1,65.46,16.16Zm53.26,128.63c7.66-14.79,19.32-24.6,32.41-33.41-12.36-6.67-12.41-6.73-21.86,1.73a117.07,117.07,0,0,0-9.34,9.43C111.56,131.93,111.61,132,118.72,144.79Zm-60.18-.64c7-11.45,7.1-11.83-.69-20.82a117.46,117.46,0,0,0-10.88-11c-8.71-7.7-9.7-7.65-21.16-.57C39.76,119.65,50.28,130.64,58.54,144.15ZM25.59,52C38.64,58.36,38.73,58.46,48,50.18A113.94,113.94,0,0,0,58.72,39c6.92-8.16,6.78-10.42-.55-19.54C50.44,33.07,39.51,43.44,25.59,52ZM112,147.1c-4.56-13.71-4.56-13.82-17.45-14.29a162.84,162.84,0,0,0-17,.3c-8.09.55-11.58,5.07-11,14a84.93,84.93,0,0,1,22-2.85C96.12,144.18,103.61,145.41,112,147.1Zm39.21-95.18C137.79,43.47,126.73,33,118.75,19.28c-7,11-7.13,11.85,0,20.2a113.52,113.52,0,0,0,10.79,11C138.85,58.73,139.09,58.65,151.18,51.92ZM23.12,58.75A87.82,87.82,0,0,1,23,104.82c13.26-3.53,13.18-3.54,14.3-15.59a84.38,84.38,0,0,0,0-15.41C36.25,61.73,36.31,61.72,23.12,58.75Zm131.13-.46c-13.41,3.94-13.32,4-14.46,15.94a86.91,86.91,0,0,0,.12,16.13c1,11.14,1.6,11.81,14.24,14C149.83,89.2,150,74.21,154.25,58.29ZM84.1,36.45c-1.46-.16-2.93-.22-4.37-.48-5.61-1-6.57.41-4.65,6.09,3.18,9.41,10.6,5.49,16.52,6.44,6.35,1,9-2.5,11-8,1.71-4.74-.25-5-3.89-4.63C93.87,36.35,89,37.2,84.1,36.45ZM45.27,59.76C57,66.55,57.19,66.51,66.8,56.28c6.48-6.9,6.48-7.52-.23-17.65C60.2,46.21,53.67,53.47,45.27,59.76Zm65.09-21.33c-6.5,11.28-6.46,11.6,2.23,20.09,8,7.86,8,7.86,19.17,1.22A136.06,136.06,0,0,1,110.36,38.43ZM66.88,125.28c6.83-14.58,6.83-10-2-20.17-1-1.11-2.31-1.88-3.2-3-4.78-6.17-9.59-2.06-14.29,0-2.1.9-1.13,2.27.17,3.29C54.67,110.93,60.7,117.65,66.88,125.28Zm43.43-.23a137.67,137.67,0,0,1,21.86-21.77c-12.4-6-11.93-5.5-21.22,2.9C103.88,112.56,105.58,118.08,110.31,125.05Zm-21.87,1.61c3,.19,6.43.31,9.83.64,4,.39,5.92-.12,4.1-5s-4.24-7.85-10-7.15c-3.37.41-6.83,0-10.24.18-3.72.18-9.28,6.65-8.18,10.11,1.26,4,4.92,1.37,7.48,1.66C83.62,127.3,85.85,126.84,88.44,126.66ZM42.54,97C56,93.09,55.7,93.06,55.11,76.28c-.3-8.66-7.06-7.39-12.59-10.16A137.68,137.68,0,0,1,42.54,97Zm92-30.39c-12.89,3.63-12.44,3.64-12.7,17.66-.13,7,2.6,10.1,8.8,11.92,3.14.91,4.11.35,3.7-2.67C133.17,84.74,133.8,76,134.56,66.57ZM60.68,89.42a92.82,92.82,0,0,0,19.6-8c-7-2.87-12.83-5.24-19.23-7.87-.16,2.54-.33,4.18-.35,5.82C60.65,82.51,60.68,85.68,60.68,89.42ZM82.76,76c-2.06-5.32-3.8-9-5-12.92-1.93-6.52-4.31-6-8.47-1.5-6,6.61-6.3,6.39,2.09,9.88C74.73,72.83,78.07,74.11,82.76,76Zm14.17,5.67c2.83,1.28,4.58,2.13,6.37,2.89,14.24,6.08,14.25,6.07,12.74-10.35C109.7,75.46,104.13,78.48,96.93,81.66ZM94.3,76.1c5.12-2.09,8.65-3.51,12.16-5,7.7-3.22,7.7-3.24,1.55-9.23-5.86-5.71-5.86-5.71-9,2.1C97.71,67.37,96.39,70.77,94.3,76.1ZM89.44,91.37c-3.54,5.7-8.63,11.09-7.46,17,.46,2.39,8.36.58,12.88.69.3,0,.62-.55,1.34-1.25Zm12.91,15.87c3.87-4.57,10.05-7.09,9.83-11.48-.16-3.2-7.06-3.87-11-5.58-1.83-.8-3.67-2.61-6.39-1.23ZM83,87.3C76.45,90,71.53,92,66.62,94c-1.29.53-3.38,1.14-1.81,2.88,2.93,3.22,5.43,8,9.59,8.55,2.65.38,2.92-4.93,4.26-7.68S81.08,91.94,83,87.3Zm5.73-13.51c2.7-6.47,4.69-11.19,6.64-15.93.71-1.73,1.16-3.59-1.62-3.6-3.91,0-8.87-1.17-11.45.76-2.83,2.11,1.32,5.95,2.21,9.08C85.25,66.85,86.73,69.4,88.69,73.79Z"/></g></g></svg>