<svg xmlns="http://www.w3.org/2000/svg" viewBox="0 0 112.34 171.11"><defs><style>.cls-1{fill:#fff;}</style></defs><g id="레이어_2" data-name="레이어 2"><g id="레이어_1-2" data-name="레이어 1"><path class="cls-1" d="M112.19,99.71c0,19.25.06,34.87,0,50.48-.06,12.64-5.74,16.65-17.58,12.21-3.49-1.31-5.81-.08-8.41,1.81-12.38,9-12.49,9.09-24.43.1-4.11-3.09-7.31-3-11.36.17-11.41,8.86-12.15,8.81-23.87,0-3.36-2.52-6.1-3.21-10.28-1.31-8.59,3.9-16-.9-16.07-10.39-.14-32.65-.43-65.32.27-98C1,31.38,12.82,14.15,34.25,5,55.42-4.14,75.57-.57,93.19,14.48a50.84,50.84,0,0,1,18.23,34.23C113.29,66.87,111.64,85.13,112.19,99.71ZM106,101.17h-.29c0-16.57.65-33.17-.16-49.71C104.4,26.78,82,6.69,56.55,6.33,31.8,6,7.9,25.83,7,50c-1.26,34.05-.57,68.17-.63,102.26,0,5.44,3.07,7.66,7.88,5.06,6.62-3.58,12-1.76,16.7,3,5.32,5.35,9.81,4.69,15.31,0,8.19-6.94,11.8-7.05,19.82-.08,5.91,5.14,10.44,4.82,15.87-.35,3.83-3.65,8.32-6,14.17-3.52,8.08,3.48,9.89,2.11,9.92-6.9C106.08,133.38,106,117.28,106,101.17Z"/><path class="cls-1" d="M56.08,95.07c-6.61,0-13.23-.12-19.83.05-4.57.11-6.36-1.61-6-6.33,1-12.46,13.22-23.22,26.35-23,13,.24,24.62,11,25.43,23.16.28,4.18-1.06,6.24-5.44,6.17-6.85-.11-13.7,0-20.54,0Zm-.32-6.22c5.18,0,10.38-.15,15.56.05,4.15.17,4.11-1.81,3-4.8-2.36-6.6-10-11.81-17.74-12C48.74,72,40.57,77.2,38,83.92c-1.4,3.66-.5,5.19,3.61,5C46.31,88.68,51,88.85,55.76,88.85Z"/><path class="cls-1" d="M89.06,50.55A13.67,13.67,0,0,1,76,63.78c-7.19.15-13.49-6.2-13.43-13.53a13.24,13.24,0,0,1,26.48.3Zm-6-.09c-.41-4.56-3.09-7.13-7.26-7.15s-7.07,2.61-7.05,7.09,2.66,6.93,7.09,6.94S82.53,54.66,83.05,50.46Z"/><path class="cls-1" d="M49.74,50.13A13.46,13.46,0,0,1,36.47,63.75a13.58,13.58,0,0,1-13.15-13.1,13.21,13.21,0,0,1,26.42-.52Zm-13.69-7c-3.85.94-6.84,3-6.65,7.51s3,6.87,7.35,6.72,7-2.73,6.85-7.2S40.43,43.71,36.05,43.1Z"/></g></g></svg>