<svg xmlns="http://www.w3.org/2000/svg" viewBox="0 0 101.1 195.81"><defs><style>.cls-1{fill:#fff;}</style></defs><g id="레이어_2" data-name="레이어 2"><g id="레이어_1-2" data-name="레이어 1"><path class="cls-1" d="M74,98.69c4.14,11.3,3.22,23.21,13.72,30.56,3.19,2.23,4.6,6.62,5.47,10.71.9,4.26,1.76,8.53,5.92,11.16,1.71,1.07,2.79,2.81,1.12,4.77-1.51,1.77-3.39,1.41-5.14.3a16.42,16.42,0,0,1-7.76-11.87c-.69-4.27-1.65-8.51-6.68-11.57-.5,9.23-3,17.74,2.42,26.06,2.69,4.11,3.34,9.12,3,14.14-.27,4.6-.88,9.28,2.51,13.22a2.92,2.92,0,0,1-.22,4.36c-1.81,1.69-3.57.82-5-.65-3.62-3.77-4.74-8.46-4.46-13.51.22-4,1.12-8.05-1.66-12.16-2.78,7.11-5.08,14.06-9.15,20.22-10.06,15.21-25.31,15.17-35.4-.11-4-6.09-6.17-13-9.1-20-2.63,3.91-1.88,7.69-1.6,11.48.36,5-.59,9.73-4,13.68-1.34,1.55-3,2.69-4.94,1.42s-2.07-3.15-.59-4.9c3.36-4,2.68-8.66,2.43-13.25s0-9.11,2.47-12.63c5.89-8.5,3.31-17.54,3.45-27.53-5.63,2.92-6.39,7.42-7.16,11.83-.9,5.1-3.29,9.13-7.82,11.79-1.83,1.07-3.68,1.41-5.12-.4S.12,152.15,2,151c4.22-2.56,5-6.85,6-11.12.87-4.08,2.26-8.47,5.48-10.7,10.56-7.33,9.55-19.26,13.47-30.06-6,1.22-7.91,5.43-9.85,9.4a17.59,17.59,0,0,1-10.08,9c-2.19.83-4.51.73-5.37-2-.69-2.14.46-3.54,2.64-4.24a10.17,10.17,0,0,0,6.62-5.65c3.57-8.34,10.47-13,18.3-16.53,4.37-2,7.43-4.41,6.9-9.71a5.39,5.39,0,0,1,.45-3.19c10.47-16-.61-28.92-6.61-42.09C25,23.49,16.9,14.8,7,8.12,4.68,6.59.71,5,3.48,1.38c2.32-3.06,4.88-.1,7,1.29C30.59,15.84,40.32,35.82,46.81,58c.7,2.39-.25,6.36,3.46,6.51,4.41.17,3.33-4.22,4.09-6.79C60.84,35.85,70.47,16.11,90.18,3c2.24-1.49,5-5,7.6-1.41S96.19,6.64,94,8.21C75.22,21.58,65.7,40.67,60.31,62.34c-.77,3.06-.78,5.86,1.71,8.28.75.73,1.67,1.88,1.6,2.77-1,12.46,8.76,15.88,17,20.7a21,21,0,0,1,8.58,9.59c1.49,3.3,3.47,6.18,7.09,7.46,2.23.79,4.23,1.87,3.12,4.64-1.27,3.19-4,2.38-6.22,1.44A17.05,17.05,0,0,1,84,108.4C82.21,104.41,79.94,100.75,74,98.69ZM51,122.94c-6.21,0-12.42,0-18.63,0-2.48,0-4.11.74-4.36,3.55-.22,2.54,1.31,3.25,3.29,3.74a79.44,79.44,0,0,0,38.46,0c2-.49,3.56-1.19,3.36-3.7-.21-2.75-1.78-3.64-4.31-3.62C62.86,123,56.92,122.94,51,122.94ZM49.2,147.3A84.11,84.11,0,0,0,69,145.5c3.28-.61,4.62-2.31,4.42-5.6-.27-4.49-3.37-2.61-5.34-2.23a93.93,93.93,0,0,1-34.82.06c-1.85-.34-5-2.65-5.55,1.86-.35,3.15.72,5.15,4.11,5.8C37.7,146.53,43.57,147.6,49.2,147.3Zm1.58-31c5.14,0,10.3.14,15.44-.08,1.74-.08,5,1.41,4.76-2.27-.13-2.2-.32-4.85-3.67-5.51a83.59,83.59,0,0,0-33.86.11c-3.29.7-3.31,3.57-3.33,5.74,0,2.84,2.73,1.92,4.4,2C39.94,116.35,45.36,116.27,50.78,116.28Zm-.87,46.32a148.76,148.76,0,0,0,17-2c3.83-.59,5.25-2.84,4.85-6.11-.51-4.22-3.77-1.91-5.68-1.6a100.63,100.63,0,0,1-30.65.13c-1.9-.28-5.11-2.93-5.9,1.13-.73,3.67,1,6.12,5.22,6.49C39.79,161.11,44.84,161.93,49.91,162.6Zm-16.4,5.32c0,9.23,3.11,8.81,18.81,8.91,13.84.08,13.85-.4,15.1-9.1C56.07,169.51,44.79,169.05,33.51,167.92Zm32.78-67a6.62,6.62,0,0,0-2.18-6.27c-2.27-2.29-24.39-2.51-26.84-.23a9.46,9.46,0,0,0-2.62,4.87c-.31,1.67,1.42,2,2.83,1.76C47.07,99.18,56.72,100.35,66.29,100.91ZM58.45,184h-16C48.72,190.44,52.46,190.46,58.45,184ZM44.17,76.29c2.08,1.41,4.19.09,6.23,0S54.88,78,57.07,76C50.79,70.42,49.3,70.47,44.17,76.29Z"/></g></g></svg>