<svg xmlns="http://www.w3.org/2000/svg" viewBox="0 0 154.63 54.31"><defs><style>.cls-1{fill:#fff;}</style></defs><title>Asset 4</title><g id="Layer_2" data-name="Layer 2"><g id="레이어_1" data-name="레이어 1"><path class="cls-1" d="M37.6,25.14a17.18,17.18,0,0,1-.69,23.37,15.71,15.71,0,0,1-11.63,4.86H6.34q-5,0-5.91-2.74A11.93,11.93,0,0,1,0,46.89v-40A21.16,21.16,0,0,1,.11,4.39,5.89,5.89,0,0,1,.79,2.52C1.46,1.22,3.34.58,6.41.58H24.56A14.79,14.79,0,0,1,35.65,5.19a15.31,15.31,0,0,1,4.68,11.23A15,15,0,0,1,37.6,25.14ZM29.1,35.72A7.5,7.5,0,0,0,28.7,33a2.52,2.52,0,0,0-1.33-1.44,11.09,11.09,0,0,0-4-.58,6.21,6.21,0,0,1-3.89-1c-.87-.67-1.3-2.05-1.3-4.14s.44-3.47,1.33-4.14a7.51,7.51,0,0,1,4.43-1c1.92,0,3.07-.5,3.46-1.51a11.11,11.11,0,0,0,.22-2.59A2.74,2.74,0,0,0,26.4,14a7.15,7.15,0,0,0-3.57-.72H12.75v27.3H24.56Q29.11,40.62,29.1,35.72Z"/><path class="cls-1" d="M71.3,0A25.53,25.53,0,0,1,89.81,7.71a25.7,25.7,0,0,1,7.86,19.12,27.52,27.52,0,0,1-7.49,19.45,24.25,24.25,0,0,1-18.44,8,24.92,24.92,0,0,1-18.62-7.93,26.16,26.16,0,0,1-7.67-18.87,29.06,29.06,0,0,1,2.16-11.2,26,26,0,0,1,5.76-8.75A26.92,26.92,0,0,1,61.65,2,24.07,24.07,0,0,1,71.3,0ZM58.2,27.15a13.81,13.81,0,0,0,4.14,10.41,12.78,12.78,0,0,0,18.47.11q4.11-3.89,4.11-10.44a13.89,13.89,0,0,0-4.14-10.52,13.11,13.11,0,0,0-9.26-4,12.89,12.89,0,0,0-9.22,4A13.84,13.84,0,0,0,58.2,27.15Z"/><path class="cls-1" d="M118.8,17.48a17.36,17.36,0,0,1,12.56,5.22,17.45,17.45,0,0,1,5.32,13,18.63,18.63,0,0,1-5.08,13.19,16.43,16.43,0,0,1-12.5,5.45,16.91,16.91,0,0,1-12.63-5.38,17.73,17.73,0,0,1-5.2-12.79,19.79,19.79,0,0,1,1.46-7.6,17.71,17.71,0,0,1,3.91-5.94,18.35,18.35,0,0,1,5.62-3.76A16.38,16.38,0,0,1,118.8,17.48Zm-8.89,18.41A9.38,9.38,0,0,0,112.72,43a8.67,8.67,0,0,0,12.53.07A9.29,9.29,0,0,0,128,35.94a9.42,9.42,0,0,0-2.81-7.13A8.9,8.9,0,0,0,119,26.12a8.73,8.73,0,0,0-6.25,2.71A9.41,9.41,0,0,0,109.91,35.89Z"/><path class="cls-1" d="M141.89,42.46a3.75,3.75,0,0,1,2.19-1.91,15.33,15.33,0,0,1,4.61-.5c2.09,0,3.6.45,4.54,1.36a5.83,5.83,0,0,1,1.4,4.33v1.15a22.53,22.53,0,0,1-.1,2.55,6.57,6.57,0,0,1-.69,2c-.77,1.39-2.6,2.08-5.51,2.08s-4.82-.46-5.76-1.4-1.4-2.75-1.4-5.44A9.57,9.57,0,0,1,141.89,42.46Zm9.65-8.39a18.94,18.94,0,0,1-7.35,0,2.92,2.92,0,0,1-1.91-1.3,5,5,0,0,1-.65-1.66,17.09,17.09,0,0,1-.1-2.23V6.05a18.23,18.23,0,0,1,.1-2.27,4.6,4.6,0,0,1,.69-1.69A3.15,3.15,0,0,1,144.26.76a17.08,17.08,0,0,1,7.35,0,3,3,0,0,1,1.91,1.36,5.43,5.43,0,0,1,.65,1.73,18.23,18.23,0,0,1,.1,2.27V29a17.37,17.37,0,0,1-.1,2.24,4.34,4.34,0,0,1-.69,1.62A3.11,3.11,0,0,1,151.54,34.07Z"/></g></g></svg>