<svg xmlns="http://www.w3.org/2000/svg" viewBox="0 0 170.47 165.85"><defs><style>.cls-1{fill:#fff;}</style></defs><g id="레이어_2" data-name="레이어 2"><g id="레이어_1-2" data-name="레이어 1"><path class="cls-1" d="M0,95.19C.49,78.91,3.29,63.25,12.85,49.51,18.24,41.77,25.34,37.05,35,36,54.1,34,66.76,22.89,71.61,4.34,72.42,1.27,73.88-.1,77,0c2.36.07,4.72,0,7.09,0,12.38,0,12.41,0,16.21,11.71a26.81,26.81,0,0,0,11.67,14.7,66.7,66.7,0,0,0,25.37,9.81c10.05,1.49,16.48,7.47,21.77,15.41,15.62,23.42,15.1,66.69-1.14,89.78-5.55,7.9-12.56,13.5-22.74,13.57-2.6,0-4.42,1.4-6.43,2.58-6,3.5-12.37,5-19,2.68-3.55-1.26-6.12-.5-9.17,1.25-10.29,5.9-20.78,5.76-31-.16-2.86-1.65-5.25-2.65-8.5-1.14a10.59,10.59,0,0,1-6.22,1.06c-11.39-2.52-22.86-5.4-33.12-10.81-8.88-4.68-13.12-14-16.42-23.24A90.31,90.31,0,0,1,0,95.19Zm110.94,59c9,2.17,15.33-1.1,20.74-6.59,6.3-6.39,9.74-14.39,12.58-22.75.89-2.63.77-7.61,4.86-6.36,4.64,1.43,1.43,5.65.68,8.5-1.87,7.21-5.66,13.65-9.66,20.6,16.2-5.27,25.85-30.46,24-59.48-1.31-20.45-12.09-43.53-24-43.92A77.53,77.53,0,0,1,150.38,66c.72,2.52,2.68,6.13-1.41,7.14-3.42.85-3.64-2.85-4.35-5.22-2.76-9.15-6.39-17.87-13.42-24.61-5.46-5.24-11.66-8.81-20.14-5.91a42.45,42.45,0,0,1,3,4.28c1.73,3.28,7.38,6.94,3.33,10.05s-5.7-3.28-7.7-5.92c-14-18.42-33.8-18.79-48.15-.66-1.32,1.66-2.53,3.42-3.73,5.18s-2.46,3.1-4.61,1.74-1.51-3.27-.42-4.94c2.09-3.23,4.3-6.37,6.76-10C49,34.56,42.35,39.42,36.65,46.19c-5.42,6.42-8.51,14.1-10.9,22.09-.71,2.39-1.16,6-4.64,4.81-3.27-1.11-1.84-4.37-1.05-6.79a94,94,0,0,1,3.67-9.95c1.95-4.29,4.23-8.42,6.83-13.5-6.28,2.4-9.86,6.08-13,10.33C2.16,74.3,2.3,117.71,18,138.66c3,4,6.36,7.86,12.81,9.34-4.83-7.69-8.41-14.58-10.5-22.11-.69-2.49-3-6.09.82-7.39s4,2.85,4.84,5.36c2.81,8.88,6.39,17.35,13.14,24,5.52,5.44,11.82,8.81,20.44,6-1.79-2.43-3.33-4.23-4.51-6.24-1.45-2.45-5.33-5.31-2.08-7.87,3.55-2.79,4.91,1.9,6.77,4,1.56,1.77,2.89,3.75,4.51,5.45,13.42,14.15,29.14,14.05,42.37-.32a104.23,104.23,0,0,0,6.54-8.36c1.18-1.57,2.65-2.15,4.28-1.11s1.62,2.8.61,4.35C115.87,147.05,113.61,150.29,111,154.18Zm-4.4-122.66c-6.51-6.71-11.75-13.69-13.3-23-.63-3.73-4.13-2.74-6.42-2.47-3.23.38-8.38-2.33-9.36,2.23-2,9.39-7.19,16.52-15,23.55,6.09.54,8.82-3.94,12.83-4.33,5.64-.55,7.79-3.23,7-8.82-.29-2.21-.42-5.35,3-5.18s2.52,3.24,2.85,5.49-1.55,6,1.81,6.81C95.74,27.17,100.45,30.9,106.55,31.52Z"/><path class="cls-1" d="M41.48,106.6l26.6,3.94c3.8.56,4,3.37,4.07,6.34,0,1.68,0,3.54,2.34,3.57s2.43-1.92,2.35-3.53c-.24-4.88,2.57-6,6.72-5.93a183.5,183.5,0,0,0,42.89-4.19c2.18-.46,4.92-1.55,6.48,1s-.85,4.39-2.24,6.13a65.18,65.18,0,0,1-21,17.53c-3.62,1.86-6.32,2.36-7.07-2.72-.16-1.15-.16-2.52-1.75-2.53-1.95,0-2.32,1.66-2.15,3,.83,6.21-2.84,7.27-7.9,7.94-18.6,2.44-42.85-9-52.43-25-.88-1.46-1.86-2.85-.68-4.51C38.6,106.28,40.06,106.29,41.48,106.6Zm80.14,7.46A264,264,0,0,1,87,117.25c-2.81.1-4.36,1-4.29,4.16.17,7.24-5.44,4.82-9.19,5.18-4.05.38-8-.07-7.49-5.63.32-3.83-1.62-4.9-4.87-5.22-3.74-.37-7.46-.94-12.87-1.65C59.52,125.7,71.42,131,85.51,131.33c4.32.11,8.11-.28,7.19-6.39-.38-2.49.81-5,3.81-4.88,4.19.18,9.1-2.3,12.27,2.66,1.17,1.83,2.29.87,3.48.07C115.51,120.59,118.84,118.48,121.62,114.06Z"/><path class="cls-1" d="M130.93,97c-11.37-2.36-22.45-4.51-33.46-7-4.91-1.12-5-4-1.14-6.71,7.85-5.62,15.85-11,23.77-16.54,3-2.11,5.24-1.63,6.54,2,2.81,7.74,5.72,15.44,8.35,23.23C136.24,95.65,134.27,97.16,130.93,97Zm-3.07-7c-1.94-5.5-3.4-9.68-4.89-13.85-.61-1.7-1.5-3.16-3.5-1.63-4.47,3.43-9.74,5.87-14.2,10.81Z"/><path class="cls-1" d="M40.54,96.85q-6.84.38-5-5.1c2.68-7.77,5.52-15.49,8.36-23.21,1.35-3.69,3.78-3.7,6.65-1.71C58.5,72.34,66.47,77.77,74.3,83.41c3.21,2.31,4.09,5.22-.75,6.37C62.35,92.42,51,94.63,40.54,96.85ZM43.08,90,66,85.18c-2.24-1.7-3.32-2.56-4.45-3.36C47.93,72.15,47.93,72.15,43.08,90Z"/><path class="cls-1" d="M85.2,106c-15.67,0-15.79-.09-8-13.33,2.2-3.73,3.16-10,7.73-10.18,5.24-.18,6,6.46,8.3,10.29C101.14,106,101,106.06,85.2,106ZM85,91c-1.42,3.71-3.8,5.31-3.61,8.29,2.51,1,6,1.77,7.25-.06C90.29,96.65,87.05,94.52,85,91Z"/></g></g></svg>