<svg xmlns="http://www.w3.org/2000/svg" viewBox="0 0 193.2 93.6"><defs><style>.cls-1{fill:#fff;}</style></defs><g id="레이어_2" data-name="레이어 2"><g id="레이어_1-2" data-name="레이어 1"><path class="cls-1" d="M188.14,39.78c-14.72-1.84-25.58,3.32-31.3,17.64-2.29,5.75-5.93,3.63-9.82,2-15.58-6.38-31.45-2-40.79,11.19-3.52,4.95-5.12,10.54-5.93,16.49-.35,2.65.58,6.71-4,6.44-3.87-.22-3-3.86-3.35-6.29-2.74-17-12.37-27.63-27.72-30.36a31.34,31.34,0,0,0-20.34,3.13c-4.43,2.31-6.9,1.14-8.78-3.24-5.71-13.3-15.73-19.12-30.18-17C3.68,40.2,1.24,40.3.27,38s1.1-3.89,2.86-5.14c14.67-10.41,29.38-20.76,44-31.19C52.25-2,54.46.82,55.8,5.4c2.42,8.25,6.07,15.49,14.39,19.36,4.51,2.09,7.29,1.71,6.76-4.2a16.5,16.5,0,0,1,0-3.22c.38-3.05-1.46-7,1.83-8.88,3.53-2,5.65,2,8.27,3.57,7.35,4.35,14.24,3.76,21-1.36,1.85-1.41,3.64-3.71,6.35-2.38s1.49,4.24,2,6.49c.77,3.69-2.31,9.38,2.11,10.74,4.74,1.46,8.87-2.92,12.23-6.45,3.82-4,5.41-9.19,7-14.34,1.41-4.56,3.9-6.26,8.31-3.13C160.62,12,175.33,22.37,190,32.78c1.73,1.23,3.86,2.63,3,5.13C192.31,39.92,190.29,40.32,188.14,39.78ZM83.93,18.42c-.67,12.27-1.37,24-1.89,35.73a4.69,4.69,0,0,0,1.49,3.47c5.41,4,9,9.61,13.13,15.77,4-6.28,7.64-11.81,13.13-15.78a4.61,4.61,0,0,0,1.4-3.5c-.53-11.73-1.23-23.45-1.91-35.7C100.74,22.45,92.45,22.49,83.93,18.42ZM178.24,32.5,146.79,10.31c2.6,13.3,4.76,24.36,7.31,37.36C160.42,38.88,168,34.87,178.24,32.5Zm-139,14.66c2.46-12.88,4.56-23.93,7-36.92L15,32.52C25.43,34.75,32.49,39.25,39.29,47.16Zm11.77-25C49.27,31,47.51,39.89,45.68,48.73c-.41,2,.25,3.46,2.31,2.81,5.71-1.81,11.78-1.11,18.36-2.18C60,40.48,56.15,31.41,51.06,22.2Zm75.56,27.71c6.84.18,12.43-.25,17.78,1.5,2.12.69,3.77.15,3.17-2.72Q144.76,35.33,142,22C137.15,31.51,133,40.62,126.62,49.91Zm3.63-20.65c-15.62,5.54-15.62,5.54-11.55,19.19C123.53,42.62,127.63,36.93,130.25,29.26Zm-67.86-.34c3.91,7.61,6.67,14.41,12.92,19.36C77.42,34.7,77.42,34.7,62.39,28.92Z"/><path class="cls-1" d="M93.63,32.45C93.37,35,94,38.58,90,38.1c-3.52-.43-2.81-3.91-2.83-6.44s-.24-6,3.61-5.61C94.49,26.47,93.25,30.06,93.63,32.45Z"/><path class="cls-1" d="M99.62,32.38c.33-2.37-.87-6,2.81-6.35,3.85-.4,3.57,3.09,3.6,5.68s.65,6-2.89,6.41C99.19,38.55,99.82,35,99.62,32.38Z"/></g></g></svg>