<svg xmlns="http://www.w3.org/2000/svg" viewBox="0 0 131.94 147.69"><defs><style>.cls-1{fill:#fff;}</style></defs><g id="레이어_2" data-name="레이어 2"><g id="레이어_1-2" data-name="레이어 1"><path class="cls-1" d="M117.12,147.47c-5.58,1.34-7.76-3.63-10.28-7.35-2.73-4-5-4.35-9.36-2.06-18.08,9.45-36.63,9.51-54.72.2-5-2.59-7.65-1.9-10.12,2.56-3,5.44-7.55,7.53-13.74,6.69-3.43-.47-4.81-1.85-3.84-5.27,1.61-5.71,3.08-11.46,4.87-17.12A8.86,8.86,0,0,0,19,117C8.49,100.43,6.45,82.74,12.64,64.14c.81-2.43.52-3.84-1.33-5.84C6.39,53,6.78,47.68,12.62,43c2.82-2.26,1.88-3.23,0-5-3-2.81-5.84-5.74-8.69-8.67-4.5-4.63-5.18-8.7-1.7-11.62,4.23-3.56,7.88-1.74,11.27,1.69,5.89,6,12,11.72,17.74,17.85A11.15,11.15,0,0,0,40.33,41c26.21-.15,52.41-.05,78.61-.09,5.28,0,9.8,1.24,12.05,6.57,1.36,3.24,1.48,7-1.12,9.22-4.06,3.43-2.69,6.65-1.55,10.68,4.86,17.25,2.6,33.69-7,48.84-2.1,3.32-2.51,6.11-1.28,9.67,1.52,4.43,2.68,9,4,13.52C126.06,146.67,125.36,147.55,117.12,147.47ZM101,61.45v0H94.21c-12.95,0-12.95,0-13.71,13.12,0,.2,0,.41,0,.61-.52,6.27-3.65,9.76-8.8,9.79s-8.36-3.35-8.81-9.68c-.22-3.05-.11-6.13-.28-9.18-.11-2-1.16-3.61-3.37-3.64-1.85,0-3,1.2-3.35,3-.25,1.2-.37,2.43-.67,3.61-1.15,4.56-4.15,7.15-8.81,7s-8.2-3.15-8-7.66c.24-6.92-3.34-7.54-8.58-7a14.61,14.61,0,0,1-4.28,0C20,60.33,18.07,63.33,16.64,68c-9,29.73,7.81,60.58,38.83,69.56,20.92,6.06,39.58.4,54.38-15.09,15.33-16,19.47-35.36,12.59-56.76-1-3.13-2.58-4.63-6.15-4.39C111.2,61.7,106.07,61.45,101,61.45ZM59.31,46.09c-16.31,0-16.31,0-16.24,16.1,0,.61,0,1.23,0,1.84,0,2.87-.19,6.4,3.58,6.69,3.5.27,3.63-3.15,4-5.74.76-5,3.67-7.81,8.6-7.82,5.38,0,8.06,3.54,8.71,8.51a75.54,75.54,0,0,1,.19,9.16c0,2.49.71,4.74,3.56,4.7s3.48-2.41,3.51-4.83c.06-4.28.07-8.56.07-12.84C75.3,46.09,75.3,46.09,59.31,46.09Zm43,10.14v0h17.8c3.47,0,6.37-1.22,6.38-5s-2.89-5.08-6.35-5.08c-11.87,0-23.73.08-35.6-.08-4,0-4,2.29-4,5.18s0,5.23,4,5.06C90.41,56.05,96.35,56.23,102.29,56.23Zm-75.72,0v0c2.64,0,5.28-.1,7.91,0,3.89.18,3.47-2.51,3.41-4.94s.84-5.22-3.12-5.19c-5.48,0-11,0-16.43.18-3,.12-5.05,1.91-4.93,5s2.24,4.66,5.25,4.8C21.29,56.29,23.94,56.2,26.57,56.2Zm5.72,76.56c-1.49-2.71-3.62-4.92-6.1-5.7s-1.93,2.41-2.5,3.83c-1,2.61-1.53,5.43-2.43,8.1s.51,3.84,2.57,3C27.93,140.27,29.39,135.86,32.29,132.76Zm82.31-6.83c-2.48,2.88-7.37,3.34-6.11,7.6.86,2.89,3.68,5.29,5.89,7.65a4,4,0,0,0,3.37.68c1.52-.42,1.06-1.91.72-3.07C117.27,134.74,116,130.71,114.6,125.93Zm-87-85.41C20.88,33.91,15,28.12,9.07,22.37c-.83-.8-1.83-1.83-3.08-.64a1.48,1.48,0,0,0,0,2.18c5.64,5.78,10.9,12,17.41,16.81C24,41.15,25.24,40.67,27.61,40.52Z"/><path class="cls-1" d="M73.25,5c-4.68,8,3,17.6-1.36,26.63-.86,1.78-.77,4.57-3.54,3.92-2.61-.62-2.25-3.14-1.54-5.09a21.63,21.63,0,0,0,0-14.86c-1.61-4.79,1.19-9.14,1.9-13.7A2.2,2.2,0,0,1,71.4.08C73.33.63,73.4,2.39,73.25,5Z"/><path class="cls-1" d="M91.93,23.7c-.69,3.15-1.31,6.33-2.11,9.47-.36,1.38-1.06,2.78-2.89,2.53a2.45,2.45,0,0,1-2.23-3.07,29.6,29.6,0,0,0,0-19,2.59,2.59,0,0,1,2.16-3.19c1.81-.35,2.64,1.15,2.87,2.51C90.33,16.51,92.13,19.88,91.93,23.7Z"/><path class="cls-1" d="M55.39,23.26c-.8,3.56-1.51,6.93-2.33,10.27a2.51,2.51,0,0,1-2.61,2.13,2.29,2.29,0,0,1-2.09-3.09c1.89-6.43,1.45-12.75-.06-19.16a2.36,2.36,0,0,1,2.28-3,2.56,2.56,0,0,1,2.5,2.27C53.94,16.22,54.65,19.79,55.39,23.26Z"/><path class="cls-1" d="M122.22,83.18c-.27,8.74-1.84,16.28-5.2,23.38-.68,1.43-1.49,3.34-3.54,2.58-2.28-.86-1.93-2.86-1.1-4.64,4.36-9.38,5.21-19.17,3.69-29.29-.28-1.81-.58-4.11,1.83-4.48s3,1.72,3.22,3.64C121.56,77.6,121.93,80.84,122.22,83.18Z"/></g></g></svg>