<svg xmlns="http://www.w3.org/2000/svg" viewBox="0 0 139.96 158.35"><defs><style>.cls-1{fill:#fff;}</style></defs><g id="레이어_2" data-name="레이어 2"><g id="레이어_1-2" data-name="레이어 1"><path class="cls-1" d="M62.13,17.65A94.1,94.1,0,0,1,63.67,8C65.17,2.31,69.41-.41,75,.05s9.46,3.78,9.84,9.7c.34,5.43.07,10.91.07,16.49,2.54-.87,2.08-3.51,3-5.27,3-5.68,8.34-8.07,13.66-5.93,5,2,7.41,7.14,5.74,13.08s-3.72,12-5.59,18.06l1.56,1.22c1.54-2,2.8-4.37,4.67-6,3.74-3.32,8.11-3.48,12-.45s5,7.3,2.7,11.75c-2.26,4.25-5.09,8.2-7.72,12.24-2.51,3.86-5.09,7.69-7.66,11.51a65.64,65.64,0,0,0-11.1,43.1A59.67,59.67,0,0,1,96,130.71c-.55,5-.25,8.71,5.9,10.11,3.49.8,5.59,4.47,6,8.06s2.2,4.11,5.24,4.05c6.8-.15,13.62-.13,20.42,0,2.41.05,6.28-1.1,6.39,2.56.11,3.85-3.81,2.66-6.15,2.67-21.08.09-42.16.06-63.24.06-21.52,0-43,0-64.56-.06-2.35,0-6.18,1.19-6-2.84.14-3.28,3.65-2.38,5.9-2.41,6.59-.1,13.18-.16,19.76,0,3.07.07,4.65-.66,5.38-4a12,12,0,0,1,9.68-9.67c3.3-.69,4.1-2.38,4-5.49-.38-11.41-.56-22.83-.77-34.25,0-2-.16-4.21-1.64-5.55C33.51,86,29.1,74.28,18.55,67.8c-6.12-3.76-7.18-10.95-3.6-16,3.85-5.45,10.59-6.18,16.88-1.68C34.51,52,37,54.21,39.62,56.17c1,.73,2,2.15,3.4,1.38s.89-2.33.76-3.53c-1-9.82-2.14-19.64-3.22-29.46-.26-2.4-.64-4.8-.7-7.2-.16-6.47,3.32-11,9-11.94C54.22,4.54,59,8.19,60.65,14.48c.26,1,.35,2.09.52,3.14Zm17,7.91h0c.2-4.17.36-8.35.61-12.51.24-4-.74-7.36-5.26-7.58s-5.79,3-6,7c-.49,9.22-1,18.43-1.71,27.63-.16,2.3,0,5.39-3.22,5.67-3.71.31-3.83-3-4.25-5.49-1.31-8-2.53-16-3.75-24.09C55,13,53.34,10.61,50,10.87c-3.77.29-5,3.1-4.77,6.61.11,1.53.39,3.05.57,4.57C47,33.4,48.68,44.72,49.36,56.1c.24,4.08,1.51,5.21,5,5.82a37.13,37.13,0,0,1,12.39,4.25c6.57,3.81,10.1,9.59,10.93,17,.23,2.08,1,4.89-2.19,5.2-2.63.24-2.75-2.26-3-4.24-1.19-9-6.65-14.26-15.23-15.93-10.8-2.11-20.56-5.9-28.61-13.71-2.86-2.77-6.53-3.25-9.16.37s-.75,6.74,2.52,8.9A54.7,54.7,0,0,1,38.93,82a13.41,13.41,0,0,0,3.44,3.94c5.48,4,7.27,9.49,7.27,16.07,0,11.21.56,22.41.45,33.62,0,3.75,2,7.27,4.4,7,5.22-.66,11,1.38,15.6-1.46,5.12-3.13,9.91-3.5,14.83-.51,3.93,2.39,5.07.94,5.18-2.94.25-9,1-18,.7-27C90.42,99.45,93.93,89.58,99.11,80S110.89,61.44,116.8,52.2c1.5-2.34,2.69-4.92-.16-7s-5-.36-6.83,1.79c-2.31,2.65-4.56,5.35-6.93,7.94-1.81,2-3.8,4-6.78,2.12-2.78-1.77-2.37-4.28-1.45-7,2.45-7.28,4.73-14.62,7.11-21.92,1.14-3.51,1.16-6.88-2.94-8.11C95,18.9,93.41,21.84,92.34,25c-1.86,5.39-3.7,10.79-5.65,16.15-.86,2.34-2.12,4.7-5.15,4s-3.34-3.23-3.23-5.76C78.5,34.77,78.83,30.16,79.1,25.56ZM69.16,152.89c9.87,0,19.74,0,29.6,0,1.43,0,3.32.51,3.87-1.51a4.61,4.61,0,0,0-1.31-4.24c-2.36-2.67-5.92-3.6-8.2-1.38-4,3.91-7,4.43-10.62-.16a4.13,4.13,0,0,0-3.57-1.28c-6.64,2.54-13.58,3.41-20.42,4.87-3.89.82-5.3,1.24-7.78-1.85a8.11,8.11,0,0,0-13,0c-.93,1.23-1.85,2.64-1.39,4.22.6,2,2.53,1.33,3.92,1.34C49.86,152.93,59.51,152.9,69.16,152.89Z"/><path class="cls-1" d="M37.77,116.31a9.33,9.33,0,0,1-9.57,8.8A8.89,8.89,0,0,1,19.7,116a9.05,9.05,0,0,1,9.45-8.86A9.25,9.25,0,0,1,37.77,116.31Zm-9.16,3.38c1.48-.48,3.14-1,3.35-3.09a3.09,3.09,0,0,0-2.7-3.73c-2.26-.34-3.71.83-3.93,3.14C25.13,118.14,26.68,119,28.61,119.69Z"/><path class="cls-1" d="M120.72,128.75c-.49,5.27-2.79,8.33-7.82,8.39s-7.87-2.95-8-7.62,3-7.84,7.73-8S120,124.54,120.72,128.75Z"/></g></g></svg>