<svg xmlns="http://www.w3.org/2000/svg" viewBox="0 0 116.66 186.38"><defs><style>.cls-1{fill:#fff;}</style></defs><g id="레이어_2" data-name="레이어 2"><g id="레이어_1-2" data-name="레이어 1"><path class="cls-1" d="M59.34,186.38a79.11,79.11,0,0,1-25.56-4.27c-4.79-1.67-10.28-2.45-9.87-9.73.15-2.71-2.84-2.35-4.78-2.79C.55,165.46-6,147.26,6.3,133.09c3.19-3.66,2.53-7,2.22-10.7-1.35-16,4-29.35,15.28-40.51,1.59-1.58,3-3.7,5.74-3.41,1.33.13,3,2.07,3.88-.14a4.79,4.79,0,0,0-1.49-5.58c-5.86-5.34-5.65-12-2.92-18.49,2.81-6.7,9.2-6.27,15.23-6.62,4.6-.27,11.68,3,11.39-6.44,0-1.28,1.4-2.12,2.86-2a2.76,2.76,0,0,1,2.76,3.09c-.71,6.44,3.74,5.41,7.53,5.45,2.58,0,5.16,0,7.73.1,5,.14,9,1.84,11.3,6.66s1.3,9.27-2.47,12.69c-3,2.75-2.46,6-2.41,9.27,0,.9.63,2.59.88,2.57,11.65-.84,14.44,9.08,18.9,16.22a38.88,38.88,0,0,1,5.47,24.54c-.6,6.11.14,10.88,4.22,16.19,9.63,12.56,2.06,30.07-13.89,33.41-3.6.75-6.44,1.06-6.19,5.8.16,3-2.41,4.17-4.92,5.23A80,80,0,0,1,59.34,186.38Zm42.84-68.13a43.7,43.7,0,0,0-11-29.07c-2.27-2.66-4.14-3.51-7.83-2.06a66,66,0,0,1-49.77.1c-4-1.57-6-.67-8.47,2.25-8.89,10.55-12.06,22.74-9.91,36.1.79,4.86.54,8-3.63,11.29-5.49,4.3-6.26,10.74-3.83,16.92,2.18,5.57,6.65,9.6,13,9.38s10.74.45,9.79,8.47c-.42,3.54,3.12,3.48,5.4,4.32,2.51.92,3.14-.51,3.3-2.68s0-5.27,3.44-4.77c3,.43,2.52,3.33,2.76,5.62.17,1.61-.8,4,1.76,4.46,2.88.48,2.17-2.19,2.63-3.71.55-1.84,1.28-3.54,3.55-3.33,1.91.19,2.1,2,2.54,3.43.53,1.78-.41,4.81,2.72,4.58,2.42-.17,1.62-2.78,2-4.41s.67-3.14,2.47-3.55,2.64.88,3.46,2.32c.91,1.59-.46,5.08,2.69,4.62s1.7-3.71,2-5.78.77-4.32,3.35-4.44c1.79-.08,2.32,1.59,2.72,3.21.46,1.85-1.12,5.42,3.12,4.53,3-.62,6.34-1.19,5.83-5.63-.68-5.87,1.92-7.67,7.7-7.15,7.29.64,12.6-3.31,15-9.88S110,140.48,104.14,136c-3.13-2.37-4.12-4.8-3.07-8.61C101.88,124.49,101.84,121.32,102.18,118.25ZM58.24,85.87c4.37-.56,8.93-1.23,13.51-1.7,6.06-.62,4.3-5.19,4.6-8.76.38-4.54-2.5-4.85-5.92-4.79s-6.66-.37-10-.22c-4.79.23-4.3-8.11-9.33-6.07-3.86,1.57-3.24,7.94-8,9.43a3.15,3.15,0,0,0-.7.32c-2.83,1.63-2.35,4.36-2.05,6.85s2.53,2.95,4.6,3.23C49.32,84.75,53.64,85.28,58.24,85.87Zm0-31.89v0C52,54,45.87,53.8,39.7,54c-4,.13-5.9,2.66-5.9,6.62,0,3.16,0,6.73,3.75,7.56,4.12.92,4.63-2.8,5.87-5.65,2.2-5.06,11.91-7.63,14.87-3.18,5,7.52,11.78,4.16,17.91,4.82,3.59.39,6.25-1.57,6.25-5.22,0-3.87-3.13-4.94-6.51-5C70,53.94,64.12,54,58.21,54Z"/><path class="cls-1" d="M46,22.16c1.49-7.11,5.73-13.89,9.87-20.63,1.54-2.51,4.2-1.72,5.52.84,3.06,5.92,6.37,11.77,8.69,18,1.73,4.66,0,9.16-4.1,12.32a11.79,11.79,0,0,1-13,1.45C48.43,31.94,46,28.2,46,22.16ZM58.31,9.7c-2.43,4.87-4.14,8-5.53,11.2-1.14,2.66-.22,5.12,2,6.85a5.42,5.42,0,0,0,7.1,0C64,26.07,65,23.68,63.8,21,62.37,17.75,60.72,14.62,58.31,9.7Z"/><path class="cls-1" d="M95.49,137.69a16.3,16.3,0,0,1-16.13,15.62c-8.81-.05-16.41-7.87-16.08-16.53a16.11,16.11,0,0,1,32.21.91ZM79.94,147c5.6-.73,9.35-3.83,9.14-9.94-.2-5.95-3.67-9.53-9.83-9.42s-9.56,3.93-9.47,9.79S73.57,146.64,79.94,147Z"/><path class="cls-1" d="M53.31,137.59a16.35,16.35,0,0,1-16.65,15.7,16.08,16.08,0,0,1,.68-32.14C46.11,121.28,53.57,129,53.31,137.59Zm-16.4-10.18c-5.29.53-9.18,3.46-9.41,9.5s3.37,9.71,9.34,10,9.84-3.41,10-9.31S43.67,128.05,36.91,127.41Z"/><path class="cls-1" d="M58.12,167.21c-5-.54-8.23-3-8.42-8.26-.14-4,6.31-13.7,8.76-13.57s8.87,10.25,8.48,13.9C66.39,164.4,63.17,166.92,58.12,167.21Z"/></g></g></svg>