<svg xmlns="http://www.w3.org/2000/svg" viewBox="0 0 174.53 157.01"><defs><style>.cls-1{fill:#fff;}</style></defs><g id="레이어_2" data-name="레이어 2"><g id="레이어_1-2" data-name="레이어 1"><path class="cls-1" d="M154.11,140.41a27.52,27.52,0,0,0-5.89-14.18c-1.34-1.8-4.26-3.8-1.42-6.07s4.12,1.08,5.66,2.69a23.05,23.05,0,0,1,2.26,3.56c2.68-6.13,4.34-11.26,8-15.29,1.46-1.59,3.07-4,5.37-2.39,2.56,1.76.5,3.87-.77,5.57C163.81,119,161,124,161,130.84c3-1.68,5.54-3.24,8.2-4.55,1.77-.88,3.9-1.5,5.05.82,1,2.06-.88,3-2.24,4-1.2.82-2.63,1.28-3.82,2.1-8.35,5.73-8.24,10.71.3,15.71,1.46.86,3,1.67,4.36,2.61a3.08,3.08,0,0,1,1.59,3c-.29,1.81-1.79,2.21-3.25,2.28-3.39.15-6.79.19-10.18.19L8.85,157c-1.21,0-2.42,0-3.64-.05-1.91-.08-4.32.26-5-2-.76-2.68,1.7-3.66,3.54-4.79.62-.38,1.28-.69,1.91-1.05,9.21-5.32,9.14-10.43-.23-16.41-1.23-.78-2.54-1.42-3.78-2.18s-2.16-2.26-1.35-3.69a2.86,2.86,0,0,1,3.87-.91c3,1.44,5.92,3,9.22,4.74.35-6.34-2.49-11.25-6-15.93C6.17,113,4,111,6.08,109c2.6-2.36,4.27.5,5.82,2.22,3.62,4,5.28,9.12,7.4,13.91,3.45-.94,4.4-8.17,8.33-4.83s-2.19,5.83-3.49,8.84c-1.5,3.5-3.45,6.78-3.62,10.84C32,137.88,32,137.88,32,127.43c0-23.54-.18-47.08.07-70.62C32.32,30.74,46.78,10.36,69.8,2.86c34.79-11.34,70.26,12.27,72.35,48.82,1,17.91.34,35.91.4,53.86,0,7,.66,14.16-.16,21.1C141.36,135.29,145.12,139.17,154.11,140.41ZM136.85,90.48h-.16c0-12.86.49-25.74-.11-38.57C135.38,25.92,113,5.25,87,5.48S38.83,26,38,51.68c-.82,25.93-.19,51.92-.39,77.88,0,4,1.47,4.5,4.72,3.54,29.86-8.77,59.73-9,89.59,0,3.88,1.16,5.07,0,5-4C136.71,116.21,136.85,103.34,136.85,90.48Zm-120,60.06H157.62Q87,114.6,16.86,150.54Z"/><path class="cls-1" d="M52.7,61.41a51.25,51.25,0,0,1,.06-7.23c.55-3.8-2.32-9.56,2.57-10.93C61.15,41.63,68,41.09,73,46.38c3.94,4.18,4.21,9.14,1.37,14C73.16,62.5,72.6,64,74.27,66.2a9.87,9.87,0,0,1,1.81,5.36c.11,3.13,2.11,8.15-2.09,8.72-4.76.64-2.56-4.52-3-7.19-.82-5-3.68-6.82-8.51-7-6.08-.18-3.67,4.23-4.14,7.07a31.11,31.11,0,0,0-.07,3.62c-.07,1.75-.32,3.65-2.47,3.8-2.69.18-3-2-3-4-.07-5.07,0-10.14,0-15.22Zm5.65-7.25c-.11,3.38-.81,6.65,4.3,6.38,4.34-.24,7.94-1.44,8-6.2,0-4.28-3.2-5.77-7.33-6.13C58.14,47.77,57.92,50.73,58.35,54.16Z"/><path class="cls-1" d="M101.87,61.77c0-2.91-.33-5.86.07-8.7.58-4.1-2.9-10.31,5.67-10.54,10.76-.29,16.89,3.14,17.63,10.7.61,6.28-3.78,12.65-10.28,12.54-7-.12-8,2.89-7.49,8.59.22,2.37,1,6.29-2.87,6.16s-2.57-4-2.67-6.41C101.75,70,101.88,65.88,101.87,61.77Zm5.75-7.29c-.15,3.2-.72,6.44,4.41,6,4.06-.32,7.4-1.36,7.55-5.89.16-5.05-3.41-6.14-7.76-6.38C106.57,48,107.72,51.59,107.62,54.48Z"/><path class="cls-1" d="M87,93.78c-10.19,0-20.38,0-30.56,0-2.47,0-6.19.91-6.21-2.94,0-3.33,3.43-2.69,5.73-2.69q31.29-.06,62.59,0c2.29,0,5.7-.74,5.82,2.59.14,4.11-3.66,3-6.07,3-10.43.11-20.86,0-31.3,0Z"/><path class="cls-1" d="M87.25,100c8.21,0,16.42,0,24.63,0,2.2,0,4.81.06,4.55,3.16-.2,2.52-2.62,2.43-4.54,2.44q-24.63,0-49.25,0c-1.93,0-4.33.09-4.56-2.43C57.81,100,60.43,100,62.62,100,70.83,99.92,79,100,87.25,100Z"/><path class="cls-1" d="M85.91,61c0-4.61,0-9.22,0-13.83,0-2,.31-4.13,3-4.12,2.23,0,2.62,1.86,2.63,3.63q0,15.28,0,30.57c0,1.82-.62,3.52-2.86,3.4S86,78.81,85.94,77C85.88,71.7,85.92,66.37,85.91,61Z"/></g></g></svg>