<svg id="Layer_1" data-name="Layer 1" xmlns="http://www.w3.org/2000/svg" viewBox="0 0 38.18 38.18"><defs><style>.cls-1{fill:#fff;}</style></defs><title>mulumpyo</title><path class="cls-1" d="M25.24,5.67A19.09,19.09,0,1,0,44.33,24.76,19.09,19.09,0,0,0,25.24,5.67Zm1,29.51H23.51V32.4h2.74ZM29.5,23.71l-2.37,2.2A4.08,4.08,0,0,0,26,29H23.76a6.81,6.81,0,0,1,.87-3.82A17.12,17.12,0,0,1,27,22.67a2.89,2.89,0,0,0,1-2.2A3.16,3.16,0,0,0,27.13,18a3,3,0,0,0-2.12-.7,2.66,2.66,0,0,0-1.87.7,4.52,4.52,0,0,0-1.25,3.47H19a6.54,6.54,0,0,1,2.12-5,5.67,5.67,0,0,1,4-1.39,6,6,0,0,1,4.24,1.39A5,5,0,0,1,31,20.35,4.42,4.42,0,0,1,29.5,23.71Z" transform="translate(-6.15 -5.67)"/></svg>