<svg id="Layer_1" data-name="Layer 1" xmlns="http://www.w3.org/2000/svg" viewBox="0 0 489.77 471.58"><defs><style>.cls-1{fill:#80b2ae;}.cls-2,.cls-4{fill:none;stroke-miterlimit:10;}.cls-2{stroke:#4f9286;stroke-width:9px;}.cls-3{fill:#df6056;}.cls-4{stroke:#fff;stroke-width:1.5px;}</style></defs><title>object1</title><path class="cls-1" d="M65.1,306.08s8.45-13.63,14.28-42.18,22.15-75.77,32.64-92.09,33.8-51.88,75.18-60.62c3.92-.83,7.85-1.84,11.81-2.49a40.07,40.07,0,0,1,6.1-.27c2.17,0,4.11-.63,6.22-.83,2.36-.23,4.7-.16,7.09-.58,5.88-1,11.66-2.55,17.47-3.88,3.48-.8,7.16-1.85,10.76-1.85,6.41,0,19.24-1.17,39,0s27.39-4.08,60,5.24,74,22.15,102.58,53.62,26.81,30.31,36.72,49,24.48,32.64,31.47,47.21,14.57,61.2,14.57,64.69,11.07,74.6-19.82,120.06-40.79,52.46-71.68,65.28-55.95,23.31-60.62,23.9.59,2.91-26.22,3.49-44.7,4.67-55,5.25-67.41,7-107.62-11.07-70.52-37.31-89.76-60-32-44.87-35-60-1.22-31.3-2.91-47.79C60.93,344.94,55.84,336.26,65.1,306.08Z" transform="translate(-43.24 -68.98)"/><path class="cls-2" d="M53.15,278.79s8.45-13.62,14.28-42.18,22.15-75.77,32.64-92.09,33.8-51.88,75.18-60.61c7.85-1.66,16.57-5,24.7-3.85,5.32.79,11.29-1.23,16.48-2.44,5.86-1.38,12.2-3.62,18.27-3.62,6.41,0,19.24-1.16,39.05,0s27.4-4.08,60,5.25,74,22.15,102.58,53.62,26.81,30.31,36.72,49,24.48,32.63,31.47,47.2,14.57,61.2,14.57,64.7,11.08,74.6-19.81,120.06-40.8,52.45-71.69,65.28S371.67,502.38,367,503s.59,2.92-26.22,3.5-44.7,4.66-55,5.24-67.41,7-107.62-11.07-70.52-37.3-89.76-60-32-44.88-35-60-1.22-31.3-2.91-47.79C49,317.65,43.89,309,53.15,278.79Z" transform="translate(-43.24 -68.98)"/><path class="cls-3" d="M430.85,287.79c-2.38-1.08-10.37-7.88-11.56-9.07A89.12,89.12,0,0,1,411.4,270c-2.16-3-5.94-6.26-8.53-8.85s-11.66-9.29-11.66-9.29l-13.39-9.61s-10.15-7.35-20.73-17-13-20.51-15.34-27.75-3.13-15.76-3.67-18.25-2.49-.87-4.86-1.19-10.15.32-22.56-2.91-19.12-10.91-23-14-5.94,1-5.94,1c-30.23,45.35-79.47,45.78-79.47,45.78-3.79,1.51-3.25,2.49-4.12,6.69s-2.26,7.46-4.2,12.21-11.45,22.35-15.23,29.37S160.88,276.56,160.54,277s-1.83.65,0,2.93,6.27,10.89,8.32,14.56,3.68,11,4.65,19-1.73,32.29-1.73,32.29-.21,9.61.43,10.91,9,2.26,15.77,6.69,9.72,12.21,10.47,13.29a5.5,5.5,0,0,0,4.54,1.94c2.16,0,9.5-2.7,20-2.49s11.89,1.95,18.48,4.65S258,392.11,260.22,394.7s5,5.29,9.29,5.18,10-2.81,12.09-4.26S309.14,383.9,321.12,384s22.68,4.43,27.44,8,6.69,3.78,7.88,3.56,2.38-2.48,2.38-2.48a53.86,53.86,0,0,1,19.75-24.63c5-3.23,11.67-3.44,12.64-3.67s.76-1.83.86-2.58-.32-17.17,3.57-29.27,15.12-26.89,17-29.37,11.76-10.58,15.87-13.29S430.85,287.79,430.85,287.79Zm-123.8,15a55.24,55.24,0,0,1-3.51,5.17c-.73,1-1.47,2-2.25,3a17.76,17.76,0,0,1-4.18,3.93,25.11,25.11,0,0,1-8.57,3.28,49.94,49.94,0,0,1-10.5.89c-19.44-.22-33.26-17.5-33.26-17.5s-9.93-8.2-5.62-33.9,32.4-30,43.85-25.49,30,17.71,29.59,43.42C312.49,291.47,309.89,297.82,307.05,302.81Z" transform="translate(-43.24 -68.98)"/><path class="cls-4" d="M70.17,280.72S78,268.07,83.43,241.55,104,171.2,113.73,156s31.39-48.17,69.82-56.28c7.28-1.54,15.38-4.68,22.93-3.57,4.93.73,10.48-1.14,15.3-2.27,5.44-1.28,11.33-3.36,17-3.36,5.95,0,17.86-1.08,36.26,0s25.43-3.79,55.74,4.87S399.48,116,426,145.22s24.9,28.14,34.1,45.46,22.73,30.31,29.22,43.84,13.53,56.82,13.53,60.07,10.28,69.27-18.4,111.48-37.88,48.71-66.56,60.61-52,21.65-56.29,22.19.55,2.71-24.35,3.25-41.5,4.33-51.06,4.87-62.59,6.49-99.93-10.28S120.77,452.07,102.91,431s-29.76-41.67-32.47-55.74-1.13-29.06-2.71-44.37C66.29,316.8,61.57,308.75,70.17,280.72Z" transform="translate(-43.24 -68.98)"/><path class="cls-4" d="M301.29,310.05a17.77,17.77,0,0,1-4.18,3.93,25.3,25.3,0,0,1-8.57,3.27,49.23,49.23,0,0,1-10.5.89c-19.44-.21-33.26-17.49-33.26-17.49s-9.93-8.21-5.61-33.91,32.39-30,43.84-25.48S313,259,312.6,284.67c-.1,5.86-2.71,12.21-5.55,17.2a53.86,53.86,0,0,1-3.5,5.17C302.81,308.06,302.07,309.08,301.29,310.05Z" transform="translate(-43.24 -68.98)"/><path class="cls-4" d="M321.45,285.91a4.46,4.46,0,0,1,.54-4.63,3.47,3.47,0,0,1,2.45-1.32,2.48,2.48,0,0,1,2.35,1.32,4,4,0,0,1,.22,2c-.09,1.51-1.22,2.73-2.29,3.74S322.05,287.12,321.45,285.91Z" transform="translate(-43.24 -68.98)"/><path class="cls-4" d="M289.59,304.91a39.69,39.69,0,0,1-6.26,2.59c-10.91,3.31-23.67-2.28-30.07-11.94s-6.45-23.14-.68-33.2a18.57,18.57,0,0,1,3.3-4.35c3.83-3.52,9.41-4.17,14.54-3.85,7.24.45,14.64,2.64,20,7.7a44.45,44.45,0,0,1,5.69,6.11c3.94,5.56,10,14.63,8.37,22C303,296.56,294.93,302.25,289.59,304.91Z" transform="translate(-43.24 -68.98)"/><path class="cls-4" d="M352,391.27a7.82,7.82,0,0,1-6.21-4.81,10.82,10.82,0,0,1-.64-3.83,12.33,12.33,0,0,1,1.16-5.65,7.65,7.65,0,0,1,4.15-3.88,10.79,10.79,0,0,1,2.82-.51c2-.14,4.14,0,5.62,1.31a6.47,6.47,0,0,1,1.72,3,22.53,22.53,0,0,1,.73,7.37,4.3,4.3,0,0,1-.27,1.68C359.62,389.07,355.44,391.69,352,391.27Z" transform="translate(-43.24 -68.98)"/><path class="cls-4" d="M373.68,368.06a3.6,3.6,0,0,1-1.77-2.44,4.63,4.63,0,0,1-.23-2.08,4.37,4.37,0,0,1,2.22-2.72,3.4,3.4,0,0,1,3.08-.54,2.74,2.74,0,0,1,1.35,1.64C379.19,364.52,377.39,369.6,373.68,368.06Z" transform="translate(-43.24 -68.98)"/><path class="cls-4" d="M360.26,373.74c-3-1.28-5.16-4.66-4.49-7.85.5-2.34,2.31-4.19,4.26-5.58,1.6-1.15,3.56-2.13,5.46-1.63a5.58,5.58,0,0,1,2,1.07c2.74,2.14,5.17,7.26,3.38,10.67S363.68,375.19,360.26,373.74Z" transform="translate(-43.24 -68.98)"/><path class="cls-4" d="M380.54,358.38a10.58,10.58,0,0,1-1-4.83,7.74,7.74,0,0,1,.5-3.32,6.34,6.34,0,0,1,4.1-3.1,6,6,0,0,1,3.31-.19,5.36,5.36,0,0,1,3.33,3.37c1,2.73,1.87,7.64-.71,9.69C387.07,362.42,382.47,362,380.54,358.38Z" transform="translate(-43.24 -68.98)"/><path class="cls-4" d="M367.19,358.77a9.12,9.12,0,0,1-2.22-7.68,7.8,7.8,0,0,1,5.23-5.9c5.41-1.63,10,3.91,8.93,9.11S371.14,363.16,367.19,358.77Z" transform="translate(-43.24 -68.98)"/><path class="cls-4" d="M368.84,333.61a6.71,6.71,0,0,1,1.13,4.23,5.36,5.36,0,0,1-2.08,3.8,8.76,8.76,0,0,1-3.84,1.35c-1.46.26-3.13.41-4.26-.56a4.23,4.23,0,0,1-1.19-2.16c-.79-2.93.1-6.27,3.07-7.58C363.84,331.73,367.42,331.47,368.84,333.61Z" transform="translate(-43.24 -68.98)"/><path class="cls-4" d="M375.56,343a4.84,4.84,0,0,1-2.12,1.41,2.75,2.75,0,0,1-1.4.33,1.88,1.88,0,0,1-1.4-1.1,5.47,5.47,0,0,1-.44-1.8C369.12,333.58,378.36,339.18,375.56,343Z" transform="translate(-43.24 -68.98)"/><path class="cls-4" d="M393.83,320.55a8,8,0,0,1-.36-2.18c-.09-1.53,0-3.25,1.07-4.3a4.29,4.29,0,0,1,3.09-1,2.6,2.6,0,0,1,1.72.47,3,3,0,0,1,.78,1.37c.68,2,.94,5.33-.81,7A3.56,3.56,0,0,1,393.83,320.55Z" transform="translate(-43.24 -68.98)"/><path class="cls-4" d="M410.55,300.55a3.11,3.11,0,0,1-1.17-.25,3.81,3.81,0,0,1-1.14-1,9.2,9.2,0,0,1-1.51-2,3.51,3.51,0,0,1-.38-2.45,4.55,4.55,0,0,1,2.1-2.44,7.24,7.24,0,0,1,3-1.23,3.81,3.81,0,0,1,3.06.83c1.41,1.28,1.72,4.27,1.05,6S412.3,300.64,410.55,300.55Z" transform="translate(-43.24 -68.98)"/><path class="cls-4" d="M389.36,314.76a1.74,1.74,0,0,1-.78-.2,1.64,1.64,0,0,1-.42-.41c-1-1.31-.93-3.1-.83-4.73a2.26,2.26,0,0,1,.17-.93,2.15,2.15,0,0,1,.82-.82,4.32,4.32,0,0,1,4.13-.64c1.68.79,2.62,3.5,2.09,5.26S391.09,314.9,389.36,314.76Z" transform="translate(-43.24 -68.98)"/><path class="cls-4" d="M395.19,301.37a3.57,3.57,0,0,1-2.33-.22,2.94,2.94,0,0,1-1.31-1.91,15.53,15.53,0,0,1-.29-2.36,4.65,4.65,0,0,1,0-2,3.15,3.15,0,0,1,1.5-1.6,4.1,4.1,0,0,1,2.2-.63,3.7,3.7,0,0,1,2.79,1.77C399.72,297.45,398.88,300.79,395.19,301.37Z" transform="translate(-43.24 -68.98)"/><path class="cls-4" d="M370.93,335.27a7.91,7.91,0,0,1-.48-5.61,7.83,7.83,0,0,1,1.94-3.7,4.8,4.8,0,0,1,3.81-1.49c3.46.36,4.82,4.46,4.89,7.42.07,2.67-2.84,5.63-5.42,6A4.85,4.85,0,0,1,370.93,335.27Z" transform="translate(-43.24 -68.98)"/><path class="cls-4" d="M377.4,317.29a6.17,6.17,0,0,1,1-4.45,5,5,0,0,1,4-2.14,4.2,4.2,0,0,1,3.77,2.33,4.46,4.46,0,0,1,.3,1C387.55,319.53,378.42,324,377.4,317.29Z" transform="translate(-43.24 -68.98)"/><path class="cls-4" d="M359.53,316.84a4.59,4.59,0,0,1-.64-1.73,3.6,3.6,0,0,1,.93-2.42,4.09,4.09,0,0,1,1.36-1.16c3-1.45,4.57,2.43,3.92,4.78S360.65,318.92,359.53,316.84Z" transform="translate(-43.24 -68.98)"/><path class="cls-4" d="M360.89,353c-.44,2.89-2,5.76-4.68,7a13.84,13.84,0,0,1-4.65,1c-2.76.27-5.81.48-8.05-1.16s-3-4.82-3.25-7.68a14.94,14.94,0,0,1,.69-6.75,9.9,9.9,0,0,1,6.55-5.66,12,12,0,0,1,8.69,1.08C360.62,343.23,361.58,348.36,360.89,353Z" transform="translate(-43.24 -68.98)"/><path class="cls-4" d="M396.88,311a5.52,5.52,0,0,1-.71-2.59,9.28,9.28,0,0,1,1.6-6.61,8.6,8.6,0,0,1,2.4-2,7.68,7.68,0,0,1,3-1.12,5.36,5.36,0,0,1,4.44,1.64C413.17,306.26,400.82,317.14,396.88,311Z" transform="translate(-43.24 -68.98)"/><path class="cls-4" d="M412.64,290.85a7.94,7.94,0,0,1-5.43-7.22,6.1,6.1,0,0,1,.88-3.45,7,7,0,0,1,5.61-2.85,8.75,8.75,0,0,1,7.66,3.36C425.34,286.42,418.38,292.58,412.64,290.85Z" transform="translate(-43.24 -68.98)"/><path class="cls-4" d="M385.48,295.1a4.48,4.48,0,0,1-1.5-.61,5.12,5.12,0,0,1-1.83-3.88,6.06,6.06,0,0,1,.26-2.87,4.78,4.78,0,0,1,2.68-2.54,10,10,0,0,1,3.72-.64,3.45,3.45,0,0,1,1.36.19,3.05,3.05,0,0,1,1.33,1.48c.89,1.72,2.08,4.78,1,6.64C391.07,295.22,387.92,295.7,385.48,295.1Z" transform="translate(-43.24 -68.98)"/><path class="cls-4" d="M375.66,312.5a11.07,11.07,0,0,1-3.63-.07,3.14,3.14,0,0,1-2.21-1,2.87,2.87,0,0,1-.43-1.24,15.39,15.39,0,0,1-.21-2.71,8,8,0,0,1,.79-3.74C374.22,296,384.19,310.81,375.66,312.5Z" transform="translate(-43.24 -68.98)"/><path class="cls-4" d="M352.42,333.87a5.22,5.22,0,0,1-4.45,6,6,6,0,0,1-3.21,0,3.49,3.49,0,0,1-2.33-2.29,7,7,0,0,1-.17-1.71l0-2.66a7.89,7.89,0,0,1,.11-1.82,4.54,4.54,0,0,1,2.64-3.07c1.35-.6,4.39-1.26,5.61,0S352.31,332.35,352.42,333.87Z" transform="translate(-43.24 -68.98)"/><path class="cls-4" d="M367.45,324.86a5.42,5.42,0,0,1-1.74-.67,4.83,4.83,0,0,1-1.92-4.14,4.91,4.91,0,0,1,.3-1.7,7.56,7.56,0,0,1,2.67-3c1.61-1.25,3.44-2.58,5.48-2.39,3.11.28,6.14,4.89,5.1,7.92C376.14,324.4,370.57,325.55,367.45,324.86Z" transform="translate(-43.24 -68.98)"/><path class="cls-4" d="M382.77,309.46a3.75,3.75,0,0,1-3.1-.82,3.42,3.42,0,0,1-.75-1.15c-1-2.33-.34-5.07.93-7.27a9.09,9.09,0,0,1,4.08-3.92,5.2,5.2,0,0,1,7.17,5.81c-.28,1.53-1.69,2.92-2.68,4A9.23,9.23,0,0,1,382.77,309.46Z" transform="translate(-43.24 -68.98)"/><path class="cls-4" d="M399.89,295.88a3.74,3.74,0,0,1-1.3-.5c-1.27-.83-1.64-2.51-1.78-4-.09-.89-.13-1.78-.14-2.67a4.81,4.81,0,0,1,.33-2.16,7.72,7.72,0,0,1,4.07-2.95,4.36,4.36,0,0,1,3.58,1.82c1.56,1.79,3.49,4.52,2.36,6.91A6.44,6.44,0,0,1,399.89,295.88Z" transform="translate(-43.24 -68.98)"/><path class="cls-4" d="M411.81,272a5.33,5.33,0,0,1-.23,3.46,3.92,3.92,0,0,1-2.59,2.23c-1.88.45-3.83-.81-4.78-2.5a11.76,11.76,0,0,1-1.11-5.61,1.82,1.82,0,0,1,.09-.77,1.87,1.87,0,0,1,.34-.49l1.41-1.65a3.29,3.29,0,0,1,1.54-1.21,2.18,2.18,0,0,1,1.94.53,5.7,5.7,0,0,1,1.23,1.68,29.82,29.82,0,0,1,2.44,5.9" transform="translate(-43.24 -68.98)"/><path class="cls-4" d="M386.25,284.4a3,3,0,0,1-2.65,1.12,6.91,6.91,0,0,1-3.2-.53,5,5,0,0,1-2.35-3.05,13.17,13.17,0,0,1-.4-3.91,11.66,11.66,0,0,1,.4-3.44,6.44,6.44,0,0,1,6.05-4.37,2.61,2.61,0,0,1,1.14.22,3.16,3.16,0,0,1,.87.76,16.71,16.71,0,0,1,3.44,6.76C390.08,280.52,387.92,282.77,386.25,284.4Z" transform="translate(-43.24 -68.98)"/><path class="cls-4" d="M386.23,270.63a5,5,0,0,1-3.92-1.55,5.57,5.57,0,0,1-.9-2,22.31,22.31,0,0,1-.84-5.74,5.58,5.58,0,0,1,1-3.8,4.4,4.4,0,0,1,1.77-1.19,7.83,7.83,0,0,1,6.65.44c3.11,1.76,4,4.69,3.66,8C393.22,268.62,389.9,270.71,386.23,270.63Z" transform="translate(-43.24 -68.98)"/><path class="cls-4" d="M370.39,267.47c.22,1.19.33,2.58-.42,3.49a4.11,4.11,0,0,1-1,.78,5,5,0,0,1-1.81.83c-1.31.2-2.52-.7-3.58-1.56a2.44,2.44,0,0,1-.77-.86,2.73,2.73,0,0,1-.19-.9c-.06-.64-.12-1.28-.15-1.92a8,8,0,0,1,.27-2.85,3.24,3.24,0,0,1,1.76-2.07,3,3,0,0,1,2.53.27A6.66,6.66,0,0,1,370.39,267.47Z" transform="translate(-43.24 -68.98)"/><path class="cls-4" d="M363.32,283.23a3.77,3.77,0,0,1-.7-1.85,10.18,10.18,0,0,1-.09-3.81,5.15,5.15,0,0,1,1.93-3.22c3-2.14,6.22,1.39,5.85,4.48C370,281.32,365.78,286.13,363.32,283.23Z" transform="translate(-43.24 -68.98)"/><path class="cls-4" d="M376.5,293.25a3.06,3.06,0,0,1,1.05-.66,4,4,0,0,1,1.2-.12h1.73a1.54,1.54,0,0,1,.48.06,1.16,1.16,0,0,1,.51.37,3.58,3.58,0,0,1,.77,3c-.38,2.35-2.59,5.32-5.21,4.46C373.78,299.28,374.38,295.18,376.5,293.25Z" transform="translate(-43.24 -68.98)"/><path class="cls-4" d="M391.33,282.67a10.33,10.33,0,0,1-1.39-4.87,13.77,13.77,0,0,1,.79-6.21,8,8,0,0,1,4.22-4.48,5.7,5.7,0,0,1,5.92.92c2.81,2.64,2.28,8,1.45,11.4A7.53,7.53,0,0,1,396.8,285,4.9,4.9,0,0,1,391.33,282.67Z" transform="translate(-43.24 -68.98)"/><path class="cls-4" d="M394.42,263.25a3.43,3.43,0,0,1,.1-3.41,3.7,3.7,0,0,1,3-1.71c3.05-.09,4.88,3.17,3.79,5.88C400,267.1,395.67,265.47,394.42,263.25Z" transform="translate(-43.24 -68.98)"/><path class="cls-4" d="M366.37,292.83a6.59,6.59,0,0,1,2.87,3.87,15.72,15.72,0,0,1,.5,4.89c-.05,2.24-.28,4.62-1.64,6.41a6.92,6.92,0,0,1-4.44,2.53,9.92,9.92,0,0,1-5.13-.64,4.28,4.28,0,0,1-2-1.38,4.44,4.44,0,0,1-.66-1.92,16.81,16.81,0,0,1,2.27-11.31C359.88,292.38,363.23,291,366.37,292.83Z" transform="translate(-43.24 -68.98)"/><path class="cls-4" d="M375.2,294c-2.27.93-4.93.09-6.9-1.37a5.65,5.65,0,0,1-1.67-1.77,5,5,0,0,1,0-4.27,14.19,14.19,0,0,1,2.47-3.64,8,8,0,0,1,2.14-2c2.17-1.2,5.06-.1,6.53,1.9C380.5,286.66,379.81,292.15,375.2,294Z" transform="translate(-43.24 -68.98)"/><path class="cls-4" d="M357.54,289.72a3.46,3.46,0,0,1-1.3-4,3.42,3.42,0,0,1,.74-1,3.89,3.89,0,0,1,2.2-1.21c2.39-.33,6.9,2,5.93,5S359.55,291.17,357.54,289.72Z" transform="translate(-43.24 -68.98)"/><path class="cls-4" d="M373.24,275.23a1.7,1.7,0,0,1-.75-.27,1.8,1.8,0,0,1-.44-.51,9.69,9.69,0,0,1-1.06-5,4.62,4.62,0,0,1,.45-2.61,3.83,3.83,0,0,1,2.78-1.46c2.65-.41,5.61,2,5.16,4.91C379,272.79,375.85,275.62,373.24,275.23Z" transform="translate(-43.24 -68.98)"/><path class="cls-4" d="M381.15,254.27a11.46,11.46,0,0,1-3.08,7,8.26,8.26,0,0,1-5.28,2.82,10.14,10.14,0,0,1-4.63-1,4.23,4.23,0,0,1-2-1.41,4.53,4.53,0,0,1-.5-2.6,32.4,32.4,0,0,1,.49-6.61,10.94,10.94,0,0,1,3-5.8c2.64-2.47,5.62-2.08,8.22,0,1,.79,2,1.18,2.61,2.33A9.61,9.61,0,0,1,381.15,254.27Z" transform="translate(-43.24 -68.98)"/><path class="cls-4" d="M384.92,255.56a1.15,1.15,0,0,1-.61-.21,1.26,1.26,0,0,1-.3-.46,7.8,7.8,0,0,1-.9-3.72,3.18,3.18,0,0,1,2.15-2.92,3.7,3.7,0,0,1,1.15-.06c1.5.09,3.56,2.78,3.55,4.3C389.93,254.82,386.78,255.77,384.92,255.56Z" transform="translate(-43.24 -68.98)"/><path class="cls-4" d="M376.28,241.2A3.47,3.47,0,0,1,374.9,244a4.56,4.56,0,0,1-3,.89,1.48,1.48,0,0,1-.73-.17,1.51,1.51,0,0,1-.59-1.35,4.11,4.11,0,0,1,3.33-3.92,2.1,2.1,0,0,1,1.46.21,1.91,1.91,0,0,1,.78,1.46,5.46,5.46,0,0,1-.2,1.7" transform="translate(-43.24 -68.98)"/><path class="cls-4" d="M367.78,245.12a5.31,5.31,0,0,1-3.65,1.53,4.73,4.73,0,0,1-3.52-1.89,6.72,6.72,0,0,1-1.3-3.85,6.84,6.84,0,0,1,1.41-4.59A4.92,4.92,0,0,1,365,234.5C369.78,235.15,371,242.21,367.78,245.12Z" transform="translate(-43.24 -68.98)"/><path class="cls-4" d="M363.51,253.81a6.12,6.12,0,0,1,.73,2.46l.13.93a7.77,7.77,0,0,1,.11,2.15,2.64,2.64,0,0,1-1,1.85,3.68,3.68,0,0,1-2.27.45,4,4,0,0,1-1.94-.39c-1.09-.63-1.43-2-1.51-3.29a6,6,0,0,1,.36-2.89C359,253.19,362.12,251.64,363.51,253.81Z" transform="translate(-43.24 -68.98)"/><path class="cls-4" d="M356,256.92a3,3,0,0,1-1,.81,2.68,2.68,0,0,1-1.32.14,7.06,7.06,0,0,1-5.61-3.92,11,11,0,0,1-.88-4.79c0-1.89.25-3.92,1.53-5.31a7.66,7.66,0,0,1,2.07-1.48,6.68,6.68,0,0,1,2.19-.82,5,5,0,0,1,3.65,1.2,6.42,6.42,0,0,1,2.76,6.44A13.91,13.91,0,0,1,356,256.92Z" transform="translate(-43.24 -68.98)"/><path class="cls-4" d="M354.44,237.64a5.17,5.17,0,0,1-1.09-1.1,7.89,7.89,0,0,1-1.43-6.2,2.54,2.54,0,0,1,.5-1.21,3,3,0,0,1,.9-.63,5.72,5.72,0,0,1,3.46-.92,6.08,6.08,0,0,1,2.56,1.34,4.39,4.39,0,0,1,1.31,1.3,4.34,4.34,0,0,1,.37,1.38c.26,1.74.45,4.18-1,5.46A4.61,4.61,0,0,1,354.44,237.64Z" transform="translate(-43.24 -68.98)"/><path class="cls-4" d="M346.52,220.32a1.55,1.55,0,0,1,.3-.65,1.34,1.34,0,0,1,.62-.39c3.58-1.15,9.76,4.92,6.06,8.07C349.52,230.74,345.64,223.76,346.52,220.32Z" transform="translate(-43.24 -68.98)"/><path class="cls-4" d="M347.23,227.82c1.91,1,2.63,3.39,3,5.53.56,2.85.87,5.94-.42,8.55a15.07,15.07,0,0,1-4,4.5,3.92,3.92,0,0,1-1.47.92,3.09,3.09,0,0,1-2.68-.85,8.92,8.92,0,0,1-2.77-6.53,26.22,26.22,0,0,1,1.11-7.18c.38-1.48.46-4.16,1.81-4.91A6.55,6.55,0,0,1,347.23,227.82Z" transform="translate(-43.24 -68.98)"/><path class="cls-4" d="M337.73,234.1a5.18,5.18,0,0,1-2.6,3.78,4.62,4.62,0,0,1-4.54-.11,3,3,0,0,1-.84-.74,4.34,4.34,0,0,1-.64-2.63,7.53,7.53,0,0,1,.92-4.08C332.65,226.22,338.33,230.05,337.73,234.1Z" transform="translate(-43.24 -68.98)"/><path class="cls-4" d="M344,250a6.78,6.78,0,0,1,.48,4.64,5.43,5.43,0,0,1-3,3.53,4.86,4.86,0,0,1-2.94.3,4,4,0,0,1-1.79-.85,4.34,4.34,0,0,1-1.33-3.7,8.34,8.34,0,0,1,1.49-3.77C338.87,247.17,342.19,246.22,344,250Z" transform="translate(-43.24 -68.98)"/><path class="cls-4" d="M336.33,246.43c0,1.53,0,3.22-1,4.38a5.31,5.31,0,0,1-4.05,1.4c-3,0-6.28-1-7.88-3.59a8.21,8.21,0,0,1-1.11-4.35c0-2.17.69-4.51,2.47-5.77a6.41,6.41,0,0,1,5.73-.48,13.36,13.36,0,0,1,4.81,2.92C336.62,242.32,336.28,244.69,336.33,246.43Z" transform="translate(-43.24 -68.98)"/><path class="cls-4" d="M331.91,222.92c-.33,3.87-3.13,7-5.86,9.8a3.3,3.3,0,0,1-2,1.22c-1.35.07-2.2-1.43-2.53-2.74a17.61,17.61,0,0,1-.49-3.76c-.12-3.41,1-7.9,4.62-9.25A4.61,4.61,0,0,1,331.91,222.92Z" transform="translate(-43.24 -68.98)"/><path class="cls-4" d="M332.73,224.47a12,12,0,0,1-.34-6.78,11,11,0,0,1,2.2-5.19,5.22,5.22,0,0,1,9,.94,12.45,12.45,0,0,1,1.15,4.82c.21,2.88.22,7.78-2.89,9.35C338.25,229.43,334.26,228.18,332.73,224.47Z" transform="translate(-43.24 -68.98)"/><path class="cls-4" d="M319.88,230.26a1.44,1.44,0,0,1,.68.22,1.53,1.53,0,0,1,.35.41,8.36,8.36,0,0,1,1.29,3.87,3.82,3.82,0,0,1-.14,1.47,4.7,4.7,0,0,1-1.43,1.77c-.91.81-2,1.67-3.18,1.51a2.65,2.65,0,0,1-1.74-1.1,5.11,5.11,0,0,1-.82-1.93c-.35-1.42-.67-3.39.36-4.55A5.71,5.71,0,0,1,319.88,230.26Z" transform="translate(-43.24 -68.98)"/><path class="cls-4" d="M319.92,241.37c.31.32.74.5,1,.84a2.6,2.6,0,0,1,.45,1.46,6.11,6.11,0,0,1-.22,3.21,6.2,6.2,0,0,1-2.38,2.36c-1,.67-2.12,1.37-3.28,1.1a3,3,0,0,1-2-2.68c-.16-1.66.63-5.17,1.86-6.43A3.29,3.29,0,0,1,319.92,241.37Z" transform="translate(-43.24 -68.98)"/><path class="cls-4" d="M335.33,257.31a11.85,11.85,0,0,1-1,7.17,7.56,7.56,0,0,1-5.76,4.09,2.87,2.87,0,0,1-2.16-.54,3.72,3.72,0,0,1-.93-2.19c-.46-2.6-.92-5.28-.27-7.84.56-2.21,2.55-5,5.06-5.13A4.78,4.78,0,0,1,335.33,257.31Z" transform="translate(-43.24 -68.98)"/><path class="cls-4" d="M351.35,259a7.34,7.34,0,0,1,.31,6.51,4.65,4.65,0,0,1-1.19,1.8,6.52,6.52,0,0,1-3.89,1.13l-1.67.1a4,4,0,0,1-2.65-.44,3.2,3.2,0,0,1-1.1-2,8.48,8.48,0,0,1,.75-5.77c.78-1.51,2.49-3.53,4.22-4C348.08,255.89,350.38,257.39,351.35,259Z" transform="translate(-43.24 -68.98)"/><path class="cls-4" d="M359.82,268.17a9.34,9.34,0,0,1,2.47,6.81,8.77,8.77,0,0,1-2.88,6.39,6.3,6.3,0,0,1-6.74,1,7.12,7.12,0,0,1-1.49-1.07,9.62,9.62,0,0,1-3-8.2c.34-2.52,1.92-5.46,4.25-6.69S358.08,266.39,359.82,268.17Z" transform="translate(-43.24 -68.98)"/><path class="cls-4" d="M329.55,271.59a7.56,7.56,0,0,1,2,4.26,3.93,3.93,0,0,1-2.15,3.94,4.38,4.38,0,0,1-1.12.28,7.76,7.76,0,0,1-3.18-.24,2.61,2.61,0,0,1-1.66-1.14,2.76,2.76,0,0,1-.22-1.14,9.23,9.23,0,0,1,.77-4.38C325.22,270.69,327.5,269.22,329.55,271.59Z" transform="translate(-43.24 -68.98)"/><path class="cls-4" d="M352.43,285.5a5.68,5.68,0,0,1,4.3,3,8,8,0,0,1,.61,2.47,6.15,6.15,0,0,1-.14,2.8,5.63,5.63,0,0,1-3,2.87,16,16,0,0,1-3.26,1.22,3.33,3.33,0,0,1-1.71.11,3.16,3.16,0,0,1-1.33-.86,8.18,8.18,0,0,1-2.38-5.39c-.06-1.61.38-4,1.65-5.19S350.91,285.26,352.43,285.5Z" transform="translate(-43.24 -68.98)"/><path class="cls-4" d="M352.5,299.43a6,6,0,0,1,1.08,3.24,7,7,0,0,1-1.16,5.07c-1.3,1.6-3.55,2.08-5.62,2.09a3.09,3.09,0,0,1-1.51-.28,2.63,2.63,0,0,1-1.1-1.41c-1.16-2.9.19-5.75,2.27-7.8C347.74,299.09,351.13,297.73,352.5,299.43Z" transform="translate(-43.24 -68.98)"/><path class="cls-4" d="M352.44,316.82a4.3,4.3,0,0,1-.87,3,4,4,0,0,1-1.4.95,6.68,6.68,0,0,1-4.83.36,4.5,4.5,0,0,1-3.08-3.45,5.8,5.8,0,0,1,.24-2.3,5.18,5.18,0,0,1,1.16-2.3,5.77,5.77,0,0,1,2.57-1.34c1.68-.49,3.5-1.24,4.74.26A7.51,7.51,0,0,1,352.44,316.82Z" transform="translate(-43.24 -68.98)"/><path class="cls-4" d="M363,330.67a4.2,4.2,0,0,1-1.41,1.06,5.87,5.87,0,0,1-2.21.31,13.73,13.73,0,0,1-4.57-.5,7,7,0,0,1-4.53-5.64,7.31,7.31,0,0,1,2.88-6.66,7.59,7.59,0,0,1,7.24-.87,6.14,6.14,0,0,1,2.1,1.38C365.35,322.68,365.86,327.63,363,330.67Z" transform="translate(-43.24 -68.98)"/><path class="cls-4" d="M342.13,329.57a4.1,4.1,0,0,1-2.36,2.23,4.83,4.83,0,0,1-2.87-.47c-1.39-.54-2.88-1.17-3.64-2.45a6.45,6.45,0,0,1-.67-3,6.82,6.82,0,0,1,.53-3.73,4.66,4.66,0,0,1,2.5-2,11.87,11.87,0,0,1,3.19-.56C345.2,319.13,344.28,325.59,342.13,329.57Z" transform="translate(-43.24 -68.98)"/><path class="cls-4" d="M341.6,335.71a5,5,0,0,1,1.26,3.64,8.86,8.86,0,0,1-.54,3.65,4.79,4.79,0,0,1-2.44,2.66,6.12,6.12,0,0,1-2.44.41,4.16,4.16,0,0,1-2.64-.7c-1.07-.86-1.21-2.4-1.27-3.77a5.64,5.64,0,0,1,.24-2.35,5.41,5.41,0,0,1,.83-1.3C336.16,336,339,333.33,341.6,335.71Z" transform="translate(-43.24 -68.98)"/><path class="cls-4" d="M339.55,355.81a7.26,7.26,0,0,1-1.69,5.63,2.39,2.39,0,0,1-.81.71,2.47,2.47,0,0,1-.94.15l-1.61.06a5.08,5.08,0,0,1-2.76-.44,3.46,3.46,0,0,1-1.41-1.95,5.85,5.85,0,0,1,.76-4.84c.88-1.36,2.83-3.11,4.54-3.1C337.61,352.05,339.23,354,339.55,355.81Z" transform="translate(-43.24 -68.98)"/><path class="cls-4" d="M315.35,373.91a5.43,5.43,0,0,1,.37,1.64,6.11,6.11,0,0,1-.19,2.41,3,3,0,0,1-1.53,1.81c-1.27.56-2.72-.07-4-.7-1.08-.55-2.29-1.27-2.47-2.46a2.81,2.81,0,0,1,.19-1.37C308.87,372.05,313.64,369.83,315.35,373.91Z" transform="translate(-43.24 -68.98)"/><path class="cls-4" d="M340.61,268.85a7.36,7.36,0,0,1,6.37,3.84,12.39,12.39,0,0,1,1.07,3.3c.5,2.4.78,5-.21,7.22a7.35,7.35,0,0,1-4.12,3.75,12.32,12.32,0,0,1-5.42.6,5.66,5.66,0,0,1-5.51-4.27,13.08,13.08,0,0,1,.25-10.73C334.39,270,338.08,268.8,340.61,268.85Z" transform="translate(-43.24 -68.98)"/><path class="cls-4" d="M332.41,286.14a3.6,3.6,0,0,1,1.21,1.42,7.09,7.09,0,0,1,.11,2.35,4.1,4.1,0,0,1,0,1.4,2.46,2.46,0,0,1-.58.88,5,5,0,0,1-5.32,1.5,4.75,4.75,0,0,1-2.3-2.21,4.81,4.81,0,0,1-.61-2.51C325.1,285.21,329.88,284.14,332.41,286.14Z" transform="translate(-43.24 -68.98)"/><path class="cls-4" d="M344.15,292.15a7.76,7.76,0,0,1,.69,8.3,7.6,7.6,0,0,1-7.38,3.82,14.72,14.72,0,0,1-5.34-2.15,2.75,2.75,0,0,1-.79-.6,2.18,2.18,0,0,1-.36-1.17,10.83,10.83,0,0,1,1.57-6.26c1-1.72,2.71-4.62,4.85-4.89A7.83,7.83,0,0,1,344.15,292.15Z" transform="translate(-43.24 -68.98)"/><path class="cls-4" d="M322.85,288.85a5,5,0,0,1,1.36,1.27,6.37,6.37,0,0,1,.71,3.8,3.53,3.53,0,0,1-.21,1.41,3.33,3.33,0,0,1-1.06,1.18c-1,.78-2.35,1.47-3.53,1s-1.59-1.79-1.79-3a8.1,8.1,0,0,1,.08-3.5C319,288.85,320.81,287.49,322.85,288.85Z" transform="translate(-43.24 -68.98)"/><path class="cls-4" d="M320,284.65a5.87,5.87,0,0,1-1.24,1.65,3.44,3.44,0,0,1-2.67,1.17,2.49,2.49,0,0,1-2-2.38,4.46,4.46,0,0,1,2.26-3.55c.88-.59,2.56-1.57,3.52-.7S320.49,283.7,320,284.65Z" transform="translate(-43.24 -68.98)"/><path class="cls-4" d="M323.25,264.56a5.4,5.4,0,0,1-2.44,1.44,5.52,5.52,0,0,1-2.84.32,4.44,4.44,0,0,1-2.82-2.11,8.77,8.77,0,0,1-1.11-3.43,5.21,5.21,0,0,1,.58-3.77,5.11,5.11,0,0,1,1.58-1.34,5,5,0,0,1,6.82,1.11C324.52,258.72,324.94,262.64,323.25,264.56Z" transform="translate(-43.24 -68.98)"/><path class="cls-4" d="M312.91,256.81a3.92,3.92,0,0,1-2.71.81,6.34,6.34,0,0,1-4.42-2,6,6,0,0,1-1.58-4.58,2.91,2.91,0,0,1,.35-1.22,3.31,3.31,0,0,1,1-.94,6.24,6.24,0,0,1,2.43-1.24,6.36,6.36,0,0,1,5.72,2.72C314.66,252.05,314.42,255.5,312.91,256.81Z" transform="translate(-43.24 -68.98)"/><path class="cls-4" d="M330.11,305a4.16,4.16,0,0,1-.16,1.32,3,3,0,0,1-2.8,2,3.74,3.74,0,0,1-3.07-1.68,6.32,6.32,0,0,1-.85-2.06,3.93,3.93,0,0,1,.23-3.09,2.69,2.69,0,0,1,1.29-1,3.46,3.46,0,0,1,4,1.25C329.53,303,330.08,303.43,330.11,305Z" transform="translate(-43.24 -68.98)"/><path class="cls-4" d="M338.41,306.4a5,5,0,0,1,3.13,1.42,5.09,5.09,0,0,1,1.15,2.25,7.47,7.47,0,0,1-8.41,9.18,3.46,3.46,0,0,1-2.63-1.57,4.42,4.42,0,0,1-.31-2.11,21.1,21.1,0,0,1,.21-3.28,10.39,10.39,0,0,1,2.22-4.94C334.88,306.07,336.79,306.21,338.41,306.4Z" transform="translate(-43.24 -68.98)"/><path class="cls-4" d="M312.54,308.68a11.28,11.28,0,0,1,3.53,5.12,21.3,21.3,0,0,1,.83,4.56,9.1,9.1,0,0,1-.46,5.13,9.46,9.46,0,0,1-2,2.37,6.53,6.53,0,0,1-2.15,1.55,4.74,4.74,0,0,1-2.12.16,10.45,10.45,0,0,1-7.79-5.51,13.86,13.86,0,0,1-1.08-9.65A6.93,6.93,0,0,1,312.54,308.68Z" transform="translate(-43.24 -68.98)"/><path class="cls-4" d="M332,333.29c.87.7.93,2,.91,3.12a5,5,0,0,1-.49,2.56,3.52,3.52,0,0,1-1.29,1.19,4.58,4.58,0,0,1-2.41.68,3.22,3.22,0,0,1-2.28-.95c-1.35-1.42-1-4.47,0-6S330.71,332.22,332,333.29Z" transform="translate(-43.24 -68.98)"/><path class="cls-4" d="M330.4,342.39a6.19,6.19,0,0,1,3.08,4.63,8.31,8.31,0,0,1-1.33,5.49,4.87,4.87,0,0,1-7.78,1.59,5,5,0,0,1-1.65-1.9,6.28,6.28,0,0,1-.34-2.76,14.08,14.08,0,0,1,.5-3.83A5.39,5.39,0,0,1,330.4,342.39Z" transform="translate(-43.24 -68.98)"/><path class="cls-4" d="M312.2,361.07a8.93,8.93,0,0,1,.71,3.84c0,1.7,0,3.63-1.27,4.78a5.33,5.33,0,0,1-1.49.88,5.24,5.24,0,0,1-3.51.38c-1.51-.5-2.42-2-3-3.5a17.25,17.25,0,0,1-1.13-6.51c.05-1.93,1.24-4.43,3.5-4.24S311.21,359.17,312.2,361.07Z" transform="translate(-43.24 -68.98)"/><path class="cls-4" d="M346.44,361.09a6,6,0,0,1,2.31,1.6,6.17,6.17,0,0,1,1.26,3.18,9.5,9.5,0,0,1-.71,5.05,17,17,0,0,1-1.91,3.13c-1.77,2.4-4.12,4.85-7.1,4.9a6.47,6.47,0,0,1-5.86-4.34,9.91,9.91,0,0,1,.61-7.56,16.13,16.13,0,0,1,4.25-5.75C341.2,359.91,344.41,360.24,346.44,361.09Z" transform="translate(-43.24 -68.98)"/><path class="cls-4" d="M323.25,338a5.17,5.17,0,0,1,1,2.86,4.55,4.55,0,0,1-.76,3.58,4.84,4.84,0,0,1-2.1,1.2c-1.16.41-2.67.66-3.44-.3a3.21,3.21,0,0,1-.48-2,10.3,10.3,0,0,1,.39-3.59C318.6,337.68,321.52,336,323.25,338Z" transform="translate(-43.24 -68.98)"/><path class="cls-4" d="M331,322.82a1.08,1.08,0,0,1,.8.28,1.19,1.19,0,0,1,.21.56c.34,2,.61,4.08-.3,5.84a4.9,4.9,0,0,1-4.39,2.59,1.53,1.53,0,0,1-1.23-.49,2,2,0,0,1-.25-.76,13.38,13.38,0,0,1-.15-4.37C326.24,323.36,328.1,322.64,331,322.82Z" transform="translate(-43.24 -68.98)"/><path class="cls-4" d="M286.89,318.42c1.39-.44,3.19-.75,4,.44a2.61,2.61,0,0,1,.41,1.34,3.78,3.78,0,0,1-1.12,3.18,2.27,2.27,0,0,1-3.13-.16,3,3,0,0,1-.43-2.09,3.16,3.16,0,0,1,1.56-2.77" transform="translate(-43.24 -68.98)"/><path class="cls-4" d="M295.88,325.44a7.64,7.64,0,0,1,3.17-2,3.93,3.93,0,0,1,3.42-.13,3.43,3.43,0,0,1,1.06,1.24c1.62,2.84,2.28,9.95-2.79,10C296.35,334.65,293.08,328.71,295.88,325.44Z" transform="translate(-43.24 -68.98)"/><path class="cls-4" d="M331.84,361.79a10,10,0,0,1,2.51,6,8.61,8.61,0,0,1-.92,5.88,8.36,8.36,0,0,1-4.91,3c-7.51,2.07-16.24-3.4-14.29-12.05C315.72,358.1,327.79,357.85,331.84,361.79Z" transform="translate(-43.24 -68.98)"/><path class="cls-4" d="M328.47,200.68a6.42,6.42,0,0,1-.5-3.59,3.62,3.62,0,0,1,.38-1.22,4.67,4.67,0,0,1,2.69-1.82c3.31-1.18,5.79,2,4.8,5.25C335,202.13,329.88,203.83,328.47,200.68Z" transform="translate(-43.24 -68.98)"/><path class="cls-4" d="M322,183.34a5.15,5.15,0,0,1,1-5.24c3.22-3.49,9.21-.48,8.12,4.17S323.87,188.19,322,183.34Z" transform="translate(-43.24 -68.98)"/><path class="cls-4" d="M315.18,212.52a2.41,2.41,0,0,1-.8,1.09,4.29,4.29,0,0,1-2.8,1,.74.74,0,0,1-.81-.63c-.66-2.06-.26-5.19,2.1-6C315.43,207,315.75,210.79,315.18,212.52Z" transform="translate(-43.24 -68.98)"/><path class="cls-4" d="M297.12,221a2.85,2.85,0,0,1,.35,1,6.42,6.42,0,0,1-4.22,6.94,2.7,2.7,0,0,1-1.92,0c-1-.46-1.32-1.77-1.32-2.9a7.47,7.47,0,0,1,.84-3.72C291.85,220.55,295.57,218.6,297.12,221Z" transform="translate(-43.24 -68.98)"/><path class="cls-4" d="M297.88,243c2.41-.84,5.3-.19,6.23,2.41a4,4,0,0,1-2.11,5C297.57,252.11,292.66,244.8,297.88,243Z" transform="translate(-43.24 -68.98)"/><path class="cls-4" d="M332.26,203.85a5.28,5.28,0,0,1,1.68-2.11,5.57,5.57,0,0,1,3.43-.74c4.53.23,4,6.94.88,8.91C334.25,212.43,330.39,207.68,332.26,203.85Z" transform="translate(-43.24 -68.98)"/><path class="cls-4" d="M310.68,228.31a8.92,8.92,0,0,1-.69-3.76,14.19,14.19,0,0,1,.57-4.59,7.08,7.08,0,0,1,2.65-3.71,2.76,2.76,0,0,1,1.49-.54,3.9,3.9,0,0,1,1.54.48c3.44,1.68,3.54,7.08,2.58,10.51S312.55,232.17,310.68,228.31Z" transform="translate(-43.24 -68.98)"/><path class="cls-4" d="M332.72,188.54a6.7,6.7,0,0,1,.34,1.88,2.55,2.55,0,0,1-1.61,3.22,4.94,4.94,0,0,1-3.47.82,3.11,3.11,0,0,1-1.92-1.75,5.72,5.72,0,0,1-.41-2.63C325.83,186.15,331.13,184.43,332.72,188.54Z" transform="translate(-43.24 -68.98)"/><path class="cls-4" d="M333.2,185.07a2.16,2.16,0,0,1-1.44-.62,2.49,2.49,0,0,1-.4-1.55,5.19,5.19,0,0,1,.28-2.15,4,4,0,0,1,3.68-2.06,2.45,2.45,0,0,1,2.15.87,2.72,2.72,0,0,1,.32,1.17c.11,1,.41,2.43-.26,3.28C336.7,185.05,334.36,185.2,333.2,185.07Z" transform="translate(-43.24 -68.98)"/><path class="cls-4" d="M339.84,192.78a3.52,3.52,0,0,1-1.2,1,4,4,0,0,1-2.19.52,2.56,2.56,0,0,1-1.92-1.09,4.3,4.3,0,0,1-.49-1.88,6,6,0,0,1,.22-3.06,3.69,3.69,0,0,1,3.51-2C340.24,186.41,341.06,191,339.84,192.78Z" transform="translate(-43.24 -68.98)"/><path class="cls-4" d="M311.27,189.25a5.86,5.86,0,0,1,.77,3.61,6,6,0,0,1-.58,3.11,4.81,4.81,0,0,1-1.32,1.34,3.05,3.05,0,0,1-2.54.76,3,3,0,0,1-1.73-2.45,22.3,22.3,0,0,1-.29-5.23,3.89,3.89,0,0,1,.34-1.79C306.85,186.91,310.36,188,311.27,189.25Z" transform="translate(-43.24 -68.98)"/><path class="cls-4" d="M297.22,204a8,8,0,0,1,1.13,4.44,18.7,18.7,0,0,1-.45,5.44,8.19,8.19,0,0,1-2.91,4.53,4.5,4.5,0,0,1-2.87.94,5.28,5.28,0,0,1-3.56-2.12,14,14,0,0,1-2.95-9.52,8.6,8.6,0,0,1,.51-2.85C287.88,200.38,294.57,200.34,297.22,204Z" transform="translate(-43.24 -68.98)"/><path class="cls-4" d="M328.62,201.35c1.78,1.32,2,3.86,2,6.07a18.41,18.41,0,0,1-.46,5.35,8,8,0,0,1-4.22,5,6.44,6.44,0,0,1-6.44-.6c-2-1.55-2.8-4.26-3-6.81-.29-3.24.33-7.18,3.08-9.33C321.83,199.32,326.42,199.73,328.62,201.35Z" transform="translate(-43.24 -68.98)"/><path class="cls-4" d="M298.6,228.3a4.66,4.66,0,0,1,3.21,2.69,8.36,8.36,0,0,1,.41,3.23,13.91,13.91,0,0,1-.46,4.17c-1.14,3.58-5.08,5.68-8.83,5.88a3.05,3.05,0,0,1-2.57-.76,3,3,0,0,1-.5-1.08C288.38,237.37,291.57,226.58,298.6,228.3Z" transform="translate(-43.24 -68.98)"/><path class="cls-4" d="M306,244.6a4.64,4.64,0,0,1-1.08-1.13,4.93,4.93,0,0,1-.62-1.68,8.33,8.33,0,0,1,.43-5,5.81,5.81,0,0,1,3.71-3.29,4.48,4.48,0,0,1,4.6,1.46,7,7,0,0,1,1.16,3.77c.18,2,.39,5.9-1.72,7.07C310.7,246.78,307.48,245.7,306,244.6Z" transform="translate(-43.24 -68.98)"/><path class="cls-4" d="M320.93,277.53a1.92,1.92,0,0,1-.8,1,2.23,2.23,0,0,1-.67.19,4.7,4.7,0,0,1-2.83-.25,3.83,3.83,0,0,1-1.12-.88c-2.23-2.42-4.05-10.59.9-11.12C321.72,265.87,322.5,274.15,320.93,277.53Z" transform="translate(-43.24 -68.98)"/><path class="cls-4" d="M324.13,322.15a16.62,16.62,0,0,1-6-5,5.63,5.63,0,0,1-.8-1.41,6.71,6.71,0,0,1-.29-2.23,7.53,7.53,0,0,1,.54-3.63,4.74,4.74,0,0,1,4.44-2.25,9.26,9.26,0,0,1,4.8,2,8.59,8.59,0,0,1,1.7,1.54c1.68,2.11,2.28,6.48,1.54,9.06C329.42,322.48,326.12,323.14,324.13,322.15Z" transform="translate(-43.24 -68.98)"/><path class="cls-4" d="M311.24,331.34a5.86,5.86,0,0,1,2.17.64,6.32,6.32,0,0,1,2.76,4.67c.49,3-.23,6.34-2.59,8.21a6.26,6.26,0,0,1-9.14-1.5c-1.34-2.05-1.36-4.67-1.33-7.12,0-2,.33-3.27,2.17-4A12.67,12.67,0,0,1,311.24,331.34Z" transform="translate(-43.24 -68.98)"/><path class="cls-4" d="M320.21,346.43c1.84,1.2,2.18,3.72,2.26,5.92a8.58,8.58,0,0,1-.45,3.71,7.76,7.76,0,0,1-3.08,3.17,6.89,6.89,0,0,1-2.77,1.22,7.62,7.62,0,0,1-4.08-1,3.08,3.08,0,0,1-1.3-.9,2.91,2.91,0,0,1-.44-1.48c-.22-2.56.21-6.44,1.75-8.64S317.89,344.93,320.21,346.43Z" transform="translate(-43.24 -68.98)"/><path class="cls-4" d="M296.35,357.14a2.07,2.07,0,0,1-1.16.29,2.36,2.36,0,0,1-1.44-.26c-1.63-1.12-1.7-5.81,1-5.6C296.8,351.73,297.87,356,296.35,357.14Z" transform="translate(-43.24 -68.98)"/><path class="cls-4" d="M299.38,362.75a4.83,4.83,0,0,1,.44.46,5.66,5.66,0,0,1,1.09,2.21,8,8,0,0,1-.24,5.18,5.81,5.81,0,0,1-1.15,1.81,6.72,6.72,0,0,1-2.63,1.57,10,10,0,0,1-5.7.51,6,6,0,0,1-4.25-3.6,9.72,9.72,0,0,1-.37-3.32,8.12,8.12,0,0,1,.34-2.74c.7-1.91,3.54-4.87,5.66-5.2a7.89,7.89,0,0,1,3.45.6,7.43,7.43,0,0,1,1.9,1.36C298.42,362,298.92,362.33,299.38,362.75Z" transform="translate(-43.24 -68.98)"/><path class="cls-4" d="M299.17,354.85a4.75,4.75,0,0,1-1.35-1.21,4.68,4.68,0,0,1-.5-3.61,5.14,5.14,0,0,1,.85-2.13,6.05,6.05,0,0,1,1.88-1.51,9.41,9.41,0,0,1,3.5-1.31,4.81,4.81,0,0,1,3.58.85c1.35,1.08,1.67,2.91,1.69,4.57a20.11,20.11,0,0,1-.13,2.69C308.18,357.75,302.09,356.76,299.17,354.85Z" transform="translate(-43.24 -68.98)"/><path class="cls-4" d="M285.79,373.34c-.52,1.27-2,1.78-3.32,2.16-.74.21-1.65.38-2.17-.18a2.15,2.15,0,0,1-.43-1.29c-.28-2.85.95-5.38,4-6.06S286.58,371.43,285.79,373.34Z" transform="translate(-43.24 -68.98)"/><path class="cls-4" d="M296.07,383.76a5.58,5.58,0,0,1-1.66-5.59c.62-1.91,2.39-3.11,4.11-4a7.13,7.13,0,0,1,2.25-.8,4.85,4.85,0,0,1,3.81,1.32c2.05,1.83,4.32,7.24,1.78,9.54S298.54,386,296.07,383.76Z" transform="translate(-43.24 -68.98)"/><path class="cls-4" d="M282.54,359.63a19.29,19.29,0,0,1-.19-2.28,6.9,6.9,0,0,1,.38-2.93,3.82,3.82,0,0,1,3.29-2.27c3.27-.13,5.28,4.64,4.36,7.43C289.24,363.05,283.18,363.76,282.54,359.63Z" transform="translate(-43.24 -68.98)"/><path class="cls-4" d="M296.75,343.91a2.85,2.85,0,0,1-.58-1.82,6.49,6.49,0,0,1,3-5.57c1.92-1.17,2.83-.15,3.1,1.68a19.16,19.16,0,0,1,.62,3.47C302.78,344,298.37,345.78,296.75,343.91Z" transform="translate(-43.24 -68.98)"/><path class="cls-4" d="M310.47,305.81c-.32-2.19-.39-4.68,1.11-6.3,3.11-3.36,10.91-2.52,10.39,3C321.55,307.14,311.08,310.09,310.47,305.81Z" transform="translate(-43.24 -68.98)"/><path class="cls-4" d="M321.52,332.88a7,7,0,0,1-2.21,1.07,3,3,0,0,1-2.39-.32c-1.26-.84-1.39-2.62-1.35-4.14a9.1,9.1,0,0,1,.47-3.2,5.27,5.27,0,0,1,3.14-2.92,6.53,6.53,0,0,1,4.34.06c2.18.79,2.59,3.47,1.87,5.51C324.83,330.51,322.86,332,321.52,332.88Z" transform="translate(-43.24 -68.98)"/><path class="cls-4" d="M299.77,316.24a19,19,0,0,1,.21,3.37,5.52,5.52,0,0,1-.36,2.06,4,4,0,0,1-2.24,2,7.56,7.56,0,0,1-3.06.43,1,1,0,0,1-.39-.06,1,1,0,0,1-.43-.59,10.74,10.74,0,0,1-.58-3.33,6.05,6.05,0,0,1,.65-3.57C294.77,314.73,299.28,313.11,299.77,316.24Z" transform="translate(-43.24 -68.98)"/><path class="cls-4" d="M289.19,325.82a7.71,7.71,0,0,1-.38,4.31,4.18,4.18,0,0,1-3.29,2.56,2.15,2.15,0,0,1-1.47-.36,2.83,2.83,0,0,1-.9-1.93c-.29-1.87-.68-5.52,1.37-6.64C286,322.92,288.92,324.14,289.19,325.82Z" transform="translate(-43.24 -68.98)"/><path class="cls-4" d="M286,340.52a6.57,6.57,0,0,1,2.46,1.2,4.65,4.65,0,0,1,1.32,1.85,6.16,6.16,0,0,1-1.62,6.8,4.7,4.7,0,0,1-1.82,1.16,5,5,0,0,1-4.79-1.21,6.77,6.77,0,0,1-1.83-4c-.25-1.67-.28-3.88,1-5.32S284.33,340.06,286,340.52Z" transform="translate(-43.24 -68.98)"/><path class="cls-4" d="M276,351.06a7.91,7.91,0,0,1,3.16,2.38,6.77,6.77,0,0,1,.81,4,24.05,24.05,0,0,1-1.7,8.12,6.37,6.37,0,0,1-1.48,2.41,4.78,4.78,0,0,1-1.65.95,7.33,7.33,0,0,1-9.5-4.7,14.56,14.56,0,0,1-.47-4.17,15.09,15.09,0,0,1,.43-4.84,10.43,10.43,0,0,1,1.12-2.39c.71-1.17,1.92-3.3,3.31-3.65C271.83,348.71,274.41,350.26,276,351.06Z" transform="translate(-43.24 -68.98)"/><path class="cls-4" d="M290,374.55a5.32,5.32,0,0,1,2.23,1.07,6.73,6.73,0,0,1,1.66,3.14,15,15,0,0,1,.82,4.62,5.72,5.72,0,0,1-1.79,4.21c-1.52,1.3-3.71,1.39-5.71,1.41a6.42,6.42,0,0,1-3.95-.81,5.56,5.56,0,0,1-1.84-3.16c-.66-2.4-1.64-6.47.35-8.43A8.57,8.57,0,0,1,290,374.55Z" transform="translate(-43.24 -68.98)"/><path class="cls-4" d="M272.72,369.84A5.89,5.89,0,0,1,276,371c3.46,2.49,4.38,7.57,2.82,11.53a6.38,6.38,0,0,1-1,1.71,5.94,5.94,0,0,1-2.81,1.77,10.07,10.07,0,0,1-7.63-.62,4.34,4.34,0,0,1-1.42-1.05,4.76,4.76,0,0,1-.87-3.16,13.3,13.3,0,0,1,2.21-7.15C268.54,372.23,270.29,369.78,272.72,369.84Z" transform="translate(-43.24 -68.98)"/><path class="cls-4" d="M283.8,337c-.45,2.16-2.8,3.55-5,3.48a3.25,3.25,0,0,1-1.41-.3c-1.19-.61-1.58-2.09-1.81-3.4-.45-2.5-.69-5.33.87-7.34a3.15,3.15,0,0,1,3.33-1.29c1.55.54,2.24,2.57,3,3.88A7.13,7.13,0,0,1,283.8,337Z" transform="translate(-43.24 -68.98)"/><path class="cls-4" d="M253.73,327.51c-1.9.47-4.2.6-5.51-.85a6.19,6.19,0,0,1-1.1-4,19.41,19.41,0,0,1,.42-6.32,6.56,6.56,0,0,1,4-4.58,6.44,6.44,0,0,1,3.32-.05c3.22.71,7.1,4.17,6.95,7.73C261.65,324,257.7,326.53,253.73,327.51Z" transform="translate(-43.24 -68.98)"/><path class="cls-4" d="M262.8,335.45a9.55,9.55,0,0,1-4.94,5.25,11.49,11.49,0,0,1-5.39,1.46,4.48,4.48,0,0,1-3.95-1.9c-2.3-4,1.47-9.56,5.26-10.78C258,328.11,264.72,329.28,262.8,335.45Z" transform="translate(-43.24 -68.98)"/><path class="cls-4" d="M230.75,331.48c-2.31-.52-3.56-3.07-3.86-5.42a11.19,11.19,0,0,1,2.53-8.85c3.64-4.06,10.5-2,10,3.94-.19,2-1.67,4.54-2.56,6.34C235.7,329.73,233.54,332.11,230.75,331.48Z" transform="translate(-43.24 -68.98)"/><path class="cls-4" d="M264.7,350.67a4.47,4.47,0,0,1-4.5-2.83,5.76,5.76,0,0,1-.15-2c.23-3.47,1.94-7.1,5.13-8.48,1.78-.77,5.71-1.38,7.51-.4,1.6.86,2,3.93,1.57,5.57C273.38,346,268.22,350.49,264.7,350.67Z" transform="translate(-43.24 -68.98)"/><path class="cls-4" d="M275,323a4.46,4.46,0,0,1,2.92-4.09c3.8-1.35,4,4.29,2.8,6.56a3,3,0,0,1-3,1.62C275.58,326.91,275,324.9,275,323Z" transform="translate(-43.24 -68.98)"/><path class="cls-4" d="M263.7,358.37a5.72,5.72,0,0,1-.46,3.48,4.6,4.6,0,0,1-3.23,1.9,5.23,5.23,0,0,1-2.33,0,2.86,2.86,0,0,1-1.82-1.39,4.58,4.58,0,0,1-.35-1.77c-.15-2.45.59-5.84,3.27-6.84C261.76,352.63,263.49,356,263.7,358.37Z" transform="translate(-43.24 -68.98)"/><path class="cls-4" d="M256.39,343.6a3.12,3.12,0,0,1,1.13.27,2.75,2.75,0,0,1,1.26,2,6.27,6.27,0,0,1-4,6.88,11.78,11.78,0,0,1-2.7.49c-.64.06-1.4.07-1.78-.45a1.76,1.76,0,0,1-.27-1,13.79,13.79,0,0,1,1.17-6.49C252.19,343.16,254.17,343.4,256.39,343.6Z" transform="translate(-43.24 -68.98)"/><path class="cls-4" d="M258.27,367.67a9.06,9.06,0,0,1,3-1c1.49-.33,3.13-.65,4.48.07a4.48,4.48,0,0,1,2,4.07,6.85,6.85,0,0,1-8,6.68,3.79,3.79,0,0,1-1.59-.59,4.46,4.46,0,0,1-1.5-3C256.31,371.53,256.05,369.08,258.27,367.67Z" transform="translate(-43.24 -68.98)"/><path class="cls-4" d="M254.49,373c.29,2.07.43,4.31-.61,6.13a5.75,5.75,0,0,1-4.19,2.75,6.81,6.81,0,0,1-4.88-1.34,4.35,4.35,0,0,1-.85-.81,5,5,0,0,1-.84-2.48c-.36-3,.63-7.05,3.85-8.07C250.5,368,254,369.11,254.49,373Z" transform="translate(-43.24 -68.98)"/><path class="cls-4" d="M262.06,394a9.47,9.47,0,0,1-.25-2.81,3.44,3.44,0,0,1,.19-1.32,2.78,2.78,0,0,1,.79-.95c2.09-1.71,5-2,7.7-1.9a2.69,2.69,0,0,1,1.74.45,2.59,2.59,0,0,1,.63,1c.9,2.06,1.51,4.55.36,6.49a5.55,5.55,0,0,1-3.77,2.38C266.51,397.88,263.05,397.28,262.06,394Z" transform="translate(-43.24 -68.98)"/><path class="cls-4" d="M266.84,334.93a3.43,3.43,0,0,1-2-.39,3.48,3.48,0,0,1-1.08-1.4,19.62,19.62,0,0,1-2-6.89,11.25,11.25,0,0,1,.53-5.16,6.08,6.08,0,0,1,3.53-3.64,6.23,6.23,0,0,1,6.09,1.59,12,12,0,0,1,3.11,5.73,11.31,11.31,0,0,1,.4,5C274.6,334,270.54,334.81,266.84,334.93Z" transform="translate(-43.24 -68.98)"/><path class="cls-4" d="M246.29,317a5.12,5.12,0,0,1-5.21,1,8,8,0,0,1-2.14-1.48,3.28,3.28,0,0,1-.87-1.06,3.43,3.43,0,0,1-.2-1.15c-.06-1.22-.09-2.45-.1-3.67a10.47,10.47,0,0,1,.22-2.57,10.88,10.88,0,0,1,2.19-3.83,4.7,4.7,0,0,1,2-1.77,3.8,3.8,0,0,1,2.81.33,6,6,0,0,1,2.92,2.49,7.34,7.34,0,0,1,.67,3C248.73,311.3,248.7,314.9,246.29,317Z" transform="translate(-43.24 -68.98)"/><path class="cls-4" d="M239.75,335.7a3.27,3.27,0,0,1-1.08-1,3.7,3.7,0,0,1-.35-2.5,6.71,6.71,0,0,1,1.4-3.51,6.09,6.09,0,0,1,3.22-1.8,5.25,5.25,0,0,1,5,1.08,4.87,4.87,0,0,1-.11,6.37C245.63,336.69,242.61,337.48,239.75,335.7Z" transform="translate(-43.24 -68.98)"/><path class="cls-4" d="M237,351a4.42,4.42,0,0,1,2.51,2.4,5.78,5.78,0,0,1,.3,2.07,9.41,9.41,0,0,1-1.82,6.09,8.66,8.66,0,0,1-2.28,1.84,5.43,5.43,0,0,1-2.31.84,7,7,0,0,1-3.65-1.15,5,5,0,0,1-2-1.55,4,4,0,0,1-.5-1.79,9.36,9.36,0,0,1,2.5-6.92A6.15,6.15,0,0,1,237,351Z" transform="translate(-43.24 -68.98)"/><path class="cls-4" d="M239.32,364.93a5.52,5.52,0,0,1,2.78,5.41,6.68,6.68,0,0,1-3.6,5.06,5.84,5.84,0,0,1-4,.57,7,7,0,0,1-2.34-1.17,3.87,3.87,0,0,1-.82-.74,3.22,3.22,0,0,1-.59-1.91,7.72,7.72,0,0,1,1.26-4.31,9.52,9.52,0,0,1,2.86-3.28C236.09,363.89,238.14,364.32,239.32,364.93Z" transform="translate(-43.24 -68.98)"/><path class="cls-4" d="M229.29,367.61a8.8,8.8,0,0,1-4.09,5.62,8.12,8.12,0,0,1-1.56.78c-2.53.89-5.35-.12-7.68-1.47a10.65,10.65,0,0,1-3.08-2.45,10.11,10.11,0,0,1-1.59-3.16,11.79,11.79,0,0,1-.66-5.22,6.24,6.24,0,0,1,2.61-4.44,7.39,7.39,0,0,1,2.7-1,4.71,4.71,0,0,1,1.83,0,5.53,5.53,0,0,1,1.58.73c2.48,1.47,5.16,2.79,7.51,4.45A6.52,6.52,0,0,1,229.29,367.61Z" transform="translate(-43.24 -68.98)"/><path class="cls-4" d="M252.11,353.78a6.29,6.29,0,0,1,2.6,5.14,10.14,10.14,0,0,1-1.85,5.62,9.82,9.82,0,0,1-4.3,3.75,6,6,0,0,1-5.55-.45,3,3,0,0,1-1-1.12,4.2,4.2,0,0,1-.33-1.53,21.36,21.36,0,0,1,0-2.4A12.83,12.83,0,0,1,243,357.2C244.64,354.11,248.74,351.54,252.11,353.78Z" transform="translate(-43.24 -68.98)"/><path class="cls-4" d="M315.5,205.67a2.63,2.63,0,0,1-.63.88,2.77,2.77,0,0,1-1.43.47,2.72,2.72,0,0,1-2.24-.41,2.32,2.32,0,0,1-.57-1,6.2,6.2,0,0,1,1.68-6.24,4.94,4.94,0,0,1,2.38-1c1.55-.16,1.64,1.61,1.71,2.78A9.17,9.17,0,0,1,315.5,205.67Z" transform="translate(-43.24 -68.98)"/><path class="cls-4" d="M314.76,184.75a5.38,5.38,0,0,1-2.81,2.84,3.29,3.29,0,0,1-3.73-.88,4.67,4.67,0,0,1-.59-3.47c.35-2.8,1.56-5.71,4-7.07a3,3,0,0,1,2.1-.43C317.22,176.57,315.76,182.62,314.76,184.75Z" transform="translate(-43.24 -68.98)"/><path class="cls-4" d="M301.61,197.14a3.94,3.94,0,0,1-.9,1.21,8.73,8.73,0,0,1-6.52,2.44,3.65,3.65,0,0,1-2.77-1.19c-.81-1-.57-2.54-.25-3.83.55-2.12,1.37-4.41,3.28-5.48a5,5,0,0,1,4.18-.25,5.16,5.16,0,0,1,3,2.59A7.39,7.39,0,0,1,301.61,197.14Z" transform="translate(-43.24 -68.98)"/><path class="cls-4" d="M280.07,180.94a8.27,8.27,0,0,1-.3,3.25,4.69,4.69,0,0,1-4.09,3,1.89,1.89,0,0,1-1.07-.2,2.14,2.14,0,0,1-.72-.8,9.65,9.65,0,0,1-.25-8.55,5,5,0,0,1,1.53-2.15,3.13,3.13,0,0,1,4.42.83,3,3,0,0,1,.27,1.57C279.89,178.92,280,179.93,280.07,180.94Z" transform="translate(-43.24 -68.98)"/><path class="cls-4" d="M309.05,178.06a4.32,4.32,0,0,1-2.83,2.6,7.14,7.14,0,0,1-3.94-.06,6.6,6.6,0,0,1-4-2.75,3.85,3.85,0,0,1,.38-4.61,4,4,0,0,1,2.62-1,9.76,9.76,0,0,1,2.84.37C306.54,173.18,310.11,174.92,309.05,178.06Z" transform="translate(-43.24 -68.98)"/><path class="cls-4" d="M288.11,176.26a7.86,7.86,0,0,1,5.81,1.93,4.65,4.65,0,0,1,1.16,1.45,5.65,5.65,0,0,1,.49,1.81,11.12,11.12,0,0,1-1.47,7.16,8.83,8.83,0,0,1-6,4.11,7.4,7.4,0,0,1-6.73-2.35,3.82,3.82,0,0,1-.74-1.24,4.32,4.32,0,0,1-.17-1.29C280.44,182.93,282.47,176.75,288.11,176.26Z" transform="translate(-43.24 -68.98)"/><path class="cls-4" d="M286,195.11a6.46,6.46,0,0,1,2.88,4.25,2.87,2.87,0,0,1-.25,2.21,2.67,2.67,0,0,1-2.22.94,8.43,8.43,0,0,1-3.28-.7,4.8,4.8,0,0,1-1.84-1.14c-.94-1-1.61-4.37-.47-5.47S284.71,194.37,286,195.11Z" transform="translate(-43.24 -68.98)"/><path class="cls-4" d="M305.4,198.07a7.41,7.41,0,0,1,2,1.89c1.11,1.36,2.27,2.88,2.24,4.63a6.72,6.72,0,0,1-.29,1.67,4.59,4.59,0,0,1-.74,1.69,4.67,4.67,0,0,1-2.5,1.34c-1.71.48-3.66.82-5.17-.11-3.3-2.05-2.81-9.07.46-10.91A4,4,0,0,1,305.4,198.07Z" transform="translate(-43.24 -68.98)"/><path class="cls-4" d="M298.32,222.79a5.25,5.25,0,0,1-.63-3.86,11.33,11.33,0,0,1,1.58-3.66,8,8,0,0,1,2.6-2.83,7.74,7.74,0,0,1,5.27-.57,4.19,4.19,0,0,1,2.59,1.21,4.68,4.68,0,0,1,.74,3,8.59,8.59,0,0,1-.22,2.68,7.73,7.73,0,0,1-1.69,2.7,10.69,10.69,0,0,1-5.16,3.68C301.66,225.54,299.27,224.24,298.32,222.79Z" transform="translate(-43.24 -68.98)"/><path class="cls-4" d="M302.9,231.14a3.83,3.83,0,0,1,.39-2.74,4.27,4.27,0,0,1,2.27-2.23,3.88,3.88,0,0,1,3.17.47,2.51,2.51,0,0,1,.71.58,1.93,1.93,0,0,1,.34.67,4.91,4.91,0,0,1-2.12,5.07A3.6,3.6,0,0,1,302.9,231.14Z" transform="translate(-43.24 -68.98)"/><path class="cls-4" d="M286.47,230.75a4.61,4.61,0,0,1,2.23,4.5,4.32,4.32,0,0,1-3.11,3.4,4.82,4.82,0,0,1-4.5-1.2,3,3,0,0,1-.74-1.06,3.91,3.91,0,0,1-.19-1.32c0-1.45.07-3.63,1.32-4.63S285.24,230,286.47,230.75Z" transform="translate(-43.24 -68.98)"/><path class="cls-4" d="M284.71,227.92a2.42,2.42,0,0,1-1.85.31,3.85,3.85,0,0,1-1.06-.56,9.89,9.89,0,0,1-1.91-1.55c-1.52-1.7-1.77-4.16-1.88-6.44a10,10,0,0,1,.11-2.57,3.21,3.21,0,0,1,4-2.67,9.76,9.76,0,0,1,2.64,1,4.41,4.41,0,0,1,1.31.85,3.52,3.52,0,0,1,.72,1.35,17.21,17.21,0,0,1,.57,5.36,4.75,4.75,0,0,1-.35,2.22A7.31,7.31,0,0,1,284.71,227.92Z" transform="translate(-43.24 -68.98)"/><path class="cls-4" d="M248.94,348.46a5,5,0,0,1-2.62,2.85,7.48,7.48,0,0,1-2.53.44,4.3,4.3,0,0,1-2.2-.31,3.5,3.5,0,0,1-1.24-1.32,9.14,9.14,0,0,1-.13-9.13c.66-1.15,1.77-2.23,3.08-2.15a4.4,4.4,0,0,1,1.83.66,12.35,12.35,0,0,1,3.17,2.16C250,343.49,249.8,346.25,248.94,348.46Z" transform="translate(-43.24 -68.98)"/><path class="cls-4" d="M229.68,340.62a7.5,7.5,0,0,1-1-3.85,5.34,5.34,0,0,1,.26-2.25c.7-1.7,2.92-2.33,4.7-1.86a11.58,11.58,0,0,1,4.59,3,5.53,5.53,0,0,1,1.1,1.22,5.68,5.68,0,0,1,.59,2.83C240.15,345.45,232,344.08,229.68,340.62Z" transform="translate(-43.24 -68.98)"/><path class="cls-4" d="M226.51,329.56a4.75,4.75,0,0,1-2.68,5.83,13.79,13.79,0,0,1-6.94,1.59,12.73,12.73,0,0,1-5.88-1.42,8.19,8.19,0,0,1-3.92-4.51,13.73,13.73,0,0,1-.47-3.89,9.24,9.24,0,0,1,.35-3.36c1.17-3.15,5.48-4.21,8.5-3.75a14.89,14.89,0,0,1,8.5,4.51A10.94,10.94,0,0,1,226.51,329.56Z" transform="translate(-43.24 -68.98)"/><path class="cls-4" d="M233.91,313.92a4.22,4.22,0,0,1-1.8,1.31,3.81,3.81,0,0,1-1.43,0,5.19,5.19,0,0,1-3-1.22,5.92,5.92,0,0,1-1.34-3.9,6.68,6.68,0,0,1,.54-3.84,4.23,4.23,0,0,1,4-2,6.16,6.16,0,0,1,4,2.12C237.27,309.15,236.12,311.6,233.91,313.92Z" transform="translate(-43.24 -68.98)"/><path class="cls-4" d="M222.49,338c1.76-.18,3.68-.33,5.14.67s2.08,3,2.19,4.84a14.68,14.68,0,0,1-1.3,6.88,8.73,8.73,0,0,1-3.5,4.1,10.41,10.41,0,0,1-3.81,1.06,14.09,14.09,0,0,1-5.26-.18,6.69,6.69,0,0,1-4.19-3,8.91,8.91,0,0,1-.9-4.4,10.27,10.27,0,0,1,.75-4.36c.92-2,2.74-3.23,4.52-4.37S220.36,338.27,222.49,338Z" transform="translate(-43.24 -68.98)"/><path class="cls-4" d="M201.61,345.22c1.63,1.22,2.22,3.41,2.3,5.45a11.39,11.39,0,0,1-2.47,7.9,7.53,7.53,0,0,1-7.63,2.48,7.38,7.38,0,0,1-4.49-4.35,11.08,11.08,0,0,1-.43-6.35C190,344.78,196.74,341.56,201.61,345.22Z" transform="translate(-43.24 -68.98)"/><path class="cls-4" d="M210.82,343.82a2.83,2.83,0,0,1-1.13.79,3.06,3.06,0,0,1-2,.37,3.52,3.52,0,0,1-1.39-.9,3.22,3.22,0,0,1-.61-.67,2.62,2.62,0,0,1-.35-1.26,3.59,3.59,0,0,1,.95-3c1-.9,3.31-1.23,4.26-.09S211.62,342.76,210.82,343.82Z" transform="translate(-43.24 -68.98)"/><path class="cls-4" d="M198.42,337a9.51,9.51,0,0,1,.36,2.95,4.09,4.09,0,0,1-1.11,2.67,3.52,3.52,0,0,1-4.5,0,8.7,8.7,0,0,1-2.65-4.29c-.91-2.77-1.63-8.3,2.43-8.6C196.23,329.5,197.75,334.39,198.42,337Z" transform="translate(-43.24 -68.98)"/><path class="cls-4" d="M206.34,324.24a6.05,6.05,0,0,1-2.13,2.31,2.46,2.46,0,0,1-.85.47,1.88,1.88,0,0,1-1.1-.07,3.43,3.43,0,0,1-2.12-3.77,4.05,4.05,0,0,1,3.18-3.09,2.59,2.59,0,0,1,1.51.09A3.29,3.29,0,0,1,206.34,324.24Z" transform="translate(-43.24 -68.98)"/><path class="cls-4" d="M225.05,317.89a6.24,6.24,0,0,1-2.11,1.46c-1.51.71-3.36,1.16-4.8.31a5.07,5.07,0,0,1-1.32-1.21c-1-1.17-1.83-2.7-1.4-4.17s1.81-2.22,3.11-2.87a6.78,6.78,0,0,1,1.67-.64,5.62,5.62,0,0,1,3.4.73A4.12,4.12,0,0,1,225.05,317.89Z" transform="translate(-43.24 -68.98)"/><path class="cls-4" d="M237.11,304.85a4.57,4.57,0,0,1-3.61-.29,4.82,4.82,0,0,1-2-2.73,13.91,13.91,0,0,1-.5-3.41,6.89,6.89,0,0,1,.29-3.13,6.29,6.29,0,0,1,.93-1.47,7.44,7.44,0,0,1,2.69-2.36,3.1,3.1,0,0,1,3.38.41c1.06,1.05,1.35,2.91,1.94,4.24a17.21,17.21,0,0,1,1.46,3C242.31,302,239.41,304,237.11,304.85Z" transform="translate(-43.24 -68.98)"/><path class="cls-4" d="M224.51,295.21c1.45-.58,3.26-.93,4.43.1a3.41,3.41,0,0,1,.94,1.66,7.25,7.25,0,0,1-1.61,6.3,14.63,14.63,0,0,1-5.48,3.87,4.19,4.19,0,0,1-1.69.47c-1.6,0-2.7-1.58-3.33-3.05-.86-2-1.23-4.72.82-6.18A30.62,30.62,0,0,1,224.51,295.21Z" transform="translate(-43.24 -68.98)"/><path class="cls-4" d="M193.75,327.24c-1.46,2.14-3.56,4.21-6.15,4.22a5.8,5.8,0,0,1-4.31-2.16,9.61,9.61,0,0,1-1.94-4.52,10,10,0,0,1,1.48-7.7,6.41,6.41,0,0,1,7.12-2.41,8.33,8.33,0,0,1,2,1.19c1.48,1.12,3.8,2.9,4.08,4.88C196.34,322.93,194.93,325.51,193.75,327.24Z" transform="translate(-43.24 -68.98)"/><path class="cls-4" d="M212,319.23a4.42,4.42,0,0,1-2.27,1.3,6.72,6.72,0,0,1-2.07.44,4.18,4.18,0,0,1-3.26-1.88,8.4,8.4,0,0,1-1.31-3.65,5,5,0,0,1,.38-3.33,3.78,3.78,0,0,1,3.8-1.55c1.69.26,4.29,1.61,5,3.29C212.81,315.17,212.84,318.09,212,319.23Z" transform="translate(-43.24 -68.98)"/><path class="cls-4" d="M233.83,288.89a5.09,5.09,0,0,1-1.22,3.67,4.79,4.79,0,0,1-1.45,1,7.38,7.38,0,0,1-5.1.5,5.53,5.53,0,0,1-3.27-2.24c-1-1.47-1-3.35-.93-5.1a5.37,5.37,0,0,1,.46-2.52,3.88,3.88,0,0,1,2.07-1.61,7.14,7.14,0,0,1,5.5.2A6.18,6.18,0,0,1,233.83,288.89Z" transform="translate(-43.24 -68.98)"/><path class="cls-4" d="M238.8,264.13a1.75,1.75,0,0,1-.34.48,11.61,11.61,0,0,1-6.69,3.5,3.81,3.81,0,0,1-3.34-.74,3.36,3.36,0,0,1-.67-1.14,7.23,7.23,0,0,1-.2-4.75,6.45,6.45,0,0,1,3.34-4,5.22,5.22,0,0,1,5.12.36C237.59,258.94,239.64,262.08,238.8,264.13Z" transform="translate(-43.24 -68.98)"/><path class="cls-4" d="M207,280.07a7.14,7.14,0,0,1-1.86,2.48c-4,3.65-10.34,4.66-14.91,1.83a8.45,8.45,0,0,1-2.42-2.19,10.72,10.72,0,0,1-1.7-5.84,14.63,14.63,0,0,1,.78-5.88,8.06,8.06,0,0,1,3.8-4.43c2.38-1.19,5.26-.81,7.78,0a10,10,0,0,1,2.82,1.38,13.35,13.35,0,0,1,2.55,2.85c1,1.45,3,3.27,3.54,5C207.86,276.72,207.37,278.68,207,280.07Z" transform="translate(-43.24 -68.98)"/><path class="cls-4" d="M228.84,272l.17,3.08a7.19,7.19,0,0,1-.14,2.36A5.72,5.72,0,0,1,227.1,280a8.09,8.09,0,0,1-3.18,2,4.43,4.43,0,0,1-3.63-.42c-1.47-1-2-2.87-2.27-4.61a7.6,7.6,0,0,1,.07-3.52,5.33,5.33,0,0,1,2.65-2.9,11,11,0,0,1,3.87-1,4.2,4.2,0,0,1,1.87.12C227.12,269.83,228.8,271.3,228.84,272Z" transform="translate(-43.24 -68.98)"/><path class="cls-4" d="M248.3,246.38a5.74,5.74,0,0,1-4.31,2,4.4,4.4,0,0,1-3.9-2.51,6.57,6.57,0,0,1-.43-2,22.94,22.94,0,0,1-.09-2.62,3.25,3.25,0,0,1,.36-1.69,3.47,3.47,0,0,1,1.34-1.08,9,9,0,0,1,4.38-1.49,4.75,4.75,0,0,1,3.51,1.67C251.08,240.93,250.13,244.33,248.3,246.38Z" transform="translate(-43.24 -68.98)"/><path class="cls-4" d="M277.3,236.89a4.85,4.85,0,0,1-2.34,1.58,2.6,2.6,0,0,1-2.62-.72,4.14,4.14,0,0,1-.64-1.34c-.34-1-.64-2.27,0-3.19a3.07,3.07,0,0,1,1-.87,4,4,0,0,1,2.08-.7,3.42,3.42,0,0,1,2.2.94C278.47,233.94,278.73,235.27,277.3,236.89Z" transform="translate(-43.24 -68.98)"/><path class="cls-4" d="M280.67,213.21a3.71,3.71,0,0,1-2-.45,9.28,9.28,0,0,1-5.09-7,5.22,5.22,0,0,1,0-1.89,3.77,3.77,0,0,1,1.41-2.14c1.69-1.24,4.17-.79,5.83.48,1.5,1.14,3.35,3.3,3.38,5.3S283,212.92,280.67,213.21Z" transform="translate(-43.24 -68.98)"/><path class="cls-4" d="M270.17,191.53a4.51,4.51,0,0,1-1.58,1.69,4.83,4.83,0,0,1-1.29.4c-1.32.29-2.8.55-3.95-.17a4,4,0,0,1-1.47-2,7.43,7.43,0,0,1,.74-6.53,7.6,7.6,0,0,1,5.66-3.35,4,4,0,0,1,2.56.53,3.6,3.6,0,0,1,1.14,1.45C273.34,186.4,271.68,189.1,270.17,191.53Z" transform="translate(-43.24 -68.98)"/><path class="cls-4" d="M241.14,205.63a6.65,6.65,0,0,1-2.26.16,2.69,2.69,0,0,1-1.91-1.1,4.18,4.18,0,0,1-.41-2.38,2.12,2.12,0,0,1,.13-.79,1.67,1.67,0,0,1,.64-.68,6.19,6.19,0,0,1,3.37-1.14C244,199.6,244.43,204.94,241.14,205.63Z" transform="translate(-43.24 -68.98)"/><path class="cls-4" d="M265,214.35a9.09,9.09,0,0,1-3.71.33c-1.78-.14-3.69-.66-4.74-2.1a4.67,4.67,0,0,1-.06-5,7.31,7.31,0,0,1,4.21-3.05,17.87,17.87,0,0,1,5.26-.6C272.19,203.91,269.05,213,265,214.35Z" transform="translate(-43.24 -68.98)"/><path class="cls-4" d="M273.56,215.35a4.74,4.74,0,0,1-2.22-.16,4,4,0,0,1-1.58-1.39,3.44,3.44,0,0,1-.85-2,2.58,2.58,0,0,1,2.43-2.29,5.46,5.46,0,0,1,3.42,1.12,5.14,5.14,0,0,1,1.3,1.11C278,214.16,275.76,215.14,273.56,215.35Z" transform="translate(-43.24 -68.98)"/><path class="cls-4" d="M259.47,203.52a7.72,7.72,0,0,1-4.24-.7,7.06,7.06,0,0,1-4-3.34,8.53,8.53,0,0,1-.53-2.35c-.19-1.52-.35-3.18.48-4.47A4.05,4.05,0,0,1,254,191a7,7,0,0,1,3.32.44c2.69,1,5.58,3.28,6.58,6.05C264.84,200,261.88,203.1,259.47,203.52Z" transform="translate(-43.24 -68.98)"/><path class="cls-4" d="M245.82,206.89a4.7,4.7,0,0,1,2.54,2.24,2.93,2.93,0,0,1-.43,3.24,3.69,3.69,0,0,1-.79.57,6.92,6.92,0,0,1-5.81.41,3.18,3.18,0,0,1-1.25-.81,3.24,3.24,0,0,1-.65-1.6,4.79,4.79,0,0,1,.22-2.78C240.66,205.84,243.86,206.09,245.82,206.89Z" transform="translate(-43.24 -68.98)"/><path class="cls-4" d="M234.28,207.58a3.18,3.18,0,0,1-.84.52,4.66,4.66,0,0,1-3.68,0,2.48,2.48,0,0,1-.71-.44,2.66,2.66,0,0,1-.55-.84,4.56,4.56,0,0,1-.12-3.85,3.72,3.72,0,0,1,3.87-2C235.11,201.49,236.51,205.49,234.28,207.58Z" transform="translate(-43.24 -68.98)"/><path class="cls-4" d="M246.45,220.69a8.74,8.74,0,0,1,4.49,2.8,7.76,7.76,0,0,1,1.34,3.56c.43,2.86-.26,6.16-2.65,7.79-2.22,1.53-5.2,1.19-7.81.53a38.31,38.31,0,0,1-5.53-1.88,9.65,9.65,0,0,1-3-1.83,8,8,0,0,1-2-3.73c-.85-3.19-.1-7.75,3.92-8.05A29.42,29.42,0,0,1,246.45,220.69Z" transform="translate(-43.24 -68.98)"/><path class="cls-4" d="M266.6,239.59a4.6,4.6,0,0,1-4.49.08,2.46,2.46,0,0,1-.73-.67,3.51,3.51,0,0,1-.43-.92c-.46-1.32-.84-2.85-.16-4.08a4.19,4.19,0,0,1,3.49-1.79,4.09,4.09,0,0,1,1.93.26C269,233.69,269.22,238.18,266.6,239.59Z" transform="translate(-43.24 -68.98)"/><path class="cls-4" d="M259.07,222.51a6.16,6.16,0,0,1-5.66.85,10.16,10.16,0,0,1-3-1.88,9.92,9.92,0,0,1-3.26-4.28,3.93,3.93,0,0,1,4.6-5.43,12.83,12.83,0,0,1,3.16,1.13l3.38,1.55c1.43.66,3.36,1.65,3.33,3.44A6.55,6.55,0,0,1,259.07,222.51Z" transform="translate(-43.24 -68.98)"/><path class="cls-4" d="M273.72,203.18a9.13,9.13,0,0,1-4.18,1.49,4.31,4.31,0,0,1-3.88-1.78,5.05,5.05,0,0,1-.66-2.48,7.85,7.85,0,0,1,3.67-7.11,8.66,8.66,0,0,1,4-1,7.06,7.06,0,0,1,4.47,1.22C281.32,196.77,276.73,201.38,273.72,203.18Z" transform="translate(-43.24 -68.98)"/><path class="cls-4" d="M245.81,203.19a3.42,3.42,0,0,1-2-2.11,5.37,5.37,0,0,1,0-4.2,3.89,3.89,0,0,1,.74-1.09,3.45,3.45,0,0,1,3.5-.73,4.11,4.11,0,0,1,2.5,2.64C251.46,200.48,249.09,204.17,245.81,203.19Z" transform="translate(-43.24 -68.98)"/><path class="cls-4" d="M255.66,206.16a5.18,5.18,0,0,1-.19,2.42,3.87,3.87,0,0,1-3.49,1.95,2.25,2.25,0,0,1-2.55-1.51,7.07,7.07,0,0,1-.68-2.67,4,4,0,0,1,.3-1.88,3.2,3.2,0,0,1,2.65-1.75A3.41,3.41,0,0,1,255.66,206.16Z" transform="translate(-43.24 -68.98)"/><path class="cls-4" d="M232.79,211.33a6.8,6.8,0,0,1,3,5.82,3.56,3.56,0,0,1-.36,1.44,3.47,3.47,0,0,1-1.39,1.35,6.93,6.93,0,0,1-5,.6,12.86,12.86,0,0,1-4.59-2.29,4.35,4.35,0,0,1-1.12-1.06,3.39,3.39,0,0,1-.48-1.73,5.46,5.46,0,0,1,1.62-4C226.73,209.25,230.37,209.69,232.79,211.33Z" transform="translate(-43.24 -68.98)"/><path class="cls-4" d="M253,229.72a2.28,2.28,0,0,1-.54-2,2.75,2.75,0,0,1,.75-1.21c2.2-2.23,6.54-1.88,6,2C258.82,231.16,254.57,231.51,253,229.72Z" transform="translate(-43.24 -68.98)"/><path class="cls-4" d="M237,234.65a2.82,2.82,0,0,1,2.2,1.65,6.38,6.38,0,0,1,.5,2.81,6,6,0,0,1-.58,2.93,2.58,2.58,0,0,1-2.48,1.4,2.63,2.63,0,0,1-1.92-1.75,7.84,7.84,0,0,1-.35-2.69C234.34,237,234.39,234.46,237,234.65Z" transform="translate(-43.24 -68.98)"/><path class="cls-4" d="M240.1,254.94a4.5,4.5,0,0,1-.31-3.48,2.61,2.61,0,0,1,2.69-1.78C246.42,250.32,241.91,258.61,240.1,254.94Z" transform="translate(-43.24 -68.98)"/><path class="cls-4" d="M217.92,250.39a2.49,2.49,0,0,1-4.65-.1,3.31,3.31,0,0,1-.18-1.08c-.05-1.78,1.21-4.08,3.35-3.43C218,246.27,218.46,249.05,217.92,250.39Z" transform="translate(-43.24 -68.98)"/><path class="cls-4" d="M227.86,220.76a4.71,4.71,0,0,1,1.56.8c1.38,1.15,1.55,3.16,1.62,5a3,3,0,0,1-.11,1.11,2.23,2.23,0,0,1-.49.69,5.22,5.22,0,0,1-8.35-1.18,4.56,4.56,0,0,1-.55-1.94,7,7,0,0,1,.33-2.12C222.71,220.05,225.15,219.86,227.86,220.76Z" transform="translate(-43.24 -68.98)"/><path class="cls-4" d="M224.36,210.65a3.38,3.38,0,0,1-.64.86,2.92,2.92,0,0,1-3.52.15,4.75,4.75,0,0,1-1.91-3.17,3.33,3.33,0,0,1,.17-2.07,2.6,2.6,0,0,1,.78-.9,3.08,3.08,0,0,1,2.27-.71,4.75,4.75,0,0,1,1.16.37C225.12,206.25,225.6,208.34,224.36,210.65Z" transform="translate(-43.24 -68.98)"/><path class="cls-4" d="M210.6,217.74a10.36,10.36,0,0,1,2.32,10.83,11,11,0,0,1-14.23,6.5,5.37,5.37,0,0,1-1.75-1,6,6,0,0,1-1.37-2.12,14.22,14.22,0,0,1-1-9C196.2,216.17,205.27,212.62,210.6,217.74Z" transform="translate(-43.24 -68.98)"/><path class="cls-4" d="M218.94,241.15a11.32,11.32,0,0,1-3.93-.58,5.08,5.08,0,0,1-2.9-2.59,6.88,6.88,0,0,1-.4-2.78,7.87,7.87,0,0,1,.85-4c2-3.38,7.78-2.85,9.35.72.62,1.43.44,3.49.45,5C222.37,239.56,221.83,241.15,218.94,241.15Z" transform="translate(-43.24 -68.98)"/><path class="cls-4" d="M230.46,246.85a4,4,0,0,1,2.4-1.88c2.14-.74,4.83-.35,6.14,1.5s.85,4.22,0,6.19a5.58,5.58,0,0,1-1.78,2.41,6.64,6.64,0,0,1-4,.73,3,3,0,0,1-2.31-.75,2.94,2.94,0,0,1-.5-1,13.14,13.14,0,0,1-.86-4.48,5.18,5.18,0,0,1,1.88-4" transform="translate(-43.24 -68.98)"/><path class="cls-4" d="M257.13,232.47a7.09,7.09,0,0,1,2.69,3.53,5.12,5.12,0,0,1-.51,4.32,6.6,6.6,0,0,1-1.85,1.76,6.16,6.16,0,0,1-2.37,1,4.6,4.6,0,0,1-4.69-2.38c-1.47-2.73.15-5.08,1.41-7.45C252.92,231.23,255.24,231.13,257.13,232.47Z" transform="translate(-43.24 -68.98)"/><path class="cls-4" d="M201.61,359.7a8.39,8.39,0,0,1,3.6.52,9.35,9.35,0,0,1,4.77,3.59,6.29,6.29,0,0,1,.61,5.79,10.59,10.59,0,0,1-3,3.51,3.14,3.14,0,0,1-1,.69,3,3,0,0,1-.84.09,12.88,12.88,0,0,1-4.78-.7,6,6,0,0,1-3.49-3.18,8.48,8.48,0,0,1-.48-3.09C196.88,363.56,197.71,360.1,201.61,359.7Z" transform="translate(-43.24 -68.98)"/><path class="cls-4" d="M205,339.36a4.48,4.48,0,0,1-1.43.44,3.6,3.6,0,0,1-3-.5,3.51,3.51,0,0,1-.8-1.2,10.52,10.52,0,0,1-.42-7.47,3,3,0,0,1,1.08-1.68,2.31,2.31,0,0,1,2-.13,5.79,5.79,0,0,1,1.74,1.13,11,11,0,0,1,2.32,2.6C207.69,334.63,207.28,338.09,205,339.36Z" transform="translate(-43.24 -68.98)"/><path class="cls-4" d="M209.7,358.18a25.57,25.57,0,0,1-2.3,1.25,2.81,2.81,0,0,1-2,.65,1.8,1.8,0,0,1-.92-.69,5.6,5.6,0,0,1-.07-6.22c1.15-1.94,4.56-2.9,6.36-1.05C212.37,353.79,211.39,357,209.7,358.18Z" transform="translate(-43.24 -68.98)"/><path class="cls-4" d="M186.36,341.63a5.42,5.42,0,0,1,1.33,1.24,7,7,0,0,1,1,3.44,19.19,19.19,0,0,1-.07,6.1,7.59,7.59,0,0,1-3.27,5c-2.06,1.24-4.71,1.07-7,.28s-4.31-2.21-4.83-4.43a12.72,12.72,0,0,1-.13-2.76,10.1,10.1,0,0,1,.19-3,6.3,6.3,0,0,1,1.31-2.19,32.26,32.26,0,0,1,2.66-2.7A11.53,11.53,0,0,1,179.3,341C181.55,339.55,184.3,340.19,186.36,341.63Z" transform="translate(-43.24 -68.98)"/><path class="cls-4" d="M201,316.06c-1.25,1.59-3.58,2.5-5.37,1.55a4.45,4.45,0,0,1-2-2.53,11.42,11.42,0,0,1-.49-3.25,6.64,6.64,0,0,1,.11-1.78,5.56,5.56,0,0,1,1.64-2.51,4.1,4.1,0,0,1,1.8-1.14c1.27-.3,2.52.47,3.6,1.2a5.83,5.83,0,0,1,2,3.73A6.42,6.42,0,0,1,201,316.06Z" transform="translate(-43.24 -68.98)"/><path class="cls-4" d="M224.58,268.21a5.92,5.92,0,0,1-1.81.44,1.09,1.09,0,0,1-.62-.11,1.27,1.27,0,0,1-.36-.44c-.94-1.61-1.83-3.47-1.35-5.27a3.85,3.85,0,0,1,2.22-2.52,2,2,0,0,1,.84-.18,2.26,2.26,0,0,1,1.29.57C227.14,262.61,227.8,266.93,224.58,268.21Z" transform="translate(-43.24 -68.98)"/><path class="cls-4" d="M208.43,253.52a7.65,7.65,0,0,1-8.33,11.23,4.8,4.8,0,0,1-2.28-1.12,5.3,5.3,0,0,1-1.15-1.77,10.21,10.21,0,0,1-.51-7.13c.73-2.28,2.91-5.07,5.52-5.1A7.85,7.85,0,0,1,208.43,253.52Z" transform="translate(-43.24 -68.98)"/><path class="cls-4" d="M190.12,262.76a3.27,3.27,0,0,1-.62-.43,4.77,4.77,0,0,1-1.45-1.65,4.44,4.44,0,0,1-.21-2,4,4,0,0,1,.55-2.15,3,3,0,0,1,1.28-.93c2.59-1.12,4.22.85,4.39,3.35C194.19,260.66,192.1,263.7,190.12,262.76Z" transform="translate(-43.24 -68.98)"/><path class="cls-4" d="M211.71,275.57a8.1,8.1,0,0,1-4.31-.76,5.6,5.6,0,0,1-2.58-5.19,8.33,8.33,0,0,1,2.71-5.32,7.8,7.8,0,0,1,2-1.43,8,8,0,0,1,7.1.28,5.6,5.6,0,0,1,1.43,1,4.76,4.76,0,0,1,.92,1.55,8,8,0,0,1-.86,7.28C216.75,275.09,214,275.5,211.71,275.57Z" transform="translate(-43.24 -68.98)"/><path class="cls-4" d="M228.19,259.4a3.31,3.31,0,0,1-2.37,1.3,2.15,2.15,0,0,1-.8-.06,3,3,0,0,1-1.58-1.3,7,7,0,0,1-1.15-4.15,2.76,2.76,0,0,1,3.16-3.08,2.27,2.27,0,0,1,1.3.34,2.6,2.6,0,0,1,.57.62C228.64,254.87,229.73,257.34,228.19,259.4Z" transform="translate(-43.24 -68.98)"/><path class="cls-4" d="M229.11,239.93a7.19,7.19,0,0,1-2.16.26,4.65,4.65,0,0,1-4.2-4.43,4.43,4.43,0,0,1,4.25-4.3,6.26,6.26,0,0,1,2.2.48c1.87.75,3.67,2.26,3.73,4.42C233,238.37,230.83,239.5,229.11,239.93Z" transform="translate(-43.24 -68.98)"/><path class="cls-4" d="M207.38,212.61a4,4,0,0,1-3.14,2.47,5.37,5.37,0,0,1-3.31-.34,3.68,3.68,0,0,1-.57-6.46,5.24,5.24,0,0,1,4.31-.74A3.82,3.82,0,0,1,207.38,212.61Z" transform="translate(-43.24 -68.98)"/><path class="cls-4" d="M206.85,247.22a5.29,5.29,0,0,1-3.8-.94,3.71,3.71,0,0,1-1.29-1.32,4.17,4.17,0,0,1-.34-2.21,11.6,11.6,0,0,1,.45-2.61,7.18,7.18,0,0,1,1.45-2.81,4,4,0,0,1,2.77-1.42,5.56,5.56,0,0,1,2.26.51,5.64,5.64,0,0,1,2.37,1.57,5.71,5.71,0,0,1,1,2.53A5.87,5.87,0,0,1,206.85,247.22Z" transform="translate(-43.24 -68.98)"/><path class="cls-4" d="M213.82,260.31a6.14,6.14,0,0,1-1.33-3.23,4.6,4.6,0,0,1,.13-2,3.76,3.76,0,0,1,4.45-2.2,5.58,5.58,0,0,1,3.7,3.72c.53,1.57.53,3.86-1.25,4.58C217.55,262,215.3,262.05,213.82,260.31Z" transform="translate(-43.24 -68.98)"/><path class="cls-4" d="M198.83,243.42a4.6,4.6,0,0,1-4.1,2.2,4.29,4.29,0,0,1-2.87-1.78,8.82,8.82,0,0,1-1.36-3.16,18.22,18.22,0,0,1-.53-4.47,4,4,0,0,1,.49-2.18,2.91,2.91,0,0,1,2.48-1.13,7.5,7.5,0,0,1,2.73.74,11,11,0,0,1,2.89,1.67c1,.83,2.13,2.36,2,3.7A11,11,0,0,1,198.83,243.42Z" transform="translate(-43.24 -68.98)"/><path class="cls-4" d="M231,241.7a4.12,4.12,0,0,1,.71,2,3.18,3.18,0,0,1-.41,2.23,2.89,2.89,0,0,1-1.15.89,5.11,5.11,0,0,1-2.28.48,2.2,2.2,0,0,1-1.28-.36,2.3,2.3,0,0,1-.55-.69,7.86,7.86,0,0,1-.91-2.37C224.43,240.67,229.24,239.37,231,241.7Z" transform="translate(-43.24 -68.98)"/><path class="cls-4" d="M224.58,251.19a3.26,3.26,0,0,1-1.14.74,4.9,4.9,0,0,1-1.13.4,3.45,3.45,0,0,1-2.78-.6,3.4,3.4,0,0,1-1.33-2.53c-.08-1.81,3.09-3.13,4.68-2.82C224.74,246.74,225.86,249.76,224.58,251.19Z" transform="translate(-43.24 -68.98)"/><path class="cls-4" d="M233.52,268.23A2.58,2.58,0,0,1,235,268a2.24,2.24,0,0,1,.82.36c1.75,1.16,2.25,3.56,2,5.64a4.35,4.35,0,0,1-1.66,3.17,3.13,3.13,0,0,1-2.57.33,4.67,4.67,0,0,1-2.19-1.45,4.19,4.19,0,0,1-1.13-4.22A6.38,6.38,0,0,1,233.52,268.23Z" transform="translate(-43.24 -68.98)"/><path class="cls-4" d="M209.48,291.12a5,5,0,0,1-2.19-2.76,7.78,7.78,0,0,1,3.23-9,6.94,6.94,0,0,1,4.81-.89c3.61.7,6.16,5.34,4.66,8.82C218.65,290.34,212.42,292.71,209.48,291.12Z" transform="translate(-43.24 -68.98)"/><path class="cls-4" d="M196.88,286.94a2.65,2.65,0,0,1,1.19.25,2.45,2.45,0,0,1,.9,1.31,3.13,3.13,0,0,1-1.38,4,6.77,6.77,0,0,1-2.87,1.63,3.21,3.21,0,0,1-3.08-.82,3.28,3.28,0,0,1-.25-3.62,6.28,6.28,0,0,1,2.34-2.43A6.46,6.46,0,0,1,196.88,286.94Z" transform="translate(-43.24 -68.98)"/><path class="cls-4" d="M210.58,291.56a6.71,6.71,0,0,1,4.75,3.6,9.87,9.87,0,0,1,.78,2.6,13.53,13.53,0,0,1-.47,7,8.74,8.74,0,0,1-4.7,5.09,11.47,11.47,0,0,1-3.12.69,5.54,5.54,0,0,1-3.56-.51c-1.27-.81-1.76-2.39-2.13-3.85a19.83,19.83,0,0,1-.81-7.36C201.89,294.59,206.11,290.76,210.58,291.56Z" transform="translate(-43.24 -68.98)"/><path class="cls-4" d="M197.05,297.84a4.94,4.94,0,0,1,2.25,5.58,4.62,4.62,0,0,1-5.73,3.08c-2.85-.69-5.61-4.39-4.34-7.36C190.3,296.62,195.09,296.77,197.05,297.84Z" transform="translate(-43.24 -68.98)"/><path class="cls-4" d="M183.5,270.86a4,4,0,0,1,2.06,3.29,6.21,6.21,0,0,1-.52,3.71,4.15,4.15,0,0,1-2.89,2.27,2.64,2.64,0,0,1-1.64-.19,3.46,3.46,0,0,1-1.45-1.7c-.7-1.5-1.35-4.18-.43-5.72A4.61,4.61,0,0,1,183.5,270.86Z" transform="translate(-43.24 -68.98)"/><path class="cls-4" d="M194.92,246.86a4.58,4.58,0,0,1,2,2.91,3.09,3.09,0,0,1-1.33,3.12,5.07,5.07,0,0,1-2.47.52,6.81,6.81,0,0,1-4-.74,5.54,5.54,0,0,1-1.34-1.35C184,246.38,191.67,244.58,194.92,246.86Z" transform="translate(-43.24 -68.98)"/><path class="cls-4" d="M179.61,267.05a10.93,10.93,0,0,1,0-2.8,5.36,5.36,0,0,1,4.08-4.36,4.23,4.23,0,0,1,1.84,0,4.72,4.72,0,0,1,3.23,3.54,6.52,6.52,0,0,1-.57,4.34,4.55,4.55,0,0,1-1.58,1.86,4.11,4.11,0,0,1-1.56.52,10.81,10.81,0,0,1-3.72-.15C180,269.71,179.73,268.39,179.61,267.05Z" transform="translate(-43.24 -68.98)"/><path class="cls-4" d="M164.06,274.69a8.15,8.15,0,0,1,3.33-2.7,8.84,8.84,0,0,1,3.62-1,7.5,7.5,0,0,1,5.94,2.92,9.69,9.69,0,0,1,1.91,6.45,8.85,8.85,0,0,1-.61,2.91,11.12,11.12,0,0,1-1.77,2.78,7.43,7.43,0,0,1-1.89,1.78c-1.73,1.05-4,.8-5.88.15-2.35-.8-4.78-2.45-5.51-4.95S162.6,276.9,164.06,274.69Z" transform="translate(-43.24 -68.98)"/><path class="cls-4" d="M185.49,299a7,7,0,0,1,2,1.73c1.44,1.94,1.25,4.65.58,7a39.78,39.78,0,0,1-1.43,4c-.67,1.63-1.43,3.38-2.94,4.29a8.35,8.35,0,0,1-3.74.86,6,6,0,0,1-1.84-.07,4.22,4.22,0,0,1-2-1.25c-2-2.14-2.53-5.28-2.67-8.23s0-7.15,2.33-9.21S183.21,297.58,185.49,299Z" transform="translate(-43.24 -68.98)"/><path class="cls-4" d="M178.15,260.88a3.24,3.24,0,0,1,.61,2,7.85,7.85,0,0,1-.56,4.49,5.92,5.92,0,0,1-1.64,1.74,3.41,3.41,0,0,1-1.06.61,2.81,2.81,0,0,1-3-1.54,5.18,5.18,0,0,1-.31-4.3C172.88,262,176.1,258.67,178.15,260.88Z" transform="translate(-43.24 -68.98)"/><path class="cls-4" d="M180.71,258.25a4.48,4.48,0,0,1-.3-2.46,6,6,0,0,1,3-4.7c2.52-1.2,3.54.9,4,3.06a3.66,3.66,0,0,1-1.18,3.86C184.7,259.32,181.89,260.69,180.71,258.25Z" transform="translate(-43.24 -68.98)"/><path class="cls-4" d="M212.6,250.3a1.41,1.41,0,0,1-.26.93,1.29,1.29,0,0,1-.52.3,9.59,9.59,0,0,1-3.35.61c-2.17,0-1.67-4.06-.35-5C210.58,245.4,212.69,248,212.6,250.3Z" transform="translate(-43.24 -68.98)"/><path class="cls-4" d="M182.83,281.59a7.67,7.67,0,0,1,7.59,4.76,8.68,8.68,0,0,1-1.81,8.92,7,7,0,0,1-2.73,1.84,6.79,6.79,0,0,1-7.23-2.52c-1.48-1.89-2.75-5.34-2-7.74A7.71,7.71,0,0,1,182.83,281.59Z" transform="translate(-43.24 -68.98)"/><path class="cls-4" d="M177,330a6.61,6.61,0,0,1,3.74.09,4.51,4.51,0,0,1,2.74,2.46,7.5,7.5,0,0,1,.41,2,6.18,6.18,0,0,1-.54,4,4.34,4.34,0,0,1-4.4,1.57,12.91,12.91,0,0,1-4.46-2.05,2.49,2.49,0,0,1-.59-.47,2.28,2.28,0,0,1-.38-1.36c-.06-1.3-.38-3,.27-4.17A5,5,0,0,1,177,330Z" transform="translate(-43.24 -68.98)"/><path class="cls-4" d="M239.44,212.49a2.69,2.69,0,0,1,1.79,1.16,2.89,2.89,0,0,1-.67,3.46,2.58,2.58,0,0,1-.86.57,3.44,3.44,0,0,1-4.23-2.86C235.38,212.94,238,212.22,239.44,212.49Z" transform="translate(-43.24 -68.98)"/><path class="cls-4" d="M268.73,215c3.32,0,6.18,2.61,7.56,5.62a8.49,8.49,0,0,1,.86,4,7.62,7.62,0,0,1-3.74,5.74,13.53,13.53,0,0,1-6.81,1.76c-1.77,0-3.72-.22-4.89-1.55a5.79,5.79,0,0,1-1.19-3.26C259.92,221.84,262.13,215,268.73,215Z" transform="translate(-43.24 -68.98)"/><path class="cls-4" d="M219.7,225a4.1,4.1,0,0,1-3,1.83,1.93,1.93,0,0,1-.86-.14,2.84,2.84,0,0,1-1.18-1.82c-.95-2.79-2.51-5.39-3-8.3a17.48,17.48,0,0,1-.21-2.71,6,6,0,0,1,.74-3.52,3.32,3.32,0,0,1,3.69-1.21,6.44,6.44,0,0,1,2.18,1.53l1.58,1.47a8,8,0,0,1,1.09,1.16,6.07,6.07,0,0,1,.85,1.91,13,13,0,0,1,.48,4,5.39,5.39,0,0,1-.86,2.91C220.62,223,220.34,224.09,219.7,225Z" transform="translate(-43.24 -68.98)"/><path class="cls-4" d="M291.4,330.77a7.54,7.54,0,0,1,3.12.56,4.21,4.21,0,0,1,2.21,2.2,4.81,4.81,0,0,1,.23,2.2,5.76,5.76,0,0,1-2.14,4.13,7,7,0,0,1-3.21,1.07,5.48,5.48,0,0,1-3-.27,4.52,4.52,0,0,1-2.35-3.65C285.84,333.35,287.55,330.79,291.4,330.77Z" transform="translate(-43.24 -68.98)"/><path class="cls-4" d="M278.22,226.23a2.81,2.81,0,0,1,1.3.26,2,2,0,0,1,1,.79,2.24,2.24,0,0,1,.22,1,3.37,3.37,0,0,1-.16,1.45,3.92,3.92,0,0,1-1.18,1.38,2.3,2.3,0,0,1-.91.57,1.58,1.58,0,0,1-1.68-.77,3.44,3.44,0,0,1-.43-1.9C276.37,227.81,276.82,226.33,278.22,226.23Z" transform="translate(-43.24 -68.98)"/><path class="cls-4" d="M325.57,195a4.94,4.94,0,0,1-.87,4,3.65,3.65,0,0,1-3.5.79A9.1,9.1,0,0,1,318,198a13.68,13.68,0,0,1-2.58-2.46,10,10,0,0,1-1.17-2,11,11,0,0,1-1-5.48,2.39,2.39,0,0,1,.18-.79,2.31,2.31,0,0,1,2.17-1,8.84,8.84,0,0,1,4.2,1.21,27.44,27.44,0,0,1,3.59,2.55,3.67,3.67,0,0,1,1.58,1.93A17.24,17.24,0,0,1,325.57,195Z" transform="translate(-43.24 -68.98)"/><path class="cls-4" d="M389.23,319.87a8.12,8.12,0,0,1,4.47,2,7.06,7.06,0,0,1,1.58,3.81c.51,3.26,0,6.83-2.07,9.37a5.13,5.13,0,0,1-1.61,1.36,5.52,5.52,0,0,1-4.85-.39,11.93,11.93,0,0,1-6-8.21c-.5-2.39-.26-5.59,1.79-7.28C384.27,319.1,387.27,319.47,389.23,319.87Z" transform="translate(-43.24 -68.98)"/><path class="cls-4" d="M381.67,346.25c-2.05-.85-4-2.44-4.42-4.62a8.36,8.36,0,0,1-.13-1.5,4.68,4.68,0,0,1,.21-1.75,1.73,1.73,0,0,1,1.25-1.14,2.59,2.59,0,0,1,1.87.75,11.11,11.11,0,0,1,3.18,3.19,8.7,8.7,0,0,1,.91,3C384.84,346.5,383.72,347.11,381.67,346.25Z" transform="translate(-43.24 -68.98)"/><path class="cls-4" d="M384.8,342.13a3.56,3.56,0,0,1,1.92-3.76,4.64,4.64,0,0,1,4.35.29,3.14,3.14,0,0,1,.85.73,2.77,2.77,0,0,1,.43.88c.52,1.69-.41,4.79-2.34,5.31S385.2,344,384.8,342.13Z" transform="translate(-43.24 -68.98)"/><path class="cls-4" d="M202.23,206.88s49.24-.43,79.48-45.79c0,0,2.05-4.1,5.94-1s10.58,10.8,23,14,20.2,2.59,22.57,2.91,4.32-1.29,4.86,1.19,1.3,11,3.67,18.25,4.75,18.14,15.34,27.75,20.73,17,20.73,17l13.39,9.61s9.07,6.7,11.66,9.29,6.38,5.83,8.53,8.85a89,89,0,0,0,7.89,8.75c1.19,1.19,9.18,8,11.55,9.07,0,0,1.73-.22-2.37,2.48s-14,10.8-15.88,13.29-13.06,17.27-16.95,29.37-3.46,28.51-3.57,29.26.11,2.38-.86,2.6-7.67.43-12.63,3.67a53.77,53.77,0,0,0-19.77,24.62s-1.18,2.27-2.37,2.48-3.13,0-7.88-3.56-15.45-7.88-27.43-8-37.47,10.16-39.53,11.61-7.77,4.15-12.09,4.26-7-2.59-9.29-5.18-12.2-11.23-18.79-13.93-8-4.43-18.46-4.65-17.82,2.49-20,2.49a5.48,5.48,0,0,1-4.54-1.95c-.75-1.08-3.67-8.85-10.47-13.28s-15.12-5.4-15.77-6.69-.43-10.91-.43-10.91,2.7-24.3,1.73-32.29-2.59-15.33-4.65-19-6.48-12.3-8.31-14.58-.33-2.49,0-2.92,14.36-13.82,18.14-20.84,13.28-24.62,15.23-29.37,3.34-8,4.21-12.21S198.45,208.39,202.23,206.88Z" transform="translate(-43.24 -68.98)"/><path class="cls-4" d="M295.8,176.06a5.75,5.75,0,0,1-6.65-1.5A7,7,0,0,1,288,172c-.34-1.48-.35-3.22.73-4.29a3.68,3.68,0,0,1,2.92-.88,11.06,11.06,0,0,1,3,.91,5.89,5.89,0,0,1,1.35.68C298.5,170.2,298.84,174.8,295.8,176.06Z" transform="translate(-43.24 -68.98)"/><path class="cls-4" d="M286.34,173.86a6.47,6.47,0,0,1-3.55,2,4,4,0,0,1-2.5-.17,3.5,3.5,0,0,1-1.72-2,7.57,7.57,0,0,1-.44-2.63,7.82,7.82,0,0,1,.78-4.09,3.71,3.71,0,0,1,3.44-2,5.7,5.7,0,0,1,3.3,2.17C287.68,169.3,288.53,171.34,286.34,173.86Z" transform="translate(-43.24 -68.98)"/><path class="cls-4" d="M422.53,464.72s-20.73-31.53-28.8-40.6-32.65-38.22-32.65-38.22" transform="translate(-43.24 -68.98)"/><path class="cls-4" d="M436.69,457.93A224.28,224.28,0,0,0,415.9,431c-11.24-12.09-20-22.46-24.92-26.35s-24.84-23.06-24.84-23.06" transform="translate(-43.24 -68.98)"/><path class="cls-4" d="M446.44,451.6c-.48.37-18.33-19.75-31.57-31.82S392.76,400.11,382.29,389l-12.54-13.3" transform="translate(-43.24 -68.98)"/><path class="cls-4" d="M458.53,440.45s-25.36-19.35-31.84-24.54-17.15-12.52-28.88-21.59-25.65-21.77-25.65-21.77" transform="translate(-43.24 -68.98)"/><path class="cls-4" d="M463.65,434.54s-27.13-23.38-41.12-33.75-35-24.15-36.83-25.46-8.58-5.68-8.58-5.68" transform="translate(-43.24 -68.98)"/><path class="cls-4" d="M470.86,425.31s-21.71-17.54-36-26.43-20.56-13.75-34.25-22.76-18.36-10.87-18.36-10.87" transform="translate(-43.24 -68.98)"/><path class="cls-4" d="M476.51,417.53s-36.3-25.59-39.82-27.32-46.81-26.33-46.81-26.33" transform="translate(-43.24 -68.98)"/><path class="cls-4" d="M488.84,398.89s-58.48-25.66-63.66-28.72S392.49,352,392.49,352" transform="translate(-43.24 -68.98)"/><path class="cls-4" d="M492.59,391.31s-35.45-17-44.73-21.14-37.8-17.1-42.77-19.05-12.31-4.29-12.31-4.29" transform="translate(-43.24 -68.98)"/><path class="cls-4" d="M495.63,383.75s-55.55-28.22-65.7-31.72-36.24-11.93-36.24-11.93" transform="translate(-43.24 -68.98)"/><path class="cls-4" d="M497.69,377.54s-59.5-24.37-64.5-26.8-38.5-14.07-38.5-14.07" transform="translate(-43.24 -68.98)"/><path class="cls-4" d="M500,368.74S445.18,350,436.69,346.79s-41.22-12.73-41.22-12.73" transform="translate(-43.24 -68.98)"/><path class="cls-4" d="M501.09,363.88s-36.17-11.78-44.59-15.51S397.05,329,397.05,329" transform="translate(-43.24 -68.98)"/><path class="cls-4" d="M503.22,350.33S455.85,332.08,435.55,329s-36.23-7.08-36.23-7.08" transform="translate(-43.24 -68.98)"/><path class="cls-4" d="M504.05,341.54s-34.91-12.65-57.86-18.05S404,315.1,404,315.1" transform="translate(-43.24 -68.98)"/><path class="cls-4" d="M504.63,327s-28.57-8-53.36-12-42.54-7.2-42.54-7.2" transform="translate(-43.24 -68.98)"/><path class="cls-4" d="M504.64,316.27s-37.57-6.63-50.63-7.81-40.5-6.94-40.5-6.94" transform="translate(-43.24 -68.98)"/><path class="cls-4" d="M504.05,308.2s-79.68-16-82.44-13.77" transform="translate(-43.24 -68.98)"/><path class="cls-4" d="M503.12,297.53s-46.22-8.5-60.44-8.38l-14.21.12" transform="translate(-43.24 -68.98)"/><path class="cls-4" d="M501.18,282.92s-42.05.64-52.11.51-24.61-1.27-24.61-1.27" transform="translate(-43.24 -68.98)"/><path class="cls-4" d="M497.69,267.94s-20.23,5.44-31.9,5.76-31.37,2.59-34.59,3.62-10.6,1.59-10.6,1.59" transform="translate(-43.24 -68.98)"/><path class="cls-4" d="M496.34,258.13s-29.52,7.8-37.81,8.28-45.83,4.22-45.83,4.22" transform="translate(-43.24 -68.98)"/><path class="cls-4" d="M493.36,246.18s-22.82,8.34-40.75,10.1-40.12,4.61-46.51,6.94" transform="translate(-43.24 -68.98)"/><path class="cls-4" d="M490,235.93s-38.34,13.46-49.28,15.95-37.79,8.23-37.8,8.24" transform="translate(-43.24 -68.98)"/><path class="cls-4" d="M481.79,222.23s-45.1,20.82-57.33,24.1-28.33,8.22-28.33,8.22" transform="translate(-43.24 -68.98)"/><path class="cls-4" d="M476.25,214.73S434.13,234.89,428.47,237s-37.26,13.87-37.26,13.87" transform="translate(-43.24 -68.98)"/><path class="cls-4" d="M464.42,198.08S417.74,229.06,404,237s-17.56,11.23-17.56,11.23" transform="translate(-43.24 -68.98)"/><path class="cls-4" d="M457.84,186.42s-40.55,33-46.76,36.65-28.49,16.72-30,18.08l-1.49,1.35" transform="translate(-43.24 -68.98)"/><path class="cls-4" d="M452.33,176.52s-51.78,40.14-55.66,43.77-21.33,19.36-21.33,19.36" transform="translate(-43.24 -68.98)"/><path class="cls-4" d="M449.73,171.64s-54.17,46.54-60.1,50.59S372.2,237,372.2,237" transform="translate(-43.24 -68.98)"/><path class="cls-4" d="M433.73,153.78S394.05,202,382.29,212.17s-17,18.25-17,18.25" transform="translate(-43.24 -68.98)"/><path class="cls-4" d="M427.19,146.53s-30.29,38.91-39.91,47.78-26.08,32.94-26.08,32.94" transform="translate(-43.24 -68.98)"/><path class="cls-4" d="M418.72,137.9s-30.29,46.33-41.4,59.37-20.83,25.8-20.83,25.8" transform="translate(-43.24 -68.98)"/><path class="cls-4" d="M411,131.3S376.83,186,370.55,195.25s-18.28,24.63-18.28,24.63" transform="translate(-43.24 -68.98)"/><path class="cls-4" d="M399.49,123.24S376.8,162.41,368,178.69s-19.36,35.11-19.36,35.11" transform="translate(-43.24 -68.98)"/><path class="cls-4" d="M396.43,121.36s-23.66,37.13-30.07,47.16-21.7,36.88-21.7,36.88" transform="translate(-43.24 -68.98)"/><path class="cls-4" d="M389.63,117.51S360.24,163.05,359.45,165s-18.29,29.58-18.29,29.58" transform="translate(-43.24 -68.98)"/><path class="cls-4" d="M380.57,113s-23.95,39.09-27.25,46-14.17,26.17-14.17,26.17" transform="translate(-43.24 -68.98)"/><path class="cls-4" d="M364.43,106.22s-16.57,36.27-20.67,48.58S337.17,177,337.17,177" transform="translate(-43.24 -68.98)"/><path class="cls-4" d="M356.49,103.37s-15.26,36.9-17.34,45.67-5.93,28-5.93,28" transform="translate(-43.24 -68.98)"/><path class="cls-4" d="M340.4,98.24s-8.71,42.74-10.24,54.18-2.26,22.52-2.26,22.52v1.89" transform="translate(-43.24 -68.98)"/><path class="cls-4" d="M333.11,96.11s-9,46.47-9.87,59.92-1.59,20.27-1.59,20.27" transform="translate(-43.24 -68.98)"/><path class="cls-4" d="M319.14,92.51s-3.54,55-3.72,59.48-1.66,23.75-1.66,23.75" transform="translate(-43.24 -68.98)"/><path class="cls-4" d="M307.55,90.08s-2,42.69-2,50.14.79,32,.79,32" transform="translate(-43.24 -68.98)"/><path class="cls-4" d="M297.55,90.16s.44,30.3,0,39.37.79,25.57.82,26.5S300,169.74,300,169.74" transform="translate(-43.24 -68.98)"/><path class="cls-4" d="M284.89,90.16s1.13,39,2.46,47.74,4.64,26,4.64,26" transform="translate(-43.24 -68.98)"/><path class="cls-4" d="M271.91,90.4s9.28,41.64,10.43,51.18,2.44,17.36,2.44,17.36" transform="translate(-43.24 -68.98)"/><path class="cls-4" d="M253.26,90.16s15.05,41.42,18.65,56.37,5.26,20.24,5.26,20.24v1.75" transform="translate(-43.24 -68.98)"/><path class="cls-4" d="M274.68,170.48s-22.11-57.8-23.92-61-6.71-14.9-6.71-14.9l-2.49-4" transform="translate(-43.24 -68.98)"/><path class="cls-4" d="M268.63,177.07s-6.86-17.4-9.39-23.29-8.93-22.9-10.59-24.44-14.29-26-14.29-26L228,92.31" transform="translate(-43.24 -68.98)"/><path class="cls-4" d="M262.6,182.63s-8.69-21.48-11.06-26.6-11.37-22.85-13-25.54-15.63-25.8-15.63-25.8l-4.68-9.88" transform="translate(-43.24 -68.98)"/><path class="cls-4" d="M254.26,189s-5.53-12.33-8.77-18.5-9.88-18.6-13.8-23.95S220,127,220,127l-12.42-20.82L201.4,96" transform="translate(-43.24 -68.98)"/><path class="cls-4" d="M248.32,193.07S232.56,165,228,158s-12.54-20.5-12.54-20.5l-25.74-39.3" transform="translate(-43.24 -68.98)"/><path class="cls-4" d="M176.68,101.52s25,32.25,29.93,40.06,36.77,53.67,36.77,53.67" transform="translate(-43.24 -68.98)"/><path class="cls-4" d="M238.51,197.81s-19.23-29-28.48-40.42-27.61-33.4-31.06-36-14.38-15.14-14.38-15.14" transform="translate(-43.24 -68.98)"/><path class="cls-4" d="M232.93,200.14s-9.85-12.45-19.38-23.07S187,145.75,181.34,138.72s-21.68-21.21-21.68-21.21l-5-5.73" transform="translate(-43.24 -68.98)"/><path class="cls-4" d="M221.61,203.79S205.94,182,195.26,171.64s-35.61-35.44-35.61-35.44l-16.2-16" transform="translate(-43.24 -68.98)"/><path class="cls-4" d="M212.1,205.84s-7.89-10.32-16.84-19.66-15.86-18.64-27.09-28.36-28.73-24.62-28.73-24.62l-4.82-4.63" transform="translate(-43.24 -68.98)"/><path class="cls-4" d="M200.55,206.32S188.64,196,176.68,185.11s-16.07-15-20-18.34S123,142.5,123,142.5" transform="translate(-43.24 -68.98)"/><path class="cls-4" d="M197.42,216.44s-4.41-5-14.89-15.08-22.78-22.8-29.91-28-35.8-22.06-35.8-22.06" transform="translate(-43.24 -68.98)"/><path class="cls-4" d="M195.72,221.33s.11.61-22.36-18.82-16.85-18.72-34.78-30.3-25.91-14.42-25.91-14.42" transform="translate(-43.24 -68.98)"/><path class="cls-4" d="M192.12,229.65,171.88,215c-9.54-6.89-26-22.32-30.71-26.05s-31.78-25.06-31.78-25.06" transform="translate(-43.24 -68.98)"/><path class="cls-4" d="M187.82,238s-2.91-1.84-12.47-9.6-15.39-15.69-33.1-29.33-35.58-29.37-35.58-29.37" transform="translate(-43.24 -68.98)"/><path class="cls-4" d="M185.64,242.18s-2.39,2.56-21-13.25S131,201,131,201L102.9,178.69" transform="translate(-43.24 -68.98)"/><path class="cls-4" d="M181.91,249.17s-23-14.44-35.55-23.63-24-19.79-35.64-28.27L99,188.78" transform="translate(-43.24 -68.98)"/><path class="cls-4" d="M177.13,257.63s-9.82-7-28.18-20.06S124.54,221,121.73,217.69s-26.11-19.3-26.11-19.3" transform="translate(-43.24 -68.98)"/><path class="cls-4" d="M174,261.66s-1.16-.57-12.25-8.79-37.87-24.82-43.7-29.8-24.53-18.39-24.53-18.39" transform="translate(-43.24 -68.98)"/><path class="cls-4" d="M170.82,264.13s-7.56-4.88-23.57-13.91-36.53-24.68-36.53-24.68L90.83,213.23" transform="translate(-43.24 -68.98)"/><path class="cls-4" d="M166.66,269.79s-8.21-3-24.62-14-53.29-35.53-53.29-35.53" transform="translate(-43.24 -68.98)"/><path class="cls-4" d="M161.76,273.7s-29.87-16.63-42.19-24.89-32.82-21.27-32.82-21.27" transform="translate(-43.24 -68.98)"/><path class="cls-4" d="M159.66,277.09s-24.32-12-41.81-23S85,234.35,85,234.35" transform="translate(-43.24 -68.98)"/><path class="cls-4" d="M164.59,286.91s-36.16-19-50-26.31-31.76-16.32-31.76-16.32" transform="translate(-43.24 -68.98)"/><path class="cls-4" d="M170.27,296.74s-30.76-12.48-42.57-19.65S90.85,255.57,81,251.94" transform="translate(-43.24 -68.98)"/><path class="cls-4" d="M172.21,304.23c-1.45-1.27-50-25.92-60.41-31.63S79.63,257,79.63,257" transform="translate(-43.24 -68.98)"/><line class="cls-4" x1="30.43" y1="204.71" x2="130.24" y2="238.24"/><path class="cls-4" d="M173.47,309.5c-.37-.09-107.92-8-107.92-8" transform="translate(-43.24 -68.98)"/><path class="cls-4" d="M173.51,312.49s-46.81,3.21-68.84,7.1a242.8,242.8,0,0,1-38,3.9" transform="translate(-43.24 -68.98)"/><path class="cls-4" d="M174,314.74s-6.27,4.3-21.61,10.19-32.5,15.73-35.58,16.75-48,18.44-48,18.44" transform="translate(-43.24 -68.98)"/><path class="cls-4" d="M173.51,327.83s-64.52,31.1-71.86,34.54-31.21,12.85-31.21,12.85" transform="translate(-43.24 -68.98)"/><path class="cls-4" d="M172.47,337.93S119,367,106.67,372.55,75.06,389,75.06,389" transform="translate(-43.24 -68.98)"/><path class="cls-4" d="M171.88,348.37s-25.65,15.32-38.11,20.37-27.15,19.79-36.44,22.57A122.14,122.14,0,0,0,81,397.5" transform="translate(-43.24 -68.98)"/><path class="cls-4" d="M174,356.69s-38.39,29.25-46.31,34.62-38.21,22.34-38.21,22.34" transform="translate(-43.24 -68.98)"/><path class="cls-4" d="M184.31,360.35S153.48,384.81,142,395.83s-37.49,37-37.49,37" transform="translate(-43.24 -68.98)"/><path class="cls-4" d="M189.81,363.47s-14.64,15.37-17.6,18.46-37.78,44.77-46.29,50.93S114.55,443,114.55,443" transform="translate(-43.24 -68.98)"/><path class="cls-4" d="M193.81,367.9l-28.23,38.6s-26.35,39-27.65,41.81-5.29,9-5.29,9" transform="translate(-43.24 -68.98)"/><path class="cls-4" d="M197,372.94s-19.57,27.42-28.43,43.84S144,464.72,144,464.72" transform="translate(-43.24 -68.98)"/><path class="cls-4" d="M203,377.61s-36.55,56.88-42.16,67.89-11.54,22.41-11.54,22.41" transform="translate(-43.24 -68.98)"/><path class="cls-4" d="M210.56,376.16s-31.21,51.63-34.42,59.41-18.24,37.19-18.24,37.19" transform="translate(-43.24 -68.98)"/><path class="cls-4" d="M218.22,375.22s-37.43,69.2-41.79,79.78-9,22.77-9,22.77" transform="translate(-43.24 -68.98)"/><path class="cls-4" d="M224.75,375.33s-29.49,57.21-34.94,70.6S174,481,174,481" transform="translate(-43.24 -68.98)"/><path class="cls-4" d="M232.41,376.16s-21.45,42.78-24.6,49.15-25.53,59.59-25.53,59.59" transform="translate(-43.24 -68.98)"/><path class="cls-4" d="M240,379.14s-26.25,49.08-32.82,65.93-18.21,42.79-18.21,42.79" transform="translate(-43.24 -68.98)"/><path class="cls-4" d="M245.34,381.79s-27.73,55.29-32.69,67.82S194.3,489.9,194.3,489.9" transform="translate(-43.24 -68.98)"/><path class="cls-4" d="M247.82,383.38s-19.25,42-27.85,62.34-18.75,46.36-18.75,46.36" transform="translate(-43.24 -68.98)"/><path class="cls-4" d="M252.13,386.53s-26.44,64.8-32.31,80.35-11,27.11-11,27.11" transform="translate(-43.24 -68.98)"/><path class="cls-4" d="M256.44,390.09s-12.17,30.47-18.36,44.45-25.43,60.26-25.43,60.26" transform="translate(-43.24 -68.98)"/><path class="cls-4" d="M269.51,398.88S255.33,421.1,247.82,439s-24.24,57.55-24.24,57.55" transform="translate(-43.24 -68.98)"/><path class="cls-4" d="M276.53,397.2s-8.1,15.05-12.77,28.11S251.33,472.07,250,475.52s-7,22.69-7,22.69" transform="translate(-43.24 -68.98)"/><path class="cls-4" d="M283.07,393.86s.45.24-4.85,15.36-7.8,36.93-8.71,41-7.88,48.2-7.88,48.2" transform="translate(-43.24 -68.98)"/><path class="cls-4" d="M290.61,391.31s1.28-5-5.72,16.18a290.69,290.69,0,0,0-11,42.12c-2,10.36-7.34,48.6-7.34,48.6" transform="translate(-43.24 -68.98)"/><path class="cls-4" d="M297.18,388.38s-5,24.17-9.57,39.78S275.92,478,274.42,497.82" transform="translate(-43.24 -68.98)"/><path class="cls-4" d="M301.42,387s-3,26.17-8.52,43.52-12.35,66.87-12.35,66.87" transform="translate(-43.24 -68.98)"/><path class="cls-4" d="M307.79,385.17s-3.23,20.89-4.69,27.44-9.59,47.88-10.49,60.15-2.41,23.87-2.41,23.87" transform="translate(-43.24 -68.98)"/><path class="cls-4" d="M312.61,384s-1.87,35.46-5.12,51.82-9.37,53.91-10.31,60.72" transform="translate(-43.24 -68.98)"/><path class="cls-4" d="M321.13,383s-2,48.46-1.78,54.72,0,55.37,0,55.37" transform="translate(-43.24 -68.98)"/><path class="cls-4" d="M326.89,383.38s.85,61.26,2.38,76.81,3.28,32.07,3.28,32.07" transform="translate(-43.24 -68.98)"/><path class="cls-4" d="M339.64,492.06s-3.29-32.09-4.77-42.45-5.15-66.23-5.15-66.23" transform="translate(-43.24 -68.98)"/><path class="cls-4" d="M334.87,384.92s2,45,3.28,57.52,5.59,49.47,5.59,49.47" transform="translate(-43.24 -68.98)"/><path class="cls-4" d="M348.52,491.65s-4.81-53.39-6.3-63.49-2.05-41.63-2.05-41.63" transform="translate(-43.24 -68.98)"/><path class="cls-4" d="M348.56,391s.09,11.52,1.53,30.74,11.2,65.58,11.5,67.13" transform="translate(-43.24 -68.98)"/><path class="cls-4" d="M375.09,484.23a171.7,171.7,0,0,0-3.45-22.53c-2.4-9.72-15.13-45.79-17.44-67.37" transform="translate(-43.24 -68.98)"/><path class="cls-4" d="M357.57,393.83S385,458.68,388,465.8s4.77,11.28,4.77,11.28" transform="translate(-43.24 -68.98)"/><path class="cls-4" d="M412.43,468.94s-13.85-23.56-17-28.68S377.18,414,373.1,409s-13.43-18.91-13.43-18.91" transform="translate(-43.24 -68.98)"/></svg>