<svg id="Layer_1" data-name="Layer 1" xmlns="http://www.w3.org/2000/svg" viewBox="0 0 536.09 505.2"><defs><style>.cls-1{fill:#80b2ae;}.cls-2,.cls-3,.cls-4{fill:none;stroke-miterlimit:10;}.cls-2{stroke:#df6056;}.cls-2,.cls-3{stroke-width:12px;}.cls-3{stroke:#4a8e82;}.cls-4{stroke:#fff;stroke-width:2px;}</style></defs><title>object5</title><path class="cls-1" d="M350.8,554.28a26.36,26.36,0,0,0,8.7-5c9-7.76,16.17-17.84,19.22-29.4,6.14-23.29,28.71-14.16,30.94-14.68S491.83,492.32,515,466.27s48.45-45.77,31.7-100.94c0,0-3.06-9.17.06-22.12s5-36.21,4.79-50.5-7.23-31.25-16-38.64-24.26-17.44-29.66-23.48-18.7-20.84-23-29.26c-2.86-5.6-5.88-11.12-8.9-16.63-7.31-13.37-14.84-26.63-22.85-39.59C442.42,131,433.21,116,418.3,107.66c-7.44-4.15-14.83-8.39-22.39-12.32-5.93-3.08-11.92-6-18.08-8.64-2.51-1.06-5.31-2.61-7.91-3.31-3.68-1-8.1-.7-11.9-1.1-13.56-1.41-28.9,2.54-42.25,4.88-14.52,2.54-30,5.24-43.31,11.81-21.53,10.63-18.88,15-45.95,17.92s-46.86-.22-65.92,8.89-47.4,8.61-63.82,22-29.63,37.67-34.7,54.36-12,27.7-13.21,39.51-1.72,75,8.56,100.1,26.93,82.92,46.49,102.38,26.35,15.31,45.77,33.17,40.89,44.64,56.91,56.93,53,27,79.88,25c12.6-.92,25.22-1.69,37.84-2.42C333.29,556.37,342.56,557.16,350.8,554.28Z" transform="translate(-16 -54.3)"/><path class="cls-2" d="M231.1,318.8s-10.65-10.47-9.63-28.94-1-32.93,13-44,22-14.73,40.52-7.37,40.43,12.64,46.25,46.46-32.34,47.81-32.34,47.81-41,1.72-48-2.88A27,27,0,0,1,231.1,318.8Z" transform="translate(-16 -54.3)"/><path class="cls-3" d="M327.32,536.84a26.45,26.45,0,0,0,8.78-5c9-7.83,16.32-18,19.4-29.66,6.19-23.51,29-14.3,31.22-14.82s82.9-13,106.25-39.28,48.89-46.19,32-101.85c0,0-3.09-9.25.06-22.32s5.08-36.53,4.83-50.95-7.29-31.54-16.13-39-24.48-17.6-29.93-23.7-18.86-21-23.2-29.52c-2.88-5.65-5.92-11.22-9-16.78-7.38-13.49-15-26.87-23.06-39.95-8.78-14.2-18.08-29.39-33.12-37.79-7.51-4.18-15-8.46-22.6-12.42-6-3.11-12-6.1-18.24-8.72-2.53-1.07-5.36-2.64-8-3.34-3.72-1-8.17-.71-12-1.11-13.68-1.43-29.16,2.56-42.63,4.92-14.65,2.56-30.25,5.28-43.7,11.92-21.72,10.72-19.05,15.08-46.37,18.08s-47.27-.23-66.51,9S87.57,113.17,71,126.73s-29.9,38-35,54.85-12,27.94-13.33,39.87-1.73,75.63,8.64,101,27.18,83.66,46.91,103.3,26.59,15.45,46.18,33.47,41.27,45,57.42,57.44,53.53,27.26,80.6,25.27c12.72-.93,25.46-1.71,38.19-2.45C309.66,539,319,539.75,327.32,536.84Z" transform="translate(-16 -54.3)"/><path class="cls-4" d="M321.76,512.83a24.81,24.81,0,0,0,8.12-4.66c8.36-7.24,15.09-16.65,17.94-27.44,5.73-21.73,26.79-13.21,28.87-13.7s76.67-12,98.27-36.32,45.21-42.72,29.58-94.19c0,0-2.86-8.56,0-20.65s4.7-33.78,4.47-47.12-6.74-29.16-14.92-36.05-22.64-16.28-27.67-21.92S449,191.33,445,183.48c-2.67-5.22-5.48-10.38-8.3-15.52-6.82-12.47-13.85-24.85-21.33-36.94-8.12-13.14-16.72-27.19-30.63-35-6.94-3.87-13.84-7.82-20.89-11.49-5.53-2.87-11.13-5.64-16.87-8.06a61.31,61.31,0,0,0-7.38-3.09c-3.44-.91-7.56-.65-11.11-1-12.65-1.33-27,2.36-39.42,4.54-13.55,2.37-28,4.89-40.41,11-20.1,9.91-17.63,14-42.88,16.71s-43.73-.2-61.51,8.3S100,121,84.73,133.56s-27.65,35.15-32.39,50.73S41.2,210.13,40,221.15s-1.61,70,8,93.41,25.14,77.37,43.38,95.54S116,424.38,134.09,441s38.16,41.66,53.11,53.13,49.5,25.2,74.53,23.37c11.77-.87,23.54-1.59,35.32-2.27C305.43,514.78,314.08,515.52,321.76,512.83Z" transform="translate(-16 -54.3)"/><path class="cls-4" d="M208.6,245.75s-9.35,33.33-6.77,44.49,4.37,16.87,12.91,27.36,25.92,27.89,36.87,30.11,26.39,6,30.73,5.41,31.23-3.81,47.29-28.92,11.21-42.09,8.88-49.38-11.14-26.54-25.4-37.36-31.79-17.93-43.67-20-30-7.15-42,4.42S214.45,232.4,208.6,245.75Z" transform="translate(-16 -54.3)"/><path class="cls-4" d="M287.1,222.78s-1.92-15.17-.61-25.53.62-15.66,6.72-27,10.32-24.79,7.23-36.6-7.88-28-.12-41.34,12.12-19.42,12.12-19.42" transform="translate(-16 -54.3)"/><path class="cls-4" d="M295.53,226.15c-1.78-2.89-1.39-6.56-.8-9.88a114.82,114.82,0,0,1,9.53-29.62c4.44-9.27,10.11-17.89,14.71-27.08s8.17-19.2,8-29.51c-.21-10-3.95-19.59-6.28-29.34s-3.12-20.66,2.07-29.17" transform="translate(-16 -54.3)"/><path class="cls-4" d="M299.7,227.67c-2.61-14.29,3.26-28.71,9-42.16a109.94,109.94,0,0,1,8.09-16.35c2.67-4.17,5.9-8,9-11.87a186.72,186.72,0,0,0,11.93-17.14c2.44-4,4.79-8.22,5-12.83.16-3.52-.95-6.94-1.79-10.35a72.42,72.42,0,0,1,2.31-42" transform="translate(-16 -54.3)"/><path class="cls-4" d="M304.54,231.62a96.75,96.75,0,0,1,15.21-53.87c7.84-12.24,18.47-22.8,24.45-36a116,116,0,0,0,5.07-14.4,82.17,82.17,0,0,0,2.47-9.49c.86-4.92.81-10,2-14.84,1.55-6.51,5.2-12.34,8.78-18" transform="translate(-16 -54.3)"/><path class="cls-4" d="M312.51,236.93C317.8,214.54,323.24,191.76,335,172c9.55-16.06,23.28-30.22,27.8-48.36.94-3.8,1.46-7.69,2.29-11.51a70.79,70.79,0,0,1,8.49-21.4" transform="translate(-16 -54.3)"/><path class="cls-4" d="M318.3,241.92q6.29-21,14.1-41.49a104.49,104.49,0,0,1,5.23-12c3.11-5.83,7.19-11.06,11.23-16.28,7.66-9.92,15.36-20.16,19.31-32.06,2.86-8.64,3.65-17.87,6.64-26.46,2.13-6.11,5.33-11.77,8.52-17.4" transform="translate(-16 -54.3)"/><path class="cls-4" d="M321.11,244.72c9.53-11.58,13.93-26.44,21.29-39.5,9.46-16.82,23.83-30.68,31.94-48.19a76.79,76.79,0,0,0,5.48-16.56c.81-3.88,1.33-7.82,2.31-11.65,2.33-9.06,7.22-17.22,12-25.23" transform="translate(-16 -54.3)"/><path class="cls-4" d="M325.82,250c4.89-2.67,7.11-8.35,9.35-13.45a114.87,114.87,0,0,1,19.45-30.26c4.78-5.35,10.07-10.25,14.83-15.63a109.88,109.88,0,0,0,16.66-25c7.24-15,11.44-32.15,23.5-43.6" transform="translate(-16 -54.3)"/><path class="cls-4" d="M329.91,256.62c5.8-5.91,10.18-13,14.85-19.87a259.59,259.59,0,0,1,25.68-31.88c3.28-3.47,6.66-6.85,9.72-10.53,7.25-8.72,12.52-18.88,18.55-28.49s13.11-19,22.81-24.84" transform="translate(-16 -54.3)"/><path class="cls-4" d="M333.56,262.26a248.21,248.21,0,0,0,18.69-24.16,138.85,138.85,0,0,1,8.17-11.39c3.95-4.69,8.66-8.66,13.34-12.64,10.38-8.83,20.75-17.86,28.95-28.76,8.07-10.73,14.51-23.67,26.45-29.82" transform="translate(-16 -54.3)"/><path class="cls-4" d="M336.44,269.32c9.16-11.83,16.76-25.08,28-35,7.57-6.72,16.54-11.69,24.32-18.18,8.85-7.38,16-16.59,22.9-25.8,6.79-9,14-18.59,24.52-22.79" transform="translate(-16 -54.3)"/><path class="cls-4" d="M338,273.59l16-17.82c2.39-2.67,4.79-5.35,7.4-7.81,14.34-13.59,34.27-20.33,48-34.57,5.43-5.64,9.71-12.3,15-18.09s11.95-10.85,19.72-11.85" transform="translate(-16 -54.3)"/><path class="cls-4" d="M339.77,276.05c16.13-8.78,27.56-24.25,42.75-34.58,12.33-8.39,26.85-13.19,39-21.81,10.81-7.65,19.9-18.36,32.48-22.48" transform="translate(-16 -54.3)"/><path class="cls-4" d="M340.2,277.77a251.38,251.38,0,0,0,23.49-15c6.44-4.83,12.49-10.29,19.58-14.1,13-7,28.85-8,40.75-16.72,3.4-2.47,6.38-5.52,9.93-7.77,10.69-6.79,24.52-5.42,36.59-9.25" transform="translate(-16 -54.3)"/><path class="cls-4" d="M340.13,281.23c12.68-8.9,25.5-17.86,39.86-23.66,3.23-1.31,6.53-2.45,9.86-3.51a232.93,232.93,0,0,1,47.66-9.92c13.44-1.34,27.41-1.63,39.58-7.49,5-2.43,10-5.85,15.57-5.53" transform="translate(-16 -54.3)"/><path class="cls-4" d="M340.86,285.05c23.7-17.08,52.59-29.07,81.65-26,8.32.87,16.52,3,24.89,3.2a57,57,0,0,0,30.36-7.78c7.87-4.62,15.22-11.35,24.34-11.84" transform="translate(-16 -54.3)"/><path class="cls-4" d="M340.67,288.93c14.8-2.92,27.22-13.35,41.93-16.68a92.55,92.55,0,0,1,16-1.68l42.26-1.93c3.18-.15,6.36-.29,9.55-.25,3.46.05,6.91.32,10.37.35a83,83,0,0,0,22.7-3.13c8.27-2.29,16.67-5.74,25.13-4.32" transform="translate(-16 -54.3)"/><path class="cls-4" d="M341.08,292.84c8,.91,15.43-3.9,22.68-7.49A82.91,82.91,0,0,1,403,276.78c4.79.14,9.56.71,14.32,1.27a154.05,154.05,0,0,1,15.74,2.4c6.6,1.47,13.13,3.82,19.89,3.58,7-.25,13.58-3.26,20.33-5.18a66.88,66.88,0,0,1,35.89-.12" transform="translate(-16 -54.3)"/><path class="cls-4" d="M340.51,297.51A54.41,54.41,0,0,0,359,293.44c3.1-1.28,6.06-2.85,9.13-4.2a73.26,73.26,0,0,1,43.17-4.9c6.27,1.21,12.37,3.24,18.66,4.33,4.51.78,9.11,1.06,13.58,2.06s9,2.77,13.45,4.17A91,91,0,0,0,487.25,299c6.72-.23,13.61-1.2,20.05.73" transform="translate(-16 -54.3)"/><path class="cls-4" d="M340,300.16c14.43,1.37,27.6-8.43,42-10.05,7.21-.81,14.48.47,21.6,1.87a577.36,577.36,0,0,1,76.9,20.78,101.43,101.43,0,0,0,12.95,3.89,46.53,46.53,0,0,0,10.2.89" transform="translate(-16 -54.3)"/><path class="cls-4" d="M339.47,304.85C353,307.71,366.31,300,380,298.33c16.35-2,32.4,4.6,48.41,8.65,9.1,2.3,18.39,3.79,27.43,6.32a124.07,124.07,0,0,1,50,27.8" transform="translate(-16 -54.3)"/><path class="cls-4" d="M338,308.76c5.27,6.59,14.7,7.83,23.13,7.91,10.55.1,21.11-.84,31.65-.42,15,.58,29.8,3.89,44.47,7.19,14.88,3.35,30.05,6.81,43.07,14.74,11.6,7.06,20.9,17.34,29.22,28.07" transform="translate(-16 -54.3)"/><path class="cls-4" d="M335.1,313.76c7.46,6.33,17.31,9.18,27,10.31s19.55.71,29.31,1.39,19.18,2.41,28.69,4.15c7.08,1.3,14.2,2.6,21,5.05A127.86,127.86,0,0,1,453.2,340c7.28,3.52,14.58,7.06,21.53,11.22,12.43,7.44,23.58,16.81,34.67,26.14" transform="translate(-16 -54.3)"/><path class="cls-4" d="M332.83,317.8a150.53,150.53,0,0,0,71.8,20.57c4.83.13,9.68,0,14.48.6,13.47,1.61,25.7,8.41,37.52,15.07,17.34,9.76,34.79,19.61,50.05,32.39" transform="translate(-16 -54.3)"/><path class="cls-4" d="M502.65,396.86c-24.83-10.7-44.5-32-70.42-39.71-12.88-3.82-26.55-4-39.67-6.89-22.18-4.87-41.89-17.2-61.1-29.32" transform="translate(-16 -54.3)"/><path class="cls-4" d="M327.38,328.08c6.33,3.26,11.43,8.44,17.17,12.65,10.09,7.39,22,11.74,33.79,16,5.68,2,11.36,4.11,17.11,5.91,17.8,5.58,36.29,8.74,54.08,14.34s35.31,14,47.69,27.93" transform="translate(-16 -54.3)"/><path class="cls-4" d="M321.89,334c13.2,5.53,23.64,16.27,31.52,28.21s13.52,25.19,19.69,38.1,13,25.72,22.91,36.08c3.43,3.6,7.19,6.87,10.82,10.27,4.51,4.23,8.84,8.67,12.94,13.3" transform="translate(-16 -54.3)"/><path class="cls-4" d="M323.32,332.35c9.88,5.27,19.88,10.62,28.13,18.18,11.09,10.17,18.37,23.72,27.41,35.75a146.45,146.45,0,0,0,42.6,38.06c3.9,2.3,7.93,4.43,11.46,7.26,5.81,4.66,10,11,14.1,17.21" transform="translate(-16 -54.3)"/><path class="cls-4" d="M364.94,351.21a82.38,82.38,0,0,0,48.19,33.29c2.91.7,5.86,1.24,8.68,2.22,6.54,2.28,12.05,6.77,17.2,11.4,11.94,10.75,22.81,22.81,31.2,36.51" transform="translate(-16 -54.3)"/><path class="cls-4" d="M410,367.33c18.17,8.6,36.41,18.35,49.63,33.5,6.8,7.78,12.64,17.26,22.24,21.11" transform="translate(-16 -54.3)"/><path class="cls-4" d="M318.5,338.29l22.05,23.25c2.63,2.77,5.26,5.55,7.74,8.46a97.17,97.17,0,0,1,14.08,21.51c6,12.61,9.05,26.82,17.64,37.83,8.91,11.42,23.18,18.57,29.44,31.63" transform="translate(-16 -54.3)"/><path class="cls-4" d="M312.17,341.88c3.57-.49,7.18,1.05,9.95,3.35a39.28,39.28,0,0,1,6.88,8.29c8.24,12,16.64,24.4,20.06,38.56,1.16,4.79,1.73,9.73,3.28,14.41,3.79,11.48,13,20.25,22.05,28.24S393,450.82,398.1,461.8" transform="translate(-16 -54.3)"/><path class="cls-4" d="M309.16,344.48c10.18,4.31,17.34,13.82,21.85,23.91s6.82,21,10.28,31.52a149.27,149.27,0,0,0,11.29,25.78,57.4,57.4,0,0,0,6.76,10.05c2.85,3.25,6.27,5.95,9.48,8.86a96.32,96.32,0,0,1,17.48,21.06" transform="translate(-16 -54.3)"/><path class="cls-4" d="M377.94,466.87a239.28,239.28,0,0,0-13.8-19.62c-9.82-12.32-21.75-23.5-27.49-38.17-5.53-14.15-4.8-30.47-12.12-43.79a40.62,40.62,0,0,0-21.32-18.37" transform="translate(-16 -54.3)"/><path class="cls-4" d="M299.47,349a50.32,50.32,0,0,1,7.7,6.81c14.42,15.45,20,37,23.87,57.81a139.12,139.12,0,0,0,3,13.72c4.55,15.4,14.87,28.5,26.47,39.61" transform="translate(-16 -54.3)"/><path class="cls-4" d="M294.65,350.87c9,11.84,16.28,24.88,22.67,38.28a111,111,0,0,1,5.06,12c2.77,8.06,4,16.58,6.42,24.75,4.76,16.11,14,30.46,23.09,44.57.14.22.32.46.58.45s.34-.5.08-.49" transform="translate(-16 -54.3)"/><path class="cls-4" d="M289.78,352.07a128.46,128.46,0,0,1,24.83,50.85c.84,3.58,1.53,7.19,2.35,10.77a147.25,147.25,0,0,0,31.15,62.05c.21.25.49.53.82.49s.44-.64.11-.67" transform="translate(-16 -54.3)"/><path class="cls-4" d="M285.34,352.14c9.82,14,12.84,31.59,14.94,48.58,1,8.28,1.9,16.61,4,24.67,6.42,24.3,23.69,44.17,41.89,61.52" transform="translate(-16 -54.3)"/><path class="cls-4" d="M280.24,353.06c9.8,13.65,11.35,31.48,11,48.28s-2.35,33.89,1.67,50.21c1,4.2,2.45,8.29,3.61,12.45,1.1,3.93,2,7.93,3.14,11.84,4,13.19,11.52,25.53,12.3,39.29" transform="translate(-16 -54.3)"/><path class="cls-4" d="M275.4,352.15c6.76,4.76,8.41,13.92,9.49,22.12,1.35,10.35,2.68,20.8,1.77,31.19-.73,8.32-2.88,16.46-3.92,24.74-3,24.31,3.64,48.61,7.4,72.81a60.22,60.22,0,0,1,1,12.49" transform="translate(-16 -54.3)"/><path class="cls-4" d="M270.08,351.75a181.93,181.93,0,0,1,7.22,87.33c-1.5,9.18-3.71,18.31-3.83,27.61-.23,16.78,6.34,32.92,7.74,49.63" transform="translate(-16 -54.3)"/><path class="cls-4" d="M265.51,349.91a77.57,77.57,0,0,1-11,27.94c-6.58,10.23-15.65,19-19.82,30.48-3.45,9.44-3.21,19.76-3.85,29.8s-2.48,20.61-9.1,28.17c-5,5.65-12,8.93-18.52,12.61s-13.13,8.31-16,15.26" transform="translate(-16 -54.3)"/><path class="cls-4" d="M267.88,351.54A209.92,209.92,0,0,1,261,379a120.49,120.49,0,0,1-5.92,15.29c-3.49,7.29-8,14.06-11.23,21.47-2.94,6.75-4.78,13.92-6.59,21.06L231.35,460c-2.48,9.75-5.32,20.1-12.81,26.81-6,5.4-14.78,8.15-18.5,15.33" transform="translate(-16 -54.3)"/><path class="cls-4" d="M274.18,367a100.54,100.54,0,0,1-14.55,47.7c-4.68,7.68-10.41,14.76-14,23-6.86,15.67-5.58,34.51-15,48.77-2.28,3.45-5.14,6.51-7.29,10a30.77,30.77,0,0,0-4.45,14.22" transform="translate(-16 -54.3)"/><path class="cls-4" d="M279.12,399.09a145.94,145.94,0,0,1-6.92,34.41c-3.15,9.55-7.29,18.76-10.38,28.33s-5.11,19.69-3.85,29.65c.52,4.19,1.62,8.28,2.4,12.43a80.93,80.93,0,0,1,1.36,13.63" transform="translate(-16 -54.3)"/><path class="cls-4" d="M254.67,349c-20.34,23.47-29.66,54.2-40.59,83.27-2.66,7.07-5.49,14.18-10,20.23-8.54,11.43-22.54,18.29-29.63,30.68" transform="translate(-16 -54.3)"/><path class="cls-4" d="M246,345.81a82.64,82.64,0,0,0-9.37,11.06l-10.36,13.8a207.53,207.53,0,0,0-14.07,20.4c-6.52,11.31-10.86,23.8-17.63,35-7.47,12.32-17.71,22.73-25.64,34.76-2.33,3.53-4.51,7.36-4.9,11.57" transform="translate(-16 -54.3)"/><path class="cls-4" d="M241.84,343.7a274.28,274.28,0,0,1-32.09,35.6c-4.51,4.19-9.19,8.26-12.95,13.13-7.15,9.24-10.56,20.73-15.27,31.42a133.68,133.68,0,0,1-26.44,39.2" transform="translate(-16 -54.3)"/><path class="cls-4" d="M237.94,340.31c-23.93,18.18-48.41,37-64.2,62.52-4.75,7.69-8.78,16.07-15.55,22.06a67.16,67.16,0,0,1-9.15,6.43l-14.78,9.21" transform="translate(-16 -54.3)"/><path class="cls-4" d="M125.68,435c3.45-6.82,9.68-11.81,16.15-15.89s13.4-7.49,19.35-12.29a77.94,77.94,0,0,0,10.31-10.4c9.35-11,17.14-23.33,26.22-34.61s19.73-21.76,33-27.65" transform="translate(-16 -54.3)"/><path class="cls-4" d="M226.13,329.7q-9.51,7.43-19.5,14.18c-7.07,4.79-14.33,9.34-21.09,14.56-4.92,3.8-9.56,7.95-14.1,12.19a446.86,446.86,0,0,0-53.07,59.19" transform="translate(-16 -54.3)"/><path class="cls-4" d="M217.68,321.77c-13,13.63-31.54,20.55-50,24.47-14,3-28.86,4.73-40.36,13.19-5.79,4.26-10.33,10-15,15.44a280.7,280.7,0,0,1-27.6,28" transform="translate(-16 -54.3)"/><path class="cls-4" d="M205.65,344.85c-11.15,7.3-24.61,10.31-36.09,17.08-13.5,7.95-23.48,20.6-33.13,32.95l-24.22,31" transform="translate(-16 -54.3)"/><path class="cls-4" d="M94.74,414.51c13.3-6.55,21-20.44,31-31.42,10.92-12,25-20.88,39.87-27.44s30.58-11,46.29-15.13" transform="translate(-16 -54.3)"/><path class="cls-4" d="M214.39,316.69c-9.62,8.2-21.08,14-32.88,18.53a62.09,62.09,0,0,1-15,4.13c-10.62,1.25-21.32-2.08-32-1.37-24.5,1.63-43.66,23.77-68,26.64" transform="translate(-16 -54.3)"/><path class="cls-4" d="M210,310.49c-2.39,2.73-6.27,3.47-9.85,4.06-7.27,1.2-14.58,2.4-21.95,2.36-4.83,0-9.65-.58-14.48-.82a110.42,110.42,0,0,0-57.41,13c-5.51,3-10.76,6.42-16.26,9.41-9.07,4.93-18.75,8.6-28.4,12.25" transform="translate(-16 -54.3)"/><path class="cls-4" d="M135.76,337.77a85.13,85.13,0,0,0-30.34,23.93c-8.72,10.95-14.83,24.18-25.57,33.15" transform="translate(-16 -54.3)"/><path class="cls-4" d="M203.81,295.93a49.16,49.16,0,0,1-12.9,3.19,338.78,338.78,0,0,1-69,3c-5.37-.31-10.72-.75-16.09-1.05A300.67,300.67,0,0,0,45,303.9" transform="translate(-16 -54.3)"/><path class="cls-4" d="M201.35,289.37c-17.2,6.14-36.15,4.38-54.17,1.38S111,283.6,92.83,285.2a93,93,0,0,1-10.52.74,61.45,61.45,0,0,1-10.77-1.55L54.4,280.87c-4.56-.94-9.29-1.95-13-4.78" transform="translate(-16 -54.3)"/><path class="cls-4" d="M48.31,315.82c2.36-3.82,7.41-4.76,11.85-5.46a244.18,244.18,0,0,0,39.89-9.77" transform="translate(-16 -54.3)"/><path class="cls-4" d="M54.68,334.5c2.21-4.46,6.31-7.65,10.48-10.35A92.51,92.51,0,0,1,95,311.67c13.43-3,27.68-3.06,40.27-8.63" transform="translate(-16 -54.3)"/><path class="cls-4" d="M201.58,280.51a117.23,117.23,0,0,1-38.3.81c-18.06-2.61-35.67-9.46-53.9-8.72-8,.32-15.85,2.09-23.82,1.8-6.1-.23-12.09-1.67-18-3.1l-13-3.13c-5-1.2-11-2.18-14.7,1.35" transform="translate(-16 -54.3)"/><path class="cls-4" d="M202.68,272.23c-2.15.06-4.29.12-6.44.13-33.13.16-65.29-10.92-98-16.32a65.74,65.74,0,0,0-12.81-1.17c-4.73.14-9.44,1.19-14.15.63a42.32,42.32,0,0,1-8.63-2.3c-8.39-2.9-17-5.94-23.59-12" transform="translate(-16 -54.3)"/><path class="cls-4" d="M203.81,266c-8.06.38-15.11-4.91-22.25-8.69-9-4.75-18.9-7.34-28.75-9.78-4-1-8-2-12-2.59-7.41-1.14-14.93-1.08-22.42-1.45a193.64,193.64,0,0,1-72.06-17.92c-2.67-1.25-5.44-2.67-7.06-5.15" transform="translate(-16 -54.3)"/><path class="cls-4" d="M206.23,255c-8.79-.36-17.2-3.92-24.89-8.29s-14.89-9.6-22.71-13.74a94,94,0,0,0-38.28-10.78c-7-.42-14,0-21-.35a219.41,219.41,0,0,1-22.23-2.51l-26.36-3.88c-3.35-.49-7-1.15-9.21-3.75" transform="translate(-16 -54.3)"/><path class="cls-4" d="M47.56,196.9c8.42,3.59,16.94,7.21,25.94,8.86,4.49.82,9,1.15,13.59,1.55a372.57,372.57,0,0,1,62.54,11.06c8.93,2.38,17.86,5.13,25.88,9.72a126.25,126.25,0,0,1,12.21,8.32l19.76,14.64" transform="translate(-16 -54.3)"/><path class="cls-4" d="M40.11,259q9,1.19,18,1.63a72.26,72.26,0,0,0,16-.6c5.45-.95,10.66-2.93,15.83-4.9" transform="translate(-16 -54.3)"/><path class="cls-4" d="M208.36,245.73l-30.53-26.95a101.09,101.09,0,0,0-12.23-9.72c-6.91-4.43-14.8-7.12-21.88-11.26-4.14-2.41-8-5.31-12.17-7.61-5.32-2.92-11.11-4.84-16.87-6.74L80.82,172.26c-7.12-2.35-14.48-4.83-20-9.9" transform="translate(-16 -54.3)"/><path class="cls-4" d="M54.55,175.66c10.29,7.9,21.47,15.43,34.25,17.59,14.87,2.51,30-2.55,45.08-1.85" transform="translate(-16 -54.3)"/><path class="cls-4" d="M213.11,237.6c-7.19-1-12.35-7.16-17.34-12.44-8.93-9.45-19.36-17.32-29.79-25.08-19.63-14.59-39.79-29.14-62.83-37.33-11.34-4-23.78-6.77-32.34-15.22" transform="translate(-16 -54.3)"/><path class="cls-4" d="M279.64,220.23c2.46-3.61.77-8.46-.66-12.59a44,44,0,0,1-2.8-15.73c.17-5,1.59-9.9,2.63-14.81A196.62,196.62,0,0,0,281.68,157a134.14,134.14,0,0,0,1.13-18.56c-.25-8.13-2-16.15-2.35-24.28-.63-13,2.31-26.38,9.53-37.23" transform="translate(-16 -54.3)"/><path class="cls-4" d="M269.76,80.62a50.27,50.27,0,0,0-6.48,38.13c2.84,12.06,10.18,23.07,10.6,35.45.48,13.82-7.82,27.19-5.66,40.85,1.32,8.3,6.44,16,5.9,24.38" transform="translate(-16 -54.3)"/><path class="cls-4" d="M251.28,86.78c-5,12.32-3.89,26.28-1.08,39.28s7.2,25.71,8.61,38.93c1.09,10.24.37,20.66,2.35,30.76,1.49,7.56,4.46,14.73,7.41,21.84" transform="translate(-16 -54.3)"/><path class="cls-4" d="M233.18,97a212.65,212.65,0,0,1,13.32,70.78,136.1,136.1,0,0,0,.56,14.14c1.41,11.79,6.83,22.68,12.35,33.2" transform="translate(-16 -54.3)"/><path class="cls-4" d="M254.35,215.15c-7.45-8.24-11.34-19.13-13.44-30s-2.6-22.06-4.25-33A158.93,158.93,0,0,0,220.4,102.2" transform="translate(-16 -54.3)"/><path class="cls-4" d="M205.38,104.6c11.55,20.49,10,45.66,16.66,68.21,4.41,15,12.4,28.64,20.67,41.89" transform="translate(-16 -54.3)"/><path class="cls-4" d="M234.59,217.55q-8.94-12.15-16.78-25.07a69.14,69.14,0,0,1-6.47-12.75c-2.58-7.32-2.88-15.22-3.73-22.94-2-18.25-7.43-36.47-18.25-51.31" transform="translate(-16 -54.3)"/><path class="cls-4" d="M165.59,107.74a73.21,73.21,0,0,1,28.77,44.51c1.8,8.81,2,18.11,5.42,26.38a71.93,71.93,0,0,0,5.26,9.78L226,222.83" transform="translate(-16 -54.3)"/><path class="cls-4" d="M224.11,226l-22.35-30c-4.35-5.86-8.78-11.86-11-18.8-1.27-3.89-1.83-8-3-11.91a75.3,75.3,0,0,0-5.88-13.48c-4.26-8.19-8.75-16.35-14.8-23.33s-13.79-12.77-22.75-15" transform="translate(-16 -54.3)"/><path class="cls-4" d="M122.46,119.66a199.8,199.8,0,0,1,56.42,61.63c3,5.09,5.78,10.37,9.74,14.75,3.76,4.15,8.44,7.35,12.62,11.07,7.27,6.45,13,14.43,18.65,22.34" transform="translate(-16 -54.3)"/><path class="cls-4" d="M218,231l-16.92-13a68,68,0,0,1-9.5-8.25c-3.21-3.56-5.63-7.75-8.07-11.88q-6.36-10.71-13.18-21.13a72.42,72.42,0,0,0-8.79-11.57c-4.1-4.14-9.06-7.3-13.74-10.76-7.6-5.61-14.56-12-22.19-17.61s-16.14-10.3-25.46-11.84" transform="translate(-16 -54.3)"/><path class="cls-4" d="M85.08,133.23a263,263,0,0,0,46.13,30.7c3.49,1.82,7,3.57,10.43,5.56a170.11,170.11,0,0,1,15.88,10.94c7.82,5.83,15.77,11.81,21.41,19.76,2.28,3.23,4.16,6.74,6.55,9.89,7.64,10.06,19.84,15.59,28.59,24.7" transform="translate(-16 -54.3)"/></svg>