<svg id="Layer_1" data-name="Layer 1" xmlns="http://www.w3.org/2000/svg" viewBox="0 0 488.83 529.71"><defs><style>.cls-1{fill:#80b2ae;}.cls-2,.cls-3,.cls-4{fill:none;stroke-miterlimit:10;}.cls-2{stroke:#df6056;}.cls-2,.cls-3{stroke-width:12px;}.cls-3{stroke:#4a8e82;}.cls-4{stroke:#fff;stroke-width:2px;}</style></defs><title>object4</title><path class="cls-1" d="M209.81,552.09a26.46,26.46,0,0,0,10,.28c11.7-2,23.11-6.78,31.74-15,17.39-16.67,31.89,2.9,34.06,3.62s76.81,31.88,110.15,21.74S461,548.91,475.5,493.11c0,0,2.17-9.42,11.59-18.84s23.19-28.26,30.44-40.58,10.14-30.43,6.52-41.3-11.59-27.54-13-35.51-5.08-27.54-4.35-37c.48-6.27.79-12.55,1.09-18.83.74-15.22,1.23-30.46,1.16-45.7-.08-16.55-.08-34.2-8.46-49.07-4.18-7.43-8.28-14.9-12.67-22.19-3.45-5.72-7-11.39-10.92-16.81-1.58-2.21-3.16-5-5-6.95-2.63-2.76-6.54-4.82-9.58-7.15-10.83-8.28-26-12.91-38.59-17.89-13.7-5.4-28.3-11.17-43.1-12.52-23.91-2.17-23.91,2.9-48.55-8.69s-39.86-24.64-60.87-26.81-44.93-17.4-65.95-14.5-44.92,16.67-58,28.27-24.64,17.39-31.88,26.81-40.58,63-44.93,89.85-20.29,84.79-13.77,111.6,14.49,26.81,21.74,52.18S90,440.94,97.23,459.78s31.16,50.72,55.08,63c11.23,5.79,22.4,11.72,33.55,17.68C193.79,544.74,201.29,550.25,209.81,552.09Z" transform="translate(-36.78 -35)"/><path class="cls-2" d="M230.58,288.75S227,274.26,237.47,259s16.3-28.63,34-30.8,26.45-1.09,38.41,14.86,27.9,31.88,15.22,63.76-52.54,23.92-52.54,23.92-35.87-19.93-39.49-27.54A27,27,0,0,1,230.58,288.75Z" transform="translate(-36.78 -35)"/><path class="cls-3" d="M198.89,525a26.51,26.51,0,0,0,10.12.28c11.8-2,23.31-6.84,32-15.18,17.55-16.82,32.18,2.92,34.37,3.65s77.5,32.18,111.14,21.94,65.81-13.89,80.43-70.19c0,0,2.19-9.51,11.7-19s23.4-28.51,30.71-40.94,10.23-30.71,6.58-41.68S504.26,336,502.8,328s-5.12-27.78-4.39-37.29c.49-6.32.8-12.66,1.1-19,.75-15.35,1.24-30.73,1.17-46.11-.08-16.7-.08-34.51-8.53-49.52-4.22-7.48-8.36-15-12.79-22.38-3.48-5.78-7.08-11.49-11-17-1.61-2.23-3.2-5-5.07-7-2.66-2.79-6.6-4.87-9.67-7.22-10.93-8.36-26.21-13-38.93-18-13.83-5.45-28.56-11.27-43.5-12.63-24.13-2.19-24.13,2.93-49-8.77S282,58.19,260.78,56s-45.34-17.55-66.54-14.62-45.34,16.82-58.5,28.52-24.86,17.54-32.17,27.05-40.95,63.61-45.33,90.67-20.48,85.54-13.9,112.6S59,327.26,66.28,352.85s11.7,60,19,79,31.44,51.18,55.57,63.61c11.34,5.85,22.61,11.83,33.86,17.84C182.72,517.55,190.28,523.11,198.89,525Z" transform="translate(-36.78 -35)"/><path class="cls-4" d="M206.68,501.58a24.79,24.79,0,0,0,9.36.26c10.91-1.82,21.56-6.33,29.61-14,16.23-15.55,29.75,2.71,31.78,3.38s71.68,29.76,102.78,20.29,60.86-12.85,74.38-64.91c0,0,2-8.79,10.82-17.59s21.64-26.37,28.4-37.86,9.47-28.4,6.09-38.55-10.82-25.69-12.17-33.13-4.73-25.69-4.06-34.48c.45-5.85.74-11.72,1-17.58.69-14.2,1.15-28.42,1.08-42.64-.07-15.44-.08-31.91-7.89-45.79-3.9-6.93-7.73-13.9-11.83-20.71-3.22-5.34-6.55-10.62-10.18-15.68a60.15,60.15,0,0,0-4.69-6.48c-2.45-2.58-6.1-4.51-8.94-6.68-10.11-7.73-24.23-12-36-16.69-12.8-5-26.41-10.42-40.23-11.68-22.31-2-22.31,2.71-45.3-8.11s-37.19-23-56.8-25S222,51.65,202.37,54.35s-41.92,15.56-54.09,26.37-23,16.23-29.75,25S80.66,164.57,76.6,189.59,57.67,268.71,63.75,293.73s13.53,25,20.29,48.68,10.82,55.45,17.58,73S130.7,462.77,153,474.27c10.49,5.4,20.91,10.93,31.31,16.49C191.72,494.72,198.72,499.86,206.68,501.58Z" transform="translate(-36.78 -35)"/><path class="cls-4" d="M249.5,214.69s-25.36,23.55-29,34.42-5.07,16.67-3.26,30.08,7.56,37.32,15.74,44.93S252.4,343,256.38,344.77s28.63,13,55.44,0,31.52-30,33.33-37.49,4.35-28.46-2.17-45.12-17.75-31.89-26.81-39.86-21.85-21.74-38.1-18.11S261.46,206.36,249.5,214.69Z" transform="translate(-36.78 -35)"/><path class="cls-4" d="M328.45,236.06s6.29-13.94,12.81-22.09,8.7-13.05,19.84-19.57,21.74-15.76,25.27-27.44,7.88-28,21.47-35.33,20.46-10.25,20.46-10.25" transform="translate(-36.78 -35)"/><path class="cls-4" d="M333.89,243.33c0-3.39,2.23-6.32,4.47-8.84A114.88,114.88,0,0,1,362,214.19c8.62-5.59,18-10,26.67-15.42s17-12.12,22.19-21c5.05-8.65,6.86-18.76,10-28.3s8.12-19.25,17-23.81" transform="translate(-36.78 -35)"/><path class="cls-4" d="M336.66,246.81c5.22-13.55,17.75-22.79,29.67-31.27a110.58,110.58,0,0,1,15.43-9.73c4.46-2.16,9.19-3.72,13.84-5.45a185.87,185.87,0,0,0,19.12-8.4c4.15-2.11,8.37-4.51,11-8.34,2-2.92,2.81-6.41,3.87-9.76a72.33,72.33,0,0,1,23.89-34.63" transform="translate(-36.78 -35)"/><path class="cls-4" d="M338.72,252.7a96.67,96.67,0,0,1,41.09-38c13.07-6.35,27.65-9.82,39.65-18a117.48,117.48,0,0,0,11.84-9.64,82.46,82.46,0,0,0,7.05-6.81c3.31-3.75,5.9-8.09,9.43-11.63,4.73-4.75,10.87-7.81,16.9-10.8" transform="translate(-36.78 -35)"/><path class="cls-4" d="M342.75,261.39c16.19-16.34,32.73-32.93,53.07-43.66C412.35,209,431.45,204.1,444.77,191c2.79-2.75,5.26-5.8,8-8.63a70.9,70.9,0,0,1,18.41-13.82" transform="translate(-36.78 -35)"/><path class="cls-4" d="M345.09,268.67q16.31-14.64,33.67-28a103.73,103.73,0,0,1,10.75-7.54c5.69-3.35,11.9-5.68,18.07-8,11.72-4.46,23.63-9.18,33.2-17.28,7-5.87,12.44-13.33,19.47-19.1,5-4.1,10.7-7.26,16.35-10.4" transform="translate(-36.78 -35)"/><path class="cls-4" d="M346,272.52c14.17-4.9,25.68-15.28,38.77-22.59,16.85-9.41,36.34-13.73,52.4-24.44a77.06,77.06,0,0,0,13.32-11.26c2.71-2.89,5.2-6,8.05-8.74,6.71-6.51,15.13-10.92,23.43-15.23" transform="translate(-36.78 -35)"/><path class="cls-4" d="M347.27,279.52c5.56.27,10.42-3.41,15-6.6a115.09,115.09,0,0,1,32.38-15.66c6.87-2.07,13.93-3.49,20.8-5.59A110.37,110.37,0,0,0,442.71,239c14-9,26.54-21.46,42.8-24.94" transform="translate(-36.78 -35)"/><path class="cls-4" d="M347.32,287.27c8-2,15.48-5.8,23-9.2a258.62,258.62,0,0,1,38.54-13.8c4.61-1.25,9.27-2.37,13.79-3.91,10.74-3.66,20.54-9.58,30.7-14.63s21.07-9.33,32.42-9.28" transform="translate(-36.78 -35)"/><path class="cls-4" d="M347.49,294A253.55,253.55,0,0,0,376,283.13,136.34,136.34,0,0,1,389,277.67c5.82-1.94,11.92-2.87,18-3.82,13.47-2.11,27-4.41,39.71-9.43,12.48-4.94,24.73-12.62,38.12-11.64" transform="translate(-36.78 -35)"/><path class="cls-4" d="M346.26,301.51c14-5.32,27.39-12.65,42.12-15.28,10-1.78,20.22-1.34,30.23-2.82,11.41-1.68,22.28-5.81,33-10.06,10.51-4.16,21.66-8.55,32.81-6.64" transform="translate(-36.78 -35)"/><path class="cls-4" d="M345.39,306l22.94-6.86c3.43-1,6.88-2.06,10.39-2.8,19.32-4.11,39.84.54,58.95-4.46,7.58-2,14.7-5.42,22.23-7.61s15.86-3,23,.18" transform="translate(-36.78 -35)"/><path class="cls-4" d="M345.59,309c18.34.92,36.16-6.31,54.51-7.2,14.9-.72,29.79,2.76,44.68,1.76,13.21-.88,26.55-5.27,39.44-2.22" transform="translate(-36.78 -35)"/><path class="cls-4" d="M345.06,310.67a246.69,246.69,0,0,0,27.87-.55c8-.75,16-2.26,24.07-1.81,14.71.84,28.8,8.2,43.48,7,4.2-.34,8.33-1.38,12.53-1.45,12.66-.22,23.74,8.17,36,11.2" transform="translate(-36.78 -35)"/><path class="cls-4" d="M343.2,313.59c15.46-1,31.07-1.93,46.34.62,3.45.57,6.86,1.32,10.25,2.14a233.2,233.2,0,0,1,45.83,16.42c12.17,5.86,24.24,12.91,37.67,14.26,5.56.55,11.59.22,16.17,3.4" transform="translate(-36.78 -35)"/><path class="cls-4" d="M341.82,317.23c29.14-2.21,60,2.64,83.23,20.4,6.65,5.09,12.56,11.15,19.58,15.72a57,57,0,0,0,29.95,9.2c9.13.17,18.91-1.74,26.94,2.61" transform="translate(-36.78 -35)"/><path class="cls-4" d="M339.64,320.45c14.15,5.23,30.18,2.81,44.47,7.65A90.16,90.16,0,0,1,398.66,335l37.06,20.4c2.79,1.53,5.58,3.07,8.28,4.77,2.92,1.85,5.72,3.88,8.66,5.71a83.26,83.26,0,0,0,21,9.18c8.25,2.36,17.22,3.8,23.69,9.42" transform="translate(-36.78 -35)"/><path class="cls-4" d="M338,324c6.38,5,15.2,4.72,23.26,5.43a83.13,83.13,0,0,1,38,13.18c4,2.63,7.79,5.59,11.55,8.56a155.08,155.08,0,0,1,12.18,10.26c4.85,4.7,9.21,10.11,15.09,13.43,6.11,3.45,13.29,4.31,20.05,6.19a67,67,0,0,1,30.68,18.62" transform="translate(-36.78 -35)"/><path class="cls-4" d="M335,327.68a54,54,0,0,0,17.89,6.17c3.31.53,6.66.74,10,1.18a73.26,73.26,0,0,1,39.39,18.36c4.72,4.3,8.85,9.21,13.66,13.42,3.44,3,7.21,5.66,10.5,8.85s6.21,7,9.3,10.58a91,91,0,0,0,23.69,19.26c5.85,3.31,12.23,6.08,16.72,11.09" transform="translate(-36.78 -35)"/><path class="cls-4" d="M333.2,329.67c11.6,8.7,27.95,7.21,41.08,13.35,6.57,3.07,12.11,8,17.45,12.87a576.68,576.68,0,0,1,54.76,57.84,100.43,100.43,0,0,0,9,10.08,45.88,45.88,0,0,0,8.23,6.09" transform="translate(-36.78 -35)"/><path class="cls-4" d="M330.3,333.4c10.06,9.5,25.43,9.88,38,15.59,15,6.82,25.24,20.83,36.78,32.64,6.57,6.71,13.72,12.83,20.11,19.71a124.13,124.13,0,0,1,28.13,49.8" transform="translate(-36.78 -35)"/><path class="cls-4" d="M327,336c1.06,8.37,8.46,14.35,15.61,18.82,8.95,5.59,18.45,10.29,27.23,16.15,12.51,8.34,23.38,18.87,34.18,29.34s22.08,21.49,29,35c6.21,12.09,8.78,25.7,10.28,39.21" transform="translate(-36.78 -35)"/><path class="cls-4" d="M321.93,338.72c3.06,9.29,10,16.86,17.68,22.9s16.31,10.81,24.29,16.49,15.1,12.06,22.31,18.51c5.36,4.79,10.75,9.62,15.24,15.24A131.53,131.53,0,0,1,409,422.74c4.37,6.81,8.75,13.63,12.5,20.81,6.72,12.84,11.35,26.65,15.94,40.39" transform="translate(-36.78 -35)"/><path class="cls-4" d="M317.88,341a150.54,150.54,0,0,0,50.52,55c4.05,2.63,8.24,5.08,12,8.07,10.65,8.41,17.54,20.58,24.15,32.43,9.69,17.38,19.44,34.89,25.79,53.75" transform="translate(-36.78 -35)"/><path class="cls-4" d="M421.5,497c-15.6-22.08-21.25-50.53-39.35-70.61-9-10-20.56-17.28-30.25-26.58-16.38-15.73-26.76-36.54-36.83-56.9" transform="translate(-36.78 -35)"/><path class="cls-4" d="M307.87,346.91c3.7,6.08,5.35,13.16,8.05,19.75,4.75,11.57,12.67,21.51,20.48,31.27,3.77,4.71,7.54,9.43,11.52,14,12.27,14.05,26.39,26.39,38.64,40.45s22.83,30.35,26.11,48.71" transform="translate(-36.78 -35)"/><path class="cls-4" d="M300.08,349.13c8.37,11.6,11.67,26.21,12.17,40.51s-1.62,28.54-3.09,42.77-2.3,28.75.72,42.74c1,4.86,2.55,9.61,3.87,14.4q2.47,9,4.1,18.1" transform="translate(-36.78 -35)"/><path class="cls-4" d="M302.18,348.43c5.68,9.65,11.42,19.43,14.51,30.19,4.15,14.46,3.3,29.82,4.73,44.8a146.45,146.45,0,0,0,16.48,54.69c2.13,4,4.45,7.92,6,12.18,2.52,7,2.8,14.59,3.05,22" transform="translate(-36.78 -35)"/><path class="cls-4" d="M327.84,386.24a82.39,82.39,0,0,0,23.75,53.54c2.11,2.11,4.34,4.12,6.24,6.43,4.39,5.35,6.75,12.05,8.72,18.69,4.58,15.4,7.55,31.36,7.57,47.43" transform="translate(-36.78 -35)"/><path class="cls-4" d="M357.88,423.5c11,16.82,21.48,34.65,24.85,54.47,1.73,10.19,1.78,21.33,7.95,29.62" transform="translate(-36.78 -35)"/><path class="cls-4" d="M295,351l6.68,31.33c.79,3.74,1.59,7.48,2.19,11.26a97.39,97.39,0,0,1,.78,25.69c-1.48,13.88-6.27,27.61-4.69,41.48,1.64,14.39,10.08,27.93,8.61,42.34" transform="translate(-36.78 -35)"/><path class="cls-4" d="M287.7,350.74c3.3,1.45,5.57,4.64,6.73,8.05A39,39,0,0,1,296,369.45c.75,14.56,1.46,29.5-3,43.37-1.51,4.69-3.6,9.2-4.72,14-2.76,11.77.5,24,4.07,35.6s7.51,23.46,6.1,35.46" transform="translate(-36.78 -35)"/><path class="cls-4" d="M283.77,351.38c6.43,9,7.58,20.84,6.16,31.81s-5.15,21.49-7.68,32.25a149.87,149.87,0,0,0-3.81,27.88,56.9,56.9,0,0,0,.52,12.1c.73,4.27,2.24,8.36,3.46,12.51A96.24,96.24,0,0,1,286.34,495" transform="translate(-36.78 -35)"/><path class="cls-4" d="M278.58,491.69A236.35,236.35,0,0,0,277,467.75c-1.94-15.63-6.29-31.4-3.52-46.91,2.66-15,11.79-28.49,12.5-43.67a40.63,40.63,0,0,0-8.6-26.81" transform="translate(-36.78 -35)"/><path class="cls-4" d="M273.13,350.22a49.54,49.54,0,0,1,3,9.82c4.25,20.71-2.3,42-9.8,61.77a139.61,139.61,0,0,0-4.59,13.27c-4.16,15.52-2.19,32.07,1.91,47.6" transform="translate(-36.78 -35)"/><path class="cls-4" d="M268.06,349.27c1.48,14.79.9,29.71-.64,44.49a113.6,113.6,0,0,1-1.92,12.84c-1.85,8.32-5.24,16.22-7.44,24.46-4.34,16.22-4,33.28-3.56,50.07,0,.26,0,.56.26.68s.55-.24.32-.37" transform="translate(-36.78 -35)"/><path class="cls-4" d="M263.28,347.75a128.56,128.56,0,0,1-5.35,56.34c-1.15,3.49-2.45,6.93-3.62,10.41a147.35,147.35,0,0,0-5.81,69.18c.06.33.15.71.45.85s.72-.31.44-.51" transform="translate(-36.78 -35)"/><path class="cls-4" d="M259.46,345.49c1.05,17.09-5.53,33.65-12.61,49.24-3.44,7.6-7,15.16-9.44,23.15-7.19,24.08-2.84,50.05,3.64,74.33" transform="translate(-36.78 -35)"/><path class="cls-4" d="M254.63,343.62c1.23,16.76-6.75,32.78-15.84,46.91S219.1,418.22,214,434.23c-1.3,4.12-2.23,8.35-3.41,12.51-1.12,3.92-2.46,7.78-3.5,11.73-3.49,13.33-3.5,27.8-10,39.94" transform="translate(-36.78 -35)"/><path class="cls-4" d="M251,340.32c3.28,7.59-.09,16.26-3.45,23.81-4.24,9.54-8.56,19.15-14.76,27.54-5,6.72-11,12.53-16.25,19.06-15.27,19.15-22.27,43.36-31.68,66a59.82,59.82,0,0,1-5.69,11.16" transform="translate(-36.78 -35)"/><path class="cls-4" d="M246.64,337.2a182,182,0,0,1-39.41,78.27c-6.07,7-12.72,13.68-17.68,21.55-8.94,14.19-11.77,31.39-19.29,46.38" transform="translate(-36.78 -35)"/><path class="cls-4" d="M243.71,333.24a77.47,77.47,0,0,1-24,18.08c-11,5.29-23.29,8.09-32.81,15.66-7.87,6.26-13.05,15.19-18.83,23.41s-12.88,16.3-22.46,19.29c-7.17,2.24-14.88,1.37-22.38,1.09s-15.54.24-21.61,4.67" transform="translate(-36.78 -35)"/><path class="cls-4" d="M244.87,335.87a212,212,0,0,1-20.16,19.83,123.2,123.2,0,0,1-13,9.95c-6.78,4.39-14.17,7.82-20.78,12.45-6,4.22-11.34,9.39-16.62,14.53l-17.17,16.73c-7.21,7-15,14.36-24.92,16.17-8,1.47-16.86-.75-23.78,3.43" transform="translate(-36.78 -35)"/><path class="cls-4" d="M242.19,352.34a100.69,100.69,0,0,1-37.31,33.1c-8,4.11-16.58,7.16-23.95,12.3-14,9.79-22.77,26.53-38.26,33.76-3.75,1.75-7.78,2.87-11.47,4.76A30.88,30.88,0,0,0,120,446.07" transform="translate(-36.78 -35)"/><path class="cls-4" d="M229.65,382.3a145.62,145.62,0,0,1-23.86,25.75c-7.67,6.5-16,12.19-23.64,18.75s-14.63,14.13-18.75,23.27c-1.74,3.85-2.94,7.92-4.44,11.87a81.34,81.34,0,0,1-6,12.33" transform="translate(-36.78 -35)"/><path class="cls-4" d="M234.91,326.83c-29.6,9.42-53.58,30.76-78.07,49.86-6,4.64-12.09,9.23-19.09,12C124.49,394,109,392.57,96.46,399.44" transform="translate(-36.78 -35)"/><path class="cls-4" d="M229.24,319.58a82.91,82.91,0,0,0-13.77,4.56l-16,6.36a206.22,206.22,0,0,0-22.64,10.06c-11.47,6.24-21.69,14.64-33.29,20.63-12.8,6.61-27,10.15-40,16.27-3.83,1.8-7.68,3.93-10.21,7.32" transform="translate(-36.78 -35)"/><path class="cls-4" d="M226.75,315.59a273.65,273.65,0,0,1-45.95,13.63c-6,1.22-12.15,2.25-17.9,4.44-10.92,4.16-19.82,12.18-29.42,18.84a133.74,133.74,0,0,1-43,19.64" transform="translate(-36.78 -35)"/><path class="cls-4" d="M225.2,310.67c-29.91,3-60.58,6.27-87.4,19.84-8.06,4.07-15.88,9.12-24.77,10.69a67.2,67.2,0,0,1-11.17.72l-17.41.14" transform="translate(-36.78 -35)"/><path class="cls-4" d="M80,332.9c6.51-4,14.43-5,22.08-5.12s15.33.6,22.92-.39a77.93,77.93,0,0,0,14.22-3.5c13.74-4.54,26.8-10.95,40.43-15.84s28.18-8.27,42.54-6.39" transform="translate(-36.78 -35)"/><path class="cls-4" d="M220.65,295.46q-12,1.37-24,1.92c-8.54.39-17.1.48-25.59,1.41-6.18.68-12.3,1.8-18.39,3a446.61,446.61,0,0,0-76.16,22.81" transform="translate(-36.78 -35)"/><path class="cls-4" d="M217.58,284.28c-18.19,4.85-37.63,1.08-55.39-5.19-13.46-4.75-27.08-11-41.3-9.81-7.17.61-14,3.11-20.86,5.34a281.21,281.21,0,0,1-38.17,9.49" transform="translate(-36.78 -35)"/><path class="cls-4" d="M195.28,297.69c-13.32.41-26.37-4-39.7-4.26-15.67-.26-30.78,5.32-45.46,10.82l-36.83,13.8" transform="translate(-36.78 -35)"/><path class="cls-4" d="M64.31,299.24c14.76,1.36,28.59-6.47,42.81-10.64,15.6-4.57,32.22-4.77,48.33-2.61s31.81,6.61,47.38,11.25" transform="translate(-36.78 -35)"/><path class="cls-4" d="M217.43,278.23c-12.49,2-25.29.94-37.72-1.35a62.5,62.5,0,0,1-14.92-4.28c-9.72-4.48-17.11-12.91-26.58-17.87-21.76-11.4-49.65-2.5-71.95-12.78" transform="translate(-36.78 -35)"/><path class="cls-4" d="M216.88,270.63c-3.47,1.07-7.16-.31-10.53-1.68-6.82-2.77-13.68-5.56-19.95-9.44-4.11-2.54-7.93-5.53-11.93-8.25a110.2,110.2,0,0,0-55.76-18.87c-6.25-.34-12.52-.14-18.78-.46-10.3-.53-20.48-2.45-30.62-4.37" transform="translate(-36.78 -35)"/><path class="cls-4" d="M139.35,255.18A85,85,0,0,0,101,259.77c-13.15,4.79-25.26,12.88-39.11,14.94" transform="translate(-36.78 -35)"/><path class="cls-4" d="M219.23,255c-4.4-.59-8.58-2.27-12.67-4a339,339,0,0,1-60.42-33.43c-4.41-3.06-8.75-6.24-13.18-9.29a300.21,300.21,0,0,0-53.38-29.35" transform="translate(-36.78 -35)"/><path class="cls-4" d="M220.56,248.13c-17.88-3.75-33.12-15.14-46.93-27.1s-27.11-25-43.47-33.09a94.2,94.2,0,0,1-9.36-4.86,61.63,61.63,0,0,1-8.38-6.94L99.64,164.19c-3.4-3.18-6.91-6.52-8.6-10.86" transform="translate(-36.78 -35)"/><path class="cls-4" d="M76.2,190.83c4-2,8.81-.2,13,1.52a244.92,244.92,0,0,0,39.12,12.49" transform="translate(-36.78 -35)"/><path class="cls-4" d="M71.9,210.09c4.2-2.65,9.37-3.24,14.33-3.36a92.49,92.49,0,0,1,32,4.9c13,4.44,25.21,11.84,38.85,13.65" transform="translate(-36.78 -35)"/><path class="cls-4" d="M225.39,240.68a116.8,116.8,0,0,1-33.1-19.29c-14-11.65-25.5-26.68-41.44-35.57-6.95-3.88-14.61-6.48-21.25-10.89-5.09-3.38-9.45-7.73-13.77-12.05l-9.43-9.44c-3.64-3.63-8.21-7.57-13.25-6.51" transform="translate(-36.78 -35)"/><path class="cls-4" d="M230.64,234.19c-1.86-1.07-3.72-2.14-5.56-3.25-28.35-17.15-50-43.38-75.12-65.08a65.82,65.82,0,0,0-10.32-7.68c-4.11-2.34-8.68-3.91-12.4-6.84a42.41,42.41,0,0,1-6.16-6.47c-5.64-6.85-11.44-14-13.87-22.52" transform="translate(-36.78 -35)"/><path class="cls-4" d="M234.86,229.45c-7.07-3.88-10.33-12.07-14.45-19-5.17-8.74-12.29-16.12-19.41-23.35-2.88-2.92-5.78-5.84-8.91-8.48-5.73-4.84-12.18-8.71-18.36-12.93a193.34,193.34,0,0,1-52.12-52.89c-1.63-2.46-3.25-5.12-3.35-8.08" transform="translate(-36.78 -35)"/><path class="cls-4" d="M242.67,221.33c-7.32-4.89-12.63-12.31-16.91-20.06s-7.7-16-12.2-23.57a94.12,94.12,0,0,0-27-29.17c-5.75-4-11.91-7.35-17.72-11.25a220.38,220.38,0,0,1-17.66-13.74l-20.46-17.07c-2.6-2.16-5.38-4.64-5.9-8" transform="translate(-36.78 -35)"/><path class="cls-4" d="M137.61,89c5.32,7.46,10.69,15,17.52,21.1,3.39,3,7.11,5.69,10.77,8.41a372.11,372.11,0,0,1,47.59,42.07c6.37,6.69,12.55,13.69,17,21.79a124.36,124.36,0,0,1,6.08,13.47l9.21,22.8" transform="translate(-36.78 -35)"/><path class="cls-4" d="M98.88,138q7,5.7,14.52,10.79a72.14,72.14,0,0,0,13.94,7.83c5.14,2,10.62,3.06,16.06,4.08" transform="translate(-36.78 -35)"/><path class="cls-4" d="M249.31,214.55l-12-38.92A100.86,100.86,0,0,0,232,161c-3.59-7.39-8.91-13.8-12.79-21-2.27-4.21-4-8.69-6.41-12.84-3-5.27-7-9.93-10.88-14.56l-23-27.2C174,79.61,169,73.65,167,66.44" transform="translate(-36.78 -35)"/><path class="cls-4" d="M154.66,74.52c4.65,12.11,10.26,24.36,20.05,32.88,11.37,9.89,26.93,13.48,39.41,21.94" transform="translate(-36.78 -35)"/><path class="cls-4" d="M257.61,210.09c-5.6-4.63-6.8-12.55-8.3-19.66-2.69-12.71-7.49-24.88-12.34-36.94-9.12-22.69-18.73-45.62-34.11-64.63-7.57-9.34-16.75-18.18-19.65-29.85" transform="translate(-36.78 -35)"/><path class="cls-4" d="M323.42,230c4-1.79,5.07-6.81,6-11.09A44.14,44.14,0,0,1,335.25,204c2.76-4.18,6.52-7.61,10-11.25a200.34,200.34,0,0,0,12.95-15.66,134.54,134.54,0,0,0,10.64-15.24c4-7.07,6.75-14.81,10.66-21.94,6.26-11.43,15.74-21.3,27.56-26.79" transform="translate(-36.78 -35)"/><path class="cls-4" d="M387.85,105.74a50.24,50.24,0,0,0-25.43,29.15c-3.87,11.76-3.36,25-9.45,35.77-6.81,12-20.86,19.11-26.15,31.89-3.21,7.77-2.84,17-7.69,23.88" transform="translate(-36.78 -35)"/><path class="cls-4" d="M368.87,101.35c-10.7,7.9-17,20.39-21.43,33s-7.26,25.68-13,37.7c-4.41,9.3-10.47,17.82-14,27.47-2.68,7.22-3.89,14.89-5.09,22.49" transform="translate(-36.78 -35)"/><path class="cls-4" d="M348.1,100.61a212.55,212.55,0,0,1-25.57,67.33,135.84,135.84,0,0,0-6.9,12.35c-4.94,10.8-6,22.92-6.79,34.77" transform="translate(-36.78 -35)"/><path class="cls-4" d="M304.5,212.46c-2.06-10.91.31-22.23,4.21-32.63s9.29-20.17,13.61-30.4a158.79,158.79,0,0,0,12.15-51" transform="translate(-36.78 -35)"/><path class="cls-4" d="M320.41,92.61c-.84,23.5-15.28,44.17-21.38,66.88-4,15.08-4.37,30.89-4.22,46.51" transform="translate(-36.78 -35)"/><path class="cls-4" d="M286.39,204.2q-1.29-15-1.24-30.14a69.3,69.3,0,0,1,1.14-14.25c1.63-7.6,5.49-14.49,8.79-21.52,7.81-16.62,12.69-35,11.2-53.29" transform="translate(-36.78 -35)"/><path class="cls-4" d="M284.83,74.52a73.23,73.23,0,0,1,1.32,53C283.08,136,278.42,144,277,152.83a72.16,72.16,0,0,0-.62,11.09l-.12,40.27" transform="translate(-36.78 -35)"/><path class="cls-4" d="M273.05,205.92l-3.39-37.28c-.66-7.27-1.31-14.69.38-21.8.94-4,2.6-7.76,3.67-11.72a76.64,76.64,0,0,0,2-14.57c.63-9.21,1.06-18.52-.45-27.62s-5.11-18.1-11.57-24.69" transform="translate(-36.78 -35)"/><path class="cls-4" d="M241.82,62.19a199.91,199.91,0,0,1,16,82c-.11,5.91-.48,11.87.61,17.67,1,5.5,3.36,10.67,5,16,2.83,9.3,3.55,19.09,4.25,28.79" transform="translate(-36.78 -35)"/><path class="cls-4" d="M265.24,207l-7.67-19.89a68.73,68.73,0,0,1-3.8-12c-.88-4.72-.75-9.56-.69-14.35q.18-12.45-.2-24.91a73.72,73.72,0,0,0-1.47-14.45c-1.33-5.67-3.91-11-6.11-16.35-3.56-8.75-6.13-17.88-9.74-26.6S227.17,61.25,220,55.08" transform="translate(-36.78 -35)"/><path class="cls-4" d="M202.85,54.26a262.37,262.37,0,0,0,23.33,50.25c2,3.38,4.13,6.72,6,10.19A170.12,170.12,0,0,1,240,132.32c3.63,9.05,7.3,18.3,8,28,.27,3.94,0,7.91.43,11.85,1.27,12.57,8.79,23.66,11.51,36" transform="translate(-36.78 -35)"/></svg>