<svg id="Layer_1" data-name="Layer 1" xmlns="http://www.w3.org/2000/svg" viewBox="0 0 454.42 469.03"><defs><style>.cls-1{fill:#80b2ae;}.cls-2{fill:#4a8e82;}.cls-3,.cls-4,.cls-5{fill:none;stroke-miterlimit:10;}.cls-3{stroke:#fff;stroke-width:1.5px;}.cls-4{stroke:#df6056;stroke-width:12px;}.cls-5{stroke:#4a8e82;stroke-width:11px;}</style></defs><title>object3</title><path class="cls-1" d="M158,136.32s25.91-22,70.6-27.85a333.42,333.42,0,0,1,87.92,0c11.17,1.29,77.23,16.84,93.42,33s42.75,32.38,58.94,63.47,34.32,58.29,38.86,84.84-1.3,72.54-24.61,119.17-29.8,68-60.88,92S366.5,543,324.4,542.4s-125-22-154.14-35-68.65-55.05-81.61-86.14S58.86,333.85,68.58,282,98.37,184.89,158,136.32Z" transform="translate(-64.08 -73.38)"/><path class="cls-2" d="M308.18,296.62a62.73,62.73,0,0,0-3.84-15.31A27.72,27.72,0,0,0,294.77,269c-6.17-4.17-14.09-4.87-21.49-4.09a27.18,27.18,0,0,0-9.28,2.35c-4.89,2.41-8.4,7-10.89,11.84a48.07,48.07,0,0,0-3.06,35.79c2.59,8.3,8.12,13.49,16.39,16a108.9,108.9,0,0,0,14.16,3.29c4.51.73,9.22,1.17,13.58-.21,6.92-2.2,11.8-8.74,13.73-15.74S309.24,303.8,308.18,296.62Zm-48.74-7.32a.61.61,0,0,1,.15-.24l.19-.19.32-.26a1.51,1.51,0,0,1,.28-.15,1,1,0,0,1,.18-.06,1.26,1.26,0,0,1,.27,0,.76.76,0,0,1,.52.21.84.84,0,0,1,.19.33l0,.19a.52.52,0,0,1-.06.28.63.63,0,0,1-.52.42h0l-.06,0-.27.25a.7.7,0,0,1-.32.19l-.2,0a.72.72,0,0,1-.51-.22.51.51,0,0,1-.15-.23.55.55,0,0,1-.07-.28A.53.53,0,0,1,259.44,289.3Zm1.45,10.43a1.13,1.13,0,0,1-.86-.12,1.09,1.09,0,0,1-.51-.66.93.93,0,0,1,0-.24,2,2,0,0,1-.37.09,1.11,1.11,0,0,1-1-.56,1.12,1.12,0,0,1,0-1.12c.18-.23.35-.47.55-.69a2.85,2.85,0,0,1,.49-.42,3.69,3.69,0,0,1,.72-.35l.34-.15a1.22,1.22,0,0,1,.86-.11,1.15,1.15,0,0,1,.66.51,2.42,2.42,0,0,1,.46,2,4.54,4.54,0,0,1-.7,1.3A1.28,1.28,0,0,1,260.89,299.73ZM264.53,314a.79.79,0,0,1-.35.23.94.94,0,0,1-.43.1A1.11,1.11,0,0,1,263,314a3.47,3.47,0,0,1-.25-.29,3.21,3.21,0,0,1-.21-.3c-.07-.14-.13-.29-.19-.43l-.06-.19a3.51,3.51,0,0,1-.09-.65c0-.13,0-.25,0-.38a1.16,1.16,0,0,1,.32-.79,1.1,1.1,0,0,1,.79-.32.8.8,0,0,1,.43.09.86.86,0,0,1,.36.23,1.15,1.15,0,0,1,.32.79c0,.12,0,.24,0,.36a.83.83,0,0,0,0,.15.75.75,0,0,0,.07.12l0,0a1.1,1.1,0,0,1,0,1.57Zm9.31-34.09a2.8,2.8,0,0,1,.54-.89l.29-.34,0,0,0,0,0,0v0a1.22,1.22,0,0,1,.61-.46,1.17,1.17,0,0,1,.86.11,1,1,0,0,1,.34.34l.13.08a1.15,1.15,0,0,1,.32.79,6.59,6.59,0,0,1,0,1.47,2.21,2.21,0,0,1-1.24,1.43,1.19,1.19,0,0,1-.85.11,1.14,1.14,0,0,1-.67-.51A2.46,2.46,0,0,1,273.84,279.92Zm-1.67,10c.34-.23.67-.48,1-.71a5,5,0,0,1,1.43-.61,1.14,1.14,0,0,1,1.26.51,2.61,2.61,0,0,1,.41,1.18,1.58,1.58,0,0,1-.44,1.13,6.09,6.09,0,0,1-1.05.68l-.07,0a1.11,1.11,0,0,1-.78.33.94.94,0,0,1-.44-.09,2.09,2.09,0,0,1-1.56-.72,1.06,1.06,0,0,1-.31-.94A1.13,1.13,0,0,1,272.17,289.92Zm-2.08,13.67a1.13,1.13,0,0,1-.76.31,1.2,1.2,0,0,1-.78-.33,3.16,3.16,0,0,1-.42-.4,3.81,3.81,0,0,1-.93-2.58,3.34,3.34,0,0,1,.87-2.23,2.2,2.2,0,0,1,1-.6,2.17,2.17,0,0,1,1.46.19,3,3,0,0,1,1.06,1,5.13,5.13,0,0,1,.67,1.32,3.35,3.35,0,0,1,.16,2,1.9,1.9,0,0,1-1.33,1.32A2.38,2.38,0,0,1,270.09,303.59ZM278,317.48a2.51,2.51,0,0,1-1.21,1.41l0,0a1.15,1.15,0,0,1-1.05.77,4,4,0,0,1-.6,0,5,5,0,0,1-1.51-.42,3.3,3.3,0,0,1-.91-.67,2.87,2.87,0,0,1-.83-2,2.41,2.41,0,0,1,1.05-2,2,2,0,0,1,.88-.36,3.53,3.53,0,0,1,1.41.06,6,6,0,0,1,1.29.52,3.63,3.63,0,0,1,.94.66A2,2,0,0,1,278,317.48Zm12-40.35a1.12,1.12,0,0,1,1.57,0,1.16,1.16,0,0,1,.33.79V278l.06,0,0,0a1.26,1.26,0,0,0,.32.18l.31.13a2.17,2.17,0,0,1,.47.32,1.79,1.79,0,0,1,.45.73.8.8,0,0,1,0,.21,3,3,0,0,1,.06.51,1.1,1.1,0,0,1-.44.88,1.15,1.15,0,0,1-1,.2,3,3,0,0,1-1.05-.43,3.09,3.09,0,0,1-.91-.89,1.35,1.35,0,0,1-.19-.33,4.24,4.24,0,0,1-.23-.59,3.92,3.92,0,0,1-.14-1A1.17,1.17,0,0,1,289.92,277.13Zm-3.78.52a.47.47,0,0,1-.25-.13.61.61,0,0,1-.19-.2,3.64,3.64,0,0,0-.28-.47l-.33-.36a.71.71,0,0,1,0-1,.51.51,0,0,1,.23-.15.46.46,0,0,1,.28-.06.76.76,0,0,1,.52.21,4.38,4.38,0,0,1,.84,1.12.69.69,0,0,1,.1.37l0,.19a.72.72,0,0,1-.34.44.5.5,0,0,1-.27.08A.48.48,0,0,1,286.14,277.65Zm5.74,34.14a1.75,1.75,0,0,1-.59.89,1.05,1.05,0,0,1-.28.6,1.13,1.13,0,0,1-.79.33,3.6,3.6,0,0,1-1.18-.24h0a1.16,1.16,0,0,1-.79-.33s0-.05-.05-.08a3.8,3.8,0,0,1-.82-.61,2.63,2.63,0,0,1-.74-1.14,1.61,1.61,0,0,1,.39-1.62,2.51,2.51,0,0,1,1.68-.62,3.86,3.86,0,0,1,1.83.38A2.19,2.19,0,0,1,291.88,311.79ZM296,299.92a3.33,3.33,0,0,1-1,1.49,1.07,1.07,0,0,1-.93,1.67,5.34,5.34,0,0,1-.8-.13,4.21,4.21,0,0,1-3.09-3.59,2.4,2.4,0,0,1,.77-2,3.27,3.27,0,0,1,2.81-.54,3,3,0,0,1,2,1.23A2.26,2.26,0,0,1,296,299.92Zm.87-14.66-.11.26a2.18,2.18,0,0,1-.33.45,2.24,2.24,0,0,1-.38.31l-.12.08a.83.83,0,0,1-.08.12,1.1,1.1,0,0,1-.78.32,1,1,0,0,1-.52-.14h-.13a2.36,2.36,0,0,1-.44-.07,2.82,2.82,0,0,1-.45-.18,1.18,1.18,0,0,1-.4-.4.9.9,0,0,1-.13-.41,1,1,0,0,1,0-.45,1.16,1.16,0,0,1,.29-.49,4.32,4.32,0,0,0,.34-.39l-.17.23a4.94,4.94,0,0,1,.44-.56,2.46,2.46,0,0,1,.85-.54,1.25,1.25,0,0,1,.43,0,2.63,2.63,0,0,1,.39.06,2.67,2.67,0,0,1,.36.14l.08.05a1.54,1.54,0,0,1,.34.29l.12.16.09.11s0,.06.06.08v0a.87.87,0,0,1,.17.27.57.57,0,0,1,.08.28A1,1,0,0,1,296.88,285.26Z" transform="translate(-64.08 -73.38)"/><path class="cls-3" d="M411.27,122a45,45,0,0,1-6.94,28.59c-3.92,6.07-9.29,11.14-12.89,17.41-3.1,5.41-4.78,11.52-7.54,17.11-6.18,12.53-17.35,21.74-28.2,30.55l-27.06,22" transform="translate(-64.08 -73.38)"/><path class="cls-3" d="M461.07,169.63c-12.82,6.29-21.48,18.8-27.52,31.74s-10,26.8-16.69,39.42c-2.71,5.14-6,10.23-11,13.21-9.44,5.63-21.41,2.13-32.4,2.62A43.44,43.44,0,0,0,351.2,264" transform="translate(-64.08 -73.38)"/><path class="cls-3" d="M439.88,145.35c-1,5.83-4.63,10.8-8.2,15.5-3.84,5-7.89,10.22-13.51,13.15-9.66,5-21.58,2.34-32,5.46" transform="translate(-64.08 -73.38)"/><path class="cls-3" d="M405.28,116.87c-15,11.55-30.85,24.23-36.35,42.09-5,16.18-.54,34-5.42,50.25" transform="translate(-64.08 -73.38)"/><path class="cls-3" d="M471.54,185.48A61.59,61.59,0,0,0,436,216.7c-3.6,7.37-5.73,15.46-9.8,22.57S415.4,252.7,407.31,253" transform="translate(-64.08 -73.38)"/><path class="cls-3" d="M494.14,226.58a227.38,227.38,0,0,0-43.58,28.21c-4.81,4-9.58,8.19-15.37,10.5-19.64,7.85-42.55-8.86-62.48-1.78-7.73,2.75-13.79,8.74-19.59,14.55" transform="translate(-64.08 -73.38)"/><path class="cls-3" d="M478.87,200.31a59.44,59.44,0,0,1-21.44,16.8c-8.67,4-18.28,5.88-26.53,10.69" transform="translate(-64.08 -73.38)"/><path class="cls-3" d="M486,214.62c-2.25,3.8-5.59,6.81-8.88,9.76a41.11,41.11,0,0,1-7.4,5.7c-6.83,3.79-15.06,3.46-22.86,3.71s-16.34,1.55-21.48,7.41" transform="translate(-64.08 -73.38)"/><path class="cls-3" d="M498.6,234c-6.25,3.88-13.93,4.47-21.27,5l-5.85.39" transform="translate(-64.08 -73.38)"/><path class="cls-3" d="M504,244.32c-14.8,6-31.67,2.14-47.46,4.53" transform="translate(-64.08 -73.38)"/><path class="cls-3" d="M504.49,251.35a118.13,118.13,0,0,1-61.62,8.89" transform="translate(-64.08 -73.38)"/><path class="cls-3" d="M508.89,278c-10-1.14-19.82,2.78-29.75,4.49a68.33,68.33,0,0,1-28.95-1.28c-11.92-3.15-23.07-9.55-35.36-10.42-6.75-.48-13.49.74-20.14,1.95A112.5,112.5,0,0,0,377,277c-8.2,3-15.58,7.77-22.87,12.54" transform="translate(-64.08 -73.38)"/><path class="cls-3" d="M504.54,259.26c-8.05.68-16.23,1.36-24.13-.33" transform="translate(-64.08 -73.38)"/><path class="cls-3" d="M507.14,264.75a90.31,90.31,0,0,1-28.12,6.8,20.51,20.51,0,0,1-6.11-.22c-6.74-1.53-11.11-8.76-17.9-10.13" transform="translate(-64.08 -73.38)"/><path class="cls-3" d="M337,245.11c-.05-1.53,1-2.85,2-4a142.69,142.69,0,0,1,20.13-18.79c3-2.28,6-4.45,8.82-7,12.21-11.12,18-28.53,31.76-37.68" transform="translate(-64.08 -73.38)"/><path class="cls-3" d="M407,118a252.55,252.55,0,0,0-23.77,25.42,59.34,59.34,0,0,0-6.33,9c-4.05,7.46-5.09,16.12-5.26,24.56s.47,16.92-.54,25.31" transform="translate(-64.08 -73.38)"/><path class="cls-3" d="M507.85,304.1C498,302.29,488,300.47,478,301.64c-8.82,1-17.21,4.38-25.15,8.34a55.4,55.4,0,0,1-10.06,4.33c-4.58,1.24-9.42,1.05-14.11,1.76-8.79,1.32-16.89,5.73-25.68,7.06-9.38,1.42-19.08-.8-27.58-5s-15.91-10.37-22.66-17" transform="translate(-64.08 -73.38)"/><path class="cls-3" d="M503.29,322.88l-40.5-3.61a73.65,73.65,0,0,0-9.85-.43,37.09,37.09,0,0,0-20.05,7" transform="translate(-64.08 -73.38)"/><path class="cls-3" d="M504.48,317.09c-6.69-3.49-13.44-7-20.74-9.23s-15.26-3.11-22.67-1.23" transform="translate(-64.08 -73.38)"/><path class="cls-3" d="M504.22,309.63A143.87,143.87,0,0,0,486,303a27.05,27.05,0,0,0-7.52-1.37" transform="translate(-64.08 -73.38)"/><path class="cls-3" d="M500.07,330.16c-11.21,1.47-22.56,2.94-33.78,1.58s-22.36-5.65-33.81-5.73A93.79,93.79,0,0,0,419,327.23c-7.25,1-14.51,2-21.67,3.51A41.94,41.94,0,0,1,389.1,332c-4.94,0-9.7-1.93-14-4.39-9-5.13-16.41-12.5-23.74-19.79" transform="translate(-64.08 -73.38)"/><path class="cls-3" d="M499.44,342.21c-11.66,1.46-23.62,2.9-35.08.24-10.18-2.37-19.49-7.9-29.8-9.68a42.42,42.42,0,0,0-23.23,2.56c-2.57,1.05-5,2.37-7.68,3.26a25.88,25.88,0,0,1-19.81-1.46" transform="translate(-64.08 -73.38)"/><path class="cls-3" d="M345.81,320.12a131.84,131.84,0,0,1,65.94,43.58,61.79,61.79,0,0,1,8,12.15c3.27,6.89,5,15.26,11.41,19.42,2.41,1.57,5.25,2.34,7.95,3.34,10.85,4,19.78,11.83,28.44,19.49" transform="translate(-64.08 -73.38)"/><path class="cls-3" d="M486.7,375.48c-6.35,2-13.29.17-19.37-2.54s-11.81-6.33-18.21-8.16c-4.43-1.26-9.06-1.63-13.61-2.35a65.38,65.38,0,0,1-21.82-7.16,42.11,42.11,0,0,1-16.36-15.88" transform="translate(-64.08 -73.38)"/><path class="cls-3" d="M493.22,358.63c-4.5-2.25-9.84,0-14.88.2a25.52,25.52,0,0,1-8.56-1.28c-11-3.37-20-11.06-28.67-18.55l-7.49-6.47" transform="translate(-64.08 -73.38)"/><path class="cls-3" d="M496.22,349.26a37.16,37.16,0,0,1-11.59-5.78" transform="translate(-64.08 -73.38)"/><path class="cls-3" d="M478.08,385A84.48,84.48,0,0,1,458,368.37" transform="translate(-64.08 -73.38)"/><path class="cls-3" d="M476,397.07c-1.82-.07-2.9-1.94-3.94-3.42-3.69-5.22-10.5-7.4-16.95-7.91s-13,.32-19.38-.49-13.1-3.71-16-9.4" transform="translate(-64.08 -73.38)"/><path class="cls-3" d="M470.68,405.42a82.83,82.83,0,0,0-9-3.83,42,42,0,0,0-19.78-1.65" transform="translate(-64.08 -73.38)"/><path class="cls-3" d="M478.26,391.07a23.46,23.46,0,0,1-5.39-1.89,47.18,47.18,0,0,0-4.94-2.44c-3-1.05-6.35-.85-9.56-.63" transform="translate(-64.08 -73.38)"/><path class="cls-3" d="M344.06,343.28c8.73,3.12,15.42,10.18,21.36,17.31s11.66,14.74,19.52,19.68c5.33,3.35,11.4,5.31,17.23,7.71a76.65,76.65,0,0,1,17.59,9.73c7.4,5.64,13.29,13,19.75,19.69s13.87,13,22.81,15.55" transform="translate(-64.08 -73.38)"/><path class="cls-3" d="M340.85,349.58c15.89,10,30.39,23.24,38.19,40.32" transform="translate(-64.08 -73.38)"/><path class="cls-3" d="M430.9,408.63c5.44,4.2,12.79,4.53,19.4,6.39a41.17,41.17,0,0,1,13.57,6.73" transform="translate(-64.08 -73.38)"/><path class="cls-3" d="M336.5,351.23c14.37,15.17,33.27,25.59,47.05,41.31,5.2,5.94,9.64,12.6,15.54,17.86,8,7.15,18.22,11.25,28,15.7s19.69,9.65,26.19,18.21" transform="translate(-64.08 -73.38)"/><path class="cls-3" d="M328.9,360.32a93.23,93.23,0,0,1,22.2,27.95c3.5,6.76,6.18,14,10.17,20.43a59.19,59.19,0,0,0,40,27c2.7.45,5.44.72,8.15,1.13,14.3,2.15,27.73,8.28,40.19,15.63" transform="translate(-64.08 -73.38)"/><path class="cls-3" d="M325.56,363.78a56.55,56.55,0,0,1,11.87,11.35c12.82,16.49,16.13,39.61,31.5,53.75,9.28,8.54,21.78,12.61,32.22,19.71a130.13,130.13,0,0,1,14.7,12.26l9.87,9.08" transform="translate(-64.08 -73.38)"/><path class="cls-3" d="M420.35,439.85c8.7,5.63,17.66,11.5,23.37,20.14" transform="translate(-64.08 -73.38)"/><path class="cls-3" d="M319.62,366.23c10.81,7.59,18.82,18.53,25.48,29.93s12.19,23.47,19.22,34.65c2.86,4.55,6,9,10.12,12.5,3.37,2.87,7.29,5,11,7.44a83.82,83.82,0,0,1,28.13,30.88" transform="translate(-64.08 -73.38)"/><path class="cls-3" d="M313.5,368.82a63.53,63.53,0,0,1,16.67,16.51,115.84,115.84,0,0,1,6.47,11c3.22,6,6.37,12,8.26,18.54,5.08,17.45.83,37.08,8.41,53.59,5.61,12.23,17.15,21.32,21.19,34.15" transform="translate(-64.08 -73.38)"/><path class="cls-3" d="M392.88,456.46c2.76,2.94,5.6,6,7,9.79a29.86,29.86,0,0,1,1.35,7.58l1.36,14.92" transform="translate(-64.08 -73.38)"/><path class="cls-3" d="M352.29,467.48c6.37,10.8,18.8,16.14,28.77,23.76,2.46,1.88,4.88,4.05,6,6.95" transform="translate(-64.08 -73.38)"/><path class="cls-3" d="M348.09,448.05c1.3,3.46.42,7.38-1.11,10.75s-3.7,6.42-5.12,9.84c-2.07,5-2.46,10.47-2.57,15.86a166.07,166.07,0,0,0,1.82,28" transform="translate(-64.08 -73.38)"/><path class="cls-3" d="M361.19,480.47c-.13,4,1.08,7.84,1.5,11.78a29.7,29.7,0,0,1-3.07,16.55" transform="translate(-64.08 -73.38)"/><path class="cls-3" d="M339.42,489c-1.92,3.15-3.87,6.37-4.75,9.95-1.13,4.65-.37,9.52-.7,14.29l.8-.94" transform="translate(-64.08 -73.38)"/><path class="cls-3" d="M374.35,486.34A41.58,41.58,0,0,1,392,493.65" transform="translate(-64.08 -73.38)"/><path class="cls-3" d="M296.82,373.38c1.73,16.31,5.47,32.88,1.95,48.9-1.39,6.35-3.9,12.44-5,18.84s-.57,13.53,3.5,18.6" transform="translate(-64.08 -73.38)"/><path class="cls-3" d="M287.37,375.36c4.38,22.12,4,44.88,3.35,67.41-.15,4.89-.19,10.18,2.66,14.14,2.49,3.47,6.69,5.2,9.95,7.95,6.25,5.25,8.63,13.84,9.1,22s0,15.9-5.71,22.4" transform="translate(-64.08 -73.38)"/><path class="cls-3" d="M290.09,399.6q-1.75,14.77-3,29.61a177.7,177.7,0,0,0-.76,23c.34,7.09,1.44,14.22.39,21.24-.77,5.1-2.66,10-3.3,15.1a31.76,31.76,0,0,0,3.27,18.4" transform="translate(-64.08 -73.38)"/><path class="cls-3" d="M271.45,374.63a217,217,0,0,1,3.05,35c.05,8.72-.65,18.08-6.06,24.92-4,5.08-10,8-15.54,11.44s-11,7.94-12.43,14.24c-.78,3.34-.34,6.85-.69,10.26a38.78,38.78,0,0,1-2.48,9.38,135.32,135.32,0,0,1-6.77,15.29" transform="translate(-64.08 -73.38)"/><path class="cls-3" d="M278.13,376.06c1.8,11.17,7.81,22,6,33.16-1.94,12.15-12.43,20.87-18.4,31.64a45.81,45.81,0,0,0-4.2,33.48" transform="translate(-64.08 -73.38)"/><path class="cls-3" d="M257.31,443.56c-1.43,4.66-1.3,9.56-1.41,14.38s-.72,8.93,2.26,13c1.54,2.1,3.45,3.94,4.78,6.18,2.65,4.43,2.75,9.89,2.65,15.05q-.12,6.9-.51,13.78" transform="translate(-64.08 -73.38)"/><path class="cls-3" d="M256.42,468.79c1.15,5.41-1.32,10.89-4.06,15.7s-5.9,9.68-6.26,15.2" transform="translate(-64.08 -73.38)"/><path class="cls-3" d="M258.57,374.83c-11.77,10.51-19,25.13-24.86,39.78a59.34,59.34,0,0,0-3.24,9.84c-1.53,7.33-.5,14.91,0,22.38.28,4.2.37,8.51-.83,12.55-3.5,11.79-17,18.79-19.56,30.82" transform="translate(-64.08 -73.38)"/><path class="cls-3" d="M248,371.23q-2.87,8.46-6.08,16.8c-3,7.74-6.2,15.47-11,22.26S219.8,423,212,425.73c-5.6,2-9.39,7.51-10.75,13.29s-.65,11.85.38,17.7,2.39,11.71,2.32,17.65c-.07,5.14-1.2,10.19-2.33,15.2-.09.36-.31-.35,0-.52" transform="translate(-64.08 -73.38)"/><path class="cls-3" d="M239.18,368.53c-2.28,11.34-6.43,22.22-11.25,32.74-3.07,6.71-6.55,13.47-12.11,18.32-10.91,9.5-28.1,10.2-37.38,21.29-4.4,5.25-6.36,12.28-6.18,19.12a46.17,46.17,0,0,0,5.48,19.62" transform="translate(-64.08 -73.38)"/><path class="cls-3" d="M221.35,472.7v19.43" transform="translate(-64.08 -73.38)"/><path class="cls-3" d="M194.11,430.12c-6.36,6.43-8.41,16-8.91,25s.24,18.22-1.79,27" transform="translate(-64.08 -73.38)"/><path class="cls-3" d="M200.78,447c-.93,6.55-4.46,12.42-6.43,18.73A40.51,40.51,0,0,0,193,483.87" transform="translate(-64.08 -73.38)"/><path class="cls-3" d="M172.11,455.49c-1.71,3.25-4.4,5.87-7.05,8.42a35.55,35.55,0,0,1-4.1,3.57" transform="translate(-64.08 -73.38)"/><path class="cls-3" d="M219.24,358a60,60,0,0,0-23.8,24.24c-2,3.78-3.59,7.77-5.65,11.53a107.18,107.18,0,0,1-10,14.35l-6.28,8" transform="translate(-64.08 -73.38)"/><path class="cls-3" d="M212.84,349.73c-9.19,6.41-16.55,15.22-22.14,24.93-6.4,11.1-10.92,23.86-20.81,32-11.32,9.31-27.24,10.58-40,17.85-3.61,2.07-7.18,5-8.11,9" transform="translate(-64.08 -73.38)"/><path class="cls-3" d="M208.89,347.38c-9.31,7.51-19.34,14.68-30.94,17.58-5.52,1.38-11.24,1.76-16.84,2.78a90.63,90.63,0,0,0-18.19,5.51c-4.22,1.75-8.41,3.8-11.71,6.95-4.15,4-6.59,9.35-10,14-4.55,6.22-10.77,11-16.9,15.66" transform="translate(-64.08 -73.38)"/><path class="cls-3" d="M177.92,397.43c-5.16,7.18-4.06,16.87-4.73,25.69a59.42,59.42,0,0,1-2.37,12.62c-1.45,4.76-3.62,9.5-7.42,12.71-2.73,2.31-6.12,3.68-9.24,5.42S148,458,146.72,461.3" transform="translate(-64.08 -73.38)"/><path class="cls-3" d="M158.79,413.1a33.26,33.26,0,0,0-14.64,14.55,53.65,53.65,0,0,0-5.64,20.07" transform="translate(-64.08 -73.38)"/><path class="cls-3" d="M154.66,453.93a19.4,19.4,0,0,0-2.08,10" transform="translate(-64.08 -73.38)"/><path class="cls-3" d="M144.55,372.32a63.58,63.58,0,0,0-18.18,22.83c-1.85,4-3.32,8.12-5.7,11.78A27.34,27.34,0,0,1,108.77,417" transform="translate(-64.08 -73.38)"/><path class="cls-3" d="M207.83,344.13l-13.41,8.21a55.49,55.49,0,0,1-8.07,4.34c-6.71,2.7-14.15,2.67-21.38,2.55-13.5-.24-27-.67-40.45-1.65-4.1-.3-8.28-.64-12.28.33-9.42,2.28-15.76,11.23-24.66,15.11" transform="translate(-64.08 -73.38)"/><path class="cls-3" d="M130,380.31a67.31,67.31,0,0,1-16.37,9.39A37.38,37.38,0,0,1,95.06,392" transform="translate(-64.08 -73.38)"/><path class="cls-3" d="M124.89,388.58a35.37,35.37,0,0,1-23.52,13.66" transform="translate(-64.08 -73.38)"/><path class="cls-3" d="M114.67,423.67c2.57,1.56,5.8,1.43,8.75.88s5.87-1.48,8.87-1.34" transform="translate(-64.08 -73.38)"/><path class="cls-3" d="M94.91,386.13a50,50,0,0,0,7.89,6" transform="translate(-64.08 -73.38)"/><path class="cls-3" d="M140.45,436.71a30.77,30.77,0,0,0-8.56,6.28" transform="translate(-64.08 -73.38)"/><path class="cls-3" d="M82.58,353.24a19.21,19.21,0,0,0,12.59,3,40.23,40.23,0,0,0,12.65-3.59,89.91,89.91,0,0,0,11.27-5.87c16-9.85,29-24.76,46.7-31.2,10.86-3.95,22.65-4.37,34.2-4.74" transform="translate(-64.08 -73.38)"/><path class="cls-3" d="M198.87,299.68a181.71,181.71,0,0,0-43.07,12.55,89.91,89.91,0,0,0-16.51,8.89c-6.11,4.32-11.36,9.74-17.32,14.28a74.38,74.38,0,0,1-28,13.22c-4.08.95-8.46,1.54-12.36,0" transform="translate(-64.08 -73.38)"/><path class="cls-3" d="M81.3,338c-.25-.68.35-1.36.92-1.8,5.24-4.07,12.37-4.85,19-4s12.9,3,19.4,4.31" transform="translate(-64.08 -73.38)"/><path class="cls-3" d="M200.05,293c-12.33,5.48-25.45,10.72-38.89,9.49-11.13-1-21.36-6.4-30.8-12.38-3.66-2.31-7.73-4.85-12-4.09-2.72.48-5,2.25-7.19,4l-8.88,7c-4,3.19-8.28,6.47-13.31,7.65s-11.08-.38-13.51-4.93" transform="translate(-64.08 -73.38)"/><path class="cls-3" d="M74.5,288.72c4.07,3.81,9.58,5.82,15.13,6.49a63,63,0,0,0,16.67-.72" transform="translate(-64.08 -73.38)"/><path class="cls-3" d="M162.69,309.42c-7.55,3-15.81,3.72-23.93,3.63s-16.2-1-24.32-1.21a34.16,34.16,0,0,0-7.43.42c-6,1.16-11,5-15.54,9.05s-8.78,8.54-14.11,11.45" transform="translate(-64.08 -73.38)"/><path class="cls-3" d="M75.9,310.41a21.27,21.27,0,0,0,11.55,3c4,0,8-.6,12-.95a9.8,9.8,0,0,1,4.79.41" transform="translate(-64.08 -73.38)"/><path class="cls-3" d="M77.58,255a45.37,45.37,0,0,0,15.25,12.4,25.9,25.9,0,0,0,8.26,2.72c5.28.67,10.59-1,15.36-3.38s9.18-5.4,14-7.72c8.18-4,17.26-5.74,26.32-6.63a61.61,61.61,0,0,1,15,0,77.7,77.7,0,0,1,12.49,3.23c9.57,3,19.29,6.15,27.69,11.66" transform="translate(-64.08 -73.38)"/><path class="cls-3" d="M210.29,262.36a138.52,138.52,0,0,0-79.2-16c-10.87,1.08-22.22,3.41-32.47-.4a28.89,28.89,0,0,1-15.55-13.87" transform="translate(-64.08 -73.38)"/><path class="cls-3" d="M86.28,221.63c14.09,5,23.14,19.4,37.09,24.79" transform="translate(-64.08 -73.38)"/><path class="cls-3" d="M120,156c.55,3.27,3.32,5.67,4.78,8.65s1.58,6.46,1.64,9.8" transform="translate(-64.08 -73.38)"/><path class="cls-3" d="M106.25,170.57a154.86,154.86,0,0,0,31.47,22" transform="translate(-64.08 -73.38)"/><path class="cls-3" d="M100.16,182.32a117.07,117.07,0,0,0,30.24,21.59,72.64,72.64,0,0,1,9.21,4.83,16.39,16.39,0,0,1,6.55,7.85" transform="translate(-64.08 -73.38)"/><path class="cls-3" d="M95.85,194.62c5.31,8.15,15.21,11.91,24.64,14.29s19.42,4.05,27.3,9.75c7.42,5.37,12.22,13.85,19.83,19A57.75,57.75,0,0,0,178.89,243l35.87,14.05" transform="translate(-64.08 -73.38)"/><path class="cls-3" d="M115.44,161.4a33.54,33.54,0,0,0,6.81,9.18c1.76,1.68,3.71,3.17,5.29,5a35,35,0,0,1,4.62,7.86c4.58,9.64,9.19,19.37,11.59,29.76" transform="translate(-64.08 -73.38)"/><path class="cls-3" d="M91.84,204.24a24.23,24.23,0,0,0,15.82.25" transform="translate(-64.08 -73.38)"/><path class="cls-3" d="M102.43,177.67c5.81,4.33,13.42,5.19,20.63,5.9" transform="translate(-64.08 -73.38)"/><path class="cls-3" d="M433,136.44c-2.43,4.63-6.5,8.19-10.87,11.06a14.54,14.54,0,0,1-3.68,1.88,15.9,15.9,0,0,1-4.46.49l-9,.16" transform="translate(-64.08 -73.38)"/><path class="cls-3" d="M372.41,99.88c-1.4,9.32-7.32,17.26-13.29,24.54a55.8,55.8,0,0,0-6.06,8.3,52.68,52.68,0,0,0-3.88,10.07l-4.24,13.71c-1.62,5.25-3.29,10.6-6.45,15.11s-7.68,7.95-11.21,12.21a47,47,0,0,0-8.2,15.69,69.89,69.89,0,0,0-2.77,30.7" transform="translate(-64.08 -73.38)"/><path class="cls-3" d="M340.79,90.88a43.51,43.51,0,0,1-2.13,18,26,26,0,0,1-11.3,13.87" transform="translate(-64.08 -73.38)"/><path class="cls-3" d="M385.7,105.69l-5.42,11.1c-1.82,3.74-3.71,7.56-6.71,10.45-4.51,4.35-10.91,6-16.22,9.34a29.72,29.72,0,0,0-10.5,11.28" transform="translate(-64.08 -73.38)"/><path class="cls-3" d="M359.16,94.35c-1.38,9.81-7,18.46-10.2,27.84a58,58,0,0,0-2.11,29.11" transform="translate(-64.08 -73.38)"/><path class="cls-3" d="M326.64,87.29l-1.72,24.57a18.42,18.42,0,0,0,.3,6.46c.52,1.83,1.6,3.46,2.15,5.28,1.41,4.6-.66,9.46-1.18,14.25-.29,2.6-.1,5.24-.26,7.85-.41,6.92-3.19,13.44-5.92,19.81l-5.1,11.87a29.68,29.68,0,0,0-2.08,6,34.7,34.7,0,0,0-.4,5.86,111.86,111.86,0,0,1-5.54,32.55" transform="translate(-64.08 -73.38)"/><path class="cls-3" d="M336,90.46a55.14,55.14,0,0,1-3.51,29.07" transform="translate(-64.08 -73.38)"/><path class="cls-3" d="M323.26,158.23c-4,8.65-12.48,14.84-15.6,23.86-2.47,7.15-1.21,15-1.61,22.52A50.51,50.51,0,0,1,301.92,222" transform="translate(-64.08 -73.38)"/><path class="cls-3" d="M297.71,82.22c2.46,12,1.16,24.46-2.36,36.14s-9.23,22.6-15.6,33c-2.15,3.51-4.41,7-5.72,10.92-1.41,4.16-1.7,8.61-2,13a71.54,71.54,0,0,0-.08,11.8c1.21,11.4,7.93,21.8,8.34,33.26" transform="translate(-64.08 -73.38)"/><path class="cls-3" d="M197.12,94.06c-.68,16.45,9,32,22,42.16,5.09,4,10.7,7.28,15.68,11.4,15.34,12.7,23.45,31.92,30.59,50.51,3.3,8.6,6.57,17.65,5.4,26.78" transform="translate(-64.08 -73.38)"/><path class="cls-3" d="M316.39,85.11c1.3,7.6-1.19,15.3-3.91,22.52-3.48,9.23-7.64,18.65-15.22,25a63.08,63.08,0,0,1-10.67,6.68" transform="translate(-64.08 -73.38)"/><path class="cls-3" d="M267.51,81.92l1,19.81a88.75,88.75,0,0,0,1.4,13.72c1.35,6.52,4.15,12.68,5.41,19.22,2.28,11.8-.59,23.91-3.44,35.58" transform="translate(-64.08 -73.38)"/><path class="cls-3" d="M253.24,82.81a36.52,36.52,0,0,0,4.93,30c1.37,2,2.94,3.86,4.15,6,3.36,5.79,3.74,12.79,3.55,19.47-.38,13.54-2.75,27-3.53,40.48a17.22,17.22,0,0,0,.36,5.82,18.14,18.14,0,0,0,2.9,5.25l12,17" transform="translate(-64.08 -73.38)"/><path class="cls-3" d="M202.06,93.05c-1.24,4.92,0,10.13,1.81,14.86a60.92,60.92,0,0,0,15.68,23c5.41,5,12.1,9.49,13.95,16.6" transform="translate(-64.08 -73.38)"/><path class="cls-3" d="M248.79,232c-10-9.81-19.82-20-26.44-32.36-4.42-8.22-7.28-17.17-10.12-26.07l-5-15.64a78.33,78.33,0,0,0-5.25-13.5c-3-5.51-7.21-10.21-10.8-15.32a76.42,76.42,0,0,1-12.08-27.53" transform="translate(-64.08 -73.38)"/><path class="cls-3" d="M187.87,98.32c1.2,14.05,11.75,26.4,11.25,40.49" transform="translate(-64.08 -73.38)"/><path class="cls-3" d="M161.47,115.25c4,11.88,15.92,19.3,21.83,30.35,4.6,8.62,5.3,19,10.47,27.29,2.6,4.16,6.19,7.57,9.62,11.08a197.24,197.24,0,0,1,37.08,53.15" transform="translate(-64.08 -73.38)"/><path class="cls-3" d="M151.44,121.28a16.32,16.32,0,0,0,3.79,11.49,35.59,35.59,0,0,0,9.5,7.87,89.32,89.32,0,0,0,21.17,9.51" transform="translate(-64.08 -73.38)"/><path class="cls-3" d="M143.89,130.47a26.71,26.71,0,0,1,4.74,7.13l3.44,6.61a31.9,31.9,0,0,1,2.34,5.28,31.85,31.85,0,0,1,.94,9.3V164" transform="translate(-64.08 -73.38)"/><path class="cls-3" d="M129.94,140.09a146.75,146.75,0,0,1,18.86,13.73,26.5,26.5,0,0,1,4.76,4.94,38.81,38.81,0,0,1,3.17,6.51,45.47,45.47,0,0,0,14.83,19c11.91,8.49,28.13,9.61,39.33,19a65.3,65.3,0,0,1,9.11,10.1l6.36,8.12c5,6.43,10.19,13.18,11.83,21.18" transform="translate(-64.08 -73.38)"/><path class="cls-3" d="M125.69,146.06c.29,2.11,1.71,3.88,3.07,5.52,7.1,8.58,14.4,17.33,24,23,3.78,2.27,7.92,4.06,11.15,7.06,2.71,2.52,4.64,5.78,7.15,8.5,6,6.58,14.92,9.58,22.91,13.59a82.23,82.23,0,0,1,17.5,11.72,40.58,40.58,0,0,1,8.49,9.77,56,56,0,0,1,3.21,6.89l6.05,14.72" transform="translate(-64.08 -73.38)"/><path class="cls-3" d="M197.21,177.74a48,48,0,0,1,10.81,15c.72,1.57,1.36,3.19,2,4.8l3.26,8.28" transform="translate(-64.08 -73.38)"/><path class="cls-3" d="M88.66,214.18c-.21,1.09.82,2,1.75,2.61a43,43,0,0,0,20.16,6.76c8.35.61,17-1.22,25,1,4.19,1.18,8,3.41,11.77,5.62l14,8.23c4.44,2.62,9.06,5.39,11.78,9.78" transform="translate(-64.08 -73.38)"/><path class="cls-4" d="M209.45,328.92s-4.86-20.4-3.4-37.89,8.25-28.17,21.37-37.4,20.89-20.4,37.89-23.8c6.36-1.27,12.85-4.53,19.23-4.81,6.86-.31,14.8.14,21.14,3.07,4.89,2.25,9.36,6.45,13.53,9.83,8.67,7,18.85,15.16,23.82,25.43,7.28,15,12.62,16,3.4,43.23s-1,34-14.09,42.74-18.46,24.29-62.66,19.43S218.19,351.27,209.45,328.92Z" transform="translate(-64.08 -73.38)"/><path class="cls-5" d="M161.85,109.63s25.9-22,70.59-27.85a334.35,334.35,0,0,1,87.92,0c11.17,1.3,77.23,16.84,93.42,33s42.75,32.39,58.94,63.47,34.33,58.29,38.86,84.85S510.28,335.66,487,382.3s-29.79,68-60.88,92-55.7,42.1-97.8,41.45-125-22-154.14-35-68.65-55.05-81.6-86.14S62.76,307.17,72.47,255.36,102.26,158.21,161.85,109.63Z" transform="translate(-64.08 -73.38)"/></svg>