<svg id="Layer_1" data-name="Layer 1" xmlns="http://www.w3.org/2000/svg" viewBox="0 0 361.96 355.49"><defs><style>.cls-1{fill:#80b2ae;}.cls-2,.cls-3,.cls-4{fill:none;stroke-miterlimit:10;}.cls-2{stroke:#4f9286;stroke-width:9px;}.cls-3{stroke:#de675e;stroke-width:11px;}.cls-4{stroke:#fff;stroke-width:1.5px;}</style></defs><title>object2</title><path class="cls-1" d="M221,180.7a201.29,201.29,0,0,0-39.37,47.46c-17.8,29.67-27.51,54.47-34.52,64.72S125,335,123.4,347.35s-7.55,58.79,67.42,119.73c0,0,34,32.9,85.21,23.73s40.45-16.18,67.41-22.11,63.11-10.25,90.61-52.85,30.2-62.56,29.66-76.59.54-60.4-36.13-94.38-46.38-42.07-70.11-60.4-32.36-24.27-53.94-25.35S252.3,159.67,221,180.7Z" transform="translate(-101.81 -136.94)"/><path class="cls-2" d="M204.74,163.26a201.19,201.19,0,0,0-39.38,47.46c-17.79,29.66-27.5,54.47-34.51,64.72s-22.11,42.06-23.73,54.47-7.55,58.79,67.41,119.73c0,0,34,32.9,85.22,23.73s40.45-16.18,67.41-22.11,63.1-10.25,90.61-52.86,30.2-62.56,29.66-76.58.54-60.41-36.13-94.38S364.92,185.37,341.18,167s-32.35-24.27-53.93-25.35S236,142.22,204.74,163.26Z" transform="translate(-101.81 -136.94)"/><path class="cls-3" d="M290,301.64s-.27,18.88-10.52,21.84-14.29-.05-14.83-6-.27-15.07,5.13-19.92,7.55-6.74,12.67-5.4S290.05,300.26,290,301.64Z" transform="translate(-101.81 -136.94)"/><path class="cls-4" d="M211.81,178.87a182.69,182.69,0,0,0-35.69,43c-16.13,26.88-24.92,49.37-31.28,58.65s-20,38.13-21.51,49.37-6.84,53.28,61.1,108.52c0,0,30.8,29.81,77.23,21.5s36.66-14.66,61.1-20S380,430.6,404.88,392s27.37-56.7,26.89-69.41S432.25,267.84,399,237s-42-38.12-63.55-54.74-29.33-22-48.88-23S240.16,159.81,211.81,178.87Z" transform="translate(-101.81 -136.94)"/><polyline class="cls-4" points="306.39 248.91 218.93 213.19 300.71 257.97"/><line class="cls-4" x1="224.92" y1="207.97" x2="312.32" y2="239.92"/><line class="cls-4" x1="228.17" y1="206.1" x2="315.3" y2="234.56"/><polyline class="cls-4" points="317.8 225.97 233.03 199.97 322.69 218.63"/><line class="cls-4" x1="236.26" y1="194.85" x2="327.44" y2="206.1"/><line class="cls-4" x1="239.5" y1="190.98" x2="329.49" y2="196.23"/><line class="cls-4" x1="242.74" y1="185.72" x2="329.88" y2="183.13"/><path class="cls-4" d="M343.86,316.59s56.58-14.16,85.39-12.95" transform="translate(-101.81 -136.94)"/><path class="cls-4" d="M348.19,310.08s65-17.36,81.06-14.53" transform="translate(-101.81 -136.94)"/><path class="cls-4" d="M348.19,303.57s65.33-26.16,77.56-23.76" transform="translate(-101.81 -136.94)"/><path class="cls-4" d="M348.19,297.17s64.78-32.36,72.43-30.54" transform="translate(-101.81 -136.94)"/><path class="cls-4" d="M347,290.53s62.19-34.65,67.13-33.81" transform="translate(-101.81 -136.94)"/><line class="cls-4" x1="239.5" y1="144.93" x2="307.88" y2="111.77"/><polyline class="cls-4" points="300.29 103.09 236.26 141.22 291.96 95.25"/><line class="cls-4" x1="230.6" y1="134.35" x2="282.59" y2="86.64"/><line class="cls-4" x1="228.17" y1="129.62" x2="273.69" y2="78.56"/><line class="cls-4" x1="222.11" y1="124.23" x2="268.28" y2="73.73"/><path class="cls-4" d="M321.9,259.15s25.28-52,30.84-63.24" transform="translate(-101.81 -136.94)"/><path class="cls-4" d="M313.41,255.17s24.66-63.13,24.66-70.86" transform="translate(-101.81 -136.94)"/><path class="cls-4" d="M309.42,250.89s6.76-20.85,14.5-77.33" transform="translate(-101.81 -136.94)"/><path class="cls-4" d="M313.41,166.62c0,10.61-9.31,78.77-9.31,78.77s-6.29-68.83-2.94-84" transform="translate(-101.81 -136.94)"/><path class="cls-4" d="M297.22,245.39s-4-32.76-6.47-47.32-4.16-38.75-4.16-38.75" transform="translate(-101.81 -136.94)"/><path class="cls-4" d="M291.91,243.78s-11.27-39.52-11.68-47.87-3-36.81-3-36.81" transform="translate(-101.81 -136.94)"/><path class="cls-4" d="M288.32,243.78s-16.18-40.05-19.82-51.37S258,160.6,258,160.6" transform="translate(-101.81 -136.94)"/><path class="cls-4" d="M245.18,163.36s12.8,30.41,16.45,38.83,19,41.59,19,41.59" transform="translate(-101.81 -136.94)"/><polyline class="cls-4" points="171.32 106.84 147.28 62.75 131.46 30.48"/><path class="cls-4" d="M207.9,182.37s37.3,38.24,45.3,45.16,15.71,17.86,15.71,17.86-22.25-31.38-28.72-42-19.71-29.85-19.71-29.85" transform="translate(-101.81 -136.94)"/><line class="cls-4" x1="94.23" y1="57.75" x2="161.1" y2="110.5"/><line class="cls-4" x1="151.39" y1="118.24" x2="84.27" y2="70.1"/><line class="cls-4" x1="147.28" y1="122.21" x2="75.9" y2="82.37"/><line class="cls-4" x1="143.37" y1="125.85" x2="68.35" y2="95.25"/><line class="cls-4" x1="139.19" y1="134.35" x2="59.57" y2="111.77"/><line class="cls-4" x1="131.46" y1="141.22" x2="50.08" y2="130.85"/><path class="cls-4" d="M227.24,285.84c-1.21-.4-82.4-5.3-82.4-5.3" transform="translate(-101.81 -136.94)"/><line class="cls-4" x1="121.79" y1="158.3" x2="36.67" y2="154.67"/><line class="cls-4" x1="121.79" y1="166.63" x2="32.72" y2="162.64"/><line class="cls-4" x1="119.77" y1="173.14" x2="28.01" y2="173.14"/><line class="cls-4" x1="117.83" y1="177.63" x2="24.15" y2="183.13"/><line class="cls-4" x1="117.83" y1="188.55" x2="21.14" y2="196.23"/><line class="cls-4" x1="119.77" y1="192.39" x2="21.14" y2="210.01"/><line class="cls-4" x1="117.83" y1="206.1" x2="24.15" y2="225.07"/><path class="cls-4" d="M219.64,344.9s-65,21.44-74.8,23.06a105.58,105.58,0,0,0-15.47,3.54" transform="translate(-101.81 -136.94)"/><line class="cls-4" x1="117.83" y1="215.58" x2="38.29" y2="254.47"/><line class="cls-4" x1="119.77" y1="221.26" x2="45.56" y2="264.56"/><path class="cls-4" d="M159.67,415.71S186,395.46,192.58,391.4s34.66-24.66,34.66-24.66-35.81,29.47-41.16,34.76-20,20.72-20,20.72" transform="translate(-101.81 -136.94)"/><path class="cls-4" d="M229.47,371.5s-28.28,28-36.89,39.74A97.12,97.12,0,0,1,174.5,430" transform="translate(-101.81 -136.94)"/><path class="cls-4" d="M234.52,374.75s-31.55,37.83-36.4,47.47S187.47,441,187.47,441" transform="translate(-101.81 -136.94)"/><path class="cls-4" d="M238.4,374.75s-26.93,40.13-33,51.05A130.87,130.87,0,0,0,196,447.06" transform="translate(-101.81 -136.94)"/><path class="cls-4" d="M243,379.85s-21.66,32.32-25.8,42.37-16,27.82-16,27.82" transform="translate(-101.81 -136.94)"/><path class="cls-4" d="M213.4,455.57l6.24-17.64c4.53-14.15,25.54-55.82,25.54-55.82" transform="translate(-101.81 -136.94)"/><path class="cls-4" d="M253.2,384.14S235.65,425,233.27,437.93s-4,23.46-4,23.46" transform="translate(-101.81 -136.94)"/><path class="cls-4" d="M262.91,384.14s-11.8,42.06-13.82,54.6a208.21,208.21,0,0,0-2.42,22.64" transform="translate(-101.81 -136.94)"/><path class="cls-4" d="M266.88,386.56S260.41,425,260,432.27,258,460.52,258,460.52" transform="translate(-101.81 -136.94)"/><path class="cls-4" d="M275,386.56s-2.87,25.49-1.84,41.67,1.84,29,1.84,29" transform="translate(-101.81 -136.94)"/><path class="cls-4" d="M279,386.56s1.21,37.62,3.64,50.57,3.93,17.16,3.93,17.16" transform="translate(-101.81 -136.94)"/><path class="cls-4" d="M282.81,386.56s10.77,35.6,12.39,45.31S298,450,298,450" transform="translate(-101.81 -136.94)"/><path class="cls-4" d="M288.32,386.56S305,426.2,306.79,433.89s2.63,10.24,2.63,10.24" transform="translate(-101.81 -136.94)"/><path class="cls-4" d="M291.91,384.14s19.08,33.1,21.5,39.4S318.13,441,318.13,441" transform="translate(-101.81 -136.94)"/><line class="cls-4" x1="189.98" y1="240.84" x2="233.03" y2="300.39"/><line class="cls-4" x1="197.06" y1="237.82" x2="246.38" y2="297.08"/><line class="cls-4" x1="199.86" y1="233.69" x2="262.34" y2="291.23"/><line class="cls-4" x1="207.61" y1="229.81" x2="273.81" y2="284.99"/><line class="cls-4" x1="209.97" y1="225.97" x2="283.47" y2="277.81"/><line class="cls-4" x1="212.72" y1="222.09" x2="294.4" y2="266.8"/><path class="cls-3" d="M258.36,381.47s17.8,4.58,29.39-1.35,45.3-32.36,53.66-64.18-7-37.76-11.86-42.34-20.76-20.76-24.81-22.38-11.33-7.82-25.35-4.59-22.65,7.29-29.12,15.64-22.38,27-24.54,38-2.16,33.44-3.24,43.41,7.55,25.89,19.69,32.63S258.36,381.47,258.36,381.47Z" transform="translate(-101.81 -136.94)"/></svg>